<svg width="254" height="164" viewBox="0 0 254 164" fill="none" xmlns="http://www.w3.org/2000/svg">
<g clip-path="url(#clip0_804_2476)">
<path d="M89.3038 38.0358C79.0135 33.02 71.372 34.2963 60.5979 35.248C59.0055 35.4346 49.3348 36.8177 48.798 37.0949C47.3667 36.8995 44.5144 33.2216 43.0763 31.6907C39.4926 27.8837 27.4424 14.6875 24.2434 14.2773C23.904 14.5307 23.4849 14.7497 23.2551 15.2643C22.8494 16.1912 23.0699 16.2624 23.5495 16.7021C23.6168 16.8632 33.3199 25.7541 34.2688 26.6992C38.4335 30.8971 42.6896 34.6401 46.5022 39.2455L45.0549 44.4283L43.3262 50.7688C42.4638 54.914 41.0752 58.929 40.4132 63.065C38.3323 75.9681 40.4052 80.5916 46.1774 92.3762C46.9363 93.5522 47.8523 95.0426 48.7105 96.0734C54.2065 102.369 58.4309 106.993 65.1374 112.21C66.6927 113.422 68.0496 114.453 69.7125 115.646C70.2869 116.063 71.016 116.41 71.7092 116.817C81.222 122.43 91.6013 125.82 102.244 128.699C105.333 129.532 108.471 130.227 111.539 131.061L116.156 132.033C120.057 132.735 123.944 132.97 127.725 134.161C130.395 135.001 131.834 136.764 134.007 137.338C134.161 135.203 132.386 133.106 131.963 130.875C131.524 128.552 131.633 126.72 131.646 124.206C131.728 112.396 129.344 96.5776 126.803 85.4443C124.813 76.7047 121.918 69.5757 117.586 63.166C115.293 59.7777 112.721 56.5697 110.148 53.6826C103.98 46.767 97.7516 42.1539 89.3038 38.0358Z" stroke="url(#paint0_linear_804_2476)" stroke-miterlimit="22.9256"/>
<path d="M133.611 136.605C125.912 127.074 118.16 117.59 110.332 108.163C116.306 107.019 121.724 106.544 128.012 109.306C119.773 104.832 115.745 107.311 109.578 107.255C103.873 100.398 98.128 93.5654 92.3292 86.7802C101.674 83.2945 110.28 81.0182 121.172 83.7768C106.812 78.835 101.028 83.8579 91.173 85.4254C85.8541 79.2098 81.1896 73.8899 75.777 67.7456C83.3979 68.1464 96.7462 60.1788 114.699 62.3167C95.1231 58.7023 87.9294 64.233 74.8207 66.5934C69.5173 60.5803 64.1703 54.6036 58.7635 48.6728C70.7155 44.2257 81.7312 41.3263 95.6666 44.858C77.2569 38.5249 69.823 44.9504 57.2069 46.9674C47.0777 35.8863 36.753 24.9525 26.1938 14.2107C24.554 12.9555 22.4629 14.5303 24.0491 16.9341C35.5156 28.152 46.6636 39.4646 57.5238 50.8595C54.1517 62.8992 47.2461 69.7088 51.564 88.432C49.5306 74.3328 53.4535 63.743 59.0193 52.4327C63.1837 56.8152 67.3111 61.2086 71.3999 65.6193C69.4973 78.3363 64.5659 85.8522 68.8902 104.892C66.5593 90.414 69.011 79.1533 72.6777 67.0057C79.0826 73.9285 85.3863 80.8728 91.6143 87.8453C89.0531 97.6139 83.3697 102.827 86.8039 117.736C85.1937 106.572 88.3716 98.2363 92.8228 89.2615L92.5921 88.9415C98.8849 96.006 105.096 103.097 111.234 110.203C109.005 115.921 105.237 118.768 106.333 128.054C106.096 121.106 108.603 116.206 111.931 111.014C119.262 119.519 126.484 128.05 133.611 136.605Z" fill="url(#paint1_linear_804_2476)"/>
</g>
<g clip-path="url(#clip1_804_2476)">
<path d="M222.576 67.5426C220.677 56.2538 215.196 50.7774 208.16 42.5634C207.082 41.3761 200.336 34.3106 199.798 34.035C199.125 32.7567 200.46 28.298 200.87 26.2379C201.885 21.109 205.619 3.63311 204.093 0.791536C203.69 0.662742 203.268 0.448969 202.716 0.561039C201.726 0.769701 201.796 0.990506 201.717 1.63632C201.625 1.78473 200.03 14.8482 199.812 16.1697C198.817 21.9987 198.245 27.6376 196.714 33.4168L191.655 35.2516L185.491 37.5303C181.616 39.2379 177.542 40.4416 173.792 42.3069C162.083 48.1135 159.525 52.4877 153.291 64.0345C152.775 65.3355 152.095 66.9471 151.755 68.2446C149.826 76.3764 148.519 82.5015 148.172 90.9908C148.09 92.9613 148.039 94.6646 148.035 96.7111C148.03 97.4206 148.171 98.2158 148.243 99.0161C149.205 110.02 152.479 120.436 156.323 130.77C157.44 133.767 158.699 136.725 159.803 139.707L161.696 144.028C163.392 147.611 165.461 150.91 166.689 154.679C167.557 157.34 166.959 159.536 167.755 161.638C169.581 160.522 170.256 157.858 171.826 156.218C173.461 154.51 175.015 153.534 177.068 152.084C186.726 145.286 198.212 134.151 205.795 125.613C211.75 118.914 215.868 112.414 218.566 105.163C219.99 101.328 221.106 97.371 221.959 93.5987C224.002 84.5602 224.135 76.8105 222.576 67.5426Z" stroke="url(#paint2_linear_804_2476)" stroke-miterlimit="22.9256"/>
<path d="M168.121 160.889C171.402 149.085 174.613 137.265 177.734 125.415C182.137 129.612 185.673 133.744 187.08 140.466C185.932 131.161 181.574 129.325 178.035 124.274C180.298 115.646 182.519 106.999 184.67 98.3369C192.938 103.915 199.792 109.595 203.879 120.062C199.554 105.504 192.104 103.717 185.1 96.6086C187.067 88.6677 188.684 81.7799 190.538 73.8042C194.642 80.2384 208.884 86.4692 217.579 102.321C209.142 84.2902 200.46 81.6512 190.92 72.3563C192.73 64.5457 194.486 56.7207 196.169 48.8738C206.735 56.0147 215.497 63.2932 220.723 76.6856C215.176 58.024 205.627 55.7097 196.652 46.6159C199.782 31.9327 202.678 17.176 205.281 2.33999C205.349 0.276017 202.853 -0.510159 201.818 2.1778C199.355 18.0287 196.629 33.6756 193.669 49.1361C181.912 53.3901 172.357 51.7288 159.631 66.1251C169.922 56.2754 180.82 53.3124 193.258 51.2673C192.113 57.2034 190.937 63.1156 189.724 69.0064C178.27 74.85 169.288 75.2057 156.308 89.791C166.734 79.4793 177.323 74.9291 189.339 70.8521C187.428 80.0878 185.441 89.2536 183.388 98.3742C173.95 101.968 166.404 100.374 156.269 111.834C164.417 104.034 173.048 101.775 182.938 100.181L183.064 99.807C180.973 109.034 178.813 118.209 176.598 127.335C170.65 128.845 166.143 127.433 159.224 133.722C164.74 129.491 170.184 128.683 176.343 128.374C173.684 139.282 170.94 150.118 168.121 160.889Z" fill="url(#paint3_linear_804_2476)"/>
</g>
<defs>
<linearGradient id="paint0_linear_804_2476" x1="145.539" y1="93.1211" x2="11.9836" y2="58.291" gradientUnits="userSpaceOnUse">
<stop offset="0.322917" stop-color="#00BD8D"/>
<stop offset="1" stop-color="#00392D"/>
</linearGradient>
<linearGradient id="paint1_linear_804_2476" x1="145.157" y1="92.3334" x2="12.3679" y2="57.7032" gradientUnits="userSpaceOnUse">
<stop offset="0.322917" stop-color="#00BD8D"/>
<stop offset="1" stop-color="#00392D"/>
</linearGradient>
<linearGradient id="paint2_linear_804_2476" x1="210.438" y1="145.321" x2="161.152" y2="16.3981" gradientUnits="userSpaceOnUse">
<stop offset="0.322917" stop-color="#00BD8D"/>
<stop offset="1" stop-color="#00392D"/>
</linearGradient>
<linearGradient id="paint3_linear_804_2476" x1="210.857" y1="144.552" x2="161.854" y2="16.3692" gradientUnits="userSpaceOnUse">
<stop offset="0.322917" stop-color="#00BD8D"/>
<stop offset="1" stop-color="#00392D"/>
</linearGradient>
<clipPath id="clip0_804_2476">
<rect width="93" height="139.5" fill="white" transform="translate(158.454 49.2031) rotate(104.617)"/>
</clipPath>
<clipPath id="clip1_804_2476">
<rect width="93" height="139.5" fill="white" transform="translate(253.682 130.303) rotate(159.079)"/>
</clipPath>
</defs>
</svg>
