<svg width="30" height="20" viewBox="0 0 30 20" fill="none" xmlns="http://www.w3.org/2000/svg">
    <g id="Icons1">
        <g id="hamburger-2">
            <g id="Group">
                <path id="Vector"
                      d="M29 17H1C0.447715 17 0 17.4477 0 18V19C0 19.5523 0.447716 20 1 20H29C29.5523 20 30 19.5523 30 19V18C30 17.4477 29.5523 17 29 17Z"
                      fill="#236B66"/>
            </g>
            <g id="Group_2">
                <path id="Vector_2"
                      d="M29 8.31982H1.13135C0.579063 8.31982 0.131348 8.76754 0.131348 9.31982V11.0624C0.131348 11.6147 0.579063 12.0624 1.13135 12.0624H29C29.5523 12.0624 30 11.6147 30 11.0624V9.31982C30 8.76754 29.5523 8.31982 29 8.31982Z"
                      fill="#236B66"/>
            </g>
            <g id="Group_3">
                <path id="Vector_3"
                      d="M29.0004 0H1.13135C0.579063 0 0.131348 0.447716 0.131348 1V2.74255C0.131348 3.29484 0.579063 3.74255 1.13135 3.74255H29.0004C29.5526 3.74255 30.0004 3.29484 30.0004 2.74255V1C30.0004 0.447715 29.5526 0 29.0004 0Z"
                      fill="#236B66"/>
            </g>
        </g>
    </g>
</svg>
