<?xml version="1.0" standalone="no"?>
<!DOCTYPE svg PUBLIC "-//W3C//DTD SVG 20010904//EN"
 "http://www.w3.org/TR/2001/REC-SVG-20010904/DTD/svg10.dtd">
<svg version="1.0" xmlns="http://www.w3.org/2000/svg"
 width="180.000000pt" height="180.000000pt" viewBox="0 0 180.000000 180.000000"
 preserveAspectRatio="xMidYMid meet">

<g transform="translate(0.000000,180.000000) scale(0.100000,-0.100000)"
fill="#000000" stroke="none">
<path d="M561 1769 c-103 -20 -186 -82 -230 -171 -55 -109 -37 -192 64 -287
56 -53 131 -94 214 -117 42 -11 28 -12 -142 -13 -273 -1 -289 -12 -295 -193
l-4 -108 731 0 731 0 0 100 c0 115 -12 149 -63 180 -29 18 -52 20 -222 20
l-190 1 72 23 c170 55 283 174 283 298 0 48 -54 152 -98 188 -80 66 -209 103
-282 81 -86 -26 -167 -162 -205 -346 -9 -44 -18 -81 -20 -83 -2 -2 -8 23 -15
55 -40 202 -122 348 -211 373 -39 11 -56 11 -118 -1z m7 -189 c63 -42 112 -96
155 -171 30 -51 70 -159 59 -159 -4 0 -32 17 -62 37 -79 53 -155 136 -190 207
-33 68 -48 126 -32 126 5 0 37 -18 70 -40z m747 3 c-18 -97 -142 -255 -245
-312 l-43 -24 6 30 c20 101 117 241 209 302 33 23 65 41 70 41 6 0 8 -15 3
-37z"/>
<path d="M254 796 c-3 -7 -4 -163 -2 -347 3 -309 4 -336 22 -362 37 -54 52
-57 336 -57 l260 0 0 390 0 390 -305 0 c-248 0 -307 -3 -311 -14z"/>
<path d="M930 420 l0 -390 263 0 c287 0 296 2 334 59 23 34 23 36 23 377 l0
344 -310 0 -310 0 0 -390z"/>
</g>
</svg>
