<?xml version="1.0" standalone="no"?>
<!DOCTYPE svg PUBLIC "-//W3C//DTD SVG 20010904//EN"
 "http://www.w3.org/TR/2001/REC-SVG-20010904/DTD/svg10.dtd">
<svg version="1.0" xmlns="http://www.w3.org/2000/svg"
 width="16.000000pt" height="16.000000pt" viewBox="0 0 16.000000 16.000000"
 preserveAspectRatio="xMidYMid meet">

<g transform="translate(0.000000,16.000000) scale(0.100000,-0.100000)"
fill="#000000" stroke="none">
<path d="M50 141 c0 -5 5 -13 10 -16 6 -3 10 -2 10 4 0 5 -4 13 -10 16 -5 3
-10 2 -10 -4z"/>
<path d="M87 143 c-14 -13 -6 -25 8 -13 13 11 14 10 9 -6 -6 -15 -4 -17 6 -7
7 6 9 16 6 22 -8 12 -20 14 -29 4z"/>
<path d="M30 132 c0 -6 5 -14 12 -18 8 -5 6 -10 -8 -15 -12 -5 3 -8 41 -8 51
0 56 2 35 11 -14 5 -30 11 -36 12 -7 1 -19 8 -28 15 -10 8 -16 9 -16 3z"/>
<path d="M30 45 c0 -18 5 -25 20 -25 15 0 20 7 20 25 0 18 -5 25 -20 25 -15 0
-20 -7 -20 -25z"/>
<path d="M80 45 c0 -18 5 -25 20 -25 15 0 20 7 20 25 0 18 -5 25 -20 25 -15 0
-20 -7 -20 -25z"/>
</g>
</svg>
