<svg width="16" height="16" viewBox="0 0 16 16" fill="none" xmlns="http://www.w3.org/2000/svg">
<path d="M10.5059 11.155H11.308V10.9854H10.5059V10.22H11.5564V10.0493H10.2129V12.3678H11.582V12.1971H10.5059V11.155Z" fill="white"/>
<path d="M4.69141 12.3678H4.98327V10.0493H4.69141V12.3678Z" fill="white"/>
<path d="M7.43398 10.0493H7.23569L6.13171 11.1784V10.0493H5.83984V12.3678H6.13171V11.3614L6.30772 11.184L7.30698 12.3678H7.70579L6.5205 10.9698L7.43398 10.0493Z" fill="white"/>
<path d="M12.5037 11.455L12.888 10.4029L13.3035 11.455H12.5037ZM13.6645 12.3677H13.9998L13.0128 10.0347H12.8713L11.999 12.3677H12.1706L12.4535 11.5945H13.3592L13.6645 12.3677Z" fill="white"/>
<path d="M3.71779 11.8892L2.16487 10.0493H2V12.3678H2.17044V10.519L3.74787 12.3946H3.88823V10.0493H3.71779V11.8892Z" fill="white"/>
<path d="M7.84082 10.22H8.6351V12.3678H8.92808V10.22H9.72237V10.0493H7.84082V10.22Z" fill="white"/>
<path d="M7.83743 13.9129C7.83743 13.9576 7.78062 14.0323 7.67145 14.1316C7.68259 14.0212 7.72603 13.8772 7.79956 13.8772C7.83409 13.8795 7.83743 13.8951 7.83743 13.9129ZM7.5244 13.6139V13.615C7.5244 13.7422 7.42748 13.8694 7.31608 13.9899C7.33948 13.923 7.36398 13.8583 7.37846 13.8125C7.40631 13.721 7.44865 13.5592 7.49655 13.5481C7.50546 13.5525 7.51214 13.5592 7.51771 13.5693C7.5244 13.5838 7.5244 13.6028 7.5244 13.6139ZM7.12113 13.6139V13.615C7.12113 13.7422 7.02421 13.8694 6.91281 13.9899C6.93509 13.923 6.96072 13.8583 6.9752 13.8125C7.00305 13.721 7.04538 13.5592 7.09328 13.5481C7.10219 13.5525 7.10888 13.5592 7.11333 13.5693C7.12113 13.5838 7.12113 13.6028 7.12113 13.6139ZM6.10071 13.7009C6.08845 13.7009 6.08622 13.6965 6.08622 13.6887C6.08622 13.6719 6.10962 13.6418 6.14861 13.6128C6.14081 13.6742 6.11296 13.7009 6.10071 13.7009ZM10.501 14.0122L10.4921 14.0223C10.4342 14.0926 10.3027 14.2543 10.2381 14.27C10.2147 14.27 10.2058 14.2555 10.2058 14.2276C10.2058 14.1506 10.2771 14.0569 10.2771 13.9531C10.2771 13.8672 10.1924 13.8549 10.1523 13.8549H10.1512C10.1512 13.8549 10.1512 13.8549 10.1501 13.8549C10.1479 13.8549 10.1468 13.8549 10.1456 13.8549V13.856C10.0677 13.8594 10.003 13.9676 9.94401 14.1037L9.94066 14.0959C9.95292 14.0424 9.97854 13.9185 9.89053 13.8761C9.89053 13.8761 9.88497 13.8705 9.88274 13.8795C9.8716 13.9118 9.85823 13.9542 9.84597 13.9988C9.78805 14.0524 9.7524 14.0647 9.7446 14.0647C9.6967 14.0647 9.66773 14.0189 9.61426 13.9308L9.59978 13.9375C9.61092 13.9676 9.60981 13.9933 9.60981 14.0122C9.60981 14.0156 9.60981 14.0189 9.60981 14.0212C9.60981 14.1785 9.5218 14.261 9.4505 14.2867C9.37921 14.2912 9.36807 14.2331 9.36807 14.164C9.36807 14.0513 9.43157 13.875 9.51623 13.875C9.55188 13.8772 9.56525 13.8906 9.57416 13.8995C9.57639 13.9018 9.57861 13.904 9.58196 13.9062L9.59198 13.8928C9.59087 13.8917 9.58864 13.8895 9.58641 13.8873C9.57527 13.8761 9.55633 13.8583 9.50397 13.8583C9.38366 13.8583 9.26224 13.9364 9.25667 14.1093C9.18871 14.1818 9.08734 14.2845 9.04167 14.2845C9.03164 14.2845 9.00936 14.2834 9.00936 14.203C9.00936 14.1405 9.03164 14.0312 9.08622 13.8917C9.08622 13.8917 9.08846 13.8795 9.07175 13.8795C9.0283 13.8795 8.93472 13.9475 8.91467 14.0613C8.89573 14.0803 8.87568 14.1015 8.85451 14.1238C8.78767 14.1963 8.71192 14.2778 8.6384 14.2778C8.59495 14.2778 8.58604 14.2343 8.58604 14.1629C8.58604 14.0736 8.63171 13.9062 8.69967 13.7456C8.79101 13.7344 8.85785 13.7132 8.91912 13.6954C8.9971 13.6719 9.06506 13.6518 9.16532 13.6518C9.21768 13.6518 9.24664 13.6652 9.24664 13.6775C9.24664 13.6876 9.24219 13.6976 9.20877 13.6976V13.7143C9.22213 13.7143 9.26335 13.7143 9.26335 13.6775C9.26335 13.6463 9.21322 13.6362 9.16532 13.6362C9.06172 13.6362 8.98931 13.6574 8.91356 13.6809C8.85563 13.6987 8.79213 13.7177 8.70635 13.7288C8.72418 13.6875 8.74423 13.6452 8.76428 13.6061L8.77876 13.5771C8.76762 13.5715 8.75314 13.5671 8.75202 13.5671H8.75091C8.6941 13.5671 8.63506 13.6407 8.58604 13.7389C8.56822 13.74 8.54928 13.74 8.52923 13.74C8.44122 13.74 8.41003 13.7143 8.41003 13.6898C8.41003 13.6775 8.4156 13.6675 8.42674 13.6619C8.4479 13.6485 8.48244 13.653 8.49358 13.6585L8.50138 13.644C8.48578 13.6351 8.44456 13.6318 8.41894 13.6474C8.40334 13.6563 8.39443 13.6708 8.39443 13.6898C8.39443 13.7054 8.40446 13.7567 8.53034 13.7567C8.54705 13.7567 8.56376 13.7567 8.57936 13.7556C8.53814 13.8415 8.50361 13.9419 8.48355 14.0267C8.45125 14.0569 8.42228 14.0903 8.39332 14.1238C8.3287 14.1986 8.26632 14.2711 8.185 14.2867C8.1371 14.2878 8.12485 14.2476 8.12485 14.1952C8.12485 13.9866 8.23736 13.8538 8.30308 13.8694C8.33539 13.8783 8.34876 13.894 8.3599 13.9096L8.37327 13.9007C8.3521 13.8683 8.32314 13.8471 8.24627 13.8471C8.1772 13.8471 8.05132 13.9207 8.0179 14.0569C8.00676 14.0691 7.99451 14.0836 7.98114 14.0993C7.92433 14.1651 7.84969 14.2521 7.75722 14.2811C7.68816 14.2956 7.67033 14.241 7.67033 14.1818C7.67033 14.174 7.67033 14.1651 7.67145 14.155C7.79287 14.0457 7.85526 13.9643 7.85526 13.9129C7.85526 13.875 7.83521 13.8594 7.79065 13.8594C7.71378 13.8594 7.61352 13.9709 7.56785 14.0725C7.55225 14.0892 7.53665 14.1059 7.52217 14.1227C7.45756 14.1941 7.39963 14.2577 7.34393 14.2778C7.27486 14.2878 7.26929 14.2465 7.26929 14.1974C7.26929 14.1528 7.28489 14.0903 7.30606 14.0267C7.42971 13.8962 7.54334 13.7578 7.54334 13.615V13.6139C7.54334 13.6016 7.54334 13.5804 7.53442 13.5615C7.52328 13.538 7.501 13.5247 7.47093 13.5247C7.36844 13.5247 7.20245 13.7958 7.18129 14.0557C7.16012 14.0781 7.13896 14.1004 7.1189 14.1227C7.05429 14.1941 6.99748 14.2577 6.94066 14.2778C6.8716 14.2878 6.86602 14.2465 6.86602 14.1974C6.86602 14.1528 6.88274 14.0903 6.90279 14.0267C7.02644 13.8962 7.14007 13.7578 7.14007 13.615V13.6139C7.14007 13.6016 7.14007 13.5804 7.13116 13.5615C7.12002 13.538 7.09774 13.5247 7.06766 13.5247C6.9674 13.5247 6.80698 13.7824 6.78025 14.0357C6.74794 14.0591 6.72789 14.0658 6.72232 14.0658C6.67442 14.0658 6.64545 14.02 6.59198 13.9319L6.5775 13.9386C6.58864 13.9687 6.58752 13.9944 6.58752 14.0133C6.58752 14.0167 6.58752 14.02 6.58752 14.0223C6.58752 14.1796 6.49952 14.2622 6.42822 14.2878C6.35693 14.2923 6.34579 14.2343 6.34579 14.1651C6.34579 14.0524 6.40929 13.8761 6.49395 13.8761C6.5296 13.8783 6.54296 13.8917 6.55188 13.9007C6.5541 13.9029 6.55633 13.9051 6.55967 13.9073L6.5697 13.894C6.56859 13.8928 6.56636 13.8906 6.56413 13.8884C6.55299 13.8772 6.53405 13.8594 6.4817 13.8594C6.38032 13.8594 6.27895 13.914 6.24441 14.0345C6.23662 14.0435 6.2277 14.0535 6.21879 14.0647C6.13636 14.1606 6.01159 14.3068 5.83112 14.3068C5.82666 14.3068 5.82221 14.3068 5.81775 14.3057C5.67739 14.299 5.62169 14.1907 5.62169 14.0245C5.62169 13.7344 5.79324 13.4075 5.96257 13.4064C6.084 13.4164 6.15529 13.4968 6.15529 13.5737C6.15529 13.5793 6.15529 13.5849 6.15529 13.5905C6.10739 13.6228 6.07397 13.6608 6.07397 13.6876C6.07397 13.6987 6.07843 13.7166 6.10516 13.7166C6.13079 13.7166 6.16532 13.6764 6.17089 13.5994C6.19874 13.5816 6.23216 13.5637 6.26892 13.5525L6.26335 13.5369C6.23104 13.547 6.19985 13.5626 6.17089 13.5804V13.5749C6.17089 13.4711 6.06729 13.3896 5.93472 13.3896C5.74868 13.3896 5.49023 13.6083 5.49023 13.9631C5.49023 14.1963 5.66625 14.3224 5.83112 14.3224C6.01938 14.3224 6.15195 14.1673 6.23105 14.0747C6.23327 14.0725 6.2355 14.0702 6.23662 14.068C6.23327 14.0859 6.23216 14.1037 6.23216 14.1238C6.23216 14.2532 6.31014 14.3135 6.38255 14.3135C6.45942 14.3135 6.60423 14.2276 6.60423 14.0234C6.60423 14.0212 6.60423 14.0178 6.60423 14.0145C6.60423 14.0055 6.60424 13.9944 6.60312 13.9821C6.641 14.0435 6.6733 14.0825 6.72232 14.0825C6.73123 14.0825 6.75017 14.0758 6.77802 14.058C6.7769 14.0747 6.77579 14.0914 6.77579 14.1093C6.77579 14.2354 6.82035 14.3023 6.90502 14.3023C6.98077 14.3023 7.05095 14.2253 7.13116 14.135C7.14675 14.1171 7.16235 14.1004 7.17906 14.0825C7.17906 14.0914 7.17795 14.1004 7.17795 14.1093C7.17795 14.2354 7.2225 14.3023 7.30717 14.3023C7.38292 14.3023 7.4531 14.2253 7.53331 14.135C7.53888 14.1283 7.54556 14.1216 7.55113 14.1149C7.54556 14.1338 7.54222 14.1517 7.54222 14.1673C7.54222 14.2711 7.6202 14.309 7.69261 14.309C7.82407 14.309 7.92655 14.1896 7.99339 14.1104C8.00008 14.1026 8.00565 14.0959 8.01233 14.0892C8.01122 14.1026 8.00899 14.116 8.00899 14.1305C8.00899 14.2398 8.06246 14.3079 8.14935 14.3079C8.25741 14.3079 8.33316 14.2198 8.40669 14.135C8.43008 14.1082 8.45347 14.0814 8.47798 14.0569C8.46907 14.1004 8.4635 14.1383 8.4635 14.1651C8.4635 14.2566 8.51809 14.2967 8.63951 14.2967C8.72084 14.2967 8.79881 14.2119 8.86788 14.1372C8.88348 14.1205 8.89796 14.1048 8.91244 14.0903C8.91244 14.0959 8.91133 14.1026 8.91133 14.1093C8.91133 14.2476 9.02384 14.3046 9.04278 14.3046C9.09068 14.3046 9.17312 14.2264 9.25778 14.1361C9.26224 14.2588 9.33799 14.3146 9.40817 14.3146C9.48504 14.3146 9.62986 14.2287 9.62986 14.0245C9.62986 14.0223 9.62986 14.0189 9.62986 14.0156C9.62986 14.0066 9.62986 13.9955 9.62875 13.9832C9.66774 14.0446 9.69892 14.0836 9.74794 14.0836C9.76019 14.0836 9.7925 14.0714 9.84152 14.0301C9.81144 14.1417 9.78582 14.2622 9.78693 14.2945C9.82704 14.2956 9.88719 14.299 9.88719 14.299L9.89387 14.2834C9.97297 14.0825 10.0543 13.8739 10.1546 13.8739C10.1679 13.8739 10.1713 13.8795 10.1724 13.8806C10.1835 13.8962 10.1657 13.9442 10.1479 13.9955C10.1267 14.0546 10.0989 14.1294 10.0989 14.1974C10.0989 14.2767 10.1401 14.29 10.2325 14.29C10.2916 14.29 10.3996 14.1673 10.5088 14.0345L10.5177 14.0234L10.501 14.0122Z" fill="white"/>
<path d="M5 4.98783V5.70734H11V4.98783C11 4.69209 10.7591 4.45124 10.4634 4.45124H8.89634C9.64024 4.45124 10.7134 3.72868 10.4787 2.96039C10.2835 2.32014 9.69512 1.99697 9.09451 2.00002C8.24695 2.00612 8.02439 3.78356 8.02439 3.78356H8C8 3.78356 7.78049 2.00612 6.92988 2.00002C6.32927 1.99697 5.74085 2.32014 5.54573 2.96039C5.31098 3.72563 6.3811 4.45124 7.12805 4.45124H5.53659C5.24085 4.45429 5 4.69209 5 4.98783ZM9.71646 2.64941C9.71646 2.64941 9.68902 3.52441 8.51524 4.1799C8.5122 4.1799 8.73476 3.0549 9.71646 2.64941ZM6.31707 2.64941C7.29573 3.0549 7.51829 4.1799 7.51829 4.1799C6.34451 3.52441 6.31707 2.64941 6.31707 2.64941Z" fill="white"/>
<path fill-rule="evenodd" clip-rule="evenodd" d="M10.1308 9.19791H5.86862C5.57288 9.19791 5.33203 8.95705 5.33203 8.66132V5.98145H10.6674V8.66132C10.6674 8.95705 10.4265 9.19791 10.1308 9.19791ZM8.11034 5.98322H7.89579V9.18748H8.11034V5.98322Z" fill="white"/>
</svg>
