<svg width="180" height="180" viewBox="0 0 180 180" fill="none" xmlns="http://www.w3.org/2000/svg">
<path d="M121.302 124.491H131.42V122.352H121.302V112.696H134.554V110.543H117.606V139.79H134.877V137.637H121.302V124.491Z" fill="white"/>
<path d="M47.9561 139.79H51.6379V110.543H47.9561V139.79Z" fill="white"/>
<path d="M82.5531 110.543H80.0516L66.1252 124.787V110.543H62.4434V139.79H66.1252V127.095L68.3456 124.857L80.951 139.79H85.982L71.0297 122.155L82.5531 110.543Z" fill="white"/>
<path d="M146.506 128.274L151.354 115.001L156.596 128.274H146.506ZM161.149 139.787H165.379L152.928 110.356H151.143L140.14 139.787H142.304L145.873 130.033H157.298L161.149 139.787Z" fill="white"/>
<path d="M35.6695 133.752L16.0798 110.543H14V139.79H16.1501V116.468L36.049 140.128H37.8197V110.543H35.6695V133.752Z" fill="white"/>
<path d="M87.6826 112.696H97.7023V139.79H101.398V112.696H111.418V110.543H87.6826V112.696Z" fill="white"/>
<path d="M87.6427 159.281C87.6427 159.844 86.926 160.787 85.5488 162.039C85.6893 160.646 86.2374 158.83 87.1649 158.83C87.6005 158.859 87.6427 159.056 87.6427 159.281ZM83.6938 155.509V155.523C83.6938 157.127 82.4712 158.732 81.0659 160.252C81.361 159.407 81.6702 158.591 81.8529 158.014C82.2042 156.86 82.7382 154.819 83.3425 154.678C83.4549 154.735 83.5392 154.819 83.6095 154.946C83.6938 155.129 83.6938 155.368 83.6938 155.509ZM78.6067 155.509V155.523C78.6067 157.127 77.3841 158.732 75.9788 160.252C76.2598 159.407 76.5831 158.591 76.7657 158.014C77.1171 156.86 77.6511 154.819 78.2553 154.678C78.3678 154.735 78.4521 154.819 78.5083 154.946C78.6067 155.129 78.6067 155.368 78.6067 155.509ZM65.7342 156.607C65.5796 156.607 65.5515 156.55 65.5515 156.452C65.5515 156.241 65.8466 155.861 66.3385 155.495C66.2401 156.269 65.8888 156.607 65.7342 156.607ZM121.243 160.533L121.131 160.66C120.4 161.547 118.742 163.588 117.927 163.785C117.632 163.785 117.519 163.602 117.519 163.25C117.519 162.279 118.419 161.096 118.419 159.787C118.419 158.704 117.35 158.549 116.845 158.549H116.831C116.831 158.549 116.831 158.549 116.817 158.549C116.788 158.549 116.774 158.549 116.76 158.549V158.563C115.777 158.605 114.962 159.97 114.217 161.688L114.175 161.589C114.329 160.913 114.652 159.351 113.542 158.816C113.542 158.816 113.472 158.746 113.444 158.859C113.303 159.267 113.135 159.802 112.98 160.365C112.249 161.04 111.8 161.195 111.701 161.195C111.097 161.195 110.732 160.618 110.057 159.506L109.874 159.59C110.015 159.97 110.001 160.294 110.001 160.533C110.001 160.576 110.001 160.618 110.001 160.646C110.001 162.631 108.891 163.672 107.991 163.996C107.092 164.052 106.951 163.32 106.951 162.448C106.951 161.026 107.752 158.802 108.82 158.802C109.27 158.83 109.439 158.999 109.551 159.112C109.579 159.14 109.607 159.168 109.65 159.196L109.776 159.027C109.762 159.013 109.734 158.985 109.706 158.957C109.565 158.816 109.326 158.591 108.666 158.591C107.148 158.591 105.616 159.576 105.546 161.758C104.689 162.673 103.41 163.968 102.834 163.968C102.707 163.968 102.426 163.954 102.426 162.94C102.426 162.152 102.707 160.773 103.396 159.013C103.396 159.013 103.424 158.859 103.213 158.859C102.665 158.859 101.485 159.717 101.232 161.153C100.993 161.392 100.74 161.659 100.473 161.941C99.6298 162.856 98.6742 163.883 97.7467 163.883C97.1986 163.883 97.0862 163.334 97.0862 162.434C97.0862 161.308 97.6624 159.196 98.5196 157.17C99.6719 157.029 100.515 156.761 101.288 156.536C102.272 156.241 103.129 155.987 104.394 155.987C105.054 155.987 105.42 156.156 105.42 156.311C105.42 156.438 105.363 156.564 104.942 156.564V156.775C105.11 156.775 105.63 156.775 105.63 156.311C105.63 155.917 104.998 155.79 104.394 155.79C103.087 155.79 102.173 156.058 101.218 156.353C100.487 156.578 99.686 156.818 98.604 156.958C98.8288 156.438 99.0817 155.903 99.3347 155.41L99.5174 155.044C99.3769 154.974 99.1941 154.918 99.1801 154.918H99.1661C98.4494 154.918 97.7045 155.847 97.0862 157.085C96.8614 157.099 96.6225 157.099 96.3695 157.099C95.2593 157.099 94.8659 156.775 94.8659 156.466C94.8659 156.311 94.9361 156.184 95.0767 156.114C95.3437 155.945 95.7793 156.001 95.9198 156.072L96.0182 155.889C95.8214 155.776 95.3015 155.734 94.9783 155.931C94.7815 156.044 94.6691 156.227 94.6691 156.466C94.6691 156.663 94.7956 157.31 96.3836 157.31C96.5944 157.31 96.8052 157.31 97.0019 157.296C96.4819 158.38 96.0463 159.647 95.7934 160.716C95.3858 161.096 95.0204 161.519 94.6551 161.941C93.84 162.884 93.053 163.799 92.0272 163.996C91.4229 164.01 91.2683 163.503 91.2683 162.842C91.2683 160.21 92.6877 158.535 93.5168 158.732C93.9243 158.844 94.093 159.041 94.2335 159.239L94.4021 159.126C94.1351 158.718 93.7698 158.45 92.8001 158.45C91.9288 158.45 90.3408 159.379 89.9192 161.096C89.7787 161.251 89.6241 161.434 89.4555 161.631C88.7388 162.462 87.7973 163.56 86.6309 163.925C85.7596 164.108 85.5347 163.419 85.5347 162.673C85.5347 162.574 85.5348 162.462 85.5488 162.335C87.0806 160.956 87.8675 159.928 87.8675 159.281C87.8675 158.802 87.6146 158.605 87.0525 158.605C86.0828 158.605 84.8181 160.013 84.2419 161.293C84.0452 161.505 83.8484 161.716 83.6657 161.927C82.8507 162.828 82.1199 163.63 81.4172 163.883C80.546 164.01 80.4757 163.489 80.4757 162.87C80.4757 162.307 80.6724 161.519 80.9395 160.716C82.4993 159.07 83.9327 157.324 83.9327 155.523V155.509C83.9327 155.354 83.9327 155.086 83.8203 154.847C83.6798 154.552 83.3987 154.383 83.0193 154.383C81.7264 154.383 79.6325 157.803 79.3655 161.082C79.0985 161.364 78.8315 161.645 78.5786 161.927C77.7635 162.828 77.0468 163.63 76.3301 163.883C75.4588 164.01 75.3885 163.489 75.3885 162.87C75.3885 162.307 75.5994 161.519 75.8523 160.716C77.4122 159.07 78.8455 157.324 78.8455 155.523V155.509C78.8455 155.354 78.8456 155.086 78.7331 154.847C78.5926 154.552 78.3115 154.383 77.9321 154.383C76.6674 154.383 74.6438 157.634 74.3065 160.829C73.8989 161.125 73.646 161.209 73.5757 161.209C72.9714 161.209 72.6061 160.632 71.9315 159.52L71.7488 159.604C71.8894 159.985 71.8753 160.308 71.8753 160.548C71.8753 160.59 71.8753 160.632 71.8753 160.66C71.8753 162.645 70.7651 163.686 69.8658 164.01C68.9664 164.066 68.8259 163.334 68.8259 162.462C68.8259 161.04 69.6269 158.816 70.6949 158.816C71.1446 158.844 71.3132 159.013 71.4256 159.126C71.4537 159.154 71.4818 159.182 71.524 159.21L71.6505 159.042C71.6364 159.027 71.6083 158.999 71.5802 158.971C71.4397 158.83 71.2008 158.605 70.5403 158.605C69.2615 158.605 67.9827 159.295 67.547 160.815C67.4487 160.928 67.3362 161.054 67.2238 161.195C66.1839 162.405 64.61 164.249 62.3334 164.249C62.2772 164.249 62.221 164.249 62.1648 164.235C60.3941 164.151 59.6915 162.785 59.6915 160.688C59.6915 157.029 61.8556 152.905 63.9917 152.891C65.5234 153.018 66.4228 154.031 66.4228 155.002C66.4228 155.072 66.4228 155.143 66.4228 155.213C65.8185 155.621 65.397 156.1 65.397 156.438C65.397 156.578 65.4532 156.804 65.7904 156.804C66.1136 156.804 66.5493 156.297 66.6195 155.326C66.9709 155.101 67.3925 154.875 67.8562 154.735L67.7859 154.538C67.3784 154.664 66.9849 154.861 66.6195 155.087V155.016C66.6195 153.707 65.3126 152.68 63.6403 152.68C61.2935 152.68 58.0332 155.438 58.0332 159.914C58.0332 162.856 60.2536 164.446 62.3334 164.446C64.7083 164.446 66.3807 162.49 67.3784 161.322C67.4065 161.293 67.4346 161.265 67.4487 161.237C67.4065 161.462 67.3924 161.688 67.3924 161.941C67.3924 163.574 68.3762 164.334 69.2896 164.334C70.2592 164.334 72.0861 163.25 72.0861 160.674C72.0861 160.646 72.0861 160.604 72.0861 160.562C72.0861 160.449 72.0861 160.308 72.0721 160.153C72.5499 160.928 72.9574 161.42 73.5757 161.42C73.6881 161.42 73.927 161.336 74.2784 161.11C74.2643 161.322 74.2503 161.533 74.2503 161.758C74.2503 163.348 74.8124 164.193 75.8804 164.193C76.836 164.193 77.7213 163.222 78.7331 162.082C78.9299 161.856 79.1266 161.645 79.3374 161.42C79.3374 161.533 79.3234 161.645 79.3234 161.758C79.3234 163.348 79.8855 164.193 80.9535 164.193C81.9091 164.193 82.7944 163.222 83.8062 162.082C83.8765 161.997 83.9608 161.913 84.0311 161.828C83.9608 162.068 83.9187 162.293 83.9187 162.49C83.9187 163.799 84.9024 164.277 85.8158 164.277C87.4741 164.277 88.7669 162.771 89.6101 161.772C89.6944 161.673 89.7647 161.589 89.849 161.505C89.8349 161.673 89.8068 161.842 89.8068 162.025C89.8068 163.405 90.4814 164.263 91.5775 164.263C92.9406 164.263 93.8962 163.151 94.8237 162.082C95.1188 161.744 95.4139 161.406 95.7231 161.096C95.6107 161.645 95.5404 162.124 95.5404 162.462C95.5404 163.616 96.229 164.122 97.7608 164.122C98.7866 164.122 99.7703 163.053 100.642 162.11C100.838 161.899 101.021 161.702 101.204 161.519C101.204 161.589 101.19 161.673 101.19 161.758C101.19 163.503 102.609 164.221 102.848 164.221C103.452 164.221 104.492 163.236 105.56 162.096C105.616 163.644 106.572 164.348 107.457 164.348C108.427 164.348 110.254 163.264 110.254 160.688C110.254 160.66 110.254 160.618 110.254 160.576C110.254 160.463 110.254 160.322 110.24 160.167C110.732 160.942 111.125 161.434 111.743 161.434C111.898 161.434 112.305 161.279 112.924 160.759C112.544 162.166 112.221 163.686 112.235 164.094C112.741 164.108 113.5 164.151 113.5 164.151L113.584 163.954C114.582 161.42 115.608 158.788 116.873 158.788C117.041 158.788 117.083 158.859 117.098 158.873C117.238 159.07 117.013 159.675 116.788 160.322C116.521 161.068 116.17 162.011 116.17 162.87C116.17 163.869 116.69 164.038 117.856 164.038C118.601 164.038 119.964 162.49 121.342 160.815L121.454 160.674L121.243 160.533Z" fill="white"/>
<path d="M51.0537 46.6909V55.7674H126.743V46.6909C126.743 42.9603 123.704 39.922 119.974 39.922H100.205C109.59 39.922 123.127 30.807 120.166 21.1151C117.705 13.0386 110.282 8.96181 102.705 9.00027C92.0134 9.07719 89.2058 31.4993 89.2058 31.4993H88.8982C88.8982 31.4993 86.1291 9.07719 75.3988 9.00027C67.8222 8.96181 60.3994 13.0386 57.938 21.1151C54.9766 30.7685 68.476 39.922 77.8987 39.922H57.8226C54.092 39.9604 51.0537 42.9603 51.0537 46.6909ZM110.551 17.1922C110.551 17.1922 110.205 28.2302 95.3979 36.499C95.3594 36.499 98.167 22.3074 110.551 17.1922ZM67.6683 17.1922C80.0139 22.3074 82.8215 36.499 82.8215 36.499C68.0145 28.2302 67.6683 17.1922 67.6683 17.1922Z" fill="white"/>
<path fill-rule="evenodd" clip-rule="evenodd" d="M115.795 99.7987H62.0277C58.2971 99.7987 55.2588 96.7604 55.2588 93.0298V59.2236H122.563V93.0298C122.563 96.7604 119.525 99.7987 115.795 99.7987ZM90.2994 59.2485H87.5929V99.6696H90.2994V59.2485Z" fill="white"/>
</svg>
