<?xml version="1.0" standalone="no"?>
<!DOCTYPE svg PUBLIC "-//W3C//DTD SVG 20010904//EN"
 "http://www.w3.org/TR/2001/REC-SVG-20010904/DTD/svg10.dtd">
<svg version="1.0" xmlns="http://www.w3.org/2000/svg"
 width="192.000000pt" height="192.000000pt" viewBox="0 0 192.000000 192.000000"
 preserveAspectRatio="xMidYMid meet">

<g transform="translate(0.000000,192.000000) scale(0.100000,-0.100000)"
fill="#000000" stroke="none">
<path d="M602 1889 c-113 -22 -213 -97 -258 -192 -48 -104 -22 -210 77 -302
54 -50 169 -110 240 -124 32 -6 -12 -9 -156 -10 -173 -1 -206 -4 -242 -20 -66
-31 -77 -57 -82 -193 l-3 -118 781 0 781 0 0 115 c0 202 -18 214 -310 215
-186 1 -193 2 -143 15 78 21 118 40 183 86 138 97 178 215 115 342 -51 103
-148 168 -279 189 -71 11 -77 10 -123 -13 -84 -43 -171 -209 -198 -379 -12
-75 -21 -77 -34 -9 -17 87 -66 232 -96 283 -32 54 -71 91 -117 110 -41 17 -70
18 -136 5z m-16 -188 c75 -43 157 -138 203 -234 21 -45 42 -95 45 -110 l7 -29
-43 24 c-73 39 -201 174 -236 248 -32 69 -49 130 -35 130 4 0 31 -13 59 -29z
m820 -13 c-9 -56 -56 -142 -113 -207 -52 -59 -186 -158 -191 -141 -7 19 39
129 79 190 21 32 56 77 79 100 41 41 125 100 143 100 6 0 7 -18 3 -42z"/>
<path d="M270 491 c0 -505 -28 -471 388 -471 l272 0 0 420 0 420 -330 0 -330
0 0 -369z"/>
<path d="M998 440 l-3 -421 287 3 c408 4 378 -34 378 476 l0 362 -330 0 -330
0 -2 -420z"/>
</g>
</svg>
