<?xml version="1.0" standalone="no"?>
<!DOCTYPE svg PUBLIC "-//W3C//DTD SVG 20010904//EN"
 "http://www.w3.org/TR/2001/REC-SVG-20010904/DTD/svg10.dtd">
<svg version="1.0" xmlns="http://www.w3.org/2000/svg"
 width="375.000000pt" height="375.000000pt" viewBox="0 0 375.000000 375.000000"
 preserveAspectRatio="xMidYMid meet">

<g transform="translate(0.000000,375.000000) scale(0.100000,-0.100000)"
fill="#000000" stroke="none">
<path d="M1181 3640 c-281 -59 -495 -262 -542 -515 -36 -195 124 -432 388
-572 90 -48 233 -98 313 -110 36 -5 -91 -10 -360 -13 -401 -5 -416 -6 -455
-27 -53 -28 -99 -78 -124 -133 -19 -41 -21 -66 -21 -252 l0 -208 1490 0 1490
0 0 210 c0 227 -4 247 -55 315 -15 19 -54 48 -88 65 l-60 30 -401 1 -401 0 94
20 c388 82 692 375 668 646 -27 303 -334 554 -677 552 -128 0 -202 -38 -293
-148 -100 -123 -220 -444 -252 -678 -9 -65 -22 -76 -30 -26 -72 419 -216 725
-386 818 -48 26 -64 30 -154 32 -55 1 -120 -2 -144 -7z m-51 -354 c162 -95
295 -239 392 -423 42 -79 108 -252 108 -283 0 -29 -185 98 -298 205 -159 150
-268 335 -297 503 -9 54 0 54 95 -2z m1595 2 c-41 -242 -269 -531 -547 -692
-57 -33 -58 -30 -23 80 57 172 183 376 302 485 80 73 228 167 266 169 5 0 6
-19 2 -42z"/>
<path d="M542 973 l3 -698 29 -59 c30 -60 84 -109 149 -133 23 -8 183 -12 565
-12 l532 -1 0 800 0 800 -640 0 -641 0 3 -697z"/>
<path d="M1930 870 l0 -800 523 0 c599 0 586 -1 668 80 81 82 79 55 79 837 l0
683 -635 0 -635 0 0 -800z"/>
</g>
</svg>
