<svg width="192" height="192" viewBox="0 0 192 192" fill="none" xmlns="http://www.w3.org/2000/svg">
<path d="M131.502 135.737H142.865V133.334H131.502V122.491H146.384V120.073H127.352V152.918H146.747V150.5H131.502V135.737Z" fill="white"/>
<path d="M49.1328 152.918H53.2676V120.073H49.1328V152.918Z" fill="white"/>
<path d="M87.9859 120.073H85.1767L69.5371 136.069V120.073H65.4023V152.918H69.5371V138.661L72.0306 136.148L86.1867 152.918H91.8366L75.0449 133.113L87.9859 120.073Z" fill="white"/>
<path d="M159.806 139.985L165.251 125.079L171.137 139.985H159.806ZM176.251 152.914H181.001L167.018 119.863H165.014L152.657 152.914H155.088L159.096 141.96H171.927L176.251 152.914Z" fill="white"/>
<path d="M35.3353 146.137L13.3357 120.073H11V152.918H13.4146V126.727L35.7614 153.297H37.7499V120.073H35.3353V146.137Z" fill="white"/>
<path d="M93.7471 122.491H104.999V152.918H109.15V122.491H120.402V120.073H93.7471V122.491Z" fill="white"/>
<path d="M93.7021 174.806C93.7021 175.438 92.8973 176.497 91.3507 177.904C91.5085 176.339 92.124 174.3 93.1656 174.3C93.6548 174.332 93.7021 174.553 93.7021 174.806ZM89.2675 170.57V170.586C89.2675 172.388 87.8945 174.19 86.3163 175.897C86.6477 174.948 86.9949 174.032 87.2001 173.384C87.5946 172.088 88.1943 169.796 88.8729 169.638C88.9992 169.701 89.0939 169.796 89.1728 169.938C89.2675 170.143 89.2675 170.412 89.2675 170.57ZM83.5545 170.57V170.586C83.5545 172.388 82.1815 174.19 80.6034 175.897C80.919 174.948 81.282 174.032 81.4872 173.384C81.8817 172.088 82.4814 169.796 83.16 169.638C83.2863 169.701 83.3809 169.796 83.4441 169.938C83.5545 170.143 83.5545 170.412 83.5545 170.57ZM69.0986 171.803C68.925 171.803 68.8934 171.74 68.8934 171.629C68.8934 171.392 69.2248 170.965 69.7772 170.554C69.6667 171.424 69.2722 171.803 69.0986 171.803ZM131.436 176.213L131.31 176.355C130.489 177.351 128.627 179.643 127.712 179.864C127.38 179.864 127.254 179.659 127.254 179.264C127.254 178.173 128.264 176.845 128.264 175.375C128.264 174.158 127.065 173.984 126.496 173.984H126.481C126.481 173.984 126.481 173.984 126.465 173.984C126.433 173.984 126.417 173.984 126.402 173.984V174C125.297 174.048 124.382 175.581 123.545 177.509L123.498 177.398C123.671 176.64 124.034 174.885 122.788 174.285C122.788 174.285 122.709 174.206 122.677 174.332C122.519 174.79 122.33 175.391 122.156 176.023C121.336 176.782 120.831 176.956 120.72 176.956C120.042 176.956 119.631 176.308 118.874 175.059L118.669 175.154C118.827 175.581 118.811 175.944 118.811 176.213C118.811 176.26 118.811 176.308 118.811 176.339C118.811 178.568 117.564 179.738 116.554 180.101C115.544 180.164 115.386 179.343 115.386 178.363C115.386 176.766 116.286 174.269 117.485 174.269C117.99 174.3 118.179 174.49 118.306 174.617C118.337 174.648 118.369 174.68 118.416 174.711L118.558 174.522C118.542 174.506 118.511 174.474 118.479 174.443C118.322 174.285 118.053 174.032 117.311 174.032C115.607 174.032 113.887 175.138 113.808 177.588C112.845 178.615 111.409 180.07 110.762 180.07C110.62 180.07 110.304 180.054 110.304 178.916C110.304 178.031 110.62 176.482 111.393 174.506C111.393 174.506 111.425 174.332 111.188 174.332C110.573 174.332 109.247 175.296 108.963 176.908C108.695 177.177 108.411 177.477 108.111 177.794C107.164 178.821 106.091 179.975 105.049 179.975C104.434 179.975 104.307 179.358 104.307 178.347C104.307 177.082 104.954 174.711 105.917 172.435C107.211 172.277 108.158 171.977 109.026 171.724C110.131 171.392 111.094 171.108 112.514 171.108C113.256 171.108 113.666 171.297 113.666 171.471C113.666 171.613 113.603 171.756 113.129 171.756V171.993C113.319 171.993 113.903 171.993 113.903 171.471C113.903 171.029 113.192 170.886 112.514 170.886C111.046 170.886 110.02 171.187 108.947 171.519C108.127 171.771 107.227 172.04 106.012 172.198C106.264 171.613 106.548 171.013 106.832 170.459L107.038 170.049C106.88 169.97 106.675 169.906 106.659 169.906H106.643C105.838 169.906 105.002 170.949 104.307 172.34C104.055 172.356 103.787 172.356 103.503 172.356C102.256 172.356 101.814 171.993 101.814 171.645C101.814 171.471 101.893 171.329 102.051 171.25C102.35 171.06 102.84 171.123 102.998 171.202L103.108 170.997C102.887 170.87 102.303 170.823 101.94 171.044C101.719 171.171 101.593 171.376 101.593 171.645C101.593 171.866 101.735 172.593 103.518 172.593C103.755 172.593 103.992 172.593 104.213 172.578C103.629 173.795 103.14 175.217 102.856 176.418C102.398 176.845 101.987 177.319 101.577 177.794C100.662 178.853 99.7781 179.88 98.626 180.101C97.9474 180.117 97.7738 179.548 97.7738 178.805C97.7738 175.849 99.3677 173.968 100.299 174.19C100.757 174.316 100.946 174.537 101.104 174.759L101.293 174.632C100.993 174.174 100.583 173.874 99.494 173.874C98.5155 173.874 96.7322 174.917 96.2587 176.845C96.1009 177.019 95.9274 177.225 95.738 177.446C94.9331 178.378 93.8757 179.611 92.5658 180.022C91.5874 180.228 91.3349 179.453 91.3349 178.615C91.3349 178.505 91.3349 178.378 91.3507 178.236C93.0709 176.687 93.9546 175.533 93.9546 174.806C93.9546 174.269 93.6706 174.048 93.0393 174.048C91.9504 174.048 90.53 175.628 89.883 177.066C89.6621 177.304 89.4411 177.541 89.2359 177.778C88.3206 178.789 87.5 179.69 86.7109 179.975C85.7324 180.117 85.6535 179.532 85.6535 178.837C85.6535 178.205 85.8744 177.319 86.1743 176.418C87.9261 174.569 89.5358 172.609 89.5358 170.586V170.57C89.5358 170.396 89.5358 170.096 89.4095 169.827C89.2517 169.495 88.9361 169.306 88.51 169.306C87.058 169.306 84.7066 173.147 84.4068 176.829C84.1069 177.145 83.8071 177.462 83.523 177.778C82.6077 178.789 81.8028 179.69 80.9979 179.975C80.0195 180.117 79.9405 179.532 79.9405 178.837C79.9405 178.205 80.1773 177.319 80.4614 176.418C82.2131 174.569 83.8228 172.609 83.8228 170.586V170.57C83.8228 170.396 83.8228 170.096 83.6966 169.827C83.5388 169.495 83.2231 169.306 82.797 169.306C81.3767 169.306 79.1041 172.957 78.7254 176.545C78.2677 176.877 77.9836 176.972 77.9047 176.972C77.2261 176.972 76.8158 176.324 76.0583 175.075L75.8531 175.17C76.0109 175.596 75.9951 175.96 75.9951 176.229C75.9951 176.276 75.9951 176.324 75.9951 176.355C75.9951 178.584 74.7484 179.754 73.7384 180.117C72.7283 180.18 72.5705 179.358 72.5705 178.378C72.5705 176.782 73.4701 174.285 74.6695 174.285C75.1745 174.316 75.3638 174.506 75.4901 174.632C75.5217 174.664 75.5532 174.696 75.6006 174.727L75.7426 174.537C75.7268 174.522 75.6953 174.49 75.6637 174.458C75.5059 174.3 75.2376 174.048 74.4959 174.048C73.0598 174.048 71.6236 174.822 71.1344 176.529C71.0239 176.656 70.8977 176.798 70.7714 176.956C69.6036 178.315 67.836 180.386 65.2794 180.386C65.2162 180.386 65.1531 180.386 65.09 180.37C63.1015 180.275 62.3125 178.742 62.3125 176.387C62.3125 172.277 64.7428 167.646 67.1416 167.63C68.8618 167.772 69.8718 168.91 69.8718 170.001C69.8718 170.08 69.8718 170.159 69.8718 170.238C69.1932 170.697 68.7198 171.234 68.7198 171.613C68.7198 171.771 68.7829 172.024 69.1617 172.024C69.5247 172.024 70.0139 171.455 70.0928 170.365C70.4873 170.112 70.9608 169.859 71.4816 169.701L71.4027 169.479C70.945 169.622 70.5031 169.843 70.0928 170.096V170.017C70.0928 168.547 68.6251 167.393 66.7471 167.393C64.1116 167.393 60.4502 170.491 60.4502 175.517C60.4502 178.821 62.9437 180.607 65.2794 180.607C67.9465 180.607 69.8245 178.41 70.945 177.098C70.9766 177.066 71.0081 177.035 71.0239 177.003C70.9766 177.256 70.9608 177.509 70.9608 177.794C70.9608 179.627 72.0655 180.481 73.0913 180.481C74.1802 180.481 76.2318 179.264 76.2318 176.371C76.2318 176.339 76.2318 176.292 76.2318 176.245C76.2318 176.118 76.2319 175.96 76.2161 175.786C76.7527 176.656 77.2103 177.209 77.9047 177.209C78.0309 177.209 78.2992 177.114 78.6938 176.861C78.678 177.098 78.6622 177.335 78.6622 177.588C78.6622 179.374 79.2935 180.323 80.4929 180.323C81.5661 180.323 82.5603 179.232 83.6966 177.952C83.9175 177.699 84.1384 177.462 84.3752 177.209C84.3752 177.335 84.3594 177.462 84.3594 177.588C84.3594 179.374 84.9906 180.323 86.19 180.323C87.2632 180.323 88.2574 179.232 89.3937 177.952C89.4726 177.857 89.5673 177.762 89.6462 177.667C89.5673 177.936 89.52 178.189 89.52 178.41C89.52 179.88 90.6247 180.417 91.6505 180.417C93.5128 180.417 94.9646 178.726 95.9115 177.604C96.0062 177.493 96.0852 177.398 96.1799 177.304C96.1641 177.493 96.1325 177.683 96.1325 177.888C96.1325 179.437 96.89 180.402 98.121 180.402C99.6518 180.402 100.725 179.153 101.767 177.952C102.098 177.572 102.429 177.193 102.777 176.845C102.65 177.462 102.571 177.999 102.571 178.378C102.571 179.674 103.345 180.244 105.065 180.244C106.217 180.244 107.322 179.042 108.3 177.983C108.521 177.746 108.726 177.525 108.931 177.319C108.931 177.398 108.916 177.493 108.916 177.588C108.916 179.548 110.51 180.354 110.778 180.354C111.456 180.354 112.624 179.248 113.824 177.967C113.887 179.706 114.96 180.496 115.954 180.496C117.043 180.496 119.095 179.279 119.095 176.387C119.095 176.355 119.095 176.308 119.095 176.26C119.095 176.134 119.095 175.976 119.079 175.802C119.631 176.671 120.073 177.225 120.768 177.225C120.941 177.225 121.399 177.051 122.093 176.466C121.667 178.046 121.304 179.754 121.32 180.212C121.888 180.228 122.74 180.275 122.74 180.275L122.835 180.054C123.956 177.209 125.108 174.253 126.528 174.253C126.717 174.253 126.765 174.332 126.78 174.348C126.938 174.569 126.686 175.249 126.433 175.976C126.133 176.814 125.739 177.873 125.739 178.837C125.739 179.959 126.323 180.149 127.633 180.149C128.469 180.149 130 178.41 131.547 176.529L131.673 176.371L131.436 176.213Z" fill="white"/>
<path d="M52.6113 48.3666V58.5596H137.611V48.3666C137.611 44.177 134.199 40.7649 130.01 40.7649H107.809C118.348 40.7649 133.551 30.5287 130.226 19.6445C127.461 10.5744 119.125 5.99617 110.617 6.03937C98.6097 6.12575 95.4568 31.3061 95.4568 31.3061H95.1113C95.1113 31.3061 92.0015 6.12575 79.9512 6.03937C71.4426 5.99617 63.1067 10.5744 60.3425 19.6445C57.0168 30.4855 72.1769 40.7649 82.7587 40.7649H60.2129C56.0234 40.8081 52.6113 44.177 52.6113 48.3666ZM119.428 15.2391C119.428 15.2391 119.039 27.6349 102.411 36.9209C102.367 36.9209 105.52 20.9835 119.428 15.2391ZM71.2698 15.2391C85.1342 20.9835 88.2871 36.9209 88.2871 36.9209C71.6586 27.6349 71.2698 15.2391 71.2698 15.2391Z" fill="white"/>
<path fill-rule="evenodd" clip-rule="evenodd" d="M125.317 108.007H64.9356C60.7461 108.007 57.334 104.595 57.334 100.406V62.4409H132.918V100.406C132.918 104.595 129.506 108.007 125.317 108.007ZM96.6853 62.4688H93.6458V107.862H96.6853V62.4688Z" fill="white"/>
</svg>
