<svg width="120" height="120" viewBox="0 0 120 120" fill="none" xmlns="http://www.w3.org/2000/svg">
<path d="M82.2926 85.4205H89.3923V83.9193H82.2926V77.1443H91.5912V75.6333H79.6992V96.1558H91.8181V94.6447H82.2926V85.4205Z" fill="white"/>
<path d="M30.8262 96.1558H33.4097V75.6333H30.8262V96.1558Z" fill="white"/>
<path d="M55.1029 75.6333H53.3477L43.5757 85.6279V75.6333H40.9922V96.1558H43.5757V87.2475L45.1337 85.6773L53.9788 96.1558H57.5089L47.0171 83.7811L55.1029 75.6333Z" fill="white"/>
<path d="M99.9776 88.0747L103.38 78.7615L107.058 88.0747H99.9776ZM110.253 96.1533H113.221L104.484 75.5024H103.232L95.5107 96.1533H97.0293L99.5339 89.3092H107.551L110.253 96.1533Z" fill="white"/>
<path d="M22.2052 91.9189L8.4594 75.6333H7V96.1558H8.50869V79.7911L22.4715 96.3928H23.714V75.6333H22.2052V91.9189Z" fill="white"/>
<path d="M58.7021 77.1443H65.7329V96.1558H68.3262V77.1443H75.357V75.6333H58.7021V77.1443Z" fill="white"/>
<path d="M58.674 109.832C58.674 110.227 58.1712 110.889 57.2048 111.768C57.3034 110.79 57.688 109.516 58.3388 109.516C58.6445 109.536 58.674 109.674 58.674 109.832ZM55.9032 107.185V107.195C55.9032 108.321 55.0453 109.447 54.0592 110.514C54.2663 109.921 54.4832 109.348 54.6114 108.943C54.8579 108.133 55.2327 106.701 55.6567 106.603C55.7355 106.642 55.7947 106.701 55.844 106.79C55.9032 106.919 55.9032 107.087 55.9032 107.185ZM52.3336 107.185V107.195C52.3336 108.321 51.4757 109.447 50.4896 110.514C50.6869 109.921 50.9137 109.348 51.0418 108.943C51.2884 108.133 51.6631 106.701 52.0871 106.603C52.166 106.642 52.2251 106.701 52.2646 106.79C52.3336 106.919 52.3336 107.087 52.3336 107.185ZM43.3012 107.956C43.1927 107.956 43.173 107.916 43.173 107.847C43.173 107.699 43.38 107.432 43.7252 107.175C43.6561 107.719 43.4096 107.956 43.3012 107.956ZM82.2511 110.711L82.1722 110.8C81.6595 111.422 80.4959 112.854 79.924 112.992C79.7169 112.992 79.638 112.864 79.638 112.617C79.638 111.936 80.2691 111.106 80.2691 110.188C80.2691 109.427 79.5197 109.319 79.1647 109.319H79.1548C79.1548 109.319 79.1548 109.319 79.145 109.319C79.1252 109.319 79.1154 109.319 79.1055 109.319V109.328C78.4153 109.358 77.8433 110.316 77.3207 111.521L77.2911 111.452C77.3996 110.978 77.6264 109.881 76.8474 109.506C76.8474 109.506 76.7981 109.457 76.7784 109.536C76.6798 109.822 76.5614 110.198 76.453 110.593C75.9402 111.067 75.6247 111.175 75.5556 111.175C75.1316 111.175 74.8753 110.77 74.4019 109.99L74.2737 110.049C74.3724 110.316 74.3625 110.543 74.3625 110.711C74.3625 110.741 74.3625 110.77 74.3625 110.79C74.3625 112.183 73.5835 112.913 72.9524 113.141C72.3213 113.18 72.2227 112.667 72.2227 112.054C72.2227 111.057 72.7848 109.496 73.5342 109.496C73.8497 109.516 73.9681 109.635 74.0469 109.714C74.0667 109.733 74.0864 109.753 74.116 109.773L74.2047 109.654C74.1949 109.644 74.1751 109.625 74.1554 109.605C74.0568 109.506 73.8892 109.348 73.4257 109.348C72.3607 109.348 71.2859 110.039 71.2366 111.57C70.6351 112.212 69.7378 113.121 69.3335 113.121C69.2448 113.121 69.0475 113.111 69.0475 112.4C69.0475 111.847 69.2448 110.879 69.7279 109.644C69.7279 109.644 69.7477 109.536 69.5998 109.536C69.2152 109.536 68.3869 110.138 68.2094 111.146C68.0418 111.314 67.8643 111.501 67.6769 111.699C67.0853 112.341 66.4147 113.062 65.7639 113.062C65.3794 113.062 65.3005 112.676 65.3005 112.044C65.3005 111.254 65.7047 109.773 66.3063 108.351C67.1148 108.252 67.7065 108.064 68.2488 107.906C68.9391 107.699 69.5406 107.521 70.4281 107.521C70.8915 107.521 71.1479 107.64 71.1479 107.748C71.1479 107.837 71.1084 107.926 70.8126 107.926V108.074C70.9309 108.074 71.2958 108.074 71.2958 107.748C71.2958 107.472 70.8521 107.383 70.4281 107.383C69.511 107.383 68.8701 107.57 68.1995 107.778C67.6868 107.936 67.1247 108.104 66.3654 108.203C66.5232 107.837 66.7007 107.462 66.8782 107.116L67.0064 106.859C66.9078 106.81 66.7796 106.771 66.7697 106.771H66.7599C66.257 106.771 65.7343 107.422 65.3005 108.291C65.1427 108.301 64.9751 108.301 64.7976 108.301C64.0186 108.301 63.7425 108.074 63.7425 107.857C63.7425 107.748 63.7918 107.659 63.8904 107.61C64.0777 107.491 64.3834 107.531 64.482 107.58L64.551 107.452C64.413 107.373 64.0482 107.343 63.8214 107.482C63.6833 107.561 63.6044 107.689 63.6044 107.857C63.6044 107.995 63.6932 108.449 64.8074 108.449C64.9553 108.449 65.1033 108.449 65.2413 108.44C64.8765 109.2 64.5708 110.089 64.3933 110.839C64.1073 111.106 63.8509 111.402 63.5945 111.699C63.0226 112.36 62.4704 113.002 61.7506 113.141C61.3266 113.15 61.2181 112.795 61.2181 112.331C61.2181 110.484 62.214 109.309 62.7958 109.447C63.0818 109.526 63.2001 109.664 63.2987 109.802L63.4171 109.723C63.2297 109.437 62.9733 109.249 62.293 109.249C61.6816 109.249 60.5673 109.901 60.2715 111.106C60.1729 111.215 60.0644 111.343 59.9461 111.481C59.4432 112.064 58.7825 112.834 57.9641 113.091C57.3527 113.22 57.1949 112.736 57.1949 112.212C57.1949 112.143 57.1949 112.064 57.2048 111.975C58.2796 111.007 58.8318 110.286 58.8318 109.832C58.8318 109.496 58.6543 109.358 58.2599 109.358C57.5795 109.358 56.6921 110.346 56.2878 111.244C56.1497 111.393 56.0117 111.541 55.8835 111.689C55.3115 112.321 54.7988 112.884 54.3057 113.062C53.6944 113.15 53.6451 112.785 53.6451 112.35C53.6451 111.955 53.7831 111.402 53.9705 110.839C55.065 109.684 56.0708 108.459 56.0708 107.195V107.185C56.0708 107.077 56.0708 106.889 55.9919 106.721C55.8933 106.514 55.6961 106.395 55.4299 106.395C54.5227 106.395 53.0534 108.795 52.8661 111.096C52.6787 111.294 52.4914 111.491 52.3139 111.689C51.742 112.321 51.2391 112.884 50.7362 113.062C50.1248 113.15 50.0755 112.785 50.0755 112.35C50.0755 111.955 50.2234 111.402 50.4009 110.839C51.4954 109.684 52.5012 108.459 52.5012 107.195V107.185C52.5012 107.077 52.5012 106.889 52.4223 106.721C52.3237 106.514 52.1265 106.395 51.8603 106.395C50.9728 106.395 49.5529 108.677 49.3162 110.918C49.0303 111.126 48.8527 111.185 48.8034 111.185C48.3794 111.185 48.1231 110.78 47.6497 110L47.5216 110.059C47.6202 110.326 47.6103 110.553 47.6103 110.721C47.6103 110.751 47.6103 110.78 47.6103 110.8C47.6103 112.192 46.8313 112.923 46.2002 113.15C45.5691 113.19 45.4705 112.676 45.4705 112.064C45.4705 111.067 46.0326 109.506 46.782 109.506C47.0975 109.526 47.2159 109.644 47.2947 109.723C47.3145 109.743 47.3342 109.763 47.3638 109.783L47.4525 109.664C47.4427 109.654 47.423 109.635 47.4032 109.615C47.3046 109.516 47.137 109.358 46.6735 109.358C45.7762 109.358 44.8789 109.842 44.5732 110.909C44.5042 110.988 44.4253 111.076 44.3464 111.175C43.6167 112.025 42.5123 113.318 40.9148 113.318C40.8754 113.318 40.836 113.318 40.7965 113.308C39.5541 113.249 39.0611 112.291 39.0611 110.82C39.0611 108.252 40.5796 105.358 42.0784 105.348C43.1533 105.437 43.7843 106.148 43.7843 106.83C43.7843 106.879 43.7843 106.929 43.7843 106.978C43.3603 107.264 43.0645 107.6 43.0645 107.837C43.0645 107.936 43.104 108.094 43.3406 108.094C43.5674 108.094 43.8731 107.738 43.9224 107.057C44.1689 106.899 44.4647 106.741 44.7901 106.642L44.7408 106.504C44.4549 106.593 44.1788 106.731 43.9224 106.889V106.84C43.9224 105.921 43.0053 105.2 41.8319 105.2C40.1852 105.2 37.8975 107.136 37.8975 110.277C37.8975 112.341 39.4555 113.457 40.9148 113.457C42.5813 113.457 43.7548 112.084 44.4549 111.264C44.4746 111.244 44.4943 111.225 44.5042 111.205C44.4746 111.363 44.4647 111.521 44.4647 111.699C44.4647 112.844 45.155 113.378 45.7959 113.378C46.4763 113.378 47.7582 112.617 47.7582 110.81C47.7582 110.79 47.7582 110.76 47.7582 110.731C47.7582 110.652 47.7582 110.553 47.7484 110.444C48.0836 110.988 48.3696 111.333 48.8034 111.333C48.8823 111.333 49.05 111.274 49.2965 111.116C49.2866 111.264 49.2768 111.412 49.2768 111.57C49.2768 112.686 49.6712 113.279 50.4206 113.279C51.0911 113.279 51.7124 112.597 52.4223 111.797C52.5604 111.639 52.6984 111.491 52.8463 111.333C52.8463 111.412 52.8365 111.491 52.8365 111.57C52.8365 112.686 53.2309 113.279 53.9803 113.279C54.6509 113.279 55.2721 112.597 55.9821 111.797C56.0314 111.738 56.0905 111.679 56.1398 111.62C56.0905 111.788 56.061 111.946 56.061 112.084C56.061 113.002 56.7512 113.338 57.3922 113.338C58.5557 113.338 59.4629 112.281 60.0545 111.58C60.1137 111.511 60.163 111.452 60.2222 111.393C60.2123 111.511 60.1926 111.63 60.1926 111.758C60.1926 112.726 60.6659 113.328 61.4351 113.328C62.3916 113.328 63.0621 112.548 63.7129 111.797C63.92 111.56 64.127 111.323 64.344 111.106C64.2651 111.491 64.2158 111.827 64.2158 112.064C64.2158 112.874 64.699 113.229 65.7738 113.229C66.4936 113.229 67.1839 112.479 67.7952 111.817C67.9333 111.669 68.0615 111.531 68.1897 111.402C68.1897 111.452 68.1798 111.511 68.1798 111.57C68.1798 112.795 69.1757 113.299 69.3434 113.299C69.7674 113.299 70.4971 112.607 71.2465 111.807C71.2859 112.894 71.9565 113.387 72.5777 113.387C73.2581 113.387 74.54 112.627 74.54 110.82C74.54 110.8 74.54 110.77 74.54 110.741C74.54 110.662 74.54 110.563 74.5301 110.454C74.8753 110.997 75.1513 111.343 75.5852 111.343C75.6937 111.343 75.9796 111.234 76.4135 110.869C76.1473 111.857 75.9205 112.923 75.9303 113.21C76.2853 113.22 76.8178 113.249 76.8178 113.249L76.877 113.111C77.5771 111.333 78.2969 109.486 79.1844 109.486C79.3027 109.486 79.3323 109.536 79.3422 109.546C79.4408 109.684 79.283 110.109 79.1252 110.563C78.9379 111.086 78.6914 111.748 78.6914 112.35C78.6914 113.052 79.0562 113.17 79.8746 113.17C80.3973 113.17 81.3538 112.084 82.3201 110.909L82.399 110.81L82.2511 110.711Z" fill="white"/>
<path d="M33 30.829V37.1979H86.1099V30.829C86.1099 28.2113 83.978 26.0794 81.3603 26.0794H67.4891C74.0738 26.0794 83.5732 19.6835 81.4952 12.8829C79.768 7.21564 74.5596 4.35504 69.2432 4.38203C61.7409 4.436 59.7709 20.1693 59.7709 20.1693H59.555C59.555 20.1693 57.6119 4.436 50.0826 4.38203C44.7662 4.35504 39.5578 7.21564 37.8306 12.8829C35.7526 19.6565 45.225 26.0794 51.8368 26.0794H37.7497C35.132 26.1064 33 28.2113 33 30.829ZM74.7485 10.1302C74.7485 10.1302 74.5056 17.8754 64.1157 23.6776C64.0887 23.6776 66.0588 13.7194 74.7485 10.1302ZM44.6583 10.1302C53.321 13.7194 55.2911 23.6776 55.2911 23.6776C44.9012 17.8754 44.6583 10.1302 44.6583 10.1302Z" fill="white"/>
<path fill-rule="evenodd" clip-rule="evenodd" d="M78.4273 68.0941H40.6999C38.0821 68.0941 35.9502 65.9621 35.9502 63.3444V39.623H83.177V63.3444C83.177 65.9621 81.0451 68.0941 78.4273 68.0941ZM60.5381 39.6405H58.639V68.0035H60.5381V39.6405Z" fill="white"/>
</svg>
