<svg width="256" height="256" viewBox="0 0 256 256" fill="none" xmlns="http://www.w3.org/2000/svg">
<path d="M174.904 182.653H190.077V179.445H174.904V164.966H194.776V161.737H169.362V205.595H195.261V202.366H174.904V182.653Z" fill="white"/>
<path d="M64.918 205.595H70.4391V161.737H64.918V205.595Z" fill="white"/>
<path d="M116.798 161.737H113.047L92.1637 183.096V161.737H86.6426V205.595H92.1637V186.558L95.4932 183.202L114.396 205.595H121.94L99.5182 179.15L116.798 161.737Z" fill="white"/>
<path d="M212.699 188.325L219.97 168.422L227.83 188.325H212.699ZM234.657 205.59H241L222.33 161.458H219.654L203.153 205.59H206.399L211.751 190.963H228.883L234.657 205.59Z" fill="white"/>
<path d="M46.4945 196.541L17.1188 161.737H14V205.595H17.2242V170.623L47.0636 206.102H49.7188V161.737H46.4945V196.541Z" fill="white"/>
<path d="M124.491 164.966H139.516V205.595H145.058V164.966H160.084V161.737H124.491V164.966Z" fill="white"/>
<path d="M124.431 234.822C124.431 235.666 123.356 237.08 121.291 238.959C121.502 236.869 122.324 234.147 123.715 234.147C124.368 234.189 124.431 234.484 124.431 234.822ZM118.51 229.166V229.187C118.51 231.593 116.676 233.999 114.569 236.278C115.012 235.012 115.475 233.788 115.749 232.922C116.276 231.192 117.077 228.131 117.983 227.92C118.151 228.005 118.278 228.131 118.383 228.321C118.51 228.596 118.51 228.955 118.51 229.166ZM110.881 229.166V229.187C110.881 231.593 109.048 233.999 106.941 236.278C107.362 235.012 107.847 233.788 108.121 232.922C108.647 231.192 109.448 228.131 110.354 227.92C110.523 228.005 110.649 228.131 110.734 228.321C110.881 228.596 110.881 228.955 110.881 229.166ZM91.5783 230.812C91.3465 230.812 91.3043 230.727 91.3043 230.58C91.3043 230.263 91.7469 229.693 92.4844 229.144C92.3369 230.305 91.8101 230.812 91.5783 230.812ZM174.817 236.7L174.648 236.89C173.552 238.22 171.066 241.28 169.844 241.576C169.401 241.576 169.232 241.301 169.232 240.774C169.232 239.318 170.581 237.545 170.581 235.582C170.581 233.957 168.979 233.724 168.221 233.724H168.2C168.2 233.724 168.2 233.724 168.179 233.724C168.137 233.724 168.115 233.724 168.094 233.724V233.746C166.619 233.809 165.397 235.856 164.28 238.431L164.217 238.283C164.449 237.27 164.933 234.928 163.269 234.125C163.269 234.125 163.163 234.02 163.121 234.189C162.91 234.801 162.658 235.603 162.426 236.447C161.33 237.46 160.656 237.692 160.508 237.692C159.602 237.692 159.054 236.827 158.043 235.16L157.769 235.286C157.979 235.856 157.958 236.342 157.958 236.7C157.958 236.764 157.958 236.827 157.958 236.869C157.958 239.845 156.294 241.407 154.945 241.892C153.596 241.977 153.385 240.879 153.385 239.571C153.385 237.439 154.587 234.104 156.188 234.104C156.863 234.147 157.115 234.4 157.284 234.569C157.326 234.611 157.368 234.653 157.431 234.695L157.621 234.442C157.6 234.421 157.558 234.379 157.516 234.337C157.305 234.126 156.947 233.788 155.956 233.788C153.68 233.788 151.383 235.265 151.278 238.537C149.993 239.908 148.075 241.85 147.211 241.85C147.021 241.85 146.6 241.829 146.6 240.309C146.6 239.128 147.021 237.059 148.054 234.421C148.054 234.421 148.096 234.189 147.78 234.189C146.958 234.189 145.188 235.476 144.809 237.629C144.451 237.988 144.071 238.389 143.671 238.811C142.406 240.183 140.973 241.724 139.583 241.724C138.761 241.724 138.592 240.9 138.592 239.55C138.592 237.861 139.456 234.695 140.742 231.656C142.47 231.445 143.734 231.044 144.893 230.706C146.368 230.263 147.654 229.883 149.55 229.883C150.541 229.883 151.088 230.137 151.088 230.369C151.088 230.559 151.004 230.749 150.372 230.749V231.065C150.625 231.065 151.405 231.065 151.405 230.369C151.405 229.778 150.456 229.588 149.55 229.588C147.59 229.588 146.221 229.989 144.788 230.432C143.692 230.77 142.491 231.128 140.868 231.34C141.205 230.559 141.585 229.757 141.964 229.018L142.238 228.469C142.027 228.364 141.753 228.279 141.732 228.279H141.711C140.636 228.279 139.519 229.672 138.592 231.529C138.255 231.551 137.897 231.551 137.517 231.551C135.853 231.551 135.263 231.065 135.263 230.601C135.263 230.369 135.368 230.179 135.579 230.073C135.979 229.82 136.632 229.904 136.843 230.01L136.991 229.736C136.696 229.567 135.916 229.503 135.431 229.799C135.136 229.968 134.968 230.242 134.968 230.601C134.968 230.896 135.157 231.867 137.539 231.867C137.855 231.867 138.171 231.867 138.466 231.846C137.686 233.471 137.033 235.371 136.654 236.975C136.042 237.545 135.494 238.178 134.947 238.811C133.724 240.225 132.544 241.597 131.006 241.892C130.1 241.914 129.868 241.154 129.868 240.162C129.868 236.215 131.996 233.703 133.24 233.999C133.851 234.168 134.104 234.463 134.314 234.759L134.567 234.59C134.167 233.978 133.619 233.577 132.165 233.577C130.858 233.577 128.477 234.97 127.845 237.545C127.634 237.777 127.402 238.051 127.15 238.347C126.075 239.592 124.663 241.238 122.914 241.787C121.607 242.061 121.27 241.027 121.27 239.908C121.27 239.761 121.27 239.592 121.291 239.402C123.588 237.334 124.768 235.793 124.768 234.822C124.768 234.104 124.389 233.809 123.546 233.809C122.092 233.809 120.195 235.92 119.331 237.84C119.036 238.157 118.741 238.473 118.467 238.79C117.245 240.141 116.149 241.344 115.096 241.724C113.789 241.914 113.684 241.133 113.684 240.204C113.684 239.36 113.979 238.178 114.379 236.975C116.718 234.505 118.868 231.888 118.868 229.187V229.166C118.868 228.933 118.868 228.532 118.699 228.174C118.489 227.73 118.067 227.477 117.498 227.477C115.559 227.477 112.42 232.606 112.019 237.523C111.619 237.946 111.218 238.368 110.839 238.79C109.617 240.141 108.542 241.344 107.467 241.724C106.161 241.914 106.055 241.133 106.055 240.204C106.055 239.36 106.372 238.178 106.751 236.975C109.09 234.505 111.239 231.888 111.239 229.187V229.166C111.239 228.933 111.239 228.532 111.071 228.174C110.86 227.73 110.439 227.477 109.87 227.477C107.973 227.477 104.939 232.353 104.433 237.144C103.822 237.587 103.442 237.714 103.337 237.714C102.431 237.714 101.883 236.848 100.872 235.181L100.598 235.307C100.808 235.877 100.787 236.363 100.787 236.722C100.787 236.785 100.787 236.848 100.787 236.89C100.787 239.866 99.1225 241.428 97.7738 241.914C96.4251 241.998 96.2144 240.9 96.2144 239.592C96.2144 237.46 97.4155 234.125 99.0171 234.125C99.6914 234.168 99.9443 234.421 100.113 234.59C100.155 234.632 100.197 234.674 100.26 234.716L100.45 234.463C100.429 234.442 100.387 234.4 100.345 234.358C100.134 234.147 99.7757 233.809 98.7853 233.809C96.8677 233.809 94.95 234.843 94.2967 237.123C94.1492 237.291 93.9806 237.481 93.812 237.692C92.2526 239.507 89.8924 242.272 86.4786 242.272C86.3943 242.272 86.31 242.272 86.2257 242.251C83.5705 242.125 82.5169 240.077 82.5169 236.933C82.5169 231.445 85.7622 225.261 88.9653 225.24C91.2622 225.43 92.6109 226.95 92.6109 228.406C92.6109 228.511 92.6109 228.617 92.6109 228.722C91.7047 229.334 91.0726 230.052 91.0726 230.559C91.0726 230.77 91.1569 231.107 91.6626 231.107C92.1473 231.107 92.8006 230.348 92.9059 228.891C93.4327 228.554 94.0649 228.216 94.7604 228.005L94.6549 227.709C94.0438 227.899 93.4538 228.195 92.9059 228.532V228.427C92.9059 226.464 90.9461 224.923 88.4384 224.923C84.9193 224.923 80.0303 229.06 80.0303 235.772C80.0303 240.183 83.3598 242.568 86.4786 242.568C90.0399 242.568 92.5477 239.634 94.0439 237.882C94.086 237.84 94.1281 237.798 94.1492 237.756C94.086 238.093 94.0649 238.431 94.0649 238.811C94.0649 241.259 95.54 242.399 96.9098 242.399C98.3638 242.399 101.103 240.774 101.103 236.911C101.103 236.869 101.103 236.806 101.103 236.743C101.103 236.574 101.103 236.363 101.082 236.131C101.799 237.291 102.41 238.03 103.337 238.03C103.506 238.03 103.864 237.903 104.391 237.566C104.37 237.882 104.349 238.199 104.349 238.537C104.349 240.922 105.191 242.188 106.793 242.188C108.226 242.188 109.554 240.732 111.071 239.022C111.366 238.684 111.661 238.368 111.977 238.03C111.977 238.199 111.956 238.368 111.956 238.537C111.956 240.922 112.799 242.188 114.4 242.188C115.833 242.188 117.161 240.732 118.678 239.022C118.784 238.895 118.91 238.769 119.015 238.642C118.91 239.001 118.847 239.339 118.847 239.634C118.847 241.597 120.322 242.315 121.692 242.315C124.178 242.315 126.117 240.056 127.381 238.558C127.508 238.41 127.613 238.283 127.74 238.157C127.719 238.41 127.676 238.663 127.676 238.938C127.676 241.006 128.688 242.293 130.332 242.293C132.376 242.293 133.809 240.626 135.199 239.022C135.642 238.516 136.085 238.009 136.548 237.545C136.38 238.368 136.274 239.085 136.274 239.592C136.274 241.323 137.307 242.082 139.604 242.082C141.142 242.082 142.617 240.478 143.924 239.064C144.219 238.748 144.493 238.452 144.767 238.178C144.767 238.283 144.746 238.41 144.746 238.537C144.746 241.154 146.874 242.23 147.232 242.23C148.138 242.23 149.698 240.753 151.299 239.043C151.384 241.365 152.816 242.42 154.144 242.42C155.598 242.42 158.338 240.795 158.338 236.933C158.338 236.89 158.338 236.827 158.338 236.764C158.338 236.595 158.338 236.384 158.317 236.152C159.054 237.312 159.644 238.051 160.571 238.051C160.803 238.051 161.414 237.819 162.341 237.038C161.772 239.149 161.288 241.428 161.309 242.04C162.068 242.061 163.205 242.125 163.205 242.125L163.332 241.829C164.828 238.03 166.366 234.083 168.263 234.083C168.516 234.083 168.579 234.189 168.6 234.21C168.811 234.505 168.474 235.413 168.137 236.384C167.736 237.502 167.209 238.917 167.209 240.204C167.209 241.702 167.989 241.956 169.738 241.956C170.855 241.956 172.899 239.634 174.964 237.123L175.133 236.911L174.817 236.7Z" fill="white"/>
<path d="M69.5615 65.9891V79.5997H183.061V65.9891C183.061 60.3948 178.505 55.8387 172.91 55.8387H143.267C157.339 55.8387 177.64 42.1704 173.199 27.6369C169.508 15.5257 158.377 9.41246 147.016 9.47013C130.983 9.58548 126.773 43.2085 126.773 43.2085H126.311C126.311 43.2085 122.159 9.58548 106.068 9.47013C94.7067 9.41246 83.5759 15.5257 79.8849 27.6369C75.4441 42.1127 95.6871 55.8387 109.817 55.8387H79.7119C74.1176 55.8964 69.5615 60.3948 69.5615 65.9891ZM158.781 21.7543C158.781 21.7543 158.262 38.3063 136.058 50.7059C136 50.7059 140.21 29.4248 158.781 21.7543ZM94.476 21.7543C112.989 29.4248 117.199 50.7059 117.199 50.7059C94.995 38.3063 94.476 21.7543 94.476 21.7543Z" fill="white"/>
<path fill-rule="evenodd" clip-rule="evenodd" d="M166.645 145.627H86.0195C80.4253 145.627 75.8691 141.07 75.8691 135.476V84.7822H176.796V135.476C176.796 141.07 172.24 145.627 166.645 145.627ZM128.414 84.8196H124.355V145.433H128.414V84.8196Z" fill="white"/>
</svg>
