<?xml version="1.0" standalone="no"?>
<!DOCTYPE svg PUBLIC "-//W3C//DTD SVG 20010904//EN"
 "http://www.w3.org/TR/2001/REC-SVG-20010904/DTD/svg10.dtd">
<svg version="1.0" xmlns="http://www.w3.org/2000/svg"
 width="256.000000pt" height="256.000000pt" viewBox="0 0 256.000000 256.000000"
 preserveAspectRatio="xMidYMid meet">

<g transform="translate(0.000000,256.000000) scale(0.100000,-0.100000)"
fill="#000000" stroke="none">
<path d="M800 2484 c-253 -55 -415 -287 -339 -489 17 -47 38 -76 98 -136 89
-88 194 -147 318 -176 l78 -18 -291 -5 -291 -5 -36 -28 c-63 -48 -71 -74 -75
-239 l-4 -148 1021 0 1021 0 0 128 c0 143 -9 187 -47 233 -47 56 -66 59 -365
60 -198 1 -263 4 -238 11 192 54 263 91 361 188 87 87 113 142 113 240 0 62
-4 85 -27 132 -73 149 -212 242 -394 263 -143 16 -240 -62 -322 -260 -29 -68
-71 -220 -86 -309 -3 -21 -9 -36 -11 -33 -3 3 -14 48 -25 101 -66 326 -200
510 -366 505 -15 0 -57 -7 -93 -15z m12 -261 c121 -79 219 -211 278 -372 17
-46 28 -86 25 -89 -8 -8 -134 80 -198 138 -104 95 -190 237 -204 336 -5 41 -4
44 13 38 10 -4 49 -27 86 -51z m1034 -36 c-37 -125 -159 -276 -301 -373 -47
-32 -87 -55 -89 -53 -9 8 45 154 80 217 67 120 169 223 279 281 40 21 40 21
43 1 2 -11 -4 -44 -12 -73z"/>
<path d="M380 663 c0 -477 0 -478 23 -518 13 -22 40 -49 62 -62 39 -22 45 -23
408 -23 l367 0 0 540 0 540 -430 0 -430 0 0 -477z"/>
<path d="M1320 600 l0 -540 368 0 c362 0 368 1 407 23 22 13 49 40 62 62 23
40 23 41 23 518 l0 477 -430 0 -430 0 0 -540z"/>
</g>
</svg>
