<?xml version="1.0" standalone="no"?>
<!DOCTYPE svg PUBLIC "-//W3C//DTD SVG 20010904//EN"
 "http://www.w3.org/TR/2001/REC-SVG-20010904/DTD/svg10.dtd">
<svg version="1.0" xmlns="http://www.w3.org/2000/svg"
 width="32.000000pt" height="32.000000pt" viewBox="0 0 32.000000 32.000000"
 preserveAspectRatio="xMidYMid meet">

<g transform="translate(0.000000,32.000000) scale(0.100000,-0.100000)"
fill="#000000" stroke="none">
<path d="M80 290 c-26 -26 -25 -34 5 -59 l26 -20 -33 -3 c-25 -2 -34 -8 -36
-25 -3 -23 -2 -23 118 -23 120 0 121 0 118 23 -2 17 -11 23 -37 25 -34 3 -34
4 -10 16 35 17 36 51 3 72 -26 18 -27 17 -45 -5 -11 -13 -19 -31 -19 -40 -1
-9 -10 1 -21 22 -22 42 -40 46 -69 17z m42 -27 c23 -21 26 -52 2 -33 -18 16
-38 50 -28 50 4 0 16 -7 26 -17z m108 7 c0 -14 -40 -53 -47 -46 -8 7 25 56 37
56 6 0 10 -4 10 -10z"/>
<path d="M60 80 l0 -60 45 0 45 0 0 60 0 60 -45 0 -45 0 0 -60z"/>
<path d="M170 79 l0 -60 48 3 47 3 3 58 3 57 -51 0 -50 0 0 -61z"/>
</g>
</svg>
