<svg width="32" height="32" viewBox="0 0 32 32" fill="none" xmlns="http://www.w3.org/2000/svg">
<path d="M21.387 21.5258H23.0265V21.1791H21.387V19.6146H23.5343V19.2656H20.7881V24.0048H23.5867V23.6559H21.387V21.5258Z" fill="white"/>
<path d="M9.50195 24.0048H10.0986V19.2656H9.50195V24.0048Z" fill="white"/>
<path d="M15.1082 19.2656H14.7028L12.4462 21.5737V19.2656H11.8496V24.0048H12.4462V21.9477L12.806 21.5851L14.8486 24.0048H15.6638L13.2409 21.1472L15.1082 19.2656Z" fill="white"/>
<path d="M25.471 22.1386L26.2566 19.988L27.1059 22.1386H25.471ZM27.8437 24.0042H28.5291L26.5116 19.2354H26.2224L24.4395 24.0042H24.7901L25.3685 22.4237H27.2198L27.8437 24.0042Z" fill="white"/>
<path d="M7.51131 23.0264L4.33702 19.2656H4V24.0048H4.3484V20.2258L7.5728 24.0596H7.85972V19.2656H7.51131V23.0264Z" fill="white"/>
<path d="M15.9395 19.6146H17.563V24.0048H18.1619V19.6146H19.7855V19.2656H15.9395V19.6146Z" fill="white"/>
<path d="M15.9327 27.1629C15.9327 27.2541 15.8165 27.4069 15.5934 27.6099C15.6161 27.3841 15.7049 27.0899 15.8552 27.0899C15.9258 27.0945 15.9327 27.1264 15.9327 27.1629ZM15.2928 26.5517V26.554C15.2928 26.814 15.0947 27.0739 14.867 27.3203C14.9148 27.1834 14.9649 27.0511 14.9945 26.9576C15.0514 26.7706 15.1379 26.4399 15.2359 26.4171C15.2541 26.4262 15.2677 26.4399 15.2791 26.4605C15.2928 26.4901 15.2928 26.5289 15.2928 26.5517ZM14.4685 26.5517V26.554C14.4685 26.814 14.2704 27.0739 14.0426 27.3203C14.0882 27.1834 14.1406 27.0511 14.1702 26.9576C14.2271 26.7706 14.3136 26.4399 14.4115 26.4171C14.4298 26.4262 14.4434 26.4399 14.4525 26.4605C14.4685 26.4901 14.4685 26.5289 14.4685 26.5517ZM12.3826 26.7296C12.3576 26.7296 12.353 26.7204 12.353 26.7045C12.353 26.6703 12.4008 26.6087 12.4805 26.5494C12.4646 26.6748 12.4077 26.7296 12.3826 26.7296ZM21.3772 27.3659L21.359 27.3864C21.2406 27.5301 20.9719 27.8608 20.8398 27.8927C20.792 27.8927 20.7738 27.8631 20.7738 27.806C20.7738 27.6487 20.9195 27.4571 20.9195 27.245C20.9195 27.0694 20.7465 27.0443 20.6645 27.0443H20.6622C20.6622 27.0443 20.6622 27.0443 20.66 27.0443C20.6554 27.0443 20.6531 27.0443 20.6508 27.0443V27.0466C20.4914 27.0534 20.3594 27.2746 20.2387 27.5529L20.2319 27.5369C20.2569 27.4275 20.3093 27.1743 20.1294 27.0876C20.1294 27.0876 20.118 27.0762 20.1134 27.0945C20.0907 27.1606 20.0633 27.2473 20.0383 27.3385C19.9199 27.448 19.847 27.4731 19.8311 27.4731C19.7332 27.4731 19.674 27.3796 19.5647 27.1994L19.5351 27.2131C19.5578 27.2746 19.5555 27.3271 19.5555 27.3659C19.5555 27.3727 19.5555 27.3796 19.5555 27.3841C19.5555 27.7057 19.3757 27.8745 19.2299 27.9269C19.0842 27.936 19.0614 27.8174 19.0614 27.676C19.0614 27.4457 19.1912 27.0853 19.3643 27.0853C19.4371 27.0899 19.4645 27.1173 19.4827 27.1355C19.4872 27.1401 19.4918 27.1446 19.4986 27.1492L19.5191 27.1218C19.5168 27.1196 19.5123 27.115 19.5077 27.1104C19.485 27.0876 19.4462 27.0511 19.3392 27.0511C19.0933 27.0511 18.8451 27.2108 18.8337 27.5643C18.6948 27.7125 18.4876 27.9224 18.3942 27.9224C18.3737 27.9224 18.3282 27.9201 18.3282 27.7559C18.3282 27.6281 18.3737 27.4046 18.4853 27.1196C18.4853 27.1196 18.4899 27.0945 18.4557 27.0945C18.3669 27.0945 18.1756 27.2336 18.1346 27.4662C18.0959 27.505 18.0549 27.5483 18.0117 27.5939C17.875 27.7422 17.7202 27.9087 17.5699 27.9087C17.4811 27.9087 17.4629 27.8197 17.4629 27.6738C17.4629 27.4913 17.5562 27.1492 17.6951 26.8208C17.8819 26.798 18.0185 26.7547 18.1437 26.7182C18.3031 26.6703 18.442 26.6292 18.647 26.6292C18.754 26.6292 18.8132 26.6566 18.8132 26.6817C18.8132 26.7022 18.8041 26.7227 18.7358 26.7227V26.7569C18.7631 26.7569 18.8474 26.7569 18.8474 26.6817C18.8474 26.6178 18.7449 26.5973 18.647 26.5973C18.4352 26.5973 18.2872 26.6406 18.1324 26.6885C18.0139 26.725 17.8841 26.7638 17.7088 26.7866C17.7452 26.7022 17.7862 26.6155 17.8272 26.5357L17.8568 26.4764C17.8341 26.465 17.8044 26.4559 17.8022 26.4559H17.7999C17.6838 26.4559 17.5631 26.6064 17.4629 26.8071C17.4264 26.8094 17.3877 26.8094 17.3467 26.8094C17.1669 26.8094 17.1031 26.7569 17.1031 26.7068C17.1031 26.6817 17.1145 26.6611 17.1373 26.6497C17.1805 26.6224 17.2511 26.6315 17.2739 26.6429L17.2898 26.6133C17.2579 26.595 17.1737 26.5882 17.1213 26.6201C17.0894 26.6383 17.0712 26.668 17.0712 26.7068C17.0712 26.7387 17.0917 26.8436 17.349 26.8436C17.3832 26.8436 17.4173 26.8436 17.4492 26.8413C17.365 27.0169 17.2944 27.2222 17.2534 27.3955C17.1874 27.4571 17.1281 27.5255 17.0689 27.5939C16.9369 27.7467 16.8093 27.895 16.6431 27.9269C16.5452 27.9292 16.5202 27.8471 16.5202 27.7399C16.5202 27.3134 16.7501 27.042 16.8845 27.0739C16.9505 27.0922 16.9779 27.1241 17.0006 27.156L17.0279 27.1378C16.9847 27.0717 16.9255 27.0283 16.7684 27.0283C16.6272 27.0283 16.3699 27.1789 16.3015 27.4571C16.2788 27.4822 16.2537 27.5118 16.2264 27.5438C16.1103 27.6783 15.9577 27.8562 15.7687 27.9155C15.6275 27.9452 15.5911 27.8334 15.5911 27.7125C15.5911 27.6966 15.5911 27.6783 15.5934 27.6578C15.8416 27.4343 15.9691 27.2678 15.9691 27.1629C15.9691 27.0853 15.9281 27.0534 15.837 27.0534C15.6799 27.0534 15.475 27.2815 15.3816 27.489C15.3497 27.5232 15.3178 27.5574 15.2882 27.5917C15.1562 27.7376 15.0377 27.8676 14.9239 27.9087C14.7827 27.9292 14.7713 27.8448 14.7713 27.7445C14.7713 27.6532 14.8032 27.5255 14.8465 27.3955C15.0992 27.1287 15.3315 26.8459 15.3315 26.554V26.5517C15.3315 26.5266 15.3315 26.4833 15.3133 26.4445C15.2905 26.3966 15.245 26.3692 15.1835 26.3692C14.974 26.3692 14.6347 26.9234 14.5914 27.4548C14.5482 27.5004 14.5049 27.546 14.4639 27.5917C14.3318 27.7376 14.2157 27.8676 14.0996 27.9087C13.9584 27.9292 13.947 27.8448 13.947 27.7445C13.947 27.6532 13.9812 27.5255 14.0222 27.3955C14.2749 27.1287 14.5072 26.8459 14.5072 26.554V26.5517C14.5072 26.5266 14.5072 26.4833 14.489 26.4445C14.4662 26.3966 14.4206 26.3692 14.3592 26.3692C14.1542 26.3692 13.8263 26.8961 13.7717 27.4138C13.7056 27.4617 13.6646 27.4753 13.6533 27.4753C13.5553 27.4753 13.4961 27.3818 13.3868 27.2017L13.3572 27.2153C13.38 27.2769 13.3777 27.3294 13.3777 27.3682C13.3777 27.375 13.3777 27.3818 13.3777 27.3864C13.3777 27.708 13.1978 27.8767 13.0521 27.9292C12.9064 27.9383 12.8836 27.8197 12.8836 27.6783C12.8836 27.448 13.0134 27.0876 13.1865 27.0876C13.2593 27.0922 13.2866 27.1196 13.3049 27.1378C13.3094 27.1424 13.314 27.1469 13.3208 27.1515L13.3413 27.1241C13.339 27.1218 13.3345 27.1173 13.3299 27.1127C13.3071 27.0899 13.2684 27.0534 13.1614 27.0534C12.9542 27.0534 12.747 27.1652 12.6764 27.4115C12.6604 27.4297 12.6422 27.4503 12.624 27.4731C12.4555 27.6692 12.2005 27.968 11.8316 27.968C11.8225 27.968 11.8133 27.968 11.8042 27.9657C11.5173 27.952 11.4035 27.7308 11.4035 27.391C11.4035 26.798 11.7541 26.1298 12.1003 26.1275C12.3485 26.148 12.4942 26.3122 12.4942 26.4696C12.4942 26.481 12.4942 26.4924 12.4942 26.5038C12.3963 26.5699 12.328 26.6475 12.328 26.7022C12.328 26.725 12.3371 26.7615 12.3917 26.7615C12.4441 26.7615 12.5147 26.6794 12.5261 26.522C12.583 26.4855 12.6513 26.449 12.7265 26.4262L12.7151 26.3943C12.649 26.4148 12.5853 26.4468 12.5261 26.4833V26.4719C12.5261 26.2598 12.3143 26.0933 12.0433 26.0933C11.6631 26.0933 11.1348 26.5403 11.1348 27.2655C11.1348 27.7422 11.4945 27.9999 11.8316 27.9999C12.2164 27.9999 12.4874 27.6829 12.6491 27.4936C12.6536 27.489 12.6582 27.4845 12.6604 27.4799C12.6536 27.5164 12.6513 27.5529 12.6513 27.5939C12.6513 27.8585 12.8107 27.9817 12.9587 27.9817C13.1159 27.9817 13.4119 27.806 13.4119 27.3887C13.4119 27.3841 13.4119 27.3773 13.4119 27.3704C13.4119 27.3522 13.4119 27.3294 13.4096 27.3043C13.487 27.4297 13.5531 27.5096 13.6533 27.5096C13.6715 27.5096 13.7102 27.4959 13.7671 27.4594C13.7648 27.4936 13.7626 27.5278 13.7626 27.5643C13.7626 27.822 13.8536 27.9588 14.0267 27.9588C14.1816 27.9588 14.325 27.8015 14.489 27.6167C14.5208 27.5803 14.5527 27.546 14.5869 27.5096C14.5869 27.5278 14.5846 27.546 14.5846 27.5643C14.5846 27.822 14.6757 27.9588 14.8487 27.9588C15.0036 27.9588 15.147 27.8015 15.311 27.6167C15.3224 27.6031 15.336 27.5894 15.3474 27.5757C15.336 27.6145 15.3292 27.651 15.3292 27.6829C15.3292 27.895 15.4886 27.9725 15.6366 27.9725C15.9053 27.9725 16.1148 27.7285 16.2514 27.5666C16.2651 27.5506 16.2765 27.5369 16.2902 27.5232C16.2879 27.5506 16.2833 27.578 16.2833 27.6076C16.2833 27.8311 16.3926 27.9702 16.5703 27.9702C16.7911 27.9702 16.946 27.7901 17.0963 27.6167C17.1441 27.562 17.1919 27.5073 17.242 27.4571C17.2238 27.546 17.2124 27.6236 17.2124 27.6783C17.2124 27.8653 17.324 27.9474 17.5722 27.9474C17.7384 27.9474 17.8978 27.7741 18.039 27.6213C18.0709 27.5871 18.1005 27.5552 18.1301 27.5255C18.1301 27.5369 18.1278 27.5506 18.1278 27.5643C18.1278 27.8471 18.3578 27.9634 18.3965 27.9634C18.4944 27.9634 18.6629 27.8038 18.836 27.619C18.8451 27.8699 18.9999 27.9839 19.1434 27.9839C19.3005 27.9839 19.5965 27.8083 19.5965 27.391C19.5965 27.3864 19.5965 27.3796 19.5965 27.3727C19.5965 27.3545 19.5965 27.3317 19.5943 27.3066C19.674 27.432 19.7377 27.5118 19.8379 27.5118C19.863 27.5118 19.929 27.4867 20.0292 27.4024C19.9677 27.6304 19.9153 27.8767 19.9176 27.9429C19.9996 27.9452 20.1225 27.952 20.1225 27.952L20.1362 27.9201C20.2979 27.5096 20.4641 27.0831 20.6691 27.0831C20.6964 27.0831 20.7032 27.0945 20.7055 27.0968C20.7283 27.1287 20.6918 27.2268 20.6554 27.3317C20.6121 27.4525 20.5552 27.6053 20.5552 27.7445C20.5552 27.9064 20.6395 27.9338 20.8285 27.9338C20.9491 27.9338 21.17 27.6829 21.3932 27.4115L21.4114 27.3887L21.3772 27.3659Z" fill="white"/>
<path d="M10 8.91892V10.3897H22.2646V8.91892C22.2646 8.31441 21.7722 7.82209 21.1677 7.82209H17.9645C19.4851 7.82209 21.6787 6.3451 21.1989 4.77464C20.8 3.46593 19.5973 2.80534 18.3696 2.81157C16.6371 2.82403 16.1821 6.45728 16.1821 6.45728H16.1323C16.1323 6.45728 15.6836 2.82403 13.9448 2.81157C12.7171 2.80534 11.5144 3.46593 11.1155 4.77464C10.6357 6.33887 12.8231 7.82209 14.3499 7.82209H11.0968C10.4923 7.82832 10 8.31441 10 8.91892ZM19.6409 4.13898C19.6409 4.13898 19.5848 5.92756 17.1855 7.26744C17.1793 7.26744 17.6342 4.96784 19.6409 4.13898ZM12.6922 4.13898C14.6927 4.96784 15.1476 7.26744 15.1476 7.26744C12.7483 5.92756 12.6922 4.13898 12.6922 4.13898Z" fill="white"/>
<path fill-rule="evenodd" clip-rule="evenodd" d="M20.4898 17.5245H11.7775C11.173 17.5245 10.6807 17.0321 10.6807 16.4276V10.9497H21.5866V16.4276C21.5866 17.0321 21.0943 17.5245 20.4898 17.5245ZM16.3589 10.9535H15.9203V17.5033H16.3589V10.9535Z" fill="white"/>
</svg>
