<svg width="1968" height="118" viewBox="0 0 1968 118" fill="none" xmlns="http://www.w3.org/2000/svg">
<path fill-rule="evenodd" clip-rule="evenodd" d="M1412.2 34.8369C1411.32 63.3984 1427.58 81.6909 1453.05 92.1416C1455.12 65.9934 1445.88 45.0567 1412.2 34.8369Z" fill="url(#paint0_linear_1131_1106)"/>
<path fill-rule="evenodd" clip-rule="evenodd" d="M1530.71 41.8789C1503.4 50.298 1491.36 71.6042 1489.72 99.0893C1515.13 92.5731 1531.95 77.051 1530.71 41.8789Z" fill="url(#paint1_linear_1131_1106)"/>
<path fill-rule="evenodd" clip-rule="evenodd" d="M1636.23 54.1076C1607.85 50.8326 1588.25 65.4971 1575.7 90.0034C1601.59 94.2567 1623.22 86.8086 1636.23 54.1076Z" fill="url(#paint2_linear_1131_1106)"/>
<path fill-rule="evenodd" clip-rule="evenodd" d="M1870.23 54.1076C1841.85 50.8326 1822.25 65.4971 1809.7 90.0034C1835.59 94.2567 1857.22 86.8086 1870.23 54.1076Z" fill="url(#paint3_linear_1131_1106)"/>
<path fill-rule="evenodd" clip-rule="evenodd" d="M1535.35 20.0885C1528.34 47.7896 1540.27 69.1548 1562.9 84.848C1570.55 59.7589 1566.04 37.3237 1535.35 20.0885Z" fill="url(#paint4_linear_1131_1106)"/>
<path fill-rule="evenodd" clip-rule="evenodd" d="M1751.35 31.0885C1744.34 58.7896 1756.27 80.1548 1778.9 95.848C1786.55 70.7589 1782.04 48.3237 1751.35 31.0885Z" fill="url(#paint5_linear_1131_1106)"/>
<path fill-rule="evenodd" clip-rule="evenodd" d="M1734.23 74.9119C1705.85 78.1869 1686.25 63.5224 1673.7 39.0162C1699.59 34.7629 1721.22 42.2109 1734.23 74.9119Z" fill="url(#paint6_linear_1131_1106)"/>
<path fill-rule="evenodd" clip-rule="evenodd" d="M1648.35 111.931C1641.34 84.2299 1653.27 62.8647 1675.9 47.1715C1683.55 72.2606 1679.04 94.6958 1648.35 111.931Z" fill="url(#paint7_linear_1131_1106)"/>
<path fill-rule="evenodd" clip-rule="evenodd" d="M1911.21 93.5845C1885.05 82.0722 1875.55 59.5196 1877.1 32.0294C1901.58 41.4324 1916.5 58.7903 1911.21 93.5845Z" fill="url(#paint8_linear_1131_1106)"/>
<path fill-rule="evenodd" clip-rule="evenodd" d="M1923.35 90.6224C1916.34 62.9214 1928.27 41.5561 1950.9 25.8629C1958.55 50.952 1954.04 73.3872 1923.35 90.6224Z" fill="url(#paint9_linear_1131_1106)"/>
<path fill-rule="evenodd" clip-rule="evenodd" d="M1485.75 64.0239C1489.36 63.7664 1489.36 68.9173 1486.27 69.1749C1482.67 69.69 1482.41 64.2815 1485.75 64.0239ZM1490.13 64.0239C1493.47 61.9635 1502.73 61.4484 1498.1 56.555C1496.04 54.4946 1495.27 54.4946 1493.47 51.6616C1492.96 51.1465 1492.7 50.3738 1491.93 50.1163C1490.13 49.6012 1488.84 50.8889 1487.81 52.1767C1484.98 55.7824 1484.98 58.1003 1484.73 62.2211C1484.47 59.6456 1484.73 54.2371 1483.7 52.4342C1482.41 49.8587 1479.32 52.6918 1477.52 53.2069C1477.01 53.722 1476.49 53.9795 1475.72 54.2371C1474.95 54.4946 1474.18 54.7522 1473.41 55.0097C1472.64 55.2673 1472.12 55.5248 1471.61 56.2975C1471.09 58.1003 1472.38 59.9031 1473.15 60.6758C1475.47 63.7664 1477.01 64.7965 1480.35 66.0843L1480.87 66.3418C1478.29 65.8267 1471.86 62.9937 1470.32 65.0541C1469.29 66.8569 1471.09 70.7202 1470.83 74.3258C1470.58 80.7645 1478.81 76.3862 1481.38 74.0683C1482.15 73.5532 1483.7 71.7504 1484.21 70.9777C1483.18 73.5532 1480.35 75.8711 1479.32 78.9617C1478.29 82.5674 1483.95 81.7947 1487.55 82.8249C1489.61 83.5976 1490.9 84.3702 1491.93 82.8249C1492.96 81.7947 1492.7 79.2193 1492.7 77.9315C1492.44 73.8107 1490.9 72.523 1489.87 70.2051C1491.16 71.2353 1492.96 74.5834 1495.53 76.6438C1498.36 78.9617 1499.64 73.5532 1501.45 70.7202C1502.47 68.9173 1506.33 66.0843 1499.64 64.0239C1495.79 62.7362 1493.47 63.2513 1490.13 64.0239Z" fill="url(#paint10_radial_1131_1106)"/>
<path fill-rule="evenodd" clip-rule="evenodd" d="M1485.75 64.024C1482.41 64.2815 1482.67 69.6901 1486.27 69.175C1489.36 68.9174 1489.36 63.7664 1485.75 64.024Z" fill="#FDFDFD"/>
<path fill-rule="evenodd" clip-rule="evenodd" d="M1584.75 50.0239C1588.36 49.7664 1588.36 54.9173 1585.27 55.1749C1581.67 55.69 1581.41 50.2815 1584.75 50.0239ZM1589.13 50.0239C1592.47 47.9635 1601.73 47.4484 1597.1 42.555C1595.04 40.4946 1594.27 40.4946 1592.47 37.6616C1591.96 37.1465 1591.7 36.3738 1590.93 36.1163C1589.13 35.6012 1587.84 36.8889 1586.81 38.1767C1583.98 41.7824 1583.98 44.1003 1583.73 48.2211C1583.47 45.6456 1583.73 40.2371 1582.7 38.4342C1581.41 35.8587 1578.32 38.6918 1576.52 39.2069C1576.01 39.722 1575.49 39.9795 1574.72 40.2371C1573.95 40.4946 1573.18 40.7522 1572.41 41.0097C1571.64 41.2673 1571.12 41.5248 1570.61 42.2975C1570.09 44.1003 1571.38 45.9031 1572.15 46.6758C1574.47 49.7664 1576.01 50.7965 1579.35 52.0843L1579.87 52.3418C1577.29 51.8267 1570.86 48.9937 1569.32 51.0541C1568.29 52.8569 1570.09 56.7202 1569.83 60.3258C1569.58 66.7645 1577.81 62.3862 1580.38 60.0683C1581.15 59.5532 1582.7 57.7504 1583.21 56.9777C1582.18 59.5532 1579.35 61.8711 1578.32 64.9617C1577.29 68.5674 1582.95 67.7947 1586.55 68.8249C1588.61 69.5976 1589.9 70.3702 1590.93 68.8249C1591.96 67.7947 1591.7 65.2193 1591.7 63.9315C1591.44 59.8107 1589.9 58.523 1588.87 56.2051C1590.16 57.2353 1591.96 60.5834 1594.53 62.6438C1597.36 64.9617 1598.64 59.5532 1600.45 56.7202C1601.47 54.9173 1605.33 52.0843 1598.64 50.0239C1594.79 48.7362 1592.47 49.2513 1589.13 50.0239Z" fill="url(#paint11_radial_1131_1106)"/>
<path fill-rule="evenodd" clip-rule="evenodd" d="M1584.75 50.024C1581.41 50.2815 1581.67 55.6901 1585.27 55.175C1588.36 54.9174 1588.36 49.7664 1584.75 50.024Z" fill="#FDFDFD"/>
<path fill-rule="evenodd" clip-rule="evenodd" d="M1800.75 61.0239C1804.36 60.7664 1804.36 65.9173 1801.27 66.1749C1797.67 66.69 1797.41 61.2815 1800.75 61.0239ZM1805.13 61.0239C1808.47 58.9635 1817.73 58.4484 1813.1 53.555C1811.04 51.4946 1810.27 51.4946 1808.47 48.6616C1807.96 48.1465 1807.7 47.3738 1806.93 47.1163C1805.13 46.6012 1803.84 47.8889 1802.81 49.1767C1799.98 52.7824 1799.98 55.1003 1799.73 59.2211C1799.47 56.6456 1799.73 51.2371 1798.7 49.4342C1797.41 46.8587 1794.32 49.6918 1792.52 50.2069C1792.01 50.722 1791.49 50.9795 1790.72 51.2371C1789.95 51.4946 1789.18 51.7522 1788.41 52.0097C1787.64 52.2673 1787.12 52.5248 1786.61 53.2975C1786.09 55.1003 1787.38 56.9031 1788.15 57.6758C1790.47 60.7664 1792.01 61.7965 1795.35 63.0843L1795.87 63.3418C1793.29 62.8267 1786.86 59.9937 1785.32 62.0541C1784.29 63.8569 1786.09 67.7202 1785.83 71.3258C1785.58 77.7645 1793.81 73.3862 1796.38 71.0683C1797.15 70.5532 1798.7 68.7504 1799.21 67.9777C1798.18 70.5532 1795.35 72.8711 1794.32 75.9617C1793.29 79.5674 1798.95 78.7947 1802.55 79.8249C1804.61 80.5976 1805.9 81.3702 1806.93 79.8249C1807.96 78.7947 1807.7 76.2193 1807.7 74.9315C1807.44 70.8107 1805.9 69.523 1804.87 67.2051C1806.16 68.2353 1807.96 71.5834 1810.53 73.6438C1813.36 75.9617 1814.64 70.5532 1816.45 67.7202C1817.47 65.9173 1821.33 63.0843 1814.64 61.0239C1810.79 59.7362 1808.47 60.2513 1805.13 61.0239Z" fill="url(#paint12_radial_1131_1106)"/>
<path fill-rule="evenodd" clip-rule="evenodd" d="M1800.75 61.024C1797.41 61.2815 1797.67 66.6901 1801.27 66.175C1804.36 65.9174 1804.36 60.7664 1800.75 61.024Z" fill="#FDFDFD"/>
<path fill-rule="evenodd" clip-rule="evenodd" d="M1858.75 92.0239C1862.36 91.7664 1862.36 96.9173 1859.27 97.1749C1855.67 97.69 1855.41 92.2815 1858.75 92.0239ZM1863.13 92.0239C1866.47 89.9635 1875.73 89.4484 1871.1 84.555C1869.04 82.4946 1868.27 82.4946 1866.47 79.6616C1865.96 79.1465 1865.7 78.3738 1864.93 78.1163C1863.13 77.6012 1861.84 78.8889 1860.81 80.1767C1857.98 83.7824 1857.98 86.1003 1857.73 90.2211C1857.47 87.6456 1857.73 82.2371 1856.7 80.4342C1855.41 77.8587 1852.32 80.6918 1850.52 81.2069C1850.01 81.722 1849.49 81.9795 1848.72 82.2371C1847.95 82.4946 1847.18 82.7522 1846.41 83.0097C1845.64 83.2673 1845.12 83.5248 1844.61 84.2975C1844.09 86.1003 1845.38 87.9031 1846.15 88.6758C1848.47 91.7664 1850.01 92.7965 1853.35 94.0843L1853.87 94.3418C1851.29 93.8267 1844.86 90.9937 1843.32 93.0541C1842.29 94.8569 1844.09 98.7202 1843.83 102.326C1843.58 108.765 1851.81 104.386 1854.38 102.068C1855.15 101.553 1856.7 99.7504 1857.21 98.9777C1856.18 101.553 1853.35 103.871 1852.32 106.962C1851.29 110.567 1856.95 109.795 1860.55 110.825C1862.61 111.598 1863.9 112.37 1864.93 110.825C1865.96 109.795 1865.7 107.219 1865.7 105.932C1865.44 101.811 1863.9 100.523 1862.87 98.2051C1864.16 99.2353 1865.96 102.583 1868.53 104.644C1871.36 106.962 1872.64 101.553 1874.45 98.7202C1875.47 96.9173 1879.33 94.0843 1872.64 92.0239C1868.79 90.7362 1866.47 91.2513 1863.13 92.0239Z" fill="url(#paint13_radial_1131_1106)"/>
<path fill-rule="evenodd" clip-rule="evenodd" d="M1858.75 92.024C1855.41 92.2815 1855.67 97.6901 1859.27 97.175C1862.36 96.9174 1862.36 91.7664 1858.75 92.024Z" fill="#FDFDFD"/>
<path fill-rule="evenodd" clip-rule="evenodd" d="M1936.75 47.0239C1940.36 46.7664 1940.36 51.9173 1937.27 52.1749C1933.67 52.69 1933.41 47.2815 1936.75 47.0239ZM1941.13 47.0239C1944.47 44.9635 1953.73 44.4484 1949.1 39.555C1947.04 37.4946 1946.27 37.4946 1944.47 34.6616C1943.96 34.1465 1943.7 33.3738 1942.93 33.1163C1941.13 32.6012 1939.84 33.8889 1938.81 35.1767C1935.98 38.7824 1935.98 41.1003 1935.73 45.2211C1935.47 42.6456 1935.73 37.2371 1934.7 35.4342C1933.41 32.8587 1930.32 35.6918 1928.52 36.2069C1928.01 36.722 1927.49 36.9795 1926.72 37.2371C1925.95 37.4946 1925.18 37.7522 1924.41 38.0097C1923.64 38.2673 1923.12 38.5248 1922.61 39.2975C1922.09 41.1003 1923.38 42.9031 1924.15 43.6758C1926.47 46.7664 1928.01 47.7965 1931.35 49.0843L1931.87 49.3418C1929.29 48.8267 1922.86 45.9937 1921.32 48.0541C1920.29 49.8569 1922.09 53.7202 1921.83 57.3258C1921.58 63.7645 1929.81 59.3862 1932.38 57.0683C1933.15 56.5532 1934.7 54.7504 1935.21 53.9777C1934.18 56.5532 1931.35 58.8711 1930.32 61.9617C1929.29 65.5674 1934.95 64.7947 1938.55 65.8249C1940.61 66.5976 1941.9 67.3702 1942.93 65.8249C1943.96 64.7947 1943.7 62.2193 1943.7 60.9315C1943.44 56.8107 1941.9 55.523 1940.87 53.2051C1942.16 54.2353 1943.96 57.5834 1946.53 59.6438C1949.36 61.9617 1950.64 56.5532 1952.45 53.7202C1953.47 51.9173 1957.33 49.0843 1950.64 47.0239C1946.79 45.7362 1944.47 46.2513 1941.13 47.0239Z" fill="url(#paint14_radial_1131_1106)"/>
<path fill-rule="evenodd" clip-rule="evenodd" d="M1936.75 47.024C1933.41 47.2815 1933.67 52.6901 1937.27 52.175C1940.36 51.9174 1940.36 46.7664 1936.75 47.024Z" fill="#FDFDFD"/>
<path fill-rule="evenodd" clip-rule="evenodd" d="M1689.75 81.0239C1693.36 80.7664 1693.36 85.9173 1690.27 86.1749C1686.67 86.69 1686.41 81.2815 1689.75 81.0239ZM1694.13 81.0239C1697.47 78.9635 1706.73 78.4484 1702.1 73.555C1700.04 71.4946 1699.27 71.4946 1697.47 68.6616C1696.96 68.1465 1696.7 67.3738 1695.93 67.1163C1694.13 66.6012 1692.84 67.8889 1691.81 69.1767C1688.98 72.7824 1688.98 75.1003 1688.73 79.2211C1688.47 76.6456 1688.73 71.2371 1687.7 69.4342C1686.41 66.8587 1683.32 69.6918 1681.52 70.2069C1681.01 70.722 1680.49 70.9795 1679.72 71.2371C1678.95 71.4946 1678.18 71.7522 1677.41 72.0097C1676.64 72.2673 1676.12 72.5248 1675.61 73.2975C1675.09 75.1003 1676.38 76.9031 1677.15 77.6758C1679.47 80.7664 1681.01 81.7965 1684.35 83.0843L1684.87 83.3418C1682.29 82.8267 1675.86 79.9937 1674.32 82.0541C1673.29 83.8569 1675.09 87.7202 1674.83 91.3258C1674.58 97.7645 1682.81 93.3862 1685.38 91.0683C1686.15 90.5532 1687.7 88.7504 1688.21 87.9777C1687.18 90.5532 1684.35 92.8711 1683.32 95.9617C1682.29 99.5674 1687.95 98.7947 1691.55 99.8249C1693.61 100.598 1694.9 101.37 1695.93 99.8249C1696.96 98.7947 1696.7 96.2193 1696.7 94.9315C1696.44 90.8107 1694.9 89.523 1693.87 87.2051C1695.16 88.2353 1696.96 91.5834 1699.53 93.6438C1702.36 95.9617 1703.64 90.5532 1705.45 87.7202C1706.47 85.9173 1710.33 83.0843 1703.64 81.0239C1699.79 79.7362 1697.47 80.2513 1694.13 81.0239Z" fill="url(#paint15_radial_1131_1106)"/>
<path fill-rule="evenodd" clip-rule="evenodd" d="M1689.75 81.024C1686.41 81.2815 1686.67 86.6901 1690.27 86.175C1693.36 85.9174 1693.36 80.7664 1689.75 81.024Z" fill="#FDFDFD"/>
<path fill-rule="evenodd" clip-rule="evenodd" d="M1754.75 64.0239C1758.36 63.7664 1758.36 68.9173 1755.27 69.1749C1751.67 69.69 1751.41 64.2815 1754.75 64.0239ZM1759.13 64.0239C1762.47 61.9635 1771.73 61.4484 1767.1 56.555C1765.04 54.4946 1764.27 54.4946 1762.47 51.6616C1761.96 51.1465 1761.7 50.3738 1760.93 50.1163C1759.13 49.6012 1757.84 50.8889 1756.81 52.1767C1753.98 55.7824 1753.98 58.1003 1753.73 62.2211C1753.47 59.6456 1753.73 54.2371 1752.7 52.4342C1751.41 49.8587 1748.32 52.6918 1746.52 53.2069C1746.01 53.722 1745.49 53.9795 1744.72 54.2371C1743.95 54.4946 1743.18 54.7522 1742.41 55.0097C1741.64 55.2673 1741.12 55.5248 1740.61 56.2975C1740.09 58.1003 1741.38 59.9031 1742.15 60.6758C1744.47 63.7664 1746.01 64.7965 1749.35 66.0843L1749.87 66.3418C1747.29 65.8267 1740.86 62.9937 1739.32 65.0541C1738.29 66.8569 1740.09 70.7202 1739.83 74.3258C1739.58 80.7645 1747.81 76.3862 1750.38 74.0683C1751.15 73.5532 1752.7 71.7504 1753.21 70.9777C1752.18 73.5532 1749.35 75.8711 1748.32 78.9617C1747.29 82.5674 1752.95 81.7947 1756.55 82.8249C1758.61 83.5976 1759.9 84.3702 1760.93 82.8249C1761.96 81.7947 1761.7 79.2193 1761.7 77.9315C1761.44 73.8107 1759.9 72.523 1758.87 70.2051C1760.16 71.2353 1761.96 74.5834 1764.53 76.6438C1767.36 78.9617 1768.64 73.5532 1770.45 70.7202C1771.47 68.9173 1775.33 66.0843 1768.64 64.0239C1764.79 62.7362 1762.47 63.2513 1759.13 64.0239Z" fill="url(#paint16_radial_1131_1106)"/>
<path fill-rule="evenodd" clip-rule="evenodd" d="M1754.75 64.024C1751.41 64.2815 1751.67 69.6901 1755.27 69.175C1758.36 68.9174 1758.36 63.7664 1754.75 64.024Z" fill="#FDFDFD"/>
<path fill-rule="evenodd" clip-rule="evenodd" d="M12.2013 42.8369C11.3203 71.3984 27.5772 89.6909 53.0504 100.142C55.1165 73.9934 45.8789 53.0567 12.2013 42.8369Z" fill="url(#paint17_linear_1131_1106)"/>
<path fill-rule="evenodd" clip-rule="evenodd" d="M365.201 44.8369C364.32 73.3984 380.577 91.6909 406.05 102.142C408.117 75.9934 398.879 55.0567 365.201 44.8369Z" fill="url(#paint18_linear_1131_1106)"/>
<path fill-rule="evenodd" clip-rule="evenodd" d="M709.201 35.8369C708.32 64.3984 724.577 82.6909 750.05 93.1416C752.117 66.9934 742.879 46.0567 709.201 35.8369Z" fill="url(#paint19_linear_1131_1106)"/>
<path fill-rule="evenodd" clip-rule="evenodd" d="M1062.2 41.8369C1061.32 70.3984 1077.58 88.6909 1103.05 99.1416C1105.12 72.9934 1095.88 52.0567 1062.2 41.8369Z" fill="url(#paint20_linear_1131_1106)"/>
<path fill-rule="evenodd" clip-rule="evenodd" d="M135.706 36.8789C108.399 45.298 96.3596 66.6042 94.7246 94.0893C120.132 87.5731 136.947 72.051 135.706 36.8789Z" fill="url(#paint21_linear_1131_1106)"/>
<path fill-rule="evenodd" clip-rule="evenodd" d="M488.706 38.8789C461.399 47.298 449.36 68.6042 447.725 96.0893C473.132 89.5731 489.947 74.051 488.706 38.8789Z" fill="url(#paint22_linear_1131_1106)"/>
<path fill-rule="evenodd" clip-rule="evenodd" d="M1177.71 34.8789C1150.4 43.298 1138.36 64.6042 1136.72 92.0893C1162.13 85.5731 1178.95 70.051 1177.71 34.8789Z" fill="url(#paint23_linear_1131_1106)"/>
<path fill-rule="evenodd" clip-rule="evenodd" d="M827.342 40.0276C799.069 44.171 783.912 63.385 778.092 90.2965C804.198 87.7433 823.189 74.9758 827.342 40.0276Z" fill="url(#paint24_linear_1131_1106)"/>
<path fill-rule="evenodd" clip-rule="evenodd" d="M241.233 49.1076C212.846 45.8326 193.254 60.4971 180.703 85.0034C206.585 89.2567 228.223 81.8086 241.233 49.1076Z" fill="url(#paint25_linear_1131_1106)"/>
<path fill-rule="evenodd" clip-rule="evenodd" d="M1291.23 48.1076C1262.85 44.8326 1243.25 59.4971 1230.7 84.0034C1256.59 88.2567 1278.22 80.8086 1291.23 48.1076Z" fill="url(#paint26_linear_1131_1106)"/>
<path fill-rule="evenodd" clip-rule="evenodd" d="M594.233 51.1076C565.846 47.8326 546.254 62.4971 533.703 87.0034C559.585 91.2567 581.223 83.8086 594.233 51.1076Z" fill="url(#paint27_linear_1131_1106)"/>
<path fill-rule="evenodd" clip-rule="evenodd" d="M938.233 42.1076C909.846 38.8326 890.254 53.4971 877.703 78.0034C903.585 82.2567 925.223 74.8086 938.233 42.1076Z" fill="url(#paint28_linear_1131_1106)"/>
<path fill-rule="evenodd" clip-rule="evenodd" d="M1196.35 17.0885C1189.34 44.7896 1201.27 66.1548 1223.9 81.848C1231.55 56.7589 1227.04 34.3237 1196.35 17.0885Z" fill="url(#paint29_linear_1131_1106)"/>
<path fill-rule="evenodd" clip-rule="evenodd" d="M155.352 12.0885C148.338 39.7896 160.272 61.1548 182.896 76.848C190.547 51.7589 186.037 29.3237 155.352 12.0885Z" fill="url(#paint30_linear_1131_1106)"/>
<path fill-rule="evenodd" clip-rule="evenodd" d="M508.352 14.0885C501.338 41.7896 513.272 63.1548 535.896 78.848C543.547 53.7589 539.037 31.3237 508.352 14.0885Z" fill="url(#paint31_linear_1131_1106)"/>
<path fill-rule="evenodd" clip-rule="evenodd" d="M852.352 5.08852C845.338 32.7896 857.272 54.1548 879.896 69.848C887.547 44.7589 883.037 22.3237 852.352 5.08852Z" fill="url(#paint32_linear_1131_1106)"/>
<path fill-rule="evenodd" clip-rule="evenodd" d="M1389.23 68.9119C1360.85 72.1869 1341.25 57.5224 1328.7 33.0162C1354.59 28.7629 1376.22 36.2109 1389.23 68.9119Z" fill="url(#paint33_linear_1131_1106)"/>
<path fill-rule="evenodd" clip-rule="evenodd" d="M339.233 69.9119C310.846 73.1869 291.254 58.5224 278.703 34.0162C304.585 29.7629 326.223 37.2109 339.233 69.9119Z" fill="url(#paint34_linear_1131_1106)"/>
<path fill-rule="evenodd" clip-rule="evenodd" d="M692.233 71.9119C663.846 75.1869 644.254 60.5224 631.703 36.0162C657.585 31.7629 679.223 39.2109 692.233 71.9119Z" fill="url(#paint35_linear_1131_1106)"/>
<path fill-rule="evenodd" clip-rule="evenodd" d="M1303.35 105.931C1296.34 78.2299 1308.27 56.8647 1330.9 41.1715C1338.55 66.2606 1334.04 88.6958 1303.35 105.931Z" fill="url(#paint36_linear_1131_1106)"/>
<path fill-rule="evenodd" clip-rule="evenodd" d="M1036.23 62.9119C1007.85 66.1869 988.254 51.5224 975.703 27.0162C1001.59 22.7629 1023.22 30.2109 1036.23 62.9119Z" fill="url(#paint37_linear_1131_1106)"/>
<path fill-rule="evenodd" clip-rule="evenodd" d="M253.352 106.931C246.338 79.2299 258.272 57.8647 280.896 42.1715C288.547 67.2606 284.037 89.6958 253.352 106.931Z" fill="url(#paint38_linear_1131_1106)"/>
<path fill-rule="evenodd" clip-rule="evenodd" d="M1409.75 58.0239C1413.36 57.7664 1413.36 62.9173 1410.27 63.1749C1406.67 63.69 1406.41 58.2815 1409.75 58.0239ZM1414.13 58.0239C1417.47 55.9635 1426.73 55.4484 1422.1 50.555C1420.04 48.4946 1419.27 48.4946 1417.47 45.6616C1416.96 45.1465 1416.7 44.3738 1415.93 44.1163C1414.13 43.6012 1412.84 44.8889 1411.81 46.1767C1408.98 49.7824 1408.98 52.1003 1408.73 56.2211C1408.47 53.6456 1408.73 48.2371 1407.7 46.4342C1406.41 43.8587 1403.32 46.6918 1401.52 47.2069C1401.01 47.722 1400.49 47.9795 1399.72 48.2371C1398.95 48.4946 1398.18 48.7522 1397.41 49.0097C1396.64 49.2673 1396.12 49.5248 1395.61 50.2975C1395.09 52.1003 1396.38 53.9031 1397.15 54.6758C1399.47 57.7664 1401.01 58.7965 1404.35 60.0843L1404.87 60.3418C1402.29 59.8267 1395.86 56.9937 1394.32 59.0541C1393.29 60.8569 1395.09 64.7202 1394.83 68.3258C1394.58 74.7645 1402.81 70.3862 1405.38 68.0683C1406.15 67.5532 1407.7 65.7504 1408.21 64.9777C1407.18 67.5532 1404.35 69.8711 1403.32 72.9617C1402.29 76.5674 1407.95 75.7947 1411.55 76.8249C1413.61 77.5976 1414.9 78.3702 1415.93 76.8249C1416.96 75.7947 1416.7 73.2193 1416.7 71.9315C1416.44 67.8107 1414.9 66.523 1413.87 64.2051C1415.16 65.2353 1416.96 68.5834 1419.53 70.6438C1422.36 72.9617 1423.64 67.5532 1425.45 64.7202C1426.47 62.9173 1430.33 60.0843 1423.64 58.0239C1419.79 56.7362 1417.47 57.2513 1414.13 58.0239Z" fill="url(#paint39_radial_1131_1106)"/>
<path fill-rule="evenodd" clip-rule="evenodd" d="M1409.75 58.024C1406.41 58.2815 1406.67 63.6901 1410.27 63.175C1413.36 62.9174 1413.36 57.7664 1409.75 58.024Z" fill="#FDFDFD"/>
<path fill-rule="evenodd" clip-rule="evenodd" d="M606.352 108.931C599.338 81.2299 611.272 59.8647 633.896 44.1715C641.547 69.2606 637.037 91.6958 606.352 108.931Z" fill="url(#paint40_linear_1131_1106)"/>
<path fill-rule="evenodd" clip-rule="evenodd" d="M950.352 99.931C943.338 72.2299 955.272 50.8647 977.896 35.1715C985.547 60.2606 981.037 82.6958 950.352 99.931Z" fill="url(#paint41_linear_1131_1106)"/>
<path fill-rule="evenodd" clip-rule="evenodd" d="M1255.75 45.0239C1259.36 44.7664 1259.36 49.9173 1256.27 50.1749C1252.67 50.69 1252.41 45.2815 1255.75 45.0239ZM1260.13 45.0239C1263.47 42.9635 1272.73 42.4484 1268.1 37.555C1266.04 35.4946 1265.27 35.4946 1263.47 32.6616C1262.96 32.1465 1262.7 31.3738 1261.93 31.1163C1260.13 30.6012 1258.84 31.8889 1257.81 33.1767C1254.98 36.7824 1254.98 39.1003 1254.73 43.2211C1254.47 40.6456 1254.73 35.2371 1253.7 33.4342C1252.41 30.8587 1249.32 33.6918 1247.52 34.2069C1247.01 34.722 1246.49 34.9795 1245.72 35.2371C1244.95 35.4946 1244.18 35.7522 1243.41 36.0097C1242.64 36.2673 1242.12 36.5248 1241.61 37.2975C1241.09 39.1003 1242.38 40.9031 1243.15 41.6758C1245.47 44.7664 1247.01 45.7965 1250.35 47.0843L1250.87 47.3418C1248.29 46.8267 1241.86 43.9937 1240.32 46.0541C1239.29 47.8569 1241.09 51.7202 1240.83 55.3258C1240.58 61.7645 1248.81 57.3862 1251.38 55.0683C1252.15 54.5532 1253.7 52.7504 1254.21 51.9777C1253.18 54.5532 1250.35 56.8711 1249.32 59.9617C1248.29 63.5674 1253.95 62.7947 1257.55 63.8249C1259.61 64.5976 1260.9 65.3702 1261.93 63.8249C1262.96 62.7947 1262.7 60.2193 1262.7 58.9315C1262.44 54.8107 1260.9 53.523 1259.87 51.2051C1261.16 52.2353 1262.96 55.5834 1265.53 57.6438C1268.36 59.9617 1269.64 54.5532 1271.45 51.7202C1272.47 49.9173 1276.33 47.0843 1269.64 45.0239C1265.79 43.7362 1263.47 44.2513 1260.13 45.0239Z" fill="url(#paint42_radial_1131_1106)"/>
<path fill-rule="evenodd" clip-rule="evenodd" d="M1255.75 45.024C1252.41 45.2815 1252.67 50.6901 1256.27 50.175C1259.36 49.9174 1259.36 44.7664 1255.75 45.024Z" fill="#FDFDFD"/>
<path fill-rule="evenodd" clip-rule="evenodd" d="M90.7544 59.0239C94.3556 58.7664 94.3556 63.9173 91.2688 64.1749C87.6676 64.69 87.4104 59.2815 90.7544 59.0239ZM95.1273 59.0239C98.4713 56.9635 107.732 56.4484 103.101 51.555C101.044 49.4946 100.272 49.4946 98.4713 46.6616C97.9569 46.1465 97.6996 45.3738 96.9279 45.1163C95.1273 44.6012 93.8411 45.8889 92.8122 47.1767C89.9827 50.7824 89.9827 53.1003 89.7254 57.2211C89.4682 54.6456 89.7254 49.2371 88.6965 47.4342C87.4104 44.8587 84.3236 47.6918 82.523 48.2069C82.0085 48.722 81.494 48.9795 80.7223 49.2371C79.9506 49.4946 79.1789 49.7522 78.4072 50.0097C77.6355 50.2673 77.1211 50.5248 76.6066 51.2975C76.0922 53.1003 77.3783 54.9031 78.15 55.6758C80.4651 58.7664 82.0085 59.7965 85.3525 61.0843L85.867 61.3418C83.2946 60.8267 76.8639 57.9937 75.3205 60.0541C74.2915 61.8569 76.0922 65.7202 75.8349 69.3258C75.5777 75.7645 83.8091 71.3862 86.3814 69.0683C87.1531 68.5532 88.6965 66.7504 89.211 65.9777C88.182 68.5532 85.3525 70.8711 84.3236 73.9617C83.2946 77.5674 88.9537 76.7947 92.555 77.8249C94.6128 78.5976 95.899 79.3702 96.9279 77.8249C97.9569 76.7947 97.6996 74.2193 97.6996 72.9315C97.4424 68.8107 95.899 67.523 94.8701 65.2051C96.1562 66.2353 97.9569 69.5834 100.529 71.6438C103.359 73.9617 104.645 68.5532 106.446 65.7202C107.474 63.9173 111.333 61.0843 104.645 59.0239C100.786 57.7362 98.4713 58.2513 95.1273 59.0239Z" fill="url(#paint43_radial_1131_1106)"/>
<path fill-rule="evenodd" clip-rule="evenodd" d="M90.7544 59.024C87.4104 59.2815 87.6677 64.6901 91.2689 64.175C94.3557 63.9174 94.3557 58.7664 90.7544 59.024Z" fill="#FDFDFD"/>
<path fill-rule="evenodd" clip-rule="evenodd" d="M443.754 61.0239C447.356 60.7664 447.356 65.9173 444.269 66.1749C440.668 66.69 440.41 61.2815 443.754 61.0239ZM448.127 61.0239C451.471 58.9635 460.732 58.4484 456.101 53.555C454.044 51.4946 453.272 51.4946 451.471 48.6616C450.957 48.1465 450.7 47.3738 449.928 47.1163C448.127 46.6012 446.841 47.8889 445.812 49.1767C442.983 52.7824 442.983 55.1003 442.725 59.2211C442.468 56.6456 442.725 51.2371 441.697 49.4342C440.41 46.8587 437.324 49.6918 435.523 50.2069C435.008 50.722 434.494 50.9795 433.722 51.2371C432.951 51.4946 432.179 51.7522 431.407 52.0097C430.636 52.2673 430.121 52.5248 429.607 53.2975C429.092 55.1003 430.378 56.9031 431.15 57.6758C433.465 60.7664 435.008 61.7965 438.352 63.0843L438.867 63.3418C436.295 62.8267 429.864 59.9937 428.32 62.0541C427.292 63.8569 429.092 67.7202 428.835 71.3258C428.578 77.7645 436.809 73.3862 439.381 71.0683C440.153 70.5532 441.697 68.7504 442.211 67.9777C441.182 70.5532 438.352 72.8711 437.324 75.9617C436.295 79.5674 441.954 78.7947 445.555 79.8249C447.613 80.5976 448.899 81.3702 449.928 79.8249C450.957 78.7947 450.7 76.2193 450.7 74.9315C450.442 70.8107 448.899 69.523 447.87 67.2051C449.156 68.2353 450.957 71.5834 453.529 73.6438C456.359 75.9617 457.645 70.5532 459.446 67.7202C460.474 65.9173 464.333 63.0843 457.645 61.0239C453.786 59.7362 451.471 60.2513 448.127 61.0239Z" fill="url(#paint44_radial_1131_1106)"/>
<path fill-rule="evenodd" clip-rule="evenodd" d="M443.754 61.024C440.41 61.2815 440.668 66.6901 444.269 66.175C447.356 65.9174 447.356 60.7664 443.754 61.024Z" fill="#FDFDFD"/>
<path fill-rule="evenodd" clip-rule="evenodd" d="M787.754 52.0239C791.356 51.7664 791.356 56.9173 788.269 57.1749C784.668 57.69 784.41 52.2815 787.754 52.0239ZM792.127 52.0239C795.471 49.9635 804.732 49.4484 800.101 44.555C798.044 42.4946 797.272 42.4946 795.471 39.6616C794.957 39.1465 794.7 38.3738 793.928 38.1163C792.127 37.6012 790.841 38.8889 789.812 40.1767C786.983 43.7824 786.983 46.1003 786.725 50.2211C786.468 47.6456 786.725 42.2371 785.697 40.4342C784.41 37.8587 781.324 40.6918 779.523 41.2069C779.008 41.722 778.494 41.9795 777.722 42.2371C776.951 42.4946 776.179 42.7522 775.407 43.0097C774.636 43.2673 774.121 43.5248 773.607 44.2975C773.092 46.1003 774.378 47.9031 775.15 48.6758C777.465 51.7664 779.008 52.7965 782.352 54.0843L782.867 54.3418C780.295 53.8267 773.864 50.9937 772.32 53.0541C771.292 54.8569 773.092 58.7202 772.835 62.3258C772.578 68.7645 780.809 64.3862 783.381 62.0683C784.153 61.5532 785.697 59.7504 786.211 58.9777C785.182 61.5532 782.352 63.8711 781.324 66.9617C780.295 70.5674 785.954 69.7947 789.555 70.8249C791.613 71.5976 792.899 72.3702 793.928 70.8249C794.957 69.7947 794.7 67.2193 794.7 65.9315C794.442 61.8107 792.899 60.523 791.87 58.2051C793.156 59.2353 794.957 62.5834 797.529 64.6438C800.359 66.9617 801.645 61.5532 803.446 58.7202C804.474 56.9173 808.333 54.0843 801.645 52.0239C797.786 50.7362 795.471 51.2513 792.127 52.0239Z" fill="url(#paint45_radial_1131_1106)"/>
<path fill-rule="evenodd" clip-rule="evenodd" d="M787.754 52.024C784.41 52.2815 784.668 57.6901 788.269 57.175C791.356 56.9174 791.356 51.7664 787.754 52.024Z" fill="#FDFDFD"/>
<path fill-rule="evenodd" clip-rule="evenodd" d="M1344.75 75.0239C1348.36 74.7664 1348.36 79.9173 1345.27 80.1749C1341.67 80.69 1341.41 75.2815 1344.75 75.0239ZM1349.13 75.0239C1352.47 72.9635 1361.73 72.4484 1357.1 67.555C1355.04 65.4946 1354.27 65.4946 1352.47 62.6616C1351.96 62.1465 1351.7 61.3738 1350.93 61.1163C1349.13 60.6012 1347.84 61.8889 1346.81 63.1767C1343.98 66.7824 1343.98 69.1003 1343.73 73.2211C1343.47 70.6456 1343.73 65.2371 1342.7 63.4342C1341.41 60.8587 1338.32 63.6918 1336.52 64.2069C1336.01 64.722 1335.49 64.9795 1334.72 65.2371C1333.95 65.4946 1333.18 65.7522 1332.41 66.0097C1331.64 66.2673 1331.12 66.5248 1330.61 67.2975C1330.09 69.1003 1331.38 70.9031 1332.15 71.6758C1334.47 74.7664 1336.01 75.7965 1339.35 77.0843L1339.87 77.3418C1337.29 76.8267 1330.86 73.9937 1329.32 76.0541C1328.29 77.8569 1330.09 81.7202 1329.83 85.3258C1329.58 91.7645 1337.81 87.3862 1340.38 85.0683C1341.15 84.5532 1342.7 82.7504 1343.21 81.9777C1342.18 84.5532 1339.35 86.8711 1338.32 89.9617C1337.29 93.5674 1342.95 92.7947 1346.55 93.8249C1348.61 94.5976 1349.9 95.3702 1350.93 93.8249C1351.96 92.7947 1351.7 90.2193 1351.7 88.9315C1351.44 84.8107 1349.9 83.523 1348.87 81.2051C1350.16 82.2353 1351.96 85.5834 1354.53 87.6438C1357.36 89.9617 1358.64 84.5532 1360.45 81.7202C1361.47 79.9173 1365.33 77.0843 1358.64 75.0239C1354.79 73.7362 1352.47 74.2513 1349.13 75.0239Z" fill="url(#paint46_radial_1131_1106)"/>
<path fill-rule="evenodd" clip-rule="evenodd" d="M1344.75 75.024C1341.41 75.2815 1341.67 80.6901 1345.27 80.175C1348.36 79.9174 1348.36 74.7664 1344.75 75.024Z" fill="#FDFDFD"/>
<path fill-rule="evenodd" clip-rule="evenodd" d="M205.754 46.0239C209.356 45.7664 209.356 50.9173 206.269 51.1749C202.668 51.69 202.41 46.2815 205.754 46.0239ZM210.127 46.0239C213.471 43.9635 222.732 43.4484 218.101 38.555C216.044 36.4946 215.272 36.4946 213.471 33.6616C212.957 33.1465 212.7 32.3738 211.928 32.1163C210.127 31.6012 208.841 32.8889 207.812 34.1767C204.983 37.7824 204.983 40.1003 204.725 44.2211C204.468 41.6456 204.725 36.2371 203.697 34.4342C202.41 31.8587 199.324 34.6918 197.523 35.2069C197.008 35.722 196.494 35.9795 195.722 36.2371C194.951 36.4946 194.179 36.7522 193.407 37.0097C192.636 37.2673 192.121 37.5248 191.607 38.2975C191.092 40.1003 192.378 41.9031 193.15 42.6758C195.465 45.7664 197.008 46.7965 200.352 48.0843L200.867 48.3418C198.295 47.8267 191.864 44.9937 190.32 47.0541C189.292 48.8569 191.092 52.7202 190.835 56.3258C190.578 62.7645 198.809 58.3862 201.381 56.0683C202.153 55.5532 203.697 53.7504 204.211 52.9777C203.182 55.5532 200.352 57.8711 199.324 60.9617C198.295 64.5674 203.954 63.7947 207.555 64.8249C209.613 65.5976 210.899 66.3702 211.928 64.8249C212.957 63.7947 212.7 61.2193 212.7 59.9315C212.442 55.8107 210.899 54.523 209.87 52.2051C211.156 53.2353 212.957 56.5834 215.529 58.6438C218.359 60.9617 219.645 55.5532 221.446 52.7202C222.474 50.9173 226.333 48.0843 219.645 46.0239C215.786 44.7362 213.471 45.2513 210.127 46.0239Z" fill="url(#paint47_radial_1131_1106)"/>
<path fill-rule="evenodd" clip-rule="evenodd" d="M205.754 46.024C202.41 46.2815 202.668 51.6901 206.269 51.175C209.356 50.9174 209.356 45.7664 205.754 46.024Z" fill="#FDFDFD"/>
<path fill-rule="evenodd" clip-rule="evenodd" d="M558.754 48.0239C562.356 47.7664 562.356 52.9173 559.269 53.1749C555.668 53.69 555.41 48.2815 558.754 48.0239ZM563.127 48.0239C566.471 45.9635 575.732 45.4484 571.101 40.555C569.044 38.4946 568.272 38.4946 566.471 35.6616C565.957 35.1465 565.7 34.3738 564.928 34.1163C563.127 33.6012 561.841 34.8889 560.812 36.1767C557.983 39.7824 557.983 42.1003 557.725 46.2211C557.468 43.6456 557.725 38.2371 556.697 36.4342C555.41 33.8587 552.324 36.6918 550.523 37.2069C550.008 37.722 549.494 37.9795 548.722 38.2371C547.951 38.4946 547.179 38.7522 546.407 39.0097C545.636 39.2673 545.121 39.5248 544.607 40.2975C544.092 42.1003 545.378 43.9031 546.15 44.6758C548.465 47.7664 550.008 48.7965 553.352 50.0843L553.867 50.3418C551.295 49.8267 544.864 46.9937 543.32 49.0541C542.292 50.8569 544.092 54.7202 543.835 58.3258C543.578 64.7645 551.809 60.3862 554.381 58.0683C555.153 57.5532 556.697 55.7504 557.211 54.9777C556.182 57.5532 553.352 59.8711 552.324 62.9617C551.295 66.5674 556.954 65.7947 560.555 66.8249C562.613 67.5976 563.899 68.3702 564.928 66.8249C565.957 65.7947 565.7 63.2193 565.7 61.9315C565.442 57.8107 563.899 56.523 562.87 54.2051C564.156 55.2353 565.957 58.5834 568.529 60.6438C571.359 62.9617 572.645 57.5532 574.446 54.7202C575.474 52.9173 579.333 50.0843 572.645 48.0239C568.786 46.7362 566.471 47.2513 563.127 48.0239Z" fill="url(#paint48_radial_1131_1106)"/>
<path fill-rule="evenodd" clip-rule="evenodd" d="M558.754 48.024C555.41 48.2815 555.668 53.6901 559.269 53.175C562.356 52.9174 562.356 47.7664 558.754 48.024Z" fill="#FDFDFD"/>
<path fill-rule="evenodd" clip-rule="evenodd" d="M871.754 58.0239C875.356 57.7664 875.356 62.9173 872.269 63.1749C868.668 63.69 868.41 58.2815 871.754 58.0239ZM876.127 58.0239C879.471 55.9635 888.732 55.4484 884.101 50.555C882.044 48.4946 881.272 48.4946 879.471 45.6616C878.957 45.1465 878.7 44.3738 877.928 44.1163C876.127 43.6012 874.841 44.8889 873.812 46.1767C870.983 49.7824 870.983 52.1003 870.725 56.2211C870.468 53.6456 870.725 48.2371 869.697 46.4342C868.41 43.8587 865.324 46.6918 863.523 47.2069C863.008 47.722 862.494 47.9795 861.722 48.2371C860.951 48.4946 860.179 48.7522 859.407 49.0097C858.636 49.2673 858.121 49.5248 857.607 50.2975C857.092 52.1003 858.378 53.9031 859.15 54.6758C861.465 57.7664 863.008 58.7965 866.352 60.0843L866.867 60.3418C864.295 59.8267 857.864 56.9937 856.32 59.0541C855.292 60.8569 857.092 64.7202 856.835 68.3258C856.578 74.7645 864.809 70.3862 867.381 68.0683C868.153 67.5532 869.697 65.7504 870.211 64.9777C869.182 67.5532 866.352 69.8711 865.324 72.9617C864.295 76.5674 869.954 75.7947 873.555 76.8249C875.613 77.5976 876.899 78.3702 877.928 76.8249C878.957 75.7947 878.7 73.2193 878.7 71.9315C878.442 67.8107 876.899 66.523 875.87 64.2051C877.156 65.2353 878.957 68.5834 881.529 70.6438C884.359 72.9617 885.645 67.5532 887.446 64.7202C888.474 62.9173 892.333 60.0843 885.645 58.0239C881.786 56.7362 879.471 57.2513 876.127 58.0239Z" fill="url(#paint49_radial_1131_1106)"/>
<path fill-rule="evenodd" clip-rule="evenodd" d="M871.754 58.024C868.41 58.2815 868.668 63.6901 872.269 63.175C875.356 62.9174 875.356 57.7664 871.754 58.024Z" fill="#FDFDFD"/>
<path fill-rule="evenodd" clip-rule="evenodd" d="M294.754 76.0239C298.356 75.7664 298.356 80.9173 295.269 81.1749C291.668 81.69 291.41 76.2815 294.754 76.0239ZM299.127 76.0239C302.471 73.9635 311.732 73.4484 307.101 68.555C305.044 66.4946 304.272 66.4946 302.471 63.6616C301.957 63.1465 301.7 62.3738 300.928 62.1163C299.127 61.6012 297.841 62.8889 296.812 64.1767C293.983 67.7824 293.983 70.1003 293.725 74.2211C293.468 71.6456 293.725 66.2371 292.697 64.4342C291.41 61.8587 288.324 64.6918 286.523 65.2069C286.008 65.722 285.494 65.9795 284.722 66.2371C283.951 66.4946 283.179 66.7522 282.407 67.0097C281.636 67.2673 281.121 67.5248 280.607 68.2975C280.092 70.1003 281.378 71.9031 282.15 72.6758C284.465 75.7664 286.008 76.7965 289.352 78.0843L289.867 78.3418C287.295 77.8267 280.864 74.9937 279.32 77.0541C278.292 78.8569 280.092 82.7202 279.835 86.3258C279.578 92.7645 287.809 88.3862 290.381 86.0683C291.153 85.5532 292.697 83.7504 293.211 82.9777C292.182 85.5532 289.352 87.8711 288.324 90.9617C287.295 94.5674 292.954 93.7947 296.555 94.8249C298.613 95.5976 299.899 96.3702 300.928 94.8249C301.957 93.7947 301.7 91.2193 301.7 89.9315C301.442 85.8107 299.899 84.523 298.87 82.2051C300.156 83.2353 301.957 86.5834 304.529 88.6438C307.359 90.9617 308.645 85.5532 310.446 82.7202C311.474 80.9173 315.333 78.0843 308.645 76.0239C304.786 74.7362 302.471 75.2513 299.127 76.0239Z" fill="url(#paint50_radial_1131_1106)"/>
<path fill-rule="evenodd" clip-rule="evenodd" d="M294.754 76.024C291.41 76.2815 291.668 81.6901 295.269 81.175C298.356 80.9174 298.356 75.7664 294.754 76.024Z" fill="#FDFDFD"/>
<path fill-rule="evenodd" clip-rule="evenodd" d="M647.754 78.0239C651.356 77.7664 651.356 82.9173 648.269 83.1749C644.668 83.69 644.41 78.2815 647.754 78.0239ZM652.127 78.0239C655.471 75.9635 664.732 75.4484 660.101 70.555C658.044 68.4946 657.272 68.4946 655.471 65.6616C654.957 65.1465 654.7 64.3738 653.928 64.1163C652.127 63.6012 650.841 64.8889 649.812 66.1767C646.983 69.7824 646.983 72.1003 646.725 76.2211C646.468 73.6456 646.725 68.2371 645.697 66.4342C644.41 63.8587 641.324 66.6918 639.523 67.2069C639.008 67.722 638.494 67.9795 637.722 68.2371C636.951 68.4946 636.179 68.7522 635.407 69.0097C634.636 69.2673 634.121 69.5248 633.607 70.2975C633.092 72.1003 634.378 73.9031 635.15 74.6758C637.465 77.7664 639.008 78.7965 642.352 80.0843L642.867 80.3418C640.295 79.8267 633.864 76.9937 632.32 79.0541C631.292 80.8569 633.092 84.7202 632.835 88.3258C632.578 94.7645 640.809 90.3862 643.381 88.0683C644.153 87.5532 645.697 85.7504 646.211 84.9777C645.182 87.5532 642.352 89.8711 641.324 92.9617C640.295 96.5674 645.954 95.7947 649.555 96.8249C651.613 97.5976 652.899 98.3702 653.928 96.8249C654.957 95.7947 654.7 93.2193 654.7 91.9315C654.442 87.8107 652.899 86.523 651.87 84.2051C653.156 85.2353 654.957 88.5834 657.529 90.6438C660.359 92.9617 661.645 87.5532 663.446 84.7202C664.474 82.9173 668.333 80.0843 661.645 78.0239C657.786 76.7362 655.471 77.2513 652.127 78.0239Z" fill="url(#paint51_radial_1131_1106)"/>
<path fill-rule="evenodd" clip-rule="evenodd" d="M647.754 78.024C644.41 78.2815 644.668 83.6901 648.269 83.175C651.356 82.9174 651.356 77.7664 647.754 78.024Z" fill="#FDFDFD"/>
<path fill-rule="evenodd" clip-rule="evenodd" d="M991.754 69.0239C995.356 68.7664 995.356 73.9173 992.269 74.1749C988.668 74.69 988.41 69.2815 991.754 69.0239ZM996.127 69.0239C999.471 66.9635 1008.73 66.4484 1004.1 61.555C1002.04 59.4946 1001.27 59.4946 999.471 56.6616C998.957 56.1465 998.7 55.3738 997.928 55.1163C996.127 54.6012 994.841 55.8889 993.812 57.1767C990.983 60.7824 990.983 63.1003 990.725 67.2211C990.468 64.6456 990.725 59.2371 989.697 57.4342C988.41 54.8587 985.324 57.6918 983.523 58.2069C983.008 58.722 982.494 58.9795 981.722 59.2371C980.951 59.4946 980.179 59.7522 979.407 60.0097C978.636 60.2673 978.121 60.5248 977.607 61.2975C977.092 63.1003 978.378 64.9031 979.15 65.6758C981.465 68.7664 983.008 69.7965 986.352 71.0843L986.867 71.3418C984.295 70.8267 977.864 67.9937 976.32 70.0541C975.292 71.8569 977.092 75.7202 976.835 79.3258C976.578 85.7645 984.809 81.3862 987.381 79.0683C988.153 78.5532 989.697 76.7504 990.211 75.9777C989.182 78.5532 986.352 80.8711 985.324 83.9617C984.295 87.5674 989.954 86.7947 993.555 87.8249C995.613 88.5976 996.899 89.3702 997.928 87.8249C998.957 86.7947 998.7 84.2193 998.7 82.9315C998.442 78.8107 996.899 77.523 995.87 75.2051C997.156 76.2353 998.957 79.5834 1001.53 81.6438C1004.36 83.9617 1005.64 78.5532 1007.45 75.7202C1008.47 73.9173 1012.33 71.0843 1005.64 69.0239C1001.79 67.7362 999.471 68.2513 996.127 69.0239Z" fill="url(#paint52_radial_1131_1106)"/>
<path fill-rule="evenodd" clip-rule="evenodd" d="M991.754 69.024C988.41 69.2815 988.668 74.6901 992.269 74.175C995.356 73.9174 995.356 68.7664 991.754 69.024Z" fill="#FDFDFD"/>
<path fill-rule="evenodd" clip-rule="evenodd" d="M359.754 59.0239C363.356 58.7664 363.356 63.9173 360.269 64.1749C356.668 64.69 356.41 59.2815 359.754 59.0239ZM364.127 59.0239C367.471 56.9635 376.732 56.4484 372.101 51.555C370.044 49.4946 369.272 49.4946 367.471 46.6616C366.957 46.1465 366.7 45.3738 365.928 45.1163C364.127 44.6012 362.841 45.8889 361.812 47.1767C358.983 50.7824 358.983 53.1003 358.725 57.2211C358.468 54.6456 358.725 49.2371 357.697 47.4342C356.41 44.8587 353.324 47.6918 351.523 48.2069C351.008 48.722 350.494 48.9795 349.722 49.2371C348.951 49.4946 348.179 49.7522 347.407 50.0097C346.636 50.2673 346.121 50.5248 345.607 51.2975C345.092 53.1003 346.378 54.9031 347.15 55.6758C349.465 58.7664 351.008 59.7965 354.352 61.0843L354.867 61.3418C352.295 60.8267 345.864 57.9937 344.32 60.0541C343.292 61.8569 345.092 65.7202 344.835 69.3258C344.578 75.7645 352.809 71.3862 355.381 69.0683C356.153 68.5532 357.697 66.7504 358.211 65.9777C357.182 68.5532 354.352 70.8711 353.324 73.9617C352.295 77.5674 357.954 76.7947 361.555 77.8249C363.613 78.5976 364.899 79.3702 365.928 77.8249C366.957 76.7947 366.7 74.2193 366.7 72.9315C366.442 68.8107 364.899 67.523 363.87 65.2051C365.156 66.2353 366.957 69.5834 369.529 71.6438C372.359 73.9617 373.645 68.5532 375.446 65.7202C376.474 63.9173 380.333 61.0843 373.645 59.0239C369.786 57.7362 367.471 58.2513 364.127 59.0239Z" fill="url(#paint53_radial_1131_1106)"/>
<path fill-rule="evenodd" clip-rule="evenodd" d="M359.754 59.024C356.41 59.2815 356.668 64.6901 360.269 64.175C363.356 63.9174 363.356 58.7664 359.754 59.024Z" fill="#FDFDFD"/>
<path fill-rule="evenodd" clip-rule="evenodd" d="M712.754 61.0239C716.356 60.7664 716.356 65.9173 713.269 66.1749C709.668 66.69 709.41 61.2815 712.754 61.0239ZM717.127 61.0239C720.471 58.9635 729.732 58.4484 725.101 53.555C723.044 51.4946 722.272 51.4946 720.471 48.6616C719.957 48.1465 719.7 47.3738 718.928 47.1163C717.127 46.6012 715.841 47.8889 714.812 49.1767C711.983 52.7824 711.983 55.1003 711.725 59.2211C711.468 56.6456 711.725 51.2371 710.697 49.4342C709.41 46.8587 706.324 49.6918 704.523 50.2069C704.008 50.722 703.494 50.9795 702.722 51.2371C701.951 51.4946 701.179 51.7522 700.407 52.0097C699.636 52.2673 699.121 52.5248 698.607 53.2975C698.092 55.1003 699.378 56.9031 700.15 57.6758C702.465 60.7664 704.008 61.7965 707.352 63.0843L707.867 63.3418C705.295 62.8267 698.864 59.9937 697.32 62.0541C696.292 63.8569 698.092 67.7202 697.835 71.3258C697.578 77.7645 705.809 73.3862 708.381 71.0683C709.153 70.5532 710.697 68.7504 711.211 67.9777C710.182 70.5532 707.352 72.8711 706.324 75.9617C705.295 79.5674 710.954 78.7947 714.555 79.8249C716.613 80.5976 717.899 81.3702 718.928 79.8249C719.957 78.7947 719.7 76.2193 719.7 74.9315C719.442 70.8107 717.899 69.523 716.87 67.2051C718.156 68.2353 719.957 71.5834 722.529 73.6438C725.359 75.9617 726.645 70.5532 728.446 67.7202C729.474 65.9173 733.333 63.0843 726.645 61.0239C722.786 59.7362 720.471 60.2513 717.127 61.0239Z" fill="url(#paint54_radial_1131_1106)"/>
<path fill-rule="evenodd" clip-rule="evenodd" d="M712.754 61.024C709.41 61.2815 709.668 66.6901 713.269 66.175C716.356 65.9174 716.356 60.7664 712.754 61.024Z" fill="#FDFDFD"/>
<path fill-rule="evenodd" clip-rule="evenodd" d="M1056.75 52.0239C1060.36 51.7664 1060.36 56.9173 1057.27 57.1749C1053.67 57.69 1053.41 52.2815 1056.75 52.0239ZM1061.13 52.0239C1064.47 49.9635 1073.73 49.4484 1069.1 44.555C1067.04 42.4946 1066.27 42.4946 1064.47 39.6616C1063.96 39.1465 1063.7 38.3738 1062.93 38.1163C1061.13 37.6012 1059.84 38.8889 1058.81 40.1767C1055.98 43.7824 1055.98 46.1003 1055.73 50.2211C1055.47 47.6456 1055.73 42.2371 1054.7 40.4342C1053.41 37.8587 1050.32 40.6918 1048.52 41.2069C1048.01 41.722 1047.49 41.9795 1046.72 42.2371C1045.95 42.4946 1045.18 42.7522 1044.41 43.0097C1043.64 43.2673 1043.12 43.5248 1042.61 44.2975C1042.09 46.1003 1043.38 47.9031 1044.15 48.6758C1046.47 51.7664 1048.01 52.7965 1051.35 54.0843L1051.87 54.3418C1049.29 53.8267 1042.86 50.9937 1041.32 53.0541C1040.29 54.8569 1042.09 58.7202 1041.83 62.3258C1041.58 68.7645 1049.81 64.3862 1052.38 62.0683C1053.15 61.5532 1054.7 59.7504 1055.21 58.9777C1054.18 61.5532 1051.35 63.8711 1050.32 66.9617C1049.29 70.5674 1054.95 69.7947 1058.55 70.8249C1060.61 71.5976 1061.9 72.3702 1062.93 70.8249C1063.96 69.7947 1063.7 67.2193 1063.7 65.9315C1063.44 61.8107 1061.9 60.523 1060.87 58.2051C1062.16 59.2353 1063.96 62.5834 1066.53 64.6438C1069.36 66.9617 1070.64 61.5532 1072.45 58.7202C1073.47 56.9173 1077.33 54.0843 1070.64 52.0239C1066.79 50.7362 1064.47 51.2513 1061.13 52.0239Z" fill="url(#paint55_radial_1131_1106)"/>
<path fill-rule="evenodd" clip-rule="evenodd" d="M1056.75 52.024C1053.41 52.2815 1053.67 57.6901 1057.27 57.175C1060.36 56.9174 1060.36 51.7664 1056.75 52.024Z" fill="#FDFDFD"/>
<defs>
<linearGradient id="paint0_linear_1131_1106" x1="1443.19" y1="46.801" x2="1424.01" y2="78.7064" gradientUnits="userSpaceOnUse">
<stop stop-color="#0D624B"/>
<stop offset="0.588235" stop-color="#188766"/>
<stop offset="1" stop-color="#23AC82"/>
</linearGradient>
<linearGradient id="paint1_linear_1131_1106" x1="1529.43" y1="75.0709" x2="1493.03" y2="67.2587" gradientUnits="userSpaceOnUse">
<stop stop-color="#0D624B"/>
<stop offset="0.588235" stop-color="#188766"/>
<stop offset="1" stop-color="#23AC82"/>
</linearGradient>
<linearGradient id="paint2_linear_1131_1106" x1="1621.71" y1="83.9814" x2="1591.53" y2="62.1889" gradientUnits="userSpaceOnUse">
<stop stop-color="#0D624B"/>
<stop offset="0.588235" stop-color="#188766"/>
<stop offset="1" stop-color="#23AC82"/>
</linearGradient>
<linearGradient id="paint3_linear_1131_1106" x1="1855.71" y1="83.9814" x2="1825.53" y2="62.1889" gradientUnits="userSpaceOnUse">
<stop stop-color="#0D624B"/>
<stop offset="0.588235" stop-color="#188766"/>
<stop offset="1" stop-color="#23AC82"/>
</linearGradient>
<linearGradient id="paint4_linear_1131_1106" x1="1563.03" y1="38.4475" x2="1537.43" y2="65.4711" gradientUnits="userSpaceOnUse">
<stop stop-color="#0D624B"/>
<stop offset="0.588235" stop-color="#188766"/>
<stop offset="1" stop-color="#23AC82"/>
</linearGradient>
<linearGradient id="paint5_linear_1131_1106" x1="1779.03" y1="49.4475" x2="1753.43" y2="76.4711" gradientUnits="userSpaceOnUse">
<stop stop-color="#0D624B"/>
<stop offset="0.588235" stop-color="#188766"/>
<stop offset="1" stop-color="#23AC82"/>
</linearGradient>
<linearGradient id="paint6_linear_1131_1106" x1="1719.71" y1="45.0381" x2="1689.53" y2="66.8307" gradientUnits="userSpaceOnUse">
<stop stop-color="#0D624B"/>
<stop offset="0.588235" stop-color="#188766"/>
<stop offset="1" stop-color="#23AC82"/>
</linearGradient>
<linearGradient id="paint7_linear_1131_1106" x1="1676.03" y1="93.572" x2="1650.43" y2="66.5485" gradientUnits="userSpaceOnUse">
<stop stop-color="#0D624B"/>
<stop offset="0.588235" stop-color="#188766"/>
<stop offset="1" stop-color="#23AC82"/>
</linearGradient>
<linearGradient id="paint8_linear_1131_1106" x1="1913.76" y1="60.4664" x2="1876.7" y2="64.0284" gradientUnits="userSpaceOnUse">
<stop stop-color="#0D624B"/>
<stop offset="0.588235" stop-color="#188766"/>
<stop offset="1" stop-color="#23AC82"/>
</linearGradient>
<linearGradient id="paint9_linear_1131_1106" x1="1951.03" y1="72.2634" x2="1925.43" y2="45.2399" gradientUnits="userSpaceOnUse">
<stop stop-color="#0D624B"/>
<stop offset="0.588235" stop-color="#188766"/>
<stop offset="1" stop-color="#23AC82"/>
</linearGradient>
<radialGradient id="paint10_radial_1131_1106" cx="0" cy="0" r="1" gradientUnits="userSpaceOnUse" gradientTransform="translate(1486.41 65.7148) rotate(13.8441) scale(16.7835 16.6761)">
<stop stop-color="#FFD4F9"/>
<stop offset="0.301961" stop-color="#FFEAFC"/>
<stop offset="1" stop-color="white"/>
</radialGradient>
<radialGradient id="paint11_radial_1131_1106" cx="0" cy="0" r="1" gradientUnits="userSpaceOnUse" gradientTransform="translate(1585.41 51.7148) rotate(13.8441) scale(16.7835 16.6761)">
<stop stop-color="#FFD4F9"/>
<stop offset="0.301961" stop-color="#FFEAFC"/>
<stop offset="1" stop-color="white"/>
</radialGradient>
<radialGradient id="paint12_radial_1131_1106" cx="0" cy="0" r="1" gradientUnits="userSpaceOnUse" gradientTransform="translate(1801.41 62.7148) rotate(13.8441) scale(16.7835 16.6761)">
<stop stop-color="#FFD4F9"/>
<stop offset="0.301961" stop-color="#FFEAFC"/>
<stop offset="1" stop-color="white"/>
</radialGradient>
<radialGradient id="paint13_radial_1131_1106" cx="0" cy="0" r="1" gradientUnits="userSpaceOnUse" gradientTransform="translate(1859.41 93.7148) rotate(13.8441) scale(16.7835 16.6761)">
<stop stop-color="#FFD4F9"/>
<stop offset="0.301961" stop-color="#FFEAFC"/>
<stop offset="1" stop-color="white"/>
</radialGradient>
<radialGradient id="paint14_radial_1131_1106" cx="0" cy="0" r="1" gradientUnits="userSpaceOnUse" gradientTransform="translate(1937.41 48.7148) rotate(13.8441) scale(16.7835 16.6761)">
<stop stop-color="#FFD4F9"/>
<stop offset="0.301961" stop-color="#FFEAFC"/>
<stop offset="1" stop-color="white"/>
</radialGradient>
<radialGradient id="paint15_radial_1131_1106" cx="0" cy="0" r="1" gradientUnits="userSpaceOnUse" gradientTransform="translate(1690.41 82.7148) rotate(13.8441) scale(16.7835 16.6761)">
<stop stop-color="#FFD4F9"/>
<stop offset="0.301961" stop-color="#FFEAFC"/>
<stop offset="1" stop-color="white"/>
</radialGradient>
<radialGradient id="paint16_radial_1131_1106" cx="0" cy="0" r="1" gradientUnits="userSpaceOnUse" gradientTransform="translate(1755.41 65.7148) rotate(13.8441) scale(16.7835 16.6761)">
<stop stop-color="#FFD4F9"/>
<stop offset="0.301961" stop-color="#FFEAFC"/>
<stop offset="1" stop-color="white"/>
</radialGradient>
<linearGradient id="paint17_linear_1131_1106" x1="43.1886" y1="54.801" x2="24.0059" y2="86.7064" gradientUnits="userSpaceOnUse">
<stop stop-color="#0D624B"/>
<stop offset="0.588235" stop-color="#188766"/>
<stop offset="1" stop-color="#23AC82"/>
</linearGradient>
<linearGradient id="paint18_linear_1131_1106" x1="396.189" y1="56.801" x2="377.006" y2="88.7064" gradientUnits="userSpaceOnUse">
<stop stop-color="#0D624B"/>
<stop offset="0.588235" stop-color="#188766"/>
<stop offset="1" stop-color="#23AC82"/>
</linearGradient>
<linearGradient id="paint19_linear_1131_1106" x1="740.189" y1="47.801" x2="721.006" y2="79.7064" gradientUnits="userSpaceOnUse">
<stop stop-color="#0D624B"/>
<stop offset="0.588235" stop-color="#188766"/>
<stop offset="1" stop-color="#23AC82"/>
</linearGradient>
<linearGradient id="paint20_linear_1131_1106" x1="1093.19" y1="53.801" x2="1074.01" y2="85.7064" gradientUnits="userSpaceOnUse">
<stop stop-color="#0D624B"/>
<stop offset="0.588235" stop-color="#188766"/>
<stop offset="1" stop-color="#23AC82"/>
</linearGradient>
<linearGradient id="paint21_linear_1131_1106" x1="134.425" y1="70.0709" x2="98.0262" y2="62.2587" gradientUnits="userSpaceOnUse">
<stop stop-color="#0D624B"/>
<stop offset="0.588235" stop-color="#188766"/>
<stop offset="1" stop-color="#23AC82"/>
</linearGradient>
<linearGradient id="paint22_linear_1131_1106" x1="487.425" y1="72.0709" x2="451.026" y2="64.2587" gradientUnits="userSpaceOnUse">
<stop stop-color="#0D624B"/>
<stop offset="0.588235" stop-color="#188766"/>
<stop offset="1" stop-color="#23AC82"/>
</linearGradient>
<linearGradient id="paint23_linear_1131_1106" x1="1176.43" y1="68.0709" x2="1140.03" y2="60.2587" gradientUnits="userSpaceOnUse">
<stop stop-color="#0D624B"/>
<stop offset="0.588235" stop-color="#188766"/>
<stop offset="1" stop-color="#23AC82"/>
</linearGradient>
<linearGradient id="paint24_linear_1131_1106" x1="821" y1="72.6332" x2="786.224" y2="59.3455" gradientUnits="userSpaceOnUse">
<stop stop-color="#0D624B"/>
<stop offset="0.588235" stop-color="#188766"/>
<stop offset="1" stop-color="#23AC82"/>
</linearGradient>
<linearGradient id="paint25_linear_1131_1106" x1="226.711" y1="78.9814" x2="196.528" y2="57.1889" gradientUnits="userSpaceOnUse">
<stop stop-color="#0D624B"/>
<stop offset="0.588235" stop-color="#188766"/>
<stop offset="1" stop-color="#23AC82"/>
</linearGradient>
<linearGradient id="paint26_linear_1131_1106" x1="1276.71" y1="77.9814" x2="1246.53" y2="56.1889" gradientUnits="userSpaceOnUse">
<stop stop-color="#0D624B"/>
<stop offset="0.588235" stop-color="#188766"/>
<stop offset="1" stop-color="#23AC82"/>
</linearGradient>
<linearGradient id="paint27_linear_1131_1106" x1="579.711" y1="80.9814" x2="549.528" y2="59.1889" gradientUnits="userSpaceOnUse">
<stop stop-color="#0D624B"/>
<stop offset="0.588235" stop-color="#188766"/>
<stop offset="1" stop-color="#23AC82"/>
</linearGradient>
<linearGradient id="paint28_linear_1131_1106" x1="923.711" y1="71.9814" x2="893.528" y2="50.1889" gradientUnits="userSpaceOnUse">
<stop stop-color="#0D624B"/>
<stop offset="0.588235" stop-color="#188766"/>
<stop offset="1" stop-color="#23AC82"/>
</linearGradient>
<linearGradient id="paint29_linear_1131_1106" x1="1224.03" y1="35.4475" x2="1198.43" y2="62.4711" gradientUnits="userSpaceOnUse">
<stop stop-color="#0D624B"/>
<stop offset="0.588235" stop-color="#188766"/>
<stop offset="1" stop-color="#23AC82"/>
</linearGradient>
<linearGradient id="paint30_linear_1131_1106" x1="183.034" y1="30.4475" x2="157.428" y2="57.4711" gradientUnits="userSpaceOnUse">
<stop stop-color="#0D624B"/>
<stop offset="0.588235" stop-color="#188766"/>
<stop offset="1" stop-color="#23AC82"/>
</linearGradient>
<linearGradient id="paint31_linear_1131_1106" x1="536.034" y1="32.4475" x2="510.428" y2="59.4711" gradientUnits="userSpaceOnUse">
<stop stop-color="#0D624B"/>
<stop offset="0.588235" stop-color="#188766"/>
<stop offset="1" stop-color="#23AC82"/>
</linearGradient>
<linearGradient id="paint32_linear_1131_1106" x1="880.034" y1="23.4475" x2="854.428" y2="50.4711" gradientUnits="userSpaceOnUse">
<stop stop-color="#0D624B"/>
<stop offset="0.588235" stop-color="#188766"/>
<stop offset="1" stop-color="#23AC82"/>
</linearGradient>
<linearGradient id="paint33_linear_1131_1106" x1="1374.71" y1="39.0381" x2="1344.53" y2="60.8307" gradientUnits="userSpaceOnUse">
<stop stop-color="#0D624B"/>
<stop offset="0.588235" stop-color="#188766"/>
<stop offset="1" stop-color="#23AC82"/>
</linearGradient>
<linearGradient id="paint34_linear_1131_1106" x1="324.711" y1="40.0381" x2="294.528" y2="61.8307" gradientUnits="userSpaceOnUse">
<stop stop-color="#0D624B"/>
<stop offset="0.588235" stop-color="#188766"/>
<stop offset="1" stop-color="#23AC82"/>
</linearGradient>
<linearGradient id="paint35_linear_1131_1106" x1="677.711" y1="42.0381" x2="647.528" y2="63.8307" gradientUnits="userSpaceOnUse">
<stop stop-color="#0D624B"/>
<stop offset="0.588235" stop-color="#188766"/>
<stop offset="1" stop-color="#23AC82"/>
</linearGradient>
<linearGradient id="paint36_linear_1131_1106" x1="1331.03" y1="87.572" x2="1305.43" y2="60.5485" gradientUnits="userSpaceOnUse">
<stop stop-color="#0D624B"/>
<stop offset="0.588235" stop-color="#188766"/>
<stop offset="1" stop-color="#23AC82"/>
</linearGradient>
<linearGradient id="paint37_linear_1131_1106" x1="1021.71" y1="33.0381" x2="991.528" y2="54.8307" gradientUnits="userSpaceOnUse">
<stop stop-color="#0D624B"/>
<stop offset="0.588235" stop-color="#188766"/>
<stop offset="1" stop-color="#23AC82"/>
</linearGradient>
<linearGradient id="paint38_linear_1131_1106" x1="281.034" y1="88.572" x2="255.428" y2="61.5485" gradientUnits="userSpaceOnUse">
<stop stop-color="#0D624B"/>
<stop offset="0.588235" stop-color="#188766"/>
<stop offset="1" stop-color="#23AC82"/>
</linearGradient>
<radialGradient id="paint39_radial_1131_1106" cx="0" cy="0" r="1" gradientUnits="userSpaceOnUse" gradientTransform="translate(1410.41 59.7148) rotate(13.8441) scale(16.7835 16.6761)">
<stop stop-color="#FFD4F9"/>
<stop offset="0.301961" stop-color="#FFEAFC"/>
<stop offset="1" stop-color="white"/>
</radialGradient>
<linearGradient id="paint40_linear_1131_1106" x1="634.034" y1="90.572" x2="608.428" y2="63.5485" gradientUnits="userSpaceOnUse">
<stop stop-color="#0D624B"/>
<stop offset="0.588235" stop-color="#188766"/>
<stop offset="1" stop-color="#23AC82"/>
</linearGradient>
<linearGradient id="paint41_linear_1131_1106" x1="978.034" y1="81.572" x2="952.428" y2="54.5485" gradientUnits="userSpaceOnUse">
<stop stop-color="#0D624B"/>
<stop offset="0.588235" stop-color="#188766"/>
<stop offset="1" stop-color="#23AC82"/>
</linearGradient>
<radialGradient id="paint42_radial_1131_1106" cx="0" cy="0" r="1" gradientUnits="userSpaceOnUse" gradientTransform="translate(1256.41 46.7148) rotate(13.8441) scale(16.7835 16.6761)">
<stop stop-color="#FFD4F9"/>
<stop offset="0.301961" stop-color="#FFEAFC"/>
<stop offset="1" stop-color="white"/>
</radialGradient>
<radialGradient id="paint43_radial_1131_1106" cx="0" cy="0" r="1" gradientUnits="userSpaceOnUse" gradientTransform="translate(91.4086 60.7148) rotate(13.8441) scale(16.7835 16.6761)">
<stop stop-color="#FFD4F9"/>
<stop offset="0.301961" stop-color="#FFEAFC"/>
<stop offset="1" stop-color="white"/>
</radialGradient>
<radialGradient id="paint44_radial_1131_1106" cx="0" cy="0" r="1" gradientUnits="userSpaceOnUse" gradientTransform="translate(444.409 62.7148) rotate(13.8441) scale(16.7835 16.6761)">
<stop stop-color="#FFD4F9"/>
<stop offset="0.301961" stop-color="#FFEAFC"/>
<stop offset="1" stop-color="white"/>
</radialGradient>
<radialGradient id="paint45_radial_1131_1106" cx="0" cy="0" r="1" gradientUnits="userSpaceOnUse" gradientTransform="translate(788.409 53.7148) rotate(13.8441) scale(16.7835 16.6761)">
<stop stop-color="#FFD4F9"/>
<stop offset="0.301961" stop-color="#FFEAFC"/>
<stop offset="1" stop-color="white"/>
</radialGradient>
<radialGradient id="paint46_radial_1131_1106" cx="0" cy="0" r="1" gradientUnits="userSpaceOnUse" gradientTransform="translate(1345.41 76.7148) rotate(13.8441) scale(16.7835 16.6761)">
<stop stop-color="#FFD4F9"/>
<stop offset="0.301961" stop-color="#FFEAFC"/>
<stop offset="1" stop-color="white"/>
</radialGradient>
<radialGradient id="paint47_radial_1131_1106" cx="0" cy="0" r="1" gradientUnits="userSpaceOnUse" gradientTransform="translate(206.409 47.7148) rotate(13.8441) scale(16.7835 16.6761)">
<stop stop-color="#FFD4F9"/>
<stop offset="0.301961" stop-color="#FFEAFC"/>
<stop offset="1" stop-color="white"/>
</radialGradient>
<radialGradient id="paint48_radial_1131_1106" cx="0" cy="0" r="1" gradientUnits="userSpaceOnUse" gradientTransform="translate(559.409 49.7148) rotate(13.8441) scale(16.7835 16.6761)">
<stop stop-color="#FFD4F9"/>
<stop offset="0.301961" stop-color="#FFEAFC"/>
<stop offset="1" stop-color="white"/>
</radialGradient>
<radialGradient id="paint49_radial_1131_1106" cx="0" cy="0" r="1" gradientUnits="userSpaceOnUse" gradientTransform="translate(872.409 59.7148) rotate(13.8441) scale(16.7835 16.6761)">
<stop stop-color="#FFD4F9"/>
<stop offset="0.301961" stop-color="#FFEAFC"/>
<stop offset="1" stop-color="white"/>
</radialGradient>
<radialGradient id="paint50_radial_1131_1106" cx="0" cy="0" r="1" gradientUnits="userSpaceOnUse" gradientTransform="translate(295.409 77.7148) rotate(13.8441) scale(16.7835 16.6761)">
<stop stop-color="#FFD4F9"/>
<stop offset="0.301961" stop-color="#FFEAFC"/>
<stop offset="1" stop-color="white"/>
</radialGradient>
<radialGradient id="paint51_radial_1131_1106" cx="0" cy="0" r="1" gradientUnits="userSpaceOnUse" gradientTransform="translate(648.409 79.7148) rotate(13.8441) scale(16.7835 16.6761)">
<stop stop-color="#FFD4F9"/>
<stop offset="0.301961" stop-color="#FFEAFC"/>
<stop offset="1" stop-color="white"/>
</radialGradient>
<radialGradient id="paint52_radial_1131_1106" cx="0" cy="0" r="1" gradientUnits="userSpaceOnUse" gradientTransform="translate(992.409 70.7148) rotate(13.8441) scale(16.7835 16.6761)">
<stop stop-color="#FFD4F9"/>
<stop offset="0.301961" stop-color="#FFEAFC"/>
<stop offset="1" stop-color="white"/>
</radialGradient>
<radialGradient id="paint53_radial_1131_1106" cx="0" cy="0" r="1" gradientUnits="userSpaceOnUse" gradientTransform="translate(360.409 60.7148) rotate(13.8441) scale(16.7835 16.6761)">
<stop stop-color="#FFD4F9"/>
<stop offset="0.301961" stop-color="#FFEAFC"/>
<stop offset="1" stop-color="white"/>
</radialGradient>
<radialGradient id="paint54_radial_1131_1106" cx="0" cy="0" r="1" gradientUnits="userSpaceOnUse" gradientTransform="translate(713.409 62.7148) rotate(13.8441) scale(16.7835 16.6761)">
<stop stop-color="#FFD4F9"/>
<stop offset="0.301961" stop-color="#FFEAFC"/>
<stop offset="1" stop-color="white"/>
</radialGradient>
<radialGradient id="paint55_radial_1131_1106" cx="0" cy="0" r="1" gradientUnits="userSpaceOnUse" gradientTransform="translate(1057.41 53.7148) rotate(13.8441) scale(16.7835 16.6761)">
<stop stop-color="#FFD4F9"/>
<stop offset="0.301961" stop-color="#FFEAFC"/>
<stop offset="1" stop-color="white"/>
</radialGradient>
</defs>
</svg>
