<svg width="1254" height="226" viewBox="0 0 1254 226" fill="none" xmlns="http://www.w3.org/2000/svg">
    <g clip-path="url(#clip0_2_2236)">
        <path
            d="M28.4936 221.483C17.1725 219.211 11.5987 212.005 3.25971 202.78C2.05325 201.366 -5.13217 192.503 -5.41744 191.789C-6.70757 190.919 -11.1416 192.814 -13.194 193.412C-18.3039 194.894 -35.7099 200.314 -38.5784 198.34C-38.7144 197.802 -38.9357 197.243 -38.8336 196.501C-38.6427 195.17 -38.4207 195.259 -37.7764 195.137C-37.6297 195.011 -24.5969 192.561 -23.2796 192.238C-17.4694 190.765 -11.8417 189.864 -6.09085 187.674L-4.34716 180.857L-2.1795 172.548C-0.541717 167.32 0.588669 161.835 2.38642 156.769C7.98188 140.951 12.3095 137.422 23.7425 128.796C25.034 128.074 26.6332 127.125 27.9244 126.638C36.0202 123.86 42.1209 121.963 50.6026 121.295C52.5713 121.136 54.2734 121.028 56.3195 120.974C57.0288 120.95 57.8264 121.119 58.6279 121.197C69.6469 122.22 80.1208 126.353 90.5214 131.252C93.5385 132.676 96.5185 134.29 99.5192 135.697L103.874 138.128C107.487 140.312 110.823 143.003 114.613 144.557C117.289 145.656 119.474 144.801 121.59 145.817C120.507 148.289 117.856 149.257 116.244 151.398C114.566 153.629 113.618 155.733 112.205 158.517C105.581 171.612 94.6542 187.259 86.2533 197.617C79.6622 205.752 73.2378 211.423 66.0363 215.209C62.2276 217.209 58.2908 218.798 54.5345 220.031C45.5341 222.983 37.788 223.348 28.4936 221.483Z"
            stroke="url(#paint0_linear_2_2236)" stroke-miterlimit="22.9256"/>
        <path
            d="M120.848 146.326C109.104 151.002 97.3432 155.586 85.5514 160.05C89.8267 165.845 94.0219 170.479 100.768 172.203C91.4441 170.889 89.5295 165.098 84.416 160.48C75.8303 163.718 67.2249 166.9 58.6024 169.988C64.328 180.924 70.1299 189.966 80.6686 195.186C66.0357 189.744 64.1153 179.813 56.8821 170.606C48.9778 173.429 42.1201 175.761 34.179 178.435C40.6859 183.775 47.1713 202.695 63.1766 213.957C44.9973 203.093 42.2028 191.531 32.7382 178.981C24.9613 181.593 17.1691 184.131 9.3537 186.574C16.6831 200.55 24.1177 212.107 37.6018 218.783C18.8436 211.804 16.3582 199.073 7.10484 187.275C-7.51987 191.818 -22.2222 196.05 -37.0091 199.893C-39.0715 200.034 -39.9024 196.71 -37.2334 195.261C-21.4292 191.581 -5.8338 187.555 9.57103 183.22C13.6134 167.376 11.7808 154.622 25.9464 137.236C16.283 151.252 13.5161 165.915 11.6946 182.619C17.6091 180.942 23.4993 179.225 29.3674 177.46C35.0044 161.983 35.1989 149.948 49.5489 132.218C39.4259 146.426 35.0665 160.713 31.2058 176.9C40.4058 174.12 49.5344 171.239 58.6167 168.27C62.0405 155.547 60.3109 145.482 71.5874 131.635C63.9354 142.733 61.8317 154.343 60.415 167.624L60.0435 167.802C69.2314 164.781 78.3666 161.668 87.451 158.483C88.8537 150.482 87.3614 144.481 93.5255 135.065C89.3934 142.554 88.6837 149.863 88.4848 158.117C99.3442 154.293 110.128 150.358 120.848 146.326Z"
            fill="url(#paint1_linear_2_2236)"/>
    </g>
    <g clip-path="url(#clip1_2_2236)">
        <path
            d="M166.598 249.04C156.674 254.747 148.963 253.995 138.149 253.781C136.548 253.703 126.805 252.984 126.25 252.744C124.836 253.036 122.241 256.9 120.911 258.526C117.596 262.569 106.474 276.557 103.311 277.184C102.955 276.954 102.522 276.765 102.257 276.267C101.789 275.37 102.004 275.284 102.453 274.812C102.509 274.647 111.583 265.115 112.465 264.107C116.333 259.635 120.324 255.61 123.813 250.755L122.016 245.683L119.858 239.475C118.715 235.399 117.055 231.488 116.113 227.407C113.156 214.676 114.908 209.921 119.863 197.77C120.539 196.545 121.352 194.996 122.137 193.909C127.191 187.252 131.09 182.351 137.425 176.689C138.894 175.373 140.177 174.252 141.754 172.948C142.299 172.493 143.003 172.097 143.667 171.644C152.774 165.395 162.898 161.303 173.319 157.706C176.344 156.664 179.427 155.756 182.431 154.714L186.971 153.43C190.815 152.462 194.677 151.963 198.368 150.517C200.975 149.497 202.29 147.639 204.419 146.918C204.718 149.038 203.09 151.251 202.82 153.505C202.541 155.854 202.775 157.674 202.959 160.18C203.847 171.958 202.548 187.902 200.773 199.183C199.385 208.038 196.983 215.348 193.098 222.038C191.042 225.575 188.696 228.951 186.325 232.007C180.644 239.328 174.745 244.355 166.598 249.04Z"
            stroke="url(#paint2_linear_2_2236)" stroke-miterlimit="22.9256"/>
        <path
            d="M204.073 147.677C197.043 157.711 189.956 167.701 182.79 177.642C188.828 178.375 194.266 178.478 200.35 175.294C192.436 180.32 188.249 178.122 182.1 178.599C176.876 185.829 171.611 193.038 166.289 200.203C175.85 203.043 184.591 204.726 195.27 201.231C181.28 207.141 175.167 202.525 165.228 201.634C160.345 208.198 156.055 213.824 151.074 220.323C158.65 219.403 172.511 226.441 190.277 223.082C170.993 228.025 163.438 222.998 150.199 221.538C145.318 227.899 140.392 234.227 135.402 240.513C147.63 244.134 158.818 246.274 172.48 241.8C154.545 249.375 146.69 243.471 133.966 242.32C124.617 254.067 115.062 265.68 105.261 277.118C103.711 278.482 101.517 277.053 102.935 274.547C113.609 262.572 123.959 250.525 134.016 238.416C129.83 226.634 122.476 220.312 125.506 201.338C124.439 215.543 129.076 225.84 135.401 236.744C139.256 232.088 143.074 227.423 146.853 222.743C144.086 210.186 138.653 203.024 141.668 183.734C140.331 198.337 143.545 209.404 148.033 221.273C153.95 213.929 159.765 206.57 165.503 199.189C162.281 189.618 156.255 184.805 158.663 169.696C157.819 180.944 161.558 189.044 166.612 197.694L166.403 198.029C172.199 190.551 177.912 183.053 183.551 175.544C180.937 169.992 176.983 167.409 177.442 158.069C177.68 165.018 180.516 169.735 184.191 174.687C190.924 165.702 197.547 156.698 204.073 147.677Z"
            fill="url(#paint3_linear_2_2236)"/>
    </g>
    <g clip-path="url(#clip2_2_2236)">
        <path
            d="M648.036 255.552C639.712 263.409 632.037 264.471 621.47 266.778C619.895 267.075 610.252 268.641 609.657 268.536C608.349 269.15 606.724 273.511 605.808 275.402C603.524 280.104 595.96 296.295 593.029 297.641C592.63 297.501 592.164 297.417 591.792 296.994C591.128 296.231 591.317 296.097 591.644 295.534C591.66 295.36 598.268 283.979 598.891 282.794C601.614 277.544 604.559 272.702 606.824 267.169L603.896 262.654L600.354 257.118C598.294 253.419 595.77 250.001 593.904 246.251C588.068 234.557 588.667 229.525 590.66 216.555C591.033 215.207 591.463 213.511 591.974 212.271C595.341 204.622 597.993 198.948 602.838 191.968C603.96 190.346 604.948 188.958 606.179 187.323C606.603 186.754 607.195 186.205 607.736 185.61C615.14 177.414 624.035 171.081 633.334 165.158C636.033 163.441 638.821 161.841 641.5 160.129L645.617 157.824C649.131 155.989 652.771 154.606 656.024 152.341C658.322 150.743 659.169 148.63 661.072 147.434C661.856 149.426 660.787 151.958 661.05 154.212C661.324 156.561 661.974 158.277 662.737 160.672C666.339 171.92 668.783 187.729 669.681 199.113C670.389 208.048 669.754 215.717 667.531 223.127C666.354 227.045 664.857 230.874 663.262 234.398C659.439 242.839 654.87 249.1 648.036 255.552Z"
            stroke="url(#paint4_linear_2_2236)" stroke-miterlimit="22.9256"/>
        <path
            d="M660.912 148.252C656.408 159.646 651.839 171.01 647.181 182.344C653.224 181.653 658.537 180.49 663.714 175.978C657.185 182.706 652.602 181.542 646.732 183.436C643.333 191.682 639.889 199.918 636.379 208.125C646.338 208.663 655.231 208.268 664.804 202.385C652.573 211.386 645.554 208.318 635.679 209.763C632.457 217.282 629.593 223.752 626.26 231.231C633.414 228.575 648.532 232.196 665.029 224.799C647.423 234.09 638.907 230.958 625.691 232.616C622.424 239.938 619.104 247.238 615.713 254.512C628.448 255.19 639.827 254.67 652.073 247.141C636.392 258.679 627.379 254.765 614.736 256.604C608.375 270.203 601.783 283.719 594.91 297.123C593.72 298.81 591.254 297.931 592.051 295.163C599.648 281.035 606.912 266.911 613.877 252.795C607.066 242.31 598.443 237.871 596.978 218.712C599.244 232.776 606.148 241.713 614.835 250.847C617.502 245.421 620.131 239.997 622.717 234.567C617.106 222.997 610.157 217.295 608.603 197.832C610.698 212.346 616.399 222.362 623.523 232.862C627.57 224.344 631.515 215.835 635.378 207.321C630.019 198.762 623.039 195.482 621.868 180.228C623.662 191.364 629.183 198.371 636.109 205.609L635.985 205.983C639.883 197.363 643.695 188.742 647.433 180.127C643.6 175.335 639.153 173.742 637.428 164.552C639.276 171.255 643.131 175.183 647.856 179.145C652.315 168.84 656.663 158.543 660.912 148.252Z"
            fill="url(#paint5_linear_2_2236)"/>
    </g>
    <g clip-path="url(#clip3_2_2236)">
        <path
            d="M264.227 232.537C274.151 238.244 281.861 237.492 292.675 237.278C294.277 237.2 304.019 236.481 304.574 236.241C305.988 236.533 308.583 240.397 309.913 242.023C313.229 246.066 324.35 260.054 327.514 260.681C327.869 260.452 328.303 260.262 328.567 259.764C329.035 258.867 328.82 258.781 328.371 258.31C328.315 258.144 319.242 248.612 318.359 247.604C314.491 243.132 310.5 239.107 307.011 234.252L308.809 229.18L310.966 222.972C312.109 218.896 313.769 214.985 314.712 210.904C317.668 198.173 315.916 193.418 310.962 181.267C310.285 180.042 309.473 178.493 308.687 177.406C303.633 170.749 299.734 165.848 293.4 160.186C291.931 158.87 290.647 157.749 289.07 156.445C288.525 155.99 287.821 155.594 287.158 155.141C278.05 148.892 267.927 144.8 257.505 141.203C254.48 140.161 251.397 139.253 248.393 138.211L243.853 136.927C240.009 135.959 236.147 135.46 232.456 134.014C229.849 132.994 228.534 131.136 226.406 130.415C226.107 132.535 227.735 134.749 228.004 137.002C228.283 139.351 228.05 141.171 227.865 143.677C226.977 155.455 228.276 171.399 230.051 182.68C231.44 191.535 233.841 198.845 237.726 205.535C239.782 209.072 242.129 212.448 244.499 215.504C250.18 222.825 256.08 227.852 264.227 232.537Z"
            stroke="url(#paint6_linear_2_2236)" stroke-miterlimit="22.9256"/>
        <path
            d="M226.751 131.174C233.781 141.208 240.868 151.199 248.034 161.139C241.996 161.872 236.559 161.975 230.474 158.791C238.388 163.817 242.575 161.619 248.724 162.096C253.948 169.326 259.213 176.535 264.536 183.7C254.975 186.54 246.233 188.223 235.555 184.728C249.544 190.638 255.657 186.022 265.597 185.131C270.479 191.695 274.769 197.321 279.75 203.82C272.174 202.9 258.313 209.938 240.548 206.58C259.832 211.522 267.386 206.495 280.625 205.035C285.506 211.396 290.432 217.724 295.422 224.01C283.194 227.631 272.006 229.771 258.344 225.297C276.279 232.872 284.134 226.968 296.858 225.817C306.208 237.564 315.762 249.177 325.563 260.615C327.114 261.979 329.307 260.55 327.889 258.044C317.215 246.07 306.865 234.022 296.808 221.913C300.994 210.131 308.348 203.809 305.318 184.835C306.385 199.04 301.748 209.337 295.423 220.241C291.568 215.585 287.75 210.92 283.972 206.24C286.738 193.683 292.171 186.521 289.156 167.231C290.493 181.834 287.279 192.901 282.792 204.77C276.874 197.426 271.059 190.068 265.321 182.686C268.544 173.115 274.569 168.302 272.161 153.193C273.005 164.442 269.266 172.541 264.212 181.191L264.421 181.526C258.625 174.048 252.913 166.55 247.274 159.041C249.887 153.489 253.841 150.906 253.382 141.566C253.144 148.515 250.308 153.232 246.634 158.184C239.9 149.199 233.277 140.195 226.751 131.174Z"
            fill="url(#paint7_linear_2_2236)"/>
    </g>
    <g clip-path="url(#clip4_2_2236)">
        <path
            d="M751.638 256.796C743.222 264.556 735.536 265.528 724.942 267.711C723.363 267.989 713.703 269.442 713.109 269.331C711.794 269.929 710.118 274.271 709.18 276.15C706.841 280.826 699.088 296.927 696.142 298.239C695.744 298.094 695.28 298.004 694.912 297.577C694.257 296.806 694.448 296.674 694.781 296.116C694.799 295.942 701.54 284.639 702.177 283.461C704.961 278.244 707.963 273.436 710.292 267.93L707.417 263.381L703.941 257.804C701.924 254.081 699.441 250.634 697.619 246.863C691.92 235.101 692.578 230.077 694.722 217.131C695.112 215.786 695.561 214.096 696.087 212.862C699.543 205.253 702.262 199.61 707.188 192.688C708.329 191.079 709.333 189.702 710.583 188.082C711.014 187.518 711.612 186.976 712.16 186.388C719.66 178.279 728.628 172.05 737.996 166.237C740.715 164.552 743.522 162.984 746.221 161.304L750.364 159.048C753.899 157.254 757.555 155.914 760.835 153.687C763.151 152.115 764.023 150.013 765.94 148.839C766.7 150.84 765.602 153.359 765.838 155.617C766.084 157.968 766.715 159.692 767.449 162.095C770.919 173.385 773.178 189.222 773.942 200.616C774.546 209.559 773.821 217.219 771.512 224.603C770.289 228.506 768.747 232.318 767.111 235.823C763.189 244.218 758.547 250.426 751.638 256.796Z"
            stroke="url(#paint8_linear_2_2236)" stroke-miterlimit="22.9256"/>
        <path
            d="M765.771 149.655C761.134 160.996 756.432 172.306 751.641 183.585C757.692 182.964 763.018 181.863 768.248 177.412C761.641 184.064 757.071 182.846 751.18 184.671C747.684 192.877 744.143 201.072 740.537 209.237C750.49 209.892 759.387 209.601 769.028 203.83C756.692 212.688 749.709 209.537 739.819 210.866C736.509 218.348 733.569 224.783 730.149 232.223C737.334 229.65 752.408 233.449 768.991 226.245C751.277 235.329 742.798 232.097 729.564 233.601C726.211 240.884 722.805 248.145 719.33 255.378C732.055 256.206 743.44 255.819 755.774 248.434C739.958 259.788 730.992 255.768 718.328 257.459C711.808 270.982 705.059 284.421 698.029 297.742C696.819 299.416 694.364 298.508 695.193 295.75C702.955 281.711 710.384 267.674 717.514 253.64C710.827 243.076 702.256 238.536 701.015 219.362C703.116 233.451 709.915 242.468 718.495 251.703C721.225 246.31 723.917 240.916 726.567 235.517C721.092 223.882 714.21 218.099 712.884 198.619C714.809 213.157 720.392 223.239 727.393 233.822C731.54 225.351 735.583 216.889 739.547 208.422C734.288 199.8 727.347 196.439 726.354 181.171C728.018 192.328 733.456 199.4 740.298 206.718L740.168 207.091C744.167 198.517 748.08 189.941 751.919 181.371C748.142 176.534 743.715 174.889 742.097 165.679C743.866 172.404 747.675 176.377 752.354 180.394C756.933 170.142 761.401 159.896 765.771 149.655Z"
            fill="url(#paint9_linear_2_2236)"/>
    </g>
    <g clip-path="url(#clip5_2_2236)">
        <path
            d="M1179.03 240.015C1187.45 247.775 1195.13 248.747 1205.73 250.93C1207.3 251.208 1216.97 252.661 1217.56 252.549C1218.87 253.148 1220.55 257.49 1221.49 259.369C1223.83 264.045 1231.58 280.146 1234.53 281.458C1234.92 281.312 1235.39 281.223 1235.76 280.796C1236.41 280.025 1236.22 279.893 1235.89 279.334C1235.87 279.161 1229.13 267.858 1228.49 266.68C1225.71 261.463 1222.71 256.655 1220.38 251.149L1223.25 246.6L1226.73 241.023C1228.74 237.3 1231.23 233.853 1233.05 230.081C1238.75 218.319 1238.09 213.295 1235.95 200.349C1235.56 199.005 1235.11 197.314 1234.58 196.081C1231.12 188.471 1228.41 182.829 1223.48 175.906C1222.34 174.298 1221.34 172.921 1220.08 171.301C1219.65 170.737 1219.06 170.195 1218.51 169.606C1211.01 161.498 1202.04 155.269 1192.67 149.455C1189.95 147.77 1187.15 146.203 1184.45 144.523L1180.3 142.266C1176.77 140.473 1173.11 139.132 1169.83 136.905C1167.52 135.334 1166.64 133.231 1164.73 132.058C1163.97 134.059 1165.07 136.578 1164.83 138.835C1164.58 141.187 1163.95 142.911 1163.22 145.314C1159.75 156.604 1157.49 172.44 1156.73 183.834C1156.12 192.777 1156.85 200.437 1159.16 207.821C1160.38 211.725 1161.92 215.537 1163.56 219.041C1167.48 227.437 1172.12 233.644 1179.03 240.015Z"
            stroke="url(#paint10_linear_2_2236)" stroke-miterlimit="22.9256"/>
        <path
            d="M1164.9 132.874C1169.53 144.214 1174.24 155.525 1179.03 166.803C1172.98 166.183 1167.65 165.082 1162.42 160.631C1169.03 167.282 1173.6 166.065 1179.49 167.889C1182.98 176.096 1186.52 184.291 1190.13 192.455C1180.18 193.11 1171.28 192.819 1161.64 187.049C1173.98 195.906 1180.96 192.756 1190.85 194.085C1194.16 201.566 1197.1 208.002 1200.52 215.442C1193.33 212.869 1178.26 216.668 1161.68 209.464C1179.39 218.548 1187.87 215.316 1201.1 216.82C1204.46 224.103 1207.86 231.363 1211.34 238.597C1198.61 239.424 1187.23 239.038 1174.89 231.653C1190.71 243.006 1199.68 238.986 1212.34 240.678C1218.86 254.201 1225.61 267.639 1232.64 280.961C1233.85 282.634 1236.3 281.727 1235.48 278.968C1227.71 264.93 1220.28 250.892 1213.15 236.859C1219.84 226.294 1228.41 221.755 1229.65 202.58C1227.55 216.67 1220.75 225.687 1212.17 234.922C1209.44 229.528 1206.75 224.135 1204.1 218.735C1209.58 207.101 1216.46 201.318 1217.78 181.838C1215.86 196.375 1210.28 206.458 1203.28 217.04C1199.13 208.57 1195.08 200.108 1191.12 191.64C1196.38 183.019 1203.32 179.657 1204.31 164.39C1202.65 175.547 1197.21 182.618 1190.37 189.937L1190.5 190.31C1186.5 181.735 1182.59 173.159 1178.75 164.589C1182.53 159.753 1186.95 158.108 1188.57 148.898C1186.8 155.622 1182.99 159.595 1178.31 163.612C1173.73 153.36 1169.27 143.115 1164.9 132.874Z"
            fill="url(#paint11_linear_2_2236)"/>
    </g>
    <g clip-path="url(#clip6_2_2236)">
        <path
            d="M1108.77 240.508C1103.47 250.655 1096.56 254.167 1087.33 259.8C1085.93 260.596 1077.33 265.227 1076.74 265.323C1075.7 266.33 1075.59 270.983 1075.34 273.069C1074.72 278.26 1072.86 296.033 1070.53 298.263C1070.11 298.261 1069.64 298.334 1069.15 298.056C1068.28 297.552 1068.41 297.363 1068.53 296.725C1068.49 296.555 1071.02 283.639 1071.22 282.315C1072.08 276.465 1073.28 270.925 1073.61 264.956L1069.37 261.646L1064.21 257.571C1061.06 254.749 1057.56 252.343 1054.57 249.409C1045.23 240.264 1044.15 235.313 1041.8 222.404C1041.71 221.007 1041.56 219.264 1041.64 217.925C1042.32 209.596 1042.97 203.367 1045.27 195.187C1045.8 193.287 1046.28 191.652 1046.91 189.705C1047.12 189.029 1047.5 188.316 1047.82 187.577C1052.14 177.411 1058.48 168.519 1065.33 159.883C1067.32 157.378 1069.43 154.955 1071.4 152.461L1074.54 148.938C1077.26 146.055 1080.25 143.558 1082.59 140.354C1084.23 138.093 1084.35 135.819 1085.75 134.067C1087.14 135.693 1086.96 138.435 1087.95 140.481C1088.97 142.611 1090.15 144.02 1091.65 146.034C1098.73 155.487 1106.21 169.63 1110.78 180.096C1114.37 188.309 1116.27 195.763 1116.59 203.493C1116.76 207.581 1116.6 211.689 1116.24 215.54C1115.39 224.767 1113.12 232.178 1108.77 240.508Z"
            stroke="url(#paint12_linear_2_2236)" stroke-miterlimit="22.9256"/>
        <path
            d="M1085.87 134.892C1085.34 147.132 1084.73 159.366 1084.03 171.6C1089.52 168.972 1094.16 166.136 1097.58 160.18C1093.61 168.673 1088.89 169.071 1083.97 172.778C1083.45 181.683 1082.88 190.592 1082.25 199.495C1091.84 196.749 1100.11 193.47 1107.24 184.781C1098.62 197.285 1090.98 196.68 1082.12 201.272C1081.54 209.431 1080.94 216.482 1080.24 224.64C1086.13 219.791 1101.6 218.273 1114.78 205.89C1101.17 220.425 1092.1 220.248 1080.15 226.135C1079.46 234.122 1078.7 242.106 1077.88 250.089C1090.13 246.568 1100.72 242.358 1109.83 231.24C1098.78 247.269 1088.99 246.515 1077.64 252.385C1076.07 267.316 1074.26 282.245 1072.14 297.158C1071.57 299.142 1068.95 299.117 1068.8 296.241C1071.36 280.406 1073.61 264.683 1075.58 249.066C1065.72 241.382 1056.12 240.005 1048.47 222.378C1055.21 234.928 1064.65 241.118 1075.85 246.912C1076.6 240.913 1077.31 234.927 1077.98 228.95C1068.9 219.849 1060.46 216.731 1052.63 198.845C1059.36 211.877 1068.02 219.48 1078.18 227.076C1079.22 217.702 1080.17 208.371 1081.04 199.063C1073.18 192.725 1065.51 191.906 1059.42 177.872C1064.75 187.81 1072.26 192.629 1081.17 197.206L1081.18 197.6C1082.04 188.179 1082.83 178.786 1083.55 169.423C1078.36 166.146 1073.63 166.094 1069 157.972C1072.94 163.703 1077.86 166.156 1083.63 168.356C1084.47 157.16 1085.22 146.007 1085.87 134.892Z"
            fill="url(#paint13_linear_2_2236)"/>
    </g>
    <g clip-path="url(#clip7_2_2236)">
        <path
            d="M403.598 261.537C393.674 267.244 385.963 266.492 375.149 266.278C373.548 266.2 363.805 265.481 363.25 265.241C361.836 265.533 359.241 269.397 357.911 271.023C354.596 275.066 343.474 289.054 340.311 289.681C339.955 289.452 339.522 289.262 339.257 288.764C338.789 287.867 339.004 287.781 339.453 287.31C339.509 287.144 348.583 277.612 349.465 276.604C353.333 272.132 357.324 268.107 360.813 263.252L359.016 258.18L356.858 251.972C355.715 247.896 354.055 243.985 353.113 239.904C350.156 227.173 351.908 222.418 356.863 210.267C357.539 209.042 358.352 207.493 359.137 206.406C364.191 199.749 368.09 194.848 374.425 189.186C375.894 187.87 377.177 186.749 378.754 185.445C379.299 184.99 380.003 184.594 380.667 184.141C389.774 177.892 399.898 173.8 410.319 170.203C413.344 169.161 416.427 168.253 419.431 167.211L423.971 165.927C427.815 164.959 431.677 164.46 435.368 163.014C437.975 161.994 439.29 160.136 441.419 159.415C441.718 161.535 440.09 163.749 439.82 166.002C439.541 168.351 439.775 170.171 439.959 172.677C440.847 184.455 439.548 200.399 437.773 211.68C436.385 220.535 433.983 227.845 430.098 234.535C428.042 238.072 425.696 241.448 423.325 244.504C417.644 251.825 411.745 256.852 403.598 261.537Z"
            stroke="url(#paint14_linear_2_2236)" stroke-miterlimit="22.9256"/>
        <path
            d="M441.073 160.174C434.043 170.208 426.956 180.199 419.79 190.139C425.828 190.872 431.266 190.975 437.35 187.791C429.436 192.817 425.249 190.619 419.1 191.096C413.876 198.326 408.611 205.535 403.289 212.7C412.85 215.54 421.591 217.223 432.27 213.728C418.28 219.638 412.167 215.022 402.228 214.131C397.345 220.695 393.055 226.321 388.074 232.82C395.65 231.9 409.511 238.938 427.277 235.58C407.993 240.522 400.438 235.495 387.199 234.035C382.318 240.396 377.392 246.724 372.402 253.01C384.63 256.631 395.818 258.771 409.48 254.297C391.545 261.872 383.69 255.968 370.966 254.817C361.617 266.564 352.062 278.177 342.261 289.615C340.711 290.979 338.517 289.55 339.935 287.044C350.609 275.07 360.959 263.022 371.016 250.913C366.83 239.131 359.476 232.809 362.506 213.835C361.439 228.04 366.076 238.337 372.401 249.241C376.256 244.585 380.074 239.92 383.853 235.24C381.086 222.683 375.653 215.521 378.668 196.231C377.331 210.834 380.545 221.901 385.033 233.77C390.95 226.426 396.765 219.068 402.503 211.686C399.281 202.115 393.255 197.302 395.663 182.193C394.819 193.442 398.558 201.541 403.612 210.191L403.403 210.526C409.199 203.048 414.912 195.55 420.551 188.041C417.937 182.489 413.983 179.906 414.442 170.566C414.68 177.515 417.516 182.232 421.191 187.184C427.924 178.199 434.547 169.195 441.073 160.174Z"
            fill="url(#paint15_linear_2_2236)"/>
    </g>
    <g clip-path="url(#clip8_2_2236)">
        <path
            d="M867.598 253.754C857.674 259.46 849.963 258.709 839.149 258.495C837.548 258.417 827.805 257.698 827.25 257.458C825.836 257.75 823.241 261.614 821.911 263.24C818.596 267.282 807.474 281.27 804.311 281.898C803.955 281.668 803.522 281.478 803.257 280.981C802.789 280.084 803.004 279.998 803.453 279.526C803.509 279.361 812.583 269.828 813.465 268.821C817.333 264.348 821.324 260.324 824.813 255.469L823.016 250.397L820.858 244.189C819.715 240.112 818.055 236.202 817.113 232.12C814.156 219.389 815.908 214.635 820.863 202.484C821.539 201.259 822.352 199.71 823.137 198.623C828.191 191.966 832.09 187.065 838.425 181.403C839.894 180.087 841.177 178.966 842.754 177.662C843.299 177.207 844.003 176.811 844.667 176.358C853.774 170.109 863.898 166.017 874.319 162.419C877.344 161.378 880.427 160.47 883.431 159.428L887.971 158.144C891.815 157.176 895.677 156.677 899.368 155.231C901.975 154.21 903.29 152.353 905.419 151.632C905.718 153.752 904.09 155.965 903.82 158.219C903.541 160.567 903.775 162.388 903.959 164.894C904.847 176.671 903.548 192.616 901.773 203.896C900.385 212.751 897.983 220.061 894.098 226.752C892.042 230.289 889.696 233.665 887.325 236.721C881.644 244.041 875.745 249.069 867.598 253.754Z"
            stroke="url(#paint16_linear_2_2236)" stroke-miterlimit="22.9256"/>
        <path
            d="M905.073 152.391C898.043 162.425 890.956 172.415 883.79 182.355C889.828 183.088 895.266 183.192 901.35 180.008C893.436 185.034 889.249 182.836 883.1 183.313C877.876 190.543 872.611 197.752 867.289 204.917C876.85 207.757 885.591 209.44 896.27 205.944C882.28 211.855 876.167 207.239 866.228 206.347C861.345 212.912 857.055 218.537 852.074 225.037C859.65 224.117 873.511 231.155 891.277 227.796C871.993 232.739 864.438 227.712 851.199 226.252C846.318 232.613 841.392 238.941 836.402 245.226C848.63 248.847 859.818 250.988 873.48 246.514C855.545 254.088 847.69 248.185 834.966 247.034C825.617 258.781 816.062 270.394 806.261 281.831C804.711 283.196 802.517 281.767 803.935 279.261C814.609 267.286 824.959 255.239 835.016 243.13C830.83 231.348 823.476 225.026 826.506 206.051C825.439 220.257 830.076 230.554 836.401 241.458C840.256 236.801 844.074 232.137 847.853 227.457C845.086 214.9 839.653 207.738 842.668 188.448C841.331 203.051 844.545 214.118 849.033 225.987C854.95 218.643 860.765 211.284 866.503 203.903C863.281 194.332 857.255 189.519 859.663 174.41C858.819 185.658 862.558 193.758 867.612 202.408L867.403 202.743C873.199 195.265 878.912 187.767 884.551 180.258C881.937 174.706 877.983 172.122 878.442 162.783C878.68 169.732 881.516 174.449 885.191 179.401C891.924 170.416 898.547 161.412 905.073 152.391Z"
            fill="url(#paint17_linear_2_2236)"/>
    </g>
    <g clip-path="url(#clip9_2_2236)">
        <path
            d="M491.628 256.101C499.422 264.485 507.011 266.046 517.405 269.037C518.958 269.436 528.478 271.627 529.079 271.562C530.343 272.26 531.68 276.718 532.471 278.664C534.444 283.506 540.935 300.155 543.772 301.69C544.18 301.575 544.65 301.522 545.049 301.125C545.761 300.406 545.581 300.26 545.292 299.677C545.287 299.503 539.436 287.715 538.891 286.491C536.517 281.076 533.894 276.051 531.995 270.382L535.211 266.068L539.106 260.775C541.403 257.218 544.144 253.972 546.251 250.352C552.838 239.063 552.568 234.003 551.426 220.931C551.141 219.561 550.823 217.84 550.394 216.57C547.533 208.717 545.256 202.883 540.877 195.602C539.863 193.91 538.968 192.46 537.846 190.748C537.46 190.153 536.905 189.566 536.405 188.938C529.551 180.276 521.088 173.376 512.195 166.859C509.614 164.97 506.936 163.192 504.374 161.309L500.417 158.74C497.03 156.68 493.488 155.062 490.389 152.59C488.201 150.845 487.493 148.681 485.672 147.364C484.76 149.3 485.661 151.896 485.253 154.129C484.826 156.455 484.065 158.125 483.147 160.465C478.819 171.454 475.349 187.07 473.711 198.371C472.421 207.241 472.555 214.935 474.289 222.474C475.208 226.461 476.453 230.379 477.814 233.999C481.079 242.672 485.229 249.218 491.628 256.101Z"
            stroke="url(#paint18_linear_2_2236)" stroke-miterlimit="22.9256"/>
        <path
            d="M485.778 148.191C489.529 159.854 493.347 171.492 497.256 183.106C491.271 182.022 486.046 180.515 481.174 175.675C487.25 182.815 491.899 181.952 497.633 184.225C500.487 192.675 503.387 201.118 506.354 209.536C496.381 209.424 487.533 208.449 478.364 201.954C489.982 211.735 497.186 209.131 506.945 211.217C509.669 218.93 512.106 225.573 514.943 233.254C507.978 230.136 492.656 232.764 476.676 224.306C493.639 234.726 502.341 232.156 515.421 234.673C518.204 242.192 521.041 249.693 523.95 257.173C511.198 257.019 499.877 255.758 488.148 247.446C503.043 259.982 512.292 256.664 524.788 259.324C530.248 273.309 535.944 287.227 541.928 301.05C543.006 302.811 545.524 302.095 544.91 299.281C538.251 284.687 531.923 270.12 525.893 255.579C533.374 245.561 542.268 241.694 544.98 222.671C541.801 236.557 534.329 245.025 525.065 253.573C522.757 247.985 520.488 242.4 518.262 236.813C524.615 225.634 531.922 220.397 534.742 201.078C531.704 215.424 525.363 225.047 517.569 235.06C514.086 226.295 510.705 217.547 507.404 208.8C513.311 200.609 520.49 197.791 522.654 182.645C520.136 193.641 514.171 200.273 506.787 207.044L506.887 207.425C503.559 198.569 500.318 189.717 497.15 180.878C501.287 176.346 505.828 175.046 508.149 165.988C505.868 172.556 501.765 176.225 496.791 179.87C493.014 169.296 489.347 158.737 485.778 148.191Z"
            fill="url(#paint19_linear_2_2236)"/>
    </g>
    <g clip-path="url(#clip10_2_2236)">
        <path
            d="M955.628 248.318C963.422 256.702 971.011 258.263 981.405 261.254C982.958 261.653 992.478 263.844 993.079 263.779C994.343 264.476 995.68 268.935 996.471 270.881C998.444 275.722 1004.94 292.372 1007.77 293.907C1008.18 293.792 1008.65 293.739 1009.05 293.341C1009.76 292.623 1009.58 292.477 1009.29 291.894C1009.29 291.72 1003.44 279.932 1002.89 278.708C1000.52 273.292 997.894 268.268 995.995 262.599L999.211 258.285L1003.11 252.992C1005.4 249.435 1008.14 246.189 1010.25 242.569C1016.84 231.28 1016.57 226.22 1015.43 213.148C1015.14 211.778 1014.82 210.057 1014.39 208.787C1011.53 200.934 1009.26 195.099 1004.88 187.818C1003.86 186.127 1002.97 184.677 1001.85 182.965C1001.46 182.37 1000.91 181.783 1000.4 181.154C993.551 172.493 985.088 165.593 976.195 159.076C973.614 157.187 970.936 155.408 968.374 153.526L964.417 150.957C961.03 148.897 957.488 147.279 954.389 144.806C952.201 143.061 951.493 140.898 949.672 139.581C948.76 141.517 949.661 144.113 949.253 146.346C948.826 148.672 948.065 150.342 947.147 152.682C942.819 163.671 939.349 179.287 937.711 190.588C936.421 199.458 936.555 207.151 938.289 214.691C939.208 218.677 940.453 222.596 941.814 226.216C945.079 234.889 949.229 241.435 955.628 248.318Z"
            stroke="url(#paint20_linear_2_2236)" stroke-miterlimit="22.9256"/>
        <path
            d="M949.778 140.407C953.529 152.071 957.347 163.709 961.256 175.323C955.271 174.239 950.046 172.731 945.174 167.891C951.25 175.031 955.899 174.169 961.633 176.441C964.487 184.892 967.387 193.335 970.354 201.753C960.381 201.641 951.533 200.666 942.364 194.171C953.982 203.951 961.186 201.348 970.945 203.433C973.669 211.147 976.106 217.789 978.943 225.47C971.978 222.353 956.656 224.981 940.676 216.522C957.639 226.942 966.341 224.372 979.421 226.89C982.204 234.409 985.041 241.91 987.95 249.389C975.198 249.235 963.877 247.975 952.148 239.663C967.043 252.199 976.292 248.881 988.788 251.541C994.248 265.526 999.944 279.443 1005.93 293.266C1007.01 295.028 1009.52 294.311 1008.91 291.498C1002.25 276.904 995.923 262.336 989.893 247.796C997.374 237.777 1006.27 233.911 1008.98 214.888C1005.8 228.774 998.329 237.241 989.065 245.79C986.757 240.202 984.488 234.617 982.262 229.03C988.615 217.851 995.922 212.614 998.742 193.295C995.704 207.641 989.363 217.264 981.569 227.277C978.086 218.512 974.705 209.764 971.404 201.017C977.311 192.825 984.49 190.008 986.654 174.862C984.136 185.857 978.171 192.49 970.787 199.26L970.887 199.642C967.559 190.786 964.318 181.934 961.15 173.094C965.287 168.563 969.828 167.263 972.149 158.205C969.868 164.773 965.765 168.441 960.791 172.087C957.014 161.513 953.347 150.954 949.778 140.407Z"
            fill="url(#paint21_linear_2_2236)"/>
    </g>
    <defs>
        <linearGradient id="paint0_linear_2_2236" x1="106.041" y1="203.361" x2="-30.7518" y2="166.399"
                        gradientUnits="userSpaceOnUse">
            <stop offset="0.322917" stop-color="#00BD8D"/>
            <stop offset="1" stop-color="#00392D"/>
        </linearGradient>
        <linearGradient id="paint1_linear_2_2236" x1="105.28" y1="203.94" x2="-30.7282" y2="167.19"
                        gradientUnits="userSpaceOnUse">
            <stop offset="0.322917" stop-color="#00BD8D"/>
            <stop offset="1" stop-color="#00392D"/>
        </linearGradient>
        <linearGradient id="paint2_linear_2_2236" x1="218.941" y1="190.245" x2="88.0752" y2="234.11"
                        gradientUnits="userSpaceOnUse">
            <stop offset="0.322917" stop-color="#00BD8D"/>
            <stop offset="1" stop-color="#00392D"/>
        </linearGradient>
        <linearGradient id="paint3_linear_2_2236" x1="218.614" y1="191.057" x2="88.4986" y2="234.67"
                        gradientUnits="userSpaceOnUse">
            <stop offset="0.322917" stop-color="#00BD8D"/>
            <stop offset="1" stop-color="#00392D"/>
        </linearGradient>
        <linearGradient id="paint4_linear_2_2236" x1="685.272" y1="186.196" x2="568.195" y2="259.291"
                        gradientUnits="userSpaceOnUse">
            <stop offset="0.322917" stop-color="#00BD8D"/>
            <stop offset="1" stop-color="#00392D"/>
        </linearGradient>
        <linearGradient id="paint5_linear_2_2236" x1="685.142" y1="187.061" x2="568.737" y2="259.737"
                        gradientUnits="userSpaceOnUse">
            <stop offset="0.322917" stop-color="#00BD8D"/>
            <stop offset="1" stop-color="#00392D"/>
        </linearGradient>
        <linearGradient id="paint6_linear_2_2236" x1="211.883" y1="173.742" x2="342.749" y2="217.607"
                        gradientUnits="userSpaceOnUse">
            <stop offset="0.322917" stop-color="#00BD8D"/>
            <stop offset="1" stop-color="#00392D"/>
        </linearGradient>
        <linearGradient id="paint7_linear_2_2236" x1="212.21" y1="174.554" x2="342.326" y2="218.167"
                        gradientUnits="userSpaceOnUse">
            <stop offset="0.322917" stop-color="#00BD8D"/>
            <stop offset="1" stop-color="#00392D"/>
        </linearGradient>
        <linearGradient id="paint8_linear_2_2236" x1="789.684" y1="187.882" x2="671.758" y2="259.6"
                        gradientUnits="userSpaceOnUse">
            <stop offset="0.322917" stop-color="#00BD8D"/>
            <stop offset="1" stop-color="#00392D"/>
        </linearGradient>
        <linearGradient id="paint9_linear_2_2236" x1="789.544" y1="188.746" x2="672.295" y2="260.053"
                        gradientUnits="userSpaceOnUse">
            <stop offset="0.322917" stop-color="#00BD8D"/>
            <stop offset="1" stop-color="#00392D"/>
        </linearGradient>
        <linearGradient id="paint10_linear_2_2236" x1="1140.98" y1="171.1" x2="1258.91" y2="242.819"
                        gradientUnits="userSpaceOnUse">
            <stop offset="0.322917" stop-color="#00BD8D"/>
            <stop offset="1" stop-color="#00392D"/>
        </linearGradient>
        <linearGradient id="paint11_linear_2_2236" x1="1141.12" y1="171.964" x2="1258.37" y2="243.272"
                        gradientUnits="userSpaceOnUse">
            <stop offset="0.322917" stop-color="#00BD8D"/>
            <stop offset="1" stop-color="#00392D"/>
        </linearGradient>
        <linearGradient id="paint12_linear_2_2236" x1="1121.29" y1="162.792" x2="1034.53" y2="270.135"
                        gradientUnits="userSpaceOnUse">
            <stop offset="0.322917" stop-color="#00BD8D"/>
            <stop offset="1" stop-color="#00392D"/>
        </linearGradient>
        <linearGradient id="paint13_linear_2_2236" x1="1121.45" y1="163.652" x2="1035.19" y2="270.379"
                        gradientUnits="userSpaceOnUse">
            <stop offset="0.322917" stop-color="#00BD8D"/>
            <stop offset="1" stop-color="#00392D"/>
        </linearGradient>
        <linearGradient id="paint14_linear_2_2236" x1="455.941" y1="202.742" x2="325.075" y2="246.607"
                        gradientUnits="userSpaceOnUse">
            <stop offset="0.322917" stop-color="#00BD8D"/>
            <stop offset="1" stop-color="#00392D"/>
        </linearGradient>
        <linearGradient id="paint15_linear_2_2236" x1="455.614" y1="203.554" x2="325.499" y2="247.167"
                        gradientUnits="userSpaceOnUse">
            <stop offset="0.322917" stop-color="#00BD8D"/>
            <stop offset="1" stop-color="#00392D"/>
        </linearGradient>
        <linearGradient id="paint16_linear_2_2236" x1="919.941" y1="194.959" x2="789.075" y2="238.824"
                        gradientUnits="userSpaceOnUse">
            <stop offset="0.322917" stop-color="#00BD8D"/>
            <stop offset="1" stop-color="#00392D"/>
        </linearGradient>
        <linearGradient id="paint17_linear_2_2236" x1="919.614" y1="195.771" x2="789.499" y2="239.384"
                        gradientUnits="userSpaceOnUse">
            <stop offset="0.322917" stop-color="#00BD8D"/>
            <stop offset="1" stop-color="#00392D"/>
        </linearGradient>
        <linearGradient id="paint18_linear_2_2236" x1="458.995" y1="184.464" x2="571.055" y2="265.041"
                        gradientUnits="userSpaceOnUse">
            <stop offset="0.322917" stop-color="#00BD8D"/>
            <stop offset="1" stop-color="#00392D"/>
        </linearGradient>
        <linearGradient id="paint19_linear_2_2236" x1="459.068" y1="185.337" x2="570.485" y2="265.451"
                        gradientUnits="userSpaceOnUse">
            <stop offset="0.322917" stop-color="#00BD8D"/>
            <stop offset="1" stop-color="#00392D"/>
        </linearGradient>
        <linearGradient id="paint20_linear_2_2236" x1="922.995" y1="176.681" x2="1035.06" y2="257.258"
                        gradientUnits="userSpaceOnUse">
            <stop offset="0.322917" stop-color="#00BD8D"/>
            <stop offset="1" stop-color="#00392D"/>
        </linearGradient>
        <linearGradient id="paint21_linear_2_2236" x1="923.068" y1="177.553" x2="1034.49" y2="257.668"
                        gradientUnits="userSpaceOnUse">
            <stop offset="0.322917" stop-color="#00BD8D"/>
            <stop offset="1" stop-color="#00392D"/>
        </linearGradient>
        <clipPath id="clip0_2_2236">
            <rect width="121.313" height="145.767" fill="white"
                  transform="matrix(0.260849 -0.965379 -0.899905 -0.436086 91.8022 261.625)"/>
        </clipPath>
        <clipPath id="clip1_2_2236">
            <rect width="93" height="139.5" fill="white"
                  transform="matrix(-0.317812 -0.948154 -0.948154 0.317812 234.824 233.179)"/>
        </clipPath>
        <clipPath id="clip2_2_2236">
            <rect width="93" height="139.5" fill="white"
                  transform="matrix(-0.529592 -0.848252 -0.848252 0.529592 710.704 224.259)"/>
        </clipPath>
        <clipPath id="clip3_2_2236">
            <rect width="93" height="139.5" fill="white" transform="translate(196 216.676) rotate(-71.4693)"/>
        </clipPath>
        <clipPath id="clip4_2_2236">
            <rect width="93" height="139.5" fill="white"
                  transform="matrix(-0.519617 -0.854399 -0.854399 0.519617 814.668 226.24)"/>
        </clipPath>
        <clipPath id="clip5_2_2236">
            <rect width="93" height="139.5" fill="white" transform="translate(1116 209.459) rotate(-58.6934)"/>
        </clipPath>
        <clipPath id="clip6_2_2236">
            <rect width="93" height="139.5" fill="white"
                  transform="matrix(-0.777722 -0.628608 -0.628608 0.777722 1157.77 190.454)"/>
        </clipPath>
        <clipPath id="clip7_2_2236">
            <rect width="93" height="139.5" fill="white"
                  transform="matrix(-0.317812 -0.948154 -0.948154 0.317812 471.824 245.676)"/>
        </clipPath>
        <clipPath id="clip8_2_2236">
            <rect width="93" height="139.5" fill="white"
                  transform="matrix(-0.317812 -0.948154 -0.948154 0.317812 935.824 237.893)"/>
        </clipPath>
        <clipPath id="clip9_2_2236">
            <rect width="93" height="139.5" fill="white" transform="translate(431.135 220.787) rotate(-54.2819)"/>
        </clipPath>
        <clipPath id="clip10_2_2236">
            <rect width="93" height="139.5" fill="white" transform="translate(895.135 213.004) rotate(-54.2819)"/>
        </clipPath>
    </defs>
</svg>
