<svg width="307" height="52" viewBox="0 0 307 52" fill="none" xmlns="http://www.w3.org/2000/svg">
<g clip-path="url(#clip0_81_2052)">
<path d="M152.452 53.834C148.037 55.986 144.758 55.4385 140.136 55.0301C139.453 54.9501 135.303 54.3567 135.073 54.2377C134.459 54.3216 133.235 55.8996 132.618 56.5564C131.081 58.1898 125.911 63.8515 124.538 64.0276C124.392 63.9188 124.213 63.8249 124.114 63.6041C123.94 63.2064 124.035 63.1759 124.24 62.9872C124.269 62.9181 128.432 59.1035 128.839 58.698C130.626 56.8969 132.452 55.2909 134.088 53.315L133.467 51.0914L132.725 48.371C132.355 46.5925 131.76 44.8699 131.476 43.0954C130.583 37.5593 131.472 35.5756 133.949 30.5195C134.274 30.0149 134.667 29.3755 135.036 28.9332C137.394 26.2319 139.206 24.2481 142.083 22.01C142.751 21.4897 143.333 21.0474 144.046 20.5356C144.293 20.3569 144.606 20.2078 144.903 20.0334C148.985 17.6251 153.438 16.1703 158.004 14.9355C159.329 14.5781 160.676 14.2798 161.992 13.9218L163.973 13.505C165.647 13.2035 167.314 13.103 168.937 12.592C170.082 12.2316 170.7 11.4749 171.632 11.2288C171.698 12.1447 170.936 13.0447 170.755 14.0016C170.566 14.9985 170.613 15.7845 170.619 16.8628C170.654 21.93 169.631 28.7169 168.541 33.4936C167.687 37.2433 166.445 40.302 164.586 43.052C163.603 44.5057 162.499 45.8821 161.395 47.1208C158.749 50.088 156.076 52.0672 152.452 53.834Z" stroke="url(#paint0_linear_81_2052)" stroke-miterlimit="22.9256"/>
<path d="M171.462 11.5435C168.159 15.6327 164.833 19.7014 161.474 23.7464C164.037 24.237 166.362 24.4407 169.06 23.2559C165.525 25.1754 163.797 24.1119 161.151 24.1359C158.703 27.0777 156.238 30.0093 153.75 32.9205C157.759 34.416 161.452 35.3927 166.125 34.2091C159.964 36.3294 157.482 34.1743 153.254 33.5018C150.972 36.1685 148.971 38.451 146.648 41.0872C149.918 40.9152 155.645 44.3337 163.348 43.4165C154.949 44.9672 151.862 42.5943 146.238 41.5815C143.963 44.1615 141.669 46.7258 139.349 49.2703C144.477 51.1783 149.203 52.4223 155.182 50.9071C147.283 53.6243 144.094 50.8674 138.681 50.002C134.335 54.7563 129.905 59.4474 125.375 64.0562C124.671 64.5947 123.774 63.9191 124.455 62.8877C129.374 58.0747 134.157 53.2211 138.817 48.3321C137.37 43.1665 134.407 40.2449 136.26 32.2118C135.387 38.261 137.071 42.8045 139.459 47.6572C141.245 45.7769 143.016 43.8919 144.77 41.9995C143.954 36.5433 141.838 33.3186 143.694 25.1498C142.694 31.3614 143.745 36.1928 145.319 41.4047C148.067 38.4344 150.771 35.455 153.443 32.4635C152.344 28.2723 149.906 26.0356 151.379 19.6389C150.689 24.4289 152.052 28.0053 153.962 31.8559L153.863 31.9932C156.563 28.9622 159.227 25.9198 161.861 22.8708C160.905 20.4177 159.288 19.1961 159.758 15.2119C159.657 18.1933 160.732 20.2954 162.16 22.5229C165.306 18.8739 168.404 15.2137 171.462 11.5435Z" fill="url(#paint1_linear_81_2052)"/>
</g>
<g clip-path="url(#clip1_81_2052)">
<path d="M65.4813 52.3595C61.2235 54.8079 57.9152 54.4854 53.2755 54.3935C52.5884 54.3603 48.4084 54.0515 48.1705 53.9485C47.5636 54.0741 46.4504 55.7319 45.8796 56.4293C44.4571 58.1639 39.6855 64.1653 38.3282 64.4346C38.1755 64.3361 37.9897 64.2546 37.8763 64.0411C37.6755 63.6562 37.7678 63.6193 37.9602 63.417C37.9843 63.3461 41.8773 59.2562 42.2558 58.8239C43.9155 56.905 45.6277 55.1782 47.1248 53.0952L46.3535 50.9191L45.4279 48.2557C44.9373 46.5066 44.2253 44.8287 43.8208 43.0777C42.5523 37.6155 43.3041 35.5757 45.4298 30.3623C45.7202 29.8367 46.0686 29.1719 46.4058 28.7056C48.5739 25.8497 50.2468 23.7467 52.9647 21.3174C53.5949 20.7528 54.1455 20.2718 54.8224 19.7125C55.0561 19.5174 55.358 19.3473 55.6428 19.153C59.5503 16.4717 63.8939 14.7164 68.3652 13.1727C69.6629 12.7257 70.9859 12.3362 72.2747 11.8892L74.2224 11.3382C75.8718 10.9231 77.5288 10.709 79.1123 10.0884C80.2307 9.65066 80.795 8.85361 81.7083 8.5445C81.8366 9.45377 81.1381 10.4036 81.0226 11.3707C80.9027 12.3781 81.0029 13.159 81.0822 14.2345C81.463 19.2875 80.9057 26.1283 80.1443 30.9683C79.5485 34.7675 78.5181 37.9039 76.8514 40.7744C75.9693 42.2919 74.9623 43.7404 73.9453 45.0515C71.5078 48.1924 68.9767 50.3494 65.4813 52.3595Z" stroke="url(#paint2_linear_81_2052)" stroke-miterlimit="22.9256"/>
<path d="M81.5602 8.87086C78.5439 13.176 75.5033 17.4623 72.4286 21.727C75.0194 22.0415 77.3522 22.0861 79.9629 20.7199C76.5673 22.8762 74.7707 21.9332 72.1326 22.1377C69.8914 25.2397 67.6322 28.3327 65.3488 31.407C69.4509 32.6253 73.2013 33.3477 77.783 31.8478C71.781 34.3837 69.1581 32.403 64.8936 32.0207C62.7989 34.837 60.9581 37.2508 58.8212 40.0394C62.0715 39.6446 68.0185 42.6642 75.6407 41.2233C67.367 43.3438 64.1258 41.187 58.4455 40.5606C56.3516 43.2898 54.2378 46.0047 52.0971 48.7017C57.3434 50.2552 62.1435 51.1737 68.0051 49.2539C60.3104 52.5039 56.9401 49.9711 51.4808 49.4772C47.4696 54.5171 43.3703 59.4996 39.1651 64.4069C38.4999 64.9922 37.5587 64.3793 38.1673 63.3039C42.7469 58.1664 47.1875 52.9975 51.5025 47.802C49.7065 42.7472 46.5511 40.0346 47.851 31.8937C47.3936 37.9884 49.3829 42.4064 52.0965 47.0848C53.7507 45.0869 55.3888 43.0855 57.0098 41.0777C55.823 35.69 53.492 32.6172 54.7854 24.3408C54.2117 30.6062 55.5909 35.3545 57.5162 40.4469C60.055 37.296 62.5499 34.1389 65.0116 30.972C63.6292 26.8656 61.0438 24.8005 62.0772 18.3181C61.7148 23.1441 63.3193 26.6191 65.4874 30.3304L65.398 30.4741C67.8848 27.2659 70.3356 24.0487 72.755 20.8271C71.6335 18.4449 69.9371 17.3366 70.1343 13.3296C70.2363 16.311 71.453 18.3347 73.0296 20.4595C75.9186 16.6044 78.76 12.7412 81.5602 8.87086Z" fill="url(#paint3_linear_81_2052)"/>
</g>
<g clip-path="url(#clip2_81_2052)">
<path d="M283.272 53.6369C287.53 56.0852 290.838 55.7627 295.478 55.6708C296.165 55.6376 300.345 55.3288 300.583 55.2259C301.19 55.3514 302.303 57.0093 302.874 57.7067C304.297 59.4412 309.068 65.4427 310.425 65.712C310.578 65.6134 310.764 65.532 310.877 65.3184C311.078 64.9336 310.986 64.8966 310.793 64.6944C310.769 64.6234 306.876 60.5335 306.498 60.1012C304.838 58.1823 303.126 56.4555 301.629 54.3726L302.4 52.1965L303.326 49.5331C303.816 47.784 304.528 46.1061 304.933 44.355C306.201 38.8929 305.45 36.8531 303.324 31.6397C303.033 31.1141 302.685 30.4493 302.348 29.9829C300.18 27.127 298.507 25.0241 295.789 22.5948C295.159 22.0302 294.608 21.5491 293.931 20.9898C293.698 20.7947 293.396 20.6247 293.111 20.4304C289.203 17.7491 284.86 15.9937 280.388 14.45C279.091 14.0031 277.768 13.6135 276.479 13.1666L274.531 12.6155C272.882 12.2004 271.225 11.9864 269.641 11.3658C268.523 10.928 267.959 10.131 267.045 9.82184C266.917 10.7311 267.616 11.681 267.731 12.648C267.851 13.6555 267.751 14.4364 267.671 15.5118C267.291 20.5649 267.848 27.4057 268.609 32.2456C269.205 36.0449 270.236 39.1812 271.902 42.0517C272.784 43.5692 273.791 45.0177 274.808 46.3289C277.246 49.4697 279.777 51.6267 283.272 53.6369Z" stroke="url(#paint4_linear_81_2052)" stroke-miterlimit="22.9256"/>
<path d="M267.193 10.1482C270.21 14.4533 273.25 18.7396 276.325 23.0044C273.734 23.3188 271.401 23.3634 268.791 21.9972C272.186 24.1536 273.983 23.2105 276.621 23.4151C278.862 26.517 281.121 29.6101 283.405 32.6843C279.303 33.9027 275.552 34.625 270.971 33.1252C276.973 35.6611 279.596 33.6804 283.86 33.2981C285.955 36.1144 287.796 38.5282 289.933 41.3167C286.682 40.922 280.735 43.9416 273.113 42.5007C281.387 44.6211 284.628 42.4644 290.308 41.8379C292.402 44.5671 294.516 47.282 296.657 49.979C291.41 51.5325 286.61 52.451 280.749 50.5312C288.443 53.7812 291.814 51.2485 297.273 50.7546C301.284 55.7944 305.383 60.777 309.589 65.6842C310.254 66.2695 311.195 65.6567 310.586 64.5813C306.007 59.4437 301.566 54.2749 297.251 49.0793C299.047 44.0245 302.203 41.3119 300.903 33.1711C301.36 39.2657 299.371 43.6838 296.657 48.3621C295.003 46.3642 293.365 44.3628 291.744 42.3551C292.931 36.9673 295.262 33.8946 293.968 25.6182C294.542 31.8835 293.163 36.6319 291.238 41.7242C288.699 38.5733 286.204 35.4162 283.742 32.2493C285.124 28.1429 287.71 26.0778 286.677 19.5955C287.039 24.4215 285.434 27.8964 283.266 31.6077L283.356 31.7515C280.869 28.5432 278.418 25.326 275.999 22.1044C277.12 19.7223 278.817 18.6139 278.619 14.6069C278.517 17.5883 277.301 19.6121 275.724 21.7369C272.835 17.8817 269.994 14.0185 267.193 10.1482Z" fill="url(#paint5_linear_81_2052)"/>
</g>
<g clip-path="url(#clip3_81_2052)">
<path d="M38.2972 57.1752C37.4821 62.0186 35.1309 64.3682 32.1118 67.8924C31.6495 68.4018 28.7549 71.4332 28.5243 71.5515C28.2356 72.1 28.8083 74.013 28.9842 74.8968C29.4196 77.0974 31.0217 84.5953 30.3671 85.8145C30.194 85.8698 30.013 85.9615 29.7761 85.9134C29.3513 85.8239 29.3814 85.7291 29.3475 85.452C29.308 85.3884 28.6238 79.7835 28.5304 79.2166C28.1034 76.7157 27.858 74.2963 27.2009 71.8167L25.0306 71.0295L22.3858 70.0519C20.7235 69.3192 18.9755 68.8028 17.3664 68.0025C12.3427 65.5112 11.2454 63.6344 8.57053 58.6803C8.34924 58.1221 8.0573 57.4307 7.91143 56.874C7.08394 53.3851 6.52311 50.7571 6.37437 47.1148C6.33887 46.2694 6.31731 45.5386 6.31557 44.6605C6.31339 44.3561 6.37391 44.0149 6.40486 43.6716C6.81745 38.9505 8.22205 34.4812 9.87131 30.0478C10.3508 28.7617 10.8907 27.4926 11.3645 26.2135L12.1767 24.3593C12.9042 22.822 13.7918 21.4065 14.3188 19.7895C14.6915 18.6477 14.4346 17.7055 14.7762 16.8039C15.5599 17.2826 15.8495 18.4255 16.5228 19.1292C17.2245 19.862 17.8912 20.2808 18.772 20.9029C22.9157 23.8198 27.8437 28.597 31.0971 32.2603C33.6521 35.1346 35.4192 37.9231 36.5765 41.0341C37.1877 42.6795 37.6664 44.3774 38.0325 45.9959C38.9089 49.8738 38.9662 53.1988 38.2972 57.1752Z" stroke="url(#paint6_linear_81_2052)" stroke-miterlimit="22.9256"/>
<path d="M14.9335 17.1256C16.341 22.1903 17.7186 27.2617 19.058 32.3458C20.9471 30.5451 22.4638 28.7721 23.0678 25.8882C22.5752 29.8803 20.7054 30.6683 19.187 32.8354C20.1581 36.537 21.1108 40.2469 22.0337 43.9635C25.581 41.5702 28.5219 39.1333 30.2752 34.6425C28.4194 40.8884 25.2233 41.6551 22.2183 44.705C23.0619 48.112 23.756 51.0672 24.5514 54.4891C26.3119 51.7286 32.4224 49.0552 36.1532 42.2541C32.5332 49.9901 28.8083 51.1224 24.7151 55.1104C25.4919 58.4615 26.2451 61.8188 26.9673 65.1854C31.5006 62.1217 35.2599 58.9988 37.5022 53.2529C35.1222 61.2596 31.025 62.2525 27.1746 66.1542C28.5173 72.454 29.7598 78.7853 30.8768 85.1506C30.9061 86.0362 29.8348 86.3735 29.3911 85.2202C28.3342 78.4194 27.1647 71.7062 25.8948 65.0729C20.8504 63.2477 16.7509 63.9605 11.2909 57.7838C15.7062 62.0098 20.3817 63.2811 25.7185 64.1585C25.2269 61.6117 24.7224 59.075 24.2022 56.5476C19.2878 54.0405 15.434 53.8878 9.86517 47.63C14.3385 52.0543 18.8813 54.0065 24.0368 55.7557C23.2171 51.7932 22.3646 47.8606 21.4835 43.9474C17.4343 42.4055 14.1969 43.0897 9.84813 38.1726C13.3443 41.519 17.047 42.4882 21.2904 43.1723L21.3446 43.3327C20.4475 39.3739 19.5207 35.4372 18.5704 31.5219C16.0185 30.8742 14.0847 31.4798 11.1159 28.7814C13.4829 30.5971 15.8187 30.9435 18.4611 31.0763C17.3201 26.3959 16.1427 21.7471 14.9335 17.1256Z" fill="url(#paint7_linear_81_2052)"/>
</g>
<g clip-path="url(#clip4_81_2052)">
<path d="M224.447 47.6107C225.262 52.4542 227.613 54.8038 230.632 58.328C231.095 58.8374 233.989 61.8688 234.22 61.9871C234.509 62.5355 233.936 64.4485 233.76 65.3324C233.325 67.5329 231.722 75.0309 232.377 76.25C232.55 76.3053 232.731 76.397 232.968 76.3489C233.393 76.2594 233.363 76.1647 233.397 75.8876C233.436 75.8239 234.12 70.2191 234.214 69.6521C234.641 67.1512 234.886 64.7319 235.543 62.2523L237.714 61.4651L240.358 60.4874C242.021 59.7548 243.769 59.2383 245.378 58.438C250.401 55.9467 251.499 54.07 254.174 49.1159C254.395 48.5577 254.687 47.8662 254.833 47.3095C255.66 43.8206 256.221 41.1926 256.37 37.5503C256.405 36.7049 256.427 35.9741 256.429 35.0961C256.431 34.7917 256.37 34.4505 256.339 34.1071C255.927 29.3861 254.522 24.9168 252.873 20.4833C252.393 19.1973 251.853 17.9282 251.38 16.649L250.567 14.7949C249.84 13.2575 248.952 11.8421 248.425 10.225C248.053 9.08328 248.31 8.14109 247.968 7.23947C247.184 7.71817 246.895 8.86109 246.221 9.56478C245.52 10.2975 244.853 10.7163 243.972 11.3384C239.828 14.2553 234.9 19.0325 231.647 22.6959C229.092 25.5701 227.325 28.3586 226.168 31.4697C225.556 33.115 225.078 34.813 224.712 36.4314C223.835 40.3094 223.778 43.6344 224.447 47.6107Z" stroke="url(#paint8_linear_81_2052)" stroke-miterlimit="22.9256"/>
<path d="M247.811 7.56113C246.403 12.6258 245.025 17.6972 243.686 22.7814C241.797 20.9807 240.28 19.2077 239.676 16.3237C240.169 20.3159 242.039 21.1039 243.557 23.2709C242.586 26.9726 241.633 30.6824 240.71 34.399C237.163 32.0057 234.222 29.5689 232.469 25.078C234.325 31.3239 237.521 32.0906 240.526 35.1405C239.682 38.5475 238.988 41.5027 238.193 44.9247C236.432 42.1641 230.322 39.4908 226.591 32.6896C230.211 40.4257 233.936 41.558 238.029 45.5459C237.252 48.897 236.499 52.2543 235.777 55.621C231.244 52.5572 227.484 49.4344 225.242 43.6884C227.622 51.6951 231.719 52.6881 235.57 56.5897C234.227 62.8895 232.984 69.2208 231.867 75.5862C231.838 76.4717 232.909 76.809 233.353 75.6558C234.41 68.855 235.579 62.1417 236.849 55.5085C241.894 53.6833 245.993 54.3961 251.453 48.2194C247.038 52.4453 242.362 53.7166 237.026 54.594C237.517 52.0472 238.022 49.5106 238.542 46.9831C243.456 44.476 247.31 44.3234 252.879 38.0656C248.406 42.4898 243.863 44.442 238.707 46.1913C239.527 42.2287 240.38 38.2962 241.261 34.383C245.31 32.8411 248.547 33.5252 252.896 28.6082C249.4 31.9545 245.697 32.9238 241.454 33.6079L241.4 33.7683C242.297 29.8095 243.223 25.8728 244.174 21.9575C246.726 21.3097 248.659 21.9154 251.628 19.217C249.261 21.0326 246.925 21.3791 244.283 21.5119C245.424 16.8314 246.601 12.1826 247.811 7.56113Z" fill="url(#paint9_linear_81_2052)"/>
</g>
<g clip-path="url(#clip5_81_2052)">
<path d="M209.632 41.1752C208.817 46.0186 206.466 48.3682 203.446 51.8924C202.984 52.4018 200.09 55.4332 199.859 55.5515C199.57 56.1 200.143 58.013 200.319 58.8968C200.754 61.0974 202.356 68.5953 201.702 69.8145C201.529 69.8698 201.348 69.9615 201.111 69.9134C200.686 69.8239 200.716 69.7291 200.682 69.452C200.643 69.3884 199.958 63.7835 199.865 63.2166C199.438 60.7157 199.193 58.2963 198.536 55.8167L196.365 55.0295L193.721 54.0519C192.058 53.3192 190.31 52.8028 188.701 52.0025C183.677 49.5112 182.58 47.6344 179.905 42.6803C179.684 42.1221 179.392 41.4307 179.246 40.874C178.419 37.3851 177.858 34.7571 177.709 31.1148C177.674 30.2694 177.652 29.5386 177.65 28.6605C177.648 28.3561 177.709 28.0149 177.74 27.6716C178.152 22.9505 179.557 18.4812 181.206 14.0478C181.686 12.7617 182.225 11.4926 182.699 10.2135L183.511 8.35933C184.239 6.82198 185.127 5.40654 185.654 3.78948C186.026 2.64773 185.769 1.70554 186.111 0.803928C186.895 1.28263 187.184 2.42555 187.857 3.12923C188.559 3.86199 189.226 4.2808 190.107 4.9029C194.25 7.81977 199.178 12.597 202.432 16.2603C204.987 19.1346 206.754 21.9231 207.911 25.0341C208.522 26.6795 209.001 28.3774 209.367 29.9959C210.244 33.8738 210.301 37.1988 209.632 41.1752Z" stroke="url(#paint10_linear_81_2052)" stroke-miterlimit="22.9256"/>
<path d="M186.268 1.12558C187.676 6.19026 189.053 11.2617 190.393 16.3458C192.282 14.5451 193.799 12.7721 194.403 9.88817C193.91 13.8803 192.04 14.6683 190.522 16.8354C191.493 20.537 192.446 24.2469 193.368 27.9635C196.916 25.5702 199.857 23.1333 201.61 18.6425C199.754 24.8884 196.558 25.6551 193.553 28.705C194.397 32.112 195.091 35.0672 195.886 38.4891C197.647 35.7286 203.757 33.0552 207.488 26.2541C203.868 33.9901 200.143 35.1224 196.05 39.1104C196.827 42.4615 197.58 45.8188 198.302 49.1854C202.835 46.1217 206.595 42.9988 208.837 37.2529C206.457 45.2596 202.36 46.2525 198.509 50.1542C199.852 56.454 201.094 62.7853 202.212 69.1506C202.241 70.0362 201.17 70.3735 200.726 69.2202C199.669 62.4194 198.499 55.7062 197.229 49.0729C192.185 47.2477 188.086 47.9605 182.626 41.7838C187.041 46.0098 191.716 47.2811 197.053 48.1585C196.562 45.6117 196.057 43.075 195.537 40.5476C190.623 38.0405 186.769 37.8878 181.2 31.63C185.673 36.0543 190.216 38.0065 195.371 39.7557C194.552 35.7932 193.699 31.8606 192.818 27.9474C188.769 26.4055 185.532 27.0897 181.183 22.1726C184.679 25.519 188.382 26.4882 192.625 27.1723L192.679 27.3327C191.782 23.3739 190.855 19.4372 189.905 15.5219C187.353 14.8742 185.419 15.4798 182.451 12.7814C184.818 14.5971 187.153 14.9435 189.796 15.0763C188.655 10.3959 187.477 5.74707 186.268 1.12558Z" fill="url(#paint11_linear_81_2052)"/>
</g>
<g clip-path="url(#clip6_81_2052)">
<path d="M124.252 51.4721C123.437 56.3155 121.085 58.6651 118.066 62.1893C117.604 62.6987 114.71 65.7301 114.479 65.8484C114.19 66.3968 114.763 68.3098 114.939 69.1937C115.374 71.3943 116.976 78.8922 116.322 80.1114C116.149 80.1666 115.968 80.2584 115.731 80.2103C115.306 80.1207 115.336 80.026 115.302 79.7489C115.263 79.6853 114.578 74.0804 114.485 73.5134C114.058 71.0125 113.813 68.5932 113.156 66.1136L110.985 65.3264L108.34 64.3487C106.678 63.6161 104.93 63.0997 103.321 62.2993C98.2972 59.808 97.2 57.9313 94.5251 52.9772C94.3038 52.419 94.0119 51.7275 93.866 51.1708C93.0385 47.6819 92.4777 45.054 92.329 41.4117C92.2935 40.5663 92.2719 39.8355 92.2702 38.9574C92.268 38.653 92.3285 38.3118 92.3595 37.9684C92.772 33.2474 94.1766 28.7781 95.8259 24.3447C96.3054 23.0586 96.8453 21.7895 97.3191 20.5103L98.1312 18.6562C98.8588 17.1189 99.7464 15.7034 100.273 14.0864C100.646 12.9446 100.389 12.0024 100.731 11.1008C101.514 11.5795 101.804 12.7224 102.477 13.4261C103.179 14.1589 103.846 14.5777 104.727 15.1998C108.87 18.1166 113.798 22.8938 117.052 26.5572C119.607 29.4314 121.374 32.22 122.531 35.331C123.142 36.9764 123.621 38.6743 123.987 40.2928C124.863 44.1707 124.921 47.4957 124.252 51.4721Z" stroke="url(#paint12_linear_81_2052)" stroke-miterlimit="22.9256"/>
<path d="M100.888 11.4225C102.296 16.4871 103.673 21.5586 105.013 26.6427C106.902 24.842 108.418 23.069 109.022 20.185C108.53 24.1772 106.66 24.9652 105.142 27.1322C106.113 30.8339 107.065 34.5437 107.988 38.2603C111.536 35.8671 114.476 33.4302 116.23 28.9393C114.374 35.1852 111.178 35.9519 108.173 39.0019C109.016 42.4089 109.711 45.3641 110.506 48.786C112.267 46.0254 118.377 43.3521 122.108 36.551C118.488 44.287 114.763 45.4193 110.67 49.4072C111.447 52.7584 112.2 56.1156 112.922 59.4823C117.455 56.4185 121.215 53.2957 123.457 47.5497C121.077 55.5564 116.98 56.5494 113.129 60.4511C114.472 66.7509 115.714 73.0822 116.831 79.4475C116.861 80.333 115.789 80.6703 115.346 79.5171C114.289 72.7163 113.119 66.0031 111.849 59.3698C106.805 57.5446 102.705 58.2574 97.2455 52.0807C101.661 56.3067 106.336 57.578 111.673 58.4554C111.182 55.9085 110.677 53.3719 110.157 50.8445C105.242 48.3373 101.389 48.1847 95.8198 41.9269C100.293 46.3511 104.836 48.3034 109.991 50.0526C109.172 46.0901 108.319 42.1575 107.438 38.2443C103.389 36.7024 100.151 37.3865 95.8027 32.4695C99.2989 35.8159 103.002 36.7851 107.245 37.4692L107.299 37.6296C106.402 33.6708 105.475 29.7341 104.525 25.8188C101.973 25.1711 100.039 25.7767 97.0705 23.0783C99.4374 24.8939 101.773 25.2404 104.416 25.3732C103.275 20.6928 102.097 16.0439 100.888 11.4225Z" fill="url(#paint13_linear_81_2052)"/>
</g>
<defs>
<linearGradient id="paint0_linear_81_2052" x1="176.579" y1="30.1999" x2="119.278" y2="45.1436" gradientUnits="userSpaceOnUse">
<stop offset="0.322917" stop-color="#00BD8D"/>
<stop offset="1" stop-color="#00392D"/>
</linearGradient>
<linearGradient id="paint1_linear_81_2052" x1="176.415" y1="30.5379" x2="119.443" y2="45.3959" gradientUnits="userSpaceOnUse">
<stop offset="0.322917" stop-color="#00BD8D"/>
<stop offset="1" stop-color="#00392D"/>
</linearGradient>
<linearGradient id="paint2_linear_81_2052" x1="87.9392" y1="27.1336" x2="31.7915" y2="45.9538" gradientUnits="userSpaceOnUse">
<stop offset="0.322917" stop-color="#00BD8D"/>
<stop offset="1" stop-color="#00392D"/>
</linearGradient>
<linearGradient id="paint3_linear_81_2052" x1="87.7987" y1="27.4828" x2="31.9732" y2="46.195" gradientUnits="userSpaceOnUse">
<stop offset="0.322917" stop-color="#00BD8D"/>
<stop offset="1" stop-color="#00392D"/>
</linearGradient>
<linearGradient id="paint4_linear_81_2052" x1="260.815" y1="28.4109" x2="316.962" y2="47.2311" gradientUnits="userSpaceOnUse">
<stop offset="0.322917" stop-color="#00BD8D"/>
<stop offset="1" stop-color="#00392D"/>
</linearGradient>
<linearGradient id="paint5_linear_81_2052" x1="260.955" y1="28.7601" x2="316.78" y2="47.4723" gradientUnits="userSpaceOnUse">
<stop offset="0.322917" stop-color="#00BD8D"/>
<stop offset="1" stop-color="#00392D"/>
</linearGradient>
<linearGradient id="paint6_linear_81_2052" x1="33.0892" y1="23.8048" x2="11.9434" y2="79.1185" gradientUnits="userSpaceOnUse">
<stop offset="0.322917" stop-color="#00BD8D"/>
<stop offset="1" stop-color="#00392D"/>
</linearGradient>
<linearGradient id="paint7_linear_81_2052" x1="33.269" y1="24.1351" x2="12.2444" y2="79.1314" gradientUnits="userSpaceOnUse">
<stop offset="0.322917" stop-color="#00BD8D"/>
<stop offset="1" stop-color="#00392D"/>
</linearGradient>
<linearGradient id="paint8_linear_81_2052" x1="229.655" y1="14.2403" x2="250.801" y2="69.5541" gradientUnits="userSpaceOnUse">
<stop offset="0.322917" stop-color="#00BD8D"/>
<stop offset="1" stop-color="#00392D"/>
</linearGradient>
<linearGradient id="paint9_linear_81_2052" x1="229.475" y1="14.5706" x2="250.5" y2="69.567" gradientUnits="userSpaceOnUse">
<stop offset="0.322917" stop-color="#00BD8D"/>
<stop offset="1" stop-color="#00392D"/>
</linearGradient>
<linearGradient id="paint10_linear_81_2052" x1="204.424" y1="7.8048" x2="183.278" y2="63.1185" gradientUnits="userSpaceOnUse">
<stop offset="0.322917" stop-color="#00BD8D"/>
<stop offset="1" stop-color="#00392D"/>
</linearGradient>
<linearGradient id="paint11_linear_81_2052" x1="204.604" y1="8.13506" x2="183.579" y2="63.1314" gradientUnits="userSpaceOnUse">
<stop offset="0.322917" stop-color="#00BD8D"/>
<stop offset="1" stop-color="#00392D"/>
</linearGradient>
<linearGradient id="paint12_linear_81_2052" x1="119.044" y1="18.1017" x2="97.8979" y2="73.4154" gradientUnits="userSpaceOnUse">
<stop offset="0.322917" stop-color="#00BD8D"/>
<stop offset="1" stop-color="#00392D"/>
</linearGradient>
<linearGradient id="paint13_linear_81_2052" x1="119.224" y1="18.4319" x2="98.199" y2="73.4283" gradientUnits="userSpaceOnUse">
<stop offset="0.322917" stop-color="#00BD8D"/>
<stop offset="1" stop-color="#00392D"/>
</linearGradient>
<clipPath id="clip0_81_2052">
<rect width="39.9013" height="59.852" fill="white" transform="matrix(-0.252352 -0.967636 -0.967636 0.252352 182.121 49.043)"/>
</clipPath>
<clipPath id="clip1_81_2052">
<rect width="39.9013" height="59.852" fill="white" transform="matrix(-0.317812 -0.948154 -0.948154 0.317812 94.7537 45.5547)"/>
</clipPath>
<clipPath id="clip2_81_2052">
<rect width="39.9013" height="59.852" fill="white" transform="translate(254 46.832) rotate(-71.4693)"/>
</clipPath>
<clipPath id="clip3_81_2052">
<rect width="39.9013" height="59.852" fill="white" transform="matrix(-0.934071 -0.357086 -0.357086 0.934071 51.6431 30.248)"/>
</clipPath>
<clipPath id="clip4_81_2052">
<rect width="39.9013" height="59.852" fill="white" transform="translate(211.101 20.6836) rotate(-20.9213)"/>
</clipPath>
<clipPath id="clip5_81_2052">
<rect width="39.9013" height="59.852" fill="white" transform="matrix(-0.934071 -0.357086 -0.357086 0.934071 222.978 14.248)"/>
</clipPath>
<clipPath id="clip6_81_2052">
<rect width="39.9013" height="59.852" fill="white" transform="matrix(-0.934071 -0.357086 -0.357086 0.934071 137.598 24.5449)"/>
</clipPath>
</defs>
</svg>
