<svg width="307" height="48" viewBox="0 0 307 48" fill="none" xmlns="http://www.w3.org/2000/svg">
<g clip-path="url(#clip0_81_1982)">
<path d="M153.452 -6.38287C149.037 -8.53487 145.758 -7.98729 141.136 -7.57895C140.453 -7.49891 136.303 -6.90549 136.073 -6.78656C135.459 -6.87042 134.235 -8.44839 133.618 -9.10521C132.081 -10.7386 126.911 -16.4004 125.538 -16.5764C125.392 -16.4676 125.213 -16.3737 125.114 -16.1529C124.94 -15.7552 125.035 -15.7247 125.24 -15.536C125.269 -15.4669 129.432 -11.6523 129.839 -11.2468C131.626 -9.4457 133.452 -7.83977 135.088 -5.86385L134.467 -3.64019L133.725 -0.919841C133.355 0.858681 132.76 2.58127 132.476 4.35582C131.583 9.89185 132.472 11.8756 134.949 16.9317C135.274 17.4362 135.667 18.0757 136.036 18.518C138.394 21.2192 140.206 23.2031 143.083 25.4412C143.751 25.9615 144.333 26.4038 145.046 26.9156C145.293 27.0943 145.606 27.2433 145.903 27.4177C149.985 29.8261 154.438 31.2809 159.004 32.5157C160.329 32.8731 161.676 33.1714 162.992 33.5293L164.973 33.9462C166.647 34.2477 168.314 34.3481 169.937 34.8592C171.082 35.2196 171.7 35.9763 172.632 36.2223C172.698 35.3064 171.936 34.4065 171.755 33.4496C171.566 32.4527 171.613 31.6667 171.619 30.5884C171.654 25.5211 170.631 18.7343 169.541 13.9576C168.687 10.2079 167.445 7.14921 165.586 4.39915C164.603 2.94543 163.499 1.56904 162.395 0.330356C159.749 -2.63679 157.076 -4.61602 153.452 -6.38287Z" stroke="url(#paint0_linear_81_1982)" stroke-miterlimit="22.9256"/>
<path d="M172.462 35.9077C169.159 31.8185 165.833 27.7497 162.474 23.7048C165.037 23.2142 167.362 23.0105 170.06 24.1953C166.525 22.2758 164.797 23.3392 162.151 23.3153C159.703 20.3735 157.238 17.4419 154.75 14.5307C158.759 13.0352 162.452 12.0585 167.125 13.2421C160.964 11.1218 158.482 13.2769 154.254 13.9494C151.972 11.2827 149.971 9.00015 147.648 6.36397C150.918 6.53592 156.645 3.11745 164.348 4.03472C155.949 2.48395 152.862 4.8569 147.238 5.86964C144.963 3.2897 142.669 0.725421 140.349 -1.81914C145.477 -3.72715 150.203 -4.97115 156.182 -3.4559C148.283 -6.17309 145.094 -3.41622 139.681 -2.55083C135.335 -7.30515 130.905 -11.9963 126.375 -16.605C125.671 -17.1436 124.774 -16.4679 125.455 -15.4365C130.374 -10.6235 135.157 -5.76989 139.817 -0.880956C138.37 4.28465 135.407 7.20627 137.26 15.2394C136.387 9.1902 138.071 4.64668 140.459 -0.205991C142.245 1.67431 144.016 3.55928 145.77 5.45167C144.954 10.9079 142.838 14.1326 144.694 22.3014C143.694 16.0898 144.745 11.2584 146.319 6.04652C149.067 9.01673 151.771 11.9962 154.443 14.9877C153.344 19.1788 150.906 21.4156 152.379 27.8123C151.689 23.0223 153.052 19.4459 154.962 15.5953L154.863 15.458C157.563 18.489 160.227 21.5314 162.861 24.5804C161.905 27.0335 160.288 28.255 160.758 32.2392C160.657 29.2579 161.732 27.1557 163.16 24.9283C166.306 28.5773 169.404 32.2375 172.462 35.9077Z" fill="url(#paint1_linear_81_1982)"/>
</g>
<g clip-path="url(#clip1_81_1982)">
<path d="M66.4813 -4.90836C62.2235 -7.35669 58.9152 -7.03418 54.2755 -6.94233C53.5884 -6.9091 49.4084 -6.60029 49.1705 -6.49736C48.5636 -6.62293 47.4504 -8.28076 46.8796 -8.97816C45.4571 -10.7127 40.6855 -16.7142 39.3282 -16.9835C39.1755 -16.8849 38.9897 -16.8034 38.8763 -16.5899C38.6755 -16.205 38.7678 -16.1681 38.9602 -15.9659C38.9843 -15.8949 42.8773 -11.805 43.2558 -11.3727C44.9155 -9.45383 46.6277 -7.727 48.1248 -5.64403L47.3535 -3.46794L46.4279 -0.804566C45.9373 0.94455 45.2253 2.62245 44.8208 4.37348C43.5523 9.83565 44.3041 11.8755 46.4298 17.0889C46.7202 17.6144 47.0686 18.2792 47.4058 18.7456C49.5739 21.6015 51.2468 23.7045 53.9647 26.1337C54.5949 26.6984 55.1455 27.1794 55.8224 27.7387C56.0561 27.9338 56.358 28.1039 56.6428 28.2981C60.5503 30.9794 64.8939 32.7348 69.3652 34.2785C70.6629 34.7254 71.9859 35.115 73.2747 35.562L75.2224 36.113C76.8718 36.5281 78.5288 36.7421 80.1123 37.3627C81.2307 37.8005 81.795 38.5976 82.7083 38.9067C82.8366 37.9974 82.1381 37.0476 82.0226 36.0805C81.9027 35.0731 82.0029 34.2921 82.0822 33.2167C82.463 28.1637 81.9057 21.3228 81.1443 16.4829C80.5485 12.6837 79.5181 9.54732 77.8514 6.67679C76.9693 5.15932 75.9623 3.71082 74.9453 2.39966C72.5078 -0.741198 69.9767 -2.89822 66.4813 -4.90836Z" stroke="url(#paint2_linear_81_1982)" stroke-miterlimit="22.9256"/>
<path d="M82.5602 38.5803C79.5439 34.2752 76.5033 29.9889 73.4286 25.7241C76.0194 25.4097 78.3522 25.3651 80.9629 26.7313C77.5673 24.575 75.7707 25.518 73.1326 25.3135C70.8914 22.2115 68.6322 19.1184 66.3488 16.0442C70.4509 14.8259 74.2013 14.1035 78.783 15.6033C72.781 13.0675 70.1581 15.0481 65.8936 15.4304C63.7989 12.6141 61.9581 10.2003 59.8212 7.4118C63.0715 7.80654 69.0185 4.78695 76.6407 6.22786C68.367 4.1074 65.1258 6.26414 59.4455 6.89061C57.3516 4.16138 55.2378 1.44649 53.0971 -1.25049C58.3434 -2.80402 63.1435 -3.72251 69.0051 -1.80268C61.3104 -5.05268 57.9401 -2.51995 52.4808 -2.02606C48.4696 -7.06593 44.3703 -12.0485 40.1651 -16.9557C39.4999 -17.541 38.5587 -16.9282 39.1673 -15.8528C43.7469 -10.7152 48.1875 -5.54637 52.5025 -0.350794C50.7065 4.70401 47.5511 7.41658 48.851 15.5574C48.3936 9.46278 50.3829 5.04474 53.0965 0.366393C54.7507 2.36427 56.3888 4.36572 58.0098 6.37343C56.823 11.7612 54.492 14.8339 55.7854 23.1103C55.2117 16.845 56.5909 12.0967 58.5162 7.00432C61.055 10.1552 63.5499 13.3123 66.0116 16.4792C64.6292 20.5856 62.0438 22.6507 63.0772 29.133C62.7148 24.3071 64.3193 20.8321 66.4874 17.1208L66.398 16.9771C68.8848 20.1853 71.3356 23.4025 73.755 26.6241C72.6335 29.0062 70.9371 30.1146 71.1343 34.1216C71.2363 31.1402 72.453 29.1164 74.0296 26.9917C76.9186 30.8468 79.76 34.71 82.5602 38.5803Z" fill="url(#paint3_linear_81_1982)"/>
</g>
<g clip-path="url(#clip2_81_1982)">
<path d="M277.842 -10.9152C282.1 -13.3635 285.408 -13.041 290.048 -12.9492C290.735 -12.9159 294.915 -12.6071 295.153 -12.5042C295.76 -12.6298 296.873 -14.2876 297.444 -14.985C298.866 -16.7195 303.638 -22.721 304.995 -22.9903C305.148 -22.8917 305.334 -22.8103 305.447 -22.5968C305.648 -22.2119 305.556 -22.1749 305.363 -21.9727C305.339 -21.9017 301.446 -17.8119 301.068 -17.3795C299.408 -15.4607 297.696 -13.7338 296.199 -11.6509L296.97 -9.47478L297.896 -6.8114C298.386 -5.06229 299.098 -3.38438 299.503 -1.63336C300.771 3.82882 300.019 5.86862 297.894 11.082C297.603 11.6076 297.255 12.2724 296.918 12.7388C294.75 15.5947 293.077 17.6976 290.359 20.1269C289.729 20.6915 289.178 21.1725 288.501 21.7318C288.267 21.9269 287.965 22.097 287.681 22.2913C283.773 24.9726 279.43 26.728 274.958 28.2716C273.661 28.7186 272.338 29.1082 271.049 29.5551L269.101 30.1062C267.452 30.5213 265.795 30.7353 264.211 31.3559C263.093 31.7937 262.528 32.5907 261.615 32.8998C261.487 31.9906 262.185 31.0407 262.301 30.0737C262.421 29.0662 262.321 28.2853 262.241 27.2099C261.86 22.1568 262.418 15.316 263.179 10.476C263.775 6.67682 264.805 3.54048 266.472 0.669957C267.354 -0.847515 268.361 -2.29602 269.378 -3.60718C271.816 -6.74803 274.347 -8.90505 277.842 -10.9152Z" stroke="url(#paint4_linear_81_1982)" stroke-miterlimit="22.9256"/>
<path d="M261.763 32.5735C264.78 28.2684 267.82 23.9821 270.895 19.7173C268.304 19.4028 265.971 19.3583 263.361 20.7245C266.756 18.5681 268.553 19.5111 271.191 19.3066C273.432 16.2046 275.691 13.1116 277.975 10.0374C273.873 8.81902 270.122 8.09668 265.54 9.5965C271.543 7.06062 274.165 9.04129 278.43 9.42361C280.525 6.60729 282.365 4.1935 284.502 1.40497C281.252 1.7997 275.305 -1.21988 267.683 0.221023C275.956 -1.89944 279.198 0.257299 284.878 0.883774C286.972 -1.84546 289.086 -4.56035 291.226 -7.25732C285.98 -8.81086 281.18 -9.72935 275.318 -7.80952C283.013 -11.0595 286.383 -8.52679 291.843 -8.03289C295.854 -13.0728 299.953 -18.0553 304.158 -22.9626C304.824 -23.5479 305.765 -22.935 305.156 -21.8596C300.577 -16.722 296.136 -11.5532 291.821 -6.35763C293.617 -1.30283 296.772 1.40974 295.472 9.55059C295.93 3.45595 293.941 -0.962093 291.227 -5.64044C289.573 -3.64256 287.935 -1.64111 286.314 0.366597C287.5 5.75436 289.831 8.8271 288.538 17.1035C289.112 10.8381 287.733 6.08983 285.807 0.997485C283.268 4.14835 280.774 7.30543 278.312 10.4724C279.694 14.5788 282.28 16.6439 281.246 23.1262C281.609 18.3002 280.004 14.8252 277.836 11.114L277.925 10.9702C275.439 14.1785 272.988 17.3956 270.568 20.6173C271.69 22.9994 273.386 24.1077 273.189 28.1147C273.087 25.1334 271.87 23.1096 270.294 20.9848C267.405 24.84 264.563 28.7032 261.763 32.5735Z" fill="url(#paint5_linear_81_1982)"/>
</g>
<g clip-path="url(#clip3_81_1982)">
<path d="M38.2972 -5.02088C37.4821 -9.86432 35.1309 -12.2139 32.1118 -15.7381C31.6495 -16.2475 28.7549 -19.2789 28.5243 -19.3972C28.2356 -19.9457 28.8083 -21.8587 28.9842 -22.7425C29.4196 -24.9431 31.0217 -32.441 30.3671 -33.6602C30.194 -33.7155 30.013 -33.8072 29.7761 -33.7591C29.3513 -33.6696 29.3814 -33.5748 29.3475 -33.2978C29.308 -33.2341 28.6238 -27.6292 28.5304 -27.0623C28.1034 -24.5614 27.858 -22.142 27.2009 -19.6624L25.0306 -18.8752L22.3858 -17.8976C20.7235 -17.1649 18.9755 -16.6485 17.3664 -15.8482C12.3427 -13.3569 11.2454 -11.4801 8.57053 -6.52603C8.34924 -5.96783 8.0573 -5.27636 7.91143 -4.71967C7.08394 -1.23077 6.52311 1.3972 6.37437 5.0395C6.33887 5.88492 6.31731 6.61571 6.31557 7.49377C6.31339 7.79819 6.37391 8.13937 6.40486 8.48274C6.81745 13.2038 8.22205 17.6731 9.87131 22.1065C10.3508 23.3926 10.8907 24.6617 11.3645 25.9408L12.1767 27.795C12.9042 29.3323 13.7918 30.7478 14.3188 32.3648C14.6915 33.5066 14.4346 34.4488 14.7762 35.3504C15.5599 34.8717 15.8495 33.7288 16.5228 33.0251C17.2245 32.2923 17.8912 31.8735 18.772 31.2514C22.9157 28.3345 27.8437 23.5573 31.0971 19.894C33.6521 17.0197 35.4192 14.2312 36.5765 11.1202C37.1877 9.47481 37.6664 7.77689 38.0325 6.15841C38.9089 2.28046 38.9662 -1.04453 38.2972 -5.02088Z" stroke="url(#paint6_linear_81_1982)" stroke-miterlimit="22.9256"/>
<path d="M14.9335 35.0287C16.341 29.964 17.7186 24.8926 19.058 19.8085C20.9471 21.6092 22.4638 23.3822 23.0678 26.2661C22.5752 22.274 20.7054 21.486 19.187 19.3189C20.1581 15.6173 21.1108 11.9074 22.0337 8.19084C25.581 10.5841 28.5219 13.021 30.2752 17.5118C28.4194 11.2659 25.2233 10.4992 22.2183 7.44931C23.0619 4.0423 23.756 1.0871 24.5514 -2.33485C26.3119 0.425746 32.4224 3.09905 36.1532 9.90019C32.5332 2.16416 28.8083 1.03189 24.7151 -2.95607C25.4919 -6.30719 26.2451 -9.66446 26.9673 -13.0311C31.5006 -9.96736 35.2599 -6.84455 37.5022 -1.09857C35.1222 -9.10528 31.025 -10.0982 27.1746 -13.9999C28.5173 -20.2997 29.7598 -26.631 30.8768 -32.9963C30.9061 -33.8819 29.8348 -34.2192 29.3911 -33.0659C28.3342 -26.2651 27.1647 -19.5519 25.8948 -12.9186C20.8504 -11.0934 16.7509 -11.8062 11.2909 -5.62952C15.7062 -9.8555 20.3817 -11.1268 25.7185 -12.0042C25.2269 -9.45737 24.7224 -6.92074 24.2022 -4.3933C19.2878 -1.88616 15.434 -1.73352 9.86517 4.52426C14.3385 0.100044 18.8813 -1.85219 24.0368 -3.60144C23.2171 0.361109 22.3646 4.29368 21.4835 8.20685C17.4343 9.74875 14.1969 9.06465 9.84813 13.9816C13.3443 10.6353 17.047 9.66607 21.2904 8.98197L21.3446 8.82159C20.4475 12.7804 19.5207 16.7171 18.5704 20.6324C16.0185 21.2801 14.0847 20.6745 11.1159 23.3729C13.4829 21.5572 15.8187 21.2108 18.4611 21.078C17.3201 25.7584 16.1427 30.4072 14.9335 35.0287Z" fill="url(#paint7_linear_81_1982)"/>
</g>
<g clip-path="url(#clip4_81_1982)">
<path d="M225.447 -0.159555C226.262 -5.00299 228.613 -7.35259 231.632 -10.8768C232.095 -11.3862 234.989 -14.4176 235.22 -14.5359C235.509 -15.0843 234.936 -16.9973 234.76 -17.8812C234.325 -20.0818 232.722 -27.5797 233.377 -28.7989C233.55 -28.8541 233.731 -28.9459 233.968 -28.8978C234.393 -28.8082 234.363 -28.7135 234.397 -28.4364C234.436 -28.3728 235.12 -22.7679 235.214 -22.2009C235.641 -19.7 235.886 -17.2807 236.543 -14.8011L238.714 -14.0139L241.358 -13.0362C243.021 -12.3036 244.769 -11.7872 246.378 -10.9868C251.401 -8.49554 252.499 -6.61881 255.174 -1.6647C255.395 -1.1065 255.687 -0.415036 255.833 0.141659C256.66 3.63056 257.221 6.25853 257.37 9.90083C257.405 10.7462 257.427 11.477 257.429 12.3551C257.431 12.6595 257.37 13.0007 257.339 13.3441C256.927 18.0651 255.522 22.5344 253.873 26.9678C253.393 28.2539 252.853 29.523 252.38 30.8022L251.567 32.6563C250.84 34.1936 249.952 35.6091 249.425 37.2261C249.053 38.3679 249.31 39.3101 248.968 40.2117C248.184 39.733 247.895 38.5901 247.221 37.8864C246.52 37.1536 245.853 36.7348 244.972 36.1127C240.828 33.1959 235.9 28.4187 232.647 24.7553C230.092 21.8811 228.325 19.0925 227.168 15.9815C226.556 14.3361 226.078 12.6382 225.712 11.0197C224.835 7.14178 224.778 3.81679 225.447 -0.159555Z" stroke="url(#paint8_linear_81_1982)" stroke-miterlimit="22.9256"/>
<path d="M248.811 39.89C247.403 34.8254 246.025 29.7539 244.686 24.6698C242.797 26.4705 241.28 28.2435 240.676 31.1275C241.169 27.1353 243.039 26.3473 244.557 24.1803C243.586 20.4786 242.633 16.7688 241.71 13.0522C238.163 15.4454 235.222 17.8823 233.469 22.3732C235.325 16.1273 238.521 15.3606 241.526 12.3106C240.682 8.90362 239.988 5.94843 239.193 2.52648C237.432 5.28707 231.322 7.96038 227.591 14.7615C231.211 7.02549 234.936 5.89322 239.029 1.90526C238.252 -1.44586 237.499 -4.80313 236.777 -8.16981C232.244 -5.10604 228.484 -1.98322 226.242 3.76276C228.622 -4.24395 232.719 -5.23692 236.57 -9.13856C235.227 -15.4384 233.984 -21.7697 232.867 -28.135C232.838 -29.0205 233.909 -29.3578 234.353 -28.2046C235.41 -21.4038 236.579 -14.6906 237.849 -8.0573C242.894 -6.23212 246.993 -6.9449 252.453 -0.768192C248.038 -4.99417 243.362 -6.26546 238.026 -7.14288C238.517 -4.59605 239.022 -2.05941 239.542 0.468026C244.456 2.97517 248.31 3.12781 253.879 9.38559C249.406 4.96137 244.863 3.00913 239.707 1.25988C240.527 5.22244 241.38 9.15501 242.261 13.0682C246.31 14.6101 249.547 13.926 253.896 18.843C250.4 15.4966 246.697 14.5274 242.454 13.8433L242.4 13.6829C243.297 17.6417 244.223 21.5784 245.174 25.4937C247.726 26.1414 249.659 25.5358 252.628 28.2342C250.261 26.4186 247.925 26.0721 245.283 25.9393C246.424 30.6197 247.601 35.2686 248.811 39.89Z" fill="url(#paint9_linear_81_1982)"/>
</g>
<g clip-path="url(#clip5_81_1982)">
<path d="M210.632 6.27599C209.817 1.43255 207.466 -0.917048 204.446 -4.44125C203.984 -4.95066 201.09 -7.98207 200.859 -8.10035C200.57 -8.64878 201.143 -10.5618 201.319 -11.4457C201.754 -13.6462 203.356 -21.1442 202.702 -22.3633C202.529 -22.4186 202.348 -22.5103 202.111 -22.4622C201.686 -22.3727 201.716 -22.278 201.682 -22.0009C201.643 -21.9372 200.958 -16.3324 200.865 -15.7654C200.438 -13.2645 200.193 -10.8451 199.536 -8.36556L197.365 -7.57835L194.721 -6.6007C193.058 -5.86806 191.31 -5.35161 189.701 -4.55128C184.677 -2.05999 183.58 -0.183262 180.905 4.77084C180.684 5.32905 180.392 6.02051 180.246 6.57721C179.419 10.0661 178.858 12.6941 178.709 16.3364C178.674 17.1818 178.652 17.9126 178.65 18.7906C178.648 19.0951 178.709 19.4362 178.74 19.7796C179.152 24.5006 180.557 28.9699 182.206 33.4034C182.686 34.6895 183.225 35.9585 183.699 37.2377L184.511 39.0918C185.239 40.6292 186.127 42.0446 186.654 43.6617C187.026 44.8034 186.769 45.7456 187.111 46.6472C187.895 46.1685 188.184 45.0256 188.857 44.3219C189.559 43.5892 190.226 43.1704 191.107 42.5483C195.25 39.6314 200.178 34.8542 203.432 31.1908C205.987 28.3166 207.754 25.5281 208.911 22.4171C209.522 20.7717 210.001 19.0738 210.367 17.4553C211.244 13.5773 211.301 10.2523 210.632 6.27599Z" stroke="url(#paint10_linear_81_1982)" stroke-miterlimit="22.9256"/>
<path d="M187.268 46.3256C188.676 41.2609 190.053 36.1895 191.393 31.1053C193.282 32.906 194.799 34.679 195.403 37.563C194.91 33.5708 193.04 32.7829 191.522 30.6158C192.493 26.9142 193.446 23.2043 194.368 19.4877C197.916 21.881 200.857 24.3179 202.61 28.8087C200.754 22.5628 197.558 21.7961 194.553 18.7462C195.397 15.3392 196.091 12.384 196.886 8.96202C198.647 11.7226 204.757 14.3959 208.488 21.1971C204.868 13.461 201.143 12.3288 197.05 8.34081C197.827 4.98969 198.58 1.63242 199.302 -1.73427C203.835 1.32951 207.595 4.45232 209.837 10.1983C207.457 2.1916 203.36 1.19863 199.509 -2.70301C200.852 -9.00281 202.094 -15.3341 203.212 -21.6994C203.241 -22.585 202.17 -22.9223 201.726 -21.769C200.669 -14.9683 199.499 -8.25501 198.229 -1.62175C193.185 0.203427 189.086 -0.509351 183.626 5.66735C188.041 1.44138 192.716 0.170092 198.053 -0.707329C197.562 1.8395 197.057 4.37613 196.537 6.90357C191.623 9.41072 187.769 9.56336 182.2 15.8211C186.673 11.3969 191.216 9.44468 196.371 7.69543C195.552 11.658 194.699 15.5906 193.818 19.5037C189.769 21.0456 186.532 20.3615 182.183 25.2785C185.679 21.9322 189.382 20.9629 193.625 20.2788L193.679 20.1185C192.782 24.0772 191.855 28.014 190.905 31.9293C188.353 32.577 186.419 31.9713 183.451 34.6698C185.818 32.8541 188.153 32.5076 190.796 32.3748C189.655 37.0553 188.477 41.7041 187.268 46.3256Z" fill="url(#paint11_linear_81_1982)"/>
</g>
<g clip-path="url(#clip6_81_1982)">
<path d="M125.252 -4.02088C124.437 -8.86432 122.085 -11.2139 119.066 -14.7381C118.604 -15.2475 115.71 -18.2789 115.479 -18.3972C115.19 -18.9457 115.763 -20.8587 115.939 -21.7425C116.374 -23.9431 117.976 -31.441 117.322 -32.6602C117.149 -32.7155 116.968 -32.8072 116.731 -32.7591C116.306 -32.6696 116.336 -32.5748 116.302 -32.2978C116.263 -32.2341 115.578 -26.6292 115.485 -26.0623C115.058 -23.5614 114.813 -21.142 114.156 -18.6624L111.985 -17.8752L109.34 -16.8976C107.678 -16.1649 105.93 -15.6485 104.321 -14.8482C99.2972 -12.3569 98.2 -10.4801 95.5251 -5.52603C95.3038 -4.96783 95.0119 -4.27636 94.866 -3.71967C94.0385 -0.230772 93.4777 2.3972 93.329 6.0395C93.2935 6.88492 93.2719 7.61571 93.2702 8.49377C93.268 8.79819 93.3285 9.13937 93.3595 9.48274C93.772 14.2038 95.1766 18.6731 96.8259 23.1065C97.3054 24.3926 97.8453 25.6617 98.3191 26.9408L99.1312 28.795C99.8588 30.3323 100.746 31.7478 101.273 33.3648C101.646 34.5066 101.389 35.4488 101.731 36.3504C102.514 35.8717 102.804 34.7288 103.477 34.0251C104.179 33.2923 104.846 32.8735 105.727 32.2514C109.87 29.3345 114.798 24.5573 118.052 20.894C120.607 18.0197 122.374 15.2312 123.531 12.1202C124.142 10.4748 124.621 8.77689 124.987 7.15841C125.863 3.28046 125.921 -0.0445341 125.252 -4.02088Z" stroke="url(#paint12_linear_81_1982)" stroke-miterlimit="22.9256"/>
<path d="M101.888 36.0287C103.296 30.964 104.673 25.8926 106.013 20.8085C107.902 22.6092 109.418 24.3822 110.022 27.2661C109.53 23.274 107.66 22.486 106.142 20.3189C107.113 16.6173 108.065 12.9074 108.988 9.19084C112.536 11.5841 115.476 14.021 117.23 18.5118C115.374 12.2659 112.178 11.4992 109.173 8.44931C110.016 5.0423 110.711 2.0871 111.506 -1.33485C113.267 1.42575 119.377 4.09905 123.108 10.9002C119.488 3.16416 115.763 2.03189 111.67 -1.95607C112.447 -5.30719 113.2 -8.66446 113.922 -12.0311C118.455 -8.96736 122.215 -5.84455 124.457 -0.0985694C122.077 -8.10528 117.98 -9.09825 114.129 -12.9999C115.472 -19.2997 116.714 -25.631 117.831 -31.9963C117.861 -32.8819 116.789 -33.2192 116.346 -32.0659C115.289 -25.2651 114.119 -18.5519 112.849 -11.9186C107.805 -10.0934 103.705 -10.8062 98.2455 -4.62952C102.661 -8.8555 107.336 -10.1268 112.673 -11.0042C112.182 -8.45737 111.677 -5.92074 111.157 -3.3933C106.242 -0.886159 102.389 -0.733517 96.8198 5.52426C101.293 1.10004 105.836 -0.852194 110.991 -2.60144C110.172 1.36111 109.319 5.29368 108.438 9.20685C104.389 10.7488 101.151 10.0646 96.8027 14.9816C100.299 11.6353 104.002 10.6661 108.245 9.98197L108.299 9.82159C107.402 13.7804 106.475 17.7171 105.525 21.6324C102.973 22.2801 101.039 21.6745 98.0705 24.3729C100.437 22.5572 102.773 22.2108 105.416 22.078C104.275 26.7584 103.097 31.4072 101.888 36.0287Z" fill="url(#paint13_linear_81_1982)"/>
</g>
<defs>
<linearGradient id="paint0_linear_81_1982" x1="177.579" y1="17.2513" x2="120.278" y2="2.30757" gradientUnits="userSpaceOnUse">
<stop offset="0.322917" stop-color="#00BD8D"/>
<stop offset="1" stop-color="#00392D"/>
</linearGradient>
<linearGradient id="paint1_linear_81_1982" x1="177.415" y1="16.9133" x2="120.443" y2="2.0553" gradientUnits="userSpaceOnUse">
<stop offset="0.322917" stop-color="#00BD8D"/>
<stop offset="1" stop-color="#00392D"/>
</linearGradient>
<linearGradient id="paint2_linear_81_1982" x1="88.9392" y1="20.3176" x2="32.7915" y2="1.49741" gradientUnits="userSpaceOnUse">
<stop offset="0.322917" stop-color="#00BD8D"/>
<stop offset="1" stop-color="#00392D"/>
</linearGradient>
<linearGradient id="paint3_linear_81_1982" x1="88.7987" y1="19.9684" x2="32.9732" y2="1.25618" gradientUnits="userSpaceOnUse">
<stop offset="0.322917" stop-color="#00BD8D"/>
<stop offset="1" stop-color="#00392D"/>
</linearGradient>
<linearGradient id="paint4_linear_81_1982" x1="255.384" y1="14.3108" x2="311.532" y2="-4.50942" gradientUnits="userSpaceOnUse">
<stop offset="0.322917" stop-color="#00BD8D"/>
<stop offset="1" stop-color="#00392D"/>
</linearGradient>
<linearGradient id="paint5_linear_81_1982" x1="255.525" y1="13.9615" x2="311.35" y2="-4.75066" gradientUnits="userSpaceOnUse">
<stop offset="0.322917" stop-color="#00BD8D"/>
<stop offset="1" stop-color="#00392D"/>
</linearGradient>
<linearGradient id="paint6_linear_81_1982" x1="33.0892" y1="28.3495" x2="11.9434" y2="-26.9642" gradientUnits="userSpaceOnUse">
<stop offset="0.322917" stop-color="#00BD8D"/>
<stop offset="1" stop-color="#00392D"/>
</linearGradient>
<linearGradient id="paint7_linear_81_1982" x1="33.269" y1="28.0192" x2="12.2444" y2="-26.9771" gradientUnits="userSpaceOnUse">
<stop offset="0.322917" stop-color="#00BD8D"/>
<stop offset="1" stop-color="#00392D"/>
</linearGradient>
<linearGradient id="paint8_linear_81_1982" x1="230.655" y1="33.2108" x2="251.801" y2="-22.1029" gradientUnits="userSpaceOnUse">
<stop offset="0.322917" stop-color="#00BD8D"/>
<stop offset="1" stop-color="#00392D"/>
</linearGradient>
<linearGradient id="paint9_linear_81_1982" x1="230.475" y1="32.8806" x2="251.5" y2="-22.1158" gradientUnits="userSpaceOnUse">
<stop offset="0.322917" stop-color="#00BD8D"/>
<stop offset="1" stop-color="#00392D"/>
</linearGradient>
<linearGradient id="paint10_linear_81_1982" x1="205.424" y1="39.6464" x2="184.278" y2="-15.6674" gradientUnits="userSpaceOnUse">
<stop offset="0.322917" stop-color="#00BD8D"/>
<stop offset="1" stop-color="#00392D"/>
</linearGradient>
<linearGradient id="paint11_linear_81_1982" x1="205.604" y1="39.3161" x2="184.579" y2="-15.6803" gradientUnits="userSpaceOnUse">
<stop offset="0.322917" stop-color="#00BD8D"/>
<stop offset="1" stop-color="#00392D"/>
</linearGradient>
<linearGradient id="paint12_linear_81_1982" x1="120.044" y1="29.3495" x2="98.8979" y2="-25.9642" gradientUnits="userSpaceOnUse">
<stop offset="0.322917" stop-color="#00BD8D"/>
<stop offset="1" stop-color="#00392D"/>
</linearGradient>
<linearGradient id="paint13_linear_81_1982" x1="120.224" y1="29.0192" x2="99.199" y2="-25.9771" gradientUnits="userSpaceOnUse">
<stop offset="0.322917" stop-color="#00BD8D"/>
<stop offset="1" stop-color="#00392D"/>
</linearGradient>
<clipPath id="clip0_81_1982">
<rect width="39.9013" height="59.852" fill="white" transform="translate(183.121 -1.5918) rotate(104.617)"/>
</clipPath>
<clipPath id="clip1_81_1982">
<rect width="39.9013" height="59.852" fill="white" transform="translate(95.7537 1.89648) rotate(108.531)"/>
</clipPath>
<clipPath id="clip2_81_1982">
<rect width="39.9013" height="59.852" fill="white" transform="matrix(0.317812 0.948154 0.948154 -0.317812 248.57 -4.11035)"/>
</clipPath>
<clipPath id="clip3_81_1982">
<rect width="39.9013" height="59.852" fill="white" transform="translate(51.6431 21.9062) rotate(159.079)"/>
</clipPath>
<clipPath id="clip4_81_1982">
<rect width="39.9013" height="59.852" fill="white" transform="matrix(0.934071 0.357086 0.357086 -0.934071 212.101 26.7676)"/>
</clipPath>
<clipPath id="clip5_81_1982">
<rect width="39.9013" height="59.852" fill="white" transform="translate(223.978 33.2031) rotate(159.079)"/>
</clipPath>
<clipPath id="clip6_81_1982">
<rect width="39.9013" height="59.852" fill="white" transform="translate(138.598 22.9062) rotate(159.079)"/>
</clipPath>
</defs>
</svg>
