<svg width="1254" height="130" viewBox="0 0 1254 130" fill="none" xmlns="http://www.w3.org/2000/svg">
    <g clip-path="url(#clip0_2_2235)">
        <path
            d="M339.94 -21.9643C329.65 -26.9801 322.008 -25.7038 311.234 -24.7521C309.642 -24.5655 299.971 -23.1824 299.434 -22.9052C298.003 -23.1007 295.15 -26.7785 293.712 -28.3094C290.129 -32.1164 278.078 -45.3126 274.879 -45.7228C274.54 -45.4694 274.121 -45.2504 273.891 -44.7358C273.485 -43.8089 273.706 -43.7377 274.186 -43.2981C274.253 -43.1369 283.956 -34.246 284.905 -33.3009C289.07 -29.103 293.326 -25.36 297.138 -20.7546L295.691 -15.5718L293.962 -9.23137C293.1 -5.08608 291.711 -1.07116 291.049 3.06486C288.968 15.968 291.041 20.5915 296.813 32.3761C297.572 33.552 298.488 35.0425 299.347 36.0733C304.843 42.3693 309.067 46.9931 315.773 52.2096C317.329 53.4222 318.686 54.4531 320.349 55.646C320.923 56.0625 321.652 56.4099 322.345 56.8164C331.858 62.4296 342.237 65.8204 352.88 68.6985C355.969 69.5314 359.107 70.2267 362.175 71.061L366.792 72.0325C370.693 72.7354 374.58 72.9694 378.361 74.1606C381.032 75.0006 382.47 76.7642 384.643 77.3377C384.797 75.203 383.022 73.1054 382.599 70.8751C382.16 68.5515 382.269 66.7197 382.282 64.2064C382.364 52.3959 379.98 36.5775 377.439 25.4442C375.449 16.7046 372.554 9.57557 368.222 3.16587C365.929 -0.222389 363.358 -3.43042 360.784 -6.31747C354.616 -13.2331 348.388 -17.8462 339.94 -21.9643Z"
            stroke="url(#paint0_linear_2_2235)" stroke-miterlimit="22.9256"/>
        <path
            d="M384.247 76.6046C376.548 67.0738 368.796 57.5906 360.968 48.1628C366.943 47.0194 372.36 46.5446 378.648 49.3061C370.409 44.8321 366.382 47.3108 360.214 47.2549C354.509 40.3984 348.764 33.5655 342.965 26.7803C352.31 23.2946 360.916 21.0183 371.809 23.7769C357.449 18.8351 351.665 23.858 341.809 25.4255C336.49 19.2099 331.826 13.89 326.413 7.74574C334.034 8.14651 347.382 0.178912 365.336 2.31682C345.759 -1.29761 338.566 4.23312 325.457 6.59356C320.154 0.580385 314.807 -5.39631 309.4 -11.327C321.352 -15.7741 332.367 -18.6736 346.303 -15.1419C327.893 -21.475 320.459 -15.0494 307.843 -13.0324C297.714 -24.1136 287.389 -35.0473 276.83 -45.7892C275.19 -47.0444 273.099 -45.4696 274.685 -43.0657C286.152 -31.8479 297.3 -20.5352 308.16 -9.14037C304.788 2.89936 297.882 9.70892 302.2 28.4321C300.167 14.333 304.09 3.74315 309.655 -7.5672C313.82 -3.18468 317.947 1.20871 322.036 5.61938C320.134 18.3364 315.202 25.8524 319.526 44.8918C317.195 30.4141 319.647 19.1534 323.314 7.00584C329.719 13.9287 336.022 20.873 342.251 27.8454C339.689 37.614 334.006 42.8273 337.44 57.7364C335.83 46.5721 339.008 38.2364 343.459 29.2617L343.228 28.9416C349.521 36.0062 355.732 43.0972 361.87 50.2036C359.642 55.9212 355.873 58.7683 356.969 68.0545C356.732 61.1056 359.239 56.2061 362.567 51.0146C369.898 59.5194 377.12 68.0504 384.247 76.6046Z"
            fill="url(#paint1_linear_2_2235)"/>
    </g>
    <g clip-path="url(#clip1_2_2235)">
        <path
            d="M845.94 -26.9643C835.65 -31.9801 828.008 -30.7038 817.234 -29.7521C815.642 -29.5655 805.971 -28.1824 805.434 -27.9052C804.003 -28.1007 801.15 -31.7785 799.712 -33.3094C796.129 -37.1164 784.078 -50.3126 780.879 -50.7228C780.54 -50.4694 780.121 -50.2504 779.891 -49.7358C779.485 -48.8089 779.706 -48.7377 780.186 -48.2981C780.253 -48.1369 789.956 -39.246 790.905 -38.3009C795.07 -34.103 799.326 -30.36 803.138 -25.7546L801.691 -20.5718L799.962 -14.2314C799.1 -10.0861 797.711 -6.07116 797.049 -1.93514C794.968 10.968 797.041 15.5915 802.813 27.3761C803.572 28.552 804.488 30.0425 805.347 31.0733C810.843 37.3693 815.067 41.9931 821.773 47.2096C823.329 48.4222 824.686 49.4531 826.349 50.646C826.923 51.0625 827.652 51.4099 828.345 51.8164C837.858 57.4296 848.237 60.8204 858.88 63.6985C861.969 64.5314 865.107 65.2267 868.175 66.061L872.792 67.0325C876.693 67.7354 880.58 67.9694 884.361 69.1606C887.032 70.0006 888.47 71.7642 890.643 72.3377C890.797 70.203 889.022 68.1054 888.599 65.8751C888.16 63.5515 888.269 61.7197 888.282 59.2064C888.364 47.3959 885.98 31.5775 883.439 20.4442C881.449 11.7046 878.554 4.57557 874.222 -1.83413C871.929 -5.22239 869.358 -8.43042 866.784 -11.3175C860.616 -18.2331 854.388 -22.8462 845.94 -26.9643Z"
            stroke="url(#paint2_linear_2_2235)" stroke-miterlimit="22.9256"/>
        <path
            d="M890.247 71.6046C882.548 62.0738 874.796 52.5906 866.968 43.1628C872.943 42.0194 878.36 41.5446 884.648 44.3061C876.409 39.8321 872.382 42.3108 866.214 42.2549C860.509 35.3984 854.764 28.5655 848.965 21.7803C858.31 18.2946 866.916 16.0183 877.809 18.7769C863.449 13.8351 857.665 18.858 847.809 20.4255C842.49 14.2099 837.826 8.89 832.413 2.74574C840.034 3.14651 853.382 -4.82109 871.336 -2.68318C851.759 -6.29761 844.566 -0.766875 831.457 1.59356C826.154 -4.41961 820.807 -10.3963 815.4 -16.327C827.352 -20.7741 838.367 -23.6736 852.303 -20.1419C833.893 -26.475 826.459 -20.0494 813.843 -18.0324C803.714 -29.1136 793.389 -40.0473 782.83 -50.7892C781.19 -52.0444 779.099 -50.4696 780.685 -48.0657C792.152 -36.8479 803.3 -25.5352 814.16 -14.1404C810.788 -2.10064 803.882 4.70892 808.2 23.4321C806.167 9.33296 810.09 -1.25685 815.655 -12.5672C819.82 -8.18468 823.947 -3.79129 828.036 0.619377C826.134 13.3364 821.202 20.8524 825.526 39.8918C823.195 25.4141 825.647 14.1534 829.314 2.00584C835.719 8.92866 842.022 15.873 848.251 22.8454C845.689 32.614 840.006 37.8273 843.44 52.7364C841.83 41.5721 845.008 33.2364 849.459 24.2617L849.228 23.9416C855.521 31.0062 861.732 38.0972 867.87 45.2036C865.642 50.9212 861.873 53.7683 862.969 63.0545C862.732 56.1056 865.239 51.2061 868.567 46.0146C875.898 54.5194 883.12 63.0504 890.247 71.6046Z"
            fill="url(#paint3_linear_2_2235)"/>
    </g>
    <g clip-path="url(#clip2_2_2235)">
        <path
            d="M137.233 -18.5265C127.309 -24.2329 119.598 -23.4813 108.784 -23.2672C107.183 -23.1897 97.4402 -22.47 96.8857 -22.2301C95.4712 -22.5227 92.8766 -26.3867 91.5462 -28.0122C88.2308 -32.0549 77.1094 -46.0429 73.9459 -46.6705C73.59 -46.4408 73.1569 -46.2509 72.8925 -45.7533C72.4245 -44.8562 72.6397 -44.7701 73.0881 -44.2988C73.1442 -44.1334 82.2179 -34.6009 83.1 -33.5933C86.9685 -29.1208 90.9591 -25.096 94.4485 -20.2412L92.6508 -15.1693L90.4934 -8.96159C89.35 -4.88484 87.6906 -0.97407 86.7478 3.10712C83.791 15.8381 85.5435 20.5924 90.4979 32.7435C91.1747 33.9684 91.9868 35.5179 92.7727 36.6049C97.8261 43.2613 101.725 48.1628 108.06 53.8248C109.529 55.1408 110.812 56.2619 112.39 57.5655C112.934 58.0203 113.638 58.4167 114.302 58.8695C123.409 65.1189 133.533 69.2103 143.954 72.8081C146.979 73.8499 150.063 74.7579 153.067 75.7996L157.606 77.084C161.451 78.0515 165.313 78.5503 169.003 79.9968C171.61 81.0171 172.925 82.8749 175.054 83.5953C175.353 81.476 173.725 79.2622 173.456 77.0082C173.176 74.6601 173.41 72.84 173.595 70.3334C174.482 58.5561 173.183 42.6118 171.409 31.3311C170.02 22.4761 167.618 15.166 163.734 8.47557C161.678 4.93873 159.331 1.56263 156.96 -1.49336C151.279 -8.8139 145.38 -13.8414 137.233 -18.5265Z"
            stroke="url(#paint4_linear_2_2235)" stroke-miterlimit="22.9256"/>
        <path
            d="M174.709 82.8366C167.678 72.8025 160.591 62.8122 153.425 52.8721C159.464 52.1392 164.901 52.0353 170.986 55.2195C163.071 50.1937 158.884 52.3916 152.735 51.9149C147.512 44.685 142.246 37.4759 136.924 30.3106C146.485 27.471 155.226 25.7874 165.905 29.2831C151.916 23.3726 145.802 27.989 135.863 28.8801C130.981 22.316 126.69 16.69 121.71 10.1907C129.285 11.1107 143.146 4.0728 160.912 7.43119C141.628 2.48893 134.073 7.51574 120.834 8.9759C115.954 2.61475 111.027 -3.71299 106.038 -9.99895C118.265 -13.6198 129.453 -15.7606 143.115 -11.286C125.181 -18.8609 117.325 -12.9578 104.601 -11.8066C95.2519 -23.5533 85.6976 -35.1663 75.8962 -46.6039C74.3459 -47.9681 72.1522 -46.5397 73.5706 -44.0332C84.2447 -32.0588 94.5945 -20.0116 104.652 -7.90199C100.466 3.87948 93.1112 10.2018 96.141 29.1761C95.0747 14.971 99.7114 4.67365 106.036 -6.23041C109.892 -1.57386 113.71 3.09102 117.488 7.77049C114.722 20.328 109.289 27.4898 112.303 46.78C110.966 32.177 114.181 21.1099 118.668 9.24093C124.585 16.5848 130.4 23.9432 136.138 31.3245C132.916 40.8954 126.89 45.7087 129.299 60.8174C128.454 49.5692 132.194 41.4699 137.247 32.8199L137.039 32.4849C142.835 39.9625 148.547 47.4609 154.186 54.9697C151.572 60.5219 147.618 63.1051 148.078 72.4444C148.315 65.4956 151.151 60.7787 154.826 55.8264C161.559 64.8118 168.182 73.8159 174.709 82.8366Z"
            fill="url(#paint5_linear_2_2235)"/>
    </g>
    <g clip-path="url(#clip3_2_2235)">
        <path
            d="M643.232 -23.5265C633.308 -29.2329 625.598 -28.4813 614.784 -28.2672C613.182 -28.1897 603.44 -27.47 602.885 -27.2301C601.471 -27.5227 598.876 -31.3867 597.546 -33.0122C594.23 -37.0549 583.109 -51.0429 579.945 -51.6705C579.59 -51.4408 579.156 -51.2509 578.892 -50.7533C578.424 -49.8562 578.639 -49.7701 579.088 -49.2988C579.144 -49.1334 588.217 -39.6009 589.1 -38.5933C592.968 -34.1208 596.959 -30.096 600.448 -25.2412L598.65 -20.1693L596.493 -13.9616C595.349 -9.88484 593.69 -5.97407 592.747 -1.89288C589.791 10.8381 591.543 15.5924 596.497 27.7435C597.174 28.9684 597.986 30.5179 598.772 31.6049C603.826 38.2613 607.725 43.1628 614.059 48.8248C615.528 50.1408 616.812 51.2619 618.389 52.5655C618.934 53.0203 619.638 53.4167 620.301 53.8695C629.409 60.1189 639.532 64.2103 649.954 67.8081C652.979 68.8499 656.062 69.7579 659.066 70.7996L663.606 72.084C667.45 73.0515 671.312 73.5503 675.003 74.9968C677.61 76.0171 678.925 77.8749 681.053 78.5953C681.352 76.476 679.724 74.2622 679.455 72.0082C679.176 69.6601 679.409 67.84 679.594 65.3334C680.482 53.5561 679.183 37.6118 677.408 26.3311C676.019 17.4761 673.618 10.166 669.733 3.47557C667.677 -0.0612717 665.33 -3.43737 662.96 -6.49336C657.279 -13.8139 651.379 -18.8414 643.232 -23.5265Z"
            stroke="url(#paint6_linear_2_2235)" stroke-miterlimit="22.9256"/>
        <path
            d="M680.708 77.8366C673.678 67.8025 666.591 57.8122 659.425 47.8721C665.463 47.1392 670.9 47.0353 676.985 50.2195C669.071 45.1937 664.884 47.3916 658.735 46.9149C653.511 39.685 648.246 32.4759 642.923 25.3106C652.484 22.471 661.226 20.7874 671.904 24.2831C657.915 18.3726 651.802 22.989 641.862 23.8801C636.98 17.316 632.69 11.69 627.709 5.19066C635.285 6.11069 649.146 -0.927195 666.911 2.43119C647.627 -2.51107 640.073 2.51574 626.834 3.9759C621.953 -2.38525 617.027 -8.71299 612.037 -14.999C624.265 -18.6198 635.453 -20.7606 649.115 -16.286C631.18 -23.8609 623.325 -17.9578 610.601 -16.8066C601.251 -28.5533 591.697 -40.1663 581.896 -51.6039C580.345 -52.9681 578.152 -51.5397 579.57 -49.0332C590.244 -37.0588 600.594 -25.0116 610.651 -12.902C606.465 -1.12052 599.111 5.20179 602.141 24.1761C601.074 9.97098 605.711 -0.326355 612.036 -11.2304C615.891 -6.57386 619.709 -1.90898 623.487 2.77049C620.721 15.328 615.288 22.4898 618.303 41.78C616.966 27.177 620.18 16.1099 624.667 4.24093C630.585 11.5848 636.4 18.9432 642.137 26.3245C638.915 35.8954 632.889 40.7087 635.298 55.8174C634.454 44.5692 638.193 36.4699 643.247 27.8199L643.038 27.4849C648.834 34.9625 654.546 42.4609 660.185 49.9697C657.572 55.5219 653.618 58.1051 654.077 67.4444C654.315 60.4956 657.151 55.7787 660.825 50.8264C667.559 59.8118 674.182 68.8159 680.708 77.8366Z"
            fill="url(#paint7_linear_2_2235)"/>
    </g>
    <g clip-path="url(#clip4_2_2235)">
        <path
            d="M69.2108 1.13143C67.3111 -13.9865 61.831 -21.3203 54.7942 -32.3204C53.7168 -33.9105 46.9703 -43.3725 46.4327 -43.7416C45.7598 -45.4535 47.0947 -51.4246 47.5045 -54.1834C48.5195 -61.052 52.2534 -84.4555 50.7279 -88.2609C50.3244 -88.4334 49.9026 -88.7197 49.3503 -88.5696C48.3602 -88.2901 48.4305 -87.9944 48.3515 -87.1296C48.2594 -86.9308 46.6645 -69.4363 46.447 -67.6667C45.4517 -59.8605 44.8797 -52.309 43.3483 -44.5695L38.2897 -42.1123L32.1255 -39.0608C28.251 -36.774 24.1768 -35.162 20.4265 -32.6639C8.71734 -24.8878 6.15986 -19.0299 -0.0745332 -3.56661C-0.590304 -1.82429 -1.27073 0.333994 -1.61072 2.07161C-3.5394 12.9616 -4.84655 21.1643 -5.19323 32.5331C-5.27596 35.1719 -5.32622 37.4529 -5.33028 40.1936C-5.33535 41.1438 -5.1943 42.2087 -5.12215 43.2805C-4.16051 58.0163 -0.886754 71.9664 2.95727 85.8045C4.07486 89.8188 5.33316 93.78 6.43749 97.7726L8.33045 103.56C10.0262 108.359 12.095 112.777 13.3233 117.824C14.1919 121.388 13.5931 124.329 14.3894 127.143C16.2159 125.649 16.8908 122.081 18.4601 119.885C20.0956 117.598 21.6496 116.29 23.7025 114.349C33.3604 105.244 44.8465 90.333 52.4293 78.8985C58.3844 69.9271 62.5029 61.2233 65.2004 51.5127C66.625 46.377 67.7406 41.0773 68.594 36.0255C70.6366 23.9212 70.77 13.5429 69.2108 1.13143Z"
            stroke="url(#paint8_linear_2_2235)" stroke-miterlimit="22.9256"/>
        <path
            d="M14.7562 126.14C18.0368 110.332 21.2477 94.5023 24.3693 78.6332C28.7723 84.2537 32.3075 89.7878 33.7152 98.7896C32.567 86.3288 28.2091 83.8692 24.6699 77.1052C26.9333 65.5512 29.154 53.9716 31.3049 42.3709C39.5729 49.841 46.4273 57.4473 50.5137 71.4646C46.1884 51.9693 38.7392 49.5761 31.7352 40.0563C33.7015 29.422 35.3193 20.1979 37.173 9.51691C41.2764 18.1336 55.5185 26.4778 64.2141 47.7063C55.7766 23.5597 47.0948 20.0256 37.5547 7.5779C39.3652 -2.882 41.1207 -13.3611 42.8041 -23.8696C53.3698 -14.3066 62.132 -4.55928 67.3581 13.3757C61.8109 -11.6157 52.2613 -14.7151 43.287 -26.8933C46.4165 -46.557 49.3125 -66.319 51.916 -86.1872C51.9843 -88.9512 49.4874 -90.0041 48.4533 -86.4044C45.9898 -65.177 43.2641 -44.2229 40.3041 -23.5184C28.547 -17.8214 18.9921 -20.0462 6.26618 -0.766789C16.5572 -13.9574 27.4546 -17.9255 39.8932 -20.6642C38.7476 -12.7147 37.5716 -4.79709 36.3591 3.09184C24.905 10.9174 15.9227 11.3939 2.94318 30.9264C13.3693 17.117 23.9575 11.0234 35.9736 5.56348C34.0631 17.9319 32.0763 30.2066 30.0226 42.4209C20.5849 47.2336 13.0393 45.0983 2.90346 60.4458C11.0522 50.0008 19.6823 46.9756 29.5726 44.8403L29.6989 44.3397C27.6079 56.6962 25.4477 68.984 23.233 81.2049C17.2849 83.2266 12.7778 81.3362 5.85839 89.7588C11.3751 84.0917 16.8193 83.0102 22.9782 82.5957C20.3187 97.2048 17.5744 111.715 14.7562 126.14Z"
            fill="url(#paint9_linear_2_2235)"/>
    </g>
    <g clip-path="url(#clip5_2_2235)">
        <path
            d="M507.741 -7.45778C509.641 -18.7466 515.121 -24.2229 522.157 -32.437C523.235 -33.6243 529.981 -40.6897 530.519 -40.9654C531.192 -42.2437 529.857 -46.7024 529.447 -48.7625C528.432 -53.8914 524.698 -71.3673 526.224 -74.2088C526.627 -74.3376 527.049 -74.5514 527.601 -74.4393C528.591 -74.2307 528.521 -74.0099 528.6 -73.364C528.692 -73.2156 530.287 -60.1521 530.505 -58.8307C531.5 -53.0017 532.072 -47.3628 533.603 -41.5836L538.662 -39.7488L544.826 -37.4701C548.701 -35.7625 552.775 -34.5588 556.525 -32.6934C568.234 -26.8869 570.792 -22.5127 577.026 -10.9659C577.542 -9.66487 578.222 -8.05324 578.562 -6.75572C580.491 1.37602 581.798 7.50116 582.145 15.9905C582.228 17.9609 582.278 19.6642 582.282 21.7107C582.287 22.4203 582.146 23.2155 582.074 24.0158C581.112 35.0193 577.838 45.4361 573.994 55.7693C572.877 58.7669 571.619 61.7248 570.514 64.7062L568.621 69.0277C566.925 72.6109 564.857 75.9099 563.628 79.6789C562.76 82.34 563.359 84.536 562.562 86.6375C560.736 85.5217 560.061 82.8579 558.492 81.2178C556.856 79.5099 555.302 78.5337 553.249 77.0838C543.591 70.2853 532.105 59.1509 524.522 50.6124C518.567 43.9134 514.449 37.414 511.751 30.163C510.327 26.328 509.211 22.3706 508.358 18.5983C506.315 9.55981 506.182 1.81009 507.741 -7.45778Z"
            stroke="url(#paint10_linear_2_2235)" stroke-miterlimit="22.9256"/>
        <path
            d="M562.196 85.889C558.915 74.0845 555.704 62.2643 552.582 50.4144C548.179 54.6114 544.644 58.7438 543.236 65.4656C544.385 56.1609 548.743 54.3243 552.282 49.2735C550.018 40.6458 547.798 31.9991 545.647 23.3367C537.379 28.9148 530.524 34.5945 526.438 45.0615C530.763 30.5039 538.213 28.7169 545.216 21.6083C543.25 13.6675 541.632 6.77964 539.779 -1.19607C535.675 5.23819 521.433 11.469 512.738 27.3207C521.175 9.28998 529.857 6.65096 539.397 -2.64397C537.586 -10.4546 535.831 -18.2795 534.148 -26.1264C523.582 -18.9855 514.82 -11.707 509.594 1.68539C515.141 -16.9762 524.69 -19.2906 533.665 -28.3843C530.535 -43.0676 527.639 -57.8243 525.036 -72.6603C524.967 -74.7242 527.464 -75.5104 528.498 -72.8224C530.962 -56.9715 533.688 -41.3246 536.648 -25.8642C548.405 -21.6102 557.96 -23.2715 570.685 -8.87512C560.394 -18.7248 549.497 -21.6879 537.058 -23.7329C538.204 -17.7969 539.38 -11.8846 540.593 -5.9938C552.047 -0.150282 561.029 0.205488 574.008 14.7908C563.582 4.47906 552.994 -0.0711187 540.978 -4.14818C542.889 5.08753 544.875 14.2534 546.929 23.374C556.367 26.9678 563.912 25.3733 574.048 36.8336C565.899 29.0341 557.269 26.7751 547.379 25.1806L547.253 24.8068C549.344 34.0337 551.504 43.2092 553.719 52.3348C559.667 53.8445 564.174 52.4328 571.093 58.7222C565.577 54.4904 560.132 53.6828 553.973 53.3733C556.633 64.2822 559.377 75.1175 562.196 85.889Z"
            fill="url(#paint11_linear_2_2235)"/>
    </g>
    <g clip-path="url(#clip6_2_2235)">
        <path
            d="M990.741 -12.4578C992.641 -23.7466 998.121 -29.2229 1005.16 -37.437C1006.23 -38.6243 1012.98 -45.6897 1013.52 -45.9654C1014.19 -47.2437 1012.86 -51.7024 1012.45 -53.7625C1011.43 -58.8914 1007.7 -76.3673 1009.22 -79.2088C1009.63 -79.3376 1010.05 -79.5514 1010.6 -79.4393C1011.59 -79.2307 1011.52 -79.0099 1011.6 -78.364C1011.69 -78.2156 1013.29 -65.1521 1013.5 -63.8307C1014.5 -58.0017 1015.07 -52.3628 1016.6 -46.5836L1021.66 -44.7488L1027.83 -42.4701C1031.7 -40.7625 1035.77 -39.5588 1039.53 -37.6934C1051.23 -31.8869 1053.79 -27.5127 1060.03 -15.9659C1060.54 -14.6649 1061.22 -13.0532 1061.56 -11.7557C1063.49 -3.62398 1064.8 2.50116 1065.14 10.9905C1065.23 12.9609 1065.28 14.6642 1065.28 16.7107C1065.29 17.4203 1065.15 18.2155 1065.07 19.0158C1064.11 30.0193 1060.84 40.4361 1056.99 50.7693C1055.88 53.7669 1054.62 56.7248 1053.51 59.7062L1051.62 64.0277C1049.93 67.6109 1047.86 70.9099 1046.63 74.6789C1045.76 77.34 1046.36 79.536 1045.56 81.6375C1043.74 80.5217 1043.06 77.8579 1041.49 76.2178C1039.86 74.5099 1038.3 73.5337 1036.25 72.0838C1026.59 65.2853 1015.11 54.1509 1007.52 45.6124C1001.57 38.9134 997.449 32.414 994.751 25.163C993.327 21.328 992.211 17.3706 991.358 13.5983C989.315 4.55981 989.182 -3.18991 990.741 -12.4578Z"
            stroke="url(#paint12_linear_2_2235)" stroke-miterlimit="22.9256"/>
        <path
            d="M1045.2 80.889C1041.91 69.0845 1038.7 57.2643 1035.58 45.4144C1031.18 49.6114 1027.64 53.7438 1026.24 60.4656C1027.38 51.1609 1031.74 49.3243 1035.28 44.2735C1033.02 35.6458 1030.8 26.9991 1028.65 18.3367C1020.38 23.9148 1013.52 29.5945 1009.44 40.0615C1013.76 25.5039 1021.21 23.7169 1028.22 16.6083C1026.25 8.66745 1024.63 1.77964 1022.78 -6.19607C1018.68 0.238186 1004.43 6.46899 995.738 22.3207C1004.18 4.28998 1012.86 1.65096 1022.4 -7.64397C1020.59 -15.4546 1018.83 -23.2795 1017.15 -31.1264C1006.58 -23.9855 997.82 -16.707 992.594 -3.31461C998.141 -21.9762 1007.69 -24.2906 1016.66 -33.3843C1013.54 -48.0676 1010.64 -62.8243 1008.04 -77.6603C1007.97 -79.7242 1010.46 -80.5104 1011.5 -77.8224C1013.96 -61.9715 1016.69 -46.3246 1019.65 -30.8642C1031.4 -26.6102 1040.96 -28.2715 1053.69 -13.8751C1043.39 -23.7248 1032.5 -26.6879 1020.06 -28.7329C1021.2 -22.7969 1022.38 -16.8846 1023.59 -10.9938C1035.05 -5.15028 1044.03 -4.79451 1057.01 9.7908C1046.58 -0.520942 1035.99 -5.07112 1023.98 -9.14818C1025.89 0.0875338 1027.88 9.25336 1029.93 18.374C1039.37 21.9678 1046.91 20.3733 1057.05 31.8336C1048.9 24.0341 1040.27 21.7751 1030.38 20.1806L1030.25 19.8068C1032.34 29.0337 1034.5 38.2092 1036.72 47.3348C1042.67 48.8445 1047.17 47.4328 1054.09 53.7222C1048.58 49.4904 1043.13 48.6828 1036.97 48.3733C1039.63 59.2822 1042.38 70.1175 1045.2 80.889Z"
            fill="url(#paint13_linear_2_2235)"/>
    </g>
    <g clip-path="url(#clip7_2_2235)">
        <path
            d="M481.21 -21.4578C479.311 -32.7466 473.831 -38.2229 466.794 -46.437C465.716 -47.6243 458.97 -54.6897 458.432 -54.9654C457.759 -56.2437 459.094 -60.7024 459.504 -62.7625C460.519 -67.8914 464.253 -85.3673 462.727 -88.2088C462.324 -88.3376 461.902 -88.5514 461.35 -88.4393C460.36 -88.2307 460.43 -88.0099 460.351 -87.364C460.259 -87.2156 458.664 -74.1521 458.447 -72.8307C457.451 -67.0017 456.879 -61.3628 455.348 -55.5836L450.289 -53.7488L444.125 -51.4701C440.251 -49.7625 436.176 -48.5588 432.426 -46.6934C420.717 -40.8869 418.159 -36.5127 411.925 -24.9659C411.409 -23.6649 410.729 -22.0532 410.389 -20.7557C408.46 -12.624 407.153 -6.49884 406.806 1.99045C406.724 3.9609 406.673 5.6642 406.669 7.71072C406.664 8.42026 406.805 9.21546 406.877 10.0158C407.839 21.0193 411.113 31.4361 414.957 41.7693C416.074 44.7669 417.333 47.7248 418.437 50.7062L420.33 55.0277C422.026 58.6109 424.095 61.9099 425.323 65.6789C426.191 68.34 425.593 70.536 426.389 72.6375C428.215 71.5217 428.89 68.8579 430.46 67.2178C432.095 65.5099 433.649 64.5337 435.702 63.0838C445.36 56.2853 456.846 45.1509 464.429 36.6124C470.384 29.9134 474.502 23.414 477.2 16.163C478.624 12.328 479.74 8.37061 480.594 4.59835C482.636 -4.44019 482.77 -12.1899 481.21 -21.4578Z"
            stroke="url(#paint14_linear_2_2235)" stroke-miterlimit="22.9256"/>
        <path
            d="M426.756 71.889C430.036 60.0845 433.247 48.2643 436.369 36.4144C440.772 40.6114 444.307 44.7438 445.715 51.4656C444.567 42.1609 440.209 40.3243 436.669 35.2735C438.933 26.6458 441.154 17.9991 443.304 9.33666C451.572 14.9148 458.427 20.5945 462.513 31.0615C458.188 16.5039 450.739 14.7169 443.735 7.60834C445.701 -0.332546 447.319 -7.22036 449.173 -15.1961C453.276 -8.76181 467.518 -2.53101 476.214 13.3207C467.776 -4.71002 459.094 -7.34904 449.554 -16.644C451.365 -24.4546 453.12 -32.2795 454.804 -40.1264C465.369 -32.9855 474.132 -25.707 479.358 -12.3146C473.81 -30.9762 464.261 -33.2906 455.287 -42.3843C458.416 -57.0676 461.312 -71.8243 463.916 -86.6603C463.984 -88.7242 461.487 -89.5104 460.453 -86.8224C457.989 -70.9715 455.264 -55.3246 452.304 -39.8642C440.547 -35.6102 430.992 -37.2715 418.266 -22.8751C428.557 -32.7248 439.454 -35.6879 451.893 -37.7329C450.747 -31.7969 449.571 -25.8846 448.359 -19.9938C436.904 -14.1503 427.922 -13.7945 414.943 0.790798C425.369 -9.52094 435.957 -14.0711 447.973 -18.1482C446.063 -8.91247 444.076 0.253361 442.022 9.37399C432.584 12.9678 425.039 11.3733 414.903 22.8336C423.052 15.0341 431.682 12.7751 441.572 11.1806L441.698 10.8068C439.607 20.0337 437.447 29.2092 435.233 38.3348C429.284 39.8445 424.777 38.4328 417.858 44.7222C423.375 40.4904 428.819 39.6828 434.978 39.3733C432.318 50.2822 429.574 61.1175 426.756 71.889Z"
            fill="url(#paint15_linear_2_2235)"/>
    </g>
    <g clip-path="url(#clip8_2_2235)">
        <path
            d="M979.21 2.54222C977.311 -8.74661 971.831 -14.2229 964.794 -22.437C963.716 -23.6243 956.97 -30.6897 956.432 -30.9654C955.759 -32.2437 957.094 -36.7024 957.504 -38.7625C958.519 -43.8914 962.253 -61.3673 960.727 -64.2088C960.324 -64.3376 959.902 -64.5514 959.35 -64.4393C958.36 -64.2307 958.43 -64.0099 958.351 -63.364C958.259 -63.2156 956.664 -50.1521 956.447 -48.8307C955.451 -43.0017 954.879 -37.3628 953.348 -31.5836L948.289 -29.7488L942.125 -27.4701C938.251 -25.7625 934.176 -24.5588 930.426 -22.6934C918.717 -16.8869 916.159 -12.5127 909.925 -0.965899C909.409 0.335131 908.729 1.94676 908.389 3.24428C906.46 11.376 905.153 17.5012 904.806 25.9905C904.724 27.9609 904.673 29.6642 904.669 31.7107C904.664 32.4203 904.805 33.2155 904.877 34.0158C905.839 45.0193 909.113 55.4361 912.957 65.7693C914.074 68.7669 915.333 71.7248 916.437 74.7062L918.33 79.0277C920.026 82.6109 922.095 85.9099 923.323 89.6789C924.191 92.34 923.593 94.536 924.389 96.6375C926.215 95.5217 926.89 92.8579 928.46 91.2178C930.095 89.5099 931.649 88.5337 933.702 87.0838C943.36 80.2853 954.846 69.1509 962.429 60.6124C968.384 53.9134 972.502 47.414 975.2 40.163C976.624 36.328 977.74 32.3706 978.594 28.5983C980.636 19.5598 980.77 11.8101 979.21 2.54222Z"
            stroke="url(#paint16_linear_2_2235)" stroke-miterlimit="22.9256"/>
        <path
            d="M924.756 95.889C928.036 84.0845 931.247 72.2643 934.369 60.4144C938.772 64.6114 942.307 68.7438 943.715 75.4656C942.567 66.1609 938.209 64.3243 934.669 59.2735C936.933 50.6458 939.154 41.9991 941.304 33.3367C949.572 38.9148 956.427 44.5945 960.513 55.0615C956.188 40.5039 948.739 38.7169 941.735 31.6083C943.701 23.6675 945.319 16.7796 947.173 8.80393C951.276 15.2382 965.518 21.469 974.214 37.3207C965.776 19.29 957.094 16.651 947.554 7.35603C949.365 -0.454587 951.12 -8.27954 952.804 -16.1264C963.369 -8.98554 972.132 -1.70705 977.358 11.6854C971.81 -6.97623 962.261 -9.29059 953.287 -18.3843C956.416 -33.0676 959.312 -47.8243 961.916 -62.6603C961.984 -64.7242 959.487 -65.5104 958.453 -62.8224C955.989 -46.9715 953.264 -31.3246 950.304 -15.8642C938.547 -11.6102 928.992 -13.2715 916.266 1.12488C926.557 -8.7248 937.454 -11.6879 949.893 -13.7329C948.747 -7.79688 947.571 -1.88463 946.359 4.0062C934.904 9.84972 925.922 10.2055 912.943 24.7908C923.369 14.4791 933.957 9.92888 945.973 5.85182C944.063 15.0875 942.076 24.2534 940.022 33.374C930.584 36.9678 923.039 35.3733 912.903 46.8336C921.052 39.0341 929.682 36.7751 939.572 35.1806L939.698 34.8068C937.607 44.0337 935.447 53.2092 933.233 62.3348C927.284 63.8445 922.777 62.4328 915.858 68.7222C921.375 64.4904 926.819 63.6828 932.978 63.3733C930.318 74.2822 927.574 85.1175 924.756 95.889Z"
            fill="url(#paint17_linear_2_2235)"/>
    </g>
    <g clip-path="url(#clip9_2_2235)">
        <path
            d="M1150.58 -0.457776C1148.68 -11.7466 1143.2 -17.2229 1136.16 -25.437C1135.08 -26.6243 1128.34 -33.6897 1127.8 -33.9654C1127.13 -35.2437 1128.46 -39.7024 1128.87 -41.7625C1129.88 -46.8914 1133.62 -64.3673 1132.09 -67.2088C1131.69 -67.3376 1131.27 -67.5514 1130.72 -67.4393C1129.73 -67.2307 1129.8 -67.0099 1129.72 -66.364C1129.62 -66.2156 1128.03 -53.1521 1127.81 -51.8307C1126.82 -46.0017 1126.24 -40.3628 1124.71 -34.5836L1119.65 -32.7488L1113.49 -30.4701C1109.62 -28.7625 1105.54 -27.5588 1101.79 -25.6934C1090.08 -19.8869 1087.53 -15.5127 1081.29 -3.9659C1080.77 -2.66487 1080.09 -1.05324 1079.75 0.244279C1077.83 8.37602 1076.52 14.5012 1076.17 22.9905C1076.09 24.9609 1076.04 26.6642 1076.03 28.7107C1076.03 29.4203 1076.17 30.2155 1076.24 31.0158C1077.2 42.0193 1080.48 52.4361 1084.32 62.7693C1085.44 65.7669 1086.7 68.7248 1087.8 71.7062L1089.7 76.0277C1091.39 79.6109 1093.46 82.9099 1094.69 86.6789C1095.56 89.34 1094.96 91.536 1095.75 93.6375C1097.58 92.5217 1098.26 89.8579 1099.83 88.2178C1101.46 86.5099 1103.01 85.5337 1105.07 84.0838C1114.73 77.2853 1126.21 66.1509 1133.79 57.6124C1139.75 50.9134 1143.87 44.414 1146.57 37.163C1147.99 33.328 1149.11 29.3706 1149.96 25.5983C1152 16.5598 1152.14 8.81009 1150.58 -0.457776Z"
            stroke="url(#paint18_linear_2_2235)" stroke-miterlimit="22.9256"/>
        <path
            d="M1096.12 92.889C1099.4 81.0845 1102.61 69.2643 1105.73 57.4144C1110.14 61.6114 1113.67 65.7438 1115.08 72.4656C1113.93 63.1609 1109.57 61.3243 1106.04 56.2735C1108.3 47.6458 1110.52 38.9991 1112.67 30.3367C1120.94 35.9148 1127.79 41.5945 1131.88 52.0615C1127.55 37.5039 1120.1 35.7169 1113.1 28.6083C1115.07 20.6675 1116.68 13.7796 1118.54 5.80393C1122.64 12.2382 1136.88 18.469 1145.58 34.3207C1137.14 16.29 1128.46 13.651 1118.92 4.35603C1120.73 -3.45459 1122.49 -11.2795 1124.17 -19.1264C1134.74 -11.9855 1143.5 -4.70705 1148.72 8.68539C1143.18 -9.97623 1133.63 -12.2906 1124.65 -21.3843C1127.78 -36.0676 1130.68 -50.8243 1133.28 -65.6603C1133.35 -67.7242 1130.85 -68.5104 1129.82 -65.8224C1127.36 -49.9715 1124.63 -34.3246 1121.67 -18.8642C1109.91 -14.6102 1100.36 -16.2715 1087.63 -1.87512C1097.92 -11.7248 1108.82 -14.6879 1121.26 -16.7329C1120.11 -10.7969 1118.94 -4.88463 1117.72 1.0062C1106.27 6.84972 1097.29 7.20549 1084.31 21.7908C1094.73 11.4791 1105.32 6.92888 1117.34 2.85182C1115.43 12.0875 1113.44 21.2534 1111.39 30.374C1101.95 33.9678 1094.4 32.3733 1084.27 43.8336C1092.42 36.0341 1101.05 33.7751 1110.94 32.1806L1111.06 31.8068C1108.97 41.0337 1106.81 50.2092 1104.6 59.3348C1098.65 60.8445 1094.14 59.4328 1087.22 65.7222C1092.74 61.4904 1098.18 60.6828 1104.34 60.3733C1101.68 71.2822 1098.94 82.1175 1096.12 92.889Z"
            fill="url(#paint19_linear_2_2235)"/>
    </g>
    <g clip-path="url(#clip10_2_2235)">
        <path
            d="M1246.58 16.5422C1244.68 5.25339 1239.2 -0.222941 1232.16 -8.43696C1231.08 -9.62427 1224.34 -16.6897 1223.8 -16.9654C1223.13 -18.2437 1224.46 -22.7024 1224.87 -24.7625C1225.88 -29.8914 1229.62 -47.3673 1228.09 -50.2088C1227.69 -50.3376 1227.27 -50.5514 1226.72 -50.4393C1225.73 -50.2307 1225.8 -50.0099 1225.72 -49.364C1225.62 -49.2156 1224.03 -36.1521 1223.81 -34.8307C1222.82 -29.0017 1222.24 -23.3628 1220.71 -17.5836L1215.65 -15.7488L1209.49 -13.4701C1205.62 -11.7625 1201.54 -10.5588 1197.79 -8.69342C1186.08 -2.88686 1183.53 1.48733 1177.29 13.0341C1176.77 14.3351 1176.09 15.9468 1175.75 17.2443C1173.83 25.376 1172.52 31.5012 1172.17 39.9905C1172.09 41.9609 1172.04 43.6642 1172.03 45.7107C1172.03 46.4203 1172.17 47.2155 1172.24 48.0158C1173.2 59.0193 1176.48 69.4361 1180.32 79.7693C1181.44 82.7669 1182.7 85.7248 1183.8 88.7062L1185.7 93.0277C1187.39 96.6109 1189.46 99.9099 1190.69 103.679C1191.56 106.34 1190.96 108.536 1191.75 110.637C1193.58 109.522 1194.26 106.858 1195.83 105.218C1197.46 103.51 1199.01 102.534 1201.07 101.084C1210.73 94.2853 1222.21 83.1509 1229.79 74.6124C1235.75 67.9134 1239.87 61.414 1242.57 54.163C1243.99 50.328 1245.11 46.3706 1245.96 42.5983C1248 33.5598 1248.14 25.8101 1246.58 16.5422Z"
            stroke="url(#paint20_linear_2_2235)" stroke-miterlimit="22.9256"/>
        <path
            d="M1192.12 109.889C1195.4 98.0845 1198.61 86.2643 1201.73 74.4144C1206.14 78.6114 1209.67 82.7438 1211.08 89.4656C1209.93 80.1609 1205.57 78.3243 1202.04 73.2735C1204.3 64.6458 1206.52 55.9991 1208.67 47.3367C1216.94 52.9148 1223.79 58.5945 1227.88 69.0615C1223.55 54.5039 1216.1 52.7169 1209.1 45.6083C1211.07 37.6675 1212.68 30.7796 1214.54 22.8039C1218.64 29.2382 1232.88 35.469 1241.58 51.3207C1233.14 33.29 1224.46 30.651 1214.92 21.356C1216.73 13.5454 1218.49 5.72046 1220.17 -2.12643C1230.74 5.01446 1239.5 12.293 1244.72 25.6854C1239.18 7.02377 1229.63 4.70941 1220.65 -4.38433C1223.78 -19.0676 1226.68 -33.8243 1229.28 -48.6603C1229.35 -50.7242 1226.85 -51.5104 1225.82 -48.8224C1223.36 -32.9715 1220.63 -17.3246 1217.67 -1.86419C1205.91 2.38984 1196.36 0.728537 1183.63 15.1249C1193.92 5.2752 1204.82 2.31215 1217.26 0.267099C1216.11 6.20312 1214.94 12.1154 1213.72 18.0062C1202.27 23.8497 1193.29 24.2055 1180.31 38.7908C1190.73 28.4791 1201.32 23.9289 1213.34 19.8518C1211.43 29.0875 1209.44 38.2534 1207.39 47.374C1197.95 50.9678 1190.4 49.3733 1180.27 60.8336C1188.42 53.0341 1197.05 50.7751 1206.94 49.1806L1207.06 48.8068C1204.97 58.0337 1202.81 67.2092 1200.6 76.3348C1194.65 77.8445 1190.14 76.4328 1183.22 82.7222C1188.74 78.4904 1194.18 77.6828 1200.34 77.3733C1197.68 88.2822 1194.94 99.1175 1192.12 109.889Z"
            fill="url(#paint21_linear_2_2235)"/>
    </g>
    <g clip-path="url(#clip11_2_2235)">
        <path
            d="M274.21 -16.4578C272.311 -27.7466 266.831 -33.2229 259.794 -41.437C258.716 -42.6243 251.97 -49.6897 251.432 -49.9654C250.759 -51.2437 252.094 -55.7024 252.504 -57.7625C253.519 -62.8914 257.253 -80.3673 255.727 -83.2088C255.324 -83.3376 254.902 -83.5514 254.35 -83.4393C253.36 -83.2307 253.43 -83.0099 253.351 -82.364C253.259 -82.2156 251.664 -69.1521 251.447 -67.8307C250.451 -62.0017 249.879 -56.3628 248.348 -50.5836L243.289 -48.7488L237.125 -46.4701C233.251 -44.7625 229.176 -43.5588 225.426 -41.6934C213.717 -35.8869 211.159 -31.5127 204.925 -19.9659C204.409 -18.6649 203.729 -17.0532 203.389 -15.7557C201.46 -7.62398 200.153 -1.49884 199.806 6.99045C199.724 8.9609 199.673 10.6642 199.669 12.7107C199.664 13.4203 199.805 14.2155 199.877 15.0158C200.839 26.0193 204.113 36.4361 207.957 46.7693C209.074 49.7669 210.333 52.7248 211.437 55.7062L213.33 60.0277C215.026 63.6109 217.095 66.9099 218.323 70.6789C219.191 73.34 218.593 75.536 219.389 77.6375C221.215 76.5217 221.89 73.8579 223.46 72.2178C225.095 70.5099 226.649 69.5337 228.702 68.0838C238.36 61.2853 249.846 50.1509 257.429 41.6124C263.384 34.9134 267.502 28.414 270.2 21.163C271.624 17.328 272.74 13.3706 273.594 9.59835C275.636 0.559808 275.77 -7.18991 274.21 -16.4578Z"
            stroke="url(#paint22_linear_2_2235)" stroke-miterlimit="22.9256"/>
        <path
            d="M219.756 76.889C223.036 65.0845 226.247 53.2643 229.369 41.4144C233.772 45.6114 237.307 49.7438 238.715 56.4656C237.567 47.1609 233.209 45.3243 229.669 40.2735C231.933 31.6458 234.154 22.9991 236.304 14.3367C244.572 19.9148 251.427 25.5945 255.513 36.0615C251.188 21.5039 243.739 19.7169 236.735 12.6083C238.701 4.66745 240.319 -2.22036 242.173 -10.1961C246.276 -3.76181 260.518 2.46899 269.214 18.3207C260.776 0.289985 252.094 -2.34904 242.554 -11.644C244.365 -19.4546 246.12 -27.2795 247.804 -35.1264C258.369 -27.9855 267.132 -20.707 272.358 -7.31461C266.81 -25.9762 257.261 -28.2906 248.287 -37.3843C251.416 -52.0676 254.312 -66.8243 256.916 -81.6603C256.984 -83.7242 254.487 -84.5104 253.453 -81.8224C250.989 -65.9715 248.264 -50.3246 245.304 -34.8642C233.547 -30.6102 223.992 -32.2715 211.266 -17.8751C221.557 -27.7248 232.454 -30.6879 244.893 -32.7329C243.747 -26.7969 242.571 -20.8846 241.359 -14.9938C229.904 -9.15028 220.922 -8.79451 207.943 5.7908C218.369 -4.52094 228.957 -9.07112 240.973 -13.1482C239.063 -3.91247 237.076 5.25336 235.022 14.374C225.584 17.9678 218.039 16.3733 207.903 27.8336C216.052 20.0341 224.682 17.7751 234.572 16.1806L234.698 15.8068C232.607 25.0337 230.447 34.2092 228.233 43.3348C222.284 44.8445 217.777 43.4328 210.858 49.7222C216.375 45.4904 221.819 44.6828 227.978 44.3733C225.318 55.2822 222.574 66.1175 219.756 76.889Z"
            fill="url(#paint23_linear_2_2235)"/>
    </g>
    <g clip-path="url(#clip12_2_2235)">
        <path
            d="M780.21 -21.4578C778.311 -32.7466 772.831 -38.2229 765.794 -46.437C764.716 -47.6243 757.97 -54.6897 757.432 -54.9654C756.759 -56.2437 758.094 -60.7024 758.504 -62.7625C759.519 -67.8914 763.253 -85.3673 761.727 -88.2088C761.324 -88.3376 760.902 -88.5514 760.35 -88.4393C759.36 -88.2307 759.43 -88.0099 759.351 -87.364C759.259 -87.2156 757.664 -74.1521 757.447 -72.8307C756.451 -67.0017 755.879 -61.3628 754.348 -55.5836L749.289 -53.7488L743.125 -51.4701C739.251 -49.7625 735.176 -48.5588 731.426 -46.6934C719.717 -40.8869 717.159 -36.5127 710.925 -24.9659C710.409 -23.6649 709.729 -22.0532 709.389 -20.7557C707.46 -12.624 706.153 -6.49884 705.806 1.99045C705.724 3.9609 705.673 5.6642 705.669 7.71072C705.664 8.42026 705.805 9.21546 705.877 10.0158C706.839 21.0193 710.113 31.4361 713.957 41.7693C715.074 44.7669 716.333 47.7248 717.437 50.7062L719.33 55.0277C721.026 58.6109 723.095 61.9099 724.323 65.6789C725.191 68.34 724.593 70.536 725.389 72.6375C727.215 71.5217 727.89 68.8579 729.46 67.2178C731.095 65.5099 732.649 64.5337 734.702 63.0838C744.36 56.2853 755.846 45.1509 763.429 36.6124C769.384 29.9134 773.502 23.414 776.2 16.163C777.624 12.328 778.74 8.37061 779.594 4.59835C781.636 -4.44019 781.77 -12.1899 780.21 -21.4578Z"
            stroke="url(#paint24_linear_2_2235)" stroke-miterlimit="22.9256"/>
        <path
            d="M725.756 71.889C729.036 60.0845 732.247 48.2643 735.369 36.4144C739.772 40.6114 743.307 44.7438 744.715 51.4656C743.567 42.1609 739.209 40.3243 735.669 35.2735C737.933 26.6458 740.154 17.9991 742.304 9.33666C750.572 14.9148 757.427 20.5945 761.513 31.0615C757.188 16.5039 749.739 14.7169 742.735 7.60834C744.701 -0.332546 746.319 -7.22036 748.173 -15.1961C752.276 -8.76181 766.518 -2.53101 775.214 13.3207C766.776 -4.71002 758.094 -7.34904 748.554 -16.644C750.365 -24.4546 752.12 -32.2795 753.804 -40.1264C764.369 -32.9855 773.132 -25.707 778.358 -12.3146C772.81 -30.9762 763.261 -33.2906 754.287 -42.3843C757.416 -57.0676 760.312 -71.8243 762.916 -86.6603C762.984 -88.7242 760.487 -89.5104 759.453 -86.8224C756.989 -70.9715 754.264 -55.3246 751.304 -39.8642C739.547 -35.6102 729.992 -37.2715 717.266 -22.8751C727.557 -32.7248 738.454 -35.6879 750.893 -37.7329C749.747 -31.7969 748.571 -25.8846 747.359 -19.9938C735.904 -14.1503 726.922 -13.7945 713.943 0.790798C724.369 -9.52094 734.957 -14.0711 746.973 -18.1482C745.063 -8.91247 743.076 0.253361 741.022 9.37399C731.584 12.9678 724.039 11.3733 713.903 22.8336C722.052 15.0341 730.682 12.7751 740.572 11.1806L740.698 10.8068C738.607 20.0337 736.447 29.2092 734.233 38.3348C728.284 39.8445 723.777 38.4328 716.858 44.7222C722.375 40.4904 727.819 39.6828 733.978 39.3733C731.318 50.2822 728.574 61.1175 725.756 71.889Z"
            fill="url(#paint25_linear_2_2235)"/>
    </g>
    <defs>
        <linearGradient id="paint0_linear_2_2235" x1="396.175" y1="33.121" x2="262.62" y2="-1.7091"
                        gradientUnits="userSpaceOnUse">
            <stop offset="0.322917" stop-color="#00BD8D"/>
            <stop offset="1" stop-color="#00392D"/>
        </linearGradient>
        <linearGradient id="paint1_linear_2_2235" x1="395.793" y1="32.3336" x2="263.004" y2="-2.2967"
                        gradientUnits="userSpaceOnUse">
            <stop offset="0.322917" stop-color="#00BD8D"/>
            <stop offset="1" stop-color="#00392D"/>
        </linearGradient>
        <linearGradient id="paint2_linear_2_2235" x1="902.175" y1="28.121" x2="768.62" y2="-6.7091"
                        gradientUnits="userSpaceOnUse">
            <stop offset="0.322917" stop-color="#00BD8D"/>
            <stop offset="1" stop-color="#00392D"/>
        </linearGradient>
        <linearGradient id="paint3_linear_2_2235" x1="901.793" y1="27.3336" x2="769.004" y2="-7.2967"
                        gradientUnits="userSpaceOnUse">
            <stop offset="0.322917" stop-color="#00BD8D"/>
            <stop offset="1" stop-color="#00392D"/>
        </linearGradient>
        <linearGradient id="paint4_linear_2_2235" x1="189.576" y1="40.2689" x2="58.7104" y2="-3.59626"
                        gradientUnits="userSpaceOnUse">
            <stop offset="0.322917" stop-color="#00BD8D"/>
            <stop offset="1" stop-color="#00392D"/>
        </linearGradient>
        <linearGradient id="paint5_linear_2_2235" x1="189.249" y1="39.4569" x2="59.1338" y2="-4.15655"
                        gradientUnits="userSpaceOnUse">
            <stop offset="0.322917" stop-color="#00BD8D"/>
            <stop offset="1" stop-color="#00392D"/>
        </linearGradient>
        <linearGradient id="paint6_linear_2_2235" x1="695.576" y1="35.2689" x2="564.71" y2="-8.59626"
                        gradientUnits="userSpaceOnUse">
            <stop offset="0.322917" stop-color="#00BD8D"/>
            <stop offset="1" stop-color="#00392D"/>
        </linearGradient>
        <linearGradient id="paint7_linear_2_2235" x1="695.249" y1="34.4569" x2="565.133" y2="-9.15655"
                        gradientUnits="userSpaceOnUse">
            <stop offset="0.322917" stop-color="#00BD8D"/>
            <stop offset="1" stop-color="#00392D"/>
        </linearGradient>
        <linearGradient id="paint8_linear_2_2235" x1="57.0724" y1="105.291" x2="-23.1971" y2="-51.4983"
                        gradientUnits="userSpaceOnUse">
            <stop offset="0.322917" stop-color="#00BD8D"/>
            <stop offset="1" stop-color="#00392D"/>
        </linearGradient>
        <linearGradient id="paint9_linear_2_2235" x1="57.4916" y1="104.262" x2="-22.3174" y2="-51.628"
                        gradientUnits="userSpaceOnUse">
            <stop offset="0.322917" stop-color="#00BD8D"/>
            <stop offset="1" stop-color="#00392D"/>
        </linearGradient>
        <linearGradient id="paint10_linear_2_2235" x1="519.879" y1="70.3202" x2="569.165" y2="-58.6022"
                        gradientUnits="userSpaceOnUse">
            <stop offset="0.322917" stop-color="#00BD8D"/>
            <stop offset="1" stop-color="#00392D"/>
        </linearGradient>
        <linearGradient id="paint11_linear_2_2235" x1="519.46" y1="69.5517" x2="568.463" y2="-58.631"
                        gradientUnits="userSpaceOnUse">
            <stop offset="0.322917" stop-color="#00BD8D"/>
            <stop offset="1" stop-color="#00392D"/>
        </linearGradient>
        <linearGradient id="paint12_linear_2_2235" x1="1002.88" y1="65.3202" x2="1052.16" y2="-63.6022"
                        gradientUnits="userSpaceOnUse">
            <stop offset="0.322917" stop-color="#00BD8D"/>
            <stop offset="1" stop-color="#00392D"/>
        </linearGradient>
        <linearGradient id="paint13_linear_2_2235" x1="1002.46" y1="64.5517" x2="1051.46" y2="-63.631"
                        gradientUnits="userSpaceOnUse">
            <stop offset="0.322917" stop-color="#00BD8D"/>
            <stop offset="1" stop-color="#00392D"/>
        </linearGradient>
        <linearGradient id="paint14_linear_2_2235" x1="469.072" y1="56.3202" x2="419.786" y2="-72.6022"
                        gradientUnits="userSpaceOnUse">
            <stop offset="0.322917" stop-color="#00BD8D"/>
            <stop offset="1" stop-color="#00392D"/>
        </linearGradient>
        <linearGradient id="paint15_linear_2_2235" x1="469.491" y1="55.5517" x2="420.488" y2="-72.631"
                        gradientUnits="userSpaceOnUse">
            <stop offset="0.322917" stop-color="#00BD8D"/>
            <stop offset="1" stop-color="#00392D"/>
        </linearGradient>
        <linearGradient id="paint16_linear_2_2235" x1="967.072" y1="80.3202" x2="917.786" y2="-48.6022"
                        gradientUnits="userSpaceOnUse">
            <stop offset="0.322917" stop-color="#00BD8D"/>
            <stop offset="1" stop-color="#00392D"/>
        </linearGradient>
        <linearGradient id="paint17_linear_2_2235" x1="967.491" y1="79.5517" x2="918.488" y2="-48.631"
                        gradientUnits="userSpaceOnUse">
            <stop offset="0.322917" stop-color="#00BD8D"/>
            <stop offset="1" stop-color="#00392D"/>
        </linearGradient>
        <linearGradient id="paint18_linear_2_2235" x1="1138.44" y1="77.3202" x2="1089.15" y2="-51.6022"
                        gradientUnits="userSpaceOnUse">
            <stop offset="0.322917" stop-color="#00BD8D"/>
            <stop offset="1" stop-color="#00392D"/>
        </linearGradient>
        <linearGradient id="paint19_linear_2_2235" x1="1138.86" y1="76.5517" x2="1089.85" y2="-51.631"
                        gradientUnits="userSpaceOnUse">
            <stop offset="0.322917" stop-color="#00BD8D"/>
            <stop offset="1" stop-color="#00392D"/>
        </linearGradient>
        <linearGradient id="paint20_linear_2_2235" x1="1234.44" y1="94.3202" x2="1185.15" y2="-34.6022"
                        gradientUnits="userSpaceOnUse">
            <stop offset="0.322917" stop-color="#00BD8D"/>
            <stop offset="1" stop-color="#00392D"/>
        </linearGradient>
        <linearGradient id="paint21_linear_2_2235" x1="1234.86" y1="93.5517" x2="1185.85" y2="-34.631"
                        gradientUnits="userSpaceOnUse">
            <stop offset="0.322917" stop-color="#00BD8D"/>
            <stop offset="1" stop-color="#00392D"/>
        </linearGradient>
        <linearGradient id="paint22_linear_2_2235" x1="262.072" y1="61.3202" x2="212.786" y2="-67.6022"
                        gradientUnits="userSpaceOnUse">
            <stop offset="0.322917" stop-color="#00BD8D"/>
            <stop offset="1" stop-color="#00392D"/>
        </linearGradient>
        <linearGradient id="paint23_linear_2_2235" x1="262.491" y1="60.5517" x2="213.488" y2="-67.631"
                        gradientUnits="userSpaceOnUse">
            <stop offset="0.322917" stop-color="#00BD8D"/>
            <stop offset="1" stop-color="#00392D"/>
        </linearGradient>
        <linearGradient id="paint24_linear_2_2235" x1="768.072" y1="56.3202" x2="718.786" y2="-72.6022"
                        gradientUnits="userSpaceOnUse">
            <stop offset="0.322917" stop-color="#00BD8D"/>
            <stop offset="1" stop-color="#00392D"/>
        </linearGradient>
        <linearGradient id="paint25_linear_2_2235" x1="768.491" y1="55.5517" x2="719.488" y2="-72.631"
                        gradientUnits="userSpaceOnUse">
            <stop offset="0.322917" stop-color="#00BD8D"/>
            <stop offset="1" stop-color="#00392D"/>
        </linearGradient>
        <clipPath id="clip0_2_2235">
            <rect width="93" height="139.5" fill="white" transform="translate(409.09 -10.7969) rotate(104.617)"/>
        </clipPath>
        <clipPath id="clip1_2_2235">
            <rect width="93" height="139.5" fill="white" transform="translate(915.09 -15.7969) rotate(104.617)"/>
        </clipPath>
        <clipPath id="clip2_2_2235">
            <rect width="93" height="139.5" fill="white" transform="translate(205.459 -2.66504) rotate(108.531)"/>
        </clipPath>
        <clipPath id="clip3_2_2235">
            <rect width="93" height="139.5" fill="white" transform="translate(711.459 -7.66504) rotate(108.531)"/>
        </clipPath>
        <clipPath id="clip4_2_2235">
            <rect width="97.5911" height="181.471" fill="white"
                  transform="matrix(-0.890129 0.455709 -0.274498 -0.961588 100.317 85.1797)"/>
        </clipPath>
        <clipPath id="clip5_2_2235">
            <rect width="93" height="139.5" fill="white"
                  transform="matrix(0.934071 0.357086 0.357086 -0.934071 476.635 55.3027)"/>
        </clipPath>
        <clipPath id="clip6_2_2235">
            <rect width="93" height="139.5" fill="white"
                  transform="matrix(0.934071 0.357086 0.357086 -0.934071 959.635 50.3027)"/>
        </clipPath>
        <clipPath id="clip7_2_2235">
            <rect width="93" height="139.5" fill="white" transform="translate(512.316 41.3027) rotate(159.079)"/>
        </clipPath>
        <clipPath id="clip8_2_2235">
            <rect width="93" height="139.5" fill="white" transform="translate(1010.32 65.3027) rotate(159.079)"/>
        </clipPath>
        <clipPath id="clip9_2_2235">
            <rect width="93" height="139.5" fill="white" transform="translate(1181.68 62.3027) rotate(159.079)"/>
        </clipPath>
        <clipPath id="clip10_2_2235">
            <rect width="93" height="139.5" fill="white" transform="translate(1277.68 79.3027) rotate(159.079)"/>
        </clipPath>
        <clipPath id="clip11_2_2235">
            <rect width="93" height="139.5" fill="white" transform="translate(305.316 46.3027) rotate(159.079)"/>
        </clipPath>
        <clipPath id="clip12_2_2235">
            <rect width="93" height="139.5" fill="white" transform="translate(811.316 41.3027) rotate(159.079)"/>
        </clipPath>
    </defs>
</svg>
