<svg width="382" height="510" viewBox="0 0 382 510" fill="none" xmlns="http://www.w3.org/2000/svg">
<g clip-path="url(#clip0_8_1158)">
<g clip-path="url(#clip1_8_1158)">
<path d="M270.644 109.73C268.388 120.953 271.551 128.025 275.191 138.211C275.773 139.704 279.552 148.713 279.956 149.163C280.128 150.597 277.289 154.285 276.17 156.063C273.391 160.491 263.663 175.482 264.073 178.681C264.404 178.945 264.721 179.295 265.277 179.388C266.277 179.546 266.29 179.315 266.594 178.74C266.733 178.634 272.888 167.002 273.563 165.845C276.574 160.756 279.122 155.693 282.616 150.841L287.996 150.934L294.568 151.007C298.797 150.795 303.032 151.126 307.201 150.722C320.212 149.48 324.163 146.307 334.109 137.748C335.055 136.717 336.267 135.454 337.047 134.364C341.753 127.457 345.161 122.202 348.516 114.397C349.297 112.586 349.952 111.013 350.687 109.102C350.945 108.441 351.097 107.648 351.315 106.875C354.346 96.2535 355.008 85.3545 355.107 74.3298C355.134 71.1308 355.015 67.9186 355.048 64.7395L354.823 60.0269C354.518 56.0744 353.764 52.2541 353.963 48.295C354.102 45.4992 355.445 43.6618 355.452 41.4146C353.347 41.8045 351.765 44.0517 349.714 45.0233C347.576 46.0346 345.776 46.3915 343.341 47.0128C331.892 49.9144 317.187 56.2132 307.056 61.481C299.101 65.6119 292.933 70.2121 287.824 76.0219C285.124 79.0953 282.669 82.3934 280.525 85.6122C275.389 93.3255 272.497 100.517 270.644 109.73Z" stroke="url(#paint0_linear_8_1158)" stroke-miterlimit="22.9256"/>
<path d="M354.842 41.9829C347.562 51.8377 340.342 61.7321 333.195 71.686C330.581 66.1935 328.754 61.0711 329.84 54.2898C327.59 63.3911 331.004 66.6628 332.507 72.6444C327.312 79.895 322.15 87.1786 317.047 94.502C311.316 86.3392 306.942 78.5863 306.863 67.3502C305.705 82.4925 312.025 86.8217 316.028 95.9627C311.356 102.678 307.385 108.534 302.806 115.322C301.271 107.847 290.192 96.9409 287.731 79.0291C289.173 98.8841 296.34 104.449 301.932 116.538C297.452 123.187 293.018 129.869 288.644 136.598C281.325 126.155 275.739 116.227 275.64 101.852C274.157 121.264 282.251 126.836 287.386 138.534C279.22 151.132 271.246 163.882 263.516 176.81C262.715 178.714 264.767 180.339 266.693 178.198C274.654 164.272 282.787 150.63 291.073 137.246C303.574 137.47 311.905 142.434 328.933 133.531C315.803 139.057 304.566 137.933 292.217 135.402C295.407 130.266 298.617 125.163 301.853 120.094C314.639 118.726 323.156 121.601 340.488 112.612C327.067 118.521 315.552 118.99 302.872 118.508C307.955 110.563 313.083 102.711 318.259 94.925C328.357 94.9382 334.836 99.122 348.396 92.0366C337.999 96.4121 329.132 95.4405 319.324 93.3982L319.073 93.7022C324.32 85.8303 329.615 78.0311 334.942 70.298C341.037 71.0118 344.743 73.9398 353.452 70.5359C346.788 72.5188 341.414 71.3291 335.551 69.4189C341.93 60.1789 348.363 51.0379 354.842 41.9829Z" fill="url(#paint1_linear_8_1158)"/>
</g>
<g clip-path="url(#clip2_8_1158)">
<path d="M85.1492 116.993C94.3318 123.829 102.078 123.991 112.841 125.052C114.441 125.163 124.2 125.596 124.779 125.423C126.149 125.881 128.271 130.023 129.4 131.794C132.217 136.199 141.613 151.4 144.681 152.396C145.061 152.209 145.513 152.072 145.835 151.609C146.405 150.773 146.202 150.662 145.812 150.141C145.775 149.971 137.888 139.436 137.13 138.331C133.816 133.434 130.327 128.967 127.434 123.735L129.816 118.91L132.69 113C134.306 109.086 136.414 105.398 137.831 101.457C142.267 89.1626 141.086 84.235 137.598 71.5849C137.07 70.2887 136.446 68.6544 135.794 67.4824C131.56 60.2771 128.265 54.9505 122.641 48.5817C121.338 47.1019 120.195 45.8374 118.782 44.3571C118.295 43.8413 117.643 43.3648 117.037 42.8369C108.729 35.5582 99.1577 30.3029 89.2325 25.5026C86.3515 24.1118 83.3964 22.8469 80.5362 21.4586L76.1794 19.6484C72.4758 18.2349 68.6994 17.2846 65.2048 15.4135C62.7364 14.0932 61.6492 12.0935 59.6202 11.1273C59.0736 13.1966 60.4296 15.5868 60.4314 17.8568C60.4324 20.2215 59.9859 22.0014 59.5071 24.4688C57.2386 36.0596 56.6504 52.0459 57.0839 63.4571C57.4199 72.4141 58.9437 79.9561 62.0134 87.0575C63.6385 90.8119 65.5713 94.441 67.5654 97.7549C72.3448 105.694 77.6108 111.381 85.1492 116.993Z" stroke="url(#paint2_linear_8_1158)" stroke-miterlimit="22.9256"/>
<path d="M59.8737 11.9217C65.6731 22.7141 71.5339 33.4696 77.4795 44.1846C71.3967 44.2012 65.985 43.6639 60.3176 39.7851C67.5849 45.7082 72.0019 44.0188 78.0519 45.2164C82.3876 53.0113 86.7673 60.7904 91.2083 68.5327C81.3795 70.2264 72.5008 70.8687 62.3081 66.1395C75.5037 73.6566 82.1183 69.7924 92.0935 70.0782C96.1686 77.1717 99.7665 83.2639 103.947 90.3047C96.5322 88.4987 81.9387 93.8549 64.6925 88.4274C83.2601 95.6066 91.3541 91.5046 104.673 91.6141C108.77 98.5058 112.917 105.37 117.132 112.2C104.563 114.355 93.2004 115.163 80.1607 109.11C97.0781 118.745 105.574 113.808 118.345 114.164C126.246 126.93 134.366 139.588 142.752 152.1C144.13 153.637 146.477 152.477 145.364 149.821C136.175 136.673 127.316 123.49 118.755 110.281C124.3 99.0742 132.348 93.6622 131.574 74.4631C130.959 88.6949 125.142 98.3744 117.577 108.458C114.297 103.379 111.055 98.2972 107.854 93.2053C112.08 81.061 118.319 74.589 117.598 55.078C117.205 69.7368 112.709 80.3482 106.855 91.606C101.844 83.6163 96.9365 75.6242 92.1082 67.6185C96.4352 58.4936 102.986 54.4237 102.374 39.1365C101.888 50.4058 97.2202 58.0082 91.1831 66.0028L91.3505 66.3601C86.4757 58.2518 81.6865 50.1327 76.9711 42.012C80.2207 36.8064 84.4515 34.7068 85.0952 25.3784C84.0405 32.2508 80.6688 36.6009 76.4364 41.0859C70.8082 31.3699 65.2922 21.6484 59.8737 11.9217Z" fill="url(#paint3_linear_8_1158)"/>
</g>
<g clip-path="url(#clip3_8_1158)">
<path d="M29.9785 85.8184C20.7958 78.9828 13.0501 78.821 2.28627 77.7598C0.686916 77.6481 -9.07266 77.2153 -9.6515 77.3882C-11.0218 76.9309 -13.1432 72.7882 -14.2728 71.0174C-17.0889 66.6123 -26.4853 51.4117 -29.5529 50.4158C-29.9333 50.602 -30.3857 50.7395 -30.7069 51.2026C-31.2773 52.0383 -31.0738 52.1491 -30.684 52.67C-30.6478 52.8409 -22.7601 63.3758 -22.0028 64.4803C-18.688 69.3772 -15.1993 73.8441 -12.3061 79.0762L-14.6886 83.901L-17.5622 89.8114C-19.1779 93.725 -21.2864 97.4131 -22.7033 101.355C-27.139 113.649 -25.9588 118.577 -22.4701 131.227C-21.9423 132.523 -21.3184 134.157 -20.666 135.329C-16.4318 142.534 -13.1373 147.861 -7.51357 154.23C-6.20987 155.71 -5.06759 156.974 -3.65446 158.454C-3.16716 158.97 -2.51511 159.447 -1.90925 159.975C6.39873 167.253 15.97 172.509 25.8952 177.309C28.7761 178.7 31.7313 179.965 34.5915 181.353L38.9483 183.163C42.6519 184.577 46.4283 185.527 49.9229 187.398C52.3913 188.718 53.4785 190.718 55.5075 191.684C56.0541 189.615 54.6981 187.225 54.6963 184.955C54.6953 182.59 55.1418 180.81 55.6206 178.343C57.8891 166.752 58.4773 150.766 58.0437 139.354C57.7077 130.397 56.184 122.855 53.1143 115.754C51.4892 112 49.5564 108.371 47.5623 105.057C42.7829 97.1179 37.5169 91.4305 29.9785 85.8184Z" stroke="url(#paint4_linear_8_1158)" stroke-miterlimit="22.9256"/>
<path d="M55.254 190.89C49.4546 180.097 43.5938 169.342 37.6482 158.627C43.731 158.61 49.1426 159.148 54.81 163.026C47.5428 157.103 43.1257 158.793 37.0758 157.595C32.7401 149.8 28.3604 142.021 23.9194 134.279C33.7482 132.585 42.6268 131.943 52.8196 136.672C39.6239 129.155 33.0094 133.019 23.0342 132.733C18.9591 125.64 15.3612 119.548 11.1808 112.507C18.5954 114.313 33.189 108.957 50.4352 114.384C31.8676 107.205 23.7736 111.307 10.4545 111.197C6.35725 104.306 2.21028 97.4417 -2.00397 90.6118C10.5651 88.4564 21.9273 87.6484 34.967 93.7011C18.0496 84.0664 9.55377 89.0032 -3.21761 88.6475C-11.1181 75.8814 -19.238 63.2238 -27.6239 50.7114C-29.0028 49.1741 -31.3494 50.3342 -30.2361 52.9903C-21.0468 66.1386 -12.188 79.321 -3.62734 92.5309C-9.17198 103.737 -17.2198 109.149 -16.446 128.348C-15.8317 114.117 -10.0144 104.437 -2.44929 94.354C0.830942 99.4322 4.07282 104.514 7.27351 109.606C3.04744 121.751 -3.19122 128.223 -2.46983 147.734C-2.07766 133.075 2.4182 122.463 8.27223 111.205C13.2835 119.195 18.1912 127.187 23.0194 135.193C18.6925 144.318 12.1415 148.388 12.7537 163.675C13.24 152.406 17.9075 144.803 23.9446 136.809L23.7772 136.451C28.652 144.56 33.4412 152.679 38.1566 160.8C34.9069 166.005 30.6762 168.105 30.0325 177.433C31.0872 170.561 34.4589 166.211 38.6912 161.726C44.3195 171.442 49.8355 181.163 55.254 190.89Z" fill="url(#paint5_linear_8_1158)"/>
</g>
<g clip-path="url(#clip4_8_1158)">
<path d="M325.979 256.818C316.796 249.983 309.05 249.821 298.286 248.76C296.687 248.648 286.927 248.215 286.349 248.388C284.978 247.931 282.857 243.788 281.727 242.017C278.911 237.612 269.515 222.412 266.447 221.416C266.067 221.602 265.614 221.74 265.293 222.203C264.723 223.038 264.926 223.149 265.316 223.67C265.352 223.841 273.24 234.376 273.997 235.48C277.312 240.377 280.801 244.844 283.694 250.076L281.312 254.901L278.438 260.811C276.822 264.725 274.714 268.413 273.297 272.355C268.861 284.649 270.041 289.577 273.53 302.227C274.058 303.523 274.682 305.157 275.334 306.329C279.568 313.534 282.863 318.861 288.487 325.23C289.79 326.71 290.933 327.974 292.346 329.454C292.833 329.97 293.485 330.447 294.091 330.975C302.399 338.253 311.97 343.509 321.895 348.309C324.776 349.7 327.731 350.965 330.592 352.353L334.948 354.163C338.652 355.577 342.428 356.527 345.923 358.398C348.391 359.718 349.479 361.718 351.508 362.684C352.054 360.615 350.698 358.225 350.696 355.955C350.695 353.59 351.142 351.81 351.621 349.343C353.889 337.752 354.477 321.766 354.044 310.354C353.708 301.397 352.184 293.855 349.114 286.754C347.489 283 345.556 279.371 343.562 276.057C338.783 268.118 333.517 262.431 325.979 256.818Z" stroke="url(#paint6_linear_8_1158)" stroke-miterlimit="22.9256"/>
<path d="M351.254 361.89C345.455 351.097 339.594 340.342 333.648 329.627C339.731 329.61 345.143 330.148 350.81 334.026C343.543 328.103 339.126 329.793 333.076 328.595C328.74 320.8 324.36 313.021 319.919 305.279C329.748 303.585 338.627 302.943 348.82 307.672C335.624 300.155 329.009 304.019 319.034 303.733C314.959 296.64 311.361 290.548 307.181 283.507C314.595 285.313 329.189 279.957 346.435 285.384C327.868 278.205 319.774 282.307 306.455 282.197C302.357 275.306 298.21 268.442 293.996 261.612C306.565 259.456 317.927 258.648 330.967 264.701C314.05 255.066 305.554 260.003 292.782 259.648C284.882 246.881 276.762 234.224 268.376 221.711C266.997 220.174 264.651 221.334 265.764 223.99C274.953 237.139 283.812 250.321 292.373 263.531C286.828 274.737 278.78 280.149 279.554 299.348C280.168 285.117 285.986 275.437 293.551 265.354C296.831 270.432 300.073 275.514 303.274 280.606C299.047 292.751 292.809 299.223 293.53 318.734C293.922 304.075 298.418 293.463 304.272 282.205C309.283 290.195 314.191 298.187 319.019 306.193C314.692 315.318 308.142 319.388 308.754 334.675C309.24 323.406 313.907 315.803 319.945 307.809L319.777 307.451C324.652 315.56 329.441 323.679 334.157 331.8C330.907 337.005 326.676 339.105 326.033 348.433C327.087 341.561 330.459 337.211 334.691 332.726C340.319 342.442 345.835 352.163 351.254 361.89Z" fill="url(#paint7_linear_8_1158)"/>
</g>
<g clip-path="url(#clip5_8_1158)">
<path d="M353.979 433.818C344.796 426.983 337.05 426.821 326.286 425.76C324.687 425.648 314.927 425.215 314.349 425.388C312.978 424.931 310.857 420.788 309.727 419.017C306.911 414.612 297.515 399.412 294.447 398.416C294.067 398.602 293.614 398.74 293.293 399.203C292.723 400.038 292.926 400.149 293.316 400.67C293.352 400.841 301.24 411.376 301.997 412.48C305.312 417.377 308.801 421.844 311.694 427.076L309.312 431.901L306.438 437.811C304.822 441.725 302.714 445.413 301.297 449.355C296.861 461.649 298.041 466.577 301.53 479.227C302.058 480.523 302.682 482.157 303.334 483.329C307.568 490.534 310.863 495.861 316.487 502.23C317.79 503.71 318.933 504.974 320.346 506.454C320.833 506.97 321.485 507.447 322.091 507.975C330.399 515.253 339.97 520.509 349.895 525.309C352.776 526.7 355.731 527.965 358.592 529.353L362.948 531.163C366.652 532.577 370.428 533.527 373.923 535.398C376.391 536.718 377.479 538.718 379.508 539.684C380.054 537.615 378.698 535.225 378.696 532.955C378.695 530.59 379.142 528.81 379.621 526.343C381.889 514.752 382.477 498.766 382.044 487.354C381.708 478.397 380.184 470.855 377.114 463.754C375.489 460 373.556 456.371 371.562 453.057C366.783 445.118 361.517 439.431 353.979 433.818Z" stroke="url(#paint8_linear_8_1158)" stroke-miterlimit="22.9256"/>
<path d="M379.254 538.89C373.455 528.097 367.594 517.342 361.648 506.627C367.731 506.61 373.143 507.148 378.81 511.026C371.543 505.103 367.126 506.793 361.076 505.595C356.74 497.8 352.36 490.021 347.919 482.279C357.748 480.585 366.627 479.943 376.82 484.672C363.624 477.155 357.009 481.019 347.034 480.733C342.959 473.64 339.361 467.548 335.181 460.507C342.595 462.313 357.189 456.957 374.435 462.384C355.868 455.205 347.774 459.307 334.455 459.197C330.357 452.306 326.21 445.442 321.996 438.612C334.565 436.456 345.927 435.648 358.967 441.701C342.05 432.066 333.554 437.003 320.782 436.648C312.882 423.881 304.762 411.224 296.376 398.711C294.997 397.174 292.651 398.334 293.764 400.99C302.953 414.139 311.812 427.321 320.373 440.531C314.828 451.737 306.78 457.149 307.554 476.348C308.168 462.117 313.986 452.437 321.551 442.354C324.831 447.432 328.073 452.514 331.274 457.606C327.047 469.751 320.809 476.223 321.53 495.734C321.922 481.075 326.418 470.463 332.272 459.205C337.283 467.195 342.191 475.187 347.019 483.193C342.692 492.318 336.142 496.388 336.754 511.675C337.24 500.406 341.907 492.803 347.945 484.809L347.777 484.451C352.652 492.56 357.441 500.679 362.157 508.8C358.907 514.005 354.676 516.105 354.033 525.433C355.087 518.561 358.459 514.211 362.691 509.726C368.319 519.442 373.835 529.163 379.254 538.89Z" fill="url(#paint9_linear_8_1158)"/>
</g>
<g clip-path="url(#clip6_8_1158)">
<path d="M105.123 427.063C94.7205 422.284 87.1102 423.735 76.3607 424.933C74.773 425.156 65.1364 426.76 64.6061 427.049C63.1707 426.886 60.235 423.275 58.7622 421.777C55.0924 418.053 42.7433 405.136 39.5358 404.799C39.2023 405.06 38.7883 405.289 38.5703 405.809C38.186 406.745 38.4081 406.811 38.8976 407.239C38.9685 407.399 48.8726 416.065 49.8428 416.989C54.1025 421.09 58.4431 424.735 62.3601 429.252L61.0318 434.466L59.4487 440.845C58.6813 445.008 57.3849 449.054 56.8178 453.204C55.0327 466.152 57.2108 470.726 63.2512 482.376C64.0368 483.534 64.9866 485.003 65.8682 486.014C71.5068 492.183 75.836 496.709 82.6601 501.77C84.2427 502.947 85.6228 503.947 87.3126 505.101C87.8964 505.504 88.6332 505.835 89.3355 506.226C98.9743 511.62 109.429 514.772 120.134 517.406C123.241 518.168 126.395 518.791 129.481 519.555L134.119 520.421C138.035 521.034 141.927 521.179 145.734 522.283C148.423 523.062 149.902 524.792 152.087 525.316C152.192 523.178 150.369 521.122 149.895 518.902C149.403 516.589 149.47 514.755 149.426 512.242C149.237 500.433 146.492 484.673 143.697 473.601C141.508 464.909 138.451 457.848 133.973 451.539C131.603 448.204 128.958 445.056 126.32 442.229C119.995 435.456 113.663 430.987 105.123 427.063Z" stroke="url(#paint10_linear_8_1158)" stroke-miterlimit="22.9256"/>
<path d="M151.674 524.592C143.759 515.24 135.792 505.936 127.75 496.69C133.697 495.41 139.102 494.812 145.451 497.429C137.112 493.144 133.143 495.714 126.976 495.8C121.115 489.076 115.215 482.376 109.263 475.725C118.525 472.027 127.077 469.554 138.03 472.063C123.56 467.451 117.893 472.605 108.076 474.397C102.616 468.305 97.8312 463.093 92.2794 457.074C99.9074 457.301 113.07 449.03 131.067 450.756C111.413 447.591 104.348 453.285 91.2969 455.944C85.8573 450.054 80.3749 444.201 74.8338 438.396C86.681 433.676 97.6274 430.526 111.64 433.738C93.0902 427.827 85.8053 434.421 73.2386 436.727C62.8585 425.88 52.2863 415.185 41.4841 404.688C39.8159 403.471 37.7615 405.093 39.4023 407.46C51.1224 418.412 62.5264 429.467 73.6445 440.61C70.5488 452.724 63.8008 459.69 68.546 478.309C66.1905 464.26 69.8701 453.584 75.1756 442.149C79.4392 446.435 83.6661 450.733 87.8547 455.049C86.2436 467.806 81.4855 475.433 86.2443 494.368C83.5828 479.948 85.7762 468.634 89.1639 456.406C95.7255 463.18 102.186 469.978 108.572 476.806C106.235 486.631 100.673 491.973 104.447 506.8C102.582 495.675 105.568 487.269 109.813 478.195L109.575 477.88C116.028 484.799 122.399 491.746 128.699 498.71C126.601 504.477 122.899 507.409 124.207 516.668C123.811 509.726 126.206 504.771 129.414 499.504C136.938 507.839 144.353 516.203 151.674 524.592Z" fill="url(#paint11_linear_8_1158)"/>
</g>
<g clip-path="url(#clip7_8_1158)">
<path d="M360.883 267.87C370.066 274.706 377.812 274.868 388.575 275.929C390.175 276.04 399.934 276.473 400.513 276.3C401.883 276.758 404.005 280.9 405.134 282.671C407.951 287.076 417.347 302.277 420.415 303.273C420.795 303.086 421.247 302.949 421.569 302.486C422.139 301.65 421.936 301.539 421.546 301.018C421.509 300.848 413.622 290.313 412.864 289.208C409.55 284.311 406.061 279.844 403.168 274.612L405.55 269.787L408.424 263.877C410.04 259.963 412.148 256.275 413.565 252.334C418.001 240.04 416.82 235.112 413.332 222.462C412.804 221.166 412.18 219.531 411.528 218.359C407.294 211.154 403.999 205.827 398.375 199.459C397.072 197.979 395.929 196.714 394.516 195.234C394.029 194.718 393.377 194.242 392.771 193.714C384.463 186.435 374.892 181.18 364.967 176.38C362.086 174.989 359.13 173.724 356.27 172.336L351.913 170.525C348.21 169.112 344.433 168.162 340.939 166.29C338.47 164.97 337.383 162.97 335.354 162.004C334.808 164.074 336.164 166.464 336.165 168.734C336.166 171.098 335.72 172.878 335.241 175.346C332.973 186.937 332.384 202.923 332.818 214.334C333.154 223.291 334.678 230.833 337.747 237.934C339.372 241.689 341.305 245.318 343.299 248.632C348.079 256.571 353.345 262.258 360.883 267.87Z" stroke="url(#paint12_linear_8_1158)" stroke-miterlimit="22.9256"/>
<path d="M335.608 162.799C341.407 173.591 347.268 184.347 353.214 195.062C347.131 195.078 341.719 194.541 336.052 190.662C343.319 196.585 347.736 194.896 353.786 196.093C358.122 203.888 362.501 211.667 366.942 219.41C357.114 221.103 348.235 221.746 338.042 217.016C351.238 224.534 357.852 220.669 367.828 220.955C371.903 228.049 375.501 234.141 379.681 241.182C372.266 239.376 357.673 244.732 340.427 239.304C358.994 246.484 367.088 242.382 380.407 242.491C384.505 249.383 388.652 256.247 392.866 263.077C380.297 265.232 368.935 266.04 355.895 259.987C372.812 269.622 381.308 264.685 394.079 265.041C401.98 277.807 410.1 290.465 418.486 302.977C419.865 304.514 422.211 303.354 421.098 300.698C411.909 287.55 403.05 274.367 394.489 261.158C400.034 249.951 408.082 244.539 407.308 225.34C406.694 239.572 400.876 249.251 393.311 259.335C390.031 254.256 386.789 249.174 383.588 244.082C387.814 231.938 394.053 225.466 393.332 205.955C392.939 220.614 388.444 231.225 382.59 242.483C377.578 234.493 372.671 226.501 367.842 218.495C372.169 209.371 378.72 205.301 378.108 190.013C377.622 201.283 372.954 208.885 366.917 216.88L367.085 217.237C362.21 209.129 357.421 201.01 352.705 192.889C355.955 187.683 360.186 185.584 360.829 176.255C359.775 183.128 356.403 187.478 352.171 191.963C346.542 182.247 341.026 172.525 335.608 162.799Z" fill="url(#paint13_linear_8_1158)"/>
</g>
<g clip-path="url(#clip8_8_1158)">
<path d="M252.754 -29.0985C263.969 -31.3965 271.052 -28.2592 281.251 -24.657C282.747 -24.0801 291.77 -20.3345 292.22 -19.9325C293.655 -19.7657 297.333 -22.6183 299.107 -23.7432C303.525 -26.539 318.479 -36.3223 321.68 -35.9237C321.945 -35.5938 322.297 -35.2775 322.391 -34.7219C322.554 -33.7232 322.322 -33.7091 321.749 -33.4026C321.643 -33.2632 310.033 -27.0659 308.879 -26.3866C303.801 -23.3568 298.747 -20.7903 293.909 -17.2783L294.021 -11.8984L294.118 -5.32725C293.922 -1.09772 294.268 3.13643 293.881 7.3071C292.686 20.3222 289.528 24.2847 281.005 34.2627C279.978 35.2128 278.72 36.4285 277.632 37.2134C270.742 41.944 265.5 45.3715 257.707 48.7555C255.899 49.543 254.328 50.204 252.421 50.9456C251.761 51.2061 250.968 51.3612 250.196 51.5825C239.586 54.6525 228.689 55.3544 217.665 55.4942C214.466 55.5325 211.253 55.4252 208.074 55.47L203.361 55.2623C199.407 54.9724 195.584 54.2321 191.626 54.4452C188.831 54.5944 186.998 55.9446 184.751 55.9595C185.133 53.8536 187.375 52.2637 188.339 50.2086C189.342 48.0673 189.692 46.266 190.305 43.8284C193.164 32.369 199.409 17.6411 204.639 7.48994C208.741 -0.479808 213.318 -6.66449 219.109 -11.7948C222.173 -14.5061 225.462 -16.9735 228.673 -19.1295C236.367 -24.2932 243.547 -27.2117 252.754 -29.0985Z" stroke="url(#paint14_linear_8_1158)" stroke-miterlimit="22.9256"/>
<path d="M185.317 55.3477C195.145 48.0319 205.013 40.7755 214.94 33.5917C209.438 30.9979 204.309 29.1903 197.532 30.3005C206.625 28.017 209.909 31.4197 215.896 32.8999C223.128 27.6783 230.392 22.4896 237.697 17.3604C229.513 11.6595 221.744 7.31366 210.508 7.2756C225.646 6.06176 229.998 12.3658 239.154 16.3359C245.852 11.639 251.693 7.64683 258.464 3.04236C250.983 1.53455 240.037 -9.50344 222.116 -11.8993C241.976 -10.5297 247.568 -3.38317 259.677 2.16434C266.31 -2.34035 272.975 -6.79884 279.688 -11.1979C269.218 -18.4788 259.27 -24.0276 244.894 -24.074C264.301 -25.6278 269.902 -17.5548 281.62 -12.4624C294.187 -20.6751 306.908 -28.6964 319.807 -36.4736C321.708 -37.2813 323.341 -35.2358 321.207 -33.3022C307.31 -25.2897 293.698 -17.1063 280.344 -8.77161C280.615 3.72851 285.61 12.042 276.769 29.1023C282.246 15.9523 281.081 4.71947 278.505 -7.61995C273.381 -4.41129 268.29 -1.1829 263.233 2.07184C261.911 14.8624 264.818 23.3689 255.893 40.7339C261.752 27.2913 262.179 15.7747 261.65 3.09681C253.724 8.20849 245.891 13.3662 238.124 18.5699C238.175 28.6686 242.382 35.1319 235.347 48.7178C239.684 38.3052 238.68 29.441 236.601 19.641L236.904 19.3884C229.052 24.6652 221.272 29.9881 213.559 35.3439C214.295 41.4362 217.237 45.1314 213.865 53.8529C215.823 47.1815 214.614 41.8123 212.682 35.956C203.465 42.3695 194.348 48.8356 185.317 55.3477Z" fill="url(#paint15_linear_8_1158)"/>
</g>
<g clip-path="url(#clip9_8_1158)">
<path d="M97.7542 188.901C108.969 186.604 116.052 189.741 126.251 193.343C127.747 193.92 136.77 197.665 137.22 198.068C138.655 198.234 142.333 195.382 144.107 194.257C148.525 191.461 163.479 181.678 166.68 182.076C166.945 182.406 167.297 182.723 167.391 183.278C167.554 184.277 167.322 184.291 166.749 184.597C166.643 184.737 155.033 190.934 153.879 191.613C148.801 194.643 143.747 197.21 138.909 200.722L139.021 206.102L139.118 212.673C138.922 216.902 139.268 221.136 138.881 225.307C137.686 238.322 134.528 242.285 126.005 252.263C124.978 253.213 123.72 254.428 122.632 255.213C115.742 259.944 110.5 263.372 102.707 266.755C100.899 267.543 99.3283 268.204 97.4209 268.946C96.7609 269.206 95.9683 269.361 95.1958 269.582C84.5856 272.652 73.689 273.354 62.6648 273.494C59.4659 273.532 56.2533 273.425 53.0743 273.47L48.3609 273.262C44.4073 272.972 40.5843 272.232 36.626 272.445C33.8307 272.594 31.9982 273.945 29.751 273.959C30.1332 271.854 32.3746 270.264 33.3387 268.209C34.342 266.067 34.6923 264.266 35.3047 261.828C38.1641 250.369 44.4088 235.641 49.6392 225.49C53.7408 217.52 58.3183 211.336 64.1092 206.205C67.1727 203.494 70.4618 201.027 73.6727 198.871C81.367 193.707 88.5474 190.788 97.7542 188.901Z" stroke="url(#paint16_linear_8_1158)" stroke-miterlimit="22.9256"/>
<path d="M30.3171 273.348C40.145 266.032 50.0128 258.776 59.9403 251.592C54.4382 248.998 49.3092 247.19 42.5319 248.301C51.6248 246.017 54.9091 249.42 60.8961 250.9C68.1276 245.678 75.3922 240.49 82.6967 235.36C74.5129 229.659 66.744 225.314 55.5076 225.276C70.6456 224.062 74.998 230.366 84.1536 234.336C90.8516 229.639 96.693 225.647 103.464 221.042C95.9831 219.535 85.0368 208.497 67.1161 206.101C86.9762 207.47 92.5677 214.617 104.677 220.164C111.31 215.66 117.975 211.201 124.688 206.802C114.218 199.521 104.27 193.972 89.894 193.926C109.301 192.372 114.902 200.445 126.62 205.538C139.187 197.325 151.908 189.304 164.807 181.526C166.708 180.719 168.341 182.764 166.207 184.698C152.31 192.71 138.698 200.894 125.344 209.228C125.615 221.729 130.61 230.042 121.769 247.102C127.246 233.952 126.081 222.719 123.505 210.38C118.381 213.589 113.29 216.817 108.233 220.072C106.911 232.862 109.818 241.369 100.893 258.734C106.752 245.291 107.179 233.775 106.65 221.097C98.7242 226.208 90.891 231.366 83.1242 236.57C83.1745 246.669 87.3822 253.132 80.3467 266.718C84.6839 256.305 83.6797 247.441 81.6013 237.641L81.9044 237.388C74.0519 242.665 66.2722 247.988 58.5588 253.344C59.295 259.436 62.2366 263.131 58.8648 271.853C60.8231 265.182 59.6136 259.812 57.6819 253.956C48.4654 260.369 39.3482 266.836 30.3171 273.348Z" fill="url(#paint17_linear_8_1158)"/>
</g>
<g clip-path="url(#clip10_8_1158)">
<path d="M29.5974 419.04C19.6736 424.747 11.9627 423.995 1.14881 423.781C-0.452579 423.703 -10.1952 422.984 -10.7496 422.744C-12.1642 423.036 -14.7588 426.9 -16.0891 428.526C-19.4046 432.569 -30.526 446.557 -33.6895 447.184C-34.0453 446.954 -34.4784 446.765 -34.7428 446.267C-35.2108 445.37 -34.9957 445.284 -34.5472 444.812C-34.4911 444.647 -25.4175 435.115 -24.5354 434.107C-20.6669 429.635 -16.6762 425.61 -13.1869 420.755L-14.9845 415.683L-17.142 409.475C-18.2854 405.399 -19.9448 401.488 -20.8876 397.407C-23.8443 384.676 -22.0919 379.921 -17.1375 367.77C-16.4606 366.545 -15.6486 364.996 -14.8627 363.909C-9.80928 357.252 -5.91032 352.351 0.42446 346.689C1.89339 345.373 3.17666 344.252 4.75432 342.948C5.29897 342.493 6.00262 342.097 6.66643 341.644C15.7739 335.395 25.8976 331.303 36.3191 327.706C39.3438 326.664 42.4273 325.756 45.4312 324.714L49.9709 323.43C53.8152 322.462 57.6772 321.963 61.3679 320.517C63.9746 319.497 65.2899 317.639 67.4185 316.918C67.7176 319.038 66.0895 321.251 65.8203 323.505C65.5408 325.854 65.7745 327.674 65.9594 330.18C66.8468 341.958 65.5479 357.902 63.7733 369.183C62.3846 378.038 59.9831 385.348 56.0982 392.038C54.0423 395.575 51.6954 398.951 49.3249 402.007C43.6437 409.328 37.7445 414.355 29.5974 419.04Z" stroke="url(#paint18_linear_8_1158)" stroke-miterlimit="22.9256"/>
<path d="M67.0733 317.677C60.043 327.711 52.9562 337.701 45.7899 347.642C51.8284 348.375 57.2656 348.478 63.3505 345.294C55.4362 350.32 51.2488 348.122 45.0999 348.599C39.8763 355.829 34.6107 363.038 29.2887 370.203C38.8496 373.043 47.5908 374.726 58.2696 371.231C44.2804 377.141 38.1671 372.525 28.2276 371.634C23.3454 378.198 19.0549 383.824 14.0743 390.323C21.6501 389.403 35.5111 396.441 53.2766 393.082C33.9926 398.025 26.4381 392.998 13.1989 391.538C8.31834 397.899 3.39174 404.227 -1.59765 410.513C10.6301 414.134 21.818 416.274 35.4798 411.8C17.5453 419.375 9.69016 413.471 -3.03421 412.32C-12.3834 424.067 -21.9377 435.68 -31.739 447.118C-33.2894 448.482 -35.483 447.053 -34.0646 444.547C-23.3906 432.572 -13.0407 420.525 -2.98368 408.416C-7.16973 396.634 -14.5241 390.312 -11.4943 371.338C-12.5605 385.543 -7.92389 395.84 -1.59909 406.744C2.25647 402.088 6.0744 397.423 9.85257 392.743C7.08638 380.186 1.65347 373.024 4.66801 353.734C3.33081 368.337 6.54546 379.404 11.0327 391.273C16.9501 383.929 22.7651 376.57 28.5027 369.189C25.2807 359.618 19.2547 354.805 21.6633 339.696C20.8188 350.944 24.5583 359.044 29.6117 367.694L29.4034 368.029C35.1993 360.551 40.9116 353.053 46.5507 345.544C43.9368 339.992 39.9828 337.409 40.4423 328.069C40.6802 335.018 43.5161 339.735 47.1906 344.687C53.9241 335.702 60.5468 326.698 67.0733 317.677Z" fill="url(#paint19_linear_8_1158)"/>
</g>
</g>
<defs>
<linearGradient id="paint0_linear_8_1158" x1="309.756" y1="41.4146" x2="309.756" y2="179.437" gradientUnits="userSpaceOnUse">
<stop offset="0.322917" stop-color="#00BD8D"/>
<stop offset="1" stop-color="#00392D"/>
</linearGradient>
<linearGradient id="paint1_linear_8_1158" x1="309.09" y1="41.9829" x2="309.09" y2="179.213" gradientUnits="userSpaceOnUse">
<stop offset="0.322917" stop-color="#00BD8D"/>
<stop offset="1" stop-color="#00392D"/>
</linearGradient>
<linearGradient id="paint2_linear_8_1158" x1="40.0953" y1="52.4416" x2="164.884" y2="111.416" gradientUnits="userSpaceOnUse">
<stop offset="0.322917" stop-color="#00BD8D"/>
<stop offset="1" stop-color="#00392D"/>
</linearGradient>
<linearGradient id="paint3_linear_8_1158" x1="40.3248" y1="53.2868" x2="164.397" y2="111.923" gradientUnits="userSpaceOnUse">
<stop offset="0.322917" stop-color="#00BD8D"/>
<stop offset="1" stop-color="#00392D"/>
</linearGradient>
<linearGradient id="paint4_linear_8_1158" x1="75.0324" y1="150.37" x2="-49.7559" y2="91.3957" gradientUnits="userSpaceOnUse">
<stop offset="0.322917" stop-color="#00BD8D"/>
<stop offset="1" stop-color="#00392D"/>
</linearGradient>
<linearGradient id="paint5_linear_8_1158" x1="74.8029" y1="149.525" x2="-49.2694" y2="90.8888" gradientUnits="userSpaceOnUse">
<stop offset="0.322917" stop-color="#00BD8D"/>
<stop offset="1" stop-color="#00392D"/>
</linearGradient>
<linearGradient id="paint6_linear_8_1158" x1="371.032" y1="321.37" x2="246.244" y2="262.396" gradientUnits="userSpaceOnUse">
<stop offset="0.322917" stop-color="#00BD8D"/>
<stop offset="1" stop-color="#00392D"/>
</linearGradient>
<linearGradient id="paint7_linear_8_1158" x1="370.803" y1="320.525" x2="246.731" y2="261.889" gradientUnits="userSpaceOnUse">
<stop offset="0.322917" stop-color="#00BD8D"/>
<stop offset="1" stop-color="#00392D"/>
</linearGradient>
<linearGradient id="paint8_linear_8_1158" x1="399.032" y1="498.37" x2="274.244" y2="439.396" gradientUnits="userSpaceOnUse">
<stop offset="0.322917" stop-color="#00BD8D"/>
<stop offset="1" stop-color="#00392D"/>
</linearGradient>
<linearGradient id="paint9_linear_8_1158" x1="398.803" y1="497.525" x2="274.731" y2="438.889" gradientUnits="userSpaceOnUse">
<stop offset="0.322917" stop-color="#00BD8D"/>
<stop offset="1" stop-color="#00392D"/>
</linearGradient>
<linearGradient id="paint10_linear_8_1158" x1="162.603" y1="480.847" x2="28.2864" y2="449.082" gradientUnits="userSpaceOnUse">
<stop offset="0.322917" stop-color="#00BD8D"/>
<stop offset="1" stop-color="#00392D"/>
</linearGradient>
<linearGradient id="paint11_linear_8_1158" x1="162.203" y1="480.068" x2="28.657" y2="448.485" gradientUnits="userSpaceOnUse">
<stop offset="0.322917" stop-color="#00BD8D"/>
<stop offset="1" stop-color="#00392D"/>
</linearGradient>
<linearGradient id="paint12_linear_8_1158" x1="315.829" y1="203.319" x2="440.618" y2="262.293" gradientUnits="userSpaceOnUse">
<stop offset="0.322917" stop-color="#00BD8D"/>
<stop offset="1" stop-color="#00392D"/>
</linearGradient>
<linearGradient id="paint13_linear_8_1158" x1="316.059" y1="204.164" x2="440.131" y2="262.8" gradientUnits="userSpaceOnUse">
<stop offset="0.322917" stop-color="#00BD8D"/>
<stop offset="1" stop-color="#00392D"/>
</linearGradient>
<linearGradient id="paint14_linear_8_1158" x1="184.583" y1="10.2642" x2="322.604" y2="9.7562" gradientUnits="userSpaceOnUse">
<stop offset="0.322917" stop-color="#00BD8D"/>
<stop offset="1" stop-color="#00392D"/>
</linearGradient>
<linearGradient id="paint15_linear_8_1158" x1="185.149" y1="9.59622" x2="322.378" y2="9.09117" gradientUnits="userSpaceOnUse">
<stop offset="0.322917" stop-color="#00BD8D"/>
<stop offset="1" stop-color="#00392D"/>
</linearGradient>
<linearGradient id="paint16_linear_8_1158" x1="29.5828" y1="228.264" x2="167.604" y2="227.756" gradientUnits="userSpaceOnUse">
<stop offset="0.322917" stop-color="#00BD8D"/>
<stop offset="1" stop-color="#00392D"/>
</linearGradient>
<linearGradient id="paint17_linear_8_1158" x1="30.1487" y1="227.596" x2="167.378" y2="227.091" gradientUnits="userSpaceOnUse">
<stop offset="0.322917" stop-color="#00BD8D"/>
<stop offset="1" stop-color="#00392D"/>
</linearGradient>
<linearGradient id="paint18_linear_8_1158" x1="81.9411" y1="360.245" x2="-48.9249" y2="404.11" gradientUnits="userSpaceOnUse">
<stop offset="0.322917" stop-color="#00BD8D"/>
<stop offset="1" stop-color="#00392D"/>
</linearGradient>
<linearGradient id="paint19_linear_8_1158" x1="81.6138" y1="361.057" x2="-48.5014" y2="404.67" gradientUnits="userSpaceOnUse">
<stop offset="0.322917" stop-color="#00BD8D"/>
<stop offset="1" stop-color="#00392D"/>
</linearGradient>
<clipPath id="clip0_8_1158">
<rect width="382" height="510" rx="50" fill="white"/>
</clipPath>
<clipPath id="clip1_8_1158">
<rect width="93" height="139.5" fill="white" transform="translate(264 40)"/>
</clipPath>
<clipPath id="clip2_8_1158">
<rect width="93" height="139.5" fill="white" transform="translate(19.2659 93.2061) rotate(-64.7048)"/>
</clipPath>
<clipPath id="clip3_8_1158">
<rect width="93" height="139.5" fill="white" transform="translate(95.8618 109.605) rotate(115.295)"/>
</clipPath>
<clipPath id="clip4_8_1158">
<rect width="93" height="139.5" fill="white" transform="translate(391.862 280.605) rotate(115.295)"/>
</clipPath>
<clipPath id="clip5_8_1158">
<rect width="93" height="139.5" fill="white" transform="translate(419.862 457.605) rotate(115.295)"/>
</clipPath>
<clipPath id="clip6_8_1158">
<rect width="93" height="139.5" fill="white" transform="translate(174.51 436.645) rotate(103.306)"/>
</clipPath>
<clipPath id="clip7_8_1158">
<rect width="93" height="139.5" fill="white" transform="translate(295 244.083) rotate(-64.7048)"/>
</clipPath>
<clipPath id="clip8_8_1158">
<rect width="93" height="139.5" fill="white" transform="matrix(0.00368027 0.999993 0.999993 -0.00368027 183 -35.4863)"/>
</clipPath>
<clipPath id="clip9_8_1158">
<rect width="93" height="139.5" fill="white" transform="matrix(0.00368027 0.999993 0.999993 -0.00368027 28 182.514)"/>
</clipPath>
<clipPath id="clip10_8_1158">
<rect width="93" height="139.5" fill="white" transform="matrix(-0.317812 -0.948154 -0.948154 0.317812 97.824 403.179)"/>
</clipPath>
</defs>
</svg>
