<svg width="35" height="35" viewBox="0 0 35 35" fill="none" xmlns="http://www.w3.org/2000/svg">
    <path
        d="M19.5009 25.6345C19.286 25.6345 19.0746 25.5505 18.9163 25.3922L11.6086 18.0854C11.4535 17.9303 11.3663 17.7205 11.3663 17.5008C11.3663 17.2812 11.4535 17.0713 11.6086 16.9162L18.9163 9.60769C19.1538 9.37021 19.5089 9.30257 19.8173 9.42849C20.1256 9.55614 20.3275 9.858 20.3275 10.1922V24.8076C20.3275 25.1419 20.1265 25.444 19.8173 25.5714C19.7148 25.6136 19.6074 25.6345 19.5009 25.6345Z"
        fill="white"/>
    <path
        d="M17.5001 35.0005C7.85028 35.0005 0 27.1511 0 17.501C0 7.85093 7.85028 0 17.5001 0C27.15 0 35.0003 7.85115 35.0003 17.501C35.0003 27.1509 27.1502 35.0005 17.5001 35.0005ZM17.5001 1.65344C8.76257 1.65344 1.65343 8.76323 1.65343 17.501C1.65343 26.2388 8.76257 33.3468 17.5001 33.3468C26.2377 33.3468 33.3468 26.2386 33.3468 17.501C33.3468 8.76344 26.2379 1.65344 17.5001 1.65344Z"
        fill="white"/>
</svg>
