<svg width="80" height="80" viewBox="0 0 80 80" fill="none" xmlns="http://www.w3.org/2000/svg">
    <path
        d="M44.5731 58.593C44.082 58.593 43.5988 58.4011 43.2369 58.0392L26.5338 41.338C26.1794 40.9836 25.98 40.504 25.98 40.0019C25.98 39.4999 26.1794 39.0202 26.5338 38.6658L43.2369 21.9606C43.7797 21.4178 44.5915 21.2632 45.2963 21.551C46.0012 21.8428 46.4625 22.5328 46.4625 23.2968V56.7031C46.4625 57.4671 46.0032 58.1575 45.2963 58.4488C45.0622 58.5452 44.8166 58.593 44.5731 58.593Z"
        fill="white"/>
    <path
        d="M40 80.0005C17.9434 80.0005 0 62.0591 0 40.002C0 17.9448 17.9434 0 40 0C62.0566 0 80 17.9453 80 40.002C80 62.0586 62.0571 80.0005 40 80.0005ZM40 3.77925C20.0286 3.77925 3.77925 20.0301 3.77925 40.002C3.77925 59.9739 20.0286 76.2208 40 76.2208C59.9714 76.2208 76.2208 59.9734 76.2208 40.002C76.2208 20.0306 59.9719 3.77925 40 3.77925Z"
        fill="white"/>
</svg>
