<svg width="20" height="20" viewBox="0 0 20 20" fill="none" xmlns="http://www.w3.org/2000/svg">
    <path
        d="M15.2174 7.8257V5.21741C15.2174 2.33564 12.8812 0 9.99991 0C7.11819 0 4.7825 2.33564 4.7825 5.21741V7.8257C3.82215 7.8257 3.04346 8.60439 3.04346 9.56474V18.2608C3.04346 19.2214 3.82215 20 4.7825 20H15.2174C16.1778 20 16.9563 19.2214 16.9563 18.2608V9.56474C16.9564 8.60439 16.1778 7.8257 15.2174 7.8257ZM6.52166 5.21741C6.52166 3.29615 8.07904 1.73915 9.99991 1.73915C11.9209 1.73915 13.4783 3.2961 13.4783 5.21741V7.8257H6.52166V5.21741ZM15.2174 18.2608H4.7825V9.56518H15.2174V18.2608ZM9.13033 14.5414V15.6521C9.13033 16.1319 9.51996 16.5216 9.99991 16.5216C10.4798 16.5216 10.8695 16.1319 10.8695 15.6521V14.5414C11.3866 14.2401 11.7391 13.6854 11.7391 13.0435C11.7391 12.0827 10.9603 11.3039 9.99991 11.3039C9.03956 11.3039 8.26087 12.0827 8.26087 13.0435C8.26087 13.6854 8.61299 14.2401 9.13033 14.5414Z"
        fill="#463E57"/>
</svg>
