<svg width="184" height="179" viewBox="0 0 184 179" fill="none" xmlns="http://www.w3.org/2000/svg">
    <path
        d="M130.433 130.367H142.732V127.772H130.433V116.06H146.541V113.448H125.941V148.926H146.934V146.314H130.433V130.367Z"
        fill="white"/>
    <path d="M41.2686 148.926H45.7439V113.448H41.2686V148.926Z" fill="white"/>
    <path
        d="M83.3228 113.448H80.2823L63.3547 130.726V113.448H58.8794V148.926H63.3547V133.526L66.0535 130.811L81.3755 148.926H87.4906L69.3161 127.533L83.3228 113.448Z"
        fill="white"/>
    <path
        d="M161.06 134.96L166.953 118.86L173.324 134.96H161.06ZM178.859 148.927H184L168.866 113.226H166.697L153.322 148.927H155.953L160.291 137.095H174.178L178.859 148.927Z"
        fill="white"/>
    <path
        d="M26.3394 141.602L2.52806 113.448H0V148.926H2.61344V120.636L26.8006 149.336H28.9529V113.448H26.3394V141.602Z"
        fill="white"/>
    <path d="M89.5574 116.06H101.736V148.926H106.229V116.06H118.408V113.448H89.5574V116.06Z" fill="white"/>
    <path
        d="M89.506 172.573C89.506 173.256 88.6349 174.4 86.9609 175.92C87.1317 174.23 87.7979 172.027 88.9252 172.027C89.4548 172.061 89.506 172.3 89.506 172.573ZM84.7061 167.998V168.015C84.7061 169.961 83.2201 171.907 81.5119 173.751C81.8707 172.727 82.2464 171.737 82.4685 171.037C82.8955 169.637 83.5446 167.161 84.2791 166.99C84.4158 167.059 84.5183 167.161 84.6037 167.315C84.7061 167.537 84.7061 167.827 84.7061 167.998ZM78.5227 167.998V168.015C78.5227 169.961 77.0366 171.907 75.3285 173.751C75.6701 172.727 76.063 171.737 76.2851 171.037C76.7121 169.637 77.3612 167.161 78.0957 166.99C78.2323 167.059 78.3348 167.161 78.4031 167.315C78.5227 167.537 78.5227 167.827 78.5227 167.998ZM62.8762 169.329C62.6883 169.329 62.6541 169.261 62.6541 169.142C62.6541 168.886 63.0128 168.425 63.6107 167.981C63.4911 168.92 63.0641 169.329 62.8762 169.329ZM130.347 174.093L130.211 174.247C129.323 175.322 127.307 177.798 126.316 178.037C125.958 178.037 125.821 177.815 125.821 177.388C125.821 176.21 126.914 174.776 126.914 173.188C126.914 171.873 125.616 171.686 125.001 171.686H124.984C124.984 171.686 124.984 171.686 124.967 171.686C124.933 171.686 124.916 171.686 124.899 171.686V171.703C123.703 171.754 122.712 173.41 121.807 175.493L121.756 175.373C121.943 174.554 122.336 172.659 120.987 172.01C120.987 172.01 120.901 171.925 120.867 172.061C120.697 172.556 120.492 173.205 120.304 173.888C119.415 174.708 118.869 174.895 118.749 174.895C118.015 174.895 117.571 174.195 116.751 172.847L116.529 172.949C116.699 173.41 116.682 173.803 116.682 174.093C116.682 174.144 116.682 174.195 116.682 174.229C116.682 176.637 115.333 177.9 114.24 178.293C113.147 178.361 112.976 177.473 112.976 176.415C112.976 174.69 113.949 171.993 115.248 171.993C115.794 172.027 115.999 172.232 116.136 172.368C116.17 172.403 116.204 172.437 116.255 172.471L116.409 172.266C116.392 172.249 116.358 172.215 116.324 172.181C116.153 172.01 115.862 171.737 115.06 171.737C113.215 171.737 111.353 172.932 111.268 175.578C110.226 176.688 108.671 178.259 107.971 178.259C107.817 178.259 107.476 178.242 107.476 177.012C107.476 176.056 107.817 174.383 108.654 172.249C108.654 172.249 108.688 172.061 108.432 172.061C107.766 172.061 106.331 173.103 106.024 174.844C105.733 175.134 105.426 175.459 105.101 175.8C104.076 176.91 102.915 178.156 101.787 178.156C101.121 178.156 100.985 177.491 100.985 176.398C100.985 175.032 101.685 172.471 102.727 170.012C104.128 169.842 105.152 169.517 106.092 169.244C107.288 168.886 108.33 168.578 109.867 168.578C110.67 168.578 111.114 168.783 111.114 168.971C111.114 169.125 111.046 169.278 110.533 169.278V169.534C110.738 169.534 111.37 169.534 111.37 168.971C111.37 168.493 110.601 168.339 109.867 168.339C108.278 168.339 107.168 168.664 106.007 169.022C105.118 169.295 104.145 169.586 102.829 169.756C103.103 169.125 103.41 168.476 103.718 167.878L103.94 167.434C103.769 167.349 103.547 167.281 103.53 167.281H103.513C102.642 167.281 101.736 168.407 100.985 169.91C100.711 169.927 100.421 169.927 100.113 169.927C98.7641 169.927 98.2858 169.534 98.2858 169.159C98.2858 168.971 98.3712 168.817 98.542 168.732C98.8666 168.527 99.3961 168.595 99.5669 168.681L99.6864 168.459C99.4473 168.322 98.8153 168.271 98.4224 168.51C98.1833 168.647 98.0467 168.868 98.0467 169.159C98.0467 169.398 98.2004 170.183 100.131 170.183C100.387 170.183 100.643 170.183 100.882 170.166C100.25 171.481 99.7207 173.017 99.4132 174.315C98.9178 174.776 98.4737 175.288 98.0296 175.8C97.0388 176.944 96.0823 178.054 94.8354 178.293C94.1009 178.31 93.913 177.695 93.913 176.893C93.913 173.7 95.6382 171.668 96.646 171.908C97.1413 172.044 97.3463 172.283 97.5171 172.522L97.7221 172.386C97.3976 171.89 96.9535 171.566 95.7749 171.566C94.7158 171.566 92.7856 172.693 92.2732 174.776C92.1023 174.964 91.9145 175.186 91.7095 175.425C90.8383 176.432 89.6939 177.764 88.2761 178.208C87.2171 178.43 86.9438 177.593 86.9438 176.688C86.9438 176.569 86.9438 176.432 86.9609 176.278C88.8228 174.605 89.7793 173.359 89.7793 172.573C89.7793 171.993 89.4719 171.754 88.7886 171.754C87.61 171.754 86.0727 173.461 85.3723 175.015C85.1332 175.271 84.8941 175.527 84.672 175.783C83.6813 176.876 82.793 177.849 81.939 178.156C80.8799 178.31 80.7945 177.678 80.7945 176.927C80.7945 176.244 81.0337 175.288 81.3582 174.315C83.2542 172.317 84.9965 170.2 84.9965 168.015V167.998C84.9965 167.81 84.9965 167.485 84.8599 167.195C84.6891 166.837 84.3474 166.632 83.8862 166.632C82.3147 166.632 79.7697 170.781 79.4451 174.759C79.1206 175.1 78.796 175.442 78.4886 175.783C77.4979 176.876 76.6267 177.849 75.7555 178.156C74.6965 178.31 74.6111 177.678 74.6111 176.927C74.6111 176.244 74.8673 175.288 75.1748 174.315C77.0708 172.317 78.8131 170.2 78.8131 168.015V167.998C78.8131 167.81 78.8131 167.485 78.6764 167.195C78.5056 166.837 78.164 166.632 77.7028 166.632C76.1655 166.632 73.7058 170.576 73.2958 174.451C72.8005 174.81 72.493 174.912 72.4076 174.912C71.6731 174.912 71.229 174.212 70.4091 172.864L70.187 172.966C70.3578 173.427 70.3407 173.82 70.3407 174.11C70.3407 174.161 70.3407 174.212 70.3407 174.247C70.3407 176.654 68.9913 177.917 67.8981 178.31C66.8049 178.378 66.6341 177.491 66.6341 176.432C66.6341 174.708 67.6077 172.01 68.9059 172.01C69.4525 172.044 69.6575 172.249 69.7941 172.386C69.8283 172.42 69.8625 172.454 69.9137 172.488L70.0674 172.283C70.0504 172.266 70.0162 172.232 69.982 172.198C69.8112 172.027 69.5209 171.754 68.718 171.754C67.1636 171.754 65.6092 172.59 65.0797 174.434C64.9601 174.571 64.8235 174.725 64.6868 174.895C63.4228 176.364 61.5097 178.6 58.7425 178.6C58.6742 178.6 58.6059 178.6 58.5375 178.583C56.3853 178.481 55.5313 176.825 55.5313 174.281C55.5313 169.842 58.1618 164.839 60.7581 164.822C62.62 164.976 63.7132 166.205 63.7132 167.383C63.7132 167.468 63.7132 167.554 63.7132 167.639C62.9787 168.134 62.4663 168.715 62.4663 169.125C62.4663 169.295 62.5346 169.568 62.9446 169.568C63.3374 169.568 63.8669 168.954 63.9523 167.776C64.3794 167.503 64.8918 167.229 65.4555 167.059L65.3701 166.82C64.8747 166.973 64.3965 167.212 63.9523 167.486V167.4C63.9523 165.812 62.3638 164.566 60.3311 164.566C57.4785 164.566 53.5156 167.912 53.5156 173.342C53.5156 176.91 56.2145 178.839 58.7425 178.839C61.6293 178.839 63.662 176.466 64.8747 175.049C64.9089 175.015 64.9431 174.981 64.9601 174.947C64.9089 175.22 64.8918 175.493 64.8918 175.8C64.8918 177.781 66.0875 178.703 67.1978 178.703C68.3764 178.703 70.597 177.388 70.597 174.264C70.597 174.23 70.597 174.178 70.597 174.127C70.597 173.99 70.597 173.82 70.5799 173.632C71.1607 174.571 71.656 175.169 72.4076 175.169C72.5442 175.169 72.8346 175.066 73.2616 174.793C73.2446 175.049 73.2275 175.305 73.2275 175.578C73.2275 177.508 73.9107 178.532 75.2089 178.532C76.3705 178.532 77.4466 177.354 78.6764 175.971C78.9156 175.698 79.1547 175.442 79.4109 175.169C79.4109 175.305 79.3939 175.442 79.3939 175.578C79.3939 177.508 80.0771 178.532 81.3753 178.532C82.5368 178.532 83.6129 177.354 84.8428 175.971C84.9282 175.869 85.0307 175.766 85.1161 175.664C85.0307 175.954 84.9795 176.227 84.9795 176.466C84.9795 178.054 86.1752 178.634 87.2854 178.634C89.301 178.634 90.8725 176.808 91.8974 175.595C91.9999 175.476 92.0853 175.373 92.1878 175.271C92.1707 175.476 92.1365 175.681 92.1365 175.903C92.1365 177.576 92.9565 178.617 94.2888 178.617C95.9457 178.617 97.1072 177.269 98.2346 175.971C98.5933 175.561 98.952 175.151 99.3278 174.776C99.1911 175.442 99.1057 176.022 99.1057 176.432C99.1057 177.832 99.9427 178.447 101.805 178.447C103.052 178.447 104.247 177.149 105.306 176.005C105.545 175.749 105.767 175.51 105.989 175.288C105.989 175.373 105.972 175.476 105.972 175.578C105.972 177.695 107.698 178.566 107.988 178.566C108.722 178.566 109.987 177.371 111.285 175.988C111.353 177.866 112.515 178.72 113.591 178.72C114.769 178.72 116.99 177.405 116.99 174.281C116.99 174.247 116.99 174.195 116.99 174.144C116.99 174.008 116.99 173.837 116.973 173.649C117.571 174.588 118.049 175.186 118.8 175.186C118.988 175.186 119.484 174.998 120.235 174.366C119.774 176.073 119.381 177.917 119.398 178.412C120.013 178.43 120.936 178.481 120.936 178.481L121.038 178.242C122.251 175.169 123.498 171.976 125.035 171.976C125.24 171.976 125.291 172.061 125.308 172.078C125.479 172.317 125.206 173.051 124.933 173.837C124.608 174.742 124.181 175.886 124.181 176.927C124.181 178.139 124.813 178.344 126.231 178.344C127.136 178.344 128.793 176.466 130.467 174.434L130.604 174.264L130.347 174.093Z"
        fill="white"/>
    <path
        d="M85.4921 4.23422C85.5262 5.90741 88.2934 5.53179 87.2514 7.52938C81.6829 8.00743 74.8162 9.08305 70.3922 21.1881C66.3781 20.71 65.0628 22.4686 65.9169 24.7735C67.403 28.7687 67.7958 29.5028 66.8393 32.0468C66.8393 32.0468 60.9804 23.1174 52.0469 22.3491C43.1133 21.5808 30.9856 25.371 33.3257 44.1518C34.5898 54.2934 43.4037 60.2862 46.3929 62.8984C48.7502 64.9472 50.4924 65.8009 51.9614 68.9253C54.0795 73.4839 57.4275 78.5206 64.4479 80.8255C69.1794 82.3791 66.4635 83.267 67.2663 84.6841C68.6841 87.1426 70.8704 91.1037 90.7702 91.2915C108.449 91.4622 115.794 86.8182 114.394 83.4206C113.249 80.6376 116.734 81.2352 118.135 80.8255C126.111 78.5206 128.862 73.962 131.868 68.8229C134.874 63.6838 137.624 48.386 140.323 40.0371C143.022 31.6882 147.617 31.3809 150.606 30.5956C150.606 30.5956 150.965 30.3395 150.999 29.7419V29.5882C150.965 28.9052 150.521 27.8467 148.864 26.3442C146.558 24.2613 141.758 23.7491 140.289 24.3979C136.702 25.9687 130.928 30.4589 124.591 42.4103C120.15 50.7592 113.625 39.1493 113.061 35.4102C112.481 31.6541 112.241 29.3833 113.471 27.0784C114.103 25.9003 115.863 23.493 114.462 22.2979C112.942 21.0003 110.448 20.8808 109.696 21.2905C106.246 7.54644 93.2811 7.54647 93.2811 7.54647C93.2811 7.54647 92.0855 6.21469 93.879 5.3098C95.1601 4.66101 95.6384 2.62928 92.2905 0.614617C91.573 0.187782 90.8556 0 90.1553 0C87.576 0.0170734 85.4579 2.49274 85.4921 4.23422ZM39.0992 44.1518C36.5711 32.8663 44.2919 27.8638 49.5018 27.7614C53.9087 27.676 58.3157 30.1687 60.5875 35.9054C60.1092 38.0054 60.2117 39.4566 61.2708 41.2835C61.3732 41.4713 60.9804 43.1616 59.1185 45.6884C56.6075 49.069 50.9878 49.7007 51.4149 57.1959C51.4149 57.1788 41.2514 53.747 39.0992 44.1518Z"
        fill="white"/>
</svg>
