<svg width="47" height="46" viewBox="0 0 47 46" fill="none" xmlns="http://www.w3.org/2000/svg">
    <path
        d="M22.0062 43.366C22.0062 43.6531 21.6672 44.134 21.0157 44.7727C21.0822 44.0622 21.3415 43.1364 21.7802 43.1364C21.9863 43.1507 22.0062 43.2512 22.0062 43.366ZM20.1383 41.4426V41.4498C20.1383 42.268 19.5599 43.0861 18.8952 43.8612C19.0348 43.4306 19.181 43.0144 19.2675 42.7201C19.4336 42.1316 19.6862 41.0909 19.9721 41.0191C20.0253 41.0479 20.0652 41.0909 20.0984 41.1555C20.1383 41.2488 20.1383 41.3708 20.1383 41.4426ZM17.7319 41.4426V41.4498C17.7319 42.268 17.1536 43.0861 16.4888 43.8612C16.6218 43.4306 16.7747 43.0144 16.8611 42.7201C17.0273 42.1316 17.2799 41.0909 17.5657 41.0191C17.6189 41.0479 17.6588 41.0909 17.6854 41.1555C17.7319 41.2488 17.7319 41.3708 17.7319 41.4426ZM11.6428 42.0024C11.5697 42.0024 11.5564 41.9737 11.5564 41.9235C11.5564 41.8158 11.696 41.622 11.9287 41.4354C11.8821 41.8301 11.7159 42.0024 11.6428 42.0024ZM37.9003 44.0048L37.8471 44.0694C37.5015 44.5215 36.7171 45.5622 36.3315 45.6627C36.1919 45.6627 36.1387 45.5694 36.1387 45.3899C36.1387 44.8947 36.5641 44.2919 36.5641 43.6244C36.5641 43.0718 36.0589 42.9928 35.8196 42.9928H35.813C35.813 42.9928 35.813 42.9928 35.8063 42.9928C35.7931 42.9928 35.7864 42.9928 35.7798 42.9928V43C35.3144 43.0215 34.9289 43.7177 34.5766 44.5933L34.5566 44.5431C34.6297 44.1986 34.7826 43.4019 34.2575 43.1292C34.2575 43.1292 34.2243 43.0933 34.211 43.1507C34.1445 43.3589 34.0647 43.6316 33.9916 43.9187C33.6459 44.2632 33.4332 44.3421 33.3867 44.3421C33.1008 44.3421 32.928 44.0478 32.6089 43.4809L32.5225 43.5239C32.589 43.7177 32.5823 43.8828 32.5823 44.0048C32.5823 44.0263 32.5823 44.0478 32.5823 44.0622C32.5823 45.0742 32.0572 45.6053 31.6317 45.7703C31.2063 45.799 31.1398 45.4258 31.1398 44.9809C31.1398 44.256 31.5187 43.122 32.0239 43.122C32.2367 43.1364 32.3164 43.2225 32.3696 43.2799C32.3829 43.2943 32.3962 43.3086 32.4161 43.323L32.476 43.2368C32.4693 43.2297 32.456 43.2153 32.4427 43.201C32.3763 43.1292 32.2632 43.0144 31.9508 43.0144C31.2329 43.0144 30.5083 43.5167 30.4751 44.6292C30.0696 45.0957 29.4647 45.756 29.1921 45.756C29.1323 45.756 28.9993 45.7488 28.9993 45.2321C28.9993 44.8301 29.1323 44.1268 29.458 43.2297C29.458 43.2297 29.4713 43.1507 29.3716 43.1507C29.1124 43.1507 28.554 43.5885 28.4343 44.3206C28.3213 44.4426 28.2016 44.579 28.0753 44.7225C27.6765 45.189 27.2245 45.7129 26.7857 45.7129C26.5265 45.7129 26.4733 45.433 26.4733 44.9737C26.4733 44.3995 26.7458 43.323 27.1513 42.2895C27.6964 42.2177 28.0953 42.0814 28.4609 41.9665C28.9262 41.8158 29.3317 41.6866 29.93 41.6866C30.2424 41.6866 30.4152 41.7727 30.4152 41.8517C30.4152 41.9163 30.3887 41.9809 30.1892 41.9809V42.0885C30.269 42.0885 30.515 42.0885 30.515 41.8517C30.515 41.6507 30.2158 41.5861 29.93 41.5861C29.3118 41.5861 28.8797 41.7225 28.4277 41.8732C28.082 41.988 27.7031 42.11 27.1912 42.1818C27.2976 41.9163 27.4172 41.6435 27.5369 41.3923L27.6233 41.2058C27.5568 41.1699 27.4704 41.1412 27.4638 41.1412H27.4571C27.1181 41.1412 26.7658 41.6148 26.4733 42.2464C26.3669 42.2536 26.2539 42.2536 26.1343 42.2536C25.6091 42.2536 25.423 42.0885 25.423 41.9306C25.423 41.8517 25.4562 41.7871 25.5227 41.7512C25.649 41.6651 25.8551 41.6938 25.9216 41.7297L25.9681 41.6364C25.875 41.579 25.6291 41.5574 25.4762 41.6579C25.3831 41.7153 25.3299 41.8086 25.3299 41.9306C25.3299 42.0311 25.3898 42.3612 26.1409 42.3612C26.2406 42.3612 26.3404 42.3613 26.4334 42.3541C26.1875 42.9067 25.9814 43.5526 25.8617 44.0981C25.669 44.2919 25.4961 44.5072 25.3233 44.7225C24.9377 45.2034 24.5655 45.6699 24.0802 45.7703C23.7944 45.7775 23.7213 45.5191 23.7213 45.1818C23.7213 43.8397 24.3926 42.9857 24.7848 43.0861C24.9776 43.1435 25.0574 43.244 25.1239 43.3445L25.2036 43.2871C25.0773 43.079 24.9045 42.9426 24.4458 42.9426C24.0337 42.9426 23.2825 43.4163 23.0831 44.2919C23.0166 44.3708 22.9435 44.4641 22.8637 44.5646C22.5247 44.988 22.0793 45.5479 21.5276 45.7345C21.1154 45.8278 21.0091 45.4761 21.0091 45.0957C21.0091 45.0454 21.0091 44.988 21.0157 44.9234C21.7403 44.2201 22.1126 43.6962 22.1126 43.366C22.1126 43.122 21.9929 43.0215 21.727 43.0215C21.2684 43.0215 20.6701 43.7392 20.3975 44.3924C20.3045 44.5 20.2114 44.6077 20.125 44.7153C19.7394 45.1746 19.3938 45.5837 19.0614 45.7129C18.6492 45.7775 18.616 45.512 18.616 45.1962C18.616 44.9091 18.7091 44.5072 18.8354 44.0981C19.5732 43.2584 20.2513 42.3684 20.2513 41.4498V41.4426C20.2513 41.3636 20.2513 41.2273 20.1981 41.1053C20.1316 40.9545 19.9987 40.8684 19.8192 40.8684C19.2076 40.8684 18.2172 42.6124 18.0909 44.2847C17.9646 44.4282 17.8383 44.5718 17.7186 44.7153C17.3331 45.1746 16.994 45.5837 16.655 45.7129C16.2429 45.7775 16.2096 45.512 16.2096 45.1962C16.2096 44.9091 16.3093 44.5072 16.429 44.0981C17.1669 43.2584 17.8449 42.3684 17.8449 41.4498V41.4426C17.8449 41.3636 17.8449 41.2273 17.7917 41.1053C17.7252 40.9545 17.5923 40.8684 17.4128 40.8684C16.8145 40.8684 15.8573 42.5263 15.6978 44.1555C15.505 44.3062 15.3853 44.3493 15.3521 44.3493C15.0663 44.3493 14.8934 44.055 14.5743 43.488L14.4879 43.5311C14.5544 43.7249 14.5478 43.89 14.5478 44.012C14.5478 44.0335 14.5478 44.055 14.5478 44.0694C14.5478 45.0813 14.0226 45.6124 13.5972 45.7775C13.1717 45.8062 13.1053 45.433 13.1053 44.988C13.1053 44.2632 13.4842 43.1292 13.9894 43.1292C14.2021 43.1435 14.2819 43.2297 14.335 43.2871C14.3483 43.3014 14.3616 43.3158 14.3816 43.3301L14.4414 43.244C14.4347 43.2368 14.4215 43.2225 14.4082 43.2081C14.3417 43.1364 14.2287 43.0215 13.9163 43.0215C13.3113 43.0215 12.7064 43.3732 12.5003 44.1483C12.4538 44.2058 12.4006 44.2703 12.3474 44.3421C11.8555 44.9593 11.111 45.8995 10.0341 45.8995C10.0075 45.8995 9.98095 45.8995 9.95436 45.8923C9.11678 45.8493 8.78442 45.1531 8.78442 44.0837C8.78442 42.2177 9.80812 40.1148 10.8185 40.1077C11.5431 40.1723 11.9685 40.689 11.9685 41.1842C11.9685 41.2201 11.9685 41.256 11.9685 41.2919C11.6827 41.5 11.4833 41.744 11.4833 41.9163C11.4833 41.988 11.5099 42.1029 11.6694 42.1029C11.8223 42.1029 12.0284 41.8445 12.0616 41.3493C12.2278 41.2345 12.4272 41.1196 12.6466 41.0479L12.6133 40.9474C12.4206 41.012 12.2344 41.1125 12.0616 41.2273V41.1914C12.0616 40.5239 11.4434 40 10.6524 40C9.54223 40 8 41.4067 8 43.689C8 45.189 9.0503 46 10.0341 46C11.1575 46 11.9486 45.0024 12.4206 44.4067C12.4339 44.3923 12.4472 44.378 12.4538 44.3636C12.4339 44.4785 12.4272 44.5933 12.4272 44.7225C12.4272 45.555 12.8925 45.9426 13.3246 45.9426C13.7833 45.9426 14.6475 45.39 14.6475 44.0766C14.6475 44.0622 14.6475 44.0407 14.6475 44.0191C14.6475 43.9617 14.6475 43.89 14.6408 43.811C14.8668 44.2058 15.0596 44.4569 15.3521 44.4569C15.4053 44.4569 15.5183 44.4139 15.6845 44.299C15.6778 44.4067 15.6712 44.5144 15.6712 44.6292C15.6712 45.4402 15.9371 45.8708 16.4423 45.8708C16.8943 45.8708 17.3131 45.3756 17.7917 44.7943C17.8848 44.6794 17.9778 44.5718 18.0776 44.4569C18.0776 44.5144 18.0709 44.5718 18.0709 44.6292C18.0709 45.4402 18.3368 45.8708 18.842 45.8708C19.294 45.8708 19.7128 45.3756 20.1914 44.7943C20.2247 44.7512 20.2646 44.7081 20.2978 44.6651C20.2646 44.7871 20.2446 44.9019 20.2446 45.0024C20.2446 45.6698 20.71 45.9139 21.142 45.9139C21.9264 45.9139 22.538 45.1459 22.9368 44.6364C22.9767 44.5861 23.01 44.5431 23.0499 44.5C23.0432 44.5861 23.0299 44.6723 23.0299 44.7656C23.0299 45.4689 23.349 45.9067 23.8675 45.9067C24.5123 45.9067 24.9643 45.3397 25.4031 44.7943C25.5427 44.622 25.6823 44.4498 25.8285 44.2919C25.7753 44.5718 25.7421 44.8158 25.7421 44.988C25.7421 45.5766 26.0678 45.8349 26.7924 45.8349C27.2777 45.8349 27.743 45.2895 28.1551 44.8086C28.2482 44.701 28.3346 44.6005 28.421 44.5072C28.421 44.5431 28.4144 44.5861 28.4144 44.6292C28.4144 45.5191 29.0858 45.8852 29.1988 45.8852C29.4846 45.8852 29.9765 45.3828 30.4817 44.8014C30.5083 45.5909 30.9603 45.9498 31.3791 45.9498C31.8378 45.9498 32.702 45.3971 32.702 44.0837C32.702 44.0694 32.702 44.0479 32.702 44.0263C32.702 43.9689 32.702 43.8971 32.6953 43.8182C32.928 44.2129 33.1141 44.4641 33.4066 44.4641C33.4797 44.4641 33.6725 44.3852 33.965 44.1196C33.7855 44.8373 33.6326 45.6124 33.6393 45.8206C33.8786 45.8278 34.2375 45.8493 34.2375 45.8493L34.2774 45.7488C34.7494 44.4569 35.2347 43.1148 35.8329 43.1148C35.9127 43.1148 35.9326 43.1507 35.9393 43.1579C36.0058 43.2584 35.8994 43.567 35.793 43.8971C35.6667 44.2775 35.5006 44.7584 35.5006 45.1962C35.5006 45.7057 35.7465 45.7919 36.2983 45.7919C36.6506 45.7919 37.2954 45.0024 37.9468 44.1483L38 44.0766L37.9003 44.0048Z"
        fill="#007653"/>
    <path
        d="M20.901 1.66964C20.9146 2.32942 22.0171 2.1813 21.602 2.969C19.3834 3.1575 16.6476 3.58164 14.885 8.35492C13.2857 8.16642 12.7617 8.85986 13.102 9.76873C13.694 11.3441 13.8506 11.6336 13.4695 12.6367C13.4695 12.6367 11.1352 9.11568 7.57592 8.81272C4.01666 8.50976 -0.815216 10.0044 0.117132 17.41C0.620737 21.4091 4.13235 23.7721 5.32331 24.8022C6.26247 25.6101 6.95661 25.9467 7.54188 27.1787C8.38576 28.9763 9.71965 30.9623 12.5167 31.8712C14.4018 32.4839 13.3197 32.834 13.6396 33.3928C14.2044 34.3622 15.0755 35.9241 23.0039 35.9982C30.0476 36.0655 32.9739 34.2343 32.4159 32.8945C31.9599 31.7972 33.3482 32.0328 33.9063 31.8712C37.0844 30.9623 38.1801 29.1648 39.3779 27.1383C40.5756 25.1119 41.6713 19.0797 42.7466 15.7875C43.8218 12.4954 45.6525 12.3742 46.8434 12.0645C46.8434 12.0645 46.9864 11.9635 47 11.7279V11.6673C46.9864 11.398 46.8094 10.9806 46.1493 10.3881C45.2306 9.56675 43.3182 9.36479 42.733 9.62062C41.3038 10.24 39.0036 12.0106 36.4787 16.7233C34.7093 20.0155 32.1096 15.4374 31.885 13.963C31.6537 12.4819 31.5584 11.5865 32.0484 10.6776C32.3002 10.2131 33.0011 9.26379 32.4431 8.79253C31.8374 8.28086 30.8438 8.23374 30.5444 8.39532C29.1697 2.97573 24.0043 2.97573 24.0043 2.97573C24.0043 2.97573 23.5279 2.45059 24.2425 2.09377C24.7529 1.83794 24.9435 1.03678 23.6096 0.242357C23.3238 0.0740466 23.0379 0 22.7589 0C21.7313 0.00673241 20.8874 0.982939 20.901 1.66964ZM2.41736 17.41C1.41015 12.9599 4.48624 10.9873 6.56191 10.9469C8.31772 10.9132 10.0735 11.8962 10.9787 14.1583C10.7881 14.9863 10.8289 15.5586 11.2509 16.279C11.2917 16.353 11.1352 17.0195 10.3934 18.0159C9.39297 19.349 7.15398 19.598 7.32412 22.5536C7.32412 22.5468 3.27485 21.1936 2.41736 17.41Z"
        fill="#007653"/>
</svg>
