<svg width="115" height="124" viewBox="0 0 115 124" fill="none" xmlns="http://www.w3.org/2000/svg">
<path d="M81.5206 81.6443H89.2072V80.019H81.5206V72.684H91.5879V71.0481H78.7129V93.267H91.8335V91.631H81.5206V81.6443Z" fill="#007653"/>
<path d="M25.793 93.267H28.59V71.0481H25.793V93.267Z" fill="#007653"/>
<path d="M52.0767 71.0481H50.1764L39.5966 81.8688V71.0481H36.7996V93.267H39.5966V83.6224L41.2834 81.9223L50.8596 93.267H54.6816L43.3225 79.8694L52.0767 71.0481Z" fill="#007653"/>
<path d="M100.662 84.5206L104.345 74.4377L108.328 84.5206H100.662ZM111.787 93.2671H115L105.541 70.9092H104.185L95.8262 93.2671H97.4702L100.182 85.8572H108.861L111.787 93.2671Z" fill="#007653"/>
<path d="M16.4621 88.6799L1.58003 71.0481H0V93.267H1.6334V75.5496L16.7504 93.5236H18.0955V71.0481H16.4621V88.6799Z" fill="#007653"/>
<path d="M55.9734 72.684H63.5853V93.267H66.393V72.684H74.0049V71.0481H55.9734V72.684Z" fill="#007653"/>
<path d="M55.9412 108.076C55.9412 108.504 55.3968 109.22 54.3506 110.172C54.4573 109.113 54.8737 107.734 55.5783 107.734C55.9092 107.756 55.9412 107.905 55.9412 108.076ZM52.9413 105.211V105.221C52.9413 106.44 52.0125 107.659 50.945 108.814C51.1692 108.173 51.404 107.552 51.5428 107.114C51.8097 106.237 52.2154 104.687 52.6744 104.58C52.7599 104.623 52.8239 104.687 52.8773 104.783C52.9413 104.922 52.9413 105.104 52.9413 105.211ZM49.0767 105.211V105.221C49.0767 106.44 48.1479 107.659 47.0803 108.814C47.2938 108.173 47.5394 107.552 47.6782 107.114C47.9451 106.237 48.3507 104.687 48.8098 104.58C48.8952 104.623 48.9593 104.687 49.002 104.783C49.0767 104.922 49.0767 105.104 49.0767 105.211ZM39.2976 106.045C39.1802 106.045 39.1588 106.002 39.1588 105.927C39.1588 105.767 39.383 105.478 39.7567 105.2C39.682 105.788 39.4151 106.045 39.2976 106.045ZM81.4672 109.028L81.3818 109.124C80.8266 109.798 79.5669 111.348 78.9477 111.498C78.7235 111.498 78.6381 111.359 78.6381 111.092C78.6381 110.354 79.3213 109.456 79.3213 108.461C79.3213 107.638 78.5099 107.52 78.1256 107.52H78.1149C78.1149 107.52 78.115 107.52 78.1043 107.52C78.0829 107.52 78.0722 107.52 78.0616 107.52V107.531C77.3143 107.563 76.6951 108.6 76.1292 109.905L76.0972 109.83C76.2147 109.317 76.4602 108.13 75.6168 107.723C75.6168 107.723 75.5634 107.67 75.5421 107.756C75.4353 108.066 75.3072 108.472 75.1898 108.9C74.6346 109.413 74.293 109.53 74.2183 109.53C73.7592 109.53 73.4816 109.092 72.9692 108.247L72.8304 108.312C72.9372 108.6 72.9265 108.846 72.9265 109.028C72.9265 109.06 72.9265 109.092 72.9265 109.113C72.9265 110.621 72.0831 111.412 71.3999 111.658C70.7166 111.701 70.6098 111.145 70.6098 110.482C70.6098 109.402 71.2184 107.713 72.0297 107.713C72.3714 107.734 72.4995 107.862 72.5849 107.948C72.6062 107.969 72.6276 107.991 72.6596 108.012L72.7557 107.884C72.745 107.873 72.7237 107.852 72.7023 107.83C72.5956 107.723 72.414 107.552 71.9123 107.552C70.7593 107.552 69.5956 108.301 69.5422 109.958C68.891 110.653 67.9195 111.637 67.4818 111.637C67.3857 111.637 67.1722 111.626 67.1722 110.856C67.1722 110.258 67.3857 109.21 67.9088 107.873C67.9088 107.873 67.9302 107.756 67.7701 107.756C67.3537 107.756 66.457 108.408 66.2648 109.498C66.0833 109.68 65.8911 109.883 65.6883 110.097C65.0477 110.792 64.3218 111.573 63.6172 111.573C63.2008 111.573 63.1154 111.156 63.1154 110.471C63.1154 109.616 63.5531 108.012 64.2043 106.472C65.0797 106.365 65.7203 106.162 66.3075 105.991C67.0548 105.767 67.706 105.574 68.6669 105.574C69.1686 105.574 69.4462 105.703 69.4462 105.82C69.4462 105.916 69.4035 106.013 69.0832 106.013V106.173C69.2113 106.173 69.6063 106.173 69.6063 105.82C69.6063 105.521 69.1259 105.425 68.6669 105.425C67.674 105.425 66.9801 105.628 66.2541 105.852C65.699 106.023 65.0905 106.205 64.2684 106.312C64.4392 105.916 64.6314 105.51 64.8235 105.136L64.9623 104.858C64.8556 104.804 64.7168 104.762 64.7061 104.762H64.6954C64.151 104.762 63.5851 105.467 63.1154 106.408C62.9446 106.419 62.7631 106.419 62.5709 106.419C61.7275 106.419 61.4286 106.173 61.4286 105.938C61.4286 105.82 61.482 105.724 61.5888 105.67C61.7916 105.542 62.1226 105.585 62.2293 105.638L62.304 105.499C62.1546 105.414 61.7596 105.382 61.514 105.532C61.3646 105.617 61.2792 105.756 61.2792 105.938C61.2792 106.087 61.3752 106.579 62.5816 106.579C62.7418 106.579 62.9019 106.579 63.0514 106.569C62.6563 107.392 62.3254 108.354 62.1332 109.167C61.8236 109.456 61.546 109.776 61.2685 110.097C60.6493 110.814 60.0514 111.509 59.2721 111.658C58.813 111.669 58.6956 111.284 58.6956 110.781C58.6956 108.782 59.7739 107.51 60.4037 107.659C60.7133 107.745 60.8415 107.895 60.9482 108.044L61.0763 107.959C60.8735 107.649 60.5959 107.445 59.8593 107.445C59.1974 107.445 57.991 108.151 57.6707 109.456C57.564 109.573 57.4465 109.712 57.3184 109.862C56.774 110.493 56.0587 111.327 55.1726 111.605C54.5107 111.744 54.3399 111.22 54.3399 110.653C54.3399 110.578 54.3399 110.493 54.3506 110.397C55.5142 109.349 56.1121 108.568 56.1121 108.076C56.1121 107.713 55.9199 107.563 55.4929 107.563C54.7562 107.563 53.7954 108.632 53.3577 109.605C53.2083 109.766 53.0588 109.926 52.92 110.086C52.3008 110.771 51.7457 111.38 51.2119 111.573C50.55 111.669 50.4966 111.273 50.4966 110.803C50.4966 110.375 50.646 109.776 50.8489 109.167C52.0339 107.916 53.1228 106.59 53.1228 105.221V105.211C53.1228 105.093 53.1228 104.89 53.0374 104.708C52.9307 104.484 52.7171 104.355 52.4289 104.355C51.4467 104.355 49.856 106.954 49.6532 109.445C49.4504 109.659 49.2475 109.873 49.0554 110.086C48.4362 110.771 47.8917 111.38 47.3472 111.573C46.6853 111.669 46.6319 111.273 46.6319 110.803C46.6319 110.375 46.7921 109.776 46.9842 109.167C48.1693 107.916 49.2582 106.59 49.2582 105.221V105.211C49.2582 105.093 49.2582 104.89 49.1728 104.708C49.066 104.484 48.8525 104.355 48.5642 104.355C47.6034 104.355 46.0661 106.825 45.8099 109.252C45.5003 109.477 45.3081 109.541 45.2547 109.541C44.7957 109.541 44.5181 109.103 44.0057 108.258L43.8669 108.322C43.9736 108.611 43.963 108.857 43.963 109.039C43.963 109.071 43.963 109.103 43.963 109.124C43.963 110.632 43.1196 111.423 42.4363 111.669C41.7531 111.712 41.6463 111.156 41.6463 110.493C41.6463 109.413 42.2548 107.723 43.0662 107.723C43.4078 107.745 43.5359 107.873 43.6213 107.959C43.6427 107.98 43.664 108.001 43.6961 108.023L43.7921 107.895C43.7815 107.884 43.7601 107.862 43.7388 107.841C43.632 107.734 43.4505 107.563 42.9488 107.563C41.9773 107.563 41.0058 108.087 40.6748 109.242C40.6001 109.327 40.5147 109.424 40.4293 109.53C39.6393 110.45 38.4436 111.851 36.7141 111.851C36.6714 111.851 36.6287 111.851 36.586 111.84C35.2408 111.776 34.707 110.739 34.707 109.146C34.707 106.365 36.3511 103.233 37.9738 103.222C39.1375 103.318 39.8207 104.088 39.8207 104.826C39.8207 104.879 39.8207 104.933 39.8207 104.986C39.3617 105.296 39.0414 105.66 39.0414 105.916C39.0414 106.023 39.0841 106.194 39.3403 106.194C39.5859 106.194 39.9168 105.809 39.9702 105.072C40.2371 104.901 40.5574 104.73 40.9097 104.623L40.8563 104.473C40.5467 104.569 40.2478 104.719 39.9702 104.89V104.836C39.9702 103.842 38.9774 103.062 37.7069 103.062C35.9241 103.062 33.4473 105.157 33.4473 108.557C33.4473 110.792 35.134 112 36.7141 112C38.5183 112 39.7887 110.514 40.5467 109.627C40.5681 109.605 40.5894 109.584 40.6001 109.563C40.5681 109.734 40.5574 109.905 40.5574 110.097C40.5574 111.337 41.3047 111.915 41.9986 111.915C42.7352 111.915 44.1231 111.092 44.1231 109.135C44.1231 109.113 44.1231 109.081 44.1231 109.049C44.1231 108.964 44.1231 108.857 44.1124 108.739C44.4754 109.327 44.785 109.702 45.2547 109.702C45.3401 109.702 45.5216 109.637 45.7885 109.466C45.7778 109.627 45.7672 109.787 45.7672 109.958C45.7672 111.166 46.1942 111.808 47.0056 111.808C47.7315 111.808 48.4041 111.07 49.1728 110.204C49.3222 110.033 49.4717 109.873 49.6318 109.702C49.6318 109.787 49.6212 109.873 49.6212 109.958C49.6212 111.166 50.0482 111.808 50.8595 111.808C51.5855 111.808 52.2581 111.07 53.0267 110.204C53.0801 110.14 53.1442 110.076 53.1975 110.012C53.1442 110.193 53.1122 110.364 53.1122 110.514C53.1122 111.509 53.8595 111.872 54.5534 111.872C55.8132 111.872 56.7953 110.728 57.4359 109.969C57.4999 109.894 57.5533 109.83 57.6174 109.766C57.6067 109.894 57.5853 110.022 57.5853 110.161C57.5853 111.209 58.0978 111.861 58.9305 111.861C59.9661 111.861 60.692 111.017 61.3966 110.204C61.6208 109.947 61.845 109.691 62.0798 109.456C61.9944 109.873 61.9411 110.236 61.9411 110.493C61.9411 111.37 62.4642 111.754 63.6279 111.754C64.4072 111.754 65.1545 110.942 65.8164 110.225C65.9659 110.065 66.1046 109.915 66.2434 109.776C66.2434 109.83 66.2328 109.894 66.2328 109.958C66.2328 111.284 67.311 111.829 67.4925 111.829C67.9516 111.829 68.7416 111.081 69.5529 110.215C69.5956 111.391 70.3216 111.926 70.9942 111.926C71.7308 111.926 73.1187 111.102 73.1187 109.146C73.1187 109.124 73.1187 109.092 73.1187 109.06C73.1187 108.974 73.1187 108.868 73.108 108.75C73.4817 109.338 73.7806 109.712 74.2503 109.712C74.3677 109.712 74.6773 109.595 75.1471 109.199C74.8588 110.268 74.6133 111.423 74.6239 111.733C75.0083 111.744 75.5848 111.776 75.5848 111.776L75.6488 111.626C76.4068 109.702 77.1862 107.702 78.147 107.702C78.2751 107.702 78.3071 107.756 78.3178 107.766C78.4245 107.916 78.2537 108.376 78.0829 108.868C77.8801 109.434 77.6132 110.151 77.6132 110.803C77.6132 111.562 78.0082 111.69 78.8943 111.69C79.4601 111.69 80.4957 110.514 81.5419 109.242L81.6273 109.135L81.4672 109.028Z" fill="#007653"/>
<path d="M53.4325 2.65173C53.4538 3.69959 55.1833 3.46435 54.5321 4.71537C51.0518 5.01475 46.7601 5.68838 43.9951 13.2693C41.4862 12.9699 40.6642 14.0713 41.198 15.5147C42.1268 18.0168 42.3723 18.4765 41.7745 20.0697C41.7745 20.0697 38.1127 14.4775 32.5292 13.9964C26.9458 13.5152 19.3659 15.8889 20.8285 27.6506C21.6185 34.0019 27.1273 37.755 28.9955 39.3909C30.4688 40.674 31.5577 41.2086 32.4758 43.1653C33.7996 46.0202 35.8921 49.1745 40.2799 50.618C43.2371 51.591 41.5396 52.147 42.0414 53.0345C42.9275 54.5742 44.294 57.0548 56.7313 57.1724C67.7808 57.2794 72.3714 54.371 71.496 52.2432C70.7807 50.5003 72.9586 50.8746 73.834 50.618C78.8196 49.1745 80.5384 46.3196 82.4174 43.1012C84.2963 39.8828 86.0151 30.3024 87.7019 25.0738C89.3887 19.8452 92.2605 19.6527 94.1287 19.1609C94.1287 19.1609 94.353 19.0005 94.3743 18.6262V18.53C94.353 18.1023 94.0754 17.4393 93.0398 16.4984C91.5986 15.1939 88.5987 14.8732 87.6806 15.2795C85.4386 16.2632 81.8302 19.0753 77.8695 26.56C75.0938 31.7886 71.0156 24.5177 70.6633 22.1761C70.3003 19.8238 70.1508 18.4017 70.9195 16.9582C71.3145 16.2204 72.4141 14.7128 71.5387 13.9643C70.5886 13.1517 69.0299 13.0768 68.5601 13.3335C66.4036 4.72606 58.3007 4.72607 58.3007 4.72607C58.3007 4.72607 57.5534 3.89203 58.6743 3.32533C59.475 2.91902 59.7739 1.64662 57.6815 0.384912C57.2331 0.117601 56.7847 0 56.347 0C54.7349 0.0106924 53.4111 1.56111 53.4325 2.65173ZM24.4369 27.6506C22.8569 20.5829 27.6824 17.4501 30.9385 17.3859C33.6929 17.3324 36.4473 18.8935 37.8671 22.4862C37.5682 23.8014 37.6323 24.7102 38.2942 25.8543C38.3582 25.9719 38.1127 27.0305 36.949 28.613C35.3797 30.7301 31.8673 31.1257 32.1342 35.8196C32.1342 35.809 25.7821 33.6598 24.4369 27.6506Z" fill="#007653"/>
</svg>
