<svg width="700" height="763" viewBox="0 0 700 763" fill="none" xmlns="http://www.w3.org/2000/svg">
<g clip-path="url(#clip0_10_1991)">
<g clip-path="url(#clip1_10_1991)">
<path d="M28.5971 749.04C18.6732 754.746 10.9624 753.994 0.148439 753.78C-1.45295 753.703 -11.1956 752.983 -11.75 752.743C-13.1646 753.036 -15.7592 756.9 -17.0895 758.525C-20.4049 762.568 -31.5263 776.556 -34.6899 777.184C-35.0457 776.954 -35.4788 776.764 -35.7432 776.266C-36.2112 775.369 -35.9961 775.283 -35.5476 774.812C-35.4915 774.647 -26.4179 765.114 -25.5357 764.106C-21.6672 759.634 -17.6766 755.609 -14.1873 750.754L-15.9849 745.682L-18.1423 739.475C-19.2858 735.398 -20.9452 731.487 -21.8879 727.406C-24.8447 714.675 -23.0922 709.921 -18.1379 697.77C-17.461 696.545 -16.6489 694.995 -15.8631 693.908C-10.8096 687.252 -6.91068 682.35 -0.575907 676.688C0.893021 675.372 2.1763 674.251 3.75395 672.948C4.29861 672.493 5.00225 672.097 5.66606 671.644C14.7736 665.394 24.8972 661.303 35.3187 657.705C38.3435 656.663 41.427 655.755 44.4308 654.714L48.9706 653.429C52.8149 652.462 56.6768 651.963 60.3676 650.516C62.9743 649.496 64.2895 647.638 66.4181 646.918C66.7172 649.037 65.0891 651.251 64.8199 653.505C64.5404 655.853 64.7741 657.673 64.959 660.18C65.8464 671.957 64.5475 687.901 62.7729 699.182C61.3842 708.037 58.9827 715.347 55.0979 722.038C53.0419 725.574 50.6951 728.951 48.3246 732.007C42.6433 739.327 36.7441 744.355 28.5971 749.04Z" stroke="url(#paint0_linear_10_1991)" stroke-miterlimit="22.9256"/>
<path d="M66.0728 647.677C59.0425 657.711 51.9557 667.701 44.7894 677.641C50.8279 678.374 56.2652 678.478 62.35 675.294C54.4357 680.32 50.2483 678.122 44.0994 678.598C38.8758 685.828 33.6102 693.037 28.2882 700.203C37.8491 703.042 46.5903 704.726 57.2691 701.23C43.2799 707.141 37.1666 702.524 27.2271 701.633C22.3449 708.197 18.0545 713.823 13.0739 720.323C20.6496 719.402 34.5106 726.44 52.2761 723.082C32.9921 728.024 25.4376 722.997 12.1984 721.537C7.31786 727.898 2.39125 734.226 -2.59814 740.512C9.6296 744.133 20.8175 746.274 34.4794 741.799C16.5448 749.374 8.68967 743.471 -4.0347 742.32C-13.3839 754.066 -22.9382 765.68 -32.7395 777.117C-34.2899 778.481 -36.4835 777.053 -35.0651 774.546C-24.3911 762.572 -14.0412 750.525 -3.98416 738.415C-8.17022 726.634 -15.5246 720.311 -12.4947 701.337C-13.561 715.542 -8.92438 725.84 -2.59958 736.744C1.25598 732.087 5.07391 727.422 8.85208 722.743C6.08589 710.185 0.652984 703.023 3.66752 683.733C2.33032 698.336 5.54497 709.403 10.0322 721.272C15.9497 713.928 21.7646 706.57 27.5022 699.189C24.2802 689.618 18.2542 684.804 20.6628 669.696C19.8183 680.944 23.5578 689.043 28.6113 697.693L28.4029 698.028C34.1988 690.551 39.9111 683.052 45.5502 675.543C42.9363 669.991 38.9823 667.408 39.4419 658.069C39.6798 665.018 42.5156 669.734 46.1902 674.687C52.9237 665.701 59.5463 656.697 66.0728 647.677Z" fill="url(#paint1_linear_10_1991)"/>
</g>
<g clip-path="url(#clip2_10_1991)">
<path d="M501.036 796.054C492.712 803.912 485.037 804.974 474.47 807.28C472.895 807.577 463.252 809.143 462.657 809.039C461.349 809.652 459.724 814.014 458.808 815.904C456.524 820.607 448.96 836.798 446.029 838.144C445.63 838.003 445.164 837.919 444.792 837.497C444.128 836.733 444.317 836.599 444.644 836.036C444.66 835.863 451.268 824.481 451.891 823.296C454.614 818.047 457.559 813.204 459.824 807.671L456.896 803.156L453.354 797.621C451.294 793.921 448.77 790.504 446.904 786.754C441.068 775.059 441.667 770.028 443.66 757.058C444.033 755.709 444.463 754.013 444.974 752.773C448.341 745.124 450.993 739.45 455.838 732.47C456.96 730.849 457.948 729.46 459.179 727.825C459.603 727.256 460.195 726.707 460.736 726.112C468.14 717.916 477.035 711.583 486.334 705.66C489.033 703.944 491.821 702.343 494.5 700.632L498.617 698.327C502.131 696.492 505.771 695.109 509.024 692.844C511.322 691.245 512.169 689.132 514.072 687.937C514.856 689.928 513.787 692.46 514.05 694.715C514.324 697.063 514.974 698.779 515.737 701.174C519.339 712.422 521.783 728.232 522.681 739.616C523.389 748.551 522.754 756.219 520.531 763.629C519.354 767.547 517.857 771.377 516.262 774.9C512.439 783.341 507.87 789.603 501.036 796.054Z" stroke="url(#paint2_linear_10_1991)" stroke-miterlimit="22.9256"/>
<path d="M513.912 688.754C509.408 700.148 504.839 711.513 500.181 722.847C506.224 722.155 511.537 720.992 516.714 716.48C510.185 723.209 505.602 722.045 499.732 723.938C496.333 732.185 492.889 740.421 489.379 748.627C499.338 749.166 508.231 748.77 517.804 742.887C505.573 751.889 498.554 748.82 488.679 750.265C485.457 757.785 482.593 764.254 479.26 771.734C486.414 769.077 501.532 772.699 518.029 765.301C500.423 774.592 491.907 771.46 478.691 773.119C475.424 780.44 472.104 787.74 468.713 795.014C481.448 795.692 492.827 795.173 505.073 787.644C489.392 799.182 480.379 795.267 467.736 797.106C461.375 810.705 454.783 824.222 447.91 837.625C446.72 839.312 444.254 838.433 445.051 835.666C452.648 821.537 459.912 807.413 466.877 793.297C460.066 782.812 451.443 778.373 449.978 759.215C452.244 773.278 459.148 782.215 467.835 791.349C470.502 785.924 473.131 780.499 475.717 775.069C470.106 763.499 463.157 757.797 461.603 738.335C463.698 752.848 469.399 762.865 476.523 773.365C480.57 764.846 484.515 756.337 488.378 747.824C483.019 739.265 476.039 735.985 474.868 720.73C476.662 731.866 482.183 738.874 489.109 746.112L488.985 746.486C492.883 737.865 496.695 729.244 500.433 720.63C496.6 715.838 492.153 714.245 490.428 705.055C492.276 711.758 496.131 715.686 500.856 719.648C505.315 709.343 509.663 699.046 513.912 688.754Z" fill="url(#paint3_linear_10_1991)"/>
</g>
<g clip-path="url(#clip3_10_1991)">
<path d="M678.227 730.04C688.151 735.746 695.861 734.994 706.675 734.78C708.277 734.703 718.019 733.983 718.574 733.743C719.988 734.036 722.583 737.9 723.913 739.525C727.229 743.568 738.35 757.556 741.514 758.184C741.869 757.954 742.303 757.764 742.567 757.266C743.035 756.369 742.82 756.283 742.371 755.812C742.315 755.647 733.242 746.114 732.359 745.106C728.491 740.634 724.5 736.609 721.011 731.754L722.809 726.682L724.966 720.475C726.109 716.398 727.769 712.487 728.712 708.406C731.668 695.675 729.916 690.921 724.962 678.77C724.285 677.545 723.473 675.995 722.687 674.908C717.633 668.252 713.734 663.35 707.4 657.688C705.931 656.372 704.647 655.251 703.07 653.948C702.525 653.493 701.821 653.097 701.158 652.644C692.05 646.394 681.927 642.303 671.505 638.705C668.48 637.663 665.397 636.755 662.393 635.714L657.853 634.429C654.009 633.462 650.147 632.963 646.456 631.516C643.849 630.496 642.534 628.638 640.406 627.918C640.107 630.037 641.735 632.251 642.004 634.505C642.283 636.853 642.05 638.673 641.865 641.18C640.977 652.957 642.276 668.901 644.051 680.182C645.44 689.037 647.841 696.347 651.726 703.038C653.782 706.574 656.129 709.951 658.499 713.007C664.18 720.327 670.08 725.355 678.227 730.04Z" stroke="url(#paint4_linear_10_1991)" stroke-miterlimit="22.9256"/>
<path d="M640.751 628.677C647.781 638.711 654.868 648.701 662.034 658.641C655.996 659.374 650.559 659.478 644.474 656.294C652.388 661.32 656.575 659.122 662.724 659.598C667.948 666.828 673.213 674.037 678.536 681.203C668.975 684.042 660.233 685.726 649.555 682.23C663.544 688.141 669.657 683.524 679.597 682.633C684.479 689.197 688.769 694.823 693.75 701.323C686.174 700.402 672.313 707.44 654.548 704.082C673.832 709.024 681.386 703.997 694.625 702.537C699.506 708.898 704.432 715.226 709.422 721.512C697.194 725.133 686.006 727.274 672.344 722.799C690.279 730.374 698.134 724.471 710.858 723.32C720.208 735.066 729.762 746.68 739.563 758.117C741.114 759.481 743.307 758.053 741.889 755.546C731.215 743.572 720.865 731.525 710.808 719.415C714.994 707.634 722.348 701.311 719.318 682.337C720.385 696.542 715.748 706.84 709.423 717.744C705.568 713.087 701.75 708.422 697.972 703.743C700.738 691.185 706.171 684.023 703.156 664.733C704.493 679.336 701.279 690.403 696.792 702.272C690.874 694.928 685.059 687.57 679.321 680.189C682.544 670.618 688.569 665.804 686.161 650.696C687.005 661.944 683.266 670.043 678.212 678.693L678.421 679.028C672.625 671.551 666.913 664.052 661.274 656.543C663.887 650.991 667.841 648.408 667.382 639.069C667.144 646.018 664.308 650.734 660.634 655.687C653.9 646.701 647.277 637.697 640.751 628.677Z" fill="url(#paint5_linear_10_1991)"/>
</g>
<g clip-path="url(#clip4_10_1991)">
<path d="M-2.13284 401.943C-13.454 400.246 -19.0278 394.865 -27.3668 387.977C-28.5732 386.921 -35.7586 380.302 -36.0439 379.77C-37.334 379.12 -41.7681 380.535 -43.8205 380.981C-48.9304 382.088 -66.3364 386.135 -69.2049 384.661C-69.3409 384.26 -69.5622 383.842 -69.4601 383.288C-69.2692 382.294 -69.0472 382.36 -68.4029 382.27C-68.2562 382.175 -55.2234 380.346 -53.9061 380.105C-48.0959 379.005 -42.4682 378.332 -36.7173 376.697L-34.9736 371.606L-32.806 365.402C-31.1682 361.498 -30.0378 357.403 -28.2401 353.619C-22.6446 341.808 -18.317 339.172 -6.884 332.732C-5.59244 332.193 -3.99328 331.483 -2.70208 331.12C5.39374 329.046 11.4944 327.629 19.9761 327.13C21.9448 327.012 23.6469 326.931 25.693 326.89C26.4024 326.872 27.2 326.999 28.0014 327.057C39.0204 327.821 49.4943 330.907 59.8949 334.565C62.912 335.629 65.892 336.834 68.8928 337.884L73.2476 339.7C76.8606 341.331 80.1963 343.34 83.9867 344.5C86.6629 345.321 88.8479 344.683 90.9632 345.441C89.8805 347.288 87.2292 348.01 85.6175 349.609C83.9393 351.275 82.9911 352.846 81.5783 354.925C74.9542 364.703 64.0278 376.387 55.6268 384.122C49.0357 390.196 42.6113 394.431 35.4099 397.258C31.6011 398.751 27.6644 399.938 23.908 400.859C14.9076 403.063 7.16152 403.336 -2.13284 401.943Z" stroke="url(#paint6_linear_10_1991)" stroke-miterlimit="22.9256"/>
<path d="M90.2212 345.822C78.4775 349.314 66.7168 352.736 54.9249 356.07C59.2002 360.397 63.3954 363.857 70.1414 365.144C60.8176 364.163 58.903 359.839 53.7895 356.391C45.2039 358.809 36.5984 361.184 27.976 363.49C33.7016 371.657 39.5035 378.408 50.0421 382.306C35.4092 378.243 33.4888 370.827 26.2557 363.952C18.3513 366.06 11.4937 367.801 3.55252 369.798C10.0594 373.785 16.5448 387.913 32.5501 396.323C14.3708 388.21 11.5764 379.577 2.1117 370.206C-5.66516 372.156 -13.4573 374.052 -21.2728 375.876C-13.9434 386.311 -6.50878 394.942 6.9753 399.926C-11.7829 394.715 -14.2683 385.209 -23.5216 376.399C-38.1463 379.792 -52.8487 382.952 -67.6355 385.821C-69.698 385.927 -70.5288 383.444 -67.8598 382.362C-52.0557 379.614 -36.4603 376.608 -21.0554 373.371C-17.0131 361.54 -18.8457 352.016 -4.68004 339.034C-14.3434 349.5 -17.1104 360.449 -18.9319 372.922C-13.0174 371.67 -7.12717 370.388 -1.25905 369.07C4.37794 357.513 4.57243 348.526 18.9224 335.287C8.79948 345.896 4.44008 356.564 0.579352 368.652C9.77929 366.576 18.908 364.425 27.9903 362.208C31.4141 352.707 29.6844 345.191 40.9609 334.851C33.309 343.139 31.2052 351.808 29.7885 361.725L29.417 361.858C38.6049 359.602 47.7402 357.278 56.8245 354.899C58.2272 348.925 56.7349 344.444 62.8991 337.413C58.767 343.005 58.0572 348.463 57.8583 354.626C68.7178 351.771 79.502 348.833 90.2212 345.822Z" fill="url(#paint7_linear_10_1991)"/>
</g>
<g clip-path="url(#clip5_10_1991)">
<path d="M-0.132842 631.943C-11.454 630.246 -17.0278 624.865 -25.3668 617.977C-26.5732 616.921 -33.7586 610.302 -34.0439 609.77C-35.334 609.12 -39.7681 610.535 -41.8205 610.981C-46.9304 612.088 -64.3364 616.135 -67.2049 614.661C-67.3409 614.26 -67.5622 613.842 -67.4601 613.288C-67.2692 612.294 -67.0472 612.36 -66.4029 612.27C-66.2562 612.175 -53.2234 610.346 -51.9061 610.105C-46.0959 609.005 -40.4682 608.332 -34.7173 606.697L-32.9736 601.606L-30.806 595.402C-29.1682 591.498 -28.0378 587.403 -26.2401 583.619C-20.6446 571.808 -16.317 569.172 -4.884 562.732C-3.59244 562.193 -1.99328 561.483 -0.702075 561.12C7.39374 559.046 13.4944 557.629 21.9761 557.13C23.9448 557.012 25.6469 556.931 27.693 556.89C28.4024 556.872 29.2 556.999 30.0014 557.057C41.0204 557.821 51.4943 560.907 61.8949 564.565C64.912 565.629 67.892 566.834 70.8928 567.884L75.2476 569.7C78.8606 571.331 82.1963 573.34 85.9867 574.5C88.6629 575.321 90.8479 574.683 92.9632 575.441C91.8805 577.288 89.2292 578.01 87.6175 579.609C85.9393 581.275 84.9911 582.846 83.5783 584.925C76.9542 594.703 66.0278 606.387 57.6268 614.122C51.0357 620.196 44.6113 624.431 37.4099 627.258C33.6011 628.751 29.6644 629.938 25.908 630.859C16.9076 633.063 9.16152 633.336 -0.132842 631.943Z" stroke="url(#paint8_linear_10_1991)" stroke-miterlimit="22.9256"/>
<path d="M92.2212 575.822C80.4775 579.314 68.7168 582.736 56.9249 586.07C61.2002 590.397 65.3954 593.857 72.1414 595.144C62.8176 594.163 60.903 589.839 55.7895 586.391C47.2039 588.809 38.5984 591.184 29.976 593.49C35.7016 601.657 41.5035 608.408 52.0421 612.306C37.4092 608.243 35.4888 600.827 28.2557 593.952C20.3513 596.06 13.4937 597.801 5.55252 599.798C12.0594 603.785 18.5448 617.913 34.5501 626.323C16.3708 618.21 13.5764 609.577 4.1117 600.206C-3.66516 602.156 -11.4573 604.052 -19.2728 605.876C-11.9434 616.311 -4.50878 624.942 8.9753 629.926C-9.78287 624.715 -12.2683 615.209 -21.5216 606.399C-36.1463 609.792 -50.8487 612.952 -65.6355 615.821C-67.698 615.927 -68.5288 613.444 -65.8598 612.362C-50.0557 609.614 -34.4603 606.608 -19.0554 603.371C-15.0131 591.54 -16.8457 582.016 -2.68004 569.034C-12.3434 579.5 -15.1104 590.449 -16.9319 602.922C-11.0174 601.67 -5.12717 600.388 0.740949 599.07C6.37794 587.513 6.57243 578.526 20.9224 565.287C10.7995 575.896 6.44008 586.564 2.57935 598.652C11.7793 596.576 20.908 594.425 29.9903 592.208C33.4141 582.707 31.6844 575.191 42.9609 564.851C35.309 573.139 33.2052 581.808 31.7885 591.725L31.417 591.858C40.6049 589.602 49.7402 587.278 58.8245 584.899C60.2272 578.925 58.7349 574.444 64.8991 567.413C60.767 573.005 60.0572 578.463 59.8583 584.626C70.7178 581.771 81.502 578.833 92.2212 575.822Z" fill="url(#paint9_linear_10_1991)"/>
</g>
<g clip-path="url(#clip6_10_1991)">
<path d="M713.953 465.943C725.274 464.246 730.848 458.865 739.187 451.977C740.394 450.921 747.579 444.302 747.864 443.77C749.154 443.12 753.588 444.535 755.641 444.981C760.751 446.088 778.157 450.135 781.025 448.661C781.161 448.26 781.383 447.842 781.28 447.288C781.09 446.294 780.868 446.36 780.223 446.27C780.076 446.175 767.044 444.346 765.726 444.105C759.916 443.005 754.288 442.332 748.538 440.697L746.794 435.606L744.626 429.402C742.989 425.498 741.858 421.403 740.06 417.619C734.465 405.808 730.137 403.172 718.704 396.732C717.413 396.193 715.814 395.483 714.522 395.12C706.427 393.046 700.326 391.629 691.844 391.13C689.876 391.012 688.173 390.931 686.127 390.89C685.418 390.872 684.62 390.999 683.819 391.057C672.8 391.821 662.326 394.907 651.925 398.565C648.908 399.629 645.928 400.834 642.928 401.884L638.573 403.7C634.96 405.331 631.624 407.34 627.834 408.5C625.157 409.321 622.972 408.683 620.857 409.441C621.94 411.288 624.591 412.01 626.203 413.609C627.881 415.275 628.829 416.846 630.242 418.925C636.866 428.703 647.793 440.387 656.193 448.122C662.785 454.196 669.209 458.431 676.41 461.258C680.219 462.751 684.156 463.938 687.912 464.859C696.913 467.063 704.659 467.336 713.953 465.943Z" stroke="url(#paint10_linear_10_1991)" stroke-miterlimit="22.9256"/>
<path d="M621.599 409.822C633.343 413.314 645.104 416.736 656.895 420.07C652.62 424.397 648.425 427.857 641.679 429.144C651.003 428.163 652.917 423.839 658.031 420.391C666.616 422.809 675.222 425.184 683.844 427.49C678.119 435.657 672.317 442.408 661.778 446.306C676.411 442.243 678.331 434.827 685.565 427.952C693.469 430.06 700.327 431.801 708.268 433.798C701.761 437.785 695.275 451.913 679.27 460.323C697.45 452.21 700.244 443.577 709.709 434.206C717.485 436.156 725.278 438.052 733.093 439.876C725.764 450.311 718.329 458.942 704.845 463.926C723.603 458.715 726.089 449.209 735.342 440.399C749.967 443.792 764.669 446.952 779.456 449.821C781.518 449.927 782.349 447.444 779.68 446.362C763.876 443.614 748.281 440.608 732.876 437.371C728.833 425.54 730.666 416.016 716.5 403.034C726.164 413.5 728.931 424.449 730.752 436.922C724.838 435.67 718.947 434.388 713.079 433.07C707.442 421.513 707.248 412.526 692.898 399.287C703.021 409.896 707.38 420.564 711.241 432.652C702.041 430.576 692.912 428.425 683.83 426.208C680.406 416.707 682.136 409.191 670.859 398.851C678.511 407.139 680.615 415.808 682.032 425.725L682.403 425.858C673.215 423.602 664.08 421.278 654.996 418.899C653.593 412.925 655.085 408.444 648.921 401.413C653.053 407.005 653.763 412.463 653.962 418.626C643.103 415.771 632.318 412.833 621.599 409.822Z" fill="url(#paint11_linear_10_1991)"/>
</g>
<g clip-path="url(#clip7_10_1991)">
<path d="M698.953 351.943C710.274 350.246 715.848 344.865 724.187 337.977C725.394 336.921 732.579 330.302 732.864 329.77C734.154 329.12 738.588 330.535 740.641 330.981C745.751 332.088 763.157 336.135 766.025 334.661C766.161 334.26 766.383 333.842 766.28 333.288C766.09 332.294 765.868 332.36 765.223 332.27C765.076 332.175 752.044 330.346 750.726 330.105C744.916 329.005 739.288 328.332 733.538 326.697L731.794 321.606L729.626 315.402C727.989 311.498 726.858 307.403 725.06 303.619C719.465 291.808 715.137 289.172 703.704 282.732C702.413 282.193 700.814 281.483 699.522 281.12C691.427 279.046 685.326 277.629 676.844 277.13C674.876 277.012 673.173 276.931 671.127 276.89C670.418 276.872 669.62 276.999 668.819 277.057C657.8 277.821 647.326 280.907 636.925 284.565C633.908 285.629 630.928 286.834 627.928 287.884L623.573 289.7C619.96 291.331 616.624 293.34 612.834 294.5C610.157 295.321 607.972 294.683 605.857 295.441C606.94 297.288 609.591 298.01 611.203 299.609C612.881 301.275 613.829 302.846 615.242 304.925C621.866 314.703 632.793 326.387 641.193 334.122C647.785 340.196 654.209 344.431 661.41 347.258C665.219 348.751 669.156 349.938 672.912 350.859C681.913 353.063 689.659 353.336 698.953 351.943Z" stroke="url(#paint12_linear_10_1991)" stroke-miterlimit="22.9256"/>
<path d="M606.599 295.822C618.343 299.314 630.104 302.736 641.895 306.07C637.62 310.397 633.425 313.857 626.679 315.144C636.003 314.163 637.917 309.839 643.031 306.391C651.616 308.809 660.222 311.184 668.844 313.49C663.119 321.657 657.317 328.408 646.778 332.306C661.411 328.243 663.331 320.827 670.565 313.952C678.469 316.06 685.327 317.801 693.268 319.798C686.761 323.785 680.275 337.913 664.27 346.323C682.45 338.21 685.244 329.577 694.709 320.206C702.485 322.156 710.278 324.052 718.093 325.876C710.764 336.311 703.329 344.942 689.845 349.926C708.603 344.715 711.089 335.209 720.342 326.399C734.967 329.792 749.669 332.952 764.456 335.821C766.518 335.927 767.349 333.444 764.68 332.362C748.876 329.614 733.281 326.608 717.876 323.371C713.833 311.54 715.666 302.016 701.5 289.034C711.164 299.5 713.931 310.449 715.752 322.922C709.838 321.67 703.947 320.388 698.079 319.07C692.442 307.513 692.248 298.526 677.898 285.287C688.021 295.896 692.38 306.564 696.241 318.652C687.041 316.576 677.912 314.425 668.83 312.208C665.406 302.707 667.136 295.191 655.859 284.851C663.511 293.139 665.615 301.808 667.032 311.725L667.403 311.858C658.215 309.602 649.08 307.278 639.996 304.899C638.593 298.925 640.085 294.444 633.921 287.413C638.053 293.005 638.763 298.463 638.962 304.626C628.103 301.771 617.318 298.833 606.599 295.822Z" fill="url(#paint13_linear_10_1991)"/>
</g>
<g clip-path="url(#clip8_10_1991)">
<path d="M699.957 152.943C711.278 151.246 716.851 145.865 725.19 138.977C726.397 137.921 733.582 131.302 733.868 130.77C735.158 130.12 739.592 131.535 741.644 131.981C746.754 133.088 764.16 137.135 767.029 135.661C767.165 135.26 767.386 134.842 767.284 134.288C767.093 133.294 766.871 133.36 766.227 133.27C766.08 133.175 753.047 131.346 751.73 131.105C745.92 130.005 740.292 129.332 734.541 127.697L732.797 122.606L730.63 116.402C728.992 112.498 727.862 108.403 726.064 104.619C720.468 92.8079 716.141 90.1723 704.708 83.7317C703.416 83.1927 701.817 82.4834 700.526 82.1202C692.43 80.0459 686.329 78.629 677.848 78.13C675.879 78.0119 674.177 77.9311 672.131 77.8903C671.421 77.8725 670.624 77.9992 669.822 78.057C658.803 78.821 648.329 81.9072 637.929 85.5652C634.912 86.6288 631.932 87.8338 628.931 88.8844L624.576 90.6995C620.963 92.3306 617.627 94.34 613.837 95.5004C611.161 96.321 608.976 95.683 606.86 96.4414C607.943 98.2876 610.595 99.0103 612.206 100.609C613.884 102.275 614.833 103.846 616.245 105.925C622.869 115.703 633.796 127.387 642.197 135.122C648.788 141.196 655.212 145.431 662.414 148.258C666.223 149.751 670.159 150.938 673.916 151.859C682.916 154.063 690.662 154.336 699.957 152.943Z" stroke="url(#paint14_linear_10_1991)" stroke-miterlimit="22.9256"/>
<path d="M607.603 96.8216C619.346 100.314 631.107 103.736 642.899 107.07C638.624 111.397 634.428 114.857 627.682 116.144C637.006 115.163 638.921 110.839 644.034 107.391C652.62 109.809 661.225 112.184 669.848 114.49C664.122 122.657 658.32 129.408 647.782 133.306C662.414 129.243 664.335 121.827 671.568 114.952C679.472 117.06 686.33 118.801 694.271 120.798C687.764 124.785 681.279 138.913 665.274 147.323C683.453 139.21 686.247 130.577 695.712 121.206C703.489 123.156 711.281 125.052 719.096 126.876C711.767 137.311 704.333 145.942 690.848 150.926C709.607 145.715 712.092 136.209 721.345 127.399C735.97 130.792 750.672 133.952 765.459 136.821C767.522 136.927 768.353 134.444 765.684 133.362C749.879 130.614 734.284 127.608 718.879 124.371C714.837 112.54 716.669 103.016 702.504 90.0339C712.167 100.5 714.934 111.449 716.756 123.922C710.841 122.67 704.951 121.388 699.083 120.07C693.446 108.513 693.251 99.5259 678.901 86.2867C689.024 96.8962 693.384 107.564 697.244 119.652C688.044 117.576 678.916 115.425 669.833 113.208C666.41 103.707 668.139 96.1912 656.863 85.8513C664.515 94.1387 666.619 102.808 668.035 112.725L668.407 112.858C659.219 110.602 650.084 108.278 640.999 105.899C639.597 99.9252 641.089 95.4441 634.925 88.4129C639.057 94.0047 639.766 99.4625 639.965 105.626C629.106 102.771 618.322 99.8328 607.603 96.8216Z" fill="url(#paint15_linear_10_1991)"/>
</g>
<g clip-path="url(#clip9_10_1991)">
<path d="M343.304 -17.9643C333.014 -22.9801 325.372 -21.7038 314.598 -20.7521C313.006 -20.5655 303.335 -19.1824 302.798 -18.9052C301.367 -19.1007 298.515 -22.7785 297.077 -24.3094C293.493 -28.1164 281.443 -41.3126 278.244 -41.7228C277.904 -41.4694 277.485 -41.2504 277.255 -40.7358C276.85 -39.8089 277.07 -39.7377 277.55 -39.2981C277.617 -39.1369 287.32 -30.246 288.269 -29.3009C292.434 -25.103 296.69 -21.36 300.502 -16.7546L299.055 -11.5718L297.327 -5.23137C296.464 -1.08608 295.075 2.92884 294.414 7.06486C292.333 19.968 294.406 24.5915 300.178 36.3761C300.937 37.552 301.853 39.0425 302.711 40.0733C308.207 46.3693 312.431 50.9931 319.138 56.2096C320.693 57.4222 322.05 58.4531 323.713 59.646C324.287 60.0625 325.016 60.4099 325.709 60.8164C335.222 66.4296 345.602 69.8204 356.244 72.6985C359.333 73.5314 362.471 74.2267 365.539 75.061L370.156 76.0325C374.058 76.7354 377.945 76.9694 381.726 78.1606C384.396 79.0006 385.835 80.7642 388.008 81.3377C388.161 79.203 386.386 77.1054 385.963 74.8751C385.524 72.5515 385.633 70.7197 385.647 68.2064C385.728 56.3959 383.344 40.5775 380.803 29.4442C378.814 20.7046 375.919 13.5756 371.586 7.16587C369.294 3.77761 366.722 0.569575 364.148 -2.31747C357.981 -9.23315 351.752 -13.8462 343.304 -17.9643Z" stroke="url(#paint16_linear_10_1991)" stroke-miterlimit="22.9256"/>
<path d="M387.612 80.6046C379.913 71.0738 372.161 61.5906 364.332 52.1628C370.307 51.0194 375.724 50.5446 382.012 53.3061C373.773 48.8321 369.746 51.3108 363.579 51.2549C357.874 44.3984 352.128 37.5655 346.33 30.7803C355.674 27.2946 364.28 25.0183 375.173 27.7769C360.813 22.8351 355.029 27.858 345.173 29.4255C339.855 23.2099 335.19 17.89 329.777 11.7457C337.398 12.1465 350.747 4.17891 368.7 6.31682C349.124 2.70239 341.93 8.23312 328.821 10.5936C323.518 4.58039 318.171 -1.39631 312.764 -7.32705C324.716 -11.7741 335.732 -14.6736 349.667 -11.1419C331.257 -17.475 323.823 -11.0494 311.207 -9.03243C301.078 -20.1136 290.753 -31.0473 280.194 -41.7892C278.554 -43.0444 276.463 -41.4696 278.05 -39.0657C289.516 -27.8479 300.664 -16.5352 311.524 -5.14037C308.152 6.89936 301.247 13.7089 305.564 32.4321C303.531 18.333 307.454 7.74315 313.02 -3.5672C317.184 0.815323 321.312 5.20871 325.4 9.61938C323.498 22.3364 318.566 29.8524 322.891 48.8918C320.56 34.4141 323.011 23.1534 326.678 11.0058C333.083 17.9287 339.387 24.873 345.615 31.8454C343.054 41.614 337.37 46.8273 340.804 61.7364C339.194 50.5721 342.372 42.2364 346.823 33.2617L346.593 32.9416C352.885 40.0062 359.096 47.0972 365.235 54.2036C363.006 59.9212 359.237 62.7683 360.333 72.0545C360.096 65.1056 362.604 60.2061 365.932 55.0146C373.263 63.5194 380.485 72.0504 387.612 80.6046Z" fill="url(#paint17_linear_10_1991)"/>
</g>
<g clip-path="url(#clip10_10_1991)">
<path d="M140.598 -14.5265C130.674 -20.2329 122.963 -19.4813 112.149 -19.2672C110.548 -19.1897 100.805 -18.47 100.25 -18.2301C98.8359 -18.5227 96.2413 -22.3867 94.911 -24.0122C91.5956 -28.0549 80.4742 -42.0429 77.3106 -42.6705C76.9548 -42.4408 76.5217 -42.2509 76.2573 -41.7533C75.7893 -40.8562 76.0044 -40.7701 76.4529 -40.2988C76.509 -40.1334 85.5826 -30.6009 86.4648 -29.5933C90.3332 -25.1208 94.3239 -21.096 97.8132 -16.2412L96.0156 -11.1693L93.8581 -4.96159C92.7147 -0.884842 91.0553 3.02593 90.1126 7.10712C87.1558 19.8381 88.9082 24.5924 93.8626 36.7435C94.5395 37.9684 95.3516 39.5179 96.1374 40.6049C101.191 47.2613 105.09 52.1628 111.425 57.8248C112.894 59.1408 114.177 60.2619 115.754 61.5655C116.299 62.0203 117.003 62.4167 117.667 62.8695C126.774 69.1189 136.898 73.2103 147.319 76.8081C150.344 77.8499 153.427 78.7579 156.431 79.7996L160.971 81.084C164.815 82.0515 168.677 82.5503 172.368 83.9968C174.975 85.0171 176.29 86.8749 178.419 87.5953C178.718 85.476 177.09 83.2622 176.82 81.0082C176.541 78.6601 176.775 76.84 176.959 74.3334C177.847 62.5561 176.548 46.6118 174.773 35.3311C173.385 26.4761 170.983 19.166 167.098 12.4756C165.042 8.93873 162.696 5.56263 160.325 2.50664C154.644 -4.8139 148.745 -9.84137 140.598 -14.5265Z" stroke="url(#paint18_linear_10_1991)" stroke-miterlimit="22.9256"/>
<path d="M178.073 86.8366C171.043 76.8025 163.956 66.8122 156.79 56.8721C162.828 56.1392 168.266 56.0353 174.35 59.2195C166.436 54.1937 162.249 56.3916 156.1 55.9149C150.876 48.685 145.611 41.4759 140.289 34.3106C149.85 31.471 158.591 29.7874 169.27 33.2831C155.28 27.3726 149.167 31.989 139.228 32.8801C134.345 26.316 130.055 20.69 125.074 14.1907C132.65 15.1107 146.511 8.0728 164.277 11.4312C144.993 6.48893 137.438 11.5157 124.199 12.9759C119.318 6.61475 114.392 0.28701 109.402 -5.99895C121.63 -9.61985 132.818 -11.7606 146.48 -7.28598C128.545 -14.8609 120.69 -8.95775 107.966 -7.80661C98.6166 -19.5533 89.0623 -31.1663 79.261 -42.6039C77.7106 -43.9681 75.517 -42.5397 76.9354 -40.0332C87.6094 -28.0588 97.9593 -16.0116 108.016 -3.90199C103.83 7.87948 96.4759 14.2018 99.5057 33.1761C98.4395 18.971 103.076 8.67365 109.401 -2.23041C113.256 2.42614 117.074 7.09102 120.853 11.7705C118.086 24.328 112.653 31.4898 115.668 50.78C114.331 36.177 117.545 25.1099 122.033 13.2409C127.95 20.5848 133.765 27.9432 139.503 35.3245C136.281 44.8954 130.255 49.7087 132.663 64.8174C131.819 53.5692 135.558 45.4699 140.612 36.8199L140.403 36.4849C146.199 43.9625 151.912 51.4609 157.551 58.9697C154.937 64.5219 150.983 67.1051 151.442 76.4444C151.68 69.4956 154.516 64.7787 158.191 59.8264C164.924 68.8118 171.547 77.8159 178.073 86.8366Z" fill="url(#paint19_linear_10_1991)"/>
</g>
<g clip-path="url(#clip11_10_1991)">
<path d="M0.867646 190.943C-10.4535 189.246 -16.0273 183.865 -24.3663 176.977C-25.5727 175.921 -32.7582 169.302 -33.0434 168.77C-34.3336 168.12 -38.7676 169.535 -40.82 169.981C-45.9299 171.088 -63.3359 175.135 -66.2044 173.661C-66.3404 173.26 -66.5617 172.842 -66.4596 172.288C-66.2687 171.294 -66.0467 171.36 -65.4024 171.27C-65.2557 171.175 -52.2229 169.346 -50.9056 169.105C-45.0954 168.005 -39.4677 167.332 -33.7168 165.697L-31.9731 160.606L-29.8055 154.402C-28.1677 150.498 -27.0373 146.403 -25.2396 142.619C-19.6441 130.808 -15.3165 128.172 -3.88351 121.732C-2.59195 121.193 -0.992792 120.483 0.298413 120.12C8.39423 118.046 14.4949 116.629 22.9766 116.13C24.9453 116.012 26.6474 115.931 28.6935 115.89C29.4028 115.872 30.2004 115.999 31.0019 116.057C42.0209 116.821 52.4948 119.907 62.8954 123.565C65.9125 124.629 68.8925 125.834 71.8933 126.884L76.2481 128.7C79.8611 130.331 83.1967 132.34 86.9872 133.5C89.6634 134.321 91.8483 133.683 93.9637 134.441C92.881 136.288 90.2297 137.01 88.618 138.609C86.9397 140.275 85.9916 141.846 84.5788 143.925C77.9547 153.703 67.0282 165.387 58.6273 173.122C52.0362 179.196 45.6118 183.431 38.4104 186.258C34.6016 187.751 30.6648 188.938 26.9085 189.859C17.9081 192.063 10.162 192.336 0.867646 190.943Z" stroke="url(#paint20_linear_10_1991)" stroke-miterlimit="22.9256"/>
<path d="M93.2217 134.822C81.478 138.314 69.7173 141.736 57.9254 145.07C62.2007 149.397 66.3959 152.857 73.1419 154.144C63.8181 153.163 61.9035 148.839 56.79 145.391C48.2044 147.809 39.5989 150.184 30.9765 152.49C36.7021 160.657 42.5039 167.408 53.0426 171.306C38.4097 167.243 36.4893 159.827 29.2561 152.952C21.3518 155.06 14.4942 156.801 6.553 158.798C13.0599 162.785 19.5453 176.913 35.5506 185.323C17.3713 177.21 14.5769 168.577 5.11219 159.206C-2.66467 161.156 -10.4569 163.052 -18.2723 164.876C-10.9429 175.311 -3.50829 183.942 9.97579 188.926C-8.78238 183.715 -11.2678 174.209 -20.5211 165.399C-35.1458 168.792 -49.8482 171.952 -64.635 174.821C-66.6975 174.927 -67.5283 172.444 -64.8594 171.362C-49.0552 168.614 -33.4598 165.608 -18.0549 162.371C-14.0126 150.54 -15.8452 141.016 -1.67955 128.034C-11.3429 138.5 -14.1099 149.449 -15.9314 161.922C-10.0169 160.67 -4.12668 159.388 1.74144 158.07C7.37843 146.513 7.57292 137.526 21.9229 124.287C11.8 134.896 7.44057 145.564 3.57984 157.652C12.7798 155.576 21.9085 153.425 30.9908 151.208C34.4146 141.707 32.6849 134.191 43.9614 123.851C36.3095 132.139 34.2057 140.808 32.789 150.725L32.4175 150.858C41.6054 148.602 50.7407 146.278 59.825 143.899C61.2277 137.925 59.7354 133.444 65.8995 126.413C61.7675 132.005 61.0577 137.463 60.8588 143.626C71.7182 140.771 82.5025 137.833 93.2217 134.822Z" fill="url(#paint21_linear_10_1991)"/>
</g>
<g clip-path="url(#clip12_10_1991)">
<path d="M35.5975 304.04C25.6737 309.746 17.9629 308.994 7.14893 308.78C5.54754 308.703 -4.19507 307.983 -4.74951 307.743C-6.16409 308.036 -8.7587 311.9 -10.089 313.525C-13.4044 317.568 -24.5258 331.556 -27.6894 332.184C-28.0452 331.954 -28.4783 331.764 -28.7427 331.266C-29.2107 330.369 -28.9956 330.283 -28.5471 329.812C-28.491 329.647 -19.4174 320.114 -18.5352 319.106C-14.6668 314.634 -10.6761 310.609 -7.18677 305.754L-8.98443 300.682L-11.1419 294.475C-12.2853 290.398 -13.9447 286.487 -14.8874 282.406C-17.8442 269.675 -16.0918 264.921 -11.1374 252.77C-10.4605 251.545 -9.64844 249.995 -8.86259 248.908C-3.80916 242.252 0.0898042 237.35 6.42458 231.688C7.89351 230.372 9.17679 229.251 10.7544 227.948C11.2991 227.493 12.0027 227.097 12.6666 226.644C21.7741 220.394 31.8977 216.303 42.3192 212.705C45.3439 211.663 48.4275 210.755 51.4313 209.714L55.971 208.429C59.8153 207.462 63.6773 206.963 67.3681 205.516C69.9748 204.496 71.29 202.638 73.4186 201.918C73.7177 204.037 72.0896 206.251 71.8204 208.505C71.5409 210.853 71.7746 212.673 71.9595 215.18C72.8469 226.957 71.548 242.901 69.7734 254.182C68.3847 263.037 65.9832 270.347 62.0984 277.038C60.0424 280.574 57.6955 283.951 55.3251 287.007C49.6438 294.327 43.7446 299.355 35.5975 304.04Z" stroke="url(#paint22_linear_10_1991)" stroke-miterlimit="22.9256"/>
<path d="M73.0733 202.677C66.043 212.711 58.9562 222.701 51.7899 232.641C57.8284 233.374 63.2656 233.478 69.3505 230.294C61.4362 235.32 57.2488 233.122 51.0999 233.598C45.8763 240.828 40.6107 248.037 35.2887 255.203C44.8496 258.042 53.5908 259.726 64.2696 256.23C50.2804 262.141 44.1671 257.524 34.2276 256.633C29.3454 263.197 25.0549 268.823 20.0743 275.323C27.6501 274.402 41.5111 281.44 59.2766 278.082C39.9926 283.024 32.4381 277.997 19.1989 276.537C14.3183 282.898 9.39174 289.226 4.40235 295.512C16.6301 299.133 27.818 301.274 41.4798 296.799C23.5453 304.374 15.6902 298.471 2.96579 297.32C-6.38338 309.066 -15.9377 320.68 -25.739 332.117C-27.2894 333.481 -29.483 332.053 -28.0646 329.546C-17.3906 317.572 -7.04075 305.525 3.01632 293.415C-1.16973 281.634 -8.52407 275.311 -5.49425 256.337C-6.56052 270.542 -1.92389 280.84 4.40091 291.744C8.25647 287.087 12.0744 282.422 15.8526 277.743C13.0864 265.185 7.65347 258.023 10.668 238.733C9.33081 253.336 12.5455 264.403 17.0327 276.272C22.9501 268.928 28.7651 261.57 34.5027 254.189C31.2807 244.618 25.2547 239.804 27.6633 224.696C26.8188 235.944 30.5583 244.043 35.6117 252.693L35.4034 253.028C41.1993 245.551 46.9116 238.052 52.5507 230.543C49.9368 224.991 45.9828 222.408 46.4423 213.069C46.6802 220.018 49.5161 224.734 53.1906 229.687C59.9241 220.701 66.5468 211.697 73.0733 202.677Z" fill="url(#paint23_linear_10_1991)"/>
</g>
<g clip-path="url(#clip13_10_1991)">
<path d="M22.5975 527.04C12.6737 532.746 4.96286 531.994 -5.85107 531.78C-7.45246 531.703 -17.1951 530.983 -17.7495 530.743C-19.1641 531.036 -21.7587 534.9 -23.089 536.525C-26.4044 540.568 -37.5258 554.556 -40.6894 555.184C-41.0452 554.954 -41.4783 554.764 -41.7427 554.266C-42.2107 553.369 -41.9956 553.283 -41.5471 552.812C-41.491 552.647 -32.4174 543.114 -31.5352 542.106C-27.6668 537.634 -23.6761 533.609 -20.1868 528.754L-21.9844 523.682L-24.1419 517.475C-25.2853 513.398 -26.9447 509.487 -27.8874 505.406C-30.8442 492.675 -29.0918 487.921 -24.1374 475.77C-23.4605 474.545 -22.6484 472.995 -21.8626 471.908C-16.8092 465.252 -12.9102 460.35 -6.57542 454.688C-5.10649 453.372 -3.82321 452.251 -2.24556 450.948C-1.70091 450.493 -0.997259 450.097 -0.333448 449.644C8.77405 443.394 18.8977 439.303 29.3192 435.705C32.3439 434.663 35.4275 433.755 38.4313 432.714L42.971 431.429C46.8153 430.462 50.6773 429.963 54.3681 428.516C56.9748 427.496 58.29 425.638 60.4186 424.918C60.7177 427.037 59.0896 429.251 58.8204 431.505C58.5409 433.853 58.7746 435.673 58.9595 438.18C59.8469 449.957 58.548 465.901 56.7734 477.182C55.3847 486.037 52.9832 493.347 49.0984 500.038C47.0424 503.574 44.6955 506.951 42.3251 510.007C36.6438 517.327 30.7446 522.355 22.5975 527.04Z" stroke="url(#paint24_linear_10_1991)" stroke-miterlimit="22.9256"/>
<path d="M60.0733 425.677C53.043 435.711 45.9562 445.701 38.7899 455.641C44.8284 456.374 50.2656 456.478 56.3505 453.294C48.4362 458.32 44.2488 456.122 38.0999 456.598C32.8763 463.828 27.6107 471.037 22.2887 478.203C31.8496 481.042 40.5908 482.726 51.2696 479.23C37.2804 485.141 31.1671 480.524 21.2276 479.633C16.3454 486.197 12.0549 491.823 7.07435 498.323C14.6501 497.402 28.5111 504.44 46.2766 501.082C26.9926 506.024 19.4381 500.997 6.19888 499.537C1.31834 505.898 -3.60826 512.226 -8.59765 518.512C3.63008 522.133 14.818 524.274 28.4798 519.799C10.5453 527.374 2.69016 521.471 -10.0342 520.32C-19.3834 532.066 -28.9377 543.68 -38.739 555.117C-40.2894 556.481 -42.483 555.053 -41.0646 552.546C-30.3906 540.572 -20.0407 528.525 -9.98368 516.415C-14.1697 504.634 -21.5241 498.311 -18.4943 479.337C-19.5605 493.542 -14.9239 503.84 -8.59909 514.744C-4.74353 510.087 -0.925604 505.422 2.85257 500.743C0.0863782 488.185 -5.34653 481.023 -2.33199 461.733C-3.66919 476.336 -0.454538 487.403 4.03271 499.272C9.95015 491.928 15.7651 484.57 21.5027 477.189C18.2807 467.618 12.2547 462.804 14.6633 447.696C13.8188 458.944 17.5583 467.043 22.6117 475.693L22.4034 476.028C28.1993 468.551 33.9116 461.052 39.5507 453.543C36.9368 447.991 32.9828 445.408 33.4423 436.069C33.6802 443.018 36.5161 447.734 40.1906 452.687C46.9241 443.701 53.5468 434.697 60.0733 425.677Z" fill="url(#paint25_linear_10_1991)"/>
</g>
<g clip-path="url(#clip14_10_1991)">
<path d="M677.739 171.741C688.959 169.468 696.036 172.622 706.226 176.248C707.72 176.828 716.734 180.594 717.184 180.997C718.619 181.167 722.303 178.323 724.08 177.202C728.504 174.417 743.481 164.668 746.68 165.074C746.945 165.404 747.296 165.721 747.389 166.277C747.549 167.276 747.318 167.29 746.743 167.595C746.638 167.734 735.014 173.905 733.858 174.581C728.773 177.599 723.713 180.154 718.867 183.655L718.967 189.035L719.049 195.607C718.843 199.836 719.179 204.071 718.782 208.241C717.557 221.253 714.39 225.208 705.845 235.166C704.815 236.114 703.554 237.327 702.465 238.109C695.564 242.824 690.315 246.24 682.513 249.606C680.703 250.389 679.131 251.046 677.222 251.784C676.562 252.043 675.769 252.196 674.996 252.415C664.378 255.461 653.48 256.138 642.456 256.252C639.257 256.283 636.044 256.169 632.865 256.206L628.152 255.988C624.2 255.689 620.378 254.94 616.419 255.144C613.624 255.286 611.788 256.632 609.541 256.642C609.928 254.537 612.173 252.952 613.142 250.9C614.15 248.761 614.505 246.96 615.122 244.524C618.008 233.071 624.287 218.358 629.54 208.218C633.66 200.258 638.252 194.084 644.055 188.967C647.124 186.263 650.419 183.803 653.635 181.654C661.341 176.508 668.528 173.606 677.739 171.741Z" stroke="url(#paint26_linear_10_1991)" stroke-miterlimit="22.9256"/>
<path d="M610.109 256.032C619.953 248.739 629.838 241.505 639.782 234.344C634.286 231.737 629.161 229.918 622.381 231.013C631.479 228.75 634.755 232.16 640.739 233.654C647.982 228.449 655.259 223.277 662.575 218.165C654.405 212.445 646.646 208.082 635.409 208.018C650.55 206.839 654.888 213.153 664.035 217.144C670.743 212.462 676.594 208.484 683.375 203.895C675.898 202.37 664.977 191.307 647.062 188.869C666.919 190.285 672.494 197.444 684.59 203.019C691.233 198.53 697.909 194.087 704.632 189.703C694.179 182.398 684.243 176.827 669.868 176.747C689.278 175.238 694.861 183.324 706.567 188.443C719.153 180.259 731.892 172.267 744.809 164.52C746.712 163.716 748.34 165.766 746.202 167.694C732.286 175.675 718.656 183.827 705.283 192.131C705.525 204.632 710.5 212.957 701.621 229.996C707.128 216.859 705.989 205.624 703.44 193.278C698.309 196.475 693.211 199.692 688.146 202.935C686.796 215.723 689.683 224.236 680.718 241.58C686.608 228.151 687.061 216.635 686.561 203.956C678.624 209.05 670.779 214.19 663 219.375C663.027 229.474 667.22 235.947 660.153 249.517C664.514 239.114 663.531 230.248 661.475 220.443L661.778 220.191C653.914 225.45 646.122 230.755 638.396 236.093C639.118 242.187 642.051 245.889 638.66 254.603C640.633 247.936 639.436 242.564 637.518 236.703C628.287 243.095 619.155 249.54 610.109 256.032Z" fill="url(#paint27_linear_10_1991)"/>
</g>
<g clip-path="url(#clip15_10_1991)">
<path d="M694.739 493.741C705.959 491.469 713.036 494.622 723.226 498.248C724.72 498.828 733.734 502.595 734.184 502.998C735.619 503.168 739.303 500.324 741.08 499.203C745.504 496.417 760.481 486.668 763.68 487.074C763.945 487.405 764.296 487.722 764.389 488.278C764.549 489.277 764.318 489.29 763.743 489.595C763.638 489.735 752.014 495.905 750.858 496.582C745.773 499.6 740.713 502.155 735.867 505.656L735.967 511.036L736.049 517.607C735.843 521.836 736.179 526.071 735.782 530.241C734.557 543.253 731.39 547.209 722.845 557.167C721.815 558.115 720.554 559.327 719.465 560.11C712.564 564.825 707.315 568.24 699.513 571.606C697.703 572.39 696.131 573.047 694.222 573.784C693.562 574.043 692.769 574.196 691.996 574.416C681.378 577.462 670.48 578.138 659.456 578.253C656.257 578.284 653.044 578.169 649.865 578.207L645.152 577.988C641.2 577.689 637.378 576.94 633.419 577.144C630.624 577.287 628.788 578.633 626.541 578.643C626.928 576.538 629.173 574.953 630.142 572.9C631.15 570.761 631.505 568.961 632.122 566.524C635.008 555.071 641.287 540.358 646.54 530.219C650.66 522.259 655.252 516.084 661.055 510.967C664.124 508.263 667.419 505.803 670.635 503.655C678.341 498.509 685.528 495.607 694.739 493.741Z" stroke="url(#paint28_linear_10_1991)" stroke-miterlimit="22.9256"/>
<path d="M627.109 578.032C636.953 570.739 646.838 563.505 656.782 556.344C651.286 553.738 646.161 551.919 639.381 553.013C648.479 550.751 651.755 554.161 657.739 555.655C664.982 550.45 672.259 545.278 679.575 540.165C671.405 534.446 663.646 530.082 652.409 530.018C667.55 528.839 671.888 535.153 681.035 539.144C687.743 534.463 693.594 530.484 700.375 525.895C692.898 524.37 681.977 513.307 664.062 510.87C683.919 512.285 689.494 519.445 701.59 525.02C708.233 520.53 714.909 516.087 721.632 511.704C711.179 504.399 701.243 498.827 686.868 498.748C706.278 497.238 711.861 505.324 723.567 510.444C736.153 502.26 748.892 494.268 761.809 486.52C763.712 485.717 765.34 487.766 763.202 489.695C749.286 497.675 735.656 505.827 722.283 514.131C722.525 526.632 727.5 534.957 718.621 551.997C724.128 538.86 722.989 527.624 720.44 515.279C715.309 518.476 710.211 521.692 705.146 524.936C703.796 537.723 706.683 546.236 697.718 563.581C703.608 550.152 704.061 538.636 703.561 525.957C695.624 531.05 687.779 536.19 680 541.376C680.027 551.475 684.22 557.948 677.153 571.517C681.514 561.115 680.531 552.248 678.475 542.443L678.778 542.192C670.914 547.45 663.122 552.755 655.396 558.093C656.118 564.187 659.051 567.889 655.66 576.603C657.633 569.936 656.436 564.564 654.518 558.703C645.287 565.096 636.155 571.541 627.109 578.032Z" fill="url(#paint29_linear_10_1991)"/>
</g>
<g clip-path="url(#clip16_10_1991)">
<path d="M633.227 -28.5265C643.151 -34.2329 650.861 -33.4813 661.675 -33.2672C663.277 -33.1897 673.019 -32.47 673.574 -32.2301C674.988 -32.5227 677.583 -36.3867 678.913 -38.0122C682.229 -42.0549 693.35 -56.0429 696.514 -56.6705C696.869 -56.4408 697.303 -56.2509 697.567 -55.7533C698.035 -54.8562 697.82 -54.7701 697.371 -54.2988C697.315 -54.1334 688.242 -44.6009 687.359 -43.5933C683.491 -39.1208 679.5 -35.096 676.011 -30.2412L677.809 -25.1693L679.966 -18.9616C681.109 -14.8848 682.769 -10.9741 683.712 -6.89288C686.668 5.83808 684.916 10.5924 679.962 22.7435C679.285 23.9684 678.473 25.5179 677.687 26.6049C672.633 33.2613 668.734 38.1628 662.4 43.8248C660.931 45.1408 659.647 46.2619 658.07 47.5655C657.525 48.0203 656.821 48.4167 656.158 48.8695C647.05 55.1189 636.927 59.2103 626.505 62.8081C623.48 63.8499 620.397 64.7579 617.393 65.7996L612.853 67.084C609.009 68.0515 605.147 68.5503 601.456 69.9968C598.849 71.0171 597.534 72.8749 595.406 73.5953C595.107 71.476 596.735 69.2622 597.004 67.0082C597.283 64.6601 597.05 62.84 596.865 60.3334C595.977 48.5561 597.276 32.6118 599.051 21.3311C600.44 12.4761 602.841 5.16605 606.726 -1.52443C608.782 -5.06127 611.129 -8.43737 613.499 -11.4934C619.18 -18.8139 625.08 -23.8414 633.227 -28.5265Z" stroke="url(#paint30_linear_10_1991)" stroke-miterlimit="22.9256"/>
<path d="M595.751 72.8366C602.781 62.8025 609.868 52.8122 617.034 42.8721C610.996 42.1392 605.559 42.0353 599.474 45.2195C607.388 40.1937 611.575 42.3916 617.724 41.9149C622.948 34.685 628.213 27.4759 633.536 20.3106C623.975 17.471 615.233 15.7874 604.555 19.2831C618.544 13.3726 624.657 17.989 634.597 18.8801C639.479 12.316 643.769 6.69005 648.75 0.190662C641.174 1.11069 627.313 -5.9272 609.548 -2.56881C628.832 -7.51107 636.386 -2.48426 649.625 -1.0241C654.506 -7.38525 659.432 -13.713 664.422 -19.999C652.194 -23.6198 641.006 -25.7606 627.344 -21.286C645.279 -28.8609 653.134 -22.9578 665.858 -21.8066C675.208 -33.5533 684.762 -45.1663 694.563 -56.6039C696.114 -57.9681 698.307 -56.5397 696.889 -54.0332C686.215 -42.0588 675.865 -30.0116 665.808 -17.902C669.994 -6.12052 677.348 0.20179 674.318 19.1761C675.385 4.97098 670.748 -5.32635 664.423 -16.2304C660.568 -11.5739 656.75 -6.90898 652.972 -2.22951C655.738 10.328 661.171 17.4898 658.156 36.78C659.493 22.177 656.279 11.1099 651.792 -0.759071C645.874 6.58479 640.059 13.9432 634.321 21.3245C637.544 30.8954 643.569 35.7087 641.161 50.8174C642.005 39.5692 638.266 31.4699 633.212 22.8199L633.421 22.4849C627.625 29.9625 621.913 37.4609 616.274 44.9697C618.887 50.5219 622.841 53.1051 622.382 62.4444C622.144 55.4956 619.308 50.7787 615.634 45.8264C608.9 54.8118 602.277 63.8159 595.751 72.8366Z" fill="url(#paint31_linear_10_1991)"/>
</g>
<g clip-path="url(#clip17_10_1991)">
<path d="M117.227 760.04C127.151 765.746 134.861 764.994 145.675 764.78C147.277 764.703 157.019 763.983 157.574 763.743C158.988 764.036 161.583 767.9 162.913 769.525C166.229 773.568 177.35 787.556 180.514 788.184C180.869 787.954 181.303 787.764 181.567 787.266C182.035 786.369 181.82 786.283 181.371 785.812C181.315 785.647 172.242 776.114 171.359 775.106C167.491 770.634 163.5 766.609 160.011 761.754L161.809 756.682L163.966 750.475C165.109 746.398 166.769 742.487 167.712 738.406C170.668 725.675 168.916 720.921 163.962 708.77C163.285 707.545 162.473 705.995 161.687 704.908C156.633 698.252 152.734 693.35 146.4 687.688C144.931 686.372 143.647 685.251 142.07 683.948C141.525 683.493 140.821 683.097 140.158 682.644C131.05 676.394 120.927 672.303 110.505 668.705C107.48 667.663 104.397 666.755 101.393 665.714L96.8532 664.429C93.0089 663.462 89.1469 662.963 85.4562 661.516C82.8495 660.496 81.5342 658.638 79.4056 657.918C79.1065 660.037 80.7346 662.251 81.0038 664.505C81.2833 666.853 81.0496 668.673 80.8647 671.18C79.9773 682.957 81.2762 698.901 83.0508 710.182C84.4395 719.037 86.841 726.347 90.7259 733.038C92.7818 736.574 95.1287 739.951 97.4992 743.007C103.18 750.327 109.08 755.355 117.227 760.04Z" stroke="url(#paint32_linear_10_1991)" stroke-miterlimit="22.9256"/>
<path d="M79.7509 658.677C86.7812 668.711 93.868 678.701 101.034 688.641C94.9958 689.374 89.5586 689.478 83.4738 686.294C91.3881 691.32 95.5754 689.122 101.724 689.598C106.948 696.828 112.213 704.037 117.536 711.203C107.975 714.042 99.2334 715.726 88.5546 712.23C102.544 718.141 108.657 713.524 118.597 712.633C123.479 719.197 127.769 724.823 132.75 731.323C125.174 730.402 111.313 737.44 93.5476 734.082C112.832 739.024 120.386 733.997 133.625 732.537C138.506 738.898 143.432 745.226 148.422 751.512C136.194 755.133 125.006 757.274 111.344 752.799C129.279 760.374 137.134 754.471 149.858 753.32C159.208 765.066 168.762 776.68 178.563 788.117C180.114 789.481 182.307 788.053 180.889 785.546C170.215 773.572 159.865 761.525 149.808 749.415C153.994 737.634 161.348 731.311 158.318 712.337C159.385 726.542 154.748 736.84 148.423 747.744C144.568 743.087 140.75 738.422 136.972 733.743C139.738 721.185 145.171 714.023 142.156 694.733C143.493 709.336 140.279 720.403 135.792 732.272C129.874 724.928 124.059 717.57 118.321 710.189C121.544 700.618 127.569 695.804 125.161 680.696C126.005 691.944 122.266 700.043 117.212 708.693L117.421 709.028C111.625 701.551 105.913 694.052 100.274 686.543C102.887 680.991 106.841 678.408 106.382 669.069C106.144 676.018 103.308 680.734 99.6336 685.687C92.9001 676.701 86.2774 667.697 79.7509 658.677Z" fill="url(#paint33_linear_10_1991)"/>
</g>
<g clip-path="url(#clip18_10_1991)">
<path d="M604.639 784.299C596.222 792.059 588.536 793.031 577.943 795.213C576.364 795.492 566.703 796.944 566.109 796.833C564.795 797.431 563.119 801.773 562.181 803.653C559.841 808.329 552.089 824.43 549.142 825.741C548.744 825.596 548.28 825.507 547.912 825.08C547.257 824.308 547.448 824.177 547.781 823.618C547.799 823.444 554.54 812.141 555.178 810.963C557.962 805.746 560.963 800.939 563.293 795.432L560.418 790.884L556.941 785.307C554.925 781.584 552.441 778.137 550.619 774.365C544.921 762.603 545.578 757.579 547.723 744.633C548.112 743.289 548.562 741.598 549.088 740.364C552.544 732.755 555.262 727.113 560.188 720.19C561.33 718.582 562.333 717.205 563.584 715.585C564.014 715.021 564.613 714.478 565.16 713.89C572.66 705.781 581.628 699.552 590.996 693.739C593.716 692.054 596.522 690.487 599.221 688.807L603.365 686.55C606.9 684.756 610.556 683.416 613.835 681.189C616.152 679.618 617.024 677.515 618.94 676.342C619.701 678.342 618.602 680.861 618.838 683.119C619.085 685.471 619.715 687.194 620.45 689.598C623.92 700.887 626.179 716.724 626.943 728.118C627.547 737.061 626.821 744.721 624.512 752.105C623.289 756.009 621.747 759.82 620.111 763.325C616.189 771.721 611.548 777.928 604.639 784.299Z" stroke="url(#paint34_linear_10_1991)" stroke-miterlimit="22.9256"/>
<path d="M618.771 677.158C614.134 688.498 609.432 699.808 604.641 711.087C610.692 710.466 616.018 709.365 621.248 704.914C614.641 711.566 610.071 710.348 604.18 712.173C600.685 720.379 597.144 728.574 593.538 736.739C603.49 737.394 612.387 737.103 622.029 731.332C609.693 740.19 602.71 737.04 592.819 738.369C589.51 745.85 586.569 752.285 583.149 759.725C590.334 757.153 605.408 760.951 621.991 753.747C604.278 762.832 595.799 759.6 582.564 761.104C579.211 768.387 575.806 775.647 572.33 782.881C585.056 783.708 596.44 783.322 608.774 775.937C592.959 787.29 583.993 783.27 571.329 784.961C564.809 798.485 558.059 811.923 551.03 825.245C549.82 826.918 547.364 826.01 548.193 823.252C555.955 809.214 563.385 795.176 570.515 781.142C563.827 770.578 555.257 766.039 554.015 746.864C556.117 760.953 562.916 769.97 571.495 779.206C574.226 773.812 576.918 768.418 579.567 763.019C574.093 751.384 567.211 745.601 565.885 726.122C567.81 740.659 573.392 750.741 580.393 761.324C584.54 752.854 588.584 744.391 592.547 735.924C587.288 727.303 580.347 723.941 579.355 708.674C581.019 719.83 586.457 726.902 593.298 734.22L593.169 734.593C597.168 726.019 601.08 717.443 604.919 708.873C601.142 704.036 596.715 702.392 595.098 693.182C596.867 699.906 600.675 703.879 605.354 707.896C609.934 697.644 614.401 687.398 618.771 677.158Z" fill="url(#paint35_linear_10_1991)"/>
</g>
<g clip-path="url(#clip19_10_1991)">
<path d="M72.576 1.54222C70.6764 -9.74661 65.1962 -15.2229 58.1594 -23.437C57.082 -24.6243 50.3355 -31.6897 49.7979 -31.9654C49.1251 -33.2437 50.46 -37.7024 50.8698 -39.7625C51.8847 -44.8914 55.6187 -62.3673 54.0931 -65.2088C53.6896 -65.3376 53.2678 -65.5514 52.7155 -65.4393C51.7255 -65.2307 51.7957 -65.0099 51.7167 -64.364C51.6246 -64.2156 50.0297 -51.1521 49.8122 -49.8307C48.817 -44.0017 48.245 -38.3628 46.7135 -32.5836L41.6549 -30.7488L35.4907 -28.4701C31.6162 -26.7625 27.5421 -25.5588 23.7917 -23.6934C12.0826 -17.8869 9.52509 -13.5127 3.2907 -1.9659C2.77493 -0.664869 2.09451 0.946764 1.75452 2.24428C-0.174169 10.376 -1.48132 16.5012 -1.82799 24.9905C-1.91073 26.9609 -1.96099 28.6642 -1.96505 30.7107C-1.97011 31.4203 -1.82907 32.2155 -1.75692 33.0158C-0.795272 44.0193 2.47848 54.4361 6.3225 64.7693C7.44009 67.7669 8.69839 70.7248 9.80272 73.7062L11.6957 78.0277C13.3914 81.6109 15.4603 84.9099 16.6886 88.6789C17.5571 91.34 16.9584 93.536 17.7546 95.6375C19.5811 94.5217 20.256 91.8579 21.8254 90.2178C23.4609 88.5099 25.0148 87.5337 27.0677 86.0838C36.7256 79.2853 48.2117 68.1509 55.7945 59.6124C61.7496 52.9134 65.8681 46.414 68.5656 39.163C69.9902 35.328 71.1058 31.3706 71.9592 27.5983C74.0018 18.5598 74.1353 10.8101 72.576 1.54222Z" stroke="url(#paint36_linear_10_1991)" stroke-miterlimit="22.9256"/>
<path d="M18.1214 94.889C21.402 83.0845 24.6129 71.2643 27.7345 59.4144C32.1375 63.6114 35.6727 67.7438 37.0805 74.4656C35.9322 65.1609 31.5743 63.3243 28.0352 58.2735C30.2986 49.6458 32.5192 40.9991 34.6701 32.3367C42.9381 37.9148 49.7925 43.5945 53.879 54.0615C49.5536 39.5039 42.1044 37.7169 35.1005 30.6083C37.0667 22.6675 38.6845 15.7796 40.5382 7.80393C44.6417 14.2382 58.8838 20.469 67.5793 36.3207C59.1418 18.29 50.46 15.651 40.9199 6.35603C42.7305 -1.45459 44.486 -9.27954 46.1693 -17.1264C56.7351 -9.98554 65.4972 -2.70705 70.7233 10.6854C65.1762 -7.97623 55.6266 -10.2906 46.6523 -19.3843C49.7818 -34.0676 52.6777 -48.8243 55.2813 -63.6603C55.3495 -65.7242 52.8526 -66.5104 51.8185 -63.8224C49.355 -47.9715 46.6293 -32.3246 43.6694 -16.8642C31.9123 -12.6102 22.3573 -14.2715 9.63142 0.124884C19.9224 -9.7248 30.8198 -12.6879 43.2585 -14.7329C42.1128 -8.79688 40.9368 -2.88463 39.7243 3.0062C28.2702 8.84972 19.288 9.20549 6.30841 23.7908C16.7345 13.4791 27.3228 8.92888 39.3388 4.85182C37.4283 14.0875 35.4415 23.2534 33.3879 32.374C23.9502 35.9678 16.4045 34.3733 6.2687 45.8336C14.4174 38.0341 23.0476 35.7751 32.9378 34.1806L33.0642 33.8068C30.9732 43.0337 28.813 52.2092 26.5982 61.3348C20.6502 62.8445 16.143 61.4328 9.22362 67.7222C14.7403 63.4904 20.1845 62.6828 26.3434 62.3733C23.684 73.2822 20.9397 84.1175 18.1214 94.889Z" fill="url(#paint37_linear_10_1991)"/>
</g>
<g clip-path="url(#clip20_10_1991)">
<path d="M511.106 -3.45778C513.006 -14.7466 518.486 -20.2229 525.523 -28.437C526.6 -29.6243 533.347 -36.6897 533.884 -36.9654C534.557 -38.2437 533.222 -42.7024 532.812 -44.7625C531.797 -49.8914 528.063 -67.3673 529.589 -70.2088C529.993 -70.3376 530.414 -70.5514 530.967 -70.4393C531.957 -70.2307 531.886 -70.0099 531.965 -69.364C532.057 -69.2156 533.652 -56.1521 533.87 -54.8307C534.865 -49.0017 535.437 -43.3628 536.969 -37.5836L542.027 -35.7488L548.191 -33.4701C552.066 -31.7625 556.14 -30.5588 559.89 -28.6934C571.6 -22.8869 574.157 -18.5127 580.391 -6.9659C580.907 -5.66487 581.588 -4.05324 581.928 -2.75572C583.856 5.37602 585.163 11.5012 585.51 19.9905C585.593 21.9609 585.643 23.6642 585.647 25.7107C585.652 26.4203 585.511 27.2155 585.439 28.0158C584.477 39.0193 581.204 49.4361 577.36 59.7693C576.242 62.7669 574.984 65.7248 573.879 68.7062L571.986 73.0277C570.291 76.6109 568.222 79.9099 566.994 83.6789C566.125 86.34 566.724 88.536 565.927 90.6375C564.101 89.5217 563.426 86.8579 561.857 85.2178C560.221 83.5099 558.667 82.5337 556.614 81.0838C546.956 74.2853 535.47 63.1509 527.888 54.6124C521.933 47.9134 517.814 41.414 515.116 34.163C513.692 30.328 512.576 26.3706 511.723 22.5983C509.68 13.5598 509.547 5.81009 511.106 -3.45778Z" stroke="url(#paint38_linear_10_1991)" stroke-miterlimit="22.9256"/>
<path d="M565.561 89.889C562.28 78.0845 559.069 66.2643 555.948 54.4144C551.545 58.6114 548.009 62.7438 546.602 69.4656C547.75 60.1609 552.108 58.3243 555.647 53.2735C553.384 44.6458 551.163 35.9991 549.012 27.3367C540.744 32.9148 533.89 38.5945 529.803 49.0615C534.129 34.5039 541.578 32.7169 548.582 25.6083C546.615 17.6675 544.998 10.7796 543.144 2.80393C539.04 9.23819 524.798 15.469 516.103 31.3207C524.54 13.29 533.222 10.651 542.762 1.35603C540.952 -6.45459 539.196 -14.2795 537.513 -22.1264C526.947 -14.9855 518.185 -7.70705 512.959 5.68539C518.506 -12.9762 528.056 -15.2906 537.03 -24.3843C533.9 -39.0676 531.004 -53.8243 528.401 -68.6603C528.333 -70.7242 530.829 -71.5104 531.864 -68.8224C534.327 -52.9715 537.053 -37.3246 540.013 -21.8642C551.77 -17.6102 561.325 -19.2715 574.051 -4.87512C563.76 -14.7248 552.862 -17.6879 540.424 -19.7329C541.569 -13.7969 542.745 -7.88463 543.958 -1.9938C555.412 3.84972 564.394 4.20549 577.374 18.7908C566.948 8.47906 556.359 3.92888 544.343 -0.148182C546.254 9.08753 548.241 18.2534 550.294 27.374C559.732 30.9678 567.278 29.3733 577.413 40.8336C569.265 33.0341 560.635 30.7751 550.744 29.1806L550.618 28.8068C552.709 38.0337 554.869 47.2092 557.084 56.3348C563.032 57.8445 567.539 56.4328 574.459 62.7222C568.942 58.4904 563.498 57.6828 557.339 57.3733C559.998 68.2822 562.742 79.1175 565.561 89.889Z" fill="url(#paint39_linear_10_1991)"/>
</g>
<g clip-path="url(#clip21_10_1991)">
<path d="M476.576 11.5422C474.676 0.253386 469.196 -5.22294 462.159 -13.437C461.082 -14.6243 454.336 -21.6897 453.798 -21.9654C453.125 -23.2437 454.46 -27.7024 454.87 -29.7625C455.885 -34.8914 459.619 -52.3673 458.093 -55.2088C457.69 -55.3376 457.268 -55.5514 456.716 -55.4393C455.725 -55.2307 455.796 -55.0099 455.717 -54.364C455.625 -54.2156 454.03 -41.1521 453.812 -39.8307C452.817 -34.0017 452.245 -28.3628 450.714 -22.5836L445.655 -20.7488L439.491 -18.4701C435.616 -16.7625 431.542 -15.5588 427.792 -13.6934C416.083 -7.88686 413.525 -3.51267 407.291 8.0341C406.775 9.33513 406.095 10.9468 405.755 12.2443C403.826 20.376 402.519 26.5012 402.172 34.9905C402.089 36.9609 402.039 38.6642 402.035 40.7107C402.03 41.4203 402.171 42.2155 402.243 43.0158C403.205 54.0193 406.478 64.4361 410.323 74.7693C411.44 77.7669 412.698 80.7248 413.803 83.7062L415.696 88.0277C417.391 91.6109 419.46 94.9099 420.689 98.6789C421.557 101.34 420.958 103.536 421.755 105.637C423.581 104.522 424.256 101.858 425.825 100.218C427.461 98.5099 429.015 97.5337 431.068 96.0838C440.726 89.2853 452.212 78.1509 459.795 69.6124C465.75 62.9134 469.868 56.414 472.566 49.163C473.99 45.328 475.106 41.3706 475.959 37.5983C478.002 28.5598 478.135 20.8101 476.576 11.5422Z" stroke="url(#paint40_linear_10_1991)" stroke-miterlimit="22.9256"/>
<path d="M422.121 104.889C425.402 93.0845 428.613 81.2643 431.735 69.4144C436.138 73.6114 439.673 77.7438 441.08 84.4656C439.932 75.1609 435.574 73.3243 432.035 68.2735C434.299 59.6458 436.519 50.9991 438.67 42.3367C446.938 47.9148 453.793 53.5945 457.879 64.0615C453.554 49.5039 446.104 47.7169 439.1 40.6083C441.067 32.6675 442.685 25.7796 444.538 17.8039C448.642 24.2382 462.884 30.469 471.579 46.3207C463.142 28.29 454.46 25.651 444.92 16.356C446.73 8.54541 448.486 0.72046 450.169 -7.12643C460.735 0.0144606 469.497 7.29295 474.723 20.6854C469.176 2.02377 459.627 -0.290593 450.652 -9.38433C453.782 -24.0676 456.678 -38.8243 459.281 -53.6603C459.349 -55.7242 456.853 -56.5104 455.819 -53.8224C453.355 -37.9715 450.629 -22.3246 447.669 -6.86419C435.912 -2.61016 426.357 -4.27146 413.631 10.1249C423.922 0.275198 434.82 -2.68785 447.258 -4.7329C446.113 1.20312 444.937 7.11537 443.724 13.0062C432.27 18.8497 423.288 19.2055 410.308 33.7908C420.735 23.4791 431.323 18.9289 443.339 14.8518C441.428 24.0875 439.442 33.2534 437.388 42.374C427.95 45.9678 420.405 44.3733 410.269 55.8336C418.417 48.0341 427.048 45.7751 436.938 44.1806L437.064 43.8068C434.973 53.0337 432.813 62.2092 430.598 71.3348C424.65 72.8445 420.143 71.4328 413.224 77.7222C418.74 73.4904 424.185 72.6828 430.343 72.3733C427.684 83.2822 424.94 94.1175 422.121 104.889Z" fill="url(#paint41_linear_10_1991)"/>
</g>
<g clip-path="url(#clip22_10_1991)">
<path d="M277.576 -12.4578C275.676 -23.7466 270.196 -29.2229 263.159 -37.437C262.082 -38.6243 255.336 -45.6897 254.798 -45.9654C254.125 -47.2437 255.46 -51.7024 255.87 -53.7625C256.885 -58.8914 260.619 -76.3673 259.093 -79.2088C258.69 -79.3376 258.268 -79.5514 257.716 -79.4393C256.725 -79.2307 256.796 -79.0099 256.717 -78.364C256.625 -78.2156 255.03 -65.1521 254.812 -63.8307C253.817 -58.0017 253.245 -52.3628 251.714 -46.5836L246.655 -44.7488L240.491 -42.4701C236.616 -40.7625 232.542 -39.5588 228.792 -37.6934C217.083 -31.8869 214.525 -27.5127 208.291 -15.9659C207.775 -14.6649 207.095 -13.0532 206.755 -11.7557C204.826 -3.62398 203.519 2.50116 203.172 10.9905C203.089 12.9609 203.039 14.6642 203.035 16.7107C203.03 17.4203 203.171 18.2155 203.243 19.0158C204.205 30.0193 207.478 40.4361 211.323 50.7693C212.44 53.7669 213.698 56.7248 214.803 59.7062L216.696 64.0277C218.391 67.6109 220.46 70.9099 221.689 74.6789C222.557 77.34 221.958 79.536 222.755 81.6375C224.581 80.5217 225.256 77.8579 226.825 76.2178C228.461 74.5099 230.015 73.5337 232.068 72.0838C241.726 65.2853 253.212 54.1509 260.795 45.6124C266.75 38.9134 270.868 32.414 273.566 25.163C274.99 21.328 276.106 17.3706 276.959 13.5983C279.002 4.55981 279.135 -3.18991 277.576 -12.4578Z" stroke="url(#paint42_linear_10_1991)" stroke-miterlimit="22.9256"/>
<path d="M223.121 80.889C226.402 69.0845 229.613 57.2643 232.735 45.4144C237.138 49.6114 240.673 53.7438 242.08 60.4656C240.932 51.1609 236.574 49.3243 233.035 44.2735C235.299 35.6458 237.519 26.9991 239.67 18.3367C247.938 23.9148 254.793 29.5945 258.879 40.0615C254.554 25.5039 247.104 23.7169 240.1 16.6083C242.067 8.66745 243.685 1.77964 245.538 -6.19607C249.642 0.238186 263.884 6.46899 272.579 22.3207C264.142 4.28998 255.46 1.65096 245.92 -7.64397C247.73 -15.4546 249.486 -23.2795 251.169 -31.1264C261.735 -23.9855 270.497 -16.707 275.723 -3.31461C270.176 -21.9762 260.627 -24.2906 251.652 -33.3843C254.782 -48.0676 257.678 -62.8243 260.281 -77.6603C260.349 -79.7242 257.853 -80.5104 256.819 -77.8224C254.355 -61.9715 251.629 -46.3246 248.669 -30.8642C236.912 -26.6102 227.357 -28.2715 214.631 -13.8751C224.922 -23.7248 235.82 -26.6879 248.258 -28.7329C247.113 -22.7969 245.937 -16.8846 244.724 -10.9938C233.27 -5.15028 224.288 -4.79451 211.308 9.7908C221.735 -0.520942 232.323 -5.07112 244.339 -9.14818C242.428 0.0875338 240.442 9.25336 238.388 18.374C228.95 21.9678 221.405 20.3733 211.269 31.8336C219.417 24.0341 228.048 21.7751 237.938 20.1806L238.064 19.8068C235.973 29.0337 233.813 38.2092 231.598 47.3348C225.65 48.8445 221.143 47.4328 214.224 53.7222C219.74 49.4904 225.185 48.6828 231.343 48.3733C228.684 59.2822 225.94 70.1175 223.121 80.889Z" fill="url(#paint43_linear_10_1991)"/>
</g>
<g clip-path="url(#clip23_10_1991)">
<path d="M256.598 797.04C246.674 802.746 238.963 801.994 228.149 801.78C226.548 801.703 216.805 800.983 216.25 800.743C214.836 801.036 212.241 804.9 210.911 806.525C207.596 810.568 196.474 824.556 193.311 825.184C192.955 824.954 192.522 824.764 192.257 824.266C191.789 823.369 192.004 823.283 192.453 822.812C192.509 822.647 201.583 813.114 202.465 812.106C206.333 807.634 210.324 803.609 213.813 798.754L212.016 793.682L209.858 787.475C208.715 783.398 207.055 779.487 206.113 775.406C203.156 762.675 204.908 757.921 209.863 745.77C210.539 744.545 211.352 742.995 212.137 741.908C217.191 735.252 221.09 730.35 227.425 724.688C228.894 723.372 230.177 722.251 231.754 720.948C232.299 720.493 233.003 720.097 233.667 719.644C242.774 713.394 252.898 709.303 263.319 705.705C266.344 704.663 269.427 703.755 272.431 702.714L276.971 701.429C280.815 700.462 284.677 699.963 288.368 698.516C290.975 697.496 292.29 695.638 294.419 694.918C294.718 697.037 293.09 699.251 292.82 701.505C292.541 703.853 292.775 705.673 292.959 708.18C293.847 719.957 292.548 735.901 290.773 747.182C289.385 756.037 286.983 763.347 283.098 770.038C281.042 773.574 278.696 776.951 276.325 780.007C270.644 787.327 264.745 792.355 256.598 797.04Z" stroke="url(#paint44_linear_10_1991)" stroke-miterlimit="22.9256"/>
<path d="M294.073 695.677C287.043 705.711 279.956 715.701 272.79 725.641C278.828 726.374 284.266 726.478 290.35 723.294C282.436 728.32 278.249 726.122 272.1 726.598C266.876 733.828 261.611 741.037 256.289 748.203C265.85 751.042 274.591 752.726 285.27 749.23C271.28 755.141 265.167 750.524 255.228 749.633C250.345 756.197 246.055 761.823 241.074 768.323C248.65 767.402 262.511 774.44 280.277 771.082C260.993 776.024 253.438 770.997 240.199 769.537C235.318 775.898 230.392 782.226 225.402 788.512C237.63 792.133 248.818 794.274 262.48 789.799C244.545 797.374 236.69 791.471 223.966 790.32C214.617 802.066 205.062 813.68 195.261 825.117C193.711 826.481 191.517 825.053 192.935 822.546C203.609 810.572 213.959 798.525 224.016 786.415C219.83 774.634 212.476 768.311 215.506 749.337C214.439 763.542 219.076 773.84 225.401 784.744C229.256 780.087 233.074 775.422 236.853 770.743C234.086 758.185 228.653 751.023 231.668 731.733C230.331 746.336 233.545 757.403 238.033 769.272C243.95 761.928 249.765 754.57 255.503 747.189C252.281 737.618 246.255 732.804 248.663 717.696C247.819 728.944 251.558 737.043 256.612 745.693L256.403 746.028C262.199 738.551 267.912 731.052 273.551 723.543C270.937 717.991 266.983 715.408 267.442 706.069C267.68 713.018 270.516 717.734 274.191 722.687C280.924 713.701 287.547 704.697 294.073 695.677Z" fill="url(#paint45_linear_10_1991)"/>
</g>
<g clip-path="url(#clip24_10_1991)">
<path d="M344.629 810.604C352.423 818.988 360.012 820.548 370.406 823.539C371.959 823.939 381.479 826.13 382.08 826.064C383.344 826.762 384.681 831.22 385.472 833.166C387.445 838.008 393.936 854.658 396.773 856.192C397.181 856.078 397.651 856.024 398.05 855.627C398.762 854.908 398.582 854.763 398.293 854.18C398.288 854.005 392.437 842.217 391.892 840.994C389.518 835.578 386.895 830.554 384.996 824.885L388.212 820.57L392.107 815.277C394.404 811.721 397.145 808.475 399.252 804.854C405.839 793.566 405.569 788.506 404.427 775.433C404.142 774.063 403.824 772.343 403.395 771.072C400.534 763.22 398.257 757.385 393.878 750.104C392.864 748.413 391.969 746.962 390.847 745.251C390.461 744.655 389.906 744.069 389.406 743.44C382.552 734.779 374.089 727.878 365.196 721.362C362.614 719.473 359.937 717.694 357.375 715.811L353.418 713.243C350.031 711.182 346.489 709.565 343.39 707.092C341.201 705.347 340.494 703.184 338.673 701.866C337.761 703.803 338.662 706.399 338.254 708.632C337.827 710.957 337.066 712.627 336.148 714.967C331.82 725.956 328.35 741.572 326.712 752.874C325.422 761.744 325.556 769.437 327.29 776.977C328.209 780.963 329.454 784.882 330.815 788.502C334.08 797.174 338.23 803.72 344.629 810.604Z" stroke="url(#paint46_linear_10_1991)" stroke-miterlimit="22.9256"/>
<path d="M338.779 702.693C342.53 714.357 346.348 725.995 350.257 737.609C344.272 736.525 339.047 735.017 334.175 730.177C340.25 737.317 344.9 736.455 350.634 738.727C353.488 747.178 356.388 755.621 359.355 764.039C349.382 763.926 340.533 762.952 331.365 756.457C342.982 766.237 350.187 763.633 359.946 765.719C362.67 773.433 365.107 780.075 367.944 787.756C360.979 784.638 345.657 787.266 329.677 778.808C346.64 789.228 355.342 786.658 368.422 789.175C371.205 796.695 374.041 804.195 376.951 811.675C364.199 811.521 352.878 810.26 341.149 801.948C356.044 814.485 365.293 811.166 377.789 813.827C383.249 827.811 388.945 841.729 394.929 855.552C396.007 857.313 398.525 856.597 397.911 853.783C391.252 839.19 384.924 824.622 378.894 810.081C386.375 800.063 395.269 796.196 397.981 777.174C394.802 791.06 387.33 799.527 378.066 808.075C375.758 802.487 373.489 796.903 371.263 791.316C377.616 780.136 384.922 774.9 387.743 755.58C384.705 769.926 378.364 779.549 370.57 789.562C367.087 780.798 363.706 772.05 360.405 763.302C366.312 755.111 373.491 752.293 375.654 737.148C373.137 748.143 367.172 754.776 359.788 761.546L359.888 761.928C356.56 753.071 353.319 744.22 350.151 735.38C354.288 730.848 358.829 729.549 361.15 720.491C358.869 727.059 354.766 730.727 349.792 734.372C346.015 723.799 342.348 713.24 338.779 702.693Z" fill="url(#paint47_linear_10_1991)"/>
</g>
</g>
<defs>
<linearGradient id="paint0_linear_10_1991" x1="80.9407" y1="690.244" x2="-49.9253" y2="734.109" gradientUnits="userSpaceOnUse">
<stop offset="0.322917" stop-color="#00BD8D"/>
<stop offset="1" stop-color="#00392D"/>
</linearGradient>
<linearGradient id="paint1_linear_10_1991" x1="80.6133" y1="691.056" x2="-49.5019" y2="734.67" gradientUnits="userSpaceOnUse">
<stop offset="0.322917" stop-color="#00BD8D"/>
<stop offset="1" stop-color="#00392D"/>
</linearGradient>
<linearGradient id="paint2_linear_10_1991" x1="538.272" y1="726.698" x2="421.195" y2="799.793" gradientUnits="userSpaceOnUse">
<stop offset="0.322917" stop-color="#00BD8D"/>
<stop offset="1" stop-color="#00392D"/>
</linearGradient>
<linearGradient id="paint3_linear_10_1991" x1="538.142" y1="727.563" x2="421.737" y2="800.239" gradientUnits="userSpaceOnUse">
<stop offset="0.322917" stop-color="#00BD8D"/>
<stop offset="1" stop-color="#00392D"/>
</linearGradient>
<linearGradient id="paint4_linear_10_1991" x1="625.883" y1="671.244" x2="756.749" y2="715.109" gradientUnits="userSpaceOnUse">
<stop offset="0.322917" stop-color="#00BD8D"/>
<stop offset="1" stop-color="#00392D"/>
</linearGradient>
<linearGradient id="paint5_linear_10_1991" x1="626.21" y1="672.056" x2="756.326" y2="715.67" gradientUnits="userSpaceOnUse">
<stop offset="0.322917" stop-color="#00BD8D"/>
<stop offset="1" stop-color="#00392D"/>
</linearGradient>
<linearGradient id="paint6_linear_10_1991" x1="75.4147" y1="388.41" x2="-54.3716" y2="341.447" gradientUnits="userSpaceOnUse">
<stop offset="0.322917" stop-color="#00BD8D"/>
<stop offset="1" stop-color="#00392D"/>
</linearGradient>
<linearGradient id="paint7_linear_10_1991" x1="74.6536" y1="388.843" x2="-54.3881" y2="342.149" gradientUnits="userSpaceOnUse">
<stop offset="0.322917" stop-color="#00BD8D"/>
<stop offset="1" stop-color="#00392D"/>
</linearGradient>
<linearGradient id="paint8_linear_10_1991" x1="77.4147" y1="618.41" x2="-52.3716" y2="571.447" gradientUnits="userSpaceOnUse">
<stop offset="0.322917" stop-color="#00BD8D"/>
<stop offset="1" stop-color="#00392D"/>
</linearGradient>
<linearGradient id="paint9_linear_10_1991" x1="76.6536" y1="618.843" x2="-52.3881" y2="572.149" gradientUnits="userSpaceOnUse">
<stop offset="0.322917" stop-color="#00BD8D"/>
<stop offset="1" stop-color="#00392D"/>
</linearGradient>
<linearGradient id="paint10_linear_10_1991" x1="636.406" y1="452.41" x2="766.192" y2="405.447" gradientUnits="userSpaceOnUse">
<stop offset="0.322917" stop-color="#00BD8D"/>
<stop offset="1" stop-color="#00392D"/>
</linearGradient>
<linearGradient id="paint11_linear_10_1991" x1="637.167" y1="452.843" x2="766.208" y2="406.149" gradientUnits="userSpaceOnUse">
<stop offset="0.322917" stop-color="#00BD8D"/>
<stop offset="1" stop-color="#00392D"/>
</linearGradient>
<linearGradient id="paint12_linear_10_1991" x1="621.406" y1="338.41" x2="751.192" y2="291.447" gradientUnits="userSpaceOnUse">
<stop offset="0.322917" stop-color="#00BD8D"/>
<stop offset="1" stop-color="#00392D"/>
</linearGradient>
<linearGradient id="paint13_linear_10_1991" x1="622.167" y1="338.843" x2="751.208" y2="292.149" gradientUnits="userSpaceOnUse">
<stop offset="0.322917" stop-color="#00BD8D"/>
<stop offset="1" stop-color="#00392D"/>
</linearGradient>
<linearGradient id="paint14_linear_10_1991" x1="622.409" y1="139.41" x2="752.195" y2="92.4467" gradientUnits="userSpaceOnUse">
<stop offset="0.322917" stop-color="#00BD8D"/>
<stop offset="1" stop-color="#00392D"/>
</linearGradient>
<linearGradient id="paint15_linear_10_1991" x1="623.17" y1="139.843" x2="752.212" y2="93.1491" gradientUnits="userSpaceOnUse">
<stop offset="0.322917" stop-color="#00BD8D"/>
<stop offset="1" stop-color="#00392D"/>
</linearGradient>
<linearGradient id="paint16_linear_10_1991" x1="399.539" y1="37.121" x2="265.984" y2="2.2909" gradientUnits="userSpaceOnUse">
<stop offset="0.322917" stop-color="#00BD8D"/>
<stop offset="1" stop-color="#00392D"/>
</linearGradient>
<linearGradient id="paint17_linear_10_1991" x1="399.157" y1="36.3336" x2="266.368" y2="1.7033" gradientUnits="userSpaceOnUse">
<stop offset="0.322917" stop-color="#00BD8D"/>
<stop offset="1" stop-color="#00392D"/>
</linearGradient>
<linearGradient id="paint18_linear_10_1991" x1="192.941" y1="44.2689" x2="62.0752" y2="0.403742" gradientUnits="userSpaceOnUse">
<stop offset="0.322917" stop-color="#00BD8D"/>
<stop offset="1" stop-color="#00392D"/>
</linearGradient>
<linearGradient id="paint19_linear_10_1991" x1="192.614" y1="43.4569" x2="62.4986" y2="-0.156553" gradientUnits="userSpaceOnUse">
<stop offset="0.322917" stop-color="#00BD8D"/>
<stop offset="1" stop-color="#00392D"/>
</linearGradient>
<linearGradient id="paint20_linear_10_1991" x1="78.4152" y1="177.41" x2="-51.3711" y2="130.447" gradientUnits="userSpaceOnUse">
<stop offset="0.322917" stop-color="#00BD8D"/>
<stop offset="1" stop-color="#00392D"/>
</linearGradient>
<linearGradient id="paint21_linear_10_1991" x1="77.6541" y1="177.843" x2="-51.3876" y2="131.149" gradientUnits="userSpaceOnUse">
<stop offset="0.322917" stop-color="#00BD8D"/>
<stop offset="1" stop-color="#00392D"/>
</linearGradient>
<linearGradient id="paint22_linear_10_1991" x1="87.9412" y1="245.244" x2="-42.9248" y2="289.109" gradientUnits="userSpaceOnUse">
<stop offset="0.322917" stop-color="#00BD8D"/>
<stop offset="1" stop-color="#00392D"/>
</linearGradient>
<linearGradient id="paint23_linear_10_1991" x1="87.6138" y1="246.056" x2="-42.5014" y2="289.67" gradientUnits="userSpaceOnUse">
<stop offset="0.322917" stop-color="#00BD8D"/>
<stop offset="1" stop-color="#00392D"/>
</linearGradient>
<linearGradient id="paint24_linear_10_1991" x1="74.9412" y1="468.244" x2="-55.9248" y2="512.109" gradientUnits="userSpaceOnUse">
<stop offset="0.322917" stop-color="#00BD8D"/>
<stop offset="1" stop-color="#00392D"/>
</linearGradient>
<linearGradient id="paint25_linear_10_1991" x1="74.6138" y1="469.056" x2="-55.5014" y2="512.67" gradientUnits="userSpaceOnUse">
<stop offset="0.322917" stop-color="#00BD8D"/>
<stop offset="1" stop-color="#00392D"/>
</linearGradient>
<linearGradient id="paint26_linear_10_1991" x1="609.478" y1="210.947" x2="747.5" y2="210.756" gradientUnits="userSpaceOnUse">
<stop offset="0.322917" stop-color="#00BD8D"/>
<stop offset="1" stop-color="#00392D"/>
</linearGradient>
<linearGradient id="paint27_linear_10_1991" x1="610.045" y1="210.28" x2="747.275" y2="210.09" gradientUnits="userSpaceOnUse">
<stop offset="0.322917" stop-color="#00BD8D"/>
<stop offset="1" stop-color="#00392D"/>
</linearGradient>
<linearGradient id="paint28_linear_10_1991" x1="626.478" y1="532.947" x2="764.5" y2="532.756" gradientUnits="userSpaceOnUse">
<stop offset="0.322917" stop-color="#00BD8D"/>
<stop offset="1" stop-color="#00392D"/>
</linearGradient>
<linearGradient id="paint29_linear_10_1991" x1="627.045" y1="532.281" x2="764.275" y2="532.091" gradientUnits="userSpaceOnUse">
<stop offset="0.322917" stop-color="#00BD8D"/>
<stop offset="1" stop-color="#00392D"/>
</linearGradient>
<linearGradient id="paint30_linear_10_1991" x1="580.883" y1="30.2689" x2="711.749" y2="-13.5963" gradientUnits="userSpaceOnUse">
<stop offset="0.322917" stop-color="#00BD8D"/>
<stop offset="1" stop-color="#00392D"/>
</linearGradient>
<linearGradient id="paint31_linear_10_1991" x1="581.21" y1="29.4569" x2="711.326" y2="-14.1566" gradientUnits="userSpaceOnUse">
<stop offset="0.322917" stop-color="#00BD8D"/>
<stop offset="1" stop-color="#00392D"/>
</linearGradient>
<linearGradient id="paint32_linear_10_1991" x1="64.883" y1="701.244" x2="195.749" y2="745.109" gradientUnits="userSpaceOnUse">
<stop offset="0.322917" stop-color="#00BD8D"/>
<stop offset="1" stop-color="#00392D"/>
</linearGradient>
<linearGradient id="paint33_linear_10_1991" x1="65.2104" y1="702.056" x2="195.326" y2="745.67" gradientUnits="userSpaceOnUse">
<stop offset="0.322917" stop-color="#00BD8D"/>
<stop offset="1" stop-color="#00392D"/>
</linearGradient>
<linearGradient id="paint34_linear_10_1991" x1="642.684" y1="715.384" x2="524.759" y2="787.103" gradientUnits="userSpaceOnUse">
<stop offset="0.322917" stop-color="#00BD8D"/>
<stop offset="1" stop-color="#00392D"/>
</linearGradient>
<linearGradient id="paint35_linear_10_1991" x1="642.545" y1="716.248" x2="525.296" y2="787.555" gradientUnits="userSpaceOnUse">
<stop offset="0.322917" stop-color="#00BD8D"/>
<stop offset="1" stop-color="#00392D"/>
</linearGradient>
<linearGradient id="paint36_linear_10_1991" x1="60.4376" y1="79.3202" x2="11.1519" y2="-49.6022" gradientUnits="userSpaceOnUse">
<stop offset="0.322917" stop-color="#00BD8D"/>
<stop offset="1" stop-color="#00392D"/>
</linearGradient>
<linearGradient id="paint37_linear_10_1991" x1="60.8568" y1="78.5517" x2="11.8539" y2="-49.631" gradientUnits="userSpaceOnUse">
<stop offset="0.322917" stop-color="#00BD8D"/>
<stop offset="1" stop-color="#00392D"/>
</linearGradient>
<linearGradient id="paint38_linear_10_1991" x1="523.245" y1="74.3202" x2="572.53" y2="-54.6022" gradientUnits="userSpaceOnUse">
<stop offset="0.322917" stop-color="#00BD8D"/>
<stop offset="1" stop-color="#00392D"/>
</linearGradient>
<linearGradient id="paint39_linear_10_1991" x1="522.825" y1="73.5517" x2="571.828" y2="-54.631" gradientUnits="userSpaceOnUse">
<stop offset="0.322917" stop-color="#00BD8D"/>
<stop offset="1" stop-color="#00392D"/>
</linearGradient>
<linearGradient id="paint40_linear_10_1991" x1="464.438" y1="89.3202" x2="415.152" y2="-39.6022" gradientUnits="userSpaceOnUse">
<stop offset="0.322917" stop-color="#00BD8D"/>
<stop offset="1" stop-color="#00392D"/>
</linearGradient>
<linearGradient id="paint41_linear_10_1991" x1="464.857" y1="88.5517" x2="415.854" y2="-39.631" gradientUnits="userSpaceOnUse">
<stop offset="0.322917" stop-color="#00BD8D"/>
<stop offset="1" stop-color="#00392D"/>
</linearGradient>
<linearGradient id="paint42_linear_10_1991" x1="265.438" y1="65.3202" x2="216.152" y2="-63.6022" gradientUnits="userSpaceOnUse">
<stop offset="0.322917" stop-color="#00BD8D"/>
<stop offset="1" stop-color="#00392D"/>
</linearGradient>
<linearGradient id="paint43_linear_10_1991" x1="265.857" y1="64.5517" x2="216.854" y2="-63.631" gradientUnits="userSpaceOnUse">
<stop offset="0.322917" stop-color="#00BD8D"/>
<stop offset="1" stop-color="#00392D"/>
</linearGradient>
<linearGradient id="paint44_linear_10_1991" x1="308.941" y1="738.244" x2="178.075" y2="782.109" gradientUnits="userSpaceOnUse">
<stop offset="0.322917" stop-color="#00BD8D"/>
<stop offset="1" stop-color="#00392D"/>
</linearGradient>
<linearGradient id="paint45_linear_10_1991" x1="308.614" y1="739.056" x2="178.499" y2="782.67" gradientUnits="userSpaceOnUse">
<stop offset="0.322917" stop-color="#00BD8D"/>
<stop offset="1" stop-color="#00392D"/>
</linearGradient>
<linearGradient id="paint46_linear_10_1991" x1="311.996" y1="738.967" x2="424.056" y2="819.543" gradientUnits="userSpaceOnUse">
<stop offset="0.322917" stop-color="#00BD8D"/>
<stop offset="1" stop-color="#00392D"/>
</linearGradient>
<linearGradient id="paint47_linear_10_1991" x1="312.069" y1="739.839" x2="423.486" y2="819.954" gradientUnits="userSpaceOnUse">
<stop offset="0.322917" stop-color="#00BD8D"/>
<stop offset="1" stop-color="#00392D"/>
</linearGradient>
<clipPath id="clip0_10_1991">
<rect width="700" height="763" rx="30" fill="white"/>
</clipPath>
<clipPath id="clip1_10_1991">
<rect width="93" height="139.5" fill="white" transform="matrix(-0.317812 -0.948154 -0.948154 0.317812 96.8237 733.178)"/>
</clipPath>
<clipPath id="clip2_10_1991">
<rect width="93" height="139.5" fill="white" transform="matrix(-0.529592 -0.848252 -0.848252 0.529592 563.704 764.761)"/>
</clipPath>
<clipPath id="clip3_10_1991">
<rect width="93" height="139.5" fill="white" transform="translate(610 714.178) rotate(-71.4693)"/>
</clipPath>
<clipPath id="clip4_10_1991">
<rect width="93" height="139.5" fill="white" transform="matrix(0.340263 -0.94033 -0.94033 -0.340263 61.1758 431.917)"/>
</clipPath>
<clipPath id="clip5_10_1991">
<rect width="93" height="139.5" fill="white" transform="matrix(0.340263 -0.94033 -0.94033 -0.340263 63.1758 661.917)"/>
</clipPath>
<clipPath id="clip6_10_1991">
<rect width="93" height="139.5" fill="white" transform="translate(650.645 495.917) rotate(-109.893)"/>
</clipPath>
<clipPath id="clip7_10_1991">
<rect width="93" height="139.5" fill="white" transform="translate(635.645 381.917) rotate(-109.893)"/>
</clipPath>
<clipPath id="clip8_10_1991">
<rect width="93" height="139.5" fill="white" transform="translate(636.648 182.917) rotate(-109.893)"/>
</clipPath>
<clipPath id="clip9_10_1991">
<rect width="93" height="139.5" fill="white" transform="translate(412.454 -6.79688) rotate(104.617)"/>
</clipPath>
<clipPath id="clip10_10_1991">
<rect width="93" height="139.5" fill="white" transform="translate(208.824 1.33496) rotate(108.531)"/>
</clipPath>
<clipPath id="clip11_10_1991">
<rect width="93" height="139.5" fill="white" transform="matrix(0.340263 -0.94033 -0.94033 -0.340263 64.1763 220.917)"/>
</clipPath>
<clipPath id="clip12_10_1991">
<rect width="93" height="139.5" fill="white" transform="matrix(-0.317812 -0.948154 -0.948154 0.317812 103.824 288.178)"/>
</clipPath>
<clipPath id="clip13_10_1991">
<rect width="93" height="139.5" fill="white" transform="matrix(-0.317812 -0.948154 -0.948154 0.317812 90.8242 511.178)"/>
</clipPath>
<clipPath id="clip14_10_1991">
<rect width="93" height="139.5" fill="white" transform="matrix(0.00138374 0.999999 0.999999 -0.00138374 608 165.193)"/>
</clipPath>
<clipPath id="clip15_10_1991">
<rect width="93" height="139.5" fill="white" transform="matrix(0.00138374 0.999999 0.999999 -0.00138374 625 487.193)"/>
</clipPath>
<clipPath id="clip16_10_1991">
<rect width="93" height="139.5" fill="white" transform="matrix(0.317812 0.948154 0.948154 -0.317812 565 -12.665)"/>
</clipPath>
<clipPath id="clip17_10_1991">
<rect width="93" height="139.5" fill="white" transform="translate(49 744.178) rotate(-71.4693)"/>
</clipPath>
<clipPath id="clip18_10_1991">
<rect width="93" height="139.5" fill="white" transform="matrix(-0.519617 -0.854399 -0.854399 0.519617 667.668 753.743)"/>
</clipPath>
<clipPath id="clip19_10_1991">
<rect width="93" height="139.5" fill="white" transform="translate(103.682 64.3027) rotate(159.079)"/>
</clipPath>
<clipPath id="clip20_10_1991">
<rect width="93" height="139.5" fill="white" transform="matrix(0.934071 0.357086 0.357086 -0.934071 480 59.3027)"/>
</clipPath>
<clipPath id="clip21_10_1991">
<rect width="93" height="139.5" fill="white" transform="translate(507.682 74.3027) rotate(159.079)"/>
</clipPath>
<clipPath id="clip22_10_1991">
<rect width="93" height="139.5" fill="white" transform="translate(308.682 50.3027) rotate(159.079)"/>
</clipPath>
<clipPath id="clip23_10_1991">
<rect width="93" height="139.5" fill="white" transform="matrix(-0.317812 -0.948154 -0.948154 0.317812 324.824 781.178)"/>
</clipPath>
<clipPath id="clip24_10_1991">
<rect width="93" height="139.5" fill="white" transform="translate(284.136 775.29) rotate(-54.2819)"/>
</clipPath>
</defs>
</svg>
