<svg width="700" height="754" viewBox="0 0 700 754" fill="none" xmlns="http://www.w3.org/2000/svg">
<g clip-path="url(#clip0_1_5)">
<path d="M28.5975 747.04C18.6736 752.746 10.9628 751.994 0.148851 751.78C-1.45253 751.703 -11.1951 750.983 -11.7496 750.743C-13.1642 751.036 -15.7588 754.9 -17.0891 756.525C-20.4045 760.568 -31.5259 774.556 -34.6895 775.184C-35.0453 774.954 -35.4784 774.764 -35.7428 774.266C-36.2108 773.369 -35.9957 773.283 -35.5472 772.812C-35.4911 772.646 -26.4175 763.114 -25.5353 762.106C-21.6668 757.634 -17.6762 753.609 -14.1868 748.754L-15.9845 743.682L-18.1419 737.475C-19.2854 733.398 -20.9448 729.487 -21.8875 725.406C-24.8443 712.675 -23.0918 707.921 -18.1374 695.77C-17.4606 694.545 -16.6485 692.995 -15.8627 691.908C-10.8092 685.252 -6.91027 680.35 -0.575495 674.688C0.893433 673.372 2.17671 672.251 3.75436 670.948C4.29902 670.493 5.00266 670.096 5.66648 669.644C14.774 663.394 24.8976 659.303 35.3191 655.705C38.3439 654.663 41.4274 653.755 44.4312 652.713L48.971 651.429C52.8153 650.462 56.6773 649.963 60.368 648.516C62.9747 647.496 64.2899 645.638 66.4185 644.918C66.7176 647.037 65.0895 649.251 64.8203 651.505C64.5408 653.853 64.7745 655.673 64.9594 658.18C65.8469 669.957 64.5479 685.901 62.7733 697.182C61.3846 706.037 58.9831 713.347 55.0983 720.037C53.0423 723.574 50.6955 726.95 48.325 730.006C42.6437 737.327 36.7445 742.354 28.5975 747.04Z" stroke="url(#paint0_linear_1_5)" stroke-miterlimit="22.9256"/>
<path d="M66.0733 645.676C59.043 655.711 51.9562 665.701 44.7899 675.641C50.8284 676.374 56.2656 676.478 62.3505 673.293C54.4362 678.319 50.2488 676.121 44.0999 676.598C38.8763 683.828 33.6107 691.037 28.2887 698.202C37.8496 701.042 46.5908 702.726 57.2696 699.23C43.2804 705.14 37.1671 700.524 27.2276 699.633C22.3454 706.197 18.0549 711.823 13.0743 718.322C20.6501 717.402 34.5111 724.44 52.2766 721.082C32.9926 726.024 25.4381 720.997 12.1989 719.537C7.31834 725.898 2.39174 732.226 -2.59765 738.512C9.63008 742.133 20.818 744.274 34.4798 739.799C16.5453 747.374 8.69016 741.471 -4.03421 740.32C-13.3834 752.066 -22.9377 763.679 -32.739 775.117C-34.2894 776.481 -36.483 775.053 -35.0646 772.546C-24.3906 760.572 -14.0407 748.525 -3.98368 736.415C-8.16973 724.634 -15.5241 718.311 -12.4943 699.337C-13.5605 713.542 -8.92389 723.839 -2.59909 734.743C1.25647 730.087 5.0744 725.422 8.85257 720.743C6.08638 708.185 0.653472 701.023 3.66801 681.733C2.33081 696.336 5.54546 707.403 10.0327 719.272C15.9501 711.928 21.7651 704.57 27.5027 697.189C24.2807 687.618 18.2547 682.804 20.6633 667.696C19.8188 678.944 23.5583 687.043 28.6117 695.693L28.4034 696.028C34.1993 688.551 39.9116 681.052 45.5507 673.543C42.9368 667.991 38.9828 665.408 39.4423 656.069C39.6802 663.017 42.5161 667.734 46.1906 672.687C52.9241 663.701 59.5468 654.697 66.0733 645.676Z" fill="url(#paint1_linear_1_5)"/>
</g>
<g clip-path="url(#clip1_1_5)">
<path d="M501.036 794.054C492.711 801.912 485.037 802.974 474.47 805.28C472.894 805.577 463.252 807.143 462.656 807.039C461.349 807.652 459.724 812.014 458.808 813.904C456.524 818.607 448.96 834.797 446.029 836.144C445.63 836.003 445.164 835.919 444.791 835.496C444.128 834.733 444.317 834.599 444.643 834.036C444.659 833.862 451.268 822.481 451.891 821.296C454.614 816.047 457.559 811.204 459.824 805.671L456.896 801.156L453.354 795.62C451.294 791.921 448.77 788.504 446.904 784.754C441.068 773.059 441.667 768.028 443.66 755.058C444.033 753.709 444.463 752.013 444.974 750.773C448.341 743.124 450.993 737.45 455.838 730.47C456.96 728.849 457.948 727.46 459.179 725.825C459.603 725.256 460.195 724.707 460.735 724.112C468.14 715.916 477.035 709.583 486.334 703.66C489.033 701.943 491.821 700.343 494.5 698.632L498.617 696.327C502.131 694.492 505.771 693.108 509.024 690.843C511.322 689.245 512.169 687.132 514.072 685.936C514.856 687.928 513.787 690.46 514.049 692.715C514.324 695.063 514.974 696.779 515.737 699.174C519.339 710.422 521.783 726.231 522.681 737.616C523.389 746.551 522.754 754.219 520.531 761.629C519.354 765.547 517.857 769.377 516.262 772.9C512.439 781.341 507.87 787.603 501.036 794.054Z" stroke="url(#paint2_linear_1_5)" stroke-miterlimit="22.9256"/>
<path d="M513.913 686.755C509.409 698.149 504.839 709.513 500.181 720.847C506.224 720.156 511.537 718.992 516.714 714.48C510.186 721.209 505.602 720.045 499.732 721.938C496.333 730.185 492.889 738.421 489.379 746.627C499.338 747.166 508.231 746.77 517.804 740.887C505.573 749.889 498.554 746.821 488.679 748.265C485.458 755.785 482.593 762.254 479.26 769.734C486.414 767.077 501.532 770.699 518.03 763.301C500.424 772.592 491.907 769.46 478.691 771.119C475.424 778.441 472.104 785.741 468.713 793.014C481.448 793.693 492.827 793.173 505.073 785.644C489.392 797.182 480.38 793.267 467.736 795.107C461.375 808.705 454.783 822.222 447.911 835.625C446.72 837.313 444.254 836.433 445.051 833.666C452.648 819.537 459.912 805.414 466.877 791.297C460.066 780.812 451.443 776.374 449.978 757.215C452.244 771.278 459.148 780.215 467.835 789.35C470.502 783.924 473.131 778.499 475.717 773.069C470.107 761.499 463.157 755.797 461.603 736.335C463.699 750.849 469.399 760.865 476.523 771.365C480.57 762.846 484.515 754.337 488.379 745.824C483.019 737.265 476.039 733.985 474.868 718.73C476.662 729.866 482.183 736.874 489.109 744.112L488.985 744.486C492.883 735.866 496.695 727.244 500.433 718.63C496.6 713.838 492.153 712.245 490.428 703.055C492.276 709.758 496.131 713.686 500.856 717.648C505.316 707.343 509.663 697.046 513.913 686.755Z" fill="url(#paint3_linear_1_5)"/>
</g>
<g clip-path="url(#clip2_1_5)">
<path d="M672.227 584.04C682.15 589.746 689.861 588.994 700.675 588.78C702.277 588.703 712.019 587.983 712.574 587.743C713.988 588.036 716.583 591.9 717.913 593.525C721.229 597.568 732.35 611.556 735.513 612.184C735.869 611.954 736.302 611.764 736.567 611.266C737.035 610.369 736.82 610.283 736.371 609.812C736.315 609.646 727.241 600.114 726.359 599.106C722.491 594.634 718.5 590.609 715.011 585.754L716.809 580.682L718.966 574.475C720.109 570.398 721.769 566.487 722.712 562.406C725.668 549.675 723.916 544.921 718.961 532.77C718.285 531.545 717.473 529.995 716.687 528.908C711.633 522.252 707.734 517.35 701.4 511.688C699.931 510.372 698.647 509.251 697.07 507.948C696.525 507.493 695.821 507.096 695.158 506.644C686.05 500.394 675.926 496.303 665.505 492.705C662.48 491.663 659.397 490.755 656.393 489.713L651.853 488.429C648.009 487.462 644.147 486.963 640.456 485.516C637.849 484.496 636.534 482.638 634.406 481.918C634.106 484.037 635.734 486.251 636.004 488.505C636.283 490.853 636.05 492.673 635.865 495.18C634.977 506.957 636.276 522.901 638.051 534.182C639.439 543.037 641.841 550.347 645.726 557.037C647.782 560.574 650.129 563.95 652.499 567.006C658.18 574.327 664.08 579.354 672.227 584.04Z" stroke="url(#paint4_linear_1_5)" stroke-miterlimit="22.9256"/>
<path d="M634.751 482.676C641.781 492.711 648.868 502.701 656.034 512.641C649.996 513.374 644.558 513.478 638.474 510.293C646.388 515.319 650.575 513.121 656.724 513.598C661.948 520.828 667.213 528.037 672.535 535.202C662.974 538.042 654.233 539.726 643.554 536.23C657.544 542.14 663.657 537.524 673.596 536.633C678.479 543.197 682.769 548.823 687.75 555.322C680.174 554.402 666.313 561.44 648.547 558.082C667.831 563.024 675.386 557.997 688.625 556.537C693.506 562.898 698.432 569.226 703.422 575.512C691.194 579.133 680.006 581.274 666.344 576.799C684.279 584.374 692.134 578.471 704.858 577.32C714.207 589.066 723.762 600.679 733.563 612.117C735.113 613.481 737.307 612.053 735.889 609.546C725.215 597.572 714.865 585.525 704.808 573.415C708.994 561.634 716.348 555.311 713.318 536.337C714.385 550.542 709.748 560.839 703.423 571.743C699.568 567.087 695.75 562.422 691.971 557.743C694.738 545.185 700.171 538.023 697.156 518.733C698.493 533.336 695.279 544.403 690.791 556.272C684.874 548.928 679.059 541.57 673.321 534.189C676.543 524.618 682.569 519.804 680.161 504.696C681.005 515.944 677.266 524.043 672.212 532.693L672.421 533.028C666.625 525.551 660.912 518.052 655.273 510.543C657.887 504.991 661.841 502.408 661.382 493.069C661.144 500.017 658.308 504.734 654.633 509.687C647.9 500.701 641.277 491.697 634.751 482.676Z" fill="url(#paint5_linear_1_5)"/>
</g>
<g clip-path="url(#clip3_1_5)">
<path d="M3.3692 441.741C-7.95191 440.044 -13.5257 434.663 -21.8647 427.775C-23.0712 426.719 -30.2566 420.1 -30.5419 419.568C-31.832 418.918 -36.2661 420.333 -38.3185 420.779C-43.4283 421.886 -60.8343 425.933 -63.7029 424.459C-63.8389 424.058 -64.0602 423.64 -63.958 423.086C-63.7672 422.092 -63.5451 422.158 -62.9009 422.068C-62.7541 421.973 -49.7214 420.144 -48.404 419.903C-42.5938 418.803 -36.9661 418.13 -31.2153 416.495L-29.4716 411.404L-27.3039 405.2C-25.6661 401.296 -24.5358 397.2 -22.738 393.417C-17.1425 381.606 -12.815 378.97 -1.38196 372.53C-0.0903949 371.99 1.50876 371.281 2.79997 370.918C10.8958 368.844 16.9965 367.427 25.4782 366.928C27.4468 366.81 29.1489 366.729 31.1951 366.688C31.9044 366.67 32.702 366.797 33.5035 366.855C44.5225 367.619 54.9964 370.705 65.397 374.363C68.4141 375.427 71.3941 376.632 74.3948 377.682L78.7496 379.497C82.3627 381.128 85.6983 383.138 89.4887 384.298C92.165 385.119 94.3499 384.481 96.4653 385.239C95.3825 387.085 92.7312 387.808 91.1195 389.407C89.4413 391.072 88.4932 392.644 87.0803 394.722C80.4563 404.501 69.5298 416.185 61.1289 423.92C54.5378 429.994 48.1134 434.228 40.9119 437.056C37.1032 438.549 33.1664 439.735 29.4101 440.656C20.4096 442.861 12.6636 443.133 3.3692 441.741Z" stroke="url(#paint6_linear_1_5)" stroke-miterlimit="22.9256"/>
<path d="M95.7233 385.619C83.9796 389.111 72.2189 392.534 60.427 395.867C64.7023 400.194 68.8975 403.655 75.6435 404.942C66.3197 403.961 64.4052 399.636 59.2917 396.188C50.706 398.606 42.1006 400.982 33.4781 403.288C39.2037 411.454 45.0056 418.206 55.5443 422.104C40.9114 418.04 38.9909 410.624 31.7578 403.749C23.8535 405.858 16.9958 407.599 9.05465 409.595C15.5615 413.583 22.047 427.711 38.0522 436.12C19.8729 428.008 17.0785 419.375 7.61384 410.003C-0.163024 411.953 -7.95521 413.849 -15.7706 415.673C-8.44123 426.109 -1.00664 434.739 12.4774 439.724C-6.28074 434.513 -8.76613 425.006 -18.0195 416.196C-32.6442 419.589 -47.3466 422.749 -62.1334 425.619C-64.1958 425.724 -65.0267 423.242 -62.3577 422.159C-46.5536 419.412 -30.9581 416.406 -15.5533 413.169C-11.511 401.337 -13.3435 391.814 0.822097 378.831C-8.84129 389.298 -11.6083 400.246 -13.4297 412.72C-7.51522 411.468 -1.62503 410.186 4.24308 408.868C9.88007 397.311 10.0746 388.323 24.4246 375.084C14.3016 385.694 9.94222 396.362 6.08149 408.449C15.2814 406.373 24.4101 404.222 33.4924 402.005C36.9162 392.504 35.1866 384.989 46.4631 374.649C38.8111 382.936 36.7073 391.605 35.2906 401.523L34.9192 401.656C44.107 399.4 53.2423 397.075 62.3267 394.697C63.7293 388.723 62.2371 384.242 68.4012 377.21C64.2691 382.802 63.5594 388.26 63.3604 394.423C74.2199 391.569 85.0041 388.63 95.7233 385.619Z" fill="url(#paint7_linear_1_5)"/>
</g>
<g clip-path="url(#clip4_1_5)">
<path d="M3.86749 537.943C-7.45362 536.246 -13.0274 530.865 -21.3664 523.977C-22.5729 522.921 -29.7583 516.303 -30.0436 515.77C-31.3337 515.12 -35.7678 516.535 -37.8202 516.982C-42.9301 518.088 -60.3361 522.135 -63.2046 520.661C-63.3406 520.26 -63.5619 519.842 -63.4597 519.288C-63.2689 518.294 -63.0469 518.361 -62.4026 518.27C-62.2558 518.175 -49.2231 516.346 -47.9057 516.105C-42.0955 515.005 -36.4678 514.332 -30.717 512.697L-28.9733 507.606L-26.8056 501.402C-25.1679 497.498 -24.0375 493.403 -22.2397 489.619C-16.6443 477.808 -12.3167 475.172 -0.883667 468.732C0.407896 468.193 2.00706 467.484 3.29826 467.12C11.3941 465.046 17.4948 463.629 25.9765 463.13C27.9451 463.012 29.6472 462.931 31.6934 462.89C32.4027 462.873 33.2003 462.999 34.0018 463.057C45.0208 463.821 55.4947 466.907 65.8952 470.565C68.9124 471.629 71.8924 472.834 74.8931 473.885L79.2479 475.7C82.861 477.331 86.1966 479.34 89.987 480.501C92.6633 481.321 94.8482 480.683 96.9636 481.442C95.8808 483.288 93.2295 484.01 91.6178 485.609C89.9396 487.275 88.9915 488.846 87.5786 490.925C80.9546 500.703 70.0281 512.387 61.6272 520.122C55.0361 526.196 48.6117 530.431 41.4102 533.258C37.6014 534.751 33.6647 535.938 29.9084 536.859C20.9079 539.063 13.1619 539.336 3.86749 537.943Z" stroke="url(#paint8_linear_1_5)" stroke-miterlimit="22.9256"/>
<path d="M96.2216 481.821C84.4779 485.313 72.7172 488.736 60.9253 492.07C65.2006 496.397 69.3958 499.857 76.1418 501.144C66.818 500.163 64.9035 495.839 59.7899 492.391C51.2043 494.809 42.5989 497.184 33.9764 499.49C39.702 507.657 45.5039 514.408 56.0426 518.306C41.4097 514.243 39.4892 506.827 32.2561 499.952C24.3518 502.06 17.4941 503.801 9.55294 505.798C16.0598 509.785 22.5452 523.913 38.5505 532.323C20.3712 524.21 17.5768 515.577 8.11213 506.205C0.335267 508.156 -7.45692 510.051 -15.2723 511.875C-7.94294 522.311 -0.508353 530.941 12.9757 535.926C-5.78244 530.715 -8.26784 521.208 -17.5212 512.399C-32.1459 515.791 -46.8483 518.952 -61.6351 521.821C-63.6975 521.926 -64.5284 519.444 -61.8594 518.362C-46.0553 515.614 -30.4598 512.608 -15.055 509.371C-11.0127 497.54 -12.8452 488.016 1.32039 475.034C-8.343 485.5 -11.11 496.449 -12.9314 508.922C-7.01693 507.67 -1.12674 506.388 4.74138 505.07C10.3784 493.513 10.5729 484.526 24.9228 471.286C14.7999 481.896 10.4405 492.564 6.57978 504.651C15.7797 502.576 24.9084 500.425 33.9907 498.207C37.4145 488.707 35.6848 481.191 46.9614 470.851C39.3094 479.138 37.2056 487.808 35.7889 497.725L35.4175 497.858C44.6053 495.602 53.7406 493.277 62.825 490.899C64.2276 484.925 62.7353 480.444 68.8995 473.413C64.7674 479.004 64.0577 484.462 63.8587 490.626C74.7182 487.771 85.5024 484.833 96.2216 481.821Z" fill="url(#paint9_linear_1_5)"/>
</g>
<g clip-path="url(#clip5_1_5)">
<path d="M713.953 467.943C725.274 466.246 730.848 460.865 739.187 453.977C740.393 452.921 747.579 446.303 747.864 445.77C749.154 445.12 753.588 446.535 755.641 446.982C760.751 448.089 778.157 452.136 781.025 450.661C781.161 450.26 781.382 449.842 781.28 449.288C781.089 448.294 780.867 448.361 780.223 448.27C780.076 448.175 767.044 446.346 765.726 446.105C759.916 445.005 754.288 444.332 748.538 442.697L746.794 437.607L744.626 431.402C742.988 427.498 741.858 423.403 740.06 419.62C734.465 407.808 730.137 405.173 718.704 398.732C717.413 398.193 715.813 397.484 714.522 397.12C706.426 395.046 700.326 393.629 691.844 393.13C689.875 393.012 688.173 392.931 686.127 392.89C685.418 392.873 684.62 392.999 683.819 393.057C672.8 393.821 662.326 396.907 651.925 400.565C648.908 401.629 645.928 402.834 642.927 403.885L638.573 405.7C634.96 407.331 631.624 409.34 627.834 410.501C625.157 411.321 622.972 410.683 620.857 411.442C621.94 413.288 624.591 414.01 626.203 415.609C627.881 417.275 628.829 418.846 630.242 420.925C636.866 430.703 647.792 442.387 656.193 450.122C662.784 456.196 669.209 460.431 676.41 463.258C680.219 464.751 684.156 465.938 687.912 466.859C696.913 469.063 704.659 469.336 713.953 467.943Z" stroke="url(#paint10_linear_1_5)" stroke-miterlimit="22.9256"/>
<path d="M621.599 411.821C633.343 415.313 645.103 418.736 656.895 422.07C652.62 426.397 648.425 429.857 641.679 431.144C651.003 430.163 652.917 425.839 658.031 422.391C666.616 424.809 675.222 427.184 683.844 429.49C678.119 437.657 672.317 444.408 661.778 448.306C676.411 444.243 678.331 436.827 685.564 429.952C693.469 432.06 700.326 433.801 708.268 435.798C701.761 439.785 695.275 453.913 679.27 462.323C697.449 454.21 700.244 445.577 709.708 436.205C717.485 438.156 725.277 440.052 733.093 441.875C725.763 452.311 718.329 460.941 704.845 465.926C723.603 460.715 726.088 451.208 735.342 442.399C749.966 445.791 764.669 448.952 779.456 451.821C781.518 451.926 782.349 449.444 779.68 448.362C763.876 445.614 748.28 442.608 732.876 439.371C728.833 427.54 730.666 418.016 716.5 405.034C726.164 415.5 728.931 426.449 730.752 438.922C724.837 437.67 718.947 436.388 713.079 435.07C707.442 423.513 707.248 414.526 692.898 401.287C703.021 411.896 707.38 422.564 711.241 434.652C702.041 432.576 692.912 430.425 683.83 428.208C680.406 418.707 682.136 411.191 670.859 400.851C678.511 409.139 680.615 417.808 682.032 427.725L682.403 427.858C673.215 425.602 664.08 423.277 654.996 420.899C653.593 414.925 655.085 410.444 648.921 403.413C653.053 409.005 653.763 414.462 653.962 420.626C643.102 417.771 632.318 414.833 621.599 411.821Z" fill="url(#paint11_linear_1_5)"/>
</g>
<g clip-path="url(#clip6_1_5)">
<path d="M698.953 353.943C710.274 352.246 715.848 346.865 724.187 339.977C725.393 338.921 732.579 332.303 732.864 331.77C734.154 331.12 738.588 332.535 740.641 332.982C745.751 334.089 763.157 338.136 766.025 336.661C766.161 336.26 766.382 335.842 766.28 335.288C766.089 334.294 765.867 334.361 765.223 334.27C765.076 334.175 752.044 332.346 750.726 332.105C744.916 331.005 739.288 330.332 733.537 328.697L731.794 323.607L729.626 317.402C727.988 313.498 726.858 309.403 725.06 305.62C719.465 293.808 715.137 291.173 703.704 284.732C702.413 284.193 700.813 283.484 699.522 283.12C691.426 281.046 685.326 279.629 676.844 279.13C674.875 279.012 673.173 278.931 671.127 278.89C670.418 278.873 669.62 278.999 668.819 279.057C657.8 279.821 647.326 282.907 636.925 286.565C633.908 287.629 630.928 288.834 627.927 289.885L623.573 291.7C619.96 293.331 616.624 295.34 612.833 296.501C610.157 297.321 607.972 296.683 605.857 297.442C606.94 299.288 609.591 300.01 611.203 301.609C612.881 303.275 613.829 304.846 615.242 306.925C621.866 316.703 632.792 328.387 641.193 336.122C647.784 342.196 654.209 346.431 661.41 349.258C665.219 350.751 669.156 351.938 672.912 352.859C681.913 355.063 689.659 355.336 698.953 353.943Z" stroke="url(#paint12_linear_1_5)" stroke-miterlimit="22.9256"/>
<path d="M606.599 297.821C618.343 301.313 630.103 304.736 641.895 308.07C637.62 312.397 633.425 315.857 626.679 317.144C636.002 316.163 637.917 311.839 643.031 308.391C651.616 310.809 660.222 313.184 668.844 315.49C663.118 323.657 657.317 330.408 646.778 334.306C661.411 330.243 663.331 322.827 670.564 315.952C678.469 318.06 685.326 319.801 693.268 321.798C686.761 325.785 680.275 339.913 664.27 348.323C682.449 340.21 685.244 331.577 694.708 322.205C702.485 324.156 710.277 326.052 718.093 327.875C710.763 338.311 703.329 346.941 689.845 351.926C708.603 346.715 711.088 337.208 720.342 328.399C734.966 331.791 749.669 334.952 764.456 337.821C766.518 337.926 767.349 335.444 764.68 334.362C748.876 331.614 733.28 328.608 717.875 325.371C713.833 313.54 715.666 304.016 701.5 291.034C711.163 301.5 713.93 312.449 715.752 324.922C709.837 323.67 703.947 322.388 698.079 321.07C692.442 309.513 692.248 300.526 677.898 287.287C688.021 297.896 692.38 308.564 696.241 320.652C687.041 318.576 677.912 316.425 668.83 314.208C665.406 304.707 667.136 297.191 655.859 286.851C663.511 295.139 665.615 303.808 667.032 313.725L667.403 313.858C658.215 311.602 649.08 309.277 639.996 306.899C638.593 300.925 640.085 296.444 633.921 289.413C638.053 295.005 638.763 300.462 638.962 306.626C628.102 303.771 617.318 300.833 606.599 297.821Z" fill="url(#paint13_linear_1_5)"/>
</g>
<g clip-path="url(#clip7_1_5)">
<path d="M675.528 702.328C686.003 706.945 693.59 705.376 704.32 704.012C705.904 703.764 715.514 702.011 716.04 701.713C717.478 701.853 720.469 705.419 721.965 706.893C725.692 710.56 738.24 723.284 741.453 723.571C741.782 723.304 742.193 723.07 742.402 722.547C742.772 721.605 742.549 721.542 742.053 721.121C741.98 720.963 731.942 712.451 730.958 711.543C726.635 707.508 722.238 703.931 718.251 699.476L719.499 694.241L720.983 687.839C721.685 683.664 722.919 679.598 723.421 675.44C725.005 662.467 722.756 657.926 716.536 646.372C715.732 645.226 714.76 643.772 713.862 642.775C708.129 636.694 703.73 632.236 696.828 627.281C695.227 626.129 693.832 625.151 692.124 624.023C691.534 623.629 690.792 623.31 690.084 622.93C680.363 617.686 669.861 614.697 659.115 612.229C655.997 611.516 652.834 610.941 649.736 610.226L645.086 609.432C641.16 608.88 637.267 608.795 633.443 607.75C630.743 607.013 629.237 605.306 627.044 604.816C626.972 606.956 628.827 608.983 629.335 611.196C629.863 613.501 629.824 615.335 629.907 617.847C630.279 629.652 633.269 645.367 636.236 656.395C638.56 665.052 641.726 672.064 646.302 678.303C648.723 681.601 651.416 684.708 654.098 687.494C660.527 694.167 666.928 698.538 675.528 702.328Z" stroke="url(#paint14_linear_1_5)" stroke-miterlimit="22.9256"/>
<path d="M627.468 605.534C635.527 614.762 643.638 623.941 651.822 633.061C645.896 634.433 640.501 635.115 634.111 632.597C642.516 636.752 646.445 634.12 652.61 633.939C658.574 640.571 664.578 647.179 670.633 653.736C661.429 657.578 652.917 660.183 641.926 657.845C656.465 662.232 662.052 656.99 671.84 655.046C677.394 661.052 682.259 666.189 687.904 672.121C680.273 672.013 667.241 680.488 649.218 679.041C668.919 681.901 675.895 676.098 688.904 673.236C694.434 679.041 700.007 684.808 705.637 690.526C693.865 695.429 682.969 698.75 668.908 695.756C687.547 701.377 694.729 694.671 707.258 692.171C717.805 702.855 728.542 713.384 739.506 723.712C741.193 724.904 743.222 723.25 741.545 720.908C729.656 710.139 718.082 699.263 706.792 688.294C709.699 676.133 716.338 669.064 711.304 650.52C713.878 664.531 710.364 675.263 705.237 686.779C700.908 682.56 696.614 678.328 692.359 674.078C693.772 661.297 698.411 653.597 693.359 634.738C696.244 649.115 694.227 660.462 691.029 672.741C684.363 666.07 677.797 659.373 671.306 652.644C673.49 642.785 678.969 637.357 674.965 622.591C677.003 633.685 674.147 642.136 670.044 651.276L670.287 651.587C663.728 644.769 657.249 637.922 650.842 631.056C652.85 625.257 656.506 622.267 655.054 613.03C655.558 619.965 653.241 624.957 650.115 630.273C642.462 622.056 634.918 613.808 627.468 605.534Z" fill="url(#paint15_linear_1_5)"/>
</g>
<g clip-path="url(#clip8_1_5)">
<path d="M18.8675 199.943C7.54638 198.246 1.97257 192.865 -6.36643 185.977C-7.57289 184.921 -14.7583 178.303 -15.0436 177.77C-16.3337 177.12 -20.7678 178.535 -22.8202 178.982C-27.9301 180.089 -45.3361 184.136 -48.2046 182.661C-48.3406 182.26 -48.5619 181.842 -48.4597 181.288C-48.2689 180.294 -48.0469 180.361 -47.4026 180.27C-47.2558 180.175 -34.2231 178.346 -32.9057 178.105C-27.0955 177.005 -21.4678 176.332 -15.717 174.697L-13.9733 169.607L-11.8056 163.402C-10.1679 159.498 -9.03747 155.403 -7.23972 151.62C-1.64425 139.808 2.68332 137.173 14.1163 130.732C15.4079 130.193 17.0071 129.484 18.2983 129.12C26.3941 127.046 32.4948 125.629 40.9765 125.13C42.9451 125.012 44.6472 124.931 46.6934 124.89C47.4027 124.873 48.2003 124.999 49.0018 125.057C60.0208 125.821 70.4947 128.907 80.8952 132.565C83.9124 133.629 86.8924 134.834 89.8931 135.885L94.2479 137.7C97.861 139.331 101.197 141.34 104.987 142.501C107.663 143.321 109.848 142.683 111.964 143.442C110.881 145.288 108.23 146.01 106.618 147.609C104.94 149.275 103.991 150.846 102.579 152.925C95.9546 162.703 85.0281 174.387 76.6272 182.122C70.0361 188.196 63.6117 192.431 56.4102 195.258C52.6014 196.751 48.6647 197.938 44.9084 198.859C35.9079 201.063 28.1619 201.336 18.8675 199.943Z" stroke="url(#paint16_linear_1_5)" stroke-miterlimit="22.9256"/>
<path d="M111.222 143.821C99.4779 147.313 87.7172 150.736 75.9253 154.07C80.2006 158.397 84.3958 161.857 91.1418 163.144C81.818 162.163 79.9035 157.839 74.7899 154.391C66.2043 156.809 57.5989 159.184 48.9764 161.49C54.702 169.657 60.5039 176.408 71.0426 180.306C56.4097 176.243 54.4892 168.827 47.2561 161.952C39.3518 164.06 32.4941 165.801 24.5529 167.798C31.0598 171.785 37.5452 185.913 53.5505 194.323C35.3712 186.21 32.5768 177.577 23.1121 168.205C15.3353 170.156 7.54308 172.052 -0.272333 173.875C7.05706 184.311 14.4916 192.941 27.9757 197.926C9.21756 192.715 6.73216 183.208 -2.5212 174.399C-17.1459 177.791 -31.8483 180.952 -46.6351 183.821C-48.6975 183.926 -49.5284 181.444 -46.8594 180.362C-31.0553 177.614 -15.4598 174.608 -0.0550025 171.371C3.98732 159.54 2.15478 150.016 16.3204 137.034C6.657 147.5 3.89003 158.449 2.06857 170.922C7.98307 169.67 13.8733 168.388 19.7414 167.07C25.3784 155.513 25.5729 146.526 39.9228 133.287C29.7999 143.896 25.4405 154.564 21.5798 166.652C30.7797 164.576 39.9084 162.425 48.9907 160.208C52.4145 150.707 50.6848 143.191 61.9614 132.851C54.3094 141.139 52.2056 149.808 50.7889 159.725L50.4175 159.858C59.6053 157.602 68.7406 155.277 77.825 152.899C79.2276 146.925 77.7353 142.444 83.8995 135.413C79.7674 141.005 79.0577 146.462 78.8587 152.626C89.7182 149.771 100.502 146.833 111.222 143.821Z" fill="url(#paint17_linear_1_5)"/>
</g>
<g clip-path="url(#clip9_1_5)">
<path d="M699.956 154.943C711.278 153.246 716.851 147.865 725.19 140.977C726.397 139.921 733.582 133.303 733.868 132.77C735.158 132.12 739.592 133.535 741.644 133.982C746.754 135.089 764.16 139.136 767.029 137.661C767.165 137.26 767.386 136.842 767.284 136.288C767.093 135.294 766.871 135.361 766.227 135.27C766.08 135.175 753.047 133.346 751.73 133.105C745.92 132.005 740.292 131.332 734.541 129.697L732.797 124.607L730.63 118.402C728.992 114.498 727.861 110.403 726.064 106.62C720.468 94.8081 716.141 92.1725 704.708 85.7319C703.416 85.1929 701.817 84.4836 700.526 84.1204C692.43 82.0461 686.329 80.6292 677.848 80.1302C675.879 80.0121 674.177 79.9313 672.131 79.8905C671.421 79.8727 670.624 79.9994 669.822 80.0572C658.803 80.8212 648.329 83.9074 637.929 87.5654C634.912 88.629 631.932 89.834 628.931 90.8846L624.576 92.6997C620.963 94.3308 617.627 96.3402 613.837 97.5006C611.161 98.3212 608.976 97.6832 606.86 98.4416C607.943 100.288 610.594 101.01 612.206 102.609C613.884 104.275 614.832 105.846 616.245 107.925C622.869 117.703 633.796 129.387 642.197 137.122C648.788 143.196 655.212 147.431 662.414 150.258C666.223 151.751 670.159 152.938 673.916 153.859C682.916 156.063 690.662 156.336 699.956 154.943Z" stroke="url(#paint18_linear_1_5)" stroke-miterlimit="22.9256"/>
<path d="M607.602 98.8215C619.346 102.313 631.107 105.736 642.899 109.07C638.623 113.397 634.428 116.857 627.682 118.144C637.006 117.163 638.921 112.839 644.034 109.391C652.62 111.809 661.225 114.184 669.848 116.49C664.122 124.657 658.32 131.408 647.781 135.306C662.414 131.243 664.335 123.827 671.568 116.952C679.472 119.06 686.33 120.801 694.271 122.798C687.764 126.785 681.279 140.913 665.273 149.323C683.453 141.21 686.247 132.577 695.712 123.205C703.489 125.156 711.281 127.052 719.096 128.875C711.767 139.311 704.332 147.941 690.848 152.926C709.606 147.715 712.092 138.208 721.345 129.399C735.97 132.791 750.672 135.952 765.459 138.821C767.521 138.926 768.352 136.444 765.683 135.362C749.879 132.614 734.284 129.608 718.879 126.371C714.837 114.54 716.669 105.016 702.504 92.0338C712.167 102.5 714.934 113.449 716.755 125.922C710.841 124.67 704.951 123.388 699.083 122.07C693.446 110.513 693.251 101.526 678.901 88.2865C689.024 98.8961 693.383 109.564 697.244 121.652C688.044 119.576 678.916 117.425 669.833 115.208C666.409 105.707 668.139 98.1911 656.863 87.8512C664.515 96.1386 666.618 104.808 668.035 114.725L668.407 114.858C659.219 112.602 650.083 110.277 640.999 107.899C639.596 101.925 641.089 97.4439 634.924 90.4128C639.057 96.0045 639.766 101.462 639.965 107.626C629.106 104.771 618.322 101.833 607.602 98.8215Z" fill="url(#paint19_linear_1_5)"/>
</g>
<g clip-path="url(#clip10_1_5)">
<path d="M343.304 -15.9642C333.014 -20.9799 325.372 -19.7037 314.598 -18.7519C313.006 -18.5654 303.335 -17.1823 302.798 -16.9051C301.367 -17.1005 298.514 -20.7784 297.076 -22.3092C293.493 -26.1163 281.442 -39.3124 278.243 -39.7227C277.904 -39.4692 277.485 -39.2502 277.255 -38.7357C276.849 -37.8088 277.07 -37.7376 277.55 -37.2979C277.617 -37.1368 287.32 -28.2458 288.269 -27.3008C292.434 -23.1028 296.69 -19.3598 300.502 -14.7545L299.055 -9.57167L297.326 -3.23122C296.464 0.914072 295.075 4.92899 294.413 9.06502C292.332 21.9681 294.405 26.5917 300.177 38.3763C300.936 39.5522 301.852 41.0426 302.71 42.0735C308.207 48.3694 312.431 52.9933 319.137 58.2097C320.693 59.4224 322.05 60.4533 323.713 61.6461C324.287 62.0626 325.016 62.4101 325.709 62.8165C335.222 68.4297 345.601 71.8205 356.244 74.6986C359.333 75.5315 362.471 76.2269 365.539 77.0612L370.156 78.0327C374.057 78.7355 377.944 78.9696 381.725 80.1608C384.395 81.0008 385.834 82.7644 388.007 83.3379C388.161 81.2031 386.386 79.1056 385.963 76.8752C385.524 74.5517 385.633 72.7198 385.646 70.2065C385.728 58.396 383.344 42.5776 380.803 31.4444C378.813 22.7048 375.918 15.5757 371.586 9.16602C369.293 5.77776 366.721 2.56973 364.148 -0.317322C357.98 -7.23299 351.752 -11.8461 343.304 -15.9642Z" stroke="url(#paint20_linear_1_5)" stroke-miterlimit="22.9256"/>
<path d="M387.611 82.6045C379.912 73.0737 372.16 63.5904 364.332 54.1626C370.306 53.0193 375.724 52.5445 382.012 55.306C373.773 50.832 369.745 53.3107 363.578 53.2548C357.873 46.3983 352.128 39.5654 346.329 32.7802C355.674 29.2945 364.28 27.0182 375.172 29.7768C360.812 24.835 355.028 29.8579 345.173 31.4254C339.854 25.2098 335.19 19.8899 329.777 13.7456C337.398 14.1464 350.746 6.17879 368.699 8.3167C349.123 4.70226 341.929 10.233 328.821 12.5934C323.517 6.58026 318.17 0.603568 312.763 -5.32717C324.716 -9.77426 335.731 -12.6737 349.667 -9.14204C331.257 -15.4751 323.823 -9.04955 311.207 -7.03256C301.078 -18.1137 290.753 -29.0475 280.194 -39.7893C278.554 -41.0445 276.463 -39.4697 278.049 -37.0659C289.516 -25.848 300.664 -14.5354 311.524 -3.14049C308.152 8.89924 301.246 15.7088 305.564 34.432C303.531 20.3328 307.454 9.74303 313.019 -1.56732C317.184 2.8152 321.311 7.20859 325.4 11.6193C323.497 24.3363 318.566 31.8522 322.89 50.8917C320.559 36.414 323.011 25.1533 326.678 13.0057C333.083 19.9285 339.386 26.8728 345.614 33.8453C343.053 43.6139 337.37 48.8272 340.804 63.7362C339.194 52.572 342.372 44.2363 346.823 35.2615L346.592 34.9415C352.885 42.006 359.096 49.0971 365.234 56.2035C363.005 61.9211 359.237 64.7682 360.333 74.0543C360.096 67.1055 362.603 62.206 365.931 57.0144C373.262 65.5193 380.484 74.0503 387.611 82.6045Z" fill="url(#paint21_linear_1_5)"/>
</g>
<g clip-path="url(#clip11_1_5)">
<path d="M140.597 -12.5265C130.674 -18.2329 122.963 -17.4813 112.149 -17.2672C110.547 -17.1897 100.805 -16.47 100.25 -16.2301C98.8358 -16.5227 96.2412 -20.3867 94.9109 -22.0122C91.5954 -26.0549 80.474 -40.0429 77.3105 -40.6705C76.9547 -40.4408 76.5216 -40.2509 76.2572 -39.7533C75.7892 -38.8562 76.0043 -38.7701 76.4528 -38.2988C76.5089 -38.1334 85.5825 -28.6009 86.4646 -27.5933C90.3331 -23.1208 94.3238 -19.096 97.8131 -14.2412L96.0155 -9.16926L93.858 -2.96159C92.7146 1.11516 91.0552 5.02593 90.1124 9.10712C87.1557 21.8381 88.9081 26.5924 93.8625 38.7435C94.5394 39.9684 95.3514 41.5179 96.1373 42.6049C101.191 49.2613 105.09 54.1628 111.424 59.8248C112.893 61.1408 114.177 62.2619 115.754 63.5655C116.299 64.0203 117.003 64.4167 117.666 64.8695C126.774 71.1189 136.898 75.2103 147.319 78.8081C150.344 79.8499 153.427 80.7579 156.431 81.7996L160.971 83.084C164.815 84.0515 168.677 84.5503 172.368 85.9968C174.975 87.0171 176.29 88.8749 178.418 89.5953C178.718 87.476 177.09 85.2622 176.82 83.0082C176.541 80.6601 176.774 78.84 176.959 76.3334C177.847 64.5561 176.548 48.6118 174.773 37.3311C173.385 28.4761 170.983 21.166 167.098 14.4756C165.042 10.9387 162.695 7.56263 160.325 4.50664C154.644 -2.8139 148.744 -7.84137 140.597 -12.5265Z" stroke="url(#paint22_linear_1_5)" stroke-miterlimit="22.9256"/>
<path d="M178.073 88.8367C171.043 78.8025 163.956 68.8123 156.79 58.8722C162.828 58.1392 168.266 58.0354 174.35 61.2196C166.436 56.1937 162.249 58.3917 156.1 57.915C150.876 50.685 145.611 43.4759 140.289 36.3107C149.85 33.471 158.591 31.7874 169.27 35.2831C155.28 29.3726 149.167 33.9891 139.228 34.8802C134.345 28.316 130.055 22.6901 125.074 16.1907C132.65 17.1107 146.511 10.0729 164.277 13.4313C144.993 8.48899 137.438 13.5158 124.199 14.976C119.318 8.61481 114.392 2.28707 109.402 -3.99889C121.63 -7.61979 132.818 -9.76056 146.48 -5.28592C128.545 -12.8609 120.69 -6.95769 107.966 -5.80655C98.6166 -17.5532 89.0623 -29.1663 79.2609 -40.6038C77.7106 -41.968 75.5169 -40.5396 76.9353 -38.0331C87.6094 -26.0587 97.9592 -14.0115 108.016 -1.90193C103.83 9.87954 96.4759 16.2019 99.5057 35.1761C98.4394 20.971 103.076 10.6737 109.401 -0.230352C113.256 4.4262 117.074 9.09108 120.853 13.7705C118.086 26.3281 112.653 33.4899 115.668 52.7801C114.331 38.1771 117.545 27.11 122.033 15.241C127.95 22.5849 133.765 29.9432 139.503 37.3245C136.281 46.8955 130.255 51.7088 132.663 66.8174C131.819 55.5693 135.558 47.47 140.612 38.82L140.403 38.4849C146.199 45.9625 151.912 53.461 157.551 60.9698C154.937 66.5219 150.983 69.1052 151.442 78.4445C151.68 71.4957 154.516 66.7788 158.191 61.8264C164.924 70.8119 171.547 79.816 178.073 88.8367Z" fill="url(#paint23_linear_1_5)"/>
</g>
<g clip-path="url(#clip12_1_5)">
<path d="M44.5974 329.04C34.6736 334.746 26.9627 333.994 16.1488 333.78C14.5474 333.703 4.80481 332.983 4.25037 332.743C2.83578 333.036 0.241181 336.9 -1.08915 338.525C-4.40456 342.568 -15.526 356.556 -18.6895 357.184C-19.0453 356.954 -19.4784 356.764 -19.7428 356.266C-20.2108 355.369 -19.9957 355.283 -19.5472 354.812C-19.4911 354.646 -10.4175 345.114 -9.53536 344.106C-5.66688 339.634 -1.67624 335.609 1.81311 330.754L0.0154517 325.682L-2.14198 319.475C-3.2854 315.398 -4.94481 311.487 -5.88756 307.406C-8.84433 294.675 -7.09188 289.921 -2.13749 277.77C-1.46063 276.545 -0.64856 274.995 0.137285 273.908C5.19072 267.252 9.08968 262.35 15.4245 256.688C16.8934 255.372 18.1767 254.251 19.7543 252.948C20.299 252.493 21.0026 252.096 21.6664 251.644C30.7739 245.394 40.8976 241.303 51.3191 237.705C54.3438 236.663 57.4273 235.755 60.4312 234.713L64.9709 233.429C68.8152 232.462 72.6772 231.963 76.3679 230.516C78.9746 229.496 80.2899 227.638 82.4185 226.918C82.7176 229.037 81.0895 231.251 80.8203 233.505C80.5408 235.853 80.7745 237.673 80.9594 240.18C81.8468 251.957 80.5479 267.901 78.7733 279.182C77.3846 288.037 74.9831 295.347 71.0982 302.037C69.0423 305.574 66.6954 308.95 64.3249 312.006C58.6437 319.327 52.7445 324.354 44.5974 329.04Z" stroke="url(#paint24_linear_1_5)" stroke-miterlimit="22.9256"/>
<path d="M82.0733 227.676C75.043 237.711 67.9562 247.701 60.7898 257.641C66.8283 258.374 72.2656 258.478 78.3504 255.293C70.4361 260.319 66.2488 258.121 60.0999 258.598C54.8762 265.828 49.6107 273.037 44.2886 280.202C53.8495 283.042 62.5907 284.726 73.2696 281.23C59.2804 287.14 53.167 282.524 43.2276 281.633C38.3454 288.197 34.0549 293.823 29.0743 300.322C36.65 299.402 50.5111 306.44 68.2765 303.082C48.9925 308.024 41.4381 302.997 28.1988 301.537C23.3183 307.898 18.3917 314.226 13.4023 320.512C25.63 324.133 36.8179 326.274 50.4798 321.799C32.5453 329.374 24.6901 323.471 11.9657 322.32C2.61657 334.066 -6.93774 345.679 -16.7391 357.117C-18.2894 358.481 -20.4831 357.053 -19.0647 354.546C-8.39065 342.572 1.95921 330.525 12.0163 318.415C7.83022 306.634 0.475886 300.311 3.5057 281.337C2.43943 295.542 7.07606 305.839 13.4009 316.743C17.2564 312.087 21.0744 307.422 24.8525 302.743C22.0863 290.185 16.6534 283.023 19.668 263.733C18.3308 278.336 21.5454 289.403 26.0327 301.272C31.9501 293.928 37.7651 286.57 43.5027 279.189C40.2806 269.618 34.2547 264.804 36.6632 249.696C35.8187 260.944 39.5583 269.043 44.6117 277.693L44.4033 278.028C50.1993 270.551 55.9115 263.052 61.5506 255.543C58.9367 249.991 54.9827 247.408 55.4423 238.069C55.6802 245.017 58.516 249.734 62.1906 254.687C68.9241 245.701 75.5468 236.697 82.0733 227.676Z" fill="url(#paint25_linear_1_5)"/>
</g>
<g clip-path="url(#clip13_1_5)">
<path d="M10.4946 642.965C-0.881085 644.246 -7.65409 640.484 -17.4875 635.98C-18.9254 635.271 -27.5748 630.729 -27.9877 630.288C-29.4018 629.993 -33.321 632.504 -35.1888 633.464C-39.8403 635.852 -55.6138 644.251 -58.7655 643.566C-59.0003 643.214 -59.3219 642.867 -59.3662 642.305C-59.438 641.296 -59.2064 641.303 -58.6073 641.049C-58.4899 640.92 -46.3698 635.791 -45.1592 635.219C-39.8292 632.658 -34.5655 630.556 -29.4308 627.493L-29.059 622.125L-28.5648 615.572C-27.9894 611.377 -27.9534 607.129 -27.1921 603.01C-24.8322 590.155 -21.3307 586.492 -11.9455 577.321C-10.8367 576.467 -9.47451 575.369 -8.32066 574.685C-1.03369 570.593 4.4952 567.651 12.5613 564.981C14.4329 564.36 16.0566 563.843 18.023 563.275C18.7037 563.075 19.507 562.992 20.2963 562.841C31.1396 560.737 42.0551 561.018 53.0472 561.87C56.2366 562.119 59.4265 562.515 62.5967 562.756L67.2723 563.387C71.1838 564.031 74.9248 565.112 78.8863 565.256C81.6837 565.358 83.6301 564.178 85.8695 564.366C85.2995 566.429 82.9243 567.811 81.7794 569.771C80.5876 571.813 80.0768 573.576 79.2478 575.948C75.3697 587.104 67.8262 601.211 61.7043 610.851C56.9027 618.42 51.7877 624.168 45.5591 628.757C42.2642 631.182 38.7666 633.343 35.3749 635.202C27.2475 639.653 19.8337 641.914 10.4946 642.965Z" stroke="url(#paint26_linear_1_5)" stroke-miterlimit="22.9256"/>
<path d="M85.2507 564.924C74.8048 571.327 64.3246 577.666 53.7915 583.929C59.038 587.007 63.9838 589.268 70.8335 588.772C61.5721 590.228 58.607 586.544 52.7773 584.532C45.1057 589.082 37.404 593.597 29.6679 598.048C37.306 604.462 44.6528 609.489 55.8403 610.537C40.6545 610.385 36.8864 603.715 28.1248 598.938C21.0316 603.013 14.855 606.464 7.69743 610.441C15.0125 612.616 24.9222 624.593 42.5549 628.59C22.8983 625.441 17.972 617.82 6.41048 611.207C-0.600272 615.097 -7.63996 618.938 -14.7206 622.716C-4.94771 630.908 4.46109 637.329 18.7746 638.668C-0.692979 638.471 -5.54605 629.927 -16.7584 623.801C-30.0134 630.851 -43.4033 637.696 -56.9499 644.282C-58.9154 644.916 -60.3584 642.732 -58.0588 640.998C-43.4979 634.267 -29.2054 627.341 -15.1565 620.24C-14.3023 607.766 -18.529 599.038 -8.19073 582.841C-14.828 595.445 -14.6776 606.738 -13.2206 619.259C-7.82903 616.524 -2.46871 613.766 2.86097 610.979C5.32665 598.359 3.19674 589.626 13.6469 573.134C6.60258 585.995 5.14201 597.427 4.52923 610.101C12.8825 605.722 21.1477 601.29 29.351 596.805C30.2087 586.743 26.5992 579.927 34.8276 567.029C29.5718 577.01 29.775 585.928 30.9639 595.875L30.6393 596.1C38.9345 591.55 47.1612 586.948 55.3249 582.308C55.1394 576.174 52.5419 572.229 56.6842 563.846C54.134 570.314 54.8559 575.771 56.2532 581.777C66.009 576.218 75.6707 570.598 85.2507 564.924Z" fill="url(#paint27_linear_1_5)"/>
</g>
<g clip-path="url(#clip14_1_5)">
<path d="M677.739 173.741C688.959 171.469 696.036 174.622 706.226 178.248C707.72 178.828 716.734 182.594 717.184 182.997C718.619 183.168 722.303 180.323 724.079 179.203C728.504 176.417 743.481 166.668 746.68 167.074C746.945 167.404 747.296 167.722 747.389 168.277C747.549 169.276 747.318 169.29 746.743 169.595C746.638 169.734 735.014 175.905 733.858 176.582C728.773 179.6 723.713 182.155 718.867 185.655L718.967 191.036L719.049 197.607C718.843 201.836 719.179 206.071 718.782 210.241C717.557 223.253 714.39 227.208 705.845 237.167C704.815 238.114 703.554 239.327 702.465 240.11C695.564 244.824 690.315 248.24 682.513 251.606C680.703 252.389 679.131 253.047 677.222 253.784C676.562 254.043 675.769 254.196 674.996 254.416C664.378 257.461 653.48 258.138 642.456 258.253C639.257 258.284 636.044 258.169 632.865 258.206L628.152 257.988C624.2 257.689 620.378 256.94 616.419 257.144C613.624 257.287 611.788 258.633 609.541 258.642C609.928 256.537 612.173 254.953 613.142 252.9C614.15 250.761 614.505 248.96 615.122 246.524C618.008 235.071 624.287 220.358 629.54 210.219C633.66 202.258 638.252 196.084 644.055 190.967C647.124 188.263 650.419 185.803 653.635 183.655C661.341 178.508 668.528 175.607 677.739 173.741Z" stroke="url(#paint28_linear_1_5)" stroke-miterlimit="22.9256"/>
<path d="M610.109 258.032C619.953 250.739 629.838 243.505 639.782 236.344C634.286 233.738 629.161 231.918 622.381 233.013C631.479 230.75 634.755 234.161 640.739 235.654C647.982 230.449 655.259 225.278 662.575 220.165C654.405 214.445 646.646 210.082 635.409 210.018C650.55 208.839 654.888 215.153 664.035 219.144C670.743 214.462 676.594 210.484 683.375 205.895C675.898 204.37 664.977 193.307 647.062 190.87C666.919 192.285 672.494 199.444 684.59 205.02C691.233 200.53 697.909 196.087 704.632 191.703C694.179 184.398 684.243 178.827 669.868 178.747C689.278 177.238 694.861 185.324 706.567 190.443C719.153 182.259 731.892 174.267 744.809 166.52C746.712 165.716 748.34 167.766 746.202 169.694C732.286 177.675 718.656 185.827 705.283 194.131C705.525 206.632 710.5 214.957 701.621 231.997C707.128 218.859 705.989 207.624 703.44 195.279C698.309 198.475 693.211 201.692 688.146 204.935C686.796 217.723 689.683 226.236 680.718 243.58C686.608 230.151 687.061 218.636 686.561 205.957C678.624 211.05 670.779 216.19 663 221.376C663.027 231.474 667.22 237.947 660.153 251.517C664.514 241.114 663.531 232.248 661.475 222.443L661.778 222.191C653.914 227.45 646.122 232.755 638.396 238.093C639.118 244.187 642.051 247.889 638.66 256.603C640.633 249.936 639.436 244.564 637.518 238.703C628.287 245.095 619.155 251.541 610.109 258.032Z" fill="url(#paint29_linear_1_5)"/>
</g>
<g clip-path="url(#clip15_1_5)">
<path d="M633.227 -26.5266C643.15 -32.2331 650.861 -31.4814 661.675 -31.2673C663.277 -31.1899 673.019 -30.4701 673.574 -30.2302C674.988 -30.5229 677.583 -34.3868 678.913 -36.0123C682.229 -40.0551 693.35 -54.043 696.513 -54.6706C696.869 -54.4409 697.302 -54.2511 697.567 -53.7534C698.035 -52.8563 697.82 -52.7703 697.371 -52.2989C697.315 -52.1335 688.241 -42.601 687.359 -41.5934C683.491 -37.121 679.5 -33.0962 676.011 -28.2413L677.809 -23.1694L679.966 -16.9617C681.109 -12.885 682.769 -8.97419 683.712 -4.893C686.668 7.83796 684.916 12.5922 679.961 24.7434C679.285 25.9683 678.473 27.5178 677.687 28.6048C672.633 35.2612 668.734 40.1627 662.4 45.8247C660.931 47.1407 659.647 48.2618 658.07 49.5654C657.525 50.0202 656.821 50.4165 656.158 50.8694C647.05 57.1188 636.926 61.2101 626.505 64.808C623.48 65.8498 620.397 66.7577 617.393 67.7995L612.853 69.0839C609.009 70.0514 605.147 70.5502 601.456 71.9967C598.849 73.017 597.534 74.8747 595.406 75.5952C595.106 73.4759 596.734 71.2621 597.004 69.0081C597.283 66.66 597.05 64.8399 596.865 62.3333C595.977 50.5559 597.276 34.6117 599.051 23.331C600.439 14.4759 602.841 7.16593 606.726 0.475451C608.782 -3.06139 611.129 -6.4375 613.499 -9.49348C619.18 -16.814 625.08 -21.8415 633.227 -26.5266Z" stroke="url(#paint30_linear_1_5)" stroke-miterlimit="22.9256"/>
<path d="M595.751 74.8366C602.781 64.8024 609.868 54.8122 617.034 44.872C610.996 44.1391 605.558 44.0352 599.474 47.2195C607.388 42.1936 611.575 44.3915 617.724 43.9149C622.948 36.6849 628.213 29.4758 633.535 22.3106C623.974 19.4709 615.233 17.7873 604.554 21.283C618.544 15.3725 624.657 19.989 634.596 20.88C639.479 14.3159 643.769 8.68999 648.75 2.1906C641.174 3.11063 627.313 -3.92726 609.547 -0.568872C628.831 -5.51113 636.386 -0.484321 649.625 0.975836C654.506 -5.38532 659.432 -11.7131 664.422 -17.999C652.194 -21.6199 641.006 -23.7607 627.344 -19.286C645.279 -26.861 653.134 -20.9578 665.858 -19.8067C675.207 -31.5534 684.762 -43.1664 694.563 -54.604C696.113 -55.9682 698.307 -54.5397 696.889 -52.0332C686.215 -40.0588 675.865 -28.0116 665.808 -15.9021C669.994 -4.12058 677.348 2.20173 674.318 21.176C675.385 6.97092 670.748 -3.32642 664.423 -14.2305C660.568 -9.57392 656.75 -4.90905 652.971 -0.229575C655.738 12.328 661.171 19.4897 658.156 38.78C659.493 24.177 656.279 13.1098 651.791 1.24087C645.874 8.58473 640.059 15.9431 634.321 23.3244C637.543 32.8954 643.569 37.7086 641.161 52.8173C642.005 41.5692 638.266 33.4699 633.212 24.8199L633.421 24.4848C627.625 31.9624 621.912 39.4609 616.273 46.9697C618.887 52.5218 622.841 55.1051 622.382 64.4444C622.144 57.4956 619.308 52.7786 615.633 47.8263C608.9 56.8117 602.277 65.8158 595.751 74.8366Z" fill="url(#paint31_linear_1_5)"/>
</g>
<g clip-path="url(#clip16_1_5)">
<path d="M117.227 771.04C127.15 776.746 134.861 775.994 145.675 775.78C147.277 775.703 157.019 774.983 157.574 774.743C158.988 775.036 161.583 778.9 162.913 780.525C166.229 784.568 177.35 798.556 180.513 799.184C180.869 798.954 181.302 798.764 181.567 798.266C182.035 797.369 181.82 797.283 181.371 796.812C181.315 796.646 172.241 787.114 171.359 786.106C167.491 781.634 163.5 777.609 160.011 772.754L161.809 767.682L163.966 761.475C165.109 757.398 166.769 753.487 167.712 749.406C170.668 736.675 168.916 731.921 163.961 719.77C163.285 718.545 162.473 716.995 161.687 715.908C156.633 709.252 152.734 704.35 146.4 698.688C144.931 697.372 143.647 696.251 142.07 694.948C141.525 694.493 140.821 694.096 140.158 693.644C131.05 687.394 120.926 683.303 110.505 679.705C107.48 678.663 104.397 677.755 101.393 676.713L96.8531 675.429C93.0088 674.462 89.1468 673.963 85.456 672.516C82.8493 671.496 81.5341 669.638 79.4055 668.918C79.1064 671.037 80.7345 673.251 81.0037 675.505C81.2832 677.853 81.0495 679.673 80.8646 682.18C79.9772 693.957 81.2761 709.901 83.0507 721.182C84.4394 730.037 86.8409 737.347 90.7257 744.037C92.7817 747.574 95.1285 750.95 97.499 754.006C103.18 761.327 109.08 766.354 117.227 771.04Z" stroke="url(#paint32_linear_1_5)" stroke-miterlimit="22.9256"/>
<path d="M79.7507 669.676C86.781 679.711 93.8678 689.701 101.034 699.641C94.9956 700.374 89.5584 700.478 83.4735 697.293C91.3878 702.319 95.5752 700.121 101.724 700.598C106.948 707.828 112.213 715.037 117.535 722.202C107.974 725.042 99.2332 726.726 88.5544 723.23C102.544 729.14 108.657 724.524 118.596 723.633C123.479 730.197 127.769 735.823 132.75 742.322C125.174 741.402 111.313 748.44 93.5474 745.082C112.831 750.024 120.386 744.997 133.625 743.537C138.506 749.898 143.432 756.226 148.422 762.512C136.194 766.133 125.006 768.274 111.344 763.799C129.279 771.374 137.134 765.471 149.858 764.32C159.207 776.066 168.762 787.679 178.563 799.117C180.113 800.481 182.307 799.053 180.889 796.546C170.215 784.572 159.865 772.525 149.808 760.415C153.994 748.634 161.348 742.311 158.318 723.337C159.385 737.542 154.748 747.839 148.423 758.743C144.568 754.087 140.75 749.422 136.971 744.743C139.738 732.185 145.171 725.023 142.156 705.733C143.493 720.336 140.279 731.403 135.791 743.272C129.874 735.928 124.059 728.57 118.321 721.189C121.543 711.618 127.569 706.804 125.161 691.696C126.005 702.944 122.266 711.043 117.212 719.693L117.421 720.028C111.625 712.551 105.912 705.052 100.273 697.543C102.887 691.991 106.841 689.408 106.382 680.069C106.144 687.017 103.308 691.734 99.6334 696.687C92.8999 687.701 86.2772 678.697 79.7507 669.676Z" fill="url(#paint33_linear_1_5)"/>
</g>
<g clip-path="url(#clip17_1_5)">
<path d="M604.639 795.299C596.222 803.059 588.536 804.031 577.943 806.213C576.364 806.492 566.703 807.944 566.109 807.833C564.795 808.431 563.119 812.773 562.181 814.653C559.841 819.329 552.089 835.43 549.142 836.741C548.744 836.596 548.28 836.507 547.912 836.08C547.257 835.308 547.448 835.177 547.781 834.618C547.799 834.444 554.54 823.141 555.178 821.963C557.962 816.746 560.963 811.939 563.293 806.432L560.418 801.884L556.941 796.307C554.925 792.584 552.441 789.137 550.619 785.365C544.921 773.603 545.578 768.579 547.723 755.633C548.112 754.289 548.561 752.598 549.087 751.364C552.544 743.755 555.262 738.113 560.188 731.19C561.33 729.582 562.333 728.205 563.584 726.584C564.014 726.021 564.613 725.478 565.16 724.89C572.66 716.781 581.628 710.552 590.996 704.739C593.716 703.054 596.522 701.487 599.221 699.807L603.365 697.55C606.9 695.756 610.556 694.416 613.835 692.189C616.152 690.618 617.024 688.515 618.94 687.342C619.701 689.342 618.602 691.861 618.838 694.119C619.085 696.471 619.715 698.194 620.45 700.598C623.92 711.887 626.179 727.724 626.943 739.118C627.547 748.061 626.821 755.721 624.512 763.105C623.289 767.009 621.747 770.82 620.111 774.325C616.189 782.721 611.548 788.928 604.639 795.299Z" stroke="url(#paint34_linear_1_5)" stroke-miterlimit="22.9256"/>
<path d="M618.771 688.158C614.134 699.498 609.432 710.808 604.641 722.087C610.692 721.467 616.018 720.365 621.248 715.914C614.641 722.566 610.071 721.348 604.18 723.173C600.684 731.379 597.143 739.574 593.538 747.739C603.49 748.394 612.387 748.103 622.028 742.332C609.692 751.19 602.71 748.04 592.819 749.369C589.509 756.85 586.569 763.285 583.149 770.725C590.334 768.153 605.408 771.951 621.991 764.747C604.278 773.832 595.798 770.6 582.564 772.104C579.211 779.387 575.806 786.647 572.33 793.881C585.056 794.708 596.44 794.322 608.774 786.937C592.959 798.29 583.993 794.27 571.329 795.961C564.809 809.485 558.059 822.923 551.03 836.245C549.819 837.918 547.364 837.01 548.193 834.252C555.955 820.214 563.384 806.176 570.515 792.142C563.827 781.578 555.256 777.039 554.015 757.864C556.117 771.953 562.916 780.97 571.495 790.206C574.226 784.812 576.917 779.418 579.567 774.019C574.093 762.384 567.21 756.601 565.885 737.122C567.81 751.659 573.392 761.741 580.393 772.324C584.54 763.854 588.584 755.391 592.547 746.924C587.288 738.303 580.347 734.941 579.355 719.674C581.019 730.83 586.457 737.902 593.298 745.22L593.169 745.593C597.168 737.019 601.08 728.443 604.919 719.873C601.142 715.036 596.715 713.392 595.098 704.182C596.866 710.906 600.675 714.879 605.354 718.896C609.934 708.644 614.401 698.398 618.771 688.158Z" fill="url(#paint35_linear_1_5)"/>
</g>
<g clip-path="url(#clip18_1_5)">
<path d="M72.5762 3.54259C70.6766 -7.74625 65.1965 -13.2226 58.1596 -21.4366C57.0823 -22.6239 50.3357 -29.6894 49.7982 -29.965C49.1253 -31.2433 50.4602 -35.702 50.87 -37.7621C51.8849 -42.891 55.6189 -60.3669 54.0933 -63.2085C53.6898 -63.3373 53.268 -63.551 52.7157 -63.439C51.7257 -63.2303 51.7959 -63.0095 51.7169 -62.3637C51.6249 -62.2153 50.03 -49.1518 49.8125 -47.8303C48.8172 -42.0013 48.2452 -36.3624 46.7137 -30.5832L41.6551 -28.7484L35.4909 -26.4697C31.6165 -24.7621 27.5423 -23.5584 23.7919 -21.6931C12.0828 -15.8865 9.52532 -11.5123 3.29093 0.0344671C2.77516 1.3355 2.09474 2.94713 1.75474 4.24465C-0.17394 12.3764 -1.48109 18.5015 -1.82776 26.9908C-1.9105 28.9613 -1.96076 30.6646 -1.96482 32.7111C-1.96988 33.4206 -1.82884 34.2158 -1.75669 35.0161C-0.795043 46.0196 2.47871 56.4365 6.32273 66.7697C7.44032 69.7673 8.69862 72.7252 9.80295 75.7065L11.6959 80.0281C13.3916 83.6113 15.4605 86.9103 16.6888 90.6793C17.5573 93.3404 16.9586 95.5364 17.7549 97.6378C19.5813 96.5221 20.2563 93.8582 21.8256 92.2181C23.4611 90.5103 25.015 89.5341 27.068 88.0841C36.7259 81.2857 48.2119 70.1512 55.7948 61.6128C61.7498 54.9137 65.8683 48.4144 68.5659 41.1633C69.9904 37.3284 71.1061 33.371 71.9595 29.5987C74.002 20.5602 74.1355 12.8105 72.5762 3.54259Z" stroke="url(#paint36_linear_1_5)" stroke-miterlimit="22.9256"/>
<path d="M18.1213 96.8892C21.402 85.0847 24.6128 73.2644 27.7345 61.4146C32.1375 65.6116 35.6727 69.744 37.0804 76.4658C35.9322 67.1611 31.5743 65.3245 28.0351 60.2737C30.2985 51.646 32.5192 42.9993 34.6701 34.3368C42.9381 39.9149 49.7925 45.5947 53.8789 56.0617C49.5536 41.5041 42.1043 39.7171 35.1004 32.6085C37.0667 24.6676 38.6845 17.7798 40.5382 9.80411C44.6416 16.2384 58.8837 22.4692 67.5793 38.3209C59.1418 20.2902 50.46 17.6511 40.9199 8.35621C42.7304 0.545596 44.4859 -7.27936 46.1692 -15.1263C56.735 -7.98536 65.4972 -0.706866 70.7232 12.6856C65.1761 -5.97604 55.6265 -8.29041 46.6522 -17.3841C49.7817 -32.0674 52.6777 -46.8241 55.2812 -61.6601C55.3494 -63.724 52.8526 -64.5102 51.8185 -61.8223C49.355 -45.9713 46.6293 -30.3245 43.6693 -14.864C31.9122 -10.61 22.3572 -12.2713 9.63137 2.12507C19.9224 -7.72462 30.8198 -10.6877 43.2584 -12.7327C42.1128 -6.7967 40.9368 -0.884446 39.7243 5.00638C28.2702 10.8499 19.2879 11.2057 6.30837 25.791C16.7345 15.4792 27.3227 10.9291 39.3388 6.852C37.4283 16.0877 35.4415 25.2535 33.3878 34.3742C23.9501 37.968 16.4045 36.3735 6.26865 47.8338C14.4174 40.0343 23.0475 37.7752 32.9378 36.1808L33.0641 35.807C30.9731 45.0339 28.8129 54.2094 26.5982 63.335C20.6501 64.8446 16.1429 63.433 9.22357 69.7224C14.7403 65.4906 20.1845 64.683 26.3434 64.3735C23.6839 75.2824 20.9396 86.1177 18.1213 96.8892Z" fill="url(#paint37_linear_1_5)"/>
</g>
<g clip-path="url(#clip19_1_5)">
<path d="M511.106 -1.45741C513.006 -12.7462 518.486 -18.2226 525.522 -26.4366C526.6 -27.6239 533.346 -34.6894 533.884 -34.965C534.557 -36.2433 533.222 -40.702 532.812 -42.7621C531.797 -47.891 528.063 -65.3669 529.589 -68.2085C529.992 -68.3373 530.414 -68.551 530.966 -68.439C531.956 -68.2303 531.886 -68.0095 531.965 -67.3637C532.057 -67.2153 533.652 -54.1518 533.87 -52.8303C534.865 -47.0013 535.437 -41.3624 536.968 -35.5832L542.027 -33.7484L548.191 -31.4697C552.066 -29.7621 556.14 -28.5584 559.89 -26.6931C571.599 -20.8865 574.157 -16.5123 580.391 -4.96553C580.907 -3.6645 581.587 -2.05287 581.927 -0.755354C583.856 7.37639 585.163 13.5015 585.51 21.9908C585.593 23.9613 585.643 25.6646 585.647 27.7111C585.652 28.4206 585.511 29.2158 585.439 30.0161C584.477 41.0196 581.203 51.4365 577.359 61.7697C576.242 64.7673 574.984 67.7252 573.879 70.7065L571.986 75.0281C570.29 78.6113 568.222 81.9103 566.993 85.6793C566.125 88.3404 566.724 90.5364 565.927 92.6378C564.101 91.5221 563.426 88.8582 561.857 87.2181C560.221 85.5103 558.667 84.5341 556.614 83.0841C546.956 76.2857 535.47 65.1512 527.887 56.6128C521.932 49.9137 517.814 43.4144 515.116 36.1633C513.692 32.3284 512.576 28.371 511.723 24.5987C509.68 15.5602 509.547 7.81046 511.106 -1.45741Z" stroke="url(#paint38_linear_1_5)" stroke-miterlimit="22.9256"/>
<path d="M565.561 91.8892C562.28 80.0847 559.069 68.2644 555.948 56.4146C551.545 60.6116 548.009 64.744 546.602 71.4658C547.75 62.1611 552.108 60.3245 555.647 55.2737C553.384 46.646 551.163 37.9993 549.012 29.3368C540.744 34.9149 533.89 40.5947 529.803 51.0617C534.129 36.5041 541.578 34.7171 548.582 27.6085C546.615 19.6676 544.998 12.7798 543.144 4.80411C539.041 11.2384 524.798 17.4692 516.103 33.3209C524.54 15.2902 533.222 12.6511 542.762 3.35621C540.952 -4.4544 539.196 -12.2794 537.513 -20.1263C526.947 -12.9854 518.185 -5.70687 512.959 7.68557C518.506 -10.976 528.056 -13.2904 537.03 -22.3841C533.9 -37.0674 531.004 -51.8241 528.401 -66.6601C528.333 -68.724 530.83 -69.5102 531.864 -66.8223C534.327 -50.9713 537.053 -35.3245 540.013 -19.864C551.77 -15.61 561.325 -17.2713 574.051 -2.87493C563.76 -12.7246 552.862 -15.6877 540.424 -17.7327C541.569 -11.7967 542.745 -5.88445 543.958 0.00638098C555.412 5.8499 564.394 6.20567 577.374 20.791C566.948 10.4792 556.359 5.92906 544.343 1.852C546.254 11.0877 548.241 20.2535 550.294 29.3742C559.732 32.968 567.278 31.3735 577.413 42.8338C569.265 35.0343 560.635 32.7752 550.744 31.1808L550.618 30.807C552.709 40.0339 554.869 49.2094 557.084 58.335C563.032 59.8446 567.539 58.433 574.459 64.7224C568.942 60.4906 563.498 59.683 557.339 59.3735C559.998 70.2824 562.743 81.1177 565.561 91.8892Z" fill="url(#paint39_linear_1_5)"/>
</g>
<g clip-path="url(#clip20_1_5)">
<path d="M476.576 13.5426C474.677 2.25375 469.196 -3.22258 462.16 -11.4366C461.082 -12.6239 454.336 -19.6894 453.798 -19.965C453.125 -21.2433 454.46 -25.702 454.87 -27.7621C455.885 -32.891 459.619 -50.3669 458.093 -53.2085C457.69 -53.3373 457.268 -53.551 456.716 -53.439C455.726 -53.2303 455.796 -53.0095 455.717 -52.3637C455.625 -52.2153 454.03 -39.1518 453.812 -37.8303C452.817 -32.0013 452.245 -26.3624 450.714 -20.5832L445.655 -18.7484L439.491 -16.4697C435.616 -14.7621 431.542 -13.5584 427.792 -11.6931C416.083 -5.88649 413.525 -1.5123 407.291 10.0345C406.775 11.3355 406.095 12.9471 405.755 14.2446C403.826 22.3764 402.519 28.5015 402.172 36.9908C402.09 38.9613 402.039 40.6646 402.035 42.7111C402.03 43.4206 402.171 44.2158 402.243 45.0161C403.205 56.0196 406.479 66.4365 410.323 76.7697C411.44 79.7673 412.699 82.7252 413.803 85.7065L415.696 90.0281C417.392 93.6113 419.46 96.9103 420.689 100.679C421.557 103.34 420.959 105.536 421.755 107.638C423.581 106.522 424.256 103.858 425.826 102.218C427.461 100.51 429.015 99.5341 431.068 98.0841C440.726 91.2857 452.212 80.1512 459.795 71.6128C465.75 64.9137 469.868 58.4144 472.566 51.1633C473.99 47.3284 475.106 43.371 475.959 39.5987C478.002 30.5602 478.135 22.8105 476.576 13.5426Z" stroke="url(#paint40_linear_1_5)" stroke-miterlimit="22.9256"/>
<path d="M422.121 106.889C425.402 95.0847 428.613 83.2644 431.734 71.4146C436.137 75.6116 439.673 79.744 441.08 86.4658C439.932 77.1611 435.574 75.3245 432.035 70.2737C434.299 61.646 436.519 52.9993 438.67 44.3368C446.938 49.9149 453.792 55.5947 457.879 66.0617C453.554 51.5041 446.104 49.7171 439.1 42.6085C441.067 34.6676 442.684 27.7798 444.538 19.8041C448.642 26.2384 462.884 32.4692 471.579 48.3209C463.142 30.2902 454.46 27.6511 444.92 18.3562C446.73 10.5456 448.486 2.72064 450.169 -5.12625C460.735 2.01464 469.497 9.29313 474.723 22.6856C469.176 4.02396 459.627 1.70959 450.652 -7.38415C453.782 -22.0674 456.678 -36.8241 459.281 -51.6601C459.349 -53.724 456.853 -54.5102 455.818 -51.8223C453.355 -35.9713 450.629 -20.3245 447.669 -4.86401C435.912 -0.609973 426.357 -2.27128 413.631 12.1251C423.922 2.27538 434.82 -0.68767 447.258 -2.73272C446.113 3.2033 444.937 9.11555 443.724 15.0064C432.27 20.8499 423.288 21.2057 410.308 35.791C420.734 25.4792 431.323 20.9291 443.339 16.852C441.428 26.0877 439.441 35.2535 437.388 44.3742C427.95 47.968 420.404 46.3735 410.269 57.8338C418.417 50.0343 427.048 47.7752 436.938 46.1808L437.064 45.807C434.973 55.0339 432.813 64.2094 430.598 73.335C424.65 74.8446 420.143 73.433 413.224 79.7224C418.74 75.4906 424.184 74.683 430.343 74.3735C427.684 85.2824 424.94 96.1177 422.121 106.889Z" fill="url(#paint41_linear_1_5)"/>
</g>
<g clip-path="url(#clip21_1_5)">
<path d="M277.576 -10.4574C275.677 -21.7462 270.196 -27.2226 263.16 -35.4366C262.082 -36.6239 255.336 -43.6894 254.798 -43.965C254.125 -45.2433 255.46 -49.702 255.87 -51.7621C256.885 -56.891 260.619 -74.3669 259.093 -77.2085C258.69 -77.3373 258.268 -77.551 257.716 -77.439C256.726 -77.2303 256.796 -77.0095 256.717 -76.3637C256.625 -76.2153 255.03 -63.1518 254.812 -61.8303C253.817 -56.0013 253.245 -50.3624 251.714 -44.5832L246.655 -42.7484L240.491 -40.4697C236.616 -38.7621 232.542 -37.5584 228.792 -35.6931C217.083 -29.8865 214.525 -25.5123 208.291 -13.9655C207.775 -12.6645 207.095 -11.0529 206.755 -9.75535C204.826 -1.62361 203.519 4.50152 203.172 12.9908C203.089 14.9613 203.039 16.6646 203.035 18.7111C203.03 19.4206 203.171 20.2158 203.243 21.0161C204.205 32.0196 207.479 42.4365 211.323 52.7697C212.44 55.7673 213.699 58.7252 214.803 61.7065L216.696 66.0281C218.392 69.6113 220.46 72.9103 221.689 76.6793C222.557 79.3404 221.959 81.5364 222.755 83.6378C224.581 82.5221 225.256 79.8582 226.826 78.2181C228.461 76.5103 230.015 75.5341 232.068 74.0841C241.726 67.2857 253.212 56.1512 260.795 47.6128C266.75 40.9137 270.868 34.4144 273.566 27.1633C274.99 23.3284 276.106 19.371 276.959 15.5987C279.002 6.56017 279.135 -1.18954 277.576 -10.4574Z" stroke="url(#paint42_linear_1_5)" stroke-miterlimit="22.9256"/>
<path d="M223.121 82.8892C226.402 71.0847 229.613 59.2644 232.734 47.4146C237.137 51.6116 240.673 55.744 242.08 62.4658C240.932 53.1611 236.574 51.3245 233.035 46.2737C235.299 37.646 237.519 28.9993 239.67 20.3368C247.938 25.9149 254.792 31.5947 258.879 42.0617C254.554 27.5041 247.104 25.7171 240.1 18.6085C242.067 10.6676 243.684 3.77983 245.538 -4.19589C249.642 2.23837 263.884 8.46917 272.579 24.3209C264.142 6.29017 255.46 3.65115 245.92 -5.64379C247.73 -13.4544 249.486 -21.2794 251.169 -29.1263C261.735 -21.9854 270.497 -14.7069 275.723 -1.31443C270.176 -19.976 260.627 -22.2904 251.652 -31.3841C254.782 -46.0674 257.678 -60.8241 260.281 -75.6601C260.349 -77.724 257.853 -78.5102 256.818 -75.8223C254.355 -59.9713 251.629 -44.3245 248.669 -28.864C236.912 -24.61 227.357 -26.2713 214.631 -11.8749C224.922 -21.7246 235.82 -24.6877 248.258 -26.7327C247.113 -20.7967 245.937 -14.8844 244.724 -8.99362C233.27 -3.1501 224.288 -2.79433 211.308 11.791C221.734 1.47924 232.323 -3.07094 244.339 -7.148C242.428 2.08772 240.441 11.2535 238.388 20.3742C228.95 23.968 221.404 22.3735 211.269 33.8338C219.417 26.0343 228.048 23.7752 237.938 22.1808L238.064 21.807C235.973 31.0339 233.813 40.2094 231.598 49.335C225.65 50.8446 221.143 49.433 214.224 55.7224C219.74 51.4906 225.184 50.683 231.343 50.3735C228.684 61.2824 225.94 72.1177 223.121 82.8892Z" fill="url(#paint43_linear_1_5)"/>
</g>
<g clip-path="url(#clip22_1_5)">
<path d="M256.597 800.04C246.674 805.746 238.963 804.994 228.149 804.78C226.547 804.703 216.805 803.983 216.25 803.743C214.836 804.036 212.241 807.9 210.911 809.525C207.595 813.568 196.474 827.556 193.31 828.184C192.955 827.954 192.522 827.764 192.257 827.266C191.789 826.369 192.004 826.283 192.453 825.812C192.509 825.646 201.582 816.114 202.465 815.106C206.333 810.634 210.324 806.609 213.813 801.754L212.015 796.682L209.858 790.475C208.715 786.398 207.055 782.487 206.112 778.406C203.156 765.675 204.908 760.921 209.863 748.77C210.539 747.545 211.351 745.995 212.137 744.908C217.191 738.252 221.09 733.35 227.424 727.688C228.893 726.372 230.177 725.251 231.754 723.948C232.299 723.493 233.003 723.096 233.666 722.644C242.774 716.394 252.898 712.303 263.319 708.705C266.344 707.663 269.427 706.755 272.431 705.713L276.971 704.429C280.815 703.462 284.677 702.963 288.368 701.516C290.975 700.496 292.29 698.638 294.418 697.918C294.718 700.037 293.09 702.251 292.82 704.505C292.541 706.853 292.774 708.673 292.959 711.18C293.847 722.957 292.548 738.901 290.773 750.182C289.385 759.037 286.983 766.347 283.098 773.037C281.042 776.574 278.695 779.95 276.325 783.006C270.644 790.327 264.744 795.354 256.597 800.04Z" stroke="url(#paint44_linear_1_5)" stroke-miterlimit="22.9256"/>
<path d="M294.073 698.676C287.043 708.711 279.956 718.701 272.79 728.641C278.828 729.374 284.266 729.478 290.35 726.293C282.436 731.319 278.249 729.121 272.1 729.598C266.876 736.828 261.611 744.037 256.289 751.202C265.85 754.042 274.591 755.726 285.27 752.23C271.28 758.14 265.167 753.524 255.228 752.633C250.345 759.197 246.055 764.823 241.074 771.322C248.65 770.402 262.511 777.44 280.277 774.082C260.993 779.024 253.438 773.997 240.199 772.537C235.318 778.898 230.392 785.226 225.402 791.512C237.63 795.133 248.818 797.274 262.48 792.799C244.545 800.374 236.69 794.471 223.966 793.32C214.617 805.066 205.062 816.679 195.261 828.117C193.711 829.481 191.517 828.053 192.935 825.546C203.609 813.572 213.959 801.525 224.016 789.415C219.83 777.634 212.476 771.311 215.506 752.337C214.439 766.542 219.076 776.839 225.401 787.743C229.256 783.087 233.074 778.422 236.853 773.743C234.086 761.185 228.653 754.023 231.668 734.733C230.331 749.336 233.545 760.403 238.033 772.272C243.95 764.928 249.765 757.57 255.503 750.189C252.281 740.618 246.255 735.804 248.663 720.696C247.819 731.944 251.558 740.043 256.612 748.693L256.403 749.028C262.199 741.551 267.912 734.052 273.551 726.543C270.937 720.991 266.983 718.408 267.442 709.069C267.68 716.017 270.516 720.734 274.191 725.687C280.924 716.701 287.547 707.697 294.073 698.676Z" fill="url(#paint45_linear_1_5)"/>
</g>
<g clip-path="url(#clip23_1_5)">
<path d="M344.628 794.604C352.423 802.988 360.011 804.548 370.406 807.539C371.958 807.939 381.479 810.13 382.079 810.064C383.344 810.762 384.681 815.22 385.472 817.166C387.444 822.008 393.936 838.658 396.773 840.192C397.18 840.078 397.65 840.024 398.05 839.627C398.762 838.908 398.582 838.763 398.293 838.18C398.288 838.005 392.436 826.217 391.891 824.994C389.517 819.578 386.894 814.554 384.995 808.885L388.211 804.57L392.107 799.277C394.404 795.721 397.145 792.475 399.251 788.854C405.838 777.566 405.569 772.506 404.426 759.433C404.142 758.063 403.824 756.343 403.394 755.072C400.533 747.22 398.257 741.385 393.878 734.104C392.864 732.413 391.969 730.962 390.847 729.251C390.461 728.655 389.906 728.069 389.406 727.44C382.551 718.779 374.089 711.878 365.196 705.362C362.614 703.473 359.937 701.694 357.375 699.811L353.417 697.243C350.03 695.182 346.488 693.565 343.39 691.092C341.201 689.347 340.494 687.184 338.673 685.866C337.761 687.803 338.662 690.399 338.253 692.632C337.826 694.957 337.065 696.627 336.148 698.967C331.82 709.956 328.349 725.572 326.711 736.874C325.421 745.744 325.556 753.437 327.29 760.977C328.209 764.963 329.453 768.882 330.815 772.502C334.079 781.174 338.229 787.72 344.628 794.604Z" stroke="url(#paint46_linear_1_5)" stroke-miterlimit="22.9256"/>
<path d="M338.779 686.693C342.53 698.357 346.348 709.995 350.257 721.609C344.272 720.525 339.046 719.017 334.174 714.177C340.25 721.317 344.9 720.455 350.633 722.727C353.487 731.178 356.387 739.621 359.355 748.039C349.381 747.926 340.533 746.952 331.364 740.457C342.982 750.237 350.187 747.633 359.945 749.719C362.67 757.433 365.106 764.075 367.944 771.756C360.978 768.639 345.657 771.266 329.677 762.808C346.639 773.228 355.342 770.658 368.421 773.175C371.204 780.695 374.041 788.196 376.95 795.675C364.199 795.521 352.878 794.26 341.148 785.948C356.043 798.485 365.292 795.166 377.788 797.827C383.249 811.811 388.945 825.729 394.929 839.552C396.007 841.314 398.525 840.597 397.91 837.783C391.251 823.19 384.924 808.622 378.894 794.081C386.374 784.063 395.269 780.196 397.981 761.174C394.802 775.06 387.33 783.527 378.065 792.075C375.758 786.487 373.489 780.903 371.262 775.316C377.615 764.136 384.922 758.9 387.742 739.58C384.705 753.926 378.363 763.549 370.569 773.562C367.086 764.798 363.705 756.05 360.405 747.303C366.311 739.111 373.49 736.293 375.654 721.148C373.137 732.143 367.171 738.776 359.787 745.546L359.887 745.928C356.56 737.071 353.319 728.22 350.15 719.38C354.288 714.848 358.829 713.549 361.149 704.491C358.869 711.059 354.766 714.727 349.792 718.373C346.014 707.799 342.348 697.24 338.779 686.693Z" fill="url(#paint47_linear_1_5)"/>
</g>
<defs>
<linearGradient id="paint0_linear_1_5" x1="80.9412" y1="688.244" x2="-49.9249" y2="732.109" gradientUnits="userSpaceOnUse">
<stop offset="0.322917" stop-color="#00BD8D"/>
<stop offset="1" stop-color="#00392D"/>
</linearGradient>
<linearGradient id="paint1_linear_1_5" x1="80.6138" y1="689.056" x2="-49.5014" y2="732.67" gradientUnits="userSpaceOnUse">
<stop offset="0.322917" stop-color="#00BD8D"/>
<stop offset="1" stop-color="#00392D"/>
</linearGradient>
<linearGradient id="paint2_linear_1_5" x1="538.272" y1="724.698" x2="421.194" y2="797.793" gradientUnits="userSpaceOnUse">
<stop offset="0.322917" stop-color="#00BD8D"/>
<stop offset="1" stop-color="#00392D"/>
</linearGradient>
<linearGradient id="paint3_linear_1_5" x1="538.142" y1="725.564" x2="421.737" y2="798.24" gradientUnits="userSpaceOnUse">
<stop offset="0.322917" stop-color="#00BD8D"/>
<stop offset="1" stop-color="#00392D"/>
</linearGradient>
<linearGradient id="paint4_linear_1_5" x1="619.883" y1="525.244" x2="750.749" y2="569.109" gradientUnits="userSpaceOnUse">
<stop offset="0.322917" stop-color="#00BD8D"/>
<stop offset="1" stop-color="#00392D"/>
</linearGradient>
<linearGradient id="paint5_linear_1_5" x1="620.21" y1="526.056" x2="750.325" y2="569.67" gradientUnits="userSpaceOnUse">
<stop offset="0.322917" stop-color="#00BD8D"/>
<stop offset="1" stop-color="#00392D"/>
</linearGradient>
<linearGradient id="paint6_linear_1_5" x1="80.9168" y1="428.208" x2="-48.8695" y2="381.244" gradientUnits="userSpaceOnUse">
<stop offset="0.322917" stop-color="#00BD8D"/>
<stop offset="1" stop-color="#00392D"/>
</linearGradient>
<linearGradient id="paint7_linear_1_5" x1="80.1557" y1="428.641" x2="-48.8859" y2="381.947" gradientUnits="userSpaceOnUse">
<stop offset="0.322917" stop-color="#00BD8D"/>
<stop offset="1" stop-color="#00392D"/>
</linearGradient>
<linearGradient id="paint8_linear_1_5" x1="81.4151" y1="524.411" x2="-48.3712" y2="477.447" gradientUnits="userSpaceOnUse">
<stop offset="0.322917" stop-color="#00BD8D"/>
<stop offset="1" stop-color="#00392D"/>
</linearGradient>
<linearGradient id="paint9_linear_1_5" x1="80.654" y1="524.843" x2="-48.3876" y2="478.149" gradientUnits="userSpaceOnUse">
<stop offset="0.322917" stop-color="#00BD8D"/>
<stop offset="1" stop-color="#00392D"/>
</linearGradient>
<linearGradient id="paint10_linear_1_5" x1="636.405" y1="454.411" x2="766.192" y2="407.447" gradientUnits="userSpaceOnUse">
<stop offset="0.322917" stop-color="#00BD8D"/>
<stop offset="1" stop-color="#00392D"/>
</linearGradient>
<linearGradient id="paint11_linear_1_5" x1="637.167" y1="454.843" x2="766.208" y2="408.149" gradientUnits="userSpaceOnUse">
<stop offset="0.322917" stop-color="#00BD8D"/>
<stop offset="1" stop-color="#00392D"/>
</linearGradient>
<linearGradient id="paint12_linear_1_5" x1="621.405" y1="340.411" x2="751.192" y2="293.447" gradientUnits="userSpaceOnUse">
<stop offset="0.322917" stop-color="#00BD8D"/>
<stop offset="1" stop-color="#00392D"/>
</linearGradient>
<linearGradient id="paint13_linear_1_5" x1="622.166" y1="340.843" x2="751.208" y2="294.149" gradientUnits="userSpaceOnUse">
<stop offset="0.322917" stop-color="#00BD8D"/>
<stop offset="1" stop-color="#00392D"/>
</linearGradient>
<linearGradient id="paint14_linear_1_5" x1="617.219" y1="649.443" x2="752.013" y2="679.119" gradientUnits="userSpaceOnUse">
<stop offset="0.322917" stop-color="#00BD8D"/>
<stop offset="1" stop-color="#00392D"/>
</linearGradient>
<linearGradient id="paint15_linear_1_5" x1="617.631" y1="650.216" x2="751.652" y2="679.721" gradientUnits="userSpaceOnUse">
<stop offset="0.322917" stop-color="#00BD8D"/>
<stop offset="1" stop-color="#00392D"/>
</linearGradient>
<linearGradient id="paint16_linear_1_5" x1="96.4151" y1="186.411" x2="-33.3712" y2="139.447" gradientUnits="userSpaceOnUse">
<stop offset="0.322917" stop-color="#00BD8D"/>
<stop offset="1" stop-color="#00392D"/>
</linearGradient>
<linearGradient id="paint17_linear_1_5" x1="95.654" y1="186.843" x2="-33.3876" y2="140.149" gradientUnits="userSpaceOnUse">
<stop offset="0.322917" stop-color="#00BD8D"/>
<stop offset="1" stop-color="#00392D"/>
</linearGradient>
<linearGradient id="paint18_linear_1_5" x1="622.409" y1="141.411" x2="752.195" y2="94.4469" gradientUnits="userSpaceOnUse">
<stop offset="0.322917" stop-color="#00BD8D"/>
<stop offset="1" stop-color="#00392D"/>
</linearGradient>
<linearGradient id="paint19_linear_1_5" x1="623.17" y1="141.843" x2="752.212" y2="95.149" gradientUnits="userSpaceOnUse">
<stop offset="0.322917" stop-color="#00BD8D"/>
<stop offset="1" stop-color="#00392D"/>
</linearGradient>
<linearGradient id="paint20_linear_1_5" x1="399.539" y1="39.1212" x2="265.984" y2="4.29106" gradientUnits="userSpaceOnUse">
<stop offset="0.322917" stop-color="#00BD8D"/>
<stop offset="1" stop-color="#00392D"/>
</linearGradient>
<linearGradient id="paint21_linear_1_5" x1="399.157" y1="38.3334" x2="266.368" y2="3.70318" gradientUnits="userSpaceOnUse">
<stop offset="0.322917" stop-color="#00BD8D"/>
<stop offset="1" stop-color="#00392D"/>
</linearGradient>
<linearGradient id="paint22_linear_1_5" x1="192.941" y1="46.2689" x2="62.0751" y2="2.40374" gradientUnits="userSpaceOnUse">
<stop offset="0.322917" stop-color="#00BD8D"/>
<stop offset="1" stop-color="#00392D"/>
</linearGradient>
<linearGradient id="paint23_linear_1_5" x1="192.614" y1="45.4569" x2="62.4985" y2="1.84351" gradientUnits="userSpaceOnUse">
<stop offset="0.322917" stop-color="#00BD8D"/>
<stop offset="1" stop-color="#00392D"/>
</linearGradient>
<linearGradient id="paint24_linear_1_5" x1="96.9411" y1="270.244" x2="-33.9249" y2="314.109" gradientUnits="userSpaceOnUse">
<stop offset="0.322917" stop-color="#00BD8D"/>
<stop offset="1" stop-color="#00392D"/>
</linearGradient>
<linearGradient id="paint25_linear_1_5" x1="96.6138" y1="271.056" x2="-33.5015" y2="314.67" gradientUnits="userSpaceOnUse">
<stop offset="0.322917" stop-color="#00BD8D"/>
<stop offset="1" stop-color="#00392D"/>
</linearGradient>
<linearGradient id="paint26_linear_1_5" x1="81.9288" y1="609.891" x2="-55.579" y2="597.988" gradientUnits="userSpaceOnUse">
<stop offset="0.322917" stop-color="#00BD8D"/>
<stop offset="1" stop-color="#00392D"/>
</linearGradient>
<linearGradient id="paint27_linear_1_5" x1="81.3051" y1="610.505" x2="-55.4138" y2="598.671" gradientUnits="userSpaceOnUse">
<stop offset="0.322917" stop-color="#00BD8D"/>
<stop offset="1" stop-color="#00392D"/>
</linearGradient>
<linearGradient id="paint28_linear_1_5" x1="609.478" y1="212.947" x2="747.5" y2="212.756" gradientUnits="userSpaceOnUse">
<stop offset="0.322917" stop-color="#00BD8D"/>
<stop offset="1" stop-color="#00392D"/>
</linearGradient>
<linearGradient id="paint29_linear_1_5" x1="610.045" y1="212.28" x2="747.275" y2="212.09" gradientUnits="userSpaceOnUse">
<stop offset="0.322917" stop-color="#00BD8D"/>
<stop offset="1" stop-color="#00392D"/>
</linearGradient>
<linearGradient id="paint30_linear_1_5" x1="580.883" y1="32.2687" x2="711.749" y2="-11.5964" gradientUnits="userSpaceOnUse">
<stop offset="0.322917" stop-color="#00BD8D"/>
<stop offset="1" stop-color="#00392D"/>
</linearGradient>
<linearGradient id="paint31_linear_1_5" x1="581.21" y1="31.4568" x2="711.325" y2="-12.1566" gradientUnits="userSpaceOnUse">
<stop offset="0.322917" stop-color="#00BD8D"/>
<stop offset="1" stop-color="#00392D"/>
</linearGradient>
<linearGradient id="paint32_linear_1_5" x1="64.8829" y1="712.244" x2="195.749" y2="756.109" gradientUnits="userSpaceOnUse">
<stop offset="0.322917" stop-color="#00BD8D"/>
<stop offset="1" stop-color="#00392D"/>
</linearGradient>
<linearGradient id="paint33_linear_1_5" x1="65.2102" y1="713.056" x2="195.325" y2="756.67" gradientUnits="userSpaceOnUse">
<stop offset="0.322917" stop-color="#00BD8D"/>
<stop offset="1" stop-color="#00392D"/>
</linearGradient>
<linearGradient id="paint34_linear_1_5" x1="642.684" y1="726.384" x2="524.759" y2="798.103" gradientUnits="userSpaceOnUse">
<stop offset="0.322917" stop-color="#00BD8D"/>
<stop offset="1" stop-color="#00392D"/>
</linearGradient>
<linearGradient id="paint35_linear_1_5" x1="642.545" y1="727.248" x2="525.295" y2="798.555" gradientUnits="userSpaceOnUse">
<stop offset="0.322917" stop-color="#00BD8D"/>
<stop offset="1" stop-color="#00392D"/>
</linearGradient>
<linearGradient id="paint36_linear_1_5" x1="60.4379" y1="81.3206" x2="11.1521" y2="-47.6019" gradientUnits="userSpaceOnUse">
<stop offset="0.322917" stop-color="#00BD8D"/>
<stop offset="1" stop-color="#00392D"/>
</linearGradient>
<linearGradient id="paint37_linear_1_5" x1="60.8568" y1="80.5519" x2="11.8539" y2="-47.6309" gradientUnits="userSpaceOnUse">
<stop offset="0.322917" stop-color="#00BD8D"/>
<stop offset="1" stop-color="#00392D"/>
</linearGradient>
<linearGradient id="paint38_linear_1_5" x1="523.244" y1="76.3206" x2="572.53" y2="-52.6019" gradientUnits="userSpaceOnUse">
<stop offset="0.322917" stop-color="#00BD8D"/>
<stop offset="1" stop-color="#00392D"/>
</linearGradient>
<linearGradient id="paint39_linear_1_5" x1="522.825" y1="75.5519" x2="571.828" y2="-52.6309" gradientUnits="userSpaceOnUse">
<stop offset="0.322917" stop-color="#00BD8D"/>
<stop offset="1" stop-color="#00392D"/>
</linearGradient>
<linearGradient id="paint40_linear_1_5" x1="464.438" y1="91.3206" x2="415.152" y2="-37.6019" gradientUnits="userSpaceOnUse">
<stop offset="0.322917" stop-color="#00BD8D"/>
<stop offset="1" stop-color="#00392D"/>
</linearGradient>
<linearGradient id="paint41_linear_1_5" x1="464.857" y1="90.5519" x2="415.854" y2="-37.6309" gradientUnits="userSpaceOnUse">
<stop offset="0.322917" stop-color="#00BD8D"/>
<stop offset="1" stop-color="#00392D"/>
</linearGradient>
<linearGradient id="paint42_linear_1_5" x1="265.438" y1="67.3206" x2="216.152" y2="-61.6019" gradientUnits="userSpaceOnUse">
<stop offset="0.322917" stop-color="#00BD8D"/>
<stop offset="1" stop-color="#00392D"/>
</linearGradient>
<linearGradient id="paint43_linear_1_5" x1="265.857" y1="66.5519" x2="216.854" y2="-61.6309" gradientUnits="userSpaceOnUse">
<stop offset="0.322917" stop-color="#00BD8D"/>
<stop offset="1" stop-color="#00392D"/>
</linearGradient>
<linearGradient id="paint44_linear_1_5" x1="308.941" y1="741.244" x2="178.075" y2="785.109" gradientUnits="userSpaceOnUse">
<stop offset="0.322917" stop-color="#00BD8D"/>
<stop offset="1" stop-color="#00392D"/>
</linearGradient>
<linearGradient id="paint45_linear_1_5" x1="308.614" y1="742.056" x2="178.499" y2="785.67" gradientUnits="userSpaceOnUse">
<stop offset="0.322917" stop-color="#00BD8D"/>
<stop offset="1" stop-color="#00392D"/>
</linearGradient>
<linearGradient id="paint46_linear_1_5" x1="311.996" y1="722.967" x2="424.056" y2="803.543" gradientUnits="userSpaceOnUse">
<stop offset="0.322917" stop-color="#00BD8D"/>
<stop offset="1" stop-color="#00392D"/>
</linearGradient>
<linearGradient id="paint47_linear_1_5" x1="312.069" y1="723.839" x2="423.486" y2="803.954" gradientUnits="userSpaceOnUse">
<stop offset="0.322917" stop-color="#00BD8D"/>
<stop offset="1" stop-color="#00392D"/>
</linearGradient>
<clipPath id="clip0_1_5">
<rect width="93" height="139.5" fill="white" transform="matrix(-0.317812 -0.948154 -0.948154 0.317812 96.824 731.178)"/>
</clipPath>
<clipPath id="clip1_1_5">
<rect width="93" height="139.5" fill="white" transform="matrix(-0.529592 -0.848252 -0.848252 0.529592 563.704 762.761)"/>
</clipPath>
<clipPath id="clip2_1_5">
<rect width="93" height="139.5" fill="white" transform="translate(604 568.178) rotate(-71.4693)"/>
</clipPath>
<clipPath id="clip3_1_5">
<rect width="93" height="139.5" fill="white" transform="matrix(0.340263 -0.94033 -0.94033 -0.340263 66.6778 471.715)"/>
</clipPath>
<clipPath id="clip4_1_5">
<rect width="93" height="139.5" fill="white" transform="matrix(0.340263 -0.94033 -0.94033 -0.340263 67.1761 567.917)"/>
</clipPath>
<clipPath id="clip5_1_5">
<rect width="93" height="139.5" fill="white" transform="translate(650.644 497.917) rotate(-109.893)"/>
</clipPath>
<clipPath id="clip6_1_5">
<rect width="93" height="139.5" fill="white" transform="translate(635.644 383.917) rotate(-109.893)"/>
</clipPath>
<clipPath id="clip7_1_5">
<rect width="93" height="139.5" fill="white" transform="translate(606 693.825) rotate(-77.5843)"/>
</clipPath>
<clipPath id="clip8_1_5">
<rect width="93" height="139.5" fill="white" transform="matrix(0.340263 -0.94033 -0.94033 -0.340263 82.1761 229.917)"/>
</clipPath>
<clipPath id="clip9_1_5">
<rect width="93" height="139.5" fill="white" transform="translate(636.648 184.917) rotate(-109.893)"/>
</clipPath>
<clipPath id="clip10_1_5">
<rect width="93" height="139.5" fill="white" transform="translate(412.454 -4.79688) rotate(104.617)"/>
</clipPath>
<clipPath id="clip11_1_5">
<rect width="93" height="139.5" fill="white" transform="translate(208.824 3.33484) rotate(108.531)"/>
</clipPath>
<clipPath id="clip12_1_5">
<rect width="93" height="139.5" fill="white" transform="matrix(-0.317812 -0.948154 -0.948154 0.317812 112.824 313.178)"/>
</clipPath>
<clipPath id="clip13_1_5">
<rect width="93" height="139.5" fill="white" transform="matrix(0.0862388 -0.996274 -0.996274 -0.0862388 79.392 655.598)"/>
</clipPath>
<clipPath id="clip14_1_5">
<rect width="93" height="139.5" fill="white" transform="matrix(0.00138374 0.999999 0.999999 -0.00138374 608 167.193)"/>
</clipPath>
<clipPath id="clip15_1_5">
<rect width="93" height="139.5" fill="white" transform="matrix(0.317812 0.948154 0.948154 -0.317812 565 -10.6653)"/>
</clipPath>
<clipPath id="clip16_1_5">
<rect width="93" height="139.5" fill="white" transform="translate(49 755.178) rotate(-71.4693)"/>
</clipPath>
<clipPath id="clip17_1_5">
<rect width="93" height="139.5" fill="white" transform="matrix(-0.519617 -0.854399 -0.854399 0.519617 667.668 764.743)"/>
</clipPath>
<clipPath id="clip18_1_5">
<rect width="93" height="139.5" fill="white" transform="translate(103.682 66.303) rotate(159.079)"/>
</clipPath>
<clipPath id="clip19_1_5">
<rect width="93" height="139.5" fill="white" transform="matrix(0.934071 0.357086 0.357086 -0.934071 480 61.303)"/>
</clipPath>
<clipPath id="clip20_1_5">
<rect width="93" height="139.5" fill="white" transform="translate(507.682 76.303) rotate(159.079)"/>
</clipPath>
<clipPath id="clip21_1_5">
<rect width="93" height="139.5" fill="white" transform="translate(308.682 52.303) rotate(159.079)"/>
</clipPath>
<clipPath id="clip22_1_5">
<rect width="93" height="139.5" fill="white" transform="matrix(-0.317812 -0.948154 -0.948154 0.317812 324.824 784.178)"/>
</clipPath>
<clipPath id="clip23_1_5">
<rect width="93" height="139.5" fill="white" transform="translate(284.135 759.29) rotate(-54.2819)"/>
</clipPath>
</defs>
</svg>
