<svg width="700" height="600" viewBox="0 0 700 600" fill="none" xmlns="http://www.w3.org/2000/svg">
<g clip-path="url(#clip0_15_2241)">
<g clip-path="url(#clip1_15_2241)">
<path d="M28.5974 575.04C18.6736 580.746 10.9627 579.994 0.148805 579.78C-1.45258 579.703 -11.1952 578.983 -11.7496 578.743C-13.1642 579.036 -15.7588 582.9 -17.0891 584.525C-20.4046 588.568 -31.526 602.556 -34.6895 603.184C-35.0453 602.954 -35.4784 602.764 -35.7428 602.266C-36.2108 601.369 -35.9957 601.283 -35.5472 600.812C-35.4911 600.647 -26.4175 591.114 -25.5354 590.106C-21.6669 585.634 -17.6762 581.609 -14.1869 576.754L-15.9845 571.682L-18.142 565.475C-19.2854 561.398 -20.9448 557.487 -21.8876 553.406C-24.8443 540.675 -23.0919 535.921 -18.1375 523.77C-17.4606 522.545 -16.6486 520.995 -15.8627 519.908C-10.8093 513.252 -6.91032 508.35 -0.57554 502.688C0.893387 501.372 2.17666 500.251 3.75432 498.948C4.29897 498.493 5.00262 498.097 5.66643 497.644C14.7739 491.394 24.8976 487.303 35.3191 483.705C38.3438 482.663 41.4273 481.755 44.4312 480.714L48.9709 479.429C52.8152 478.462 56.6772 477.963 60.3679 476.516C62.9746 475.496 64.2899 473.638 66.4185 472.918C66.7176 475.037 65.0895 477.251 64.8203 479.505C64.5408 481.853 64.7745 483.673 64.9594 486.18C65.8468 497.957 64.5479 513.901 62.7733 525.182C61.3846 534.037 58.9831 541.347 55.0982 548.038C53.0423 551.574 50.6954 554.951 48.3249 558.007C42.6437 565.327 36.7445 570.355 28.5974 575.04Z" stroke="url(#paint0_linear_15_2241)" stroke-miterlimit="22.9256"/>
<path d="M66.0733 473.677C59.043 483.711 51.9562 493.701 44.7899 503.641C50.8284 504.374 56.2656 504.478 62.3505 501.294C54.4362 506.32 50.2488 504.122 44.0999 504.598C38.8763 511.828 33.6107 519.037 28.2887 526.203C37.8496 529.042 46.5908 530.726 57.2696 527.23C43.2804 533.141 37.1671 528.524 27.2276 527.633C22.3454 534.197 18.0549 539.823 13.0743 546.323C20.6501 545.402 34.5111 552.44 52.2766 549.082C32.9926 554.024 25.4381 548.997 12.1989 547.537C7.31834 553.898 2.39174 560.226 -2.59765 566.512C9.63008 570.133 20.818 572.274 34.4798 567.799C16.5453 575.374 8.69016 569.471 -4.03421 568.32C-13.3834 580.066 -22.9377 591.68 -32.739 603.117C-34.2894 604.481 -36.483 603.053 -35.0646 600.546C-24.3906 588.572 -14.0407 576.525 -3.98368 564.415C-8.16973 552.634 -15.5241 546.311 -12.4943 527.337C-13.5605 541.542 -8.92389 551.84 -2.59909 562.744C1.25647 558.087 5.0744 553.422 8.85257 548.743C6.08638 536.185 0.653472 529.023 3.66801 509.733C2.33081 524.336 5.54546 535.403 10.0327 547.272C15.9501 539.928 21.7651 532.57 27.5027 525.189C24.2807 515.618 18.2547 510.804 20.6633 495.696C19.8188 506.944 23.5583 515.043 28.6117 523.693L28.4034 524.028C34.1993 516.551 39.9116 509.052 45.5507 501.543C42.9368 495.991 38.9828 493.408 39.4423 484.069C39.6802 491.018 42.5161 495.734 46.1906 500.687C52.9241 491.701 59.5468 482.697 66.0733 473.677Z" fill="url(#paint1_linear_15_2241)"/>
</g>
<g clip-path="url(#clip2_15_2241)">
<path d="M501.036 622.054C492.711 629.912 485.037 630.974 474.47 633.28C472.894 633.577 463.252 635.143 462.657 635.039C461.349 635.652 459.724 640.014 458.808 641.904C456.524 646.607 448.96 662.798 446.029 664.144C445.63 664.003 445.164 663.919 444.791 663.497C444.128 662.733 444.317 662.599 444.643 662.036C444.659 661.863 451.268 650.481 451.891 649.296C454.614 644.047 457.559 639.204 459.824 633.671L456.896 629.156L453.354 623.621C451.294 619.921 448.77 616.504 446.904 612.754C441.068 601.059 441.667 596.028 443.66 583.058C444.033 581.709 444.463 580.013 444.974 578.773C448.341 571.124 450.993 565.45 455.838 558.47C456.96 556.849 457.948 555.46 459.179 553.825C459.603 553.256 460.195 552.707 460.735 552.112C468.14 543.916 477.035 537.583 486.334 531.66C489.033 529.944 491.821 528.343 494.5 526.632L498.617 524.327C502.131 522.492 505.771 521.109 509.024 518.844C511.322 517.245 512.169 515.132 514.072 513.937C514.856 515.928 513.787 518.46 514.049 520.715C514.324 523.063 514.974 524.779 515.737 527.174C519.339 538.422 521.783 554.232 522.681 565.616C523.389 574.551 522.754 582.219 520.531 589.629C519.354 593.547 517.857 597.377 516.262 600.9C512.439 609.341 507.87 615.603 501.036 622.054Z" stroke="url(#paint2_linear_15_2241)" stroke-miterlimit="22.9256"/>
<path d="M513.913 514.754C509.409 526.148 504.839 537.513 500.181 548.847C506.224 548.155 511.537 546.992 516.714 542.48C510.186 549.209 505.602 548.045 499.732 549.938C496.333 558.185 492.889 566.421 489.379 574.627C499.338 575.166 508.231 574.77 517.804 568.887C505.573 577.889 498.554 574.82 488.679 576.265C485.458 583.785 482.593 590.254 479.26 597.734C486.414 595.077 501.532 598.699 518.03 591.301C500.424 600.592 491.907 597.46 478.691 599.119C475.424 606.44 472.104 613.74 468.713 621.014C481.448 621.692 492.827 621.173 505.073 613.644C489.392 625.182 480.38 621.267 467.736 623.106C461.375 636.705 454.783 650.222 447.911 663.625C446.72 665.312 444.254 664.433 445.051 661.666C452.648 647.537 459.912 633.413 466.877 619.297C460.066 608.812 451.443 604.373 449.978 585.215C452.244 599.278 459.148 608.215 467.835 617.349C470.502 611.924 473.131 606.499 475.717 601.069C470.107 589.499 463.157 583.797 461.603 564.335C463.698 578.848 469.399 588.865 476.523 599.365C480.57 590.846 484.515 582.337 488.379 573.824C483.019 565.265 476.039 561.985 474.868 546.73C476.662 557.866 482.183 564.874 489.109 572.112L488.985 572.486C492.883 563.865 496.695 555.244 500.433 546.63C496.6 541.838 492.153 540.245 490.428 531.055C492.276 537.758 496.131 541.686 500.856 545.648C505.316 535.343 509.663 525.046 513.913 514.754Z" fill="url(#paint3_linear_15_2241)"/>
</g>
<g clip-path="url(#clip3_15_2241)">
<path d="M672.227 584.04C682.15 589.746 689.861 588.994 700.675 588.78C702.277 588.703 712.019 587.983 712.574 587.743C713.988 588.036 716.583 591.9 717.913 593.525C721.229 597.568 732.35 611.556 735.513 612.184C735.869 611.954 736.302 611.764 736.567 611.266C737.035 610.369 736.82 610.283 736.371 609.812C736.315 609.647 727.241 600.114 726.359 599.106C722.491 594.634 718.5 590.609 715.011 585.754L716.809 580.682L718.966 574.475C720.109 570.398 721.769 566.487 722.712 562.406C725.668 549.675 723.916 544.921 718.961 532.77C718.285 531.545 717.473 529.995 716.687 528.908C711.633 522.252 707.734 517.35 701.4 511.688C699.931 510.372 698.647 509.251 697.07 507.948C696.525 507.493 695.821 507.097 695.158 506.644C686.05 500.394 675.926 496.303 665.505 492.705C662.48 491.663 659.397 490.755 656.393 489.714L651.853 488.429C648.009 487.462 644.147 486.963 640.456 485.516C637.849 484.496 636.534 482.638 634.406 481.918C634.106 484.037 635.734 486.251 636.004 488.505C636.283 490.853 636.05 492.673 635.865 495.18C634.977 506.957 636.276 522.901 638.051 534.182C639.439 543.037 641.841 550.347 645.726 557.038C647.782 560.574 650.129 563.951 652.499 567.007C658.18 574.327 664.08 579.355 672.227 584.04Z" stroke="url(#paint4_linear_15_2241)" stroke-miterlimit="22.9256"/>
<path d="M634.751 482.677C641.781 492.711 648.868 502.701 656.034 512.641C649.996 513.374 644.558 513.478 638.474 510.294C646.388 515.32 650.575 513.122 656.724 513.598C661.948 520.828 667.213 528.037 672.535 535.203C662.974 538.042 654.233 539.726 643.554 536.23C657.544 542.141 663.657 537.524 673.596 536.633C678.479 543.197 682.769 548.823 687.75 555.323C680.174 554.402 666.313 561.44 648.547 558.082C667.831 563.024 675.386 557.997 688.625 556.537C693.506 562.898 698.432 569.226 703.422 575.512C691.194 579.133 680.006 581.274 666.344 576.799C684.279 584.374 692.134 578.471 704.858 577.32C714.207 589.066 723.762 600.68 733.563 612.117C735.113 613.481 737.307 612.053 735.889 609.546C725.215 597.572 714.865 585.525 704.808 573.415C708.994 561.634 716.348 555.311 713.318 536.337C714.385 550.542 709.748 560.84 703.423 571.744C699.568 567.087 695.75 562.422 691.971 557.743C694.738 545.185 700.171 538.023 697.156 518.733C698.493 533.336 695.279 544.403 690.791 556.272C684.874 548.928 679.059 541.57 673.321 534.189C676.543 524.618 682.569 519.804 680.161 504.696C681.005 515.944 677.266 524.043 672.212 532.693L672.421 533.028C666.625 525.551 660.912 518.052 655.273 510.543C657.887 504.991 661.841 502.408 661.382 493.069C661.144 500.018 658.308 504.734 654.633 509.687C647.9 500.701 641.277 491.697 634.751 482.677Z" fill="url(#paint5_linear_15_2241)"/>
</g>
<g clip-path="url(#clip4_15_2241)">
<path d="M3.36911 441.74C-7.95201 440.044 -13.5258 434.663 -21.8648 427.774C-23.0713 426.718 -30.2567 420.1 -30.542 419.567C-31.8321 418.917 -36.2661 420.332 -38.3186 420.779C-43.4284 421.886 -60.8344 425.933 -63.7029 424.458C-63.839 424.057 -64.0603 423.639 -63.9581 423.085C-63.7673 422.092 -63.5452 422.158 -62.9009 422.067C-62.7542 421.973 -49.7214 420.143 -48.4041 419.902C-42.5939 418.803 -36.9662 418.129 -31.2154 416.494L-29.4717 411.404L-27.304 405.2C-25.6662 401.295 -24.5359 397.2 -22.7381 393.417C-17.1426 381.605 -12.8151 378.97 -1.38205 372.529C-0.0904865 371.99 1.50867 371.281 2.79988 370.918C10.8957 368.843 16.9964 367.426 25.4781 366.927C27.4467 366.809 29.1489 366.728 31.195 366.688C31.9043 366.67 32.7019 366.797 33.5034 366.854C44.5224 367.618 54.9963 370.705 65.3969 374.363C68.414 375.426 71.394 376.631 74.3947 377.682L78.7495 379.497C82.3626 381.128 85.6982 383.137 89.4886 384.298C92.1649 385.118 94.3498 384.48 96.4652 385.239C95.3824 387.085 92.7311 387.808 91.1194 389.406C89.4412 391.072 88.4931 392.643 87.0802 394.722C80.4562 404.5 69.5297 416.184 61.1288 423.919C54.5377 429.994 48.1133 434.228 40.9118 437.055C37.1031 438.548 33.1663 439.735 29.41 440.656C20.4095 442.86 12.6635 443.133 3.36911 441.74Z" stroke="url(#paint6_linear_15_2241)" stroke-miterlimit="22.9256"/>
<path d="M95.7233 385.619C83.9796 389.111 72.2189 392.533 60.427 395.867C64.7023 400.194 68.8975 403.655 75.6435 404.942C66.3197 403.961 64.4051 399.636 59.2916 396.188C50.706 398.606 42.1005 400.982 33.478 403.288C39.2036 411.454 45.0055 418.206 55.5442 422.104C40.9113 418.04 38.9909 410.624 31.7577 403.749C23.8534 405.858 16.9957 407.599 9.05459 409.595C15.5615 413.583 22.0469 427.711 38.0522 436.12C19.8729 428.008 17.0784 419.375 7.61378 410.003C-0.163085 411.953 -7.95527 413.849 -15.7707 415.673C-8.44129 426.109 -1.0067 434.739 12.4774 439.724C-6.2808 434.513 -8.7662 425.006 -18.0195 416.196C-32.6443 419.589 -47.3466 422.749 -62.1335 425.619C-64.1959 425.724 -65.0267 423.242 -62.3578 422.159C-46.5536 419.412 -30.9582 416.406 -15.5534 413.169C-11.511 401.337 -13.3436 391.814 0.822036 378.831C-8.84135 389.297 -11.6083 400.246 -13.4298 412.72C-7.51528 411.468 -1.62509 410.186 4.24302 408.868C9.88001 397.311 10.0745 388.323 24.4245 375.084C14.3016 385.694 9.94216 396.362 6.08143 408.449C15.2814 406.373 24.4101 404.222 33.4924 402.005C36.9162 392.504 35.1865 384.989 46.463 374.649C38.811 382.936 36.7073 391.605 35.2906 401.523L34.9191 401.656C44.107 399.399 53.2422 397.075 62.3266 394.697C63.7293 388.723 62.237 384.241 68.4011 377.21C64.269 382.802 63.5593 388.26 63.3604 394.423C74.2198 391.568 85.0041 388.63 95.7233 385.619Z" fill="url(#paint7_linear_15_2241)"/>
</g>
<g clip-path="url(#clip5_15_2241)">
<path d="M713.953 467.943C725.274 466.246 730.848 460.865 739.187 453.977C740.393 452.921 747.579 446.302 747.864 445.77C749.154 445.12 753.588 446.535 755.641 446.981C760.751 448.088 778.157 452.135 781.025 450.661C781.161 450.26 781.382 449.842 781.28 449.288C781.089 448.294 780.867 448.36 780.223 448.27C780.076 448.175 767.044 446.346 765.726 446.105C759.916 445.005 754.288 444.332 748.538 442.697L746.794 437.606L744.626 431.402C742.988 427.498 741.858 423.403 740.06 419.619C734.465 407.808 730.137 405.172 718.704 398.732C717.413 398.193 715.813 397.483 714.522 397.12C706.426 395.046 700.326 393.629 691.844 393.13C689.875 393.012 688.173 392.931 686.127 392.89C685.418 392.872 684.62 392.999 683.819 393.057C672.8 393.821 662.326 396.907 651.925 400.565C648.908 401.629 645.928 402.834 642.927 403.884L638.573 405.7C634.96 407.331 631.624 409.34 627.834 410.5C625.157 411.321 622.972 410.683 620.857 411.441C621.94 413.288 624.591 414.01 626.203 415.609C627.881 417.275 628.829 418.846 630.242 420.925C636.866 430.703 647.792 442.387 656.193 450.122C662.784 456.196 669.209 460.431 676.41 463.258C680.219 464.751 684.156 465.938 687.912 466.859C696.913 469.063 704.659 469.336 713.953 467.943Z" stroke="url(#paint8_linear_15_2241)" stroke-miterlimit="22.9256"/>
<path d="M621.599 411.822C633.343 415.314 645.103 418.736 656.895 422.07C652.62 426.397 648.425 429.857 641.679 431.144C651.002 430.163 652.917 425.839 658.031 422.391C666.616 424.809 675.222 427.184 683.844 429.49C678.118 437.657 672.317 444.408 661.778 448.306C676.411 444.243 678.331 436.827 685.564 429.952C693.469 432.06 700.326 433.801 708.268 435.798C701.761 439.785 695.275 453.913 679.27 462.323C697.449 454.21 700.244 445.577 709.708 436.206C717.485 438.156 725.277 440.052 733.093 441.876C725.763 452.311 718.329 460.942 704.845 465.926C723.603 460.715 726.088 451.209 735.342 442.399C749.966 445.792 764.669 448.952 779.456 451.821C781.518 451.927 782.349 449.444 779.68 448.362C763.876 445.614 748.28 442.608 732.875 439.371C728.833 427.54 730.666 418.016 716.5 405.034C726.163 415.5 728.93 426.449 730.752 438.922C724.837 437.67 718.947 436.388 713.079 435.07C707.442 423.513 707.248 414.526 692.898 401.287C703.021 411.896 707.38 422.564 711.241 434.652C702.041 432.576 692.912 430.425 683.83 428.208C680.406 418.707 682.136 411.191 670.859 400.851C678.511 409.139 680.615 417.808 682.032 427.725L682.403 427.858C673.215 425.602 664.08 423.278 654.996 420.899C653.593 414.925 655.085 410.444 648.921 403.413C653.053 409.005 653.763 414.463 653.962 420.626C643.102 417.771 632.318 414.833 621.599 411.822Z" fill="url(#paint9_linear_15_2241)"/>
</g>
<g clip-path="url(#clip6_15_2241)">
<path d="M698.953 353.943C710.274 352.246 715.848 346.865 724.187 339.977C725.393 338.921 732.579 332.302 732.864 331.77C734.154 331.12 738.588 332.535 740.641 332.981C745.751 334.088 763.157 338.135 766.025 336.661C766.161 336.26 766.382 335.842 766.28 335.288C766.089 334.294 765.867 334.36 765.223 334.27C765.076 334.175 752.044 332.346 750.726 332.105C744.916 331.005 739.288 330.332 733.538 328.697L731.794 323.606L729.626 317.402C727.988 313.498 726.858 309.403 725.06 305.619C719.465 293.808 715.137 291.172 703.704 284.732C702.413 284.193 700.813 283.483 699.522 283.12C691.426 281.046 685.326 279.629 676.844 279.13C674.875 279.012 673.173 278.931 671.127 278.89C670.418 278.872 669.62 278.999 668.819 279.057C657.8 279.821 647.326 282.907 636.925 286.565C633.908 287.629 630.928 288.834 627.927 289.884L623.573 291.7C619.96 293.331 616.624 295.34 612.834 296.5C610.157 297.321 607.972 296.683 605.857 297.441C606.94 299.288 609.591 300.01 611.203 301.609C612.881 303.275 613.829 304.846 615.242 306.925C621.866 316.703 632.792 328.387 641.193 336.122C647.784 342.196 654.209 346.431 661.41 349.258C665.219 350.751 669.156 351.938 672.912 352.859C681.913 355.063 689.659 355.336 698.953 353.943Z" stroke="url(#paint10_linear_15_2241)" stroke-miterlimit="22.9256"/>
<path d="M606.599 297.822C618.343 301.314 630.103 304.736 641.895 308.07C637.62 312.397 633.425 315.857 626.679 317.144C636.002 316.163 637.917 311.839 643.031 308.391C651.616 310.809 660.222 313.184 668.844 315.49C663.118 323.657 657.317 330.408 646.778 334.306C661.411 330.243 663.331 322.827 670.564 315.952C678.469 318.06 685.326 319.801 693.268 321.798C686.761 325.785 680.275 339.913 664.27 348.323C682.449 340.21 685.244 331.577 694.708 322.206C702.485 324.156 710.277 326.052 718.093 327.876C710.763 338.311 703.329 346.942 689.845 351.926C708.603 346.715 711.088 337.209 720.342 328.399C734.966 331.792 749.669 334.952 764.456 337.821C766.518 337.927 767.349 335.444 764.68 334.362C748.876 331.614 733.28 328.608 717.875 325.371C713.833 313.54 715.666 304.016 701.5 291.034C711.163 301.5 713.93 312.449 715.752 324.922C709.837 323.67 703.947 322.388 698.079 321.07C692.442 309.513 692.248 300.526 677.898 287.287C688.021 297.896 692.38 308.564 696.241 320.652C687.041 318.576 677.912 316.425 668.83 314.208C665.406 304.707 667.136 297.191 655.859 286.851C663.511 295.139 665.615 303.808 667.032 313.725L667.403 313.858C658.215 311.602 649.08 309.278 639.996 306.899C638.593 300.925 640.085 296.444 633.921 289.413C638.053 295.005 638.763 300.463 638.962 306.626C628.102 303.771 617.318 300.833 606.599 297.822Z" fill="url(#paint11_linear_15_2241)"/>
</g>
<g clip-path="url(#clip7_15_2241)">
<path d="M18.8674 199.943C7.54629 198.246 1.97248 192.865 -6.36652 185.977C-7.57298 184.921 -14.7584 178.302 -15.0437 177.77C-16.3338 177.12 -20.7679 178.535 -22.8203 178.981C-27.9301 180.088 -45.3361 184.135 -48.2047 182.661C-48.3407 182.26 -48.562 181.842 -48.4598 181.288C-48.269 180.294 -48.0469 180.36 -47.4027 180.27C-47.2559 180.175 -34.2232 178.346 -32.9058 178.105C-27.0956 177.005 -21.4679 176.332 -15.7171 174.697L-13.9734 169.606L-11.8057 163.402C-10.1679 159.498 -9.03756 155.403 -7.23981 151.619C-1.64435 139.808 2.68323 137.172 14.1162 130.732C15.4078 130.193 17.007 129.483 18.2982 129.12C26.394 127.046 32.4947 125.629 40.9764 125.13C42.945 125.012 44.6471 124.931 46.6933 124.89C47.4026 124.872 48.2002 124.999 49.0017 125.057C60.0207 125.821 70.4946 128.907 80.8952 132.565C83.9123 133.629 86.8923 134.834 89.893 135.884L94.2478 137.7C97.8609 139.331 101.197 141.34 104.987 142.5C107.663 143.321 109.848 142.683 111.963 143.441C110.881 145.288 108.229 146.01 106.618 147.609C104.939 149.275 103.991 150.846 102.579 152.925C95.9545 162.703 85.028 174.387 76.6271 182.122C70.036 188.196 63.6116 192.431 56.4101 195.258C52.6014 196.751 48.6646 197.938 44.9083 198.859C35.9078 201.063 28.1618 201.336 18.8674 199.943Z" stroke="url(#paint12_linear_15_2241)" stroke-miterlimit="22.9256"/>
<path d="M111.222 143.822C99.4779 147.314 87.7171 150.736 75.9253 154.07C80.2006 158.397 84.3958 161.857 91.1418 163.144C81.818 162.163 79.9034 157.839 74.7899 154.391C66.2043 156.809 57.5988 159.184 48.9763 161.49C54.7019 169.657 60.5038 176.408 71.0425 180.306C56.4096 176.243 54.4892 168.827 47.256 161.952C39.3517 164.06 32.494 165.801 24.5529 167.798C31.0598 171.785 37.5452 185.913 53.5505 194.323C35.3712 186.21 32.5767 177.577 23.1121 168.206C15.3352 170.156 7.54302 172.052 -0.272394 173.876C7.057 184.311 14.4916 192.942 27.9757 197.926C9.21749 192.715 6.7321 183.209 -2.52126 174.399C-17.146 177.792 -31.8483 180.952 -46.6352 183.821C-48.6976 183.927 -49.5284 181.444 -46.8595 180.362C-31.0553 177.614 -15.4599 174.608 -0.0550635 171.371C3.98726 159.54 2.15471 150.016 16.3203 137.034C6.65694 147.5 3.88996 158.449 2.06851 170.922C7.98301 169.67 13.8732 168.388 19.7413 167.07C25.3783 155.513 25.5728 146.526 39.9228 133.287C29.7998 143.896 25.4404 154.564 21.5797 166.652C30.7797 164.576 39.9083 162.425 48.9906 160.208C52.4144 150.707 50.6848 143.191 61.9613 132.851C54.3093 141.139 52.2056 149.808 50.7889 159.725L50.4174 159.858C59.6053 157.602 68.7405 155.278 77.8249 152.899C79.2276 146.925 77.7353 142.444 83.8994 135.413C79.7673 141.005 79.0576 146.463 78.8587 152.626C89.7181 149.771 100.502 146.833 111.222 143.822Z" fill="url(#paint13_linear_15_2241)"/>
</g>
<g clip-path="url(#clip8_15_2241)">
<path d="M699.957 154.943C711.278 153.246 716.851 147.865 725.19 140.977C726.397 139.921 733.582 133.302 733.868 132.77C735.158 132.12 739.592 133.535 741.644 133.981C746.754 135.088 764.16 139.135 767.029 137.661C767.165 137.26 767.386 136.842 767.284 136.288C767.093 135.294 766.871 135.36 766.227 135.27C766.08 135.175 753.047 133.346 751.73 133.105C745.92 132.005 740.292 131.332 734.541 129.697L732.797 124.606L730.63 118.402C728.992 114.498 727.861 110.403 726.064 106.619C720.468 94.8079 716.141 92.1723 704.708 85.7317C703.416 85.1927 701.817 84.4834 700.526 84.1202C692.43 82.0459 686.329 80.629 677.848 80.13C675.879 80.0119 674.177 79.9311 672.131 79.8903C671.421 79.8725 670.624 79.9992 669.822 80.057C658.803 80.821 648.329 83.9072 637.929 87.5652C634.912 88.6288 631.932 89.8338 628.931 90.8844L624.576 92.6995C620.963 94.3306 617.627 96.34 613.837 97.5004C611.161 98.321 608.976 97.683 606.86 98.4414C607.943 100.288 610.594 101.01 612.206 102.609C613.884 104.275 614.833 105.846 616.245 107.925C622.869 117.703 633.796 129.387 642.197 137.122C648.788 143.196 655.212 147.431 662.414 150.258C666.223 151.751 670.159 152.938 673.916 153.859C682.916 156.063 690.662 156.336 699.957 154.943Z" stroke="url(#paint14_linear_15_2241)" stroke-miterlimit="22.9256"/>
<path d="M607.602 98.8216C619.346 102.314 631.107 105.736 642.899 109.07C638.623 113.397 634.428 116.857 627.682 118.144C637.006 117.163 638.921 112.839 644.034 109.391C652.62 111.809 661.225 114.184 669.848 116.49C664.122 124.657 658.32 131.408 647.781 135.306C662.414 131.243 664.335 123.827 671.568 116.952C679.472 119.06 686.33 120.801 694.271 122.798C687.764 126.785 681.279 140.913 665.273 149.323C683.453 141.21 686.247 132.577 695.712 123.206C703.489 125.156 711.281 127.052 719.096 128.876C711.767 139.311 704.332 147.942 690.848 152.926C709.606 147.715 712.092 138.209 721.345 129.399C735.97 132.792 750.672 135.952 765.459 138.821C767.521 138.927 768.352 136.444 765.683 135.362C749.879 132.614 734.284 129.608 718.879 126.371C714.837 114.54 716.669 105.016 702.504 92.0339C712.167 102.5 714.934 113.449 716.755 125.922C710.841 124.67 704.951 123.388 699.083 122.07C693.446 110.513 693.251 101.526 678.901 88.2867C689.024 98.8962 693.383 109.564 697.244 121.652C688.044 119.576 678.916 117.425 669.833 115.208C666.409 105.707 668.139 98.1912 656.863 87.8513C664.515 96.1387 666.618 104.808 668.035 114.725L668.407 114.858C659.219 112.602 650.083 110.278 640.999 107.899C639.596 101.925 641.089 97.4441 634.924 90.4129C639.057 96.0047 639.766 101.463 639.965 107.626C629.106 104.771 618.322 101.833 607.602 98.8216Z" fill="url(#paint15_linear_15_2241)"/>
</g>
<g clip-path="url(#clip9_15_2241)">
<path d="M343.304 -15.9643C333.014 -20.9801 325.372 -19.7038 314.598 -18.7521C313.006 -18.5655 303.335 -17.1824 302.798 -16.9052C301.367 -17.1007 298.515 -20.7785 297.076 -22.3094C293.493 -26.1164 281.442 -39.3126 278.243 -39.7228C277.904 -39.4694 277.485 -39.2504 277.255 -38.7358C276.849 -37.8089 277.07 -37.7377 277.55 -37.2981C277.617 -37.1369 287.32 -28.246 288.269 -27.3009C292.434 -23.103 296.69 -19.36 300.502 -14.7546L299.055 -9.57182L297.326 -3.23137C296.464 0.91392 295.075 4.92884 294.413 9.06486C292.332 21.968 294.405 26.5915 300.178 38.3761C300.936 39.552 301.852 41.0425 302.711 42.0733C308.207 48.3693 312.431 52.9931 319.137 58.2096C320.693 59.4222 322.05 60.4531 323.713 61.646C324.287 62.0625 325.016 62.4099 325.709 62.8164C335.222 68.4296 345.601 71.8204 356.244 74.6985C359.333 75.5314 362.471 76.2267 365.539 77.061L370.156 78.0325C374.057 78.7354 377.944 78.9694 381.725 80.1606C384.396 81.0006 385.834 82.7642 388.007 83.3377C388.161 81.203 386.386 79.1054 385.963 76.8751C385.524 74.5515 385.633 72.7197 385.646 70.2064C385.728 58.3959 383.344 42.5775 380.803 31.4442C378.813 22.7046 375.918 15.5756 371.586 9.16587C369.293 5.77761 366.722 2.56958 364.148 -0.317475C357.98 -7.23315 351.752 -11.8462 343.304 -15.9643Z" stroke="url(#paint16_linear_15_2241)" stroke-miterlimit="22.9256"/>
<path d="M387.611 82.6046C379.912 73.0738 372.16 63.5906 364.332 54.1628C370.306 53.0194 375.724 52.5446 382.012 55.3061C373.773 50.8321 369.745 53.3108 363.578 53.2549C357.873 46.3984 352.128 39.5655 346.329 32.7803C355.674 29.2946 364.28 27.0183 375.172 29.7769C360.812 24.8351 355.028 29.858 345.173 31.4255C339.854 25.2099 335.19 19.89 329.777 13.7457C337.398 14.1465 350.746 6.17891 368.699 8.31682C349.123 4.70239 341.929 10.2331 328.821 12.5936C323.517 6.58039 318.17 0.60369 312.763 -5.32705C324.716 -9.77414 335.731 -12.6736 349.667 -9.14192C331.257 -15.475 323.823 -9.04943 311.207 -7.03243C301.078 -18.1136 290.753 -29.0473 280.194 -39.7892C278.554 -41.0444 276.463 -39.4696 278.049 -37.0657C289.516 -25.8479 300.664 -14.5352 311.524 -3.14037C308.152 8.89936 301.246 15.7089 305.564 34.4321C303.531 20.333 307.453 9.74315 313.019 -1.5672C317.184 2.81532 321.311 7.20871 325.4 11.6194C323.497 24.3364 318.566 31.8524 322.89 50.8918C320.559 36.4141 323.011 25.1534 326.678 13.0058C333.083 19.9287 339.386 26.873 345.614 33.8454C343.053 43.614 337.37 48.8273 340.804 63.7364C339.194 52.5721 342.372 44.2364 346.823 35.2617L346.592 34.9416C352.885 42.0062 359.096 49.0972 365.234 56.2036C363.005 61.9212 359.237 64.7683 360.333 74.0545C360.096 67.1056 362.603 62.2061 365.931 57.0146C373.262 65.5194 380.484 74.0504 387.611 82.6046Z" fill="url(#paint17_linear_15_2241)"/>
</g>
<g clip-path="url(#clip10_15_2241)">
<path d="M140.597 -12.5265C130.674 -18.2329 122.963 -17.4813 112.149 -17.2672C110.547 -17.1897 100.805 -16.47 100.25 -16.2301C98.8358 -16.5227 96.2412 -20.3867 94.9109 -22.0122C91.5954 -26.0549 80.474 -40.0429 77.3105 -40.6705C76.9547 -40.4408 76.5216 -40.2509 76.2572 -39.7533C75.7892 -38.8562 76.0043 -38.7701 76.4528 -38.2988C76.5089 -38.1334 85.5825 -28.6009 86.4646 -27.5933C90.3331 -23.1208 94.3238 -19.096 97.8131 -14.2412L96.0155 -9.16926L93.858 -2.96159C92.7146 1.11516 91.0552 5.02593 90.1124 9.10712C87.1557 21.8381 88.9081 26.5924 93.8625 38.7435C94.5394 39.9684 95.3514 41.5179 96.1373 42.6049C101.191 49.2613 105.09 54.1628 111.424 59.8248C112.893 61.1408 114.177 62.2619 115.754 63.5655C116.299 64.0203 117.003 64.4167 117.666 64.8695C126.774 71.1189 136.898 75.2103 147.319 78.8081C150.344 79.8499 153.427 80.7579 156.431 81.7996L160.971 83.084C164.815 84.0515 168.677 84.5503 172.368 85.9968C174.975 87.0171 176.29 88.8749 178.418 89.5953C178.718 87.476 177.09 85.2622 176.82 83.0082C176.541 80.6601 176.774 78.84 176.959 76.3334C177.847 64.5561 176.548 48.6118 174.773 37.3311C173.385 28.4761 170.983 21.166 167.098 14.4756C165.042 10.9387 162.695 7.56263 160.325 4.50664C154.644 -2.8139 148.744 -7.84137 140.597 -12.5265Z" stroke="url(#paint18_linear_15_2241)" stroke-miterlimit="22.9256"/>
<path d="M178.073 88.8366C171.043 78.8025 163.956 68.8122 156.79 58.8721C162.828 58.1392 168.266 58.0353 174.35 61.2195C166.436 56.1937 162.249 58.3916 156.1 57.9149C150.876 50.685 145.611 43.4759 140.289 36.3106C149.85 33.471 158.591 31.7874 169.27 35.2831C155.28 29.3726 149.167 33.989 139.228 34.8801C134.345 28.316 130.055 22.69 125.074 16.1907C132.65 17.1107 146.511 10.0728 164.277 13.4312C144.993 8.48893 137.438 13.5157 124.199 14.9759C119.318 8.61475 114.392 2.28701 109.402 -3.99895C121.63 -7.61985 132.818 -9.76062 146.48 -5.28598C128.545 -12.8609 120.69 -6.95775 107.966 -5.80661C98.6166 -17.5533 89.0623 -29.1663 79.261 -40.6039C77.7106 -41.9681 75.517 -40.5397 76.9354 -38.0332C87.6094 -26.0588 97.9593 -14.0116 108.016 -1.90199C103.83 9.87948 96.4759 16.2018 99.5057 35.1761C98.4395 20.971 103.076 10.6736 109.401 -0.230413C113.256 4.42614 117.074 9.09102 120.853 13.7705C118.086 26.328 112.653 33.4898 115.668 52.78C114.331 38.177 117.545 27.1099 122.033 15.2409C127.95 22.5848 133.765 29.9432 139.503 37.3245C136.281 46.8954 130.255 51.7087 132.663 66.8174C131.819 55.5692 135.558 47.4699 140.612 38.8199L140.403 38.4849C146.199 45.9625 151.912 53.4609 157.551 60.9697C154.937 66.5219 150.983 69.1051 151.442 78.4444C151.68 71.4956 154.516 66.7787 158.191 61.8264C164.924 70.8118 171.547 79.8159 178.073 88.8366Z" fill="url(#paint19_linear_15_2241)"/>
</g>
<g clip-path="url(#clip11_15_2241)">
<path d="M44.5974 329.04C34.6736 334.746 26.9627 333.994 16.1488 333.78C14.5474 333.703 4.80481 332.983 4.25037 332.743C2.83578 333.036 0.241181 336.9 -1.08915 338.525C-4.40456 342.568 -15.526 356.556 -18.6895 357.184C-19.0453 356.954 -19.4784 356.764 -19.7428 356.266C-20.2108 355.369 -19.9957 355.283 -19.5472 354.812C-19.4911 354.647 -10.4175 345.114 -9.53536 344.106C-5.66688 339.634 -1.67624 335.609 1.81311 330.754L0.0154517 325.682L-2.14198 319.475C-3.2854 315.398 -4.94481 311.487 -5.88756 307.406C-8.84433 294.675 -7.09188 289.921 -2.13749 277.77C-1.46063 276.545 -0.64856 274.995 0.137285 273.908C5.19072 267.252 9.08968 262.35 15.4245 256.688C16.8934 255.372 18.1767 254.251 19.7543 252.948C20.299 252.493 21.0026 252.097 21.6664 251.644C30.7739 245.394 40.8976 241.303 51.3191 237.705C54.3438 236.663 57.4273 235.755 60.4312 234.714L64.9709 233.429C68.8152 232.462 72.6772 231.963 76.3679 230.516C78.9746 229.496 80.2899 227.638 82.4185 226.918C82.7176 229.037 81.0895 231.251 80.8203 233.505C80.5408 235.853 80.7745 237.673 80.9594 240.18C81.8468 251.957 80.5479 267.901 78.7733 279.182C77.3846 288.037 74.9831 295.347 71.0982 302.038C69.0423 305.574 66.6954 308.951 64.3249 312.007C58.6437 319.327 52.7445 324.355 44.5974 329.04Z" stroke="url(#paint20_linear_15_2241)" stroke-miterlimit="22.9256"/>
<path d="M82.0733 227.677C75.043 237.711 67.9562 247.701 60.7899 257.641C66.8284 258.374 72.2656 258.478 78.3505 255.294C70.4362 260.32 66.2488 258.122 60.0999 258.598C54.8763 265.828 49.6107 273.037 44.2887 280.203C53.8496 283.042 62.5908 284.726 73.2696 281.23C59.2804 287.141 53.1671 282.524 43.2276 281.633C38.3454 288.197 34.0549 293.823 29.0743 300.323C36.6501 299.402 50.5111 306.44 68.2766 303.082C48.9926 308.024 41.4381 302.997 28.1989 301.537C23.3183 307.898 18.3917 314.226 13.4024 320.512C25.6301 324.133 36.818 326.274 50.4798 321.799C32.5453 329.374 24.6902 323.471 11.9658 322.32C2.61662 334.066 -6.9377 345.68 -16.739 357.117C-18.2894 358.481 -20.483 357.053 -19.0646 354.546C-8.3906 342.572 1.95925 330.525 12.0163 318.415C7.83027 306.634 0.475932 300.311 3.50575 281.337C2.43948 295.542 7.07611 305.84 13.4009 316.744C17.2565 312.087 21.0744 307.422 24.8526 302.743C22.0864 290.185 16.6535 283.023 19.668 263.733C18.3308 278.336 21.5455 289.403 26.0327 301.272C31.9501 293.928 37.7651 286.57 43.5027 279.189C40.2807 269.618 34.2547 264.804 36.6633 249.696C35.8188 260.944 39.5583 269.043 44.6117 277.693L44.4034 278.028C50.1993 270.551 55.9116 263.052 61.5507 255.543C58.9368 249.991 54.9828 247.408 55.4423 238.069C55.6802 245.018 58.5161 249.734 62.1906 254.687C68.9241 245.701 75.5468 236.697 82.0733 227.677Z" fill="url(#paint21_linear_15_2241)"/>
</g>
<g clip-path="url(#clip12_15_2241)">
<path d="M677.739 173.741C688.959 171.468 696.036 174.622 706.226 178.248C707.72 178.828 716.734 182.594 717.184 182.997C718.619 183.167 722.303 180.323 724.079 179.202C728.504 176.417 743.481 166.668 746.68 167.074C746.945 167.404 747.296 167.721 747.389 168.277C747.549 169.276 747.318 169.29 746.743 169.595C746.638 169.734 735.014 175.905 733.858 176.581C728.773 179.599 723.713 182.154 718.867 185.655L718.967 191.035L719.049 197.607C718.843 201.836 719.179 206.071 718.782 210.241C717.557 223.253 714.39 227.208 705.845 237.166C704.815 238.114 703.554 239.327 702.465 240.109C695.564 244.824 690.314 248.24 682.513 251.606C680.703 252.389 679.131 253.046 677.222 253.784C676.562 254.043 675.769 254.196 674.996 254.415C664.378 257.461 653.48 258.138 642.456 258.252C639.257 258.283 636.044 258.169 632.865 258.206L628.152 257.988C624.2 257.689 620.378 256.94 616.419 257.144C613.624 257.286 611.788 258.632 609.541 258.642C609.928 256.537 612.173 254.952 613.142 252.9C614.15 250.761 614.505 248.96 615.122 246.524C618.008 235.071 624.287 220.358 629.54 210.218C633.66 202.258 638.252 196.084 644.055 190.967C647.124 188.263 650.419 185.803 653.635 183.654C661.341 178.508 668.528 175.606 677.739 173.741Z" stroke="url(#paint22_linear_15_2241)" stroke-miterlimit="22.9256"/>
<path d="M610.109 258.032C619.953 250.739 629.838 243.505 639.782 236.344C634.286 233.737 629.161 231.918 622.381 233.013C631.479 230.75 634.755 234.16 640.739 235.654C647.982 230.449 655.259 225.277 662.575 220.165C654.405 214.445 646.646 210.082 635.409 210.018C650.55 208.839 654.888 215.153 664.035 219.144C670.743 214.462 676.594 210.484 683.375 205.895C675.898 204.37 664.977 193.307 647.062 190.869C666.919 192.285 672.494 199.444 684.59 205.019C691.233 200.53 697.909 196.087 704.632 191.703C694.179 184.398 684.243 178.827 669.868 178.747C689.278 177.238 694.861 185.324 706.567 190.443C719.153 182.259 731.892 174.267 744.809 166.52C746.712 165.716 748.34 167.766 746.202 169.694C732.286 177.675 718.656 185.827 705.283 194.131C705.525 206.632 710.5 214.957 701.621 231.996C707.128 218.859 705.989 207.624 703.44 195.278C698.309 198.475 693.211 201.692 688.146 204.935C686.796 217.723 689.683 226.236 680.718 243.58C686.608 230.151 687.061 218.635 686.561 205.956C678.624 211.05 670.779 216.19 663 221.375C663.027 231.474 667.22 237.947 660.153 251.517C664.514 241.114 663.531 232.248 661.475 222.443L661.778 222.191C653.914 227.45 646.122 232.755 638.396 238.093C639.118 244.187 642.051 247.889 638.66 256.603C640.633 249.936 639.436 244.564 637.518 238.703C628.287 245.095 619.155 251.54 610.109 258.032Z" fill="url(#paint23_linear_15_2241)"/>
</g>
<g clip-path="url(#clip13_15_2241)">
<path d="M633.227 -26.5265C643.15 -32.2329 650.861 -31.4813 661.675 -31.2672C663.277 -31.1897 673.019 -30.47 673.574 -30.2301C674.988 -30.5227 677.583 -34.3867 678.913 -36.0122C682.229 -40.0549 693.35 -54.0429 696.513 -54.6705C696.869 -54.4408 697.302 -54.2509 697.567 -53.7533C698.035 -52.8562 697.82 -52.7701 697.371 -52.2988C697.315 -52.1334 688.241 -42.6009 687.359 -41.5933C683.491 -37.1208 679.5 -33.096 676.011 -28.2412L677.809 -23.1693L679.966 -16.9616C681.109 -12.8848 682.769 -8.97407 683.712 -4.89288C686.668 7.83808 684.916 12.5924 679.961 24.7435C679.285 25.9684 678.473 27.5179 677.687 28.6049C672.633 35.2613 668.734 40.1628 662.4 45.8248C660.931 47.1408 659.647 48.2619 658.07 49.5655C657.525 50.0203 656.821 50.4167 656.158 50.8695C647.05 57.1189 636.926 61.2103 626.505 64.8081C623.48 65.8499 620.397 66.7579 617.393 67.7996L612.853 69.084C609.009 70.0515 605.147 70.5503 601.456 71.9968C598.849 73.0171 597.534 74.8749 595.406 75.5953C595.106 73.476 596.734 71.2622 597.004 69.0082C597.283 66.6601 597.05 64.84 596.865 62.3334C595.977 50.5561 597.276 34.6118 599.051 23.3311C600.439 14.4761 602.841 7.16605 606.726 0.475574C608.782 -3.06127 611.129 -6.43737 613.499 -9.49336C619.18 -16.8139 625.08 -21.8414 633.227 -26.5265Z" stroke="url(#paint24_linear_15_2241)" stroke-miterlimit="22.9256"/>
<path d="M595.751 74.8366C602.781 64.8025 609.868 54.8122 617.034 44.8721C610.996 44.1392 605.558 44.0353 599.474 47.2195C607.388 42.1937 611.575 44.3916 617.724 43.9149C622.948 36.685 628.213 29.4759 633.535 22.3106C623.974 19.471 615.233 17.7874 604.554 21.2831C618.544 15.3726 624.657 19.989 634.596 20.8801C639.479 14.316 643.769 8.69005 648.75 2.19066C641.174 3.11069 627.313 -3.9272 609.547 -0.568811C628.831 -5.51107 636.386 -0.484259 649.625 0.975897C654.506 -5.38525 659.432 -11.713 664.422 -17.999C652.194 -21.6198 641.006 -23.7606 627.344 -19.286C645.279 -26.8609 653.134 -20.9578 665.858 -19.8066C675.207 -31.5533 684.762 -43.1663 694.563 -54.6039C696.113 -55.9681 698.307 -54.5397 696.889 -52.0332C686.215 -40.0588 675.865 -28.0116 665.808 -15.902C669.994 -4.12052 677.348 2.20179 674.318 21.1761C675.384 6.97098 670.748 -3.32635 664.423 -14.2304C660.568 -9.57386 656.75 -4.90898 652.971 -0.229514C655.738 12.328 661.171 19.4898 658.156 38.78C659.493 24.177 656.279 13.1099 651.791 1.24093C645.874 8.58479 640.059 15.9432 634.321 23.3245C637.543 32.8954 643.569 37.7087 641.161 52.8174C642.005 41.5692 638.266 33.4699 633.212 24.8199L633.421 24.4849C627.625 31.9625 621.912 39.4609 616.273 46.9697C618.887 52.5219 622.841 55.1051 622.382 64.4444C622.144 57.4956 619.308 52.7787 615.633 47.8264C608.9 56.8118 602.277 65.8159 595.751 74.8366Z" fill="url(#paint25_linear_15_2241)"/>
</g>
<g clip-path="url(#clip14_15_2241)">
<path d="M117.227 599.04C127.15 604.746 134.861 603.994 145.675 603.78C147.277 603.703 157.019 602.983 157.574 602.743C158.988 603.036 161.583 606.9 162.913 608.525C166.229 612.568 177.35 626.556 180.513 627.184C180.869 626.954 181.302 626.764 181.567 626.266C182.035 625.369 181.82 625.283 181.371 624.812C181.315 624.647 172.241 615.114 171.359 614.106C167.491 609.634 163.5 605.609 160.011 600.754L161.809 595.682L163.966 589.475C165.109 585.398 166.769 581.487 167.712 577.406C170.668 564.675 168.916 559.921 163.961 547.77C163.285 546.545 162.473 544.995 161.687 543.908C156.633 537.252 152.734 532.35 146.4 526.688C144.931 525.372 143.647 524.251 142.07 522.948C141.525 522.493 140.821 522.097 140.158 521.644C131.05 515.394 120.926 511.303 110.505 507.705C107.48 506.663 104.397 505.755 101.393 504.714L96.8531 503.429C93.0088 502.462 89.1468 501.963 85.456 500.516C82.8493 499.496 81.5341 497.638 79.4055 496.918C79.1064 499.037 80.7345 501.251 81.0037 503.505C81.2832 505.853 81.0495 507.673 80.8646 510.18C79.9772 521.957 81.2761 537.901 83.0507 549.182C84.4394 558.037 86.8409 565.347 90.7257 572.038C92.7817 575.574 95.1285 578.951 97.499 582.007C103.18 589.327 109.08 594.355 117.227 599.04Z" stroke="url(#paint26_linear_15_2241)" stroke-miterlimit="22.9256"/>
<path d="M79.7507 497.677C86.7809 507.711 93.8678 517.701 101.034 527.641C94.9956 528.374 89.5583 528.478 83.4735 525.294C91.3878 530.32 95.5752 528.122 101.724 528.598C106.948 535.828 112.213 543.037 117.535 550.203C107.974 553.042 99.2332 554.726 88.5544 551.23C102.544 557.141 108.657 552.524 118.596 551.633C123.479 558.197 127.769 563.823 132.75 570.323C125.174 569.402 111.313 576.44 93.5474 573.082C112.831 578.024 120.386 572.997 133.625 571.537C138.506 577.898 143.432 584.226 148.422 590.512C136.194 594.133 125.006 596.274 111.344 591.799C129.279 599.374 137.134 593.471 149.858 592.32C159.207 604.066 168.762 615.68 178.563 627.117C180.113 628.481 182.307 627.053 180.889 624.546C170.215 612.572 159.865 600.525 149.808 588.415C153.994 576.634 161.348 570.311 158.318 551.337C159.384 565.542 154.748 575.84 148.423 586.744C144.568 582.087 140.75 577.422 136.971 572.743C139.738 560.185 145.171 553.023 142.156 533.733C143.493 548.336 140.279 559.403 135.791 571.272C129.874 563.928 124.059 556.57 118.321 549.189C121.543 539.618 127.569 534.804 125.161 519.696C126.005 530.944 122.266 539.043 117.212 547.693L117.421 548.028C111.625 540.551 105.912 533.052 100.273 525.543C102.887 519.991 106.841 517.408 106.382 508.069C106.144 515.018 103.308 519.734 99.6333 524.687C92.8998 515.701 86.2771 506.697 79.7507 497.677Z" fill="url(#paint27_linear_15_2241)"/>
</g>
<g clip-path="url(#clip15_15_2241)">
<path d="M604.639 623.299C596.222 631.059 588.536 632.031 577.943 634.213C576.364 634.492 566.703 635.944 566.109 635.833C564.795 636.431 563.119 640.773 562.181 642.653C559.841 647.329 552.089 663.43 549.142 664.741C548.744 664.596 548.28 664.507 547.912 664.08C547.257 663.308 547.448 663.177 547.781 662.618C547.799 662.444 554.54 651.141 555.178 649.963C557.962 644.746 560.963 639.939 563.293 634.432L560.418 629.884L556.941 624.307C554.925 620.584 552.441 617.137 550.619 613.365C544.921 601.603 545.578 596.579 547.723 583.633C548.112 582.289 548.562 580.598 549.088 579.364C552.544 571.755 555.262 566.113 560.188 559.19C561.33 557.582 562.333 556.205 563.584 554.585C564.014 554.021 564.613 553.478 565.16 552.89C572.66 544.781 581.628 538.552 590.996 532.739C593.716 531.054 596.522 529.487 599.221 527.807L603.365 525.55C606.9 523.756 610.556 522.416 613.835 520.189C616.152 518.618 617.024 516.515 618.94 515.342C619.701 517.342 618.602 519.861 618.838 522.119C619.085 524.471 619.715 526.194 620.45 528.598C623.92 539.887 626.179 555.724 626.943 567.118C627.547 576.061 626.821 583.721 624.512 591.105C623.289 595.009 621.747 598.82 620.111 602.325C616.189 610.721 611.548 616.928 604.639 623.299Z" stroke="url(#paint28_linear_15_2241)" stroke-miterlimit="22.9256"/>
<path d="M618.771 516.158C614.134 527.498 609.432 538.808 604.641 550.087C610.692 549.466 616.018 548.365 621.248 543.914C614.641 550.566 610.071 549.348 604.18 551.173C600.684 559.379 597.143 567.574 593.538 575.739C603.49 576.394 612.387 576.103 622.028 570.332C609.692 579.19 602.71 576.04 592.819 577.369C589.509 584.85 586.569 591.285 583.149 598.725C590.334 596.153 605.408 599.951 621.991 592.747C604.278 601.832 595.798 598.6 582.564 600.104C579.211 607.387 575.806 614.647 572.33 621.881C585.056 622.708 596.44 622.322 608.774 614.937C592.959 626.29 583.993 622.27 571.329 623.961C564.809 637.485 558.059 650.923 551.03 664.245C549.819 665.918 547.364 665.01 548.193 662.252C555.955 648.214 563.384 634.176 570.515 620.142C563.827 609.578 555.256 605.039 554.015 585.864C556.117 599.953 562.916 608.97 571.495 618.206C574.226 612.812 576.917 607.418 579.567 602.019C574.093 590.384 567.21 584.601 565.885 565.122C567.81 579.659 573.392 589.741 580.393 600.324C584.54 591.854 588.584 583.391 592.547 574.924C587.288 566.303 580.347 562.941 579.355 547.674C581.019 558.83 586.457 565.902 593.298 573.22L593.169 573.593C597.168 565.019 601.08 556.443 604.919 547.873C601.142 543.036 596.715 541.392 595.098 532.182C596.866 538.906 600.675 542.879 605.354 546.896C609.934 536.644 614.401 526.398 618.771 516.158Z" fill="url(#paint29_linear_15_2241)"/>
</g>
<g clip-path="url(#clip16_15_2241)">
<path d="M72.5763 3.54222C70.6766 -7.74661 65.1965 -13.2229 58.1597 -21.437C57.0823 -22.6243 50.3357 -29.6897 49.7982 -29.9654C49.1253 -31.2437 50.4602 -35.7024 50.87 -37.7625C51.8849 -42.8914 55.6189 -60.3673 54.0933 -63.2088C53.6898 -63.3376 53.268 -63.5514 52.7158 -63.4393C51.7257 -63.2307 51.796 -63.0099 51.7169 -62.364C51.6249 -62.2156 50.03 -49.1521 49.8125 -47.8307C48.8172 -42.0017 48.2452 -36.3628 46.7137 -30.5836L41.6551 -28.7488L35.4909 -26.4701C31.6165 -24.7625 27.5423 -23.5588 23.7919 -21.6934C12.0828 -15.8869 9.52534 -11.5127 3.29094 0.0341009C2.77517 1.33513 2.09475 2.94676 1.75476 4.24428C-0.173925 12.376 -1.48107 18.5012 -1.82775 26.9905C-1.91048 28.9609 -1.96074 30.6642 -1.96481 32.7107C-1.96987 33.4203 -1.82882 34.2155 -1.75667 35.0158C-0.795028 46.0193 2.47872 56.4361 6.32274 66.7693C7.44033 69.7669 8.69864 72.7248 9.80296 75.7062L11.6959 80.0277C13.3916 83.6109 15.4605 86.9099 16.6888 90.6789C17.5573 93.34 16.9586 95.536 17.7549 97.6375C19.5814 96.5217 20.2563 93.8579 21.8256 92.2178C23.4611 90.5099 25.0151 89.5337 27.068 88.0838C36.7259 81.2853 48.212 70.1509 55.7948 61.6124C61.7499 54.9134 65.8683 48.414 68.5659 41.163C69.9905 37.328 71.1061 33.3706 71.9595 29.5983C74.002 20.5598 74.1355 12.8101 72.5763 3.54222Z" stroke="url(#paint30_linear_15_2241)" stroke-miterlimit="22.9256"/>
<path d="M18.1214 96.889C21.402 85.0845 24.6129 73.2643 27.7345 61.4144C32.1375 65.6114 35.6727 69.7438 37.0805 76.4656C35.9322 67.1609 31.5743 65.3243 28.0352 60.2735C30.2986 51.6458 32.5192 42.9991 34.6701 34.3367C42.9381 39.9148 49.7925 45.5945 53.879 56.0615C49.5536 41.5039 42.1044 39.7169 35.1005 32.6083C37.0667 24.6675 38.6845 17.7796 40.5382 9.80393C44.6417 16.2382 58.8838 22.469 67.5793 38.3207C59.1418 20.29 50.46 17.651 40.9199 8.35603C42.7305 0.545413 44.486 -7.27954 46.1693 -15.1264C56.7351 -7.98554 65.4972 -0.707049 70.7233 12.6854C65.1762 -5.97623 55.6266 -8.29059 46.6523 -17.3843C49.7818 -32.0676 52.6777 -46.8243 55.2813 -61.6603C55.3495 -63.7242 52.8526 -64.5104 51.8185 -61.8224C49.355 -45.9715 46.6293 -30.3246 43.6694 -14.8642C31.9123 -10.6102 22.3573 -12.2715 9.63142 2.12488C19.9224 -7.7248 30.8198 -10.6879 43.2585 -12.7329C42.1128 -6.79688 40.9368 -0.884629 39.7243 5.0062C28.2702 10.8497 19.288 11.2055 6.30841 25.7908C16.7345 15.4791 27.3228 10.9289 39.3388 6.85182C37.4283 16.0875 35.4415 25.2534 33.3879 34.374C23.9502 37.9678 16.4045 36.3733 6.2687 47.8336C14.4174 40.0341 23.0476 37.7751 32.9378 36.1806L33.0642 35.8068C30.9732 45.0337 28.813 54.2092 26.5982 63.3348C20.6502 64.8445 16.143 63.4328 9.22362 69.7222C14.7403 65.4904 20.1845 64.6828 26.3434 64.3733C23.684 75.2822 20.9397 86.1175 18.1214 96.889Z" fill="url(#paint31_linear_15_2241)"/>
</g>
<g clip-path="url(#clip17_15_2241)">
<path d="M511.106 -1.45778C513.006 -12.7466 518.486 -18.2229 525.522 -26.437C526.6 -27.6243 533.346 -34.6897 533.884 -34.9654C534.557 -36.2437 533.222 -40.7024 532.812 -42.7625C531.797 -47.8914 528.063 -65.3673 529.589 -68.2088C529.992 -68.3376 530.414 -68.5514 530.966 -68.4393C531.956 -68.2307 531.886 -68.0099 531.965 -67.364C532.057 -67.2156 533.652 -54.1521 533.87 -52.8307C534.865 -47.0017 535.437 -41.3628 536.968 -35.5836L542.027 -33.7488L548.191 -31.4701C552.066 -29.7625 556.14 -28.5588 559.89 -26.6934C571.599 -20.8869 574.157 -16.5127 580.391 -4.9659C580.907 -3.66487 581.587 -2.05324 581.927 -0.755721C583.856 7.37602 585.163 13.5012 585.51 21.9905C585.593 23.9609 585.643 25.6642 585.647 27.7107C585.652 28.4203 585.511 29.2155 585.439 30.0158C584.477 41.0193 581.203 51.4361 577.359 61.7693C576.242 64.7669 574.983 67.7248 573.879 70.7062L571.986 75.0277C570.29 78.6109 568.222 81.9099 566.993 85.6789C566.125 88.34 566.724 90.536 565.927 92.6375C564.101 91.5217 563.426 88.8579 561.857 87.2178C560.221 85.5099 558.667 84.5337 556.614 83.0838C546.956 76.2853 535.47 65.1509 527.887 56.6124C521.932 49.9134 517.814 43.414 515.116 36.163C513.692 32.328 512.576 28.3706 511.723 24.5983C509.68 15.5598 509.547 7.81009 511.106 -1.45778Z" stroke="url(#paint32_linear_15_2241)" stroke-miterlimit="22.9256"/>
<path d="M565.561 91.889C562.28 80.0845 559.069 68.2643 555.948 56.4144C551.545 60.6114 548.009 64.7438 546.602 71.4656C547.75 62.1609 552.108 60.3243 555.647 55.2735C553.384 46.6458 551.163 37.9991 549.012 29.3367C540.744 34.9148 533.89 40.5945 529.803 51.0615C534.129 36.5039 541.578 34.7169 548.582 27.6083C546.615 19.6675 544.998 12.7796 543.144 4.80393C539.04 11.2382 524.798 17.469 516.103 33.3207C524.54 15.29 533.222 12.651 542.762 3.35603C540.952 -4.45459 539.196 -12.2795 537.513 -20.1264C526.947 -12.9855 518.185 -5.70705 512.959 7.68539C518.506 -10.9762 528.056 -13.2906 537.03 -22.3843C533.9 -37.0676 531.004 -51.8243 528.401 -66.6603C528.333 -68.7242 530.829 -69.5104 531.864 -66.8224C534.327 -50.9715 537.053 -35.3246 540.013 -19.8642C551.77 -15.6102 561.325 -17.2715 574.051 -2.87512C563.76 -12.7248 552.862 -15.6879 540.424 -17.7329C541.569 -11.7969 542.745 -5.88463 543.958 0.00619788C555.412 5.84972 564.394 6.20549 577.374 20.7908C566.948 10.4791 556.359 5.92888 544.343 1.85182C546.254 11.0875 548.241 20.2534 550.294 29.374C559.732 32.9678 567.278 31.3733 577.413 42.8336C569.265 35.0341 560.635 32.7751 550.744 31.1806L550.618 30.8068C552.709 40.0337 554.869 49.2092 557.084 58.3348C563.032 59.8445 567.539 58.4328 574.459 64.7222C568.942 60.4904 563.498 59.6828 557.339 59.3733C559.998 70.2822 562.742 81.1175 565.561 91.889Z" fill="url(#paint33_linear_15_2241)"/>
</g>
<g clip-path="url(#clip18_15_2241)">
<path d="M476.576 13.5422C474.677 2.25339 469.196 -3.22294 462.16 -11.437C461.082 -12.6243 454.336 -19.6897 453.798 -19.9654C453.125 -21.2437 454.46 -25.7024 454.87 -27.7625C455.885 -32.8914 459.619 -50.3673 458.093 -53.2088C457.69 -53.3376 457.268 -53.5514 456.716 -53.4393C455.726 -53.2307 455.796 -53.0099 455.717 -52.364C455.625 -52.2156 454.03 -39.1521 453.812 -37.8307C452.817 -32.0017 452.245 -26.3628 450.714 -20.5836L445.655 -18.7488L439.491 -16.4701C435.616 -14.7625 431.542 -13.5588 427.792 -11.6934C416.083 -5.88686 413.525 -1.51267 407.291 10.0341C406.775 11.3351 406.095 12.9468 405.755 14.2443C403.826 22.376 402.519 28.5012 402.172 36.9905C402.09 38.9609 402.039 40.6642 402.035 42.7107C402.03 43.4203 402.171 44.2155 402.243 45.0158C403.205 56.0193 406.479 66.4361 410.323 76.7693C411.44 79.7669 412.699 82.7248 413.803 85.7062L415.696 90.0277C417.392 93.6109 419.461 96.9099 420.689 100.679C421.557 103.34 420.959 105.536 421.755 107.637C423.581 106.522 424.256 103.858 425.826 102.218C427.461 100.51 429.015 99.5337 431.068 98.0838C440.726 91.2853 452.212 80.1509 459.795 71.6124C465.75 64.9134 469.868 58.414 472.566 51.163C473.99 47.328 475.106 43.3706 475.959 39.5983C478.002 30.5598 478.135 22.8101 476.576 13.5422Z" stroke="url(#paint34_linear_15_2241)" stroke-miterlimit="22.9256"/>
<path d="M422.121 106.889C425.402 95.0845 428.613 83.2643 431.735 71.4144C436.138 75.6114 439.673 79.7438 441.08 86.4656C439.932 77.1609 435.574 75.3243 432.035 70.2735C434.299 61.6458 436.519 52.9991 438.67 44.3367C446.938 49.9148 453.793 55.5945 457.879 66.0615C453.554 51.5039 446.104 49.7169 439.1 42.6083C441.067 34.6675 442.685 27.7796 444.538 19.8039C448.642 26.2382 462.884 32.469 471.579 48.3207C463.142 30.29 454.46 27.651 444.92 18.356C446.73 10.5454 448.486 2.72046 450.169 -5.12643C460.735 2.01446 469.497 9.29295 474.723 22.6854C469.176 4.02377 459.627 1.70941 450.652 -7.38433C453.782 -22.0676 456.678 -36.8243 459.281 -51.6603C459.349 -53.7242 456.853 -54.5104 455.819 -51.8224C453.355 -35.9715 450.629 -20.3246 447.669 -4.86419C435.912 -0.610156 426.357 -2.27146 413.631 12.1249C423.922 2.2752 434.82 -0.687853 447.258 -2.7329C446.113 3.20312 444.937 9.11537 443.724 15.0062C432.27 20.8497 423.288 21.2055 410.308 35.7908C420.735 25.4791 431.323 20.9289 443.339 16.8518C441.428 26.0875 439.442 35.2534 437.388 44.374C427.95 47.9678 420.405 46.3733 410.269 57.8336C418.417 50.0341 427.048 47.7751 436.938 46.1806L437.064 45.8068C434.973 55.0337 432.813 64.2092 430.598 73.3348C424.65 74.8445 420.143 73.4328 413.224 79.7222C418.74 75.4904 424.185 74.6828 430.343 74.3733C427.684 85.2822 424.94 96.1175 422.121 106.889Z" fill="url(#paint35_linear_15_2241)"/>
</g>
<g clip-path="url(#clip19_15_2241)">
<path d="M277.576 -10.4578C275.677 -21.7466 270.196 -27.2229 263.16 -35.437C262.082 -36.6243 255.336 -43.6897 254.798 -43.9654C254.125 -45.2437 255.46 -49.7024 255.87 -51.7625C256.885 -56.8914 260.619 -74.3673 259.093 -77.2088C258.69 -77.3376 258.268 -77.5514 257.716 -77.4393C256.726 -77.2307 256.796 -77.0099 256.717 -76.364C256.625 -76.2156 255.03 -63.1521 254.812 -61.8307C253.817 -56.0017 253.245 -50.3628 251.714 -44.5836L246.655 -42.7488L240.491 -40.4701C236.616 -38.7625 232.542 -37.5588 228.792 -35.6934C217.083 -29.8869 214.525 -25.5127 208.291 -13.9659C207.775 -12.6649 207.095 -11.0532 206.755 -9.75572C204.826 -1.62398 203.519 4.50116 203.172 12.9905C203.09 14.9609 203.039 16.6642 203.035 18.7107C203.03 19.4203 203.171 20.2155 203.243 21.0158C204.205 32.0193 207.479 42.4361 211.323 52.7693C212.44 55.7669 213.699 58.7248 214.803 61.7062L216.696 66.0277C218.392 69.6109 220.461 72.9099 221.689 76.6789C222.557 79.34 221.959 81.536 222.755 83.6375C224.581 82.5217 225.256 79.8579 226.826 78.2178C228.461 76.5099 230.015 75.5337 232.068 74.0838C241.726 67.2853 253.212 56.1509 260.795 47.6124C266.75 40.9134 270.868 34.414 273.566 27.163C274.99 23.328 276.106 19.3706 276.959 15.5983C279.002 6.55981 279.135 -1.18991 277.576 -10.4578Z" stroke="url(#paint36_linear_15_2241)" stroke-miterlimit="22.9256"/>
<path d="M223.121 82.889C226.402 71.0845 229.613 59.2643 232.735 47.4144C237.138 51.6114 240.673 55.7438 242.08 62.4656C240.932 53.1609 236.574 51.3243 233.035 46.2735C235.299 37.6458 237.519 28.9991 239.67 20.3367C247.938 25.9148 254.793 31.5945 258.879 42.0615C254.554 27.5039 247.104 25.7169 240.1 18.6083C242.067 10.6675 243.685 3.77964 245.538 -4.19607C249.642 2.23819 263.884 8.46899 272.579 24.3207C264.142 6.28998 255.46 3.65096 245.92 -5.64397C247.73 -13.4546 249.486 -21.2795 251.169 -29.1264C261.735 -21.9855 270.497 -14.707 275.723 -1.31461C270.176 -19.9762 260.627 -22.2906 251.652 -31.3843C254.782 -46.0676 257.678 -60.8243 260.281 -75.6603C260.349 -77.7242 257.853 -78.5104 256.819 -75.8224C254.355 -59.9715 251.629 -44.3246 248.669 -28.8642C236.912 -24.6102 227.357 -26.2715 214.631 -11.8751C224.922 -21.7248 235.82 -24.6879 248.258 -26.7329C247.113 -20.7969 245.937 -14.8846 244.724 -8.9938C233.27 -3.15028 224.288 -2.79451 211.308 11.7908C221.735 1.47906 232.323 -3.07112 244.339 -7.14818C242.428 2.08753 240.442 11.2534 238.388 20.374C228.95 23.9678 221.405 22.3733 211.269 33.8336C219.417 26.0341 228.048 23.7751 237.938 22.1806L238.064 21.8068C235.973 31.0337 233.813 40.2092 231.598 49.3348C225.65 50.8445 221.143 49.4328 214.224 55.7222C219.74 51.4904 225.185 50.6828 231.343 50.3733C228.684 61.2822 225.94 72.1175 223.121 82.889Z" fill="url(#paint37_linear_15_2241)"/>
</g>
<g clip-path="url(#clip20_15_2241)">
<path d="M256.597 628.04C246.674 633.746 238.963 632.994 228.149 632.78C226.547 632.703 216.805 631.983 216.25 631.743C214.836 632.036 212.241 635.9 210.911 637.525C207.595 641.568 196.474 655.556 193.31 656.184C192.955 655.954 192.522 655.764 192.257 655.266C191.789 654.369 192.004 654.283 192.453 653.812C192.509 653.647 201.582 644.114 202.465 643.106C206.333 638.634 210.324 634.609 213.813 629.754L212.015 624.682L209.858 618.475C208.715 614.398 207.055 610.487 206.112 606.406C203.156 593.675 204.908 588.921 209.863 576.77C210.539 575.545 211.351 573.995 212.137 572.908C217.191 566.252 221.09 561.35 227.424 555.688C228.893 554.372 230.177 553.251 231.754 551.948C232.299 551.493 233.003 551.097 233.666 550.644C242.774 544.394 252.898 540.303 263.319 536.705C266.344 535.663 269.427 534.755 272.431 533.714L276.971 532.429C280.815 531.462 284.677 530.963 288.368 529.516C290.975 528.496 292.29 526.638 294.418 525.918C294.718 528.037 293.09 530.251 292.82 532.505C292.541 534.853 292.774 536.673 292.959 539.18C293.847 550.957 292.548 566.901 290.773 578.182C289.385 587.037 286.983 594.347 283.098 601.038C281.042 604.574 278.695 607.951 276.325 611.007C270.644 618.327 264.744 623.355 256.597 628.04Z" stroke="url(#paint38_linear_15_2241)" stroke-miterlimit="22.9256"/>
<path d="M294.073 526.677C287.043 536.711 279.956 546.701 272.79 556.641C278.828 557.374 284.266 557.478 290.35 554.294C282.436 559.32 278.249 557.122 272.1 557.598C266.876 564.828 261.611 572.037 256.289 579.203C265.85 582.042 274.591 583.726 285.27 580.23C271.28 586.141 265.167 581.524 255.228 580.633C250.345 587.197 246.055 592.823 241.074 599.323C248.65 598.402 262.511 605.44 280.277 602.082C260.993 607.024 253.438 601.997 240.199 600.537C235.318 606.898 230.392 613.226 225.402 619.512C237.63 623.133 248.818 625.274 262.48 620.799C244.545 628.374 236.69 622.471 223.966 621.32C214.617 633.066 205.062 644.68 195.261 656.117C193.711 657.481 191.517 656.053 192.935 653.546C203.609 641.572 213.959 629.525 224.016 617.415C219.83 605.634 212.476 599.311 215.506 580.337C214.439 594.542 219.076 604.84 225.401 615.744C229.256 611.087 233.074 606.422 236.853 601.743C234.086 589.185 228.653 582.023 231.668 562.733C230.331 577.336 233.545 588.403 238.033 600.272C243.95 592.928 249.765 585.57 255.503 578.189C252.281 568.618 246.255 563.804 248.663 548.696C247.819 559.944 251.558 568.043 256.612 576.693L256.403 577.028C262.199 569.551 267.912 562.052 273.551 554.543C270.937 548.991 266.983 546.408 267.442 537.069C267.68 544.018 270.516 548.734 274.191 553.687C280.924 544.701 287.547 535.697 294.073 526.677Z" fill="url(#paint39_linear_15_2241)"/>
</g>
<g clip-path="url(#clip21_15_2241)">
<path d="M344.628 622.604C352.423 630.988 360.011 632.548 370.405 635.539C371.958 635.939 381.478 638.13 382.079 638.064C383.344 638.762 384.681 643.22 385.472 645.166C387.444 650.008 393.936 666.658 396.772 668.192C397.18 668.078 397.65 668.024 398.05 667.627C398.762 666.908 398.582 666.763 398.293 666.18C398.288 666.005 392.436 654.217 391.891 652.994C389.517 647.578 386.894 642.554 384.995 636.885L388.211 632.57L392.107 627.277C394.404 623.721 397.145 620.475 399.251 616.854C405.838 605.566 405.569 600.506 404.426 587.433C404.142 586.063 403.824 584.343 403.394 583.072C400.533 575.22 398.257 569.385 393.878 562.104C392.864 560.413 391.969 558.962 390.847 557.251C390.461 556.655 389.906 556.069 389.405 555.44C382.551 546.779 374.089 539.878 365.196 533.362C362.614 531.473 359.936 529.694 357.375 527.811L353.417 525.243C350.03 523.182 346.488 521.565 343.39 519.092C341.201 517.347 340.493 515.184 338.673 513.866C337.761 515.803 338.662 518.399 338.253 520.632C337.826 522.957 337.065 524.627 336.148 526.967C331.82 537.956 328.349 553.572 326.711 564.874C325.421 573.744 325.555 581.437 327.29 588.977C328.209 592.963 329.453 596.882 330.815 600.502C334.079 609.174 338.229 615.72 344.628 622.604Z" stroke="url(#paint40_linear_15_2241)" stroke-miterlimit="22.9256"/>
<path d="M338.778 514.693C342.53 526.357 346.348 537.995 350.257 549.609C344.272 548.525 339.046 547.017 334.174 542.177C340.25 549.317 344.9 548.455 350.633 550.727C353.487 559.178 356.387 567.621 359.354 576.039C349.381 575.926 340.533 574.952 331.364 568.457C342.982 578.237 350.186 575.633 359.945 577.719C362.67 585.433 365.106 592.075 367.944 599.756C360.978 596.638 345.657 599.266 329.677 590.808C346.639 601.228 355.342 598.658 368.421 601.175C371.204 608.695 374.041 616.195 376.95 623.675C364.198 623.521 352.878 622.26 341.148 613.948C356.043 626.485 365.292 623.166 377.788 625.827C383.249 639.811 388.945 653.729 394.929 667.552C396.007 669.313 398.525 668.597 397.91 665.783C391.251 651.19 384.923 636.622 378.894 622.081C386.374 612.063 395.269 608.196 397.981 589.174C394.802 603.06 387.33 611.527 378.065 620.075C375.758 614.487 373.489 608.903 371.262 603.316C377.615 592.136 384.922 586.9 387.742 567.58C384.705 581.926 378.363 591.549 370.569 601.562C367.086 592.798 363.705 584.05 360.405 575.302C366.311 567.111 373.49 564.293 375.654 549.148C373.137 560.143 367.171 566.776 359.787 573.546L359.887 573.928C356.56 565.071 353.318 556.22 350.15 547.38C354.288 542.848 358.829 541.549 361.149 532.491C358.869 539.059 354.766 542.727 349.792 546.372C346.014 535.799 342.348 525.24 338.778 514.693Z" fill="url(#paint41_linear_15_2241)"/>
</g>
</g>
<defs>
<linearGradient id="paint0_linear_15_2241" x1="80.9411" y1="516.244" x2="-49.9249" y2="560.109" gradientUnits="userSpaceOnUse">
<stop offset="0.322917" stop-color="#00BD8D"/>
<stop offset="1" stop-color="#00392D"/>
</linearGradient>
<linearGradient id="paint1_linear_15_2241" x1="80.6138" y1="517.056" x2="-49.5014" y2="560.67" gradientUnits="userSpaceOnUse">
<stop offset="0.322917" stop-color="#00BD8D"/>
<stop offset="1" stop-color="#00392D"/>
</linearGradient>
<linearGradient id="paint2_linear_15_2241" x1="538.272" y1="552.698" x2="421.195" y2="625.793" gradientUnits="userSpaceOnUse">
<stop offset="0.322917" stop-color="#00BD8D"/>
<stop offset="1" stop-color="#00392D"/>
</linearGradient>
<linearGradient id="paint3_linear_15_2241" x1="538.142" y1="553.563" x2="421.737" y2="626.239" gradientUnits="userSpaceOnUse">
<stop offset="0.322917" stop-color="#00BD8D"/>
<stop offset="1" stop-color="#00392D"/>
</linearGradient>
<linearGradient id="paint4_linear_15_2241" x1="619.883" y1="525.244" x2="750.749" y2="569.109" gradientUnits="userSpaceOnUse">
<stop offset="0.322917" stop-color="#00BD8D"/>
<stop offset="1" stop-color="#00392D"/>
</linearGradient>
<linearGradient id="paint5_linear_15_2241" x1="620.21" y1="526.056" x2="750.325" y2="569.67" gradientUnits="userSpaceOnUse">
<stop offset="0.322917" stop-color="#00BD8D"/>
<stop offset="1" stop-color="#00392D"/>
</linearGradient>
<linearGradient id="paint6_linear_15_2241" x1="80.9167" y1="428.208" x2="-48.8696" y2="381.244" gradientUnits="userSpaceOnUse">
<stop offset="0.322917" stop-color="#00BD8D"/>
<stop offset="1" stop-color="#00392D"/>
</linearGradient>
<linearGradient id="paint7_linear_15_2241" x1="80.1556" y1="428.641" x2="-48.886" y2="381.947" gradientUnits="userSpaceOnUse">
<stop offset="0.322917" stop-color="#00BD8D"/>
<stop offset="1" stop-color="#00392D"/>
</linearGradient>
<linearGradient id="paint8_linear_15_2241" x1="636.405" y1="454.41" x2="766.192" y2="407.447" gradientUnits="userSpaceOnUse">
<stop offset="0.322917" stop-color="#00BD8D"/>
<stop offset="1" stop-color="#00392D"/>
</linearGradient>
<linearGradient id="paint9_linear_15_2241" x1="637.166" y1="454.843" x2="766.208" y2="408.149" gradientUnits="userSpaceOnUse">
<stop offset="0.322917" stop-color="#00BD8D"/>
<stop offset="1" stop-color="#00392D"/>
</linearGradient>
<linearGradient id="paint10_linear_15_2241" x1="621.405" y1="340.41" x2="751.192" y2="293.447" gradientUnits="userSpaceOnUse">
<stop offset="0.322917" stop-color="#00BD8D"/>
<stop offset="1" stop-color="#00392D"/>
</linearGradient>
<linearGradient id="paint11_linear_15_2241" x1="622.166" y1="340.843" x2="751.208" y2="294.149" gradientUnits="userSpaceOnUse">
<stop offset="0.322917" stop-color="#00BD8D"/>
<stop offset="1" stop-color="#00392D"/>
</linearGradient>
<linearGradient id="paint12_linear_15_2241" x1="96.415" y1="186.41" x2="-33.3713" y2="139.447" gradientUnits="userSpaceOnUse">
<stop offset="0.322917" stop-color="#00BD8D"/>
<stop offset="1" stop-color="#00392D"/>
</linearGradient>
<linearGradient id="paint13_linear_15_2241" x1="95.6539" y1="186.843" x2="-33.3877" y2="140.149" gradientUnits="userSpaceOnUse">
<stop offset="0.322917" stop-color="#00BD8D"/>
<stop offset="1" stop-color="#00392D"/>
</linearGradient>
<linearGradient id="paint14_linear_15_2241" x1="622.409" y1="141.41" x2="752.195" y2="94.4467" gradientUnits="userSpaceOnUse">
<stop offset="0.322917" stop-color="#00BD8D"/>
<stop offset="1" stop-color="#00392D"/>
</linearGradient>
<linearGradient id="paint15_linear_15_2241" x1="623.17" y1="141.843" x2="752.212" y2="95.1491" gradientUnits="userSpaceOnUse">
<stop offset="0.322917" stop-color="#00BD8D"/>
<stop offset="1" stop-color="#00392D"/>
</linearGradient>
<linearGradient id="paint16_linear_15_2241" x1="399.539" y1="39.121" x2="265.984" y2="4.2909" gradientUnits="userSpaceOnUse">
<stop offset="0.322917" stop-color="#00BD8D"/>
<stop offset="1" stop-color="#00392D"/>
</linearGradient>
<linearGradient id="paint17_linear_15_2241" x1="399.157" y1="38.3336" x2="266.368" y2="3.7033" gradientUnits="userSpaceOnUse">
<stop offset="0.322917" stop-color="#00BD8D"/>
<stop offset="1" stop-color="#00392D"/>
</linearGradient>
<linearGradient id="paint18_linear_15_2241" x1="192.941" y1="46.2689" x2="62.0751" y2="2.40374" gradientUnits="userSpaceOnUse">
<stop offset="0.322917" stop-color="#00BD8D"/>
<stop offset="1" stop-color="#00392D"/>
</linearGradient>
<linearGradient id="paint19_linear_15_2241" x1="192.614" y1="45.4569" x2="62.4986" y2="1.84345" gradientUnits="userSpaceOnUse">
<stop offset="0.322917" stop-color="#00BD8D"/>
<stop offset="1" stop-color="#00392D"/>
</linearGradient>
<linearGradient id="paint20_linear_15_2241" x1="96.9411" y1="270.244" x2="-33.9249" y2="314.109" gradientUnits="userSpaceOnUse">
<stop offset="0.322917" stop-color="#00BD8D"/>
<stop offset="1" stop-color="#00392D"/>
</linearGradient>
<linearGradient id="paint21_linear_15_2241" x1="96.6138" y1="271.056" x2="-33.5014" y2="314.67" gradientUnits="userSpaceOnUse">
<stop offset="0.322917" stop-color="#00BD8D"/>
<stop offset="1" stop-color="#00392D"/>
</linearGradient>
<linearGradient id="paint22_linear_15_2241" x1="609.478" y1="212.947" x2="747.5" y2="212.756" gradientUnits="userSpaceOnUse">
<stop offset="0.322917" stop-color="#00BD8D"/>
<stop offset="1" stop-color="#00392D"/>
</linearGradient>
<linearGradient id="paint23_linear_15_2241" x1="610.045" y1="212.28" x2="747.275" y2="212.09" gradientUnits="userSpaceOnUse">
<stop offset="0.322917" stop-color="#00BD8D"/>
<stop offset="1" stop-color="#00392D"/>
</linearGradient>
<linearGradient id="paint24_linear_15_2241" x1="580.883" y1="32.2689" x2="711.749" y2="-11.5963" gradientUnits="userSpaceOnUse">
<stop offset="0.322917" stop-color="#00BD8D"/>
<stop offset="1" stop-color="#00392D"/>
</linearGradient>
<linearGradient id="paint25_linear_15_2241" x1="581.21" y1="31.4569" x2="711.325" y2="-12.1566" gradientUnits="userSpaceOnUse">
<stop offset="0.322917" stop-color="#00BD8D"/>
<stop offset="1" stop-color="#00392D"/>
</linearGradient>
<linearGradient id="paint26_linear_15_2241" x1="64.8829" y1="540.244" x2="195.749" y2="584.109" gradientUnits="userSpaceOnUse">
<stop offset="0.322917" stop-color="#00BD8D"/>
<stop offset="1" stop-color="#00392D"/>
</linearGradient>
<linearGradient id="paint27_linear_15_2241" x1="65.2102" y1="541.056" x2="195.325" y2="584.67" gradientUnits="userSpaceOnUse">
<stop offset="0.322917" stop-color="#00BD8D"/>
<stop offset="1" stop-color="#00392D"/>
</linearGradient>
<linearGradient id="paint28_linear_15_2241" x1="642.684" y1="554.384" x2="524.759" y2="626.103" gradientUnits="userSpaceOnUse">
<stop offset="0.322917" stop-color="#00BD8D"/>
<stop offset="1" stop-color="#00392D"/>
</linearGradient>
<linearGradient id="paint29_linear_15_2241" x1="642.545" y1="555.248" x2="525.295" y2="626.555" gradientUnits="userSpaceOnUse">
<stop offset="0.322917" stop-color="#00BD8D"/>
<stop offset="1" stop-color="#00392D"/>
</linearGradient>
<linearGradient id="paint30_linear_15_2241" x1="60.4379" y1="81.3202" x2="11.1522" y2="-47.6022" gradientUnits="userSpaceOnUse">
<stop offset="0.322917" stop-color="#00BD8D"/>
<stop offset="1" stop-color="#00392D"/>
</linearGradient>
<linearGradient id="paint31_linear_15_2241" x1="60.8568" y1="80.5517" x2="11.8539" y2="-47.631" gradientUnits="userSpaceOnUse">
<stop offset="0.322917" stop-color="#00BD8D"/>
<stop offset="1" stop-color="#00392D"/>
</linearGradient>
<linearGradient id="paint32_linear_15_2241" x1="523.244" y1="76.3202" x2="572.53" y2="-52.6022" gradientUnits="userSpaceOnUse">
<stop offset="0.322917" stop-color="#00BD8D"/>
<stop offset="1" stop-color="#00392D"/>
</linearGradient>
<linearGradient id="paint33_linear_15_2241" x1="522.825" y1="75.5517" x2="571.828" y2="-52.631" gradientUnits="userSpaceOnUse">
<stop offset="0.322917" stop-color="#00BD8D"/>
<stop offset="1" stop-color="#00392D"/>
</linearGradient>
<linearGradient id="paint34_linear_15_2241" x1="464.438" y1="91.3202" x2="415.152" y2="-37.6022" gradientUnits="userSpaceOnUse">
<stop offset="0.322917" stop-color="#00BD8D"/>
<stop offset="1" stop-color="#00392D"/>
</linearGradient>
<linearGradient id="paint35_linear_15_2241" x1="464.857" y1="90.5517" x2="415.854" y2="-37.631" gradientUnits="userSpaceOnUse">
<stop offset="0.322917" stop-color="#00BD8D"/>
<stop offset="1" stop-color="#00392D"/>
</linearGradient>
<linearGradient id="paint36_linear_15_2241" x1="265.438" y1="67.3202" x2="216.152" y2="-61.6022" gradientUnits="userSpaceOnUse">
<stop offset="0.322917" stop-color="#00BD8D"/>
<stop offset="1" stop-color="#00392D"/>
</linearGradient>
<linearGradient id="paint37_linear_15_2241" x1="265.857" y1="66.5517" x2="216.854" y2="-61.631" gradientUnits="userSpaceOnUse">
<stop offset="0.322917" stop-color="#00BD8D"/>
<stop offset="1" stop-color="#00392D"/>
</linearGradient>
<linearGradient id="paint38_linear_15_2241" x1="308.941" y1="569.244" x2="178.075" y2="613.109" gradientUnits="userSpaceOnUse">
<stop offset="0.322917" stop-color="#00BD8D"/>
<stop offset="1" stop-color="#00392D"/>
</linearGradient>
<linearGradient id="paint39_linear_15_2241" x1="308.614" y1="570.056" x2="178.499" y2="613.67" gradientUnits="userSpaceOnUse">
<stop offset="0.322917" stop-color="#00BD8D"/>
<stop offset="1" stop-color="#00392D"/>
</linearGradient>
<linearGradient id="paint40_linear_15_2241" x1="311.996" y1="550.967" x2="424.056" y2="631.543" gradientUnits="userSpaceOnUse">
<stop offset="0.322917" stop-color="#00BD8D"/>
<stop offset="1" stop-color="#00392D"/>
</linearGradient>
<linearGradient id="paint41_linear_15_2241" x1="312.069" y1="551.839" x2="423.486" y2="631.954" gradientUnits="userSpaceOnUse">
<stop offset="0.322917" stop-color="#00BD8D"/>
<stop offset="1" stop-color="#00392D"/>
</linearGradient>
<clipPath id="clip0_15_2241">
<rect width="700" height="600" rx="30" fill="white"/>
</clipPath>
<clipPath id="clip1_15_2241">
<rect width="93" height="139.5" fill="white" transform="matrix(-0.317812 -0.948154 -0.948154 0.317812 96.824 559.178)"/>
</clipPath>
<clipPath id="clip2_15_2241">
<rect width="93" height="139.5" fill="white" transform="matrix(-0.529592 -0.848252 -0.848252 0.529592 563.704 590.761)"/>
</clipPath>
<clipPath id="clip3_15_2241">
<rect width="93" height="139.5" fill="white" transform="translate(604 568.178) rotate(-71.4693)"/>
</clipPath>
<clipPath id="clip4_15_2241">
<rect width="93" height="139.5" fill="white" transform="matrix(0.340263 -0.94033 -0.94033 -0.340263 66.6777 471.715)"/>
</clipPath>
<clipPath id="clip5_15_2241">
<rect width="93" height="139.5" fill="white" transform="translate(650.644 497.917) rotate(-109.893)"/>
</clipPath>
<clipPath id="clip6_15_2241">
<rect width="93" height="139.5" fill="white" transform="translate(635.644 383.917) rotate(-109.893)"/>
</clipPath>
<clipPath id="clip7_15_2241">
<rect width="93" height="139.5" fill="white" transform="matrix(0.340263 -0.94033 -0.94033 -0.340263 82.176 229.917)"/>
</clipPath>
<clipPath id="clip8_15_2241">
<rect width="93" height="139.5" fill="white" transform="translate(636.648 184.917) rotate(-109.893)"/>
</clipPath>
<clipPath id="clip9_15_2241">
<rect width="93" height="139.5" fill="white" transform="translate(412.454 -4.79688) rotate(104.617)"/>
</clipPath>
<clipPath id="clip10_15_2241">
<rect width="93" height="139.5" fill="white" transform="translate(208.824 3.33496) rotate(108.531)"/>
</clipPath>
<clipPath id="clip11_15_2241">
<rect width="93" height="139.5" fill="white" transform="matrix(-0.317812 -0.948154 -0.948154 0.317812 112.824 313.178)"/>
</clipPath>
<clipPath id="clip12_15_2241">
<rect width="93" height="139.5" fill="white" transform="matrix(0.00138374 0.999999 0.999999 -0.00138374 608 167.193)"/>
</clipPath>
<clipPath id="clip13_15_2241">
<rect width="93" height="139.5" fill="white" transform="matrix(0.317812 0.948154 0.948154 -0.317812 565 -10.665)"/>
</clipPath>
<clipPath id="clip14_15_2241">
<rect width="93" height="139.5" fill="white" transform="translate(49 583.178) rotate(-71.4693)"/>
</clipPath>
<clipPath id="clip15_15_2241">
<rect width="93" height="139.5" fill="white" transform="matrix(-0.519617 -0.854399 -0.854399 0.519617 667.668 592.743)"/>
</clipPath>
<clipPath id="clip16_15_2241">
<rect width="93" height="139.5" fill="white" transform="translate(103.682 66.3027) rotate(159.079)"/>
</clipPath>
<clipPath id="clip17_15_2241">
<rect width="93" height="139.5" fill="white" transform="matrix(0.934071 0.357086 0.357086 -0.934071 480 61.3027)"/>
</clipPath>
<clipPath id="clip18_15_2241">
<rect width="93" height="139.5" fill="white" transform="translate(507.682 76.3027) rotate(159.079)"/>
</clipPath>
<clipPath id="clip19_15_2241">
<rect width="93" height="139.5" fill="white" transform="translate(308.682 52.3027) rotate(159.079)"/>
</clipPath>
<clipPath id="clip20_15_2241">
<rect width="93" height="139.5" fill="white" transform="matrix(-0.317812 -0.948154 -0.948154 0.317812 324.824 612.178)"/>
</clipPath>
<clipPath id="clip21_15_2241">
<rect width="93" height="139.5" fill="white" transform="translate(284.135 587.29) rotate(-54.2819)"/>
</clipPath>
</defs>
</svg>
