<svg width="100" height="100" viewBox="0 0 100 100" fill="none" xmlns="http://www.w3.org/2000/svg">
    <g clip-path="url(#clip0_59_2122)">
        <g filter="url(#filter0_d_59_2122)">
            <path
                d="M81.0352 17.7344V80.6836C81.0352 85.9766 76.6992 90.3125 71.4062 90.3125H28.2422C22.9492 90.3125 18.6133 85.9766 18.6133 80.6836V17.7344C18.6133 12.4414 22.9492 8.10547 28.2422 8.10547H71.4062C76.6992 8.10547 81.0352 12.4414 81.0352 17.7344Z"
                fill="url(#paint0_linear_59_2122)"/>
            <path
                d="M79.8242 17.7344C79.8242 24.2773 79.8242 30.8398 79.8242 37.3828C79.8242 48.3984 79.8242 59.3945 79.8242 70.4101C79.8242 73.5156 79.8242 76.6406 79.8242 79.7461C79.8242 80.9375 79.7852 82.0898 79.4141 83.2422C78.3203 86.7187 75 89.0625 71.3867 89.1016C63.1055 89.1992 54.8047 89.1016 46.5039 89.1016C41.6211 89.1016 36.7188 89.1016 31.836 89.1016C30.7227 89.1016 29.5899 89.1016 28.4766 89.1016C25.8008 89.1016 23.2813 88.0078 21.6016 85.8594C19.5899 83.3008 19.8047 80.3125 19.8047 77.3047C19.8047 73.1836 19.8047 69.0625 19.8047 64.9414C19.8047 53.7891 19.8047 42.6172 19.8047 31.4648C19.8047 27.6953 19.8047 23.9258 19.8047 20.1562C19.8047 19.3945 19.8047 18.6328 19.8047 17.8516C19.8242 14.9805 21.1914 12.2852 23.6133 10.7031C26.4453 8.86719 30.0586 9.31641 33.3008 9.31641C38.4766 9.31641 43.6524 9.31641 48.8281 9.31641C54.1992 9.31641 59.5703 9.31641 64.9219 9.31641C66.582 9.31641 68.2617 9.31641 69.9219 9.31641C71.1133 9.31641 72.2656 9.27734 73.4375 9.57031C77.1875 10.5273 79.7656 13.9258 79.8242 17.7344C79.8438 19.2969 82.2852 19.3164 82.2656 17.7344C82.207 13.5742 79.8047 9.66797 75.9961 7.91016C74.2188 7.08984 72.3828 6.875 70.4688 6.875C66.4453 6.875 62.4024 6.875 58.3789 6.875C48.5938 6.875 38.8281 6.875 29.043 6.875C27.0313 6.875 25.0977 7.14844 23.2813 8.06641C19.668 9.90234 17.4219 13.7109 17.3633 17.7344C17.3438 19.7656 17.3633 21.7969 17.3633 23.8086C17.3633 34.5898 17.3633 45.3906 17.3633 56.1719C17.3633 64.2187 17.3438 72.2461 17.3633 80.293C17.3633 86.4062 22.0508 91.4648 28.2617 91.5234C31.2695 91.5625 34.2774 91.5234 37.2852 91.5234C47.7734 91.5234 58.2617 91.5234 68.75 91.5234C69.6289 91.5234 70.5078 91.543 71.3867 91.5234C75.2539 91.4844 78.8867 89.4336 80.8203 86.0547C82.4609 83.2031 82.2656 80.1367 82.2656 76.9922C82.2656 66.875 82.2656 56.7578 82.2656 46.6406C82.2656 37.5 82.2656 28.3594 82.2656 19.2383C82.2656 18.7305 82.2656 18.2227 82.2656 17.7148C82.2656 16.1719 79.8242 16.1523 79.8242 17.7344Z"
                fill="white"/>
        </g>
        <path
            d="M81.0352 17.7344V23.1836H68.8477C65.1953 23.1836 62.2266 20.2148 62.2266 16.5625V8.10547H71.4062C76.6992 8.10547 81.0352 12.4414 81.0352 17.7344Z"
            fill="#7270B2"/>
        <path
            d="M79.8242 17.7341C79.8242 19.5505 79.8242 21.3669 79.8242 23.1833C80.2344 22.7732 80.6445 22.363 81.0547 21.9529C77.3828 21.9529 73.7109 21.9529 70.039 21.9529C67.9687 21.9529 66.0351 21.6599 64.6484 19.9216C63.3008 18.2224 63.4765 16.2107 63.4765 14.1794C63.4765 12.1482 63.4765 10.1169 63.4765 8.08568C63.0664 8.49584 62.6562 8.90599 62.2461 9.31615C65.1562 9.31615 68.0664 9.31615 70.9765 9.31615C75.7422 9.31615 79.7461 12.8122 79.8242 17.7341C79.8437 19.2966 82.2851 19.3162 82.2656 17.7341C82.207 12.9685 79.082 8.71068 74.4922 7.32396C71.7773 6.50365 68.5742 6.87474 65.7617 6.87474C64.5898 6.87474 63.4179 6.87474 62.2265 6.87474C61.5625 6.87474 60.9961 7.44115 60.9961 8.10521C60.9961 9.96068 60.9961 11.8161 60.9961 13.6716C60.9961 15.9763 60.8203 18.2615 61.9531 20.3513C63.3789 22.988 66.1718 24.4138 69.1015 24.4138C71.1718 24.4138 73.2422 24.4138 75.3125 24.4138C77.207 24.4138 79.1211 24.4138 81.0156 24.4138C81.6797 24.4138 82.2461 23.8474 82.2461 23.1833C82.2461 21.3669 82.2461 19.5505 82.2461 17.7341C82.2656 16.1716 79.8242 16.1521 79.8242 17.7341Z"
            fill="white"/>
        <path
            d="M25.6055 27.0312H25.1563C23.8867 27.0312 22.8516 25.9961 22.8516 24.7266V18.4766C22.8516 17.207 23.8867 16.1719 25.1563 16.1719H25.6055C26.875 16.1719 27.9102 17.207 27.9102 18.4766V24.7266C27.9102 25.9961 26.875 27.0312 25.6055 27.0312Z"
            fill="white"/>
        <path
            d="M51.3086 65.625H21.2305C18.4961 65.625 16.25 63.3789 16.25 60.6445V47.9492C16.25 45.2148 18.4961 42.9688 21.2305 42.9688H51.3086C54.043 42.9688 56.2891 45.2148 56.2891 47.9492V60.6445C56.2891 63.3789 54.0625 65.625 51.3086 65.625Z"
            fill="url(#paint1_linear_59_2122)"/>
        <path
            d="M51.3086 64.414C44.2773 64.414 37.2461 64.414 30.1953 64.414C27.2656 64.414 24.3359 64.4335 21.4063 64.414C19.2383 64.3944 17.5195 62.8319 17.4609 60.6249C17.4414 59.16 17.4609 57.6952 17.4609 56.2108C17.4609 54.0038 17.4609 51.7968 17.4609 49.5702C17.4609 47.7733 17.4219 45.9765 19.1016 44.8241C20.1367 44.121 21.25 44.1796 22.4219 44.1796C23.9453 44.1796 25.4492 44.1796 26.9727 44.1796C34.8633 44.1796 42.7539 44.1796 50.6641 44.1796C52.3242 44.1796 53.8672 44.6679 54.668 46.2694C55.3125 47.5585 55.0586 49.3749 55.0586 50.7811C55.0586 53.0663 55.0586 55.3515 55.0586 57.6366C55.0586 59.0038 55.3125 60.7811 54.7852 62.0702C54.1992 63.496 52.8125 64.3554 51.3086 64.414C49.7461 64.453 49.7266 66.8944 51.3086 66.8554C54.7656 66.7577 57.4414 64.0624 57.5195 60.6054C57.5586 58.8866 57.5195 57.1874 57.5195 55.4686C57.5195 53.2616 57.5195 51.0741 57.5195 48.8671C57.5195 46.4061 56.8359 44.1796 54.668 42.7538C53.3203 41.8554 51.8164 41.7772 50.2734 41.7772C48.6719 41.7772 47.0703 41.7772 45.4883 41.7772C40.6445 41.7772 35.8008 41.7772 30.957 41.7772C27.7734 41.7772 24.5898 41.7577 21.4063 41.7772C18.5938 41.7968 16.0352 43.5741 15.2734 46.328C14.8437 47.8905 15.0586 49.7265 15.0586 51.328C15.0586 53.7108 15.0586 56.0936 15.0586 58.4765C15.0586 60.41 14.9219 62.3241 16.0352 64.0233C17.3242 65.9765 19.4141 66.8749 21.6797 66.8749C23.0078 66.8749 24.3359 66.8749 25.6641 66.8749C34.0234 66.8749 42.4023 66.8749 50.7617 66.8749C50.957 66.8749 51.1523 66.8749 51.3281 66.8749C52.8906 66.8554 52.8906 64.414 51.3086 64.414Z"
            fill="white"/>
        <path
            d="M62.2266 55.5273C63.4961 55.5273 64.7852 55.5273 66.0547 55.5273C67.6172 55.5273 67.6367 53.0859 66.0547 53.0859C64.7852 53.0859 63.4961 53.0859 62.2266 53.0859C60.6641 53.0859 60.6641 55.5273 62.2266 55.5273Z"
            fill="white"/>
        <path
            d="M30.6445 51.2496C30.1758 49.9996 28.9648 49.6676 27.9297 49.5699C26.9141 49.4722 25.0781 49.7457 25.0781 49.7457V58.8472H26.2891V55.1168C26.3672 55.273 27.3633 55.234 27.3633 55.234C28.9258 55.234 29.4141 54.7652 30.0195 54.2379C30.625 53.691 31.1133 52.4996 30.6445 51.2496ZM29.3945 53.2613C29.0625 53.8668 28.457 54.0816 27.9492 54.1793C27.4609 54.2769 26.3086 54.1793 26.3086 54.1793V50.5269C26.3086 50.5269 27.2656 50.3902 27.8125 50.4683C27.9492 50.4879 28.2617 50.5269 28.457 50.6051C28.9258 50.7808 29.1602 51.0152 29.3945 51.3277C29.7266 51.8941 29.7852 52.5387 29.3945 53.2613Z"
            fill="white"/>
        <path
            d="M39.7852 52.4999C39.5117 51.367 38.4961 50.5077 38.4961 50.5077C37.6172 49.7264 36.1133 49.5702 35.3125 49.5311C34.5117 49.4921 32.4023 49.7069 32.4023 49.7069V58.828C32.4023 58.828 34.043 59.0428 35.5078 58.9061C36.9727 58.7499 37.7148 58.3006 38.3594 57.871C38.9844 57.4217 39.707 56.2889 39.8828 55.3124C40.0586 54.3163 40.0781 53.6327 39.7852 52.4999ZM38.6328 55.2147C38.3789 56.0936 38.2031 56.5428 37.4023 57.2264C36.6016 57.9296 34.6484 58.1444 33.5938 57.871V50.5858C33.5938 50.5858 35.1953 50.3124 36.3086 50.5858C37.4219 50.8592 38.1836 51.6405 38.457 52.3241C38.75 52.9686 38.8867 54.3358 38.6328 55.2147Z"
            fill="white"/>
        <path d="M41.543 49.5312H46.5234V50.6055H42.7734V53.6719H46.2305V54.6484H42.7539V58.9453H41.543V49.5312Z"
              fill="white"/>
    </g>
    <defs>
        <filter id="filter0_d_59_2122" x="11.3546" y="0.875" width="84.9182" height="104.666"
                filterUnits="userSpaceOnUse" color-interpolation-filters="sRGB">
            <feFlood flood-opacity="0" result="BackgroundImageFix"/>
            <feColorMatrix in="SourceAlpha" type="matrix" values="0 0 0 0 0 0 0 0 0 0 0 0 0 0 0 0 0 0 127 0"
                           result="hardAlpha"/>
            <feOffset dx="4" dy="4"/>
            <feGaussianBlur stdDeviation="5"/>
            <feComposite in2="hardAlpha" operator="out"/>
            <feColorMatrix type="matrix" values="0 0 0 0 0.0373092 0 0 0 0 0.288846 0 0 0 0 0.220783 0 0 0 1 0"/>
            <feBlend mode="normal" in2="BackgroundImageFix" result="effect1_dropShadow_59_2122"/>
            <feBlend mode="normal" in="SourceGraphic" in2="effect1_dropShadow_59_2122" result="shape"/>
        </filter>
        <linearGradient id="paint0_linear_59_2122" x1="49.8242" y1="8.10547" x2="49.8242" y2="90.3125"
                        gradientUnits="userSpaceOnUse">
            <stop stop-color="#7775B6"/>
            <stop offset="0.697917" stop-color="#494694"/>
        </linearGradient>
        <linearGradient id="paint1_linear_59_2122" x1="36.2695" y1="42.9688" x2="36.2695" y2="65.625"
                        gradientUnits="userSpaceOnUse">
            <stop stop-color="#7775B6"/>
            <stop offset="0.697917" stop-color="#494694"/>
        </linearGradient>
        <clipPath id="clip0_59_2122">
            <rect width="100" height="100" fill="white"/>
        </clipPath>
    </defs>
</svg>
