<svg width="80" height="80" viewBox="0 0 80 80" fill="none" xmlns="http://www.w3.org/2000/svg">
<g clip-path="url(#clip0_734_1041)">
<path d="M35.4272 58.5927C35.9183 58.5927 36.4015 58.4009 36.7633 58.039L53.4664 41.3379C53.8208 40.9835 54.0201 40.5038 54.0201 40.0018C54.0201 39.4998 53.8208 39.0201 53.4664 38.6657L36.7633 21.9606C36.2205 21.4178 35.4088 21.2632 34.704 21.551C33.9991 21.8428 33.5379 22.5328 33.5379 23.2968V56.7029C33.5379 57.4669 33.9972 58.1573 34.704 58.4486C34.9381 58.545 35.1837 58.5927 35.4272 58.5927Z" fill="white"/>
<path d="M40.0002 80C62.0568 80 80 62.0587 80 40.0017C80 17.9447 62.0568 0 40.0002 0C17.9437 0 0.000495911 17.9452 0.000495911 40.0017C0.000495911 62.0582 17.9432 80 40.0002 80ZM40.0002 3.77923C59.9715 3.77923 76.2208 20.0299 76.2208 40.0017C76.2208 59.9735 59.9715 76.2203 40.0002 76.2203C20.029 76.2203 3.77972 59.973 3.77972 40.0017C3.77972 20.0304 20.0285 3.77923 40.0002 3.77923Z" fill="white"/>
</g>
<defs>
<clipPath id="clip0_734_1041">
<rect width="80" height="80" fill="white" transform="matrix(-1 0 0 1 80 0)"/>
</clipPath>
</defs>
</svg>
