<svg width="35" height="35" viewBox="0 0 35 35" fill="none" xmlns="http://www.w3.org/2000/svg">
<path d="M15.4994 25.6345C15.7143 25.6345 15.9257 25.5505 16.084 25.3922L23.3917 18.0854C23.5467 17.9303 23.6339 17.7205 23.6339 17.5008C23.6339 17.2812 23.5467 17.0713 23.3917 16.9162L16.084 9.60769C15.8465 9.37021 15.4914 9.30257 15.183 9.42849C14.8746 9.55614 14.6728 9.858 14.6728 10.1922V24.8076C14.6728 25.1419 14.8738 25.444 15.183 25.5714C15.2854 25.6136 15.3929 25.6345 15.4994 25.6345Z" fill="white"/>
<path d="M17.5001 35.0005C27.15 35.0005 35.0003 27.1511 35.0003 17.501C35.0003 7.85093 27.15 0 17.5001 0C7.85028 0 -3.83989e-06 7.85115 -3.83989e-06 17.501C-3.83989e-06 27.1509 7.85006 35.0005 17.5001 35.0005ZM17.5001 1.65344C26.2377 1.65344 33.3468 8.76323 33.3468 17.501C33.3468 26.2388 26.2377 33.3468 17.5001 33.3468C8.76257 33.3468 1.65343 26.2386 1.65343 17.501C1.65343 8.76344 8.76235 1.65344 17.5001 1.65344Z" fill="white"/>
</svg>
