<svg width="382" height="510" viewBox="0 0 382 510" fill="none" xmlns="http://www.w3.org/2000/svg">
<g clip-path="url(#clip0_8_1038)">
<path d="M394.322 101.612C393.878 98.8795 394.273 96.1466 395.522 93.6671C397.714 89.3188 402.132 86.421 406.774 85.2392C411.897 83.9354 417.414 84.6499 421.9 87.4897C424.316 89.0196 426.288 91.1937 427.583 93.7404C429.163 96.8489 429.631 100.281 429.233 103.722C429.074 105.115 428.804 106.507 428.504 107.875C428.161 109.423 427.76 110.962 427.326 112.489C426.848 114.157 426.327 115.815 425.758 117.454C425.274 118.847 424.76 120.239 424.178 121.595C422.782 124.841 421.119 127.763 418.679 130.343C417.261 131.846 415.666 133.147 414.003 134.368C412.126 135.745 410.139 136.832 408.094 137.932C406.627 138.722 404.9 139.614 403.669 140.738C402.886 141.452 401.685 142.341 400.577 141.791C399.536 141.275 399.361 139.837 399.325 138.811C399.276 137.458 399.438 136.017 399.619 134.677C399.781 133.47 399.986 132.27 400.194 131.07C400.271 130.618 400.35 130.163 400.424 129.711C400.464 129.458 400.513 129.177 400.525 128.921C400.69 125.473 400.467 121.989 399.759 118.609C399.469 117.213 399.123 115.818 398.737 114.444C398.323 112.969 397.855 111.445 397.264 110.031C396.811 108.953 396.321 107.891 395.874 106.81C395.167 105.106 394.619 103.442 394.322 101.612ZM265.067 77.7702C265.04 77.9168 265.015 78.0664 265 78.1885C265.031 78.2038 265.058 78.2191 265.083 78.2313C265.303 78.3473 265.514 78.4756 265.716 78.6222C266.442 79.1352 267.079 79.8222 267.633 80.5062C271.58 85.3675 274.342 90.2624 275.248 96.513C275.756 100.022 275.677 103.625 275.628 107.161C275.6 109.225 275.576 111.286 275.612 113.347C275.655 115.757 275.775 118.16 275.989 120.557C276.213 123.058 276.402 125.574 276.712 128.066C276.96 130.069 277.297 132.06 277.884 133.996C278.714 136.725 279.991 139.107 281.638 141.431C283.013 143.373 284.544 145.156 286.262 146.805C289.195 149.621 292.569 151.951 295.968 154.164C298.28 155.667 300.665 157.065 302.989 158.549C304.743 159.67 306.495 160.843 308.127 162.134C309.483 163.209 310.922 164.492 311.899 165.93C312.958 167.487 313.959 169.084 315.022 170.635C315.729 171.664 316.489 172.693 317.432 173.524C318.436 174.41 319.575 174.993 320.821 175.463C322.787 176.208 324.976 176.7 327.031 177.139C328.372 177.426 329.74 177.643 331.097 177.833C332.928 178.089 334.765 178.294 336.605 178.459C341.039 178.862 345.527 179.054 349.979 178.987C356.192 178.892 368.424 178.156 372.891 173.249C373.632 172.437 374.386 171.533 374.928 170.571C375.234 170.028 375.424 169.499 375.672 168.938C376.244 167.649 377.16 166.812 378.256 165.948C379.315 165.111 380.454 164.345 381.584 163.603C383.446 162.382 385.35 161.215 387.258 160.064C389.952 158.436 392.677 156.855 395.372 155.227C397.034 154.222 398.694 153.206 400.329 152.155C401.532 151.38 402.8 150.555 403.914 149.657C406.428 147.639 409.009 145.724 411.63 143.846C413.673 142.381 415.755 140.961 417.782 139.477C419.297 138.368 420.785 137.211 422.117 135.886C423.694 134.316 424.95 132.591 426.079 130.679C427.714 127.907 429.062 124.868 430.314 121.91C432.329 117.146 434.028 112.019 434.702 106.877C435.271 102.525 435.106 98.0367 433.498 93.9053C431.79 89.5081 428.706 86.1675 424.763 83.63C421.823 81.7337 418.403 80.323 414.983 79.584C411.248 78.7748 407.328 78.7351 403.648 79.8466C402.35 80.2405 401.07 80.7932 399.851 81.3826C398.424 82.0727 397.031 82.8422 395.672 83.6575C393.311 85.0743 390.935 86.6775 388.807 88.4241C388.155 88.9585 387.619 89.6119 386.967 90.1494L386.618 90.4364L386.183 90.3173C381.746 89.0989 377.466 87.3248 372.986 86.253L372.31 86.0912L372.322 85.398C372.402 80.4635 369.906 78.2893 365.522 76.6984C363.292 75.8892 360.898 75.2785 358.592 74.7227C356.394 74.1914 354.177 73.7151 351.96 73.2692L351.219 73.1196L351.265 72.3654C351.308 71.6509 351.382 70.9394 351.437 70.2279C351.48 69.6905 351.507 69.1408 351.464 68.6034C351.379 67.5804 351.014 66.7346 350.482 65.8643C349.444 64.1666 347.747 62.9879 345.705 63.0001C343.586 63.0123 341.868 63.9772 340.76 65.7666C339.241 68.2156 339.48 69.6172 339.891 72.3776L340.013 73.2051L339.189 73.3578C336.948 73.77 334.71 74.2128 332.487 74.7166C330.141 75.2449 327.72 75.8434 325.454 76.6465C320.907 78.2588 318.173 80.1764 318.871 85.4438L318.953 86.0668L318.387 86.3385C317.129 86.9401 315.858 87.5233 314.569 88.0607C314.012 88.2928 313.424 88.5096 312.885 88.7722C312.321 89.047 311.795 89.4165 311.283 89.7799C310 90.6899 308.742 91.6426 307.477 92.577C305.849 93.7801 304.327 95.1175 302.725 96.3481L297.389 100.535L296.929 100.357C291.687 98.3482 285.983 87.9905 283.518 83.0926C283.096 82.2528 282.731 81.3826 282.349 80.5245C281.703 79.068 280.802 77.0526 279.406 76.1732C278.726 75.7426 277.973 75.6144 277.177 75.6877C276.157 75.7823 274.985 76.1793 274.005 76.4816C273.145 76.7473 272.266 77.0251 271.381 77.2022C270.374 77.4038 269.277 77.4679 268.252 77.529C267.523 77.5656 266.791 77.6023 266.062 77.6633C265.756 77.6878 265.401 77.7183 265.067 77.7702Z" stroke="url(#paint0_linear_8_1038)" stroke-width="1.4173" stroke-miterlimit="22.9256"/>
<path d="M209.431 84.8527C210.141 82.1716 211.615 79.8311 213.765 78.0695C217.536 74.9809 222.745 74.1234 227.458 74.9272C232.659 75.8144 237.397 78.709 240.328 83.1293C241.906 85.5103 242.817 88.3006 242.96 91.157C243.132 94.6432 242.16 97.9742 240.394 100.962C239.681 102.171 238.868 103.336 238.037 104.466C237.093 105.743 236.1 106.989 235.081 108.209C233.966 109.541 232.816 110.847 231.628 112.116C230.619 113.194 229.583 114.259 228.5 115.263C225.904 117.667 223.197 119.666 219.921 121.036C218.016 121.835 216.031 122.377 214.018 122.82C211.745 123.318 209.491 123.505 207.178 123.681C205.519 123.809 203.581 123.923 202.001 124.452C200.995 124.787 199.539 125.113 198.753 124.16C198.014 123.265 198.442 121.878 198.826 120.924C199.333 119.666 200.069 118.413 200.78 117.26C201.42 116.222 202.096 115.207 202.775 114.194C203.029 113.811 203.287 113.427 203.538 113.044C203.678 112.828 203.837 112.591 203.953 112.361C205.509 109.273 206.726 105.994 207.459 102.614C207.763 101.219 208.016 99.8013 208.225 98.3872C208.449 96.8697 208.644 95.2852 208.681 93.7514C208.708 92.581 208.694 91.4097 208.728 90.239C208.778 88.3925 208.956 86.6471 209.431 84.8527ZM101.332 10.5432C101.247 10.6661 101.164 10.7931 101.1 10.8987C101.121 10.9251 101.14 10.9502 101.158 10.9714C101.311 11.1671 101.452 11.3702 101.576 11.5864C102.028 12.3506 102.329 13.2379 102.555 14.0889C104.171 20.1402 104.693 25.741 102.971 31.8288C102.003 35.2458 100.462 38.5107 98.9756 41.7266C98.109 43.6043 97.2463 45.4805 96.4395 47.3815C95.4963 49.6036 94.6254 51.8511 93.8435 54.1317C93.0277 56.5109 92.1749 58.8905 91.441 61.2962C90.8504 63.2299 90.3457 65.1885 90.0923 67.1988C89.7357 70.0339 89.9285 72.7319 90.4827 75.5273C90.9441 77.8628 91.6126 80.1164 92.5061 82.3228C94.0321 86.0904 96.1579 89.5927 98.3534 92.9988C99.8481 95.3124 101.452 97.5608 102.966 99.8626C104.108 101.601 105.226 103.385 106.187 105.23C106.986 106.764 107.774 108.522 108.078 110.235C108.409 112.09 108.671 113.958 109.007 115.809C109.232 117.038 109.505 118.288 110.026 119.431C110.58 120.649 111.381 121.646 112.325 122.582C113.813 124.062 115.608 125.401 117.302 126.638C118.407 127.445 119.566 128.199 120.725 128.923C122.29 129.902 123.881 130.835 125.491 131.733C129.368 133.903 133.381 135.902 137.467 137.648C143.169 140.084 154.619 144.379 160.691 141.703C161.698 141.26 162.753 140.739 163.639 140.079C164.14 139.706 164.528 139.3 164.983 138.886C166.031 137.94 167.206 137.546 168.558 137.2C169.865 136.865 171.215 136.626 172.548 136.406C174.743 136.044 176.954 135.75 179.162 135.471C182.282 135.076 185.411 134.736 188.53 134.341C190.456 134.096 192.383 133.84 194.302 133.543C195.715 133.322 197.206 133.082 198.588 132.713C201.702 131.887 204.836 131.183 207.991 130.529C210.45 130.017 212.927 129.564 215.379 129.029C217.213 128.63 219.041 128.175 220.795 127.504C222.873 126.708 224.72 125.639 226.529 124.348C229.15 122.475 231.617 120.242 233.965 118.043C237.743 114.502 241.383 110.501 244.093 106.069C246.386 102.318 248.065 98.1437 248.285 93.7103C248.52 88.9927 247.071 84.6836 244.511 80.76C242.605 77.8311 240.062 75.1512 237.246 73.086C234.171 70.8285 230.614 69.2005 226.807 68.723C225.463 68.5562 224.071 68.5422 222.719 68.5865C221.138 68.6386 219.554 68.777 217.982 68.9709C215.253 69.3087 212.433 69.8108 209.782 70.5449C208.969 70.769 208.214 71.1494 207.401 71.3763L206.966 71.4972L206.618 71.2116C203.07 68.2949 199.892 64.9331 196.245 62.1331L195.695 61.7102L195.988 61.0809C198.073 56.5977 196.684 53.5948 193.336 50.3583C191.634 48.7126 189.701 47.1814 187.826 45.7365C186.038 44.3575 184.212 43.0213 182.373 41.7131L181.759 41.2752L182.108 40.6037C182.438 39.9672 182.795 39.346 183.136 38.7174C183.394 38.243 183.643 37.7512 183.823 37.242C184.162 36.2711 184.175 35.3491 184.044 34.3364C183.79 32.3613 182.724 30.5938 180.858 29.7756C178.921 28.9263 176.962 29.1117 175.222 30.299C172.839 31.9232 172.486 33.3027 171.734 35.9954L171.509 36.8023L170.696 36.6076C168.484 36.0746 166.264 35.5707 164.032 35.129C161.679 34.6599 159.227 34.224 156.834 34.0387C152.032 33.6675 148.758 34.3119 147.247 39.4155L147.068 40.0191L146.441 40.0377C145.049 40.0771 143.653 40.0948 142.259 40.0631C141.656 40.0491 141.032 40.0088 140.434 40.0302C139.808 40.0529 139.177 40.1771 138.563 40.302C137.023 40.6137 135.487 40.9744 133.953 41.3159C131.978 41.7553 130.046 42.3611 128.084 42.8369L121.513 44.5004L121.166 44.1518C117.207 40.1844 116.23 28.3897 115.98 22.9068C115.938 21.9667 115.96 21.0224 115.961 20.0818C115.966 18.4866 115.967 16.2768 115.053 14.905C114.609 14.235 113.975 13.8117 113.219 13.5555C112.251 13.228 111.02 13.115 110.004 12.9937C109.111 12.8874 108.197 12.7848 107.318 12.5875C106.318 12.3628 105.293 11.9764 104.333 11.6157C103.654 11.3533 102.972 11.0896 102.282 10.8495C101.993 10.7475 101.657 10.6312 101.332 10.5432Z" stroke="url(#paint1_linear_8_1038)" stroke-width="1.4173" stroke-miterlimit="22.9256"/>
<path d="M-42.1784 136.853C-42.8879 134.172 -44.3622 131.831 -46.5118 130.07C-50.2829 126.981 -55.4918 126.123 -60.2047 126.927C-65.4057 127.814 -70.1438 130.709 -73.0748 135.129C-74.6533 137.51 -75.5643 140.301 -75.7066 143.157C-75.8795 146.643 -74.9072 149.974 -73.1414 152.962C-72.4286 154.171 -71.6153 155.336 -70.784 156.466C-69.8403 157.743 -68.8472 158.989 -67.8284 160.209C-66.7133 161.541 -65.5628 162.847 -64.3752 164.116C-63.3665 165.194 -62.33 166.259 -61.2469 167.263C-58.6509 169.667 -55.944 171.666 -52.6676 173.036C-50.7628 173.835 -48.7784 174.377 -46.7649 174.82C-44.4926 175.318 -42.238 175.505 -39.9254 175.681C-38.2661 175.809 -36.3285 175.923 -34.7483 176.452C-33.7425 176.787 -32.2862 177.113 -31.4999 176.16C-30.7614 175.265 -31.1886 173.878 -31.5734 172.924C-32.0803 171.666 -32.8158 170.413 -33.527 169.26C-34.1666 168.222 -34.8429 167.207 -35.5219 166.194C-35.7759 165.811 -36.034 165.427 -36.2852 165.044C-36.4248 164.828 -36.584 164.591 -36.6998 164.361C-38.256 161.273 -39.4727 157.994 -40.2061 154.614C-40.5099 153.219 -40.7634 151.801 -40.972 150.387C-41.1965 148.87 -41.3907 147.285 -41.4284 145.751C-41.4548 144.581 -41.4414 143.41 -41.4746 142.239C-41.5246 140.393 -41.7035 138.647 -42.1784 136.853ZM65.9212 62.5432C66.0061 62.6661 66.0894 62.7931 66.1532 62.8987C66.1315 62.9251 66.1126 62.9502 66.0952 62.9714C65.9416 63.1671 65.8013 63.3702 65.6769 63.5864C65.2245 64.3506 64.9241 65.2379 64.6978 66.0889C63.0821 72.1402 62.5602 77.741 64.2824 83.8288C65.2495 87.2458 66.791 90.5107 68.2773 93.7266C69.144 95.6043 70.0066 97.4805 70.8134 99.3815C71.7566 101.604 72.6275 103.851 73.4094 106.132C74.2252 108.511 75.078 110.89 75.812 113.296C76.4025 115.23 76.9072 117.189 77.1606 119.199C77.5172 122.034 77.3244 124.732 76.7702 127.527C76.3088 129.863 75.6403 132.116 74.7468 134.323C73.2208 138.09 71.095 141.593 68.8995 144.999C67.4048 147.312 65.8008 149.561 64.2874 151.863C63.1451 153.601 62.0266 155.385 61.0656 157.23C60.2674 158.764 59.4785 160.522 59.1745 162.235C58.8437 164.09 58.5822 165.958 58.2461 167.809C58.0209 169.038 57.7483 170.288 57.2273 171.431C56.6728 172.649 55.8723 173.646 54.9281 174.582C53.44 176.062 51.6449 177.401 49.9514 178.638C48.846 179.445 47.6868 180.199 46.5275 180.923C44.9631 181.902 43.3719 182.835 41.7617 183.733C37.8846 185.903 33.8714 187.902 29.7859 189.648C24.0844 192.084 12.6342 196.379 6.56155 193.703C5.55498 193.26 4.49989 192.739 3.61374 192.079C3.11304 191.706 2.72463 191.3 2.26949 190.886C1.22222 189.94 0.0465971 189.546 -1.3049 189.2C-2.61169 188.865 -3.96242 188.626 -5.29482 188.406C-7.48973 188.044 -9.70129 187.75 -11.9094 187.471C-15.0291 187.076 -18.1579 186.736 -21.2776 186.341C-23.2027 186.096 -25.1299 185.84 -27.0486 185.543C-28.4617 185.322 -29.9533 185.082 -31.3352 184.713C-34.4495 183.887 -37.5829 183.183 -40.7377 182.529C-43.1968 182.017 -45.6736 181.564 -48.1263 181.029C-49.9597 180.63 -51.788 180.175 -53.5424 179.504C-55.6196 178.708 -57.4673 177.639 -59.2765 176.348C-61.8973 174.475 -64.364 172.242 -66.7119 170.043C-70.4904 166.502 -74.1297 162.501 -76.8401 158.069C-79.1333 154.318 -80.8126 150.144 -81.0317 145.71C-81.2669 140.993 -79.8183 136.684 -77.258 132.76C-75.3517 129.831 -72.8093 127.151 -69.993 125.086C-66.9179 122.828 -63.3616 121.201 -59.5536 120.723C-58.2096 120.556 -56.8177 120.542 -55.4666 120.587C-53.8846 120.639 -52.301 120.777 -50.7294 120.971C-47.9999 121.309 -45.1804 121.811 -42.5286 122.545C-41.7162 122.769 -40.9614 123.149 -40.1478 123.376L-39.7126 123.497L-39.3649 123.212C-35.8174 120.295 -32.6388 116.933 -28.9926 114.133L-28.4417 113.71L-28.7355 113.081C-30.8198 108.598 -29.4315 105.595 -26.0834 102.358C-24.3814 100.713 -22.4478 99.1814 -20.5728 97.7365C-18.7854 96.3575 -16.959 95.0213 -15.12 93.7131L-14.5056 93.2752L-14.855 92.6037C-15.1853 91.9672 -15.5424 91.346 -15.8827 90.7174C-16.1409 90.243 -16.3901 89.7512 -16.5701 89.242C-16.909 88.2711 -16.9217 87.3491 -16.7909 86.3364C-16.5369 84.3613 -15.4712 82.5938 -13.6046 81.7756C-11.6683 80.9263 -9.70911 81.1117 -7.96924 82.299C-5.58648 83.9232 -5.23276 85.3027 -4.48136 87.9954L-4.25562 88.8023L-3.44259 88.6076C-1.23151 88.0746 0.989238 87.5707 3.22093 87.129C5.57421 86.6599 8.02591 86.224 10.4187 86.0387C15.2206 85.6675 18.4948 86.3119 20.006 91.4155L20.1846 92.0191L20.8117 92.0377C22.2041 92.0771 23.6001 92.0948 24.9942 92.0631C25.5968 92.0491 26.2211 92.0088 26.8193 92.0302C27.4449 92.0529 28.0756 92.1771 28.6899 92.302C30.2303 92.6137 31.7658 92.9744 33.2994 93.3159C35.2748 93.7553 37.2072 94.3611 39.1686 94.8369L45.7401 96.5004L46.0865 96.1518C50.0456 92.1844 51.0225 80.3897 51.2724 74.9068C51.3153 73.9667 51.2926 73.0224 51.2916 72.0818C51.2867 70.4866 51.2856 68.2768 52.1998 66.905C52.6439 66.235 53.2782 65.8117 54.0337 65.5555C55.0017 65.228 56.2325 65.115 57.2489 64.9937C58.1415 64.8874 59.0558 64.7848 59.9346 64.5875C60.935 64.3628 61.9603 63.9764 62.9202 63.6157C63.5994 63.3533 64.2814 63.0896 64.9706 62.8495C65.2596 62.7475 65.5958 62.6312 65.9212 62.5432Z" stroke="url(#paint2_linear_8_1038)" stroke-width="1.4173" stroke-miterlimit="22.9256"/>
<path d="M17.8216 308.336C17.1121 311.017 15.6378 313.357 13.4882 315.119C9.71709 318.208 4.50823 319.065 -0.204728 318.261C-5.40568 317.374 -10.1438 314.48 -13.0748 310.059C-14.6533 307.678 -15.5643 304.888 -15.7066 302.031C-15.8795 298.545 -14.9072 295.214 -13.1414 292.227C-12.4286 291.017 -11.6153 289.853 -10.784 288.723C-9.84026 287.445 -8.84719 286.2 -7.82841 284.979C-6.71329 283.648 -5.56283 282.342 -4.37518 281.072C-3.36652 279.995 -2.32996 278.929 -1.24692 277.925C1.34912 275.522 4.05602 273.523 7.33242 272.153C9.23715 271.354 11.2216 270.811 13.2351 270.369C15.5074 269.871 17.762 269.683 20.0746 269.508C21.7339 269.38 23.6715 269.265 25.2517 268.737C26.2575 268.401 27.7138 268.076 28.5001 269.029C29.2386 269.924 28.8114 271.311 28.4266 272.264C27.9197 273.522 27.1842 274.775 26.473 275.928C25.8334 276.966 25.1571 277.981 24.4781 278.995C24.2241 279.377 23.966 279.761 23.7148 280.145C23.5752 280.361 23.416 280.598 23.3002 280.828C21.744 283.915 20.5273 287.194 19.7939 290.575C19.4901 291.97 19.2366 293.387 19.028 294.801C18.8035 296.319 18.6093 297.903 18.5716 299.437C18.5452 300.607 18.5586 301.779 18.5254 302.95C18.4754 304.796 18.2965 306.541 17.8216 308.336ZM125.921 382.645C126.006 382.522 126.089 382.395 126.153 382.29C126.131 382.263 126.113 382.238 126.095 382.217C125.942 382.021 125.801 381.818 125.677 381.602C125.225 380.838 124.924 379.951 124.698 379.1C123.082 373.048 122.56 367.448 124.282 361.36C125.249 357.943 126.791 354.678 128.277 351.462C129.144 349.584 130.007 347.708 130.813 345.807C131.757 343.585 132.628 341.337 133.409 339.057C134.225 336.678 135.078 334.298 135.812 331.892C136.403 329.959 136.907 328 137.161 325.99C137.517 323.155 137.324 320.457 136.77 317.661C136.309 315.326 135.64 313.072 134.747 310.866C133.221 307.098 131.095 303.596 128.9 300.19C127.405 297.876 125.801 295.628 124.287 293.326C123.145 291.588 122.027 289.804 121.066 287.959C120.267 286.424 119.479 284.666 119.175 282.954C118.844 281.098 118.582 279.23 118.246 277.379C118.021 276.15 117.748 274.9 117.227 273.757C116.673 272.539 115.872 271.543 114.928 270.607C113.44 269.126 111.645 267.787 109.951 266.551C108.846 265.743 107.687 264.989 106.528 264.265C104.963 263.287 103.372 262.353 101.762 261.455C97.8846 259.286 93.8714 257.287 89.7859 255.54C84.0844 253.104 72.6342 248.81 66.5615 251.486C65.555 251.928 64.4999 252.449 63.6137 253.109C63.113 253.483 62.7246 253.889 62.2695 254.302C61.2222 255.249 60.0466 255.643 58.6951 255.988C57.3883 256.324 56.0376 256.562 54.7052 256.783C52.5103 257.144 50.2987 257.438 48.0906 257.717C44.9709 258.112 41.8421 258.453 38.7224 258.848C36.7973 259.092 34.8701 259.349 32.9514 259.646C31.5383 259.867 30.0467 260.106 28.6648 260.475C25.5505 261.301 22.4171 262.005 19.2623 262.659C16.8032 263.171 14.3264 263.625 11.8737 264.16C10.0403 264.558 8.212 265.013 6.45762 265.685C4.38036 266.481 2.53267 267.55 0.723467 268.84C-1.89732 270.713 -4.36404 272.946 -6.71189 275.145C-10.4904 278.686 -14.1297 282.688 -16.8401 287.12C-19.1333 290.87 -20.8126 295.045 -21.0317 299.478C-21.2669 304.196 -19.8183 308.505 -17.258 312.428C-15.3517 315.357 -12.8093 318.037 -9.99302 320.102C-6.91788 322.36 -3.36156 323.988 0.446387 324.466C1.79037 324.632 3.18234 324.646 4.53344 324.602C6.1154 324.55 7.69903 324.412 9.27063 324.218C12.0001 323.88 14.8196 323.378 17.4714 322.644C18.2838 322.419 19.0386 322.039 19.8522 321.812L20.2874 321.691L20.6351 321.977C24.1826 324.894 27.3612 328.255 31.0074 331.055L31.5583 331.478L31.2645 332.108C29.1802 336.591 30.5685 339.594 33.9166 342.83C35.6186 344.476 37.5522 346.007 39.4272 347.452C41.2146 348.831 43.041 350.167 44.88 351.475L45.4944 351.913L45.145 352.585C44.8147 353.221 44.4576 353.842 44.1173 354.471C43.8591 354.946 43.6099 355.437 43.4299 355.946C43.091 356.917 43.0783 357.839 43.2091 358.852C43.4631 360.827 44.5288 362.595 46.3954 363.413C48.3317 364.262 50.2909 364.077 52.0308 362.89C54.4135 361.265 54.7672 359.886 55.5186 357.193L55.7444 356.386L56.5574 356.581C58.7685 357.114 60.9892 357.618 63.2209 358.059C65.5742 358.529 68.0259 358.964 70.4187 359.15C75.2206 359.521 78.4948 358.877 80.006 353.773L80.1846 353.169L80.8117 353.151C82.2041 353.111 83.6001 353.094 84.9942 353.125C85.5968 353.139 86.2211 353.18 86.8193 353.158C87.4449 353.136 88.0756 353.011 88.6899 352.886C90.2303 352.575 91.7658 352.214 93.2994 351.873C95.2748 351.433 97.2072 350.827 99.1686 350.352L105.74 348.688L106.087 349.037C110.046 353.004 111.023 364.799 111.272 370.282C111.315 371.222 111.293 372.166 111.292 373.107C111.287 374.702 111.286 376.912 112.2 378.283C112.644 378.954 113.278 379.377 114.034 379.633C115.002 379.96 116.233 380.073 117.249 380.195C118.141 380.301 119.056 380.404 119.935 380.601C120.935 380.826 121.96 381.212 122.92 381.573C123.599 381.835 124.281 382.099 124.971 382.339C125.26 382.441 125.596 382.557 125.921 382.645Z" stroke="url(#paint3_linear_8_1038)" stroke-width="1.4173" stroke-miterlimit="22.9256"/>
<path d="M328.822 262.336C328.112 265.017 326.638 267.357 324.488 269.119C320.717 272.208 315.508 273.065 310.795 272.261C305.594 271.374 300.856 268.48 297.925 264.059C296.347 261.678 295.436 258.888 295.293 256.031C295.121 252.545 296.093 249.214 297.859 246.227C298.571 245.017 299.385 243.853 300.216 242.723C301.16 241.445 302.153 240.2 303.172 238.979C304.287 237.648 305.437 236.342 306.625 235.072C307.633 233.995 308.67 232.929 309.753 231.925C312.349 229.522 315.056 227.523 318.332 226.153C320.237 225.354 322.222 224.811 324.235 224.369C326.507 223.871 328.762 223.683 331.075 223.508C332.734 223.38 334.672 223.265 336.252 222.737C337.257 222.401 338.714 222.076 339.5 223.029C340.239 223.924 339.811 225.311 339.427 226.264C338.92 227.522 338.184 228.775 337.473 229.928C336.833 230.966 336.157 231.981 335.478 232.995C335.224 233.377 334.966 233.761 334.715 234.145C334.575 234.361 334.416 234.598 334.3 234.828C332.744 237.915 331.527 241.194 330.794 244.575C330.49 245.97 330.237 247.387 330.028 248.801C329.804 250.319 329.609 251.903 329.572 253.437C329.545 254.607 329.559 255.779 329.525 256.95C329.475 258.796 329.297 260.541 328.822 262.336ZM436.921 336.645C437.006 336.522 437.089 336.395 437.153 336.29C437.131 336.263 437.113 336.238 437.095 336.217C436.942 336.021 436.801 335.818 436.677 335.602C436.225 334.838 435.924 333.951 435.698 333.1C434.082 327.048 433.56 321.448 435.282 315.36C436.249 311.943 437.791 308.678 439.277 305.462C440.144 303.584 441.007 301.708 441.813 299.807C442.757 297.585 443.628 295.337 444.409 293.057C445.225 290.678 446.078 288.298 446.812 285.892C447.403 283.959 447.907 282 448.161 279.99C448.517 277.155 448.324 274.457 447.77 271.661C447.309 269.326 446.64 267.072 445.747 264.866C444.221 261.098 442.095 257.596 439.9 254.19C438.405 251.876 436.801 249.628 435.287 247.326C434.145 245.588 433.027 243.804 432.066 241.959C431.267 240.424 430.479 238.666 430.175 236.954C429.844 235.098 429.582 233.23 429.246 231.379C429.021 230.15 428.748 228.9 428.227 227.757C427.673 226.539 426.872 225.543 425.928 224.607C424.44 223.126 422.645 221.787 420.951 220.551C419.846 219.743 418.687 218.989 417.528 218.265C415.963 217.287 414.372 216.353 412.762 215.455C408.885 213.286 404.871 211.287 400.786 209.54C395.084 207.104 383.634 202.81 377.562 205.486C376.555 205.928 375.5 206.449 374.614 207.109C374.113 207.483 373.725 207.889 373.269 208.302C372.222 209.249 371.047 209.643 369.695 209.988C368.388 210.324 367.038 210.562 365.705 210.783C363.51 211.144 361.299 211.438 359.091 211.717C355.971 212.112 352.842 212.453 349.722 212.848C347.797 213.092 345.87 213.349 343.951 213.646C342.538 213.867 341.047 214.106 339.665 214.475C336.55 215.301 333.417 216.005 330.262 216.659C327.803 217.171 325.326 217.625 322.874 218.16C321.04 218.558 319.212 219.013 317.458 219.685C315.38 220.481 313.533 221.55 311.723 222.84C309.103 224.713 306.636 226.946 304.288 229.145C300.51 232.686 296.87 236.688 294.16 241.12C291.867 244.87 290.187 249.045 289.968 253.478C289.733 258.196 291.182 262.505 293.742 266.428C295.648 269.357 298.191 272.037 301.007 274.102C304.082 276.36 307.638 277.988 311.446 278.466C312.79 278.632 314.182 278.646 315.533 278.602C317.115 278.55 318.699 278.412 320.271 278.218C323 277.88 325.82 277.378 328.471 276.644C329.284 276.419 330.039 276.039 330.852 275.812L331.287 275.691L331.635 275.977C335.183 278.894 338.361 282.255 342.007 285.055L342.558 285.478L342.265 286.108C340.18 290.591 341.568 293.594 344.917 296.83C346.619 298.476 348.552 300.007 350.427 301.452C352.215 302.831 354.041 304.167 355.88 305.475L356.494 305.913L356.145 306.585C355.815 307.221 355.458 307.842 355.117 308.471C354.859 308.946 354.61 309.437 354.43 309.946C354.091 310.917 354.078 311.839 354.209 312.852C354.463 314.827 355.529 316.595 357.395 317.413C359.332 318.262 361.291 318.077 363.031 316.89C365.414 315.265 365.767 313.886 366.519 311.193L366.744 310.386L367.557 310.581C369.768 311.114 371.989 311.618 374.221 312.059C376.574 312.529 379.026 312.964 381.419 313.15C386.221 313.521 389.495 312.877 391.006 307.773L391.185 307.169L391.812 307.151C393.204 307.111 394.6 307.094 395.994 307.125C396.597 307.139 397.221 307.18 397.819 307.158C398.445 307.136 399.076 307.011 399.69 306.886C401.23 306.575 402.766 306.214 404.299 305.873C406.275 305.433 408.207 304.827 410.169 304.352L416.74 302.688L417.087 303.037C421.046 307.004 422.023 318.799 422.272 324.282C422.315 325.222 422.293 326.166 422.292 327.107C422.287 328.702 422.286 330.912 423.2 332.283C423.644 332.954 424.278 333.377 425.034 333.633C426.002 333.96 427.233 334.073 428.249 334.195C429.141 334.301 430.056 334.404 430.935 334.601C431.935 334.826 432.96 335.212 433.92 335.573C434.599 335.835 435.281 336.099 435.971 336.339C436.26 336.441 436.596 336.557 436.921 336.645Z" stroke="url(#paint4_linear_8_1038)" stroke-width="1.4173" stroke-miterlimit="22.9256"/>
<path d="M51.8216 446.336C51.1121 449.017 49.6378 451.357 47.4882 453.119C43.7171 456.208 38.5082 457.065 33.7953 456.261C28.5943 455.374 23.8562 452.48 20.9252 448.059C19.3467 445.678 18.4357 442.888 18.2934 440.031C18.1205 436.545 19.0928 433.214 20.8586 430.227C21.5714 429.017 22.3847 427.853 23.216 426.723C24.1597 425.445 25.1528 424.2 26.1716 422.979C27.2867 421.648 28.4372 420.342 29.6248 419.072C30.6335 417.995 31.67 416.929 32.7531 415.925C35.3491 413.522 38.056 411.523 41.3324 410.153C43.2372 409.354 45.2216 408.811 47.2351 408.369C49.5074 407.871 51.762 407.683 54.0746 407.508C55.7339 407.38 57.6715 407.265 59.2517 406.737C60.2575 406.401 61.7138 406.076 62.5001 407.029C63.2386 407.924 62.8114 409.311 62.4266 410.264C61.9197 411.522 61.1842 412.775 60.473 413.928C59.8334 414.966 59.1571 415.981 58.4781 416.995C58.2241 417.377 57.966 417.761 57.7148 418.145C57.5752 418.361 57.416 418.598 57.3002 418.828C55.744 421.915 54.5273 425.194 53.7939 428.575C53.4901 429.97 53.2366 431.387 53.028 432.801C52.8035 434.319 52.6093 435.903 52.5716 437.437C52.5452 438.607 52.5586 439.779 52.5254 440.95C52.4754 442.796 52.2965 444.541 51.8216 446.336ZM159.921 520.645C160.006 520.522 160.089 520.395 160.153 520.29C160.131 520.263 160.113 520.238 160.095 520.217C159.942 520.021 159.801 519.818 159.677 519.602C159.225 518.838 158.924 517.951 158.698 517.1C157.082 511.048 156.56 505.448 158.282 499.36C159.249 495.943 160.791 492.678 162.277 489.462C163.144 487.584 164.007 485.708 164.813 483.807C165.757 481.585 166.628 479.337 167.409 477.057C168.225 474.678 169.078 472.298 169.812 469.892C170.403 467.959 170.907 466 171.161 463.99C171.517 461.155 171.324 458.457 170.77 455.661C170.309 453.326 169.64 451.072 168.747 448.866C167.221 445.098 165.095 441.596 162.9 438.19C161.405 435.876 159.801 433.628 158.287 431.326C157.145 429.588 156.027 427.804 155.066 425.959C154.267 424.424 153.479 422.666 153.175 420.954C152.844 419.098 152.582 417.23 152.246 415.379C152.021 414.15 151.748 412.9 151.227 411.757C150.673 410.539 149.872 409.543 148.928 408.607C147.44 407.126 145.645 405.787 143.951 404.551C142.846 403.743 141.687 402.989 140.528 402.265C138.963 401.287 137.372 400.353 135.762 399.455C131.885 397.286 127.871 395.287 123.786 393.54C118.084 391.104 106.634 386.81 100.562 389.486C99.555 389.928 98.4999 390.449 97.6137 391.109C97.113 391.483 96.7246 391.889 96.2695 392.302C95.2222 393.249 94.0466 393.643 92.6951 393.988C91.3883 394.324 90.0376 394.562 88.7052 394.783C86.5103 395.144 84.2987 395.438 82.0906 395.717C78.9709 396.112 75.8421 396.453 72.7224 396.848C70.7973 397.092 68.8701 397.349 66.9514 397.646C65.5383 397.867 64.0467 398.106 62.6648 398.475C59.5505 399.301 56.4171 400.005 53.2623 400.659C50.8032 401.171 48.3264 401.625 45.8737 402.16C44.0403 402.558 42.212 403.013 40.4576 403.685C38.3804 404.481 36.5327 405.55 34.7235 406.84C32.1027 408.713 29.636 410.946 27.2881 413.145C23.5096 416.686 19.8703 420.688 17.1599 425.12C14.8667 428.87 13.1874 433.045 12.9683 437.478C12.7331 442.196 14.1817 446.505 16.742 450.428C18.6483 453.357 21.1907 456.037 24.007 458.102C27.0821 460.36 30.6384 461.988 34.4464 462.466C35.7904 462.632 37.1823 462.646 38.5334 462.602C40.1154 462.55 41.699 462.412 43.2706 462.218C46.0001 461.88 48.8196 461.378 51.4714 460.644C52.2838 460.419 53.0386 460.039 53.8522 459.812L54.2874 459.691L54.6351 459.977C58.1826 462.894 61.3612 466.255 65.0074 469.055L65.5583 469.478L65.2645 470.108C63.1802 474.591 64.5685 477.594 67.9166 480.83C69.6186 482.476 71.5522 484.007 73.4272 485.452C75.2146 486.831 77.041 488.167 78.88 489.475L79.4944 489.913L79.145 490.585C78.8147 491.221 78.4576 491.842 78.1173 492.471C77.8591 492.946 77.6099 493.437 77.4299 493.946C77.091 494.917 77.0783 495.839 77.2091 496.852C77.4631 498.827 78.5288 500.595 80.3954 501.413C82.3317 502.262 84.2909 502.077 86.0308 500.89C88.4135 499.265 88.7672 497.886 89.5186 495.193L89.7444 494.386L90.5574 494.581C92.7685 495.114 94.9892 495.618 97.2209 496.059C99.5742 496.529 102.026 496.964 104.419 497.15C109.221 497.521 112.495 496.877 114.006 491.773L114.185 491.169L114.812 491.151C116.204 491.111 117.6 491.094 118.994 491.125C119.597 491.139 120.221 491.18 120.819 491.158C121.445 491.136 122.076 491.011 122.69 490.886C124.23 490.575 125.766 490.214 127.299 489.873C129.275 489.433 131.207 488.827 133.169 488.352L139.74 486.688L140.087 487.037C144.046 491.004 145.023 502.799 145.272 508.282C145.315 509.222 145.293 510.166 145.292 511.107C145.287 512.702 145.286 514.912 146.2 516.283C146.644 516.954 147.278 517.377 148.034 517.633C149.002 517.96 150.233 518.073 151.249 518.195C152.141 518.301 153.056 518.404 153.935 518.601C154.935 518.826 155.96 519.212 156.92 519.573C157.599 519.835 158.281 520.099 158.971 520.339C159.26 520.441 159.596 520.557 159.921 520.645Z" stroke="url(#paint5_linear_8_1038)" stroke-width="1.4173" stroke-miterlimit="22.9256"/>
<path d="M285.822 392.336C285.112 395.017 283.638 397.357 281.488 399.119C277.717 402.208 272.508 403.065 267.795 402.261C262.594 401.374 257.856 398.48 254.925 394.059C253.347 391.678 252.436 388.888 252.293 386.031C252.121 382.545 253.093 379.214 254.859 376.227C255.571 375.017 256.385 373.853 257.216 372.723C258.16 371.445 259.153 370.2 260.172 368.979C261.287 367.648 262.437 366.342 263.625 365.072C264.633 363.995 265.67 362.929 266.753 361.925C269.349 359.522 272.056 357.523 275.332 356.153C277.237 355.354 279.222 354.811 281.235 354.369C283.507 353.871 285.762 353.683 288.075 353.508C289.734 353.38 291.672 353.265 293.252 352.737C294.257 352.401 295.714 352.076 296.5 353.029C297.239 353.924 296.811 355.311 296.427 356.264C295.92 357.522 295.184 358.775 294.473 359.928C293.833 360.966 293.157 361.981 292.478 362.995C292.224 363.377 291.966 363.761 291.715 364.145C291.575 364.361 291.416 364.598 291.3 364.828C289.744 367.915 288.527 371.194 287.794 374.575C287.49 375.97 287.237 377.387 287.028 378.801C286.804 380.319 286.609 381.903 286.572 383.437C286.545 384.607 286.559 385.779 286.525 386.95C286.475 388.796 286.297 390.541 285.822 392.336ZM393.921 466.645C394.006 466.522 394.089 466.395 394.153 466.29C394.131 466.263 394.113 466.238 394.095 466.217C393.942 466.021 393.801 465.818 393.677 465.602C393.225 464.838 392.924 463.951 392.698 463.1C391.082 457.048 390.56 451.448 392.282 445.36C393.249 441.943 394.791 438.678 396.277 435.462C397.144 433.584 398.007 431.708 398.813 429.807C399.757 427.585 400.628 425.337 401.409 423.057C402.225 420.678 403.078 418.298 403.812 415.892C404.403 413.959 404.907 412 405.161 409.99C405.517 407.155 405.324 404.457 404.77 401.661C404.309 399.326 403.64 397.072 402.747 394.866C401.221 391.098 399.095 387.596 396.9 384.19C395.405 381.876 393.801 379.628 392.287 377.326C391.145 375.588 390.027 373.804 389.066 371.959C388.267 370.424 387.479 368.666 387.175 366.954C386.844 365.098 386.582 363.23 386.246 361.379C386.021 360.15 385.748 358.9 385.227 357.757C384.673 356.539 383.872 355.543 382.928 354.607C381.44 353.126 379.645 351.787 377.951 350.551C376.846 349.743 375.687 348.989 374.528 348.265C372.963 347.287 371.372 346.353 369.762 345.455C365.885 343.286 361.871 341.287 357.786 339.54C352.084 337.104 340.634 332.81 334.562 335.486C333.555 335.928 332.5 336.449 331.614 337.109C331.113 337.483 330.725 337.889 330.269 338.302C329.222 339.249 328.047 339.643 326.695 339.988C325.388 340.324 324.038 340.562 322.705 340.783C320.51 341.144 318.299 341.438 316.091 341.717C312.971 342.112 309.842 342.453 306.722 342.848C304.797 343.092 302.87 343.349 300.951 343.646C299.538 343.867 298.047 344.106 296.665 344.475C293.55 345.301 290.417 346.005 287.262 346.659C284.803 347.171 282.326 347.625 279.874 348.16C278.04 348.558 276.212 349.013 274.458 349.685C272.38 350.481 270.533 351.55 268.723 352.84C266.103 354.713 263.636 356.946 261.288 359.145C257.51 362.686 253.87 366.688 251.16 371.12C248.867 374.87 247.187 379.045 246.968 383.478C246.733 388.196 248.182 392.505 250.742 396.428C252.648 399.357 255.191 402.037 258.007 404.102C261.082 406.36 264.638 407.988 268.446 408.466C269.79 408.632 271.182 408.646 272.533 408.602C274.115 408.55 275.699 408.412 277.271 408.218C280 407.88 282.82 407.378 285.471 406.644C286.284 406.419 287.039 406.039 287.852 405.812L288.287 405.691L288.635 405.977C292.183 408.894 295.361 412.255 299.007 415.055L299.558 415.478L299.265 416.108C297.18 420.591 298.568 423.594 301.917 426.83C303.619 428.476 305.552 430.007 307.427 431.452C309.215 432.831 311.041 434.167 312.88 435.475L313.494 435.913L313.145 436.585C312.815 437.221 312.458 437.842 312.117 438.471C311.859 438.946 311.61 439.437 311.43 439.946C311.091 440.917 311.078 441.839 311.209 442.852C311.463 444.827 312.529 446.595 314.395 447.413C316.332 448.262 318.291 448.077 320.031 446.89C322.414 445.265 322.767 443.886 323.519 441.193L323.744 440.386L324.557 440.581C326.768 441.114 328.989 441.618 331.221 442.059C333.574 442.529 336.026 442.964 338.419 443.15C343.221 443.521 346.495 442.877 348.006 437.773L348.185 437.169L348.812 437.151C350.204 437.111 351.6 437.094 352.994 437.125C353.597 437.139 354.221 437.18 354.819 437.158C355.445 437.136 356.076 437.011 356.69 436.886C358.23 436.575 359.766 436.214 361.299 435.873C363.275 435.433 365.207 434.827 367.169 434.352L373.74 432.688L374.087 433.037C378.046 437.004 379.023 448.799 379.272 454.282C379.315 455.222 379.293 456.166 379.292 457.107C379.287 458.702 379.286 460.912 380.2 462.283C380.644 462.954 381.278 463.377 382.034 463.633C383.002 463.96 384.233 464.073 385.249 464.195C386.141 464.301 387.056 464.404 387.935 464.601C388.935 464.826 389.96 465.212 390.92 465.573C391.599 465.835 392.281 466.099 392.971 466.339C393.26 466.441 393.596 466.557 393.921 466.645Z" stroke="url(#paint6_linear_8_1038)" stroke-width="1.4173" stroke-miterlimit="22.9256"/>
<path d="M193.822 -11.6642C193.112 -8.98308 191.638 -6.64264 189.488 -4.88105C185.717 -1.79237 180.508 -0.93497 175.795 -1.7387C170.594 -2.62589 165.856 -5.52049 162.925 -9.94083C161.347 -12.3218 160.436 -15.1121 160.293 -17.9685C160.121 -21.4547 161.093 -24.7857 162.859 -27.7732C163.571 -28.9827 164.385 -30.1474 165.216 -31.2774C166.16 -32.5548 167.153 -33.8002 168.172 -35.0207C169.287 -36.3524 170.437 -37.6583 171.625 -38.9275C172.633 -40.0052 173.67 -41.0705 174.753 -42.0749C177.349 -44.4782 180.056 -46.477 183.332 -47.8471C185.237 -48.6462 187.222 -49.1887 189.235 -49.6312C191.507 -50.1291 193.762 -50.3169 196.075 -50.4921C197.734 -50.6202 199.672 -50.7348 201.252 -51.2632C202.257 -51.5988 203.714 -51.9244 204.5 -50.9713C205.239 -50.0763 204.811 -48.6894 204.427 -47.7356C203.92 -46.4778 203.184 -45.2248 202.473 -44.0715C201.833 -43.0337 201.157 -42.0189 200.478 -41.0053C200.224 -40.6228 199.966 -40.2388 199.715 -39.8551C199.575 -39.6394 199.416 -39.4022 199.3 -39.1725C197.744 -36.0849 196.527 -32.8059 195.794 -29.4254C195.49 -28.0303 195.237 -26.6128 195.028 -25.1987C194.804 -23.6813 194.609 -22.0967 194.572 -20.563C194.545 -19.3925 194.559 -18.2212 194.525 -17.0505C194.475 -15.2041 194.297 -13.4586 193.822 -11.6642ZM301.921 62.6453C302.006 62.5223 302.089 62.3954 302.153 62.2898C302.131 62.2634 302.113 62.2382 302.095 62.2171C301.942 62.0214 301.801 61.8182 301.677 61.6021C301.225 60.8379 300.924 59.9506 300.698 59.0996C299.082 53.0483 298.56 47.4475 300.282 41.3596C301.249 37.9426 302.791 34.6778 304.277 31.4619C305.144 29.5842 306.007 27.708 306.813 25.807C307.757 23.5849 308.628 21.3373 309.409 19.0568C310.225 16.6776 311.078 14.298 311.812 11.8923C312.403 9.95857 312.907 7.99994 313.161 5.98964C313.517 3.1546 313.324 0.45656 312.77 -2.33885C312.309 -4.67431 311.64 -6.92789 310.747 -9.13437C309.221 -12.9019 307.095 -16.4042 304.9 -19.8103C303.405 -22.1239 301.801 -24.3723 300.287 -26.6741C299.145 -28.4121 298.027 -30.1964 297.066 -32.0411C296.267 -33.5756 295.479 -35.3336 295.175 -37.0463C294.844 -38.9016 294.582 -40.7697 294.246 -42.6206C294.021 -43.8495 293.748 -45.0996 293.227 -46.2426C292.673 -47.4608 291.872 -48.457 290.928 -49.3935C289.44 -50.8736 287.645 -52.2125 285.951 -53.4493C284.846 -54.2566 283.687 -55.0108 282.528 -55.7349C280.963 -56.7132 279.372 -57.6465 277.762 -58.5447C273.885 -60.7141 269.871 -62.7131 265.786 -64.4596C260.084 -66.896 248.634 -71.1903 242.562 -68.5142C241.555 -68.0718 240.5 -67.5506 239.614 -66.8905C239.113 -66.5175 238.725 -66.1112 238.269 -65.6978C237.222 -64.7511 236.047 -64.3573 234.695 -64.0117C233.388 -63.6763 232.038 -63.4375 230.705 -63.2174C228.51 -62.8557 226.299 -62.5617 224.091 -62.283C220.971 -61.8879 217.842 -61.5472 214.722 -61.1521C212.797 -60.908 210.87 -60.6515 208.951 -60.3543C207.538 -60.1332 206.047 -59.8936 204.665 -59.5247C201.55 -58.6986 198.417 -57.9949 195.262 -57.3408C192.803 -56.829 190.326 -56.3752 187.874 -55.8404C186.04 -55.4416 184.212 -54.9869 182.458 -54.3151C180.38 -53.5193 178.533 -52.4503 176.723 -51.16C174.103 -49.2868 171.636 -47.0537 169.288 -44.8546C165.51 -41.3138 161.87 -37.3124 159.16 -32.8805C156.867 -29.1299 155.187 -24.9553 154.968 -20.5218C154.733 -15.8042 156.182 -11.4952 158.742 -7.57154C160.648 -4.64258 163.191 -1.96268 166.007 0.102486C169.082 2.36 172.638 3.98797 176.446 4.46553C177.79 4.6323 179.182 4.64631 180.533 4.60193C182.115 4.54989 183.699 4.41152 185.271 4.21756C188 3.87974 190.82 3.3777 193.471 2.64361C194.284 2.41948 195.039 2.03911 195.852 1.81219L196.287 1.69129L196.635 1.97683C200.183 4.89353 203.361 8.25537 207.007 11.0553L207.558 11.4783L207.265 12.1076C205.18 16.5907 206.568 19.5937 209.917 22.8301C211.619 24.4759 213.552 26.0071 215.427 27.452C217.215 28.831 219.041 30.1672 220.88 31.4754L221.494 31.9133L221.145 32.5848C220.815 33.2212 220.458 33.8424 220.117 34.4711C219.859 34.9455 219.61 35.4373 219.43 35.9465C219.091 36.9174 219.078 37.8393 219.209 38.8521C219.463 40.8272 220.529 42.5947 222.395 43.4129C224.332 44.2622 226.291 44.0768 228.031 42.8895C230.414 41.2653 230.767 39.8857 231.519 37.1931L231.744 36.3861L232.557 36.5809C234.768 37.1139 236.989 37.6177 239.221 38.0594C241.574 38.5285 244.026 38.9645 246.419 39.1497C251.221 39.5209 254.495 38.8766 256.006 33.773L256.185 33.1694L256.812 33.1507C258.204 33.1113 259.6 33.0937 260.994 33.1254C261.597 33.1394 262.221 33.1797 262.819 33.1583C263.445 33.1356 264.076 33.0113 264.69 32.8865C266.23 32.5748 267.766 32.2141 269.299 31.8726C271.275 31.4332 273.207 30.8273 275.169 30.3516L281.74 28.688L282.087 29.0366C286.046 33.0041 287.023 44.7988 287.272 50.2817C287.315 51.2217 287.293 52.1661 287.292 53.1067C287.287 54.7019 287.286 56.9117 288.2 58.2835C288.644 58.9535 289.278 59.3768 290.034 59.633C291.002 59.9605 292.233 60.0735 293.249 60.1947C294.141 60.3011 295.056 60.4037 295.935 60.601C296.935 60.8256 297.96 61.2121 298.92 61.5728C299.599 61.8352 300.281 62.0989 300.971 62.3389C301.26 62.4409 301.596 62.5572 301.921 62.6453Z" stroke="url(#paint7_linear_8_1038)" stroke-width="1.4173" stroke-miterlimit="22.9256"/>
</g>
<defs>
<linearGradient id="paint0_linear_8_1038" x1="350" y1="63" x2="350" y2="179" gradientUnits="userSpaceOnUse">
<stop offset="0.322917" stop-color="#00BD8D"/>
<stop offset="1" stop-color="#00392D"/>
</linearGradient>
<linearGradient id="paint1_linear_8_1038" x1="184.773" y1="31.5198" x2="137.48" y2="137.668" gradientUnits="userSpaceOnUse">
<stop offset="0.322917" stop-color="#00BD8D"/>
<stop offset="1" stop-color="#00392D"/>
</linearGradient>
<linearGradient id="paint2_linear_8_1038" x1="-17.5197" y1="83.5198" x2="29.7725" y2="189.668" gradientUnits="userSpaceOnUse">
<stop offset="0.322917" stop-color="#00BD8D"/>
<stop offset="1" stop-color="#00392D"/>
</linearGradient>
<linearGradient id="paint3_linear_8_1038" x1="42.4803" y1="361.669" x2="89.7725" y2="255.52" gradientUnits="userSpaceOnUse">
<stop offset="0.322917" stop-color="#00BD8D"/>
<stop offset="1" stop-color="#00392D"/>
</linearGradient>
<linearGradient id="paint4_linear_8_1038" x1="353.48" y1="315.669" x2="400.773" y2="209.52" gradientUnits="userSpaceOnUse">
<stop offset="0.322917" stop-color="#00BD8D"/>
<stop offset="1" stop-color="#00392D"/>
</linearGradient>
<linearGradient id="paint5_linear_8_1038" x1="76.4803" y1="499.669" x2="123.773" y2="393.52" gradientUnits="userSpaceOnUse">
<stop offset="0.322917" stop-color="#00BD8D"/>
<stop offset="1" stop-color="#00392D"/>
</linearGradient>
<linearGradient id="paint6_linear_8_1038" x1="310.48" y1="445.669" x2="357.773" y2="339.52" gradientUnits="userSpaceOnUse">
<stop offset="0.322917" stop-color="#00BD8D"/>
<stop offset="1" stop-color="#00392D"/>
</linearGradient>
<linearGradient id="paint7_linear_8_1038" x1="218.48" y1="41.6687" x2="265.773" y2="-64.48" gradientUnits="userSpaceOnUse">
<stop offset="0.322917" stop-color="#00BD8D"/>
<stop offset="1" stop-color="#00392D"/>
</linearGradient>
<clipPath id="clip0_8_1038">
<rect width="382" height="510" rx="50" fill="white"/>
</clipPath>
</defs>
</svg>
