<svg width="382" height="510" viewBox="0 0 382 510" fill="none" xmlns="http://www.w3.org/2000/svg">
<g clip-path="url(#clip0_8_1155)">
<path d="M65.0302 76.6563C64.409 75.7008 63.8206 74.7042 63.2323 73.7268C62.2691 72.1279 61.3141 70.5236 60.37 68.911C59.3548 67.1807 58.3423 65.4422 57.3681 63.69C57.0179 63.063 56.6703 62.4306 56.3447 61.7899C56.1778 61.4641 55.9123 60.9631 55.8357 60.6099L55.729 60.1144L56.1395 59.8187C58.345 58.2253 60.8489 56.944 63.2077 55.5997L73.7567 49.4479C75.8528 48.2268 76.7914 48.8127 78.9696 49.1905C80.0559 49.3767 81.1505 49.5191 82.2369 49.7025C82.8745 49.812 83.534 49.9462 84.0676 50.3377C84.5464 50.6908 84.8529 51.1973 85.1375 51.7093C85.5808 52.5033 85.994 53.3109 86.4483 54.1049C87.1652 55.3533 88.3802 56.5936 87.9807 58.1788C87.6113 59.6462 86.9928 61.1082 86.5003 62.5428C86.2978 63.1369 86.1117 63.742 85.8928 64.3279C85.7313 64.7632 85.548 65.1794 85.2634 65.549C84.8365 66.0993 84.2263 66.4716 83.6325 66.8138C82.5461 67.4408 81.4378 68.0294 80.3515 68.6564L65.4324 77.275L65.0302 76.6563ZM141.96 115.593L133.14 119.172L132.823 118.52C131.92 116.664 131.099 114.745 130.297 112.845C129.298 110.474 128.327 108.089 127.364 105.704C125.828 101.907 124.323 98.0879 122.723 94.3179C119.313 86.2879 116.084 78.184 112.669 70.1567C111.821 68.1636 111.027 66.1513 110.181 64.1581C109.558 62.6879 108.882 61.2205 108.293 59.7393C107.927 58.8167 107.604 57.8721 107.549 56.8701C107.472 55.4601 107.968 53.9379 108.384 52.6046C108.742 51.452 109.114 50.3021 109.47 49.1467C109.998 47.4301 110.496 45.7053 110.972 43.964L114.743 30.6555L114.787 30.5761C114.918 30.3379 115.085 30.1271 115.29 29.9464C115.632 29.648 116.037 29.4755 116.456 29.3222C116.924 29.1525 117.389 29.0019 117.852 28.8102L127.741 24.7473L128.089 25.3031C128.838 26.5022 128.918 28.1532 129.328 29.4947C129.744 30.8526 130.426 32.0408 130.91 33.355C131.211 34.1681 131.123 34.7485 131.019 35.5672C130.924 36.3091 131.041 36.6951 131.528 37.2892C133.214 39.3508 136.306 37.6452 135.729 35.2112C135.636 34.8143 135.499 34.4008 135.154 34.1544C134.933 33.9956 134.634 33.8807 134.385 33.7766C133.936 33.5904 133.515 33.3988 133.099 33.1469C133.003 33.0894 132.905 33.062 132.806 33.0046C132.505 32.8239 132.333 32.4433 132.161 32.1476C131.974 31.8218 131.851 31.4686 131.704 31.1264C131.244 30.0559 130.869 28.917 130.562 27.7918C130.253 26.661 129.993 25.481 129.854 24.3147L129.774 23.6385L130.434 23.4715C131.299 23.2525 132.223 22.8692 133.047 22.5269C134.221 22.0396 135.381 21.5167 136.539 20.9965C137.765 20.4435 138.991 19.8849 140.228 19.3593C141.122 18.9787 142.127 18.5434 143.065 18.297C144.745 17.8562 147.898 20.1396 149.351 20.9965C151.25 22.1163 153.182 23.1731 155.125 24.2107C158.969 26.2613 162.677 28.5529 166.53 30.5871C167.236 30.9594 167.953 31.3673 168.465 31.997C168.859 32.4816 169.105 33.0538 169.332 33.6288C169.68 34.5076 169.997 35.3919 170.356 36.268C171.738 39.6465 173.174 43.014 174.586 46.3815C177.107 52.3883 179.627 58.395 182.136 64.4046C184.81 70.8028 187.48 77.2038 190.113 83.6213C191.005 85.8006 191.897 87.9799 192.762 90.1701C193.022 90.8272 193.279 91.487 193.525 92.1496C193.632 92.4398 193.821 92.9107 193.859 93.2118L193.93 93.7895L185.278 97.5047L141.96 115.593ZM76.0334 25.9574C75.0127 24.4051 74.9196 22.2778 75.144 20.4873C75.352 18.8145 75.9431 16.7091 76.8871 15.2964C78.1651 13.3881 80.9152 12.4244 83.1372 12.564C84.3959 12.6434 85.5972 13.0541 86.5933 13.8426C87.3978 14.4805 87.9451 15.7864 88.2051 16.7529C88.5854 18.1683 88.6265 19.7125 88.1914 21.1197C87.6414 22.9048 86.4182 24.2189 84.7736 25.0676C82.3682 26.3079 79.2843 26.4667 76.6354 26.3051L76.2468 26.2805L76.0334 25.9574ZM84.5054 11.0774C81.8401 10.7324 79.1529 11.1404 77.0568 12.9364C73.6855 15.822 73.2285 20.9609 73.8333 25.0704L73.9783 26.0615L72.9822 25.9547C66.1439 25.2292 60.9255 22.3052 56.6922 16.9308C54.6399 14.3244 53.2197 11.1267 52.407 7.92344C51.4848 4.28214 51.2932 0.440991 51.8843 -3.26875C52.9132 -9.72725 55.7646 -15.734 59.9513 -20.7387C63.7495 -25.2808 68.7216 -29.0672 74.2383 -31.2547C80.8933 -33.8912 88.1476 -34.9699 95.276 -34.1978C101.95 -33.4778 108.422 -31.1397 113.832 -27.1315C118.763 -23.4793 122.172 -18.0338 124.301 -12.3473C126.863 -5.50554 127.273 2.27806 127.199 9.52232L127.684 22.6009L124.29 24.301L124.26 24.312C122.676 24.9526 121.089 25.5769 119.499 26.2011C118.445 26.6145 117.386 27.0252 116.349 27.4769C115.446 27.8684 114.171 28.4215 113.572 29.2455C113.213 29.7383 113.014 30.3899 112.847 30.9676C112.532 32.0737 112.269 33.1935 111.952 34.3023L105.759 56.057C105.201 58.0145 106.879 60.6017 107.595 62.3704L129.476 114.945C129.815 115.763 130.133 116.59 130.437 117.422C130.661 118.036 130.877 118.657 131.115 119.265C131.29 119.711 131.646 120.645 132.095 120.894C132.407 121.066 132.891 120.992 133.22 120.924C134.131 120.735 135.135 120.316 135.994 119.963C137.59 119.306 139.169 118.597 140.75 117.907C143.156 116.858 145.572 115.832 147.999 114.838C153.423 112.617 158.824 110.342 164.237 108.092L188.591 97.9619C189.609 97.5376 190.635 97.1433 191.667 96.76C192.42 96.4808 193.178 96.2125 193.922 95.9168C194.466 95.7005 195.605 95.257 195.895 94.6985C196.286 93.9374 195.479 92.0072 195.197 91.2981C194.683 90.0031 194.108 88.7218 193.55 87.4433C192.721 85.5487 191.902 83.6514 191.106 81.7431L171.647 34.9539C171.253 34.0039 170.9 33.0484 170.523 32.0929C170.353 31.6658 170.156 31.1593 169.866 30.7979C169.466 30.2996 168.703 29.8862 168.156 29.5823L149.895 19.3921C149.452 19.154 149.014 18.8829 148.582 18.6228C148.026 18.2861 147.468 17.9493 146.907 17.6235C146.368 17.3114 144.455 16.219 143.87 16.2327C143.678 16.2437 143.276 16.3833 143.093 16.4463C142.553 16.627 142.017 16.8378 141.489 17.0486C140.025 17.6345 138.572 18.2642 137.124 18.8911C135.808 19.4606 134.497 20.0383 133.178 20.5968C132.295 20.9719 131.342 21.3935 130.431 21.6892L129.616 21.952L129.435 21.1142C128.745 17.911 128.699 14.5654 128.732 11.3046C128.765 7.69894 128.885 4.11788 128.652 0.512175C128.39 -3.57538 127.697 -7.5151 126.348 -11.3918C124.674 -16.2104 122.118 -20.5827 118.985 -24.5936C118.402 -25.341 117.813 -25.9762 117.102 -26.6031C116.927 -26.7565 116.732 -26.8933 116.541 -27.0275C115.925 -27.4546 115.359 -27.8488 114.998 -28.4868C114.636 -28.6456 114.283 -28.8509 113.952 -29.048C113.397 -29.382 112.852 -29.7352 112.305 -30.0802C110.748 -31.0548 109.188 -31.9309 107.508 -32.6811C101.761 -35.2464 95.3964 -36.0815 89.1464 -35.9938C81.0684 -35.5531 71.8904 -32.9713 65.4516 -27.972C58.7582 -22.7784 54.577 -17.8421 51.794 -9.68345C48.8824 -1.1442 49.4133 8.25471 54.1337 16.0493C57.0096 20.7994 61.0432 24.2162 66.267 26.0888C67.9554 26.6939 69.6739 27.1018 71.4416 27.3948C72.0354 27.4933 72.632 27.5755 73.2258 27.6686C73.5952 27.726 74.096 27.8 74.4271 27.9697L74.5967 28.0546L78.1377 33.0018C78.3101 33.2236 78.477 33.4262 78.6877 33.6124C78.9422 33.8369 79.1858 34.0422 79.4266 34.2859C80.6415 35.5014 81.966 36.5719 83.3917 37.5356C84.5793 38.3378 85.8079 39.0414 87.0503 39.7478C88.8645 40.7799 91.2097 42.012 91.9759 44.0845C93.2921 47.6491 90.7828 50.4746 87.614 51.6381L86.908 51.8982L86.6289 51.2001C86.3197 50.428 85.8435 49.2124 85.1375 48.7087C84.5957 48.3199 83.7282 48.1803 83.0824 48.079C82.4421 47.9777 81.7963 47.8955 81.156 47.8079C80.2612 47.6847 79.3691 47.5506 78.4798 47.3972C77.8641 47.2905 77.2703 47.1481 76.6628 47.0057C76.2961 46.9209 75.8993 46.8305 75.5217 46.8305C74.9333 46.8333 74.4107 47.0961 73.9208 47.4027C69.1841 50.3541 64.2941 53.0782 59.4642 55.8735C57.4557 57.0371 55.4526 58.2116 53.4687 59.4163C53.507 60.5251 54.3088 61.998 54.8096 62.8522C55.4307 63.9145 56.134 64.9138 56.7798 65.9569C58.1836 68.2348 59.4998 70.5619 60.8407 72.8781C61.5084 74.0307 62.2089 75.1642 62.8738 76.3168C63.3089 77.0724 63.7194 77.8773 64.1846 78.6111C64.2968 78.789 64.5814 79.2326 64.7976 79.3065C65.1314 79.4187 66.1138 78.8849 66.3929 78.7343C67.0524 78.3784 67.7009 77.9896 68.3467 77.609C69.3045 77.045 70.2622 76.4811 71.2282 75.9335C75.8117 73.3271 80.3104 70.5729 84.8994 67.9774C85.4577 67.6626 86.3717 67.1834 86.7766 66.6769C87.0913 66.28 87.2884 65.6612 87.4416 65.1848C87.8384 63.9638 88.2023 62.74 88.6183 61.5244C88.9986 60.4128 89.42 59.3013 89.7813 58.1842C89.8716 57.8995 90.0467 57.3793 89.992 57.0754C89.9454 56.8263 89.732 56.4704 89.6061 56.2513C89.2258 55.5778 88.87 54.9153 88.5416 54.2117L88.3282 53.7545L88.6593 53.3739C89.5815 52.3171 90.8786 51.8845 91.8391 50.877C94.1514 48.4513 94.7068 46.5376 93.5028 43.3015C93.0212 42.0092 92.255 40.9771 91.2042 40.0928C89.8989 38.9949 88.2926 38.2228 86.7794 37.4562C85.7833 36.9525 84.79 36.4405 83.8569 35.8327C82.6446 35.0442 81.5911 34.1544 80.5923 33.1086C79.6975 32.1695 78.8793 31.1565 78.0447 30.1654C77.5931 29.4235 77.366 28.9499 77.4208 28.5857L77.5247 27.9259L80.7455 27.9369C81.5583 27.9232 82.3628 27.7863 83.1372 27.5508C86.0843 26.6556 89.1245 24.0629 89.94 21.0129C90.4982 18.9267 90.1616 16.3997 89.0424 14.5435C88.6265 13.8563 88.1558 13.2786 87.521 12.7831C86.648 12.1068 85.5015 11.5839 84.5054 11.0774Z" fill="url(#paint0_linear_8_1155)"/>
<path d="M252.211 96.658C252.654 95.6079 253.149 94.5619 253.628 93.5267C254.412 91.8325 255.205 90.1421 256.01 88.4562C256.874 86.6453 257.745 84.832 258.65 83.0428C258.972 82.4012 259.301 81.7588 259.649 81.13C259.825 80.809 260.091 80.3083 260.341 80.0468L260.691 79.6806L261.166 79.8546C263.722 80.7871 266.187 82.1417 268.623 83.3408L279.632 88.625C281.819 89.6757 281.86 90.7814 282.769 92.7968C283.224 93.8006 283.72 94.7867 284.177 95.7891C284.444 96.3784 284.703 96.9996 284.678 97.661C284.654 98.2555 284.406 98.7933 284.142 99.3161C283.733 100.128 283.296 100.923 282.894 101.745C282.262 103.038 281.917 104.74 280.38 105.298C278.958 105.815 277.401 106.123 275.937 106.52C275.331 106.685 274.726 106.87 274.118 107.018C273.667 107.128 273.22 107.21 272.754 107.181C272.059 107.137 271.409 106.84 270.792 106.54C269.664 105.993 268.555 105.405 267.427 104.857L251.924 97.3381L252.211 96.658ZM263.114 182.188L255.205 176.893L255.567 176.264C256.597 174.476 257.726 172.72 258.85 170.99C260.253 168.834 261.682 166.692 263.116 164.557C265.4 161.157 267.718 157.769 269.941 154.329C274.678 147.003 279.577 139.785 284.308 132.456C285.482 130.636 286.703 128.85 287.879 127.033C288.747 125.691 289.583 124.309 290.479 122.991C291.037 122.17 291.638 121.373 292.437 120.766C293.562 119.912 295.1 119.468 296.437 119.065C297.592 118.715 298.753 118.379 299.909 118.025C301.627 117.5 303.334 116.945 305.043 116.363L318.176 112.021L318.267 112.013C318.537 111.988 318.806 112.008 319.07 112.077C319.509 112.193 319.879 112.431 320.241 112.692C320.644 112.984 321.029 113.285 321.447 113.56L330.357 119.47L330.092 120.069C329.52 121.363 328.197 122.354 327.317 123.446C326.426 124.552 325.824 125.783 325.007 126.921C324.503 127.626 323.973 127.879 323.237 128.252C322.569 128.589 322.316 128.903 322.097 129.639C321.335 132.191 324.482 133.795 326.173 131.952C326.449 131.652 326.715 131.307 326.726 130.883C326.733 130.611 326.661 130.299 326.607 130.035C326.51 129.559 326.432 129.102 326.407 128.617C326.401 128.505 326.369 128.408 326.361 128.294C326.342 127.944 326.56 127.588 326.708 127.279C326.874 126.942 327.097 126.642 327.298 126.328C327.926 125.347 328.659 124.398 329.419 123.513C330.181 122.623 331.013 121.746 331.9 120.977L332.415 120.532L332.924 120.984C333.59 121.577 334.426 122.128 335.171 122.618C336.233 123.317 337.317 123.984 338.396 124.651C339.542 125.356 340.692 126.057 341.821 126.787C342.637 127.314 343.561 127.901 344.291 128.54C345.599 129.684 345.476 133.575 345.581 135.258C345.719 137.459 345.928 139.651 346.158 141.841C346.616 146.175 346.798 150.53 347.275 154.861C347.362 155.654 347.427 156.476 347.192 157.253C347.012 157.851 346.676 158.376 346.328 158.886C345.795 159.667 345.241 160.426 344.716 161.214C342.694 164.253 340.712 167.33 338.715 170.388C335.155 175.843 331.595 181.298 328.027 186.746C324.229 192.548 320.427 198.349 316.59 204.127C315.285 206.088 313.981 208.049 312.653 209.993C312.255 210.576 311.853 211.159 311.442 211.735C311.262 211.986 310.978 212.406 310.75 212.607L310.311 212.99L302.383 207.909L263.114 182.188ZM300.358 77.3368C301.071 75.6212 302.78 74.3512 304.388 73.5328C305.89 72.7669 307.965 72.0756 309.664 72.0651C311.96 72.053 314.3 73.7895 315.431 75.7075C316.071 76.7943 316.405 78.0192 316.311 79.2861C316.234 80.3099 315.459 81.4954 314.805 82.2526C313.846 83.3613 312.591 84.2612 311.182 84.6902C309.395 85.2358 307.621 84.96 305.996 84.0743C303.62 82.7783 301.76 80.314 300.408 78.0302L300.21 77.6947L300.358 77.3368ZM317.429 76.0067C316.22 73.6065 314.375 71.6104 311.713 70.8821C307.433 69.709 302.922 72.2125 299.859 75.0178L299.119 75.6936L298.649 74.8091C295.415 68.7403 294.91 62.78 296.985 56.2611C297.992 53.1002 299.844 50.1311 302.04 47.6618C304.538 44.8563 307.611 42.5436 311.013 40.9526C316.938 38.1826 323.51 37.1749 330.002 37.8348C335.892 38.4324 341.816 40.4257 346.721 43.7665C352.636 47.798 357.597 53.1994 360.955 59.5344C364.102 65.4641 365.795 72.1336 365.51 78.8605C365.252 84.9914 362.655 90.8682 359.141 95.8197C354.913 101.777 348.698 106.482 342.659 110.483L332.102 118.219L328.792 116.363L328.766 116.344C327.347 115.391 325.94 114.427 324.531 113.461C323.598 112.821 322.664 112.174 321.709 111.569C320.878 111.041 319.705 110.295 318.687 110.261C318.078 110.241 317.426 110.441 316.854 110.626C315.762 110.986 314.688 111.397 313.592 111.756L292.107 118.828C290.173 119.464 288.972 122.303 287.909 123.889L256.651 171.488C256.163 172.228 255.657 172.955 255.138 173.673C254.756 174.203 254.363 174.73 253.993 175.268C253.722 175.663 253.148 176.482 253.193 176.993C253.226 177.348 253.558 177.707 253.799 177.941C254.467 178.589 255.377 179.186 256.151 179.699C257.59 180.652 259.062 181.561 260.52 182.484C262.737 183.887 264.943 185.312 267.127 186.765C272.006 190.01 276.919 193.207 281.818 196.426L303.863 210.91C304.785 211.514 305.687 212.143 306.583 212.782C307.236 213.249 307.883 213.726 308.546 214.176C309.03 214.506 310.036 215.199 310.661 215.126C311.51 215.024 312.656 213.273 313.085 212.642C313.868 211.49 314.607 210.295 315.353 209.116C316.456 207.367 317.568 205.626 318.702 203.896L346.529 161.546C347.094 160.687 347.688 159.859 348.267 159.011C348.525 158.631 348.834 158.183 348.971 157.741C349.159 157.13 349.073 156.266 349.018 155.643L347.215 134.81C347.164 134.309 347.142 133.795 347.115 133.291C347.083 132.642 347.048 131.991 347.004 131.344C346.96 130.722 346.791 128.526 346.452 128.049C346.335 127.896 345.994 127.642 345.839 127.525C345.387 127.18 344.912 126.854 344.441 126.535C343.135 125.652 341.799 124.802 340.468 123.955C339.258 123.184 338.045 122.423 336.843 121.644C336.037 121.123 335.154 120.571 334.398 119.982L333.723 119.454L334.315 118.835C336.581 116.468 339.325 114.553 342.043 112.752C345.046 110.757 348.079 108.848 350.934 106.634C354.171 104.124 357.045 101.341 359.498 98.0503C362.548 93.9615 364.735 89.3934 366.299 84.55C366.591 83.6483 366.787 82.8049 366.907 81.8643C366.936 81.6333 366.94 81.3957 366.944 81.1618C366.952 80.4126 366.961 79.7225 367.286 79.0657C367.215 78.6776 367.187 78.2701 367.165 77.8854C367.13 77.2382 367.117 76.5893 367.096 75.9427C367.029 74.107 366.88 72.3242 366.559 70.5124C365.46 64.3159 362.582 58.5777 359.005 53.4521C354.11 47.0111 346.825 40.8599 339.075 38.3324C331.022 35.7031 324.59 35.0094 316.274 37.2805C307.571 39.6586 300.087 45.369 296.28 53.6484C293.96 58.6934 293.393 63.9491 294.772 69.3244C295.218 71.0616 295.844 72.7132 296.593 74.3411C296.844 74.888 297.111 75.428 297.367 75.9718C297.526 76.3099 297.746 76.766 297.791 77.1353L297.816 77.3234L295.706 83.0295C295.619 83.2966 295.545 83.5484 295.509 83.8273C295.465 84.1639 295.432 84.4807 295.365 84.8167C295.04 86.5044 294.897 88.2013 294.898 89.9221C294.9 91.3553 295.007 92.7671 295.118 94.1918C295.281 96.2728 295.576 98.9054 294.29 100.702C292.077 103.791 288.33 103.298 285.59 101.327L284.979 100.888L285.4 100.265C285.866 99.5763 286.605 98.5004 286.627 97.6333C286.645 96.9667 286.274 96.1702 285.995 95.5787C285.72 94.9917 285.426 94.411 285.139 93.8317C284.74 93.0217 284.35 92.2079 283.979 91.3856C283.722 90.8159 283.507 90.2444 283.284 89.6616C283.149 89.3104 283.001 88.9312 282.789 88.6186C282.457 88.133 281.946 87.8476 281.418 87.614C276.318 85.3473 271.32 82.8262 266.297 80.3949C264.207 79.3845 262.111 78.3847 260.001 77.4176C259.105 78.0711 258.335 79.561 257.909 80.4546C257.377 81.5647 256.944 82.7073 256.443 83.827C255.344 86.2667 254.156 88.6615 252.99 91.0706C252.41 92.2698 251.864 93.4854 251.283 94.6823C250.901 95.4663 250.465 96.2576 250.118 97.0542C250.034 97.2469 249.826 97.7312 249.886 97.9517C249.981 98.291 250.974 98.805 251.255 98.9517C251.919 99.2981 252.605 99.617 253.282 99.9383C254.286 100.415 255.29 100.892 256.285 101.384C261.014 103.718 265.817 105.898 270.539 108.242C271.113 108.528 272.022 109.016 272.669 109.067C273.174 109.105 273.797 108.921 274.277 108.781C275.511 108.424 276.728 108.039 277.968 107.702C279.101 107.394 280.258 107.119 281.385 106.792C281.672 106.707 282.201 106.56 282.422 106.345C282.602 106.166 282.777 105.79 282.887 105.563C283.232 104.87 283.581 104.204 283.979 103.538L284.238 103.105L284.739 103.165C286.131 103.336 287.217 104.168 288.589 104.398C291.894 104.952 293.79 104.339 295.795 101.527C296.594 100.404 297.019 99.1905 297.162 97.8246C297.339 96.1282 297.078 94.3653 296.864 92.6825C296.722 91.5753 296.589 90.4657 296.569 89.3523C296.542 87.9064 296.688 86.5352 296.994 85.1217C297.269 83.8542 297.649 82.6087 298.002 81.3619C298.363 80.572 298.628 80.1183 298.96 79.9594L299.565 79.6755L301.362 82.3483C301.829 83.0135 302.393 83.6029 303.023 84.112C305.417 86.0501 309.268 87.1132 312.251 86.078C314.291 85.3703 316.194 83.6745 317.104 81.7069C317.439 80.9771 317.654 80.2635 317.708 79.46C317.778 78.358 317.568 77.1154 317.429 76.0067Z" fill="url(#paint1_linear_8_1155)"/>
<path d="M4.74983 261.758C4.03198 260.872 3.34248 259.943 2.65498 259.033C1.52955 257.543 0.411709 256.048 -0.696108 254.543C-1.88701 252.929 -3.07606 251.306 -4.22844 249.665C-4.64246 249.079 -5.05433 248.486 -5.4453 247.883C-5.64543 247.576 -5.96189 247.106 -6.07509 246.763L-6.23314 246.281L-5.85591 245.944C-3.82941 244.128 -1.47358 242.592 0.731416 241.008L10.5778 233.785C12.5345 232.351 13.5293 232.835 15.7351 232.983C16.835 233.054 17.9385 233.081 19.0381 233.149C19.6836 233.192 20.3535 233.256 20.9252 233.589C21.4385 233.89 21.7963 234.362 22.133 234.841C22.657 235.585 23.1526 236.344 23.6875 237.086C24.5313 238.253 25.8695 239.359 25.6383 240.977C25.4246 242.475 24.9628 243.994 24.6232 245.473C24.4841 246.085 24.3624 246.706 24.2061 247.311C24.0911 247.761 23.9524 248.194 23.7081 248.592C23.3412 249.184 22.7733 249.618 22.2186 250.02C21.2039 250.758 20.1634 251.459 19.1487 252.197L5.2147 262.331L4.74983 261.758ZM85.3353 292.421L76.9391 296.904L76.5552 296.289C75.4627 294.537 74.4452 292.715 73.4488 290.909C72.2071 288.656 70.9912 286.386 69.7834 284.116C67.8589 280.5 65.962 276.859 63.975 273.278C59.7429 265.649 55.6827 257.928 51.4454 250.303C50.393 248.41 49.393 246.492 48.3433 244.598C47.5688 243.201 46.7429 241.813 46.0026 240.401C45.5413 239.522 45.1212 238.617 44.9618 237.626C44.7379 236.232 45.071 234.666 45.3449 233.296C45.5807 232.113 45.8303 230.93 46.063 229.744C46.4084 227.981 46.723 226.214 47.0141 224.432L49.3699 210.802L49.4051 210.718C49.5108 210.468 49.6547 210.241 49.8399 210.039C50.1488 209.707 50.5335 209.493 50.9338 209.296C51.3814 209.079 51.8283 208.88 52.2681 208.641L61.6775 203.564L62.0814 204.081C62.9526 205.195 63.2045 206.828 63.7533 208.119C64.3092 209.426 65.1113 210.537 65.7307 211.793C66.1152 212.57 66.0889 213.156 66.0713 213.981C66.0537 214.729 66.2112 215.101 66.7579 215.641C68.6502 217.514 71.5467 215.494 70.7175 213.134C70.5834 212.749 70.404 212.352 70.0353 212.143C69.7982 212.008 69.4895 211.925 69.231 211.848C68.7652 211.71 68.326 211.563 67.886 211.356C67.7847 211.309 67.6838 211.292 67.5799 211.246C67.2616 211.097 67.0503 210.737 66.8478 210.461C66.6286 210.156 66.4692 209.818 66.2864 209.493C65.717 208.477 65.2249 207.383 64.8022 206.297C64.3762 205.204 63.9941 204.058 63.7331 202.913L63.5833 202.249L64.2217 202.014C65.0587 201.705 65.9384 201.227 66.7217 200.8C67.8381 200.193 68.9372 199.551 70.0338 198.913C71.195 198.234 72.3557 197.55 73.5307 196.898C74.3807 196.426 75.3339 195.888 76.2415 195.544C77.8662 194.93 81.2405 196.87 82.7753 197.57C84.7813 198.485 86.8133 199.334 88.8542 200.162C92.8925 201.798 96.8201 203.689 100.865 205.308C101.606 205.605 102.362 205.935 102.937 206.508C103.379 206.948 103.684 207.492 103.97 208.04C104.408 208.877 104.816 209.724 105.265 210.557C106.993 213.772 108.774 216.971 110.531 220.172C113.667 225.882 116.803 231.591 119.928 237.305C123.257 243.388 126.584 249.474 129.874 255.58C130.989 257.654 132.105 259.728 133.194 261.815C133.522 262.442 133.847 263.071 134.161 263.704C134.297 263.981 134.535 264.43 134.604 264.725L134.735 265.292L126.52 269.894L85.3353 292.421ZM10.3811 210.185C9.20336 208.748 8.88797 206.642 8.92354 204.838C8.95511 203.153 9.32236 200.997 10.1132 199.493C11.1842 197.462 13.8182 196.215 16.0426 196.121C17.3028 196.068 18.5405 196.351 19.6137 197.031C20.4806 197.581 21.1617 198.822 21.5215 199.756C22.048 201.124 22.2506 202.655 21.9653 204.1C21.6054 205.933 20.5266 207.368 18.9799 208.384C16.7178 209.87 13.6674 210.351 11.0162 210.468L10.6272 210.484L10.3811 210.185ZM17.2476 194.499C14.5608 194.435 11.9311 195.123 10.0347 197.128C6.98429 200.351 7.06819 205.51 8.10014 209.533L8.34821 210.504L7.34644 210.502C0.469695 210.497 -5.02631 208.136 -9.79933 203.234C-12.1134 200.857 -13.8608 197.826 -15.0047 194.725C-16.3033 191.201 -16.8962 187.401 -16.697 183.65C-16.3504 177.119 -14.144 170.846 -10.5046 165.431C-7.20317 160.516 -2.6551 156.229 2.60203 153.476C8.94422 150.157 16.0456 148.324 23.2157 148.345C29.9286 148.362 36.6096 150.009 42.4097 153.428C47.6962 156.544 51.6576 161.602 54.3705 167.034C57.6345 173.57 58.8582 181.268 59.5436 188.48L61.3955 201.436L58.1991 203.482L58.1703 203.496C56.6617 204.299 55.1487 205.086 53.633 205.874C52.6286 206.395 51.6184 206.915 50.6344 207.472C49.7773 207.956 48.5671 208.64 48.0575 209.522C47.7526 210.05 47.6222 210.719 47.5167 211.311C47.3196 212.444 47.1757 213.585 46.9762 214.721L43.0968 237.005C42.7467 239.01 44.686 241.407 45.5843 243.091L72.8524 293.084C73.2756 293.862 73.6779 294.651 74.0671 295.447C74.3545 296.033 74.6346 296.629 74.9351 297.208C75.156 297.634 75.6076 298.525 76.08 298.726C76.4083 298.865 76.8822 298.74 77.2016 298.638C78.0881 298.355 79.0429 297.833 79.8604 297.392C81.3782 296.571 82.8741 295.7 84.3748 294.848C86.657 293.554 88.9525 292.279 91.2622 291.037C96.4234 288.261 101.557 285.432 106.704 282.627L129.863 270.001C130.831 269.473 131.81 268.973 132.796 268.484C133.515 268.127 134.241 267.781 134.95 267.409C135.469 267.137 136.555 266.576 136.785 265.991C137.094 265.193 136.089 263.358 135.734 262.682C135.087 261.448 134.381 260.234 133.692 259.021C132.669 257.224 131.657 255.422 130.665 253.608L106.411 209.115C105.92 208.211 105.469 207.298 104.993 206.388C104.78 205.981 104.531 205.498 104.204 205.168C103.755 204.715 102.952 204.384 102.376 204.139L83.1488 195.918C82.683 195.727 82.2191 195.504 81.7619 195.29C81.1742 195.014 80.5838 194.737 79.9917 194.472C79.4229 194.218 77.4063 193.332 76.8253 193.407C76.636 193.438 76.2505 193.619 76.0748 193.701C75.5576 193.937 75.0463 194.203 74.5432 194.468C73.1486 195.204 71.7695 195.982 70.3956 196.757C69.1463 197.462 67.9033 198.173 66.6501 198.867C65.8104 199.333 64.9075 199.852 64.0322 200.241L63.2488 200.588L62.9814 199.774C61.9601 196.66 61.5633 193.338 61.2543 190.092C60.9092 186.503 60.6538 182.929 60.0447 179.367C59.3553 175.33 58.254 171.484 56.5062 167.77C54.3359 163.153 51.3361 159.073 47.7999 155.412C47.142 154.73 46.4903 154.16 45.7171 153.611C45.5268 153.477 45.3193 153.361 45.1147 153.248C44.4577 152.888 43.853 152.555 43.427 151.958C43.0511 151.838 42.6786 151.671 42.3286 151.51C41.7412 151.236 41.1626 150.942 40.5822 150.656C38.9316 149.85 37.2887 149.142 35.5392 148.572C29.5555 146.623 23.1381 146.459 16.9316 147.201C8.94429 148.486 0.0872491 152.015 -5.79242 157.661C-11.9048 163.527 -15.5459 168.874 -17.4588 177.28C-19.4598 186.077 -17.9472 195.369 -12.4362 202.626C-9.07836 207.048 -4.70908 210.024 0.682222 211.339C2.4247 211.764 4.17647 211.989 5.96517 212.095C6.56604 212.131 7.1679 212.15 7.76819 212.181C8.1416 212.199 8.64736 212.22 8.99443 212.354L9.17205 212.421L13.2118 216.97C13.4065 217.173 13.5937 217.357 13.8228 217.52C14.0994 217.716 14.3631 217.895 14.6281 218.112C15.9637 219.194 17.393 220.12 18.9118 220.929C20.177 221.602 21.4726 222.173 22.7821 222.745C24.6945 223.582 27.1558 224.561 28.1349 226.542C29.8173 229.949 27.6178 233.022 24.5884 234.511L23.9135 234.844L23.5628 234.179C23.1744 233.443 22.5735 232.284 21.8186 231.857C21.2391 231.527 20.3618 231.479 19.7089 231.446C19.0615 231.413 18.4106 231.399 17.7646 231.379C16.8619 231.35 15.9606 231.31 15.0601 231.251C14.4366 231.209 13.8312 231.129 13.2121 231.052C12.8385 231.006 12.4345 230.957 12.0589 230.997C11.4741 231.061 10.9819 231.377 10.5269 231.734C6.12535 235.165 1.54764 238.386 -2.96275 241.672C-4.83834 243.04 -6.70735 244.418 -8.55415 245.824C-8.39988 246.922 -7.4482 248.303 -6.8607 249.1C-6.13166 250.092 -5.32757 251.012 -4.57605 251.981C-2.94134 254.1 -1.38855 256.276 0.18758 258.439C0.972351 259.515 1.78777 260.569 2.56982 261.646C3.08168 262.352 3.57422 263.109 4.11372 263.79C4.24394 263.955 4.57343 264.367 4.79617 264.418C5.13993 264.494 6.06098 263.86 6.32278 263.681C6.94135 263.258 7.54559 262.804 8.14797 262.358C9.04136 261.696 9.93476 261.035 10.838 260.389C15.1233 257.317 19.3087 254.107 23.6005 251.045C24.1227 250.673 24.9815 250.101 25.3312 249.555C25.6025 249.127 25.7337 248.491 25.8361 248.001C26.1028 246.745 26.3366 245.49 26.6229 244.238C26.8847 243.092 27.1873 241.943 27.4295 240.794C27.4895 240.502 27.6092 239.966 27.5229 239.669C27.4505 239.426 27.201 239.095 27.0528 238.89C26.604 238.26 26.1808 237.639 25.7805 236.973L25.5204 236.541L25.8098 236.128C26.6162 234.98 27.8608 234.414 28.7105 233.312C30.7559 230.657 31.1078 228.696 29.5714 225.603C28.9571 224.369 28.0869 223.423 26.9493 222.653C25.5362 221.698 23.8578 221.099 22.2726 220.495C21.2292 220.098 20.1877 219.693 19.1961 219.186C17.9079 218.529 16.7669 217.755 15.6641 216.819C14.6758 215.979 13.756 215.057 12.8221 214.159C12.2954 213.469 12.0199 213.021 12.0362 212.653L12.0704 211.986L15.2747 211.66C16.0815 211.561 16.8672 211.341 17.6127 211.025C20.4498 209.826 23.2017 206.929 23.6931 203.811C24.0297 201.678 23.4302 199.2 22.1227 197.471C21.6371 196.831 21.1085 196.306 20.4252 195.88C19.4863 195.299 18.2912 194.899 17.2476 194.499Z" fill="url(#paint2_linear_8_1155)"/>
<path d="M325.543 384.362C324.533 384.891 323.486 385.384 322.459 385.879C320.777 386.689 319.091 387.49 317.397 388.28C315.58 389.13 313.755 389.976 311.919 390.783C311.262 391.073 310.6 391.36 309.932 391.625C309.592 391.761 309.069 391.979 308.71 392.022L308.207 392.082L307.95 391.646C306.569 389.301 305.527 386.689 304.408 384.215L299.265 373.14C298.244 370.939 298.915 370.059 299.494 367.925C299.781 366.861 300.024 365.784 300.308 364.72C300.476 364.095 300.671 363.451 301.111 362.956C301.507 362.512 302.04 362.254 302.576 362.019C303.408 361.651 304.251 361.315 305.083 360.937C306.393 360.339 307.741 359.245 309.282 359.79C310.709 360.295 312.107 361.047 313.49 361.671C314.062 361.927 314.647 362.169 315.21 362.442C315.629 362.643 316.026 362.864 316.368 363.182C316.876 363.658 317.19 364.3 317.475 364.924C317.998 366.064 318.481 367.222 319.004 368.362L326.196 384.019L325.543 384.362ZM371.474 311.392L374.215 320.506L373.537 320.761C371.605 321.488 369.617 322.126 367.651 322.748C365.197 323.521 362.733 324.267 360.269 325.004C356.345 326.179 352.402 327.321 348.499 328.564C340.187 331.211 331.817 333.672 323.507 336.325C321.444 336.984 319.366 337.586 317.303 338.243C315.781 338.727 314.257 339.263 312.727 339.711C311.775 339.99 310.804 340.224 309.801 340.185C308.39 340.13 306.921 339.495 305.632 338.957C304.518 338.493 303.408 338.015 302.29 337.553C300.63 336.868 298.959 336.211 297.27 335.575L284.371 330.581L284.296 330.53C284.071 330.377 283.876 330.192 283.715 329.97C283.45 329.602 283.316 329.183 283.202 328.752C283.077 328.27 282.97 327.793 282.823 327.315L279.698 317.09L280.284 316.795C281.548 316.161 283.199 316.235 284.573 315.951C285.964 315.664 287.21 315.096 288.564 314.736C289.401 314.512 289.971 314.653 290.776 314.833C291.506 314.998 291.901 314.916 292.538 314.487C294.748 313 293.338 309.763 290.86 310.111C290.457 310.167 290.032 310.264 289.755 310.585C289.576 310.791 289.434 311.077 289.307 311.315C289.08 311.745 288.85 312.146 288.56 312.537C288.494 312.627 288.458 312.723 288.391 312.815C288.183 313.098 287.788 313.234 287.478 313.379C287.136 313.534 286.773 313.623 286.419 313.739C285.31 314.097 284.141 314.364 282.992 314.564C281.838 314.767 280.638 314.916 279.464 314.946L278.784 314.962L278.679 314.29C278.541 313.409 278.246 312.452 277.982 311.6C277.606 310.386 277.193 309.182 276.783 307.981C276.346 306.709 275.904 305.436 275.496 304.156C275.201 303.23 274.861 302.189 274.703 301.232C274.42 299.518 276.987 296.592 277.976 295.225C279.268 293.438 280.5 291.613 281.714 289.775C284.113 286.138 286.74 282.66 289.124 279.013C289.561 278.345 290.034 277.669 290.708 277.218C291.227 276.871 291.82 276.679 292.414 276.506C293.321 276.242 294.231 276.008 295.137 275.733C298.629 274.672 302.116 273.555 305.6 272.462C311.816 270.512 318.031 268.562 324.248 266.624C330.867 264.557 337.489 262.494 344.124 260.471C346.377 259.785 348.63 259.1 350.891 258.443C351.569 258.245 352.25 258.051 352.933 257.867C353.232 257.788 353.718 257.644 354.022 257.634L354.603 257.617L357.497 266.578L371.474 311.392ZM276.089 368.686C274.448 369.557 272.321 369.452 270.559 369.062C268.913 368.699 266.872 367.914 265.553 366.843C263.772 365.393 263.069 362.565 263.415 360.366C263.611 359.12 264.132 357.962 265.01 357.043C265.72 356.302 267.071 355.879 268.057 355.71C269.502 355.463 271.043 355.566 272.404 356.13C274.13 356.844 275.325 358.184 276.016 359.9C277.027 362.411 276.898 365.496 276.491 368.118L276.43 368.503L276.089 368.686ZM262.062 358.865C261.47 361.486 261.626 364.2 263.219 366.454C265.779 370.079 270.853 371.013 275.001 370.793L276.001 370.741L275.802 371.723C274.443 378.464 271.045 383.388 265.3 387.102C262.514 388.903 259.198 390.019 255.933 390.53C252.222 391.109 248.379 390.942 244.741 390.008C238.406 388.383 232.691 384.984 228.098 380.35C223.929 376.145 220.622 370.842 218.958 365.146C216.952 358.274 216.554 350.951 217.986 343.925C219.325 337.347 222.255 331.121 226.75 326.108C230.845 321.539 236.584 318.651 242.444 317.061C249.495 315.147 257.283 315.463 264.489 316.212L277.556 316.947L278.933 320.484L278.941 320.515C279.431 322.152 279.905 323.79 280.378 325.431C280.692 326.519 281.002 327.611 281.355 328.686C281.661 329.622 282.093 330.943 282.858 331.616C283.315 332.019 283.945 332.279 284.505 332.499C285.577 332.915 286.667 333.281 287.742 333.7L308.825 341.891C310.722 342.629 313.454 341.2 315.282 340.651L369.665 323.761C370.512 323.499 371.365 323.26 372.222 323.035C372.853 322.869 373.492 322.711 374.119 322.531C374.58 322.398 375.543 322.131 375.832 321.707C376.033 321.413 376.005 320.923 375.967 320.59C375.864 319.665 375.54 318.626 375.269 317.738C374.763 316.088 374.204 314.45 373.664 312.811C372.844 310.319 372.047 307.817 371.284 305.308C369.578 299.701 367.816 294.111 366.079 288.513L358.261 263.321C357.933 262.268 357.636 261.209 357.35 260.147C357.142 259.371 356.946 258.592 356.721 257.823C356.556 257.261 356.22 256.086 355.691 255.745C354.97 255.285 352.973 255.909 352.241 256.123C350.903 256.515 349.574 256.968 348.249 257.405C346.286 258.054 344.32 258.692 342.346 259.307L293.949 274.325C292.966 274.628 291.982 274.891 290.995 275.178C290.554 275.307 290.032 275.456 289.645 275.711C289.111 276.063 288.629 276.784 288.275 277.301L276.429 294.533C276.151 294.952 275.84 295.363 275.541 295.769C275.154 296.291 274.767 296.815 274.39 297.344C274.029 297.851 272.763 299.654 272.722 300.238C272.715 300.43 272.817 300.844 272.863 301.032C272.992 301.586 273.152 302.139 273.313 302.685C273.76 304.197 274.252 305.702 274.741 307.202C275.186 308.565 275.639 309.924 276.072 311.29C276.363 312.205 276.694 313.192 276.904 314.127L277.09 314.963L276.239 315.065C272.985 315.453 269.65 315.188 266.406 314.852C262.819 314.483 259.265 314.03 255.653 313.926C251.559 313.807 247.572 314.129 243.586 315.112C238.633 316.33 234.042 318.468 229.756 321.214C228.958 321.725 228.271 322.251 227.58 322.901C227.411 323.062 227.257 323.242 227.105 323.421C226.623 323.994 226.178 324.521 225.509 324.821C225.317 325.166 225.08 325.498 224.853 325.81C224.468 326.332 224.066 326.841 223.672 327.354C222.556 328.813 221.539 330.285 220.635 331.888C217.546 337.371 216.122 343.63 215.627 349.861C215.314 357.945 217.03 367.324 221.408 374.2C225.956 381.348 230.481 385.971 238.346 389.501C246.577 393.195 255.984 393.542 264.184 389.568C269.182 387.146 272.959 383.448 275.31 378.422C276.07 376.797 276.636 375.124 277.092 373.391C277.246 372.809 277.383 372.223 277.531 371.64C277.622 371.278 277.743 370.786 277.943 370.472L278.043 370.311L283.298 367.246C283.535 367.095 283.752 366.948 283.957 366.755C284.205 366.523 284.432 366.3 284.697 366.083C286.02 364.986 287.209 363.767 288.302 362.437C289.211 361.329 290.026 360.172 290.845 359C292.041 357.29 293.486 355.07 295.621 354.5C299.293 353.521 301.873 356.283 302.736 359.546L302.929 360.273L302.208 360.486C301.411 360.722 300.156 361.083 299.589 361.739C299.151 362.243 298.931 363.093 298.77 363.727C298.61 364.355 298.468 364.99 298.321 365.62C298.115 366.499 297.898 367.375 297.663 368.246C297.499 368.849 297.302 369.427 297.104 370.019C296.985 370.376 296.859 370.763 296.823 371.138C296.771 371.725 296.984 372.269 297.244 372.786C299.742 377.777 301.998 382.899 304.332 387.968C305.303 390.076 306.286 392.18 307.301 394.268C308.409 394.333 309.95 393.671 310.847 393.252C311.962 392.733 313.023 392.126 314.122 391.58C316.52 390.394 318.96 389.3 321.391 388.181C322.601 387.624 323.794 387.032 325.004 386.477C325.797 386.114 326.636 385.78 327.41 385.385C327.598 385.29 328.066 385.048 328.16 384.84C328.303 384.518 327.862 383.49 327.739 383.198C327.446 382.508 327.119 381.826 326.8 381.148C326.328 380.142 325.855 379.136 325.4 378.123C323.232 373.317 320.908 368.581 318.752 363.77C318.49 363.185 318.098 362.231 317.631 361.78C317.266 361.43 316.668 361.176 316.208 360.979C315.029 360.471 313.844 359.994 312.673 359.467C311.601 358.985 310.534 358.462 309.455 357.998C309.18 357.882 308.679 357.659 308.371 357.685C308.119 357.708 307.744 357.887 307.515 357.992C306.809 358.308 306.116 358.601 305.385 358.862L304.91 359.032L304.562 358.667C303.595 357.651 303.285 356.319 302.372 355.269C300.172 352.741 298.318 352.009 294.984 352.907C293.652 353.266 292.553 353.933 291.575 354.897C290.36 356.094 289.442 357.622 288.538 359.057C287.944 360.002 287.341 360.943 286.649 361.815C285.751 362.949 284.767 363.915 283.633 364.812C282.615 365.616 281.53 366.336 280.466 367.075C279.685 367.455 279.192 367.637 278.835 367.549L278.187 367.384L278.498 364.178C278.56 363.368 278.499 362.554 278.336 361.761C277.72 358.743 275.421 355.475 272.46 354.379C270.435 353.629 267.888 353.729 265.935 354.67C265.213 355.02 264.594 355.435 264.041 356.021C263.286 356.827 262.659 357.92 262.062 358.865Z" fill="url(#paint3_linear_8_1155)"/>
<path d="M111.566 451.891C110.557 452.42 109.51 452.913 108.482 453.408C106.801 454.218 105.114 455.02 103.421 455.81C101.603 456.659 99.7783 457.505 97.943 458.312C97.2861 458.603 96.6241 458.89 95.9559 459.154C95.6159 459.29 95.0924 459.508 94.7336 459.551L94.2303 459.611L93.9741 459.175C92.593 456.831 91.5504 454.219 90.4316 451.745L85.2887 440.669C84.2681 438.468 84.9388 437.588 85.5178 435.455C85.8043 434.39 86.048 433.314 86.3318 432.249C86.5002 431.625 86.6951 430.98 87.1346 430.486C87.5309 430.042 88.0637 429.784 88.5999 429.548C89.4317 429.181 90.2744 428.844 91.1072 428.466C92.4169 427.868 93.7649 426.774 95.306 427.32C96.7327 427.824 98.1308 428.576 99.5133 429.2C100.086 429.457 100.671 429.698 101.234 429.971C101.652 430.172 102.05 430.393 102.391 430.711C102.899 431.188 103.213 431.83 103.499 432.453C104.022 433.593 104.505 434.751 105.028 435.891L112.22 451.548L111.566 451.891ZM157.497 378.921L160.239 388.035L159.561 388.291C157.628 389.017 155.641 389.656 153.675 390.277C151.221 391.051 148.756 391.796 146.292 392.533C142.368 393.708 138.426 394.851 134.523 396.094C126.21 398.741 117.841 401.201 109.531 403.854C107.467 404.513 105.39 405.116 103.327 405.772C101.805 406.256 100.281 406.793 98.7511 407.24C97.7983 407.52 96.8278 407.753 95.825 407.714C94.4141 407.659 92.9446 407.025 91.6558 406.486C90.5415 406.022 89.4313 405.544 88.3141 405.083C86.6541 404.397 84.9831 403.741 83.2938 403.104L70.3942 398.111L70.3192 398.06C70.0943 397.907 69.8999 397.721 69.7391 397.5C69.4739 397.131 69.3398 396.712 69.2262 396.281C69.1007 395.799 68.9941 395.322 68.8464 394.844L65.7219 384.619L66.3076 384.325C67.5714 383.69 69.2225 383.765 70.5964 383.481C71.9872 383.193 73.2337 382.625 74.5872 382.265C75.4249 382.041 75.9946 382.183 76.8 382.362C77.5298 382.527 77.9251 382.446 78.562 382.016C80.7716 380.53 79.3612 377.292 76.8841 377.64C76.4802 377.696 76.0558 377.794 75.7784 378.114C75.5997 378.32 75.4574 378.606 75.3306 378.844C75.1035 379.274 74.8734 379.676 74.5839 380.066C74.5178 380.156 74.4813 380.252 74.4149 380.345C74.207 380.628 73.812 380.764 73.5016 380.908C73.1598 381.063 72.7967 381.153 72.4422 381.268C71.3336 381.626 70.1647 381.893 69.0158 382.093C67.8612 382.296 66.6621 382.445 65.4879 382.475L64.8072 382.491L64.7023 381.819C64.5648 380.938 64.2693 379.981 64.0052 379.129C63.6293 377.915 63.2167 376.711 62.8065 375.51C62.3701 374.238 61.9281 372.966 61.5199 371.685C61.2243 370.759 60.8844 369.718 60.7265 368.761C60.444 367.047 63.011 364.121 63.9995 362.754C65.2912 360.967 66.5233 359.142 67.7373 357.304C70.137 353.667 72.7639 350.189 75.148 346.542C75.5844 345.874 76.0573 345.198 76.7319 344.747C77.2511 344.4 77.8438 344.208 78.4374 344.035C79.3447 343.771 80.2548 343.538 81.1604 343.262C84.6529 342.201 88.1395 341.084 91.6239 339.992C97.8392 338.042 104.055 336.092 110.272 334.153C116.891 332.087 123.513 330.024 130.148 328C132.4 327.315 134.653 326.629 136.915 325.972C137.593 325.775 138.274 325.58 138.957 325.397C139.255 325.317 139.742 325.173 140.045 325.163L140.627 325.146L143.52 334.107L157.497 378.921ZM62.1122 436.215C60.4716 437.087 58.3449 436.981 56.583 436.591C54.9369 436.228 52.8957 435.444 51.577 434.372C49.796 432.922 49.0926 430.094 49.4385 427.895C49.6347 426.649 50.1555 425.491 51.0333 424.573C51.7433 423.831 53.0945 423.408 54.081 423.239C55.5257 422.992 57.067 423.095 58.4276 423.659C60.1537 424.373 61.3482 425.713 62.0401 427.43C63.051 429.94 62.922 433.025 62.5145 435.648L62.4538 436.032L62.1122 436.215ZM48.0857 426.394C47.4941 429.016 47.65 431.729 49.2431 433.983C51.8023 437.609 56.8763 438.542 61.0242 438.323L62.0245 438.271L61.8254 439.252C60.4663 445.994 57.0692 450.917 51.324 454.631C48.5379 456.432 45.2217 457.548 41.9567 458.059C38.2454 458.639 34.4031 458.472 30.7645 457.538C24.4299 455.912 18.7147 452.514 14.1215 447.879C9.95288 443.675 6.64588 438.371 4.98153 432.675C2.97612 425.803 2.57756 418.48 4.01 411.455C5.34835 404.877 8.27886 398.651 12.7733 393.637C16.8688 389.068 22.6082 386.18 28.4681 384.59C35.5187 382.677 43.3067 382.993 50.5126 383.741L63.5794 384.476L64.9563 388.013L64.9644 388.044C65.4547 389.681 65.9285 391.32 66.4019 392.961C66.7155 394.048 67.0257 395.141 67.379 396.215C67.6847 397.151 68.1166 398.472 68.8813 399.146C69.3386 399.548 69.9687 399.808 70.5284 400.028C71.6003 400.444 72.6908 400.81 73.7652 401.229L94.8488 409.421C96.7459 410.159 99.478 408.729 101.306 408.18L155.689 391.29C156.536 391.028 157.388 390.789 158.245 390.564C158.877 390.398 159.516 390.241 160.143 390.06C160.604 389.927 161.566 389.66 161.856 389.236C162.057 388.942 162.028 388.453 161.991 388.119C161.888 387.195 161.564 386.156 161.292 385.267C160.787 383.618 160.228 381.98 159.688 380.341C158.868 377.848 158.071 375.347 157.307 372.837C155.602 367.231 153.839 361.641 152.103 356.042L144.284 330.85C143.957 329.797 143.66 328.739 143.374 327.676C143.166 326.901 142.969 326.121 142.744 325.352C142.58 324.79 142.244 323.615 141.715 323.274C140.994 322.814 138.997 323.438 138.264 323.653C136.927 324.044 135.598 324.497 134.273 324.934C132.309 325.583 130.344 326.221 128.37 326.836L79.9723 341.854C78.9897 342.158 78.0055 342.42 77.019 342.707C76.5779 342.836 76.0553 342.985 75.6684 343.241C75.1351 343.592 74.6524 344.314 74.2989 344.83L62.4528 362.062C62.1744 362.482 61.8637 362.892 61.5645 363.299C61.1775 363.82 60.7902 364.345 60.4136 364.873C60.0527 365.381 58.7869 367.183 58.746 367.768C58.7391 367.959 58.8407 368.373 58.8863 368.561C59.016 369.115 59.176 369.669 59.3367 370.214C59.7837 371.726 60.2754 373.232 60.7648 374.731C61.2093 376.095 61.6624 377.454 62.0957 378.819C62.3868 379.734 62.718 380.721 62.9275 381.656L63.1133 382.492L62.2623 382.594C59.0088 382.983 55.6734 382.717 52.4299 382.381C48.8429 382.013 45.2886 381.559 41.6769 381.455C37.5826 381.336 33.5956 381.659 29.6101 382.641C24.6565 383.86 20.0652 385.997 15.78 388.743C14.9816 389.254 14.2944 389.781 13.6039 390.431C13.435 390.591 13.2806 390.772 13.1292 390.95C12.6466 391.523 12.2013 392.05 11.5325 392.351C11.3408 392.695 11.1035 393.028 10.8764 393.339C10.4921 393.861 10.0898 394.37 9.69534 394.883C8.57994 396.343 7.56241 397.814 6.65907 399.417C3.56982 404.9 2.14577 411.159 1.65106 417.39C1.33779 425.474 3.05377 434.853 7.43178 441.729C11.9796 448.877 16.5051 453.5 24.3693 457.03C32.6003 460.724 42.0078 461.071 50.208 457.097C55.2053 454.676 58.9828 450.978 61.3337 445.951C62.0934 444.326 62.6595 442.653 63.1158 440.92C63.2692 440.338 63.4066 439.752 63.5545 439.17C63.6462 438.807 63.7664 438.315 63.9662 438.001L64.0665 437.84L69.322 434.776C69.5588 434.625 69.7761 434.477 69.9811 434.285C70.2283 434.052 70.4554 433.829 70.7204 433.612C72.0439 432.515 73.233 431.296 74.3253 429.967C75.2346 428.859 76.0495 427.701 76.8685 426.53C78.0651 424.82 79.5101 422.599 81.645 422.029C85.3167 421.051 87.8962 423.812 88.7597 427.076L88.9529 427.803L88.2318 428.016C87.4343 428.252 86.1796 428.613 85.6123 429.269C85.1748 429.772 84.955 430.623 84.794 431.256C84.6335 431.884 84.4916 432.52 84.3448 433.149C84.1388 434.028 83.9222 434.904 83.6867 435.775C83.5231 436.378 83.326 436.956 83.1277 437.548C83.0091 437.905 82.8822 438.292 82.847 438.668C82.795 439.254 83.008 439.799 83.2677 440.315C85.7652 445.306 88.0222 450.428 90.3556 455.497C91.3271 457.606 92.31 459.709 93.3247 461.797C94.4323 461.862 95.9735 461.201 96.8706 460.782C97.9861 460.262 99.0465 459.655 100.145 459.109C102.544 457.924 104.983 456.83 107.414 455.71C108.624 455.153 109.818 454.561 111.028 454.006C111.82 453.643 112.66 453.31 113.434 452.915C113.622 452.82 114.09 452.578 114.183 452.369C114.326 452.047 113.886 451.019 113.762 450.727C113.469 450.038 113.143 449.356 112.824 448.677C112.351 447.671 111.879 446.665 111.424 445.652C109.255 440.846 106.932 436.11 104.775 431.3C104.514 430.715 104.122 429.76 103.655 429.31C103.289 428.959 102.691 428.706 102.231 428.509C101.053 428 99.868 427.524 98.6965 426.996C97.6252 426.514 96.5577 425.991 95.4791 425.527C95.204 425.411 94.7024 425.188 94.3947 425.214C94.1424 425.237 93.7681 425.417 93.5383 425.522C92.8323 425.838 92.1395 426.13 91.4084 426.392L90.9333 426.562L90.5852 426.196C89.6189 425.18 89.309 423.848 88.3952 422.798C86.1954 420.27 84.3417 419.539 81.0075 420.436C79.6761 420.795 78.577 421.462 77.5987 422.426C76.3841 423.623 75.4658 425.151 74.5617 426.586C73.9674 427.531 73.3651 428.472 72.6731 429.345C71.7751 430.478 70.7911 431.444 69.6568 432.342C68.6385 433.145 67.5537 433.865 66.4893 434.604C65.7085 434.985 65.2158 435.167 64.8583 435.078L64.211 434.913L64.5218 431.707C64.5839 430.897 64.5225 430.083 64.3602 429.29C63.7432 426.273 61.4448 423.004 58.4841 421.908C56.4589 421.158 53.9115 421.258 51.9592 422.2C51.2362 422.55 50.6172 422.965 50.0647 423.55C49.3101 424.357 48.6827 425.45 48.0857 426.394Z" fill="url(#paint4_linear_8_1155)"/>
<path d="M181.898 499.226C181.116 498.396 180.36 497.521 179.606 496.664C178.373 495.263 177.147 493.855 175.93 492.437C174.623 490.915 173.316 489.385 172.045 487.835C171.588 487.281 171.133 486.721 170.699 486.148C170.476 485.858 170.126 485.412 169.987 485.078L169.794 484.61L170.145 484.245C172.03 482.284 174.265 480.576 176.346 478.833L185.628 470.896C187.472 469.321 188.5 469.73 190.711 469.713C191.813 469.702 192.916 469.647 194.017 469.633C194.664 469.627 195.337 469.641 195.932 469.931C196.466 470.193 196.858 470.637 197.23 471.09C197.807 471.792 198.358 472.513 198.947 473.213C199.875 474.314 201.292 475.317 201.182 476.948C201.08 478.458 200.733 480.007 200.504 481.506C200.411 482.127 200.336 482.756 200.225 483.371C200.144 483.828 200.038 484.27 199.824 484.685C199.502 485.303 198.968 485.778 198.445 486.221C197.488 487.031 196.502 487.808 195.545 488.619L182.404 499.763L181.898 499.226ZM264.543 523.805L256.503 528.9L256.075 528.316C254.855 526.651 253.705 524.909 252.577 523.182C251.171 521.028 249.789 518.855 248.416 516.681C246.227 513.218 244.065 509.729 241.817 506.305C237.028 499.013 232.405 491.615 227.612 484.327C226.421 482.517 225.281 480.679 224.093 478.869C223.217 477.533 222.29 476.21 221.447 474.858C220.921 474.015 220.435 473.144 220.202 472.167C219.875 470.794 220.091 469.208 220.262 467.821C220.409 466.623 220.57 465.425 220.714 464.225C220.927 462.442 221.109 460.656 221.267 458.858L222.601 445.09L222.63 445.004C222.717 444.746 222.844 444.509 223.013 444.294C223.297 443.94 223.664 443.698 224.049 443.472C224.479 443.221 224.91 442.99 225.331 442.719L234.336 436.956L234.777 437.441C235.729 438.487 236.102 440.097 236.745 441.344C237.397 442.606 238.279 443.653 238.991 444.86C239.432 445.606 239.449 446.193 239.493 447.017C239.531 447.764 239.716 448.123 240.301 448.621C242.328 450.348 245.066 448.118 244.063 445.826C243.901 445.452 243.693 445.07 243.309 444.889C243.063 444.772 242.749 444.712 242.485 444.654C242.01 444.551 241.562 444.438 241.107 444.264C241.003 444.225 240.901 444.216 240.794 444.177C240.465 444.053 240.228 443.709 240.005 443.449C239.764 443.161 239.58 442.836 239.374 442.526C238.73 441.554 238.158 440.501 237.656 439.448C237.149 438.391 236.683 437.276 236.338 436.153L236.139 435.502L236.758 435.22C237.57 434.85 238.411 434.308 239.161 433.824C240.229 433.135 241.277 432.414 242.323 431.695C243.43 430.932 244.537 430.164 245.66 429.426C246.473 428.892 247.383 428.284 248.263 427.874C249.837 427.14 253.347 428.824 254.929 429.408C256.998 430.171 259.087 430.866 261.184 431.54C265.333 432.872 269.39 434.464 273.545 435.778C274.306 436.019 275.084 436.292 275.7 436.82C276.174 437.227 276.519 437.746 276.845 438.271C277.344 439.074 277.814 439.887 278.323 440.685C280.286 443.763 282.3 446.82 284.291 449.881C287.843 455.341 291.395 460.802 294.936 466.267C298.709 472.085 302.48 477.907 306.215 483.751C307.482 485.736 308.749 487.721 309.991 489.722C310.364 490.322 310.735 490.925 311.095 491.533C311.252 491.8 311.522 492.229 311.613 492.519L311.786 493.075L303.936 498.275L264.543 523.805ZM183.675 447.377C182.393 446.032 181.922 443.955 181.823 442.153C181.729 440.47 181.935 438.293 182.612 436.735C183.529 434.629 186.063 433.19 188.274 432.931C189.527 432.784 190.782 432.974 191.903 433.572C192.808 434.056 193.58 435.243 194.008 436.147C194.635 437.472 194.951 438.984 194.774 440.447C194.551 442.301 193.583 443.813 192.116 444.941C189.971 446.591 186.964 447.298 184.329 447.611L183.943 447.657L183.675 447.377ZM189.355 431.224C186.671 431.36 184.099 432.241 182.358 434.382C179.555 437.823 180.023 442.961 181.352 446.897L181.671 447.846L180.672 447.919C173.814 448.426 168.158 446.48 163.033 441.948C160.548 439.749 158.58 436.857 157.209 433.85C155.651 430.432 154.777 426.686 154.697 422.931C154.556 416.392 156.29 409.973 159.516 404.301C162.442 399.154 166.658 394.541 171.696 391.404C177.774 387.622 184.719 385.266 191.871 384.753C198.566 384.27 205.351 385.415 211.39 388.393C216.893 391.107 221.22 395.856 224.33 401.071C228.072 407.346 229.865 414.931 231.085 422.072L233.896 434.854L230.861 437.133L230.834 437.149C229.389 438.062 227.939 438.96 226.486 439.858C225.523 440.453 224.554 441.046 223.615 441.675C222.796 442.222 221.64 442.994 221.197 443.911C220.933 444.46 220.852 445.137 220.791 445.735C220.679 446.88 220.62 448.028 220.506 449.176L218.296 471.687C218.096 473.713 220.209 475.959 221.23 477.571L252.144 525.395C252.624 526.14 253.084 526.897 253.531 527.662C253.861 528.225 254.185 528.798 254.528 529.353C254.78 529.761 255.296 530.616 255.782 530.781C256.12 530.895 256.583 530.736 256.894 530.61C257.757 530.262 258.671 529.67 259.453 529.169C260.905 528.238 262.332 527.259 263.765 526.297C265.945 524.836 268.139 523.395 270.35 521.984C275.29 518.831 280.199 515.628 285.123 512.448L307.278 498.133C308.204 497.534 309.143 496.963 310.09 496.401C310.78 495.992 311.478 495.593 312.158 495.169C312.655 494.859 313.696 494.22 313.882 493.618C314.131 492.8 312.992 491.044 312.588 490.397C311.851 489.215 311.057 488.057 310.279 486.898C309.125 485.182 307.982 483.461 306.857 481.726L279.359 439.161C278.802 438.297 278.284 437.42 277.742 436.547C277.499 436.157 277.214 435.694 276.864 435.39C276.382 434.971 275.557 434.701 274.965 434.499L255.179 427.732C254.7 427.577 254.221 427.389 253.749 427.21C253.142 426.978 252.533 426.746 251.923 426.526C251.337 426.315 249.26 425.581 248.686 425.699C248.499 425.744 248.128 425.953 247.959 426.048C247.461 426.322 246.971 426.625 246.489 426.927C245.153 427.765 243.836 428.644 242.523 429.519C241.33 430.314 240.143 431.117 238.945 431.902C238.143 432.429 237.281 433.013 236.437 433.467L235.682 433.871L235.354 433.079C234.104 430.05 233.461 426.767 232.911 423.553C232.3 419.999 231.779 416.454 230.907 412.948C229.919 408.973 228.534 405.22 226.515 401.646C224.007 397.204 220.712 393.358 216.913 389.971C216.206 389.339 215.514 388.819 214.702 388.33C214.502 388.21 214.286 388.11 214.074 388.012C213.392 387.702 212.764 387.415 212.295 386.852C211.911 386.76 211.527 386.621 211.166 386.486C210.56 386.257 209.961 386.006 209.361 385.765C207.655 385.084 205.964 384.5 204.177 384.062C198.065 382.563 191.653 382.878 185.519 384.08C177.649 385.955 169.079 390.134 163.636 396.202C157.978 402.507 154.745 408.111 153.463 416.635C152.122 425.557 154.322 434.71 160.358 441.537C164.036 445.697 168.615 448.339 174.089 449.249C175.858 449.543 177.622 449.638 179.413 449.611C180.015 449.602 180.617 449.576 181.218 449.562C181.592 449.552 182.097 449.536 182.454 449.644L182.636 449.697L187.003 453.932C187.212 454.12 187.412 454.289 187.653 454.435C187.943 454.61 188.22 454.769 188.5 454.966C189.913 455.945 191.407 456.762 192.982 457.456C194.293 458.033 195.628 458.506 196.976 458.979C198.946 459.671 201.473 460.465 202.597 462.367C204.528 465.639 202.564 468.867 199.654 470.578L199.005 470.96L198.606 470.323C198.164 469.618 197.479 468.507 196.694 468.138C196.091 467.852 195.213 467.869 194.559 467.885C193.911 467.899 193.261 467.934 192.616 467.962C191.713 468.001 190.811 468.028 189.909 468.036C189.284 468.04 188.674 468.006 188.051 467.975C187.675 467.957 187.269 467.939 186.897 468.006C186.319 468.114 185.852 468.466 185.424 468.855C181.29 472.604 176.965 476.158 172.712 479.77C170.943 481.274 169.182 482.787 167.445 484.326C167.681 485.41 168.732 486.717 169.378 487.468C170.179 488.402 171.049 489.26 171.87 490.171C173.658 492.161 175.369 494.216 177.102 496.256C177.964 497.271 178.856 498.261 179.716 499.276C180.279 499.942 180.826 500.661 181.415 501.3C181.557 501.455 181.917 501.841 182.142 501.875C182.491 501.926 183.362 501.225 183.61 501.027C184.195 500.559 184.764 500.061 185.332 499.571C186.173 498.845 187.015 498.119 187.868 497.408C191.912 494.025 195.847 490.512 199.899 487.139C200.392 486.73 201.206 486.095 201.514 485.525C201.753 485.078 201.836 484.434 201.902 483.938C202.074 482.666 202.214 481.396 202.406 480.126C202.582 478.965 202.798 477.796 202.954 476.632C202.993 476.336 203.072 475.793 202.964 475.503C202.874 475.267 202.6 474.954 202.437 474.761C201.943 474.167 201.474 473.578 201.026 472.945L200.734 472.533L200.992 472.099C201.711 470.895 202.91 470.238 203.675 469.075C205.517 466.275 205.722 464.293 203.96 461.324C203.255 460.138 202.317 459.26 201.125 458.577C199.645 457.73 197.927 457.257 196.301 456.773C195.231 456.455 194.162 456.128 193.135 455.697C191.802 455.138 190.606 454.45 189.437 453.599C188.389 452.835 187.403 451.984 186.405 451.158C185.828 450.509 185.52 450.083 185.509 449.715L185.494 449.048L188.665 448.483C189.462 448.325 190.229 448.047 190.949 447.677C193.689 446.27 196.218 443.176 196.475 440.029C196.652 437.877 195.87 435.451 194.438 433.824C193.906 433.222 193.339 432.738 192.626 432.364C191.647 431.854 190.425 431.544 189.355 431.224Z" fill="url(#paint5_linear_8_1155)"/>
</g>
<defs>
<linearGradient id="paint0_linear_8_1155" x1="123" y1="-36" x2="123" y2="121" gradientUnits="userSpaceOnUse">
<stop offset="0.322917" stop-color="#00BD8D"/>
<stop offset="1" stop-color="#00392D"/>
</linearGradient>
<linearGradient id="paint1_linear_8_1155" x1="377.995" y1="81.478" x2="248.005" y2="169.522" gradientUnits="userSpaceOnUse">
<stop offset="0.322917" stop-color="#00BD8D"/>
<stop offset="1" stop-color="#00392D"/>
</linearGradient>
<linearGradient id="paint2_linear_8_1155" x1="50.5983" y1="143.648" x2="67.0463" y2="299.784" gradientUnits="userSpaceOnUse">
<stop offset="0.322917" stop-color="#00BD8D"/>
<stop offset="1" stop-color="#00392D"/>
</linearGradient>
<linearGradient id="paint3_linear_8_1155" x1="218.773" y1="316.154" x2="375.091" y2="330.772" gradientUnits="userSpaceOnUse">
<stop offset="0.322917" stop-color="#00BD8D"/>
<stop offset="1" stop-color="#00392D"/>
</linearGradient>
<linearGradient id="paint4_linear_8_1155" x1="4.79705" y1="383.683" x2="161.115" y2="398.302" gradientUnits="userSpaceOnUse">
<stop offset="0.322917" stop-color="#00BD8D"/>
<stop offset="1" stop-color="#00392D"/>
</linearGradient>
<linearGradient id="paint5_linear_8_1155" x1="218.828" y1="378.031" x2="246.853" y2="532.509" gradientUnits="userSpaceOnUse">
<stop offset="0.322917" stop-color="#00BD8D"/>
<stop offset="1" stop-color="#00392D"/>
</linearGradient>
<clipPath id="clip0_8_1155">
<rect width="382" height="510" rx="50" fill="white"/>
</clipPath>
</defs>
</svg>
