<svg width="1288" height="122" viewBox="0 0 1288 122" fill="none" xmlns="http://www.w3.org/2000/svg">
<g clip-path="url(#clip0_41_2264)">
<g clip-path="url(#clip1_41_2264)">
<path d="M38.5985 134.039C28.6747 139.746 20.9638 138.994 10.1499 138.78C8.54852 138.703 -1.19409 137.983 -1.74853 137.743C-3.16312 138.036 -5.75772 141.9 -7.08805 143.525C-10.4035 147.568 -21.5249 161.556 -24.6884 162.183C-25.0442 161.954 -25.4773 161.764 -25.7417 161.266C-26.2097 160.369 -25.9946 160.283 -25.5461 159.812C-25.49 159.646 -16.4164 150.114 -15.5343 149.106C-11.6658 144.634 -7.67514 140.609 -4.1858 135.754L-5.98345 130.682L-8.14088 124.475C-9.2843 120.398 -10.9437 116.487 -11.8865 112.406C-14.8432 99.6749 -13.0908 94.9206 -8.13639 82.7695C-7.45953 81.5445 -6.64746 79.995 -5.86162 78.908C-0.808183 72.2516 3.09078 67.3502 9.42556 61.6881C10.8945 60.3721 12.1778 59.251 13.7554 57.9474C14.3001 57.4927 15.0037 57.0963 15.6675 56.6434C24.775 50.394 34.8987 46.3027 45.3202 42.7048C48.3449 41.663 51.4284 40.7551 54.4323 39.7133L58.972 38.4289C62.8163 37.4614 66.6783 36.9626 70.369 35.5161C72.9757 34.4958 74.291 32.6381 76.4196 31.9176C76.7186 34.0369 75.0906 36.2508 74.8214 38.5047C74.5419 40.8528 74.7756 42.673 74.9605 45.1795C75.8479 56.9569 74.549 72.9011 72.7744 84.1818C71.3857 93.0369 68.9842 100.347 65.0993 107.037C63.0434 110.574 60.6965 113.95 58.326 117.006C52.6448 124.327 46.7456 129.354 38.5985 134.039Z" stroke="url(#paint0_linear_41_2264)" stroke-miterlimit="22.9256"/>
<path d="M76.0733 32.6763C69.043 42.7105 61.9562 52.7007 54.7899 62.6408C60.8284 63.3738 66.2656 63.4776 72.3505 60.2934C64.4362 65.3193 60.2488 63.1213 54.0999 63.598C48.8763 70.828 43.6107 78.0371 38.2887 85.2023C47.8496 88.042 56.5908 89.7256 67.2696 86.2299C53.2804 92.1404 47.1671 87.5239 37.2276 86.6328C32.3454 93.197 28.0549 98.8229 23.0743 105.322C30.6501 104.402 44.5111 111.44 62.2766 108.082C42.9926 113.024 35.4381 107.997 22.1989 106.537C17.3183 112.898 12.3917 119.226 7.40235 125.512C19.6301 129.133 30.818 131.274 44.4798 126.799C26.5453 134.374 18.6902 128.471 5.96579 127.32C-3.38338 139.066 -12.9377 150.679 -22.739 162.117C-24.2894 163.481 -26.483 162.053 -25.0646 159.546C-14.3906 147.572 -4.04075 135.525 6.01632 123.415C1.83027 111.633 -5.52407 105.311 -2.49425 86.3369C-3.56052 100.542 1.07611 110.839 7.40091 121.743C11.2565 117.087 15.0744 112.422 18.8526 107.742C16.0864 95.1849 10.6535 88.0231 13.668 68.7329C12.3308 83.3359 15.5455 94.403 20.0327 106.272C25.9501 98.9281 31.7651 91.5698 37.5027 84.1885C34.2807 74.6175 28.2547 69.8042 30.6633 54.6956C29.8188 65.9437 33.5583 74.043 38.6117 82.693L38.4034 83.0281C44.1993 75.5505 49.9116 68.052 55.5507 60.5432C52.9368 54.9911 48.9828 52.4078 49.4423 43.0685C49.6802 50.0173 52.5161 54.7342 56.1906 59.6866C62.9241 50.7011 69.5468 41.697 76.0733 32.6763Z" fill="url(#paint1_linear_41_2264)"/>
</g>
<g clip-path="url(#clip2_41_2264)">
<path d="M490.035 160.054C481.71 167.912 474.036 168.974 463.469 171.28C461.893 171.577 452.25 173.143 451.655 173.038C450.347 173.652 448.723 178.013 447.807 179.904C445.522 184.607 437.959 200.797 435.028 202.144C434.628 202.003 434.163 201.919 433.79 201.496C433.126 200.733 433.315 200.599 433.642 200.036C433.658 199.862 440.266 188.481 440.89 187.296C443.612 182.047 446.558 177.204 448.822 171.671L445.894 167.156L442.352 161.62C440.292 157.921 437.769 154.504 435.903 150.753C430.067 139.059 430.666 134.028 432.658 121.058C433.032 119.709 433.461 118.013 433.973 116.773C437.34 109.124 439.992 103.45 444.836 96.4701C445.959 94.8486 446.946 93.4598 448.178 91.8251C448.602 91.2561 449.194 90.707 449.734 90.1122C457.139 81.9161 466.033 75.5827 475.332 69.66C478.032 67.9433 480.82 66.3432 483.499 64.6315L487.616 62.3266C491.13 60.4916 494.77 59.1084 498.023 56.8433C500.321 55.2447 501.168 53.1321 503.071 51.9364C503.854 53.928 502.786 56.4598 503.048 58.7145C503.322 61.0633 503.973 62.7792 504.736 65.174C508.338 76.4221 510.782 92.2313 511.679 103.615C512.388 112.551 511.752 120.219 509.53 127.629C508.353 131.547 506.855 135.376 505.26 138.9C501.437 147.341 496.869 153.602 490.035 160.054Z" stroke="url(#paint2_linear_41_2264)" stroke-miterlimit="22.9256"/>
<path d="M502.912 52.7546C498.407 64.1486 493.838 75.513 489.18 86.8471C495.223 86.1557 500.536 84.9923 505.713 80.4803C499.184 87.2089 494.601 86.045 488.731 87.9385C485.332 96.185 481.888 104.421 478.378 112.627C488.337 113.166 497.23 112.771 506.803 106.887C494.572 115.889 487.553 112.821 477.678 114.265C474.456 121.785 471.592 128.254 468.259 135.734C475.413 133.077 490.531 136.699 507.029 129.301C489.422 138.592 480.906 135.46 467.69 137.119C464.423 144.441 461.103 151.741 457.712 159.014C470.447 159.693 481.826 159.173 494.072 151.644C478.391 163.182 469.378 159.267 456.735 161.107C450.374 174.705 443.782 188.222 436.909 201.625C435.719 203.313 433.253 202.433 434.05 199.666C441.647 185.537 448.911 171.414 455.876 157.297C449.065 146.812 440.442 142.374 438.977 123.215C441.243 137.279 448.147 146.215 456.834 155.35C459.501 149.924 462.13 144.499 464.716 139.069C459.105 127.499 452.156 121.797 450.602 102.335C452.697 116.849 458.398 126.865 465.522 137.365C469.569 128.846 473.514 120.337 477.377 111.824C472.018 103.265 465.038 99.9849 463.867 84.7303C465.661 95.8664 471.182 102.874 478.108 110.112L477.984 110.486C481.882 101.866 485.694 93.2444 489.432 84.6301C485.599 79.838 481.152 78.2451 479.427 69.0549C481.275 75.7579 485.13 79.6861 489.855 83.6481C494.315 73.3431 498.662 63.0458 502.912 52.7546Z" fill="url(#paint3_linear_41_2264)"/>
</g>
<g clip-path="url(#clip3_41_2264)">
<path d="M115.872 151.09C124.248 158.893 131.929 159.904 142.511 162.142C144.088 162.428 153.741 163.931 154.336 163.822C155.647 164.427 157.301 168.778 158.229 170.662C160.544 175.35 168.214 191.491 171.154 192.818C171.552 192.674 172.017 192.587 172.387 192.162C173.046 191.394 172.856 191.262 172.526 190.701C172.508 190.528 165.826 179.19 165.194 178.009C162.437 172.777 159.461 167.954 157.16 162.436L160.058 157.902L163.563 152.343C165.599 148.631 168.1 145.197 169.941 141.434C175.701 129.702 175.069 124.675 172.991 111.718C172.609 110.372 172.168 108.679 171.648 107.442C168.231 99.8152 165.542 94.1589 160.652 87.2109C159.519 85.5968 158.522 84.2145 157.28 82.5879C156.853 82.0217 156.257 81.4765 155.713 80.8852C148.254 72.7379 139.318 66.463 129.981 60.6014C127.27 58.9025 124.472 57.3207 121.781 55.6266L117.65 53.3488C114.124 51.5369 110.475 50.1776 107.207 47.9339C104.898 46.3504 104.037 44.2434 102.127 43.0602C101.356 45.0569 102.441 47.5816 102.194 49.838C101.935 52.1885 101.296 53.9087 100.549 56.3084C97.0206 67.58 94.6799 83.4048 93.8572 94.7946C93.2073 103.734 93.8933 111.398 96.1643 118.794C97.3671 122.704 98.8896 126.523 100.508 130.036C104.386 138.452 108.995 144.683 115.872 151.09Z" stroke="url(#paint4_linear_41_2264)" stroke-miterlimit="22.9256"/>
<path d="M102.291 43.8773C106.87 55.2415 111.514 66.5756 116.246 77.879C110.198 77.2272 104.879 76.0987 99.6715 71.6208C106.244 78.3064 110.82 77.1124 116.702 78.9674C120.155 87.1914 123.654 95.4046 127.217 103.588C117.262 104.192 108.366 103.855 98.7548 98.0344C111.045 106.956 118.044 103.841 127.927 105.221C131.198 112.719 134.105 119.17 137.487 126.627C130.316 124.018 115.222 127.739 98.6764 120.449C116.343 129.625 124.839 126.437 138.065 128.009C141.38 135.309 144.748 142.587 148.187 149.838C135.457 150.6 124.075 150.155 111.779 142.706C127.536 154.141 136.522 150.168 149.177 151.924C155.628 165.481 162.308 178.954 169.268 192.312C170.47 193.991 172.93 193.096 172.115 190.334C164.426 176.255 157.069 162.18 150.011 148.109C156.753 137.58 165.347 133.084 166.687 113.917C164.513 127.995 157.667 136.977 149.04 146.168C146.338 140.76 143.674 135.352 141.052 129.94C146.587 118.333 153.498 112.586 154.925 93.1135C152.925 107.641 147.29 117.694 140.235 128.24C136.132 119.749 132.132 111.266 128.212 102.778C133.515 94.1837 140.474 90.858 141.545 75.5961C139.823 86.7438 134.349 93.7875 127.47 101.07L127.597 101.444C123.643 92.8493 119.774 84.2532 115.98 75.6636C119.781 70.8465 124.217 69.2245 125.882 60.0232C124.078 66.7381 120.249 70.6915 115.55 74.6844C111.023 64.409 106.608 54.1404 102.291 43.8773Z" fill="url(#paint5_linear_41_2264)"/>
</g>
<g clip-path="url(#clip4_41_2264)">
<path d="M593.638 161.299C585.221 169.059 577.535 170.031 566.942 172.213C565.363 172.492 555.702 173.944 555.108 173.833C553.794 174.431 552.118 178.773 551.18 180.653C548.84 185.329 541.088 201.43 538.141 202.741C537.743 202.596 537.279 202.507 536.911 202.08C536.256 201.308 536.447 201.177 536.78 200.618C536.798 200.444 543.539 189.141 544.177 187.963C546.961 182.746 549.962 177.939 552.292 172.432L549.417 167.884L545.94 162.307C543.924 158.584 541.44 155.137 539.619 151.365C533.92 139.603 534.577 134.579 536.722 121.633C537.111 120.289 537.561 118.598 538.087 117.364C541.543 109.755 544.261 104.113 549.187 97.1901C550.329 95.5818 551.332 94.2047 552.583 92.5845C553.013 92.0206 553.612 91.4784 554.159 90.89C561.659 82.7812 570.627 76.5525 579.995 70.7391C582.715 69.0542 585.521 67.4868 588.22 65.8066L592.364 63.5501C595.899 61.7564 599.555 60.4159 602.834 58.1891C605.151 56.6176 606.023 54.515 607.939 53.3417C608.7 55.3424 607.601 57.8614 607.837 60.1191C608.084 62.4709 608.714 64.1943 609.449 66.5979C612.919 77.8874 615.178 93.7242 615.942 105.118C616.546 114.061 615.82 121.721 613.511 129.105C612.288 133.009 610.746 136.82 609.11 140.325C605.188 148.721 600.547 154.928 593.638 161.299Z" stroke="url(#paint6_linear_41_2264)" stroke-miterlimit="22.9256"/>
<path d="M607.771 54.1578C603.134 65.4982 598.432 76.8083 593.641 88.0871C599.692 87.4665 605.018 86.3654 610.248 81.9144C603.641 88.566 599.071 87.3485 593.18 89.1731C589.685 97.3792 586.144 105.574 582.538 113.739C592.49 114.394 601.387 114.103 611.029 108.332C598.693 117.19 591.71 114.04 581.819 115.369C578.51 122.85 575.569 129.285 572.149 136.725C579.334 134.153 594.408 137.951 610.991 130.747C593.278 139.832 584.799 136.6 571.564 138.104C568.211 145.387 564.806 152.647 561.33 159.881C574.056 160.708 585.44 160.322 597.774 152.937C581.959 164.29 572.993 160.27 560.329 161.961C553.809 175.485 547.059 188.923 540.03 202.245C538.82 203.918 536.364 203.01 537.193 200.252C544.955 186.214 552.385 172.176 559.515 158.142C552.827 147.578 544.257 143.039 543.015 123.864C545.117 137.953 551.916 146.97 560.495 156.206C563.226 150.812 565.918 145.418 568.567 140.019C563.093 128.384 556.211 122.601 554.885 103.122C556.81 117.659 562.392 127.741 569.393 138.324C573.54 129.854 577.584 121.391 581.547 112.924C576.288 104.303 569.347 100.941 568.355 85.6738C570.019 96.8302 575.457 103.902 582.298 111.22L582.169 111.593C586.168 103.019 590.08 94.443 593.919 85.8731C590.142 81.0365 585.715 79.3915 584.098 70.1818C585.867 76.906 589.675 80.879 594.354 84.8961C598.934 74.6442 603.401 64.3984 607.771 54.1578Z" fill="url(#paint7_linear_41_2264)"/>
</g>
<g clip-path="url(#clip5_41_2264)">
<path d="M1057.64 153.515C1049.22 161.275 1041.54 162.247 1030.94 164.43C1029.36 164.708 1019.7 166.161 1019.11 166.05C1017.79 166.648 1016.12 170.99 1015.18 172.869C1012.84 177.545 1005.09 193.646 1002.14 194.958C1001.74 194.813 1001.28 194.723 1000.91 194.296C1000.26 193.525 1000.45 193.393 1000.78 192.835C1000.8 192.661 1007.54 181.358 1008.18 180.18C1010.96 174.963 1013.96 170.155 1016.29 164.649L1013.42 160.1L1009.94 154.523C1007.92 150.8 1005.44 147.353 1003.62 143.582C997.92 131.82 998.577 126.796 1000.72 113.85C1001.11 112.505 1001.56 110.815 1002.09 109.581C1005.54 101.972 1008.26 96.3294 1013.19 89.4066C1014.33 87.7984 1015.33 86.4212 1016.58 84.8011C1017.01 84.2371 1017.61 83.6949 1018.16 83.1065C1025.66 74.9978 1034.63 68.769 1044 62.9556C1046.71 61.2707 1049.52 59.7034 1052.22 58.0232L1056.36 55.7667C1059.9 53.973 1063.55 52.6325 1066.83 50.4057C1069.15 48.8342 1070.02 46.7316 1071.94 45.5582C1072.7 47.5589 1071.6 50.078 1071.84 52.3356C1072.08 54.6874 1072.71 56.4109 1073.45 58.8145C1076.92 70.104 1079.18 85.9407 1079.94 97.3346C1080.55 106.278 1079.82 113.938 1077.51 121.322C1076.29 125.225 1074.75 129.037 1073.11 132.541C1069.19 140.937 1064.55 147.145 1057.64 153.515Z" stroke="url(#paint8_linear_41_2264)" stroke-miterlimit="22.9256"/>
<path d="M1071.77 46.3743C1067.13 57.7147 1062.43 69.0248 1057.64 80.3036C1063.69 79.683 1069.02 78.5819 1074.25 74.1309C1067.64 80.7826 1063.07 79.565 1057.18 81.3896C1053.68 89.5958 1050.14 97.7908 1046.54 105.956C1056.49 106.611 1065.39 106.32 1075.03 100.549C1062.69 109.407 1055.71 106.256 1045.82 107.585C1042.51 115.067 1039.57 121.502 1036.15 128.942C1043.33 126.369 1058.41 130.168 1074.99 122.964C1057.28 132.048 1048.8 128.816 1035.56 130.32C1032.21 137.603 1028.81 144.864 1025.33 152.097C1038.06 152.925 1049.44 152.538 1061.77 145.153C1045.96 156.507 1036.99 152.487 1024.33 154.178C1017.81 167.701 1011.06 181.14 1004.03 194.461C1002.82 196.135 1000.36 195.227 1001.19 192.469C1008.96 178.43 1016.38 164.393 1023.51 150.359C1016.83 139.795 1008.26 135.255 1007.02 116.081C1009.12 130.17 1015.92 139.187 1024.5 148.422C1027.23 143.029 1029.92 137.635 1032.57 132.236C1027.09 120.601 1020.21 114.818 1018.88 95.3385C1020.81 109.876 1026.39 119.958 1033.39 130.541C1037.54 122.07 1041.58 113.608 1045.55 105.141C1040.29 96.5191 1033.35 93.1576 1032.35 77.8904C1034.02 89.0468 1039.46 96.1186 1046.3 103.437L1046.17 103.81C1050.17 95.2356 1054.08 86.6596 1057.92 78.0897C1054.14 73.253 1049.72 71.6081 1048.1 62.3984C1049.87 69.1225 1053.68 73.0956 1058.35 77.1127C1062.93 66.8607 1067.4 56.615 1071.77 46.3743Z" fill="url(#paint9_linear_41_2264)"/>
</g>
<g clip-path="url(#clip6_41_2264)">
<path d="M950.766 145.011C945.466 155.158 938.56 158.67 929.327 164.303C927.935 165.099 919.333 169.73 918.737 169.825C917.701 170.833 917.591 175.486 917.343 177.571C916.721 182.763 914.864 200.536 912.534 202.766C912.11 202.764 911.643 202.837 911.152 202.559C910.276 202.054 910.411 201.866 910.535 201.227C910.494 201.058 913.02 188.142 913.222 186.818C914.079 180.967 915.28 175.428 915.612 169.459L911.37 166.149L906.213 162.074C903.057 159.251 899.556 156.846 896.567 153.912C887.229 144.767 886.151 139.816 883.796 126.907C883.708 125.51 883.559 123.767 883.638 122.428C884.32 114.098 884.972 107.869 887.27 99.6894C887.801 97.7901 888.28 96.1548 888.91 94.2075C889.124 93.5312 889.505 92.8187 889.821 92.08C894.14 81.9142 900.477 73.0217 907.33 64.3852C909.32 61.8807 911.432 59.4573 913.405 56.964L916.542 53.4404C919.263 50.5578 922.252 48.061 924.586 44.8571C926.235 42.5954 926.346 40.3219 927.753 38.57C929.145 40.1961 928.962 42.9381 929.947 44.9833C930.974 47.1135 932.149 48.5226 933.653 50.5367C940.733 59.9901 948.209 74.1324 952.778 84.5982C956.368 92.8113 958.273 100.266 958.594 107.996C958.762 112.084 958.598 116.192 958.242 120.043C957.388 129.27 955.116 136.681 950.766 145.011Z" stroke="url(#paint10_linear_41_2264)" stroke-miterlimit="22.9256"/>
<path d="M927.869 39.3951C927.336 51.6354 926.731 63.869 926.032 76.1032C931.518 73.4748 936.159 70.6392 939.577 64.6829C935.606 73.1756 930.894 73.5735 925.965 77.2812C925.448 86.1858 924.884 95.0952 924.248 103.998C933.837 101.252 942.112 97.9725 949.237 89.2838C940.619 101.788 932.983 101.182 924.123 105.775C923.535 113.934 922.942 120.985 922.237 129.143C928.13 124.294 943.601 122.776 956.775 110.393C943.172 124.928 934.1 124.751 922.152 130.637C921.456 138.625 920.704 146.609 919.877 154.592C932.134 151.071 942.718 146.861 951.832 135.743C940.782 151.772 930.985 151.018 919.637 156.888C918.069 171.819 916.257 186.748 914.141 201.661C913.568 203.645 910.95 203.62 910.798 200.744C913.361 184.909 915.611 169.186 917.581 153.569C907.717 145.885 898.117 144.508 890.471 126.881C897.209 139.431 906.654 145.621 917.849 151.415C918.597 145.416 919.308 139.43 919.978 133.453C910.895 124.352 902.463 121.234 894.634 103.348C901.358 116.38 910.018 123.983 920.183 131.579C921.224 122.205 922.171 112.874 923.041 103.566C915.178 97.2279 907.51 96.4091 901.418 82.3748C906.753 92.3131 914.26 97.1319 923.172 101.709L923.176 102.103C924.043 92.6821 924.828 83.2885 925.546 73.9255C920.357 70.6493 915.635 70.5969 911.001 62.475C914.937 68.2062 919.864 70.6589 925.625 72.8591C926.472 61.6627 927.216 50.51 927.869 39.3951Z" fill="url(#paint11_linear_41_2264)"/>
</g>
<g clip-path="url(#clip7_41_2264)">
<path d="M1297.75 119.246C1295.79 130.525 1290.28 135.974 1283.21 144.153C1282.12 145.335 1275.34 152.366 1274.8 152.639C1274.12 153.914 1275.43 158.38 1275.83 160.442C1276.82 165.576 1280.47 183.07 1278.93 185.904C1278.53 186.031 1278.1 186.242 1277.55 186.127C1276.56 185.914 1276.63 185.693 1276.56 185.047C1276.47 184.898 1274.94 171.827 1274.73 170.505C1273.76 164.671 1273.22 159.029 1271.71 153.242L1266.66 151.382L1260.51 149.073C1256.65 147.346 1252.58 146.122 1248.84 144.238C1237.16 138.373 1234.62 133.987 1228.44 122.409C1227.93 121.105 1227.26 119.49 1226.93 118.191C1225.04 110.05 1223.76 103.918 1223.46 95.4275C1223.39 93.4567 1223.34 91.7532 1223.35 89.7067C1223.35 88.9971 1223.49 88.2026 1223.57 87.4027C1224.59 76.4041 1227.91 66.0037 1231.81 55.6897C1232.94 52.6977 1234.21 49.7461 1235.33 46.7703L1237.25 42.4582C1238.96 38.8835 1241.05 35.5948 1242.29 31.832C1243.17 29.1752 1242.59 26.9763 1243.39 24.8788C1245.21 26.0036 1245.88 28.6708 1247.44 30.3187C1249.06 32.0347 1250.61 33.0185 1252.66 34.4787C1262.28 41.3251 1273.71 52.5165 1281.25 61.0926C1287.18 67.8212 1291.26 74.3409 1293.92 81.6053C1295.33 85.4473 1296.42 89.4102 1297.26 93.1867C1299.26 102.235 1299.35 109.986 1297.75 119.246Z" stroke="url(#paint12_linear_41_2264)" stroke-miterlimit="22.9256"/>
<path d="M1243.76 25.6292C1246.98 37.4498 1250.13 49.2859 1253.19 61.1511C1257.62 56.9761 1261.17 52.8613 1262.61 46.1466C1261.42 55.4455 1257.05 57.2604 1253.49 62.2936C1255.71 70.9324 1257.89 79.59 1259.99 88.2631C1268.29 82.7261 1275.17 77.0805 1279.31 66.634C1274.91 81.1699 1267.46 82.9198 1260.42 89.9935C1262.34 97.9441 1263.93 104.84 1265.74 112.825C1269.88 106.411 1284.15 100.251 1292.92 84.4427C1284.4 102.431 1275.7 105.027 1266.12 114.274C1267.89 122.094 1269.6 129.928 1271.25 137.783C1281.85 130.694 1290.65 123.46 1295.94 110.093C1290.3 128.727 1280.74 130.994 1271.72 140.043C1274.78 154.742 1277.6 169.513 1280.13 184.361C1280.19 186.426 1277.69 187.199 1276.66 184.506C1274.28 168.643 1271.63 152.983 1268.75 137.508C1257.01 133.196 1247.45 134.809 1234.8 120.35C1245.04 130.251 1255.92 133.268 1268.35 135.375C1267.23 129.433 1266.09 123.515 1264.9 117.618C1253.48 111.718 1244.5 111.317 1231.59 96.6677C1241.97 107.031 1252.53 111.634 1264.53 115.771C1262.66 106.526 1260.72 97.3501 1258.71 88.2193C1249.29 84.5787 1241.74 86.1356 1231.66 74.625C1239.77 82.465 1248.39 84.7669 1258.27 86.4105L1258.4 86.7849C1256.35 77.5478 1254.24 68.3616 1252.07 59.2251C1246.13 57.6859 1241.61 59.0751 1234.72 52.7514C1240.22 57.0106 1245.66 57.8452 1251.82 58.1854C1249.21 47.2633 1246.52 36.4146 1243.76 25.6292Z" fill="url(#paint13_linear_41_2264)"/>
</g>
<g clip-path="url(#clip8_41_2264)">
<path d="M237.599 158.039C227.675 163.746 219.964 162.994 209.15 162.78C207.549 162.703 197.806 161.983 197.251 161.743C195.837 162.036 193.242 165.9 191.912 167.525C188.597 171.568 177.475 185.556 174.312 186.183C173.956 185.954 173.523 185.764 173.258 185.266C172.79 184.369 173.005 184.283 173.454 183.812C173.51 183.646 182.584 174.114 183.466 173.106C187.334 168.634 191.325 164.609 194.814 159.754L193.017 154.682L190.859 148.475C189.716 144.398 188.056 140.487 187.114 136.406C184.157 123.675 185.909 118.921 190.864 106.769C191.54 105.544 192.353 103.995 193.138 102.908C198.192 96.2516 202.091 91.3502 208.426 85.6881C209.894 84.3721 211.178 83.251 212.755 81.9474C213.3 81.4927 214.004 81.0963 214.668 80.6434C223.775 74.394 233.899 70.3027 244.32 66.7048C247.345 65.663 250.428 64.7551 253.432 63.7133L257.972 62.4289C261.816 61.4614 265.678 60.9626 269.369 59.5161C271.976 58.4958 273.291 56.6381 275.42 55.9176C275.719 58.0369 274.091 60.2508 273.821 62.5047C273.542 64.8528 273.776 66.673 273.96 69.1795C274.848 80.9569 273.549 96.9011 271.774 108.182C270.386 117.037 267.984 124.347 264.099 131.037C262.043 134.574 259.697 137.95 257.326 141.006C251.645 148.327 245.746 153.354 237.599 158.039Z" stroke="url(#paint14_linear_41_2264)" stroke-miterlimit="22.9256"/>
<path d="M275.073 56.6766C268.043 66.7107 260.956 76.701 253.79 86.6411C259.828 87.374 265.266 87.4779 271.35 84.2936C263.436 89.3195 259.249 87.1216 253.1 87.5982C247.876 94.8282 242.611 102.037 237.289 109.203C246.85 112.042 255.591 113.726 266.27 110.23C252.28 116.141 246.167 111.524 236.228 110.633C231.345 117.197 227.055 122.823 222.074 129.323C229.65 128.402 243.511 135.44 261.277 132.082C241.993 137.024 234.438 131.997 221.199 130.537C216.318 136.898 211.392 143.226 206.402 149.512C218.63 153.133 229.818 155.274 243.48 150.799C225.545 158.374 217.69 152.471 204.966 151.32C195.617 163.066 186.062 174.68 176.261 186.117C174.711 187.481 172.517 186.053 173.935 183.546C184.609 171.572 194.959 159.525 205.016 147.415C200.83 135.634 193.476 129.311 196.506 110.337C195.439 124.542 200.076 134.84 206.401 145.744C210.256 141.087 214.074 136.422 217.853 131.743C215.086 119.185 209.653 112.023 212.668 92.7332C211.331 107.336 214.545 118.403 219.033 130.272C224.95 122.928 230.765 115.57 236.503 108.189C233.281 98.6177 227.255 93.8045 229.663 78.6958C228.819 89.9439 232.558 98.0432 237.612 106.693L237.403 107.028C243.199 99.5507 248.912 92.0523 254.551 84.5435C251.937 78.9913 247.983 76.4081 248.442 67.0688C248.68 74.0176 251.516 78.7345 255.191 83.6868C261.924 74.7014 268.547 65.6973 275.073 56.6766Z" fill="url(#paint15_linear_41_2264)"/>
</g>
<g clip-path="url(#clip9_41_2264)">
<path d="M709.599 158.256C699.675 163.962 691.964 163.211 681.15 162.997C679.549 162.919 669.806 162.199 669.251 161.96C667.837 162.252 665.242 166.116 663.912 167.742C660.597 171.784 649.475 185.772 646.312 186.4C645.956 186.17 645.523 185.98 645.258 185.483C644.79 184.586 645.005 184.5 645.454 184.028C645.51 183.863 654.584 174.33 655.466 173.323C659.334 168.85 663.325 164.826 666.814 159.971L665.017 154.899L662.859 148.691C661.716 144.614 660.056 140.704 659.114 136.622C656.157 123.891 657.909 119.137 662.864 106.986C663.54 105.761 664.353 104.212 665.138 103.125C670.192 96.4681 674.091 91.5667 680.426 85.9047C681.894 84.5887 683.178 83.4675 684.755 82.164C685.3 81.7092 686.004 81.3128 686.668 80.86C695.775 74.6106 705.899 70.5192 716.32 66.9213C719.345 65.8796 722.428 64.9716 725.432 63.9299L729.972 62.6455C733.816 61.678 737.678 61.1792 741.369 59.7327C743.976 58.7124 745.291 56.8546 747.42 56.1342C747.719 58.2535 746.091 60.4673 745.821 62.7212C745.542 65.0694 745.776 66.8895 745.96 69.3961C746.848 81.1734 745.549 97.1177 743.774 108.398C742.386 117.253 739.984 124.563 736.099 131.254C734.043 134.791 731.697 138.167 729.326 141.223C723.645 148.543 717.746 153.571 709.599 158.256Z" stroke="url(#paint16_linear_41_2264)" stroke-miterlimit="22.9256"/>
<path d="M747.073 56.8929C740.043 66.927 732.956 76.9173 725.79 86.8574C731.828 87.5903 737.266 87.6942 743.35 84.5099C735.436 89.5358 731.249 87.3379 725.1 87.8146C719.876 95.0445 714.611 102.254 709.289 109.419C718.85 112.259 727.591 113.942 738.27 110.446C724.28 116.357 718.167 111.74 708.228 110.849C703.345 117.414 699.055 123.039 694.074 129.539C701.65 128.619 715.511 135.657 733.277 132.298C713.993 137.241 706.438 132.214 693.199 130.754C688.318 137.115 683.392 143.442 678.402 149.728C690.63 153.349 701.818 155.49 715.48 151.015C697.545 158.59 689.69 152.687 676.966 151.536C667.617 163.283 658.062 174.896 648.261 186.333C646.711 187.698 644.517 186.269 645.935 183.763C656.609 171.788 666.959 159.741 677.016 147.631C672.83 135.85 665.476 129.528 668.506 110.553C667.439 124.759 672.076 135.056 678.401 145.96C682.256 141.303 686.074 136.638 689.853 131.959C687.086 119.401 681.653 112.24 684.668 92.9495C683.331 107.552 686.545 118.62 691.033 130.489C696.95 123.145 702.765 115.786 708.503 108.405C705.281 98.834 699.255 94.0208 701.663 78.9121C700.819 90.1603 704.558 98.2596 709.612 106.91L709.403 107.245C715.199 99.767 720.912 92.2686 726.551 84.7598C723.937 79.2076 719.983 76.6244 720.442 67.2851C720.68 74.2339 723.516 78.9508 727.191 83.9031C733.924 74.9177 740.547 65.9136 747.073 56.8929Z" fill="url(#paint17_linear_41_2264)"/>
</g>
<g clip-path="url(#clip10_41_2264)">
<path d="M1168.6 156.039C1158.67 161.746 1150.96 160.994 1140.15 160.78C1138.55 160.703 1128.81 159.983 1128.25 159.743C1126.84 160.036 1124.24 163.9 1122.91 165.525C1119.6 169.568 1108.48 183.556 1105.31 184.183C1104.96 183.954 1104.52 183.764 1104.26 183.266C1103.79 182.369 1104.01 182.283 1104.45 181.812C1104.51 181.646 1113.58 172.114 1114.47 171.106C1118.33 166.634 1122.32 162.609 1125.81 157.754L1124.02 152.682L1121.86 146.475C1120.72 142.398 1119.06 138.487 1118.11 134.406C1115.16 121.675 1116.91 116.921 1121.86 104.769C1122.54 103.544 1123.35 101.995 1124.14 100.908C1129.19 94.2516 1133.09 89.3502 1139.43 83.6881C1140.89 82.3721 1142.18 81.251 1143.76 79.9474C1144.3 79.4927 1145 79.0963 1145.67 78.6434C1154.78 72.394 1164.9 68.3027 1175.32 64.7048C1178.34 63.663 1181.43 62.7551 1184.43 61.7133L1188.97 60.4289C1192.82 59.4614 1196.68 58.9626 1200.37 57.5161C1202.98 56.4958 1204.29 54.6381 1206.42 53.9176C1206.72 56.0369 1205.09 58.2508 1204.82 60.5047C1204.54 62.8528 1204.78 64.673 1204.96 67.1795C1205.85 78.9569 1204.55 94.9011 1202.77 106.182C1201.39 115.037 1198.98 122.347 1195.1 129.037C1193.04 132.574 1190.7 135.95 1188.33 139.006C1182.64 146.327 1176.75 151.354 1168.6 156.039Z" stroke="url(#paint18_linear_41_2264)" stroke-miterlimit="22.9256"/>
<path d="M1206.07 54.6763C1199.04 64.7105 1191.96 74.7007 1184.79 84.6408C1190.83 85.3738 1196.27 85.4776 1202.35 82.2934C1194.44 87.3193 1190.25 85.1213 1184.1 85.598C1178.88 92.828 1173.61 100.037 1168.29 107.202C1177.85 110.042 1186.59 111.726 1197.27 108.23C1183.28 114.14 1177.17 109.524 1167.23 108.633C1162.35 115.197 1158.05 120.823 1153.07 127.322C1160.65 126.402 1174.51 133.44 1192.28 130.082C1172.99 135.024 1165.44 129.997 1152.2 128.537C1147.32 134.898 1142.39 141.226 1137.4 147.512C1149.63 151.133 1160.82 153.274 1174.48 148.799C1156.55 156.374 1148.69 150.471 1135.97 149.32C1126.62 161.066 1117.06 172.679 1107.26 184.117C1105.71 185.481 1103.52 184.053 1104.94 181.546C1115.61 169.572 1125.96 157.525 1136.02 145.415C1131.83 133.633 1124.48 127.311 1127.51 108.337C1126.44 122.542 1131.08 132.839 1137.4 143.743C1141.26 139.087 1145.07 134.422 1148.85 129.742C1146.09 117.185 1140.65 110.023 1143.67 90.7329C1142.33 105.336 1145.55 116.403 1150.03 128.272C1155.95 120.928 1161.77 113.57 1167.5 106.188C1164.28 96.6175 1158.25 91.8042 1160.66 76.6956C1159.82 87.9437 1163.56 96.043 1168.61 104.693L1168.4 105.028C1174.2 97.5505 1179.91 90.052 1185.55 82.5432C1182.94 76.9911 1178.98 74.4078 1179.44 65.0685C1179.68 72.0173 1182.52 76.7342 1186.19 81.6866C1192.92 72.7011 1199.55 63.697 1206.07 54.6763Z" fill="url(#paint19_linear_41_2264)"/>
</g>
<g clip-path="url(#clip11_41_2264)">
<path d="M333.628 160.604C341.422 168.988 349.011 170.548 359.405 173.539C360.958 173.939 370.478 176.13 371.079 176.064C372.343 176.762 373.68 181.22 374.471 183.166C376.444 188.008 382.935 204.658 385.772 206.192C386.18 206.078 386.65 206.024 387.049 205.627C387.761 204.908 387.581 204.763 387.292 204.18C387.287 204.005 381.436 192.217 380.891 190.994C378.517 185.578 375.894 180.554 373.995 174.885L377.211 170.57L381.106 165.277C383.403 161.721 386.144 158.475 388.251 154.854C394.838 143.566 394.568 138.506 393.426 125.433C393.141 124.063 392.823 122.343 392.394 121.072C389.533 113.22 387.256 107.385 382.877 100.104C381.863 98.4127 380.968 96.9624 379.846 95.2509C379.46 94.6555 378.905 94.0689 378.405 93.4401C371.551 84.7785 363.088 77.8784 354.195 71.3616C351.614 69.4726 348.936 67.694 346.374 65.8111L342.417 63.2426C339.03 61.1824 335.488 59.5646 332.389 57.0921C330.201 55.3471 329.493 53.1837 327.672 51.8664C326.76 53.8026 327.661 56.3987 327.253 58.6316C326.826 60.9574 326.065 62.6272 325.147 64.9672C320.819 75.9564 317.349 91.5724 315.711 102.874C314.421 111.744 314.555 119.437 316.289 126.977C317.208 130.963 318.453 134.882 319.814 138.502C323.079 147.174 327.229 153.72 333.628 160.604Z" stroke="url(#paint20_linear_41_2264)" stroke-miterlimit="22.9256"/>
<path d="M327.777 52.6931C331.528 64.3566 335.346 75.9949 339.256 87.6087C333.27 86.5246 328.045 85.0171 323.173 80.177C329.249 87.3171 333.898 86.4547 339.632 88.727C342.486 97.1777 345.386 105.621 348.353 114.039C338.38 113.926 329.532 112.952 320.363 106.457C331.981 116.237 339.185 113.633 348.944 115.719C351.668 123.433 354.105 130.075 356.942 137.756C349.977 134.638 334.655 137.266 318.675 128.808C335.638 139.228 344.34 136.658 357.42 139.175C360.203 146.695 363.04 154.195 365.949 161.675C353.197 161.521 341.876 160.26 330.147 151.948C345.042 164.485 354.291 161.166 366.787 163.827C372.247 177.811 377.943 191.729 383.927 205.552C385.005 207.313 387.523 206.597 386.909 203.783C380.25 189.19 373.922 174.622 367.892 160.081C375.373 150.063 384.267 146.196 386.979 127.174C383.8 141.06 376.328 149.527 367.064 158.075C364.756 152.487 362.487 146.903 360.261 141.316C366.614 130.136 373.921 124.9 376.741 105.58C373.703 119.926 367.362 129.549 359.568 139.562C356.085 130.798 352.704 122.05 349.403 113.302C355.31 105.111 362.489 102.293 364.653 87.1476C362.135 98.143 356.17 104.776 348.786 111.546L348.886 111.928C345.558 103.071 342.317 94.2198 339.149 85.38C343.286 80.8482 347.827 79.5487 350.148 70.4906C347.867 77.0588 343.764 80.7271 338.79 84.3725C335.013 73.7986 331.346 63.2396 327.777 52.6931Z" fill="url(#paint21_linear_41_2264)"/>
</g>
<g clip-path="url(#clip12_41_2264)">
<path d="M797.628 152.82C805.422 161.204 813.011 162.765 823.405 165.756C824.958 166.155 834.478 168.346 835.079 168.281C836.343 168.979 837.68 173.437 838.471 175.383C840.444 180.225 846.935 196.874 849.772 198.409C850.18 198.294 850.65 198.241 851.049 197.844C851.761 197.125 851.581 196.979 851.292 196.396C851.287 196.222 845.436 184.434 844.891 183.21C842.517 177.795 839.894 172.77 837.995 167.101L841.211 162.787L845.106 157.494C847.403 153.937 850.144 150.691 852.251 147.071C858.838 135.782 858.568 130.722 857.426 117.65C857.141 116.28 856.823 114.559 856.394 113.289C853.533 105.436 851.256 99.6017 846.877 92.3205C845.863 90.6293 844.968 89.179 843.846 87.4675C843.46 86.872 842.905 86.2854 842.405 85.6567C835.551 76.9951 827.088 70.0949 818.195 63.5782C815.614 61.6891 812.936 59.9106 810.374 58.0277L806.417 55.4592C803.03 53.3989 799.488 51.7812 796.389 49.3087C794.201 47.5636 793.493 45.4002 791.672 44.0829C790.76 46.0192 791.661 48.6153 791.253 50.8481C790.826 53.174 790.065 54.8438 789.147 57.1838C784.819 68.173 781.349 83.789 779.711 95.0904C778.421 103.96 778.555 111.654 780.289 119.193C781.208 123.18 782.453 127.098 783.814 130.718C787.079 139.391 791.229 145.937 797.628 152.82Z" stroke="url(#paint22_linear_41_2264)" stroke-miterlimit="22.9256"/>
<path d="M791.777 44.9097C795.528 56.5732 799.346 68.2114 803.256 79.8253C797.27 78.7411 792.045 77.2337 787.173 72.3936C793.249 79.5337 797.898 78.6712 803.632 80.9436C806.486 89.3943 809.386 97.8374 812.353 106.255C802.38 106.143 793.532 105.168 784.363 98.6732C795.981 108.454 803.185 105.85 812.944 107.935C815.668 115.649 818.105 122.292 820.942 129.973C813.977 126.855 798.655 129.483 782.675 121.025C799.638 131.445 808.34 128.875 821.42 131.392C824.203 138.911 827.04 146.412 829.949 153.892C817.197 153.738 805.876 152.477 794.147 144.165C809.042 156.701 818.291 153.383 830.787 156.043C836.247 170.028 841.943 183.946 847.927 197.769C849.005 199.53 851.523 198.814 850.909 196C844.25 181.406 837.922 166.839 831.892 152.298C839.373 142.28 848.267 138.413 850.979 119.39C847.8 133.276 840.328 141.744 831.064 150.292C828.756 144.704 826.487 139.119 824.261 133.532C830.614 122.353 837.921 117.116 840.741 97.7967C837.703 112.143 831.362 121.766 823.568 131.779C820.085 123.014 816.704 114.266 813.403 105.519C819.31 97.3275 826.489 94.5099 828.653 79.3642C826.135 90.3596 820.17 96.9921 812.786 103.763L812.886 104.144C809.558 95.2879 806.317 86.4363 803.149 77.5965C807.286 73.0647 811.827 71.7652 814.148 62.7072C811.867 69.2754 807.764 72.9437 802.79 76.589C799.013 66.0151 795.346 55.4561 791.777 44.9097Z" fill="url(#paint23_linear_41_2264)"/>
</g>
</g>
<defs>
<linearGradient id="paint0_linear_41_2264" x1="90.9422" y1="75.2441" x2="-39.9238" y2="119.109" gradientUnits="userSpaceOnUse">
<stop offset="0.322917" stop-color="#00BD8D"/>
<stop offset="1" stop-color="#00392D"/>
</linearGradient>
<linearGradient id="paint1_linear_41_2264" x1="90.6138" y1="76.0561" x2="-39.5014" y2="119.669" gradientUnits="userSpaceOnUse">
<stop offset="0.322917" stop-color="#00BD8D"/>
<stop offset="1" stop-color="#00392D"/>
</linearGradient>
<linearGradient id="paint2_linear_41_2264" x1="527.271" y1="90.6978" x2="410.193" y2="163.793" gradientUnits="userSpaceOnUse">
<stop offset="0.322917" stop-color="#00BD8D"/>
<stop offset="1" stop-color="#00392D"/>
</linearGradient>
<linearGradient id="paint3_linear_41_2264" x1="527.141" y1="91.5637" x2="410.736" y2="164.24" gradientUnits="userSpaceOnUse">
<stop offset="0.322917" stop-color="#00BD8D"/>
<stop offset="1" stop-color="#00392D"/>
</linearGradient>
<linearGradient id="paint4_linear_41_2264" x1="78.1815" y1="81.9796" x2="195.736" y2="154.305" gradientUnits="userSpaceOnUse">
<stop offset="0.322917" stop-color="#00BD8D"/>
<stop offset="1" stop-color="#00392D"/>
</linearGradient>
<linearGradient id="paint5_linear_41_2264" x1="78.3164" y1="82.8446" x2="195.197" y2="154.755" gradientUnits="userSpaceOnUse">
<stop offset="0.322917" stop-color="#00BD8D"/>
<stop offset="1" stop-color="#00392D"/>
</linearGradient>
<linearGradient id="paint6_linear_41_2264" x1="631.683" y1="92.384" x2="513.758" y2="164.103" gradientUnits="userSpaceOnUse">
<stop offset="0.322917" stop-color="#00BD8D"/>
<stop offset="1" stop-color="#00392D"/>
</linearGradient>
<linearGradient id="paint7_linear_41_2264" x1="631.545" y1="93.2481" x2="514.296" y2="164.555" gradientUnits="userSpaceOnUse">
<stop offset="0.322917" stop-color="#00BD8D"/>
<stop offset="1" stop-color="#00392D"/>
</linearGradient>
<linearGradient id="paint8_linear_41_2264" x1="1095.68" y1="84.6005" x2="977.758" y2="156.319" gradientUnits="userSpaceOnUse">
<stop offset="0.322917" stop-color="#00BD8D"/>
<stop offset="1" stop-color="#00392D"/>
</linearGradient>
<linearGradient id="paint9_linear_41_2264" x1="1095.54" y1="85.4646" x2="978.296" y2="156.772" gradientUnits="userSpaceOnUse">
<stop offset="0.322917" stop-color="#00BD8D"/>
<stop offset="1" stop-color="#00392D"/>
</linearGradient>
<linearGradient id="paint10_linear_41_2264" x1="963.292" y1="67.2946" x2="876.53" y2="174.637" gradientUnits="userSpaceOnUse">
<stop offset="0.322917" stop-color="#00BD8D"/>
<stop offset="1" stop-color="#00392D"/>
</linearGradient>
<linearGradient id="paint11_linear_41_2264" x1="963.451" y1="68.1551" x2="877.187" y2="174.882" gradientUnits="userSpaceOnUse">
<stop offset="0.322917" stop-color="#00BD8D"/>
<stop offset="1" stop-color="#00392D"/>
</linearGradient>
<linearGradient id="paint12_linear_41_2264" x1="1285.99" y1="41.4082" x2="1236.07" y2="170.084" gradientUnits="userSpaceOnUse">
<stop offset="0.322917" stop-color="#00BD8D"/>
<stop offset="1" stop-color="#00392D"/>
</linearGradient>
<linearGradient id="paint13_linear_41_2264" x1="1286.41" y1="42.1788" x2="1236.77" y2="170.116" gradientUnits="userSpaceOnUse">
<stop offset="0.322917" stop-color="#00BD8D"/>
<stop offset="1" stop-color="#00392D"/>
</linearGradient>
<linearGradient id="paint14_linear_41_2264" x1="289.942" y1="99.2441" x2="159.076" y2="143.109" gradientUnits="userSpaceOnUse">
<stop offset="0.322917" stop-color="#00BD8D"/>
<stop offset="1" stop-color="#00392D"/>
</linearGradient>
<linearGradient id="paint15_linear_41_2264" x1="289.614" y1="100.056" x2="159.499" y2="143.67" gradientUnits="userSpaceOnUse">
<stop offset="0.322917" stop-color="#00BD8D"/>
<stop offset="1" stop-color="#00392D"/>
</linearGradient>
<linearGradient id="paint16_linear_41_2264" x1="761.942" y1="99.4606" x2="631.076" y2="143.326" gradientUnits="userSpaceOnUse">
<stop offset="0.322917" stop-color="#00BD8D"/>
<stop offset="1" stop-color="#00392D"/>
</linearGradient>
<linearGradient id="paint17_linear_41_2264" x1="761.614" y1="100.273" x2="631.499" y2="143.886" gradientUnits="userSpaceOnUse">
<stop offset="0.322917" stop-color="#00BD8D"/>
<stop offset="1" stop-color="#00392D"/>
</linearGradient>
<linearGradient id="paint18_linear_41_2264" x1="1220.94" y1="97.2441" x2="1090.08" y2="141.109" gradientUnits="userSpaceOnUse">
<stop offset="0.322917" stop-color="#00BD8D"/>
<stop offset="1" stop-color="#00392D"/>
</linearGradient>
<linearGradient id="paint19_linear_41_2264" x1="1220.61" y1="98.0561" x2="1090.5" y2="141.669" gradientUnits="userSpaceOnUse">
<stop offset="0.322917" stop-color="#00BD8D"/>
<stop offset="1" stop-color="#00392D"/>
</linearGradient>
<linearGradient id="paint20_linear_41_2264" x1="300.995" y1="88.9666" x2="413.055" y2="169.543" gradientUnits="userSpaceOnUse">
<stop offset="0.322917" stop-color="#00BD8D"/>
<stop offset="1" stop-color="#00392D"/>
</linearGradient>
<linearGradient id="paint21_linear_41_2264" x1="301.067" y1="89.839" x2="412.484" y2="169.954" gradientUnits="userSpaceOnUse">
<stop offset="0.322917" stop-color="#00BD8D"/>
<stop offset="1" stop-color="#00392D"/>
</linearGradient>
<linearGradient id="paint22_linear_41_2264" x1="764.995" y1="81.1832" x2="877.055" y2="161.76" gradientUnits="userSpaceOnUse">
<stop offset="0.322917" stop-color="#00BD8D"/>
<stop offset="1" stop-color="#00392D"/>
</linearGradient>
<linearGradient id="paint23_linear_41_2264" x1="765.067" y1="82.0556" x2="876.484" y2="162.17" gradientUnits="userSpaceOnUse">
<stop offset="0.322917" stop-color="#00BD8D"/>
<stop offset="1" stop-color="#00392D"/>
</linearGradient>
<clipPath id="clip0_41_2264">
<rect width="1288" height="122" rx="30" fill="white"/>
</clipPath>
<clipPath id="clip1_41_2264">
<rect width="93" height="139.5" fill="white" transform="matrix(-0.317812 -0.948154 -0.948154 0.317812 106.824 118.178)"/>
</clipPath>
<clipPath id="clip2_41_2264">
<rect width="93" height="139.5" fill="white" transform="matrix(-0.529592 -0.848252 -0.848252 0.529592 552.703 128.761)"/>
</clipPath>
<clipPath id="clip3_41_2264">
<rect width="93" height="139.5" fill="white" transform="translate(53 120.209) rotate(-58.398)"/>
</clipPath>
<clipPath id="clip4_41_2264">
<rect width="93" height="139.5" fill="white" transform="matrix(-0.519617 -0.854399 -0.854399 0.519617 656.668 130.743)"/>
</clipPath>
<clipPath id="clip5_41_2264">
<rect width="93" height="139.5" fill="white" transform="matrix(-0.519617 -0.854399 -0.854399 0.519617 1120.67 122.959)"/>
</clipPath>
<clipPath id="clip6_41_2264">
<rect width="93" height="139.5" fill="white" transform="matrix(-0.777722 -0.628608 -0.628608 0.777722 999.766 94.957)"/>
</clipPath>
<clipPath id="clip7_41_2264">
<rect width="93" height="139.5" fill="white" transform="matrix(-0.932284 -0.361727 -0.361727 0.932284 1329.16 56.6406)"/>
</clipPath>
<clipPath id="clip8_41_2264">
<rect width="93" height="139.5" fill="white" transform="matrix(-0.317812 -0.948154 -0.948154 0.317812 305.824 142.178)"/>
</clipPath>
<clipPath id="clip9_41_2264">
<rect width="93" height="139.5" fill="white" transform="matrix(-0.317812 -0.948154 -0.948154 0.317812 777.824 142.395)"/>
</clipPath>
<clipPath id="clip10_41_2264">
<rect width="93" height="139.5" fill="white" transform="matrix(-0.317812 -0.948154 -0.948154 0.317812 1236.82 140.178)"/>
</clipPath>
<clipPath id="clip11_41_2264">
<rect width="93" height="139.5" fill="white" transform="translate(273.135 125.29) rotate(-54.2819)"/>
</clipPath>
<clipPath id="clip12_41_2264">
<rect width="93" height="139.5" fill="white" transform="translate(737.135 117.507) rotate(-54.2819)"/>
</clipPath>
</defs>
</svg>
