<svg width="305" height="442" viewBox="0 0 305 442" fill="none" xmlns="http://www.w3.org/2000/svg">
<circle cx="206.5" cy="74.5" r="5.5" fill="white" fill-opacity="0.72"/>
<circle cx="247" cy="64" r="9" fill="white" fill-opacity="0.72"/>
<circle cx="234.5" cy="15.5" r="15.5" fill="white" fill-opacity="0.72"/>
<circle cx="294.5" cy="14.5" r="5.5" fill="white" fill-opacity="0.72"/>
<circle cx="234" cy="111" r="11" fill="white" fill-opacity="0.72"/>
<path fill-rule="evenodd" clip-rule="evenodd" d="M56.4856 104C56.7405 104.162 57.0187 104.325 57.2736 104.487C71.6906 113.211 87.2432 120.495 101.22 129.706C106.064 132.908 110.723 136.341 115.08 140.146C117.445 142.211 119.716 144.392 121.895 146.712C124.468 149.473 126.901 152.442 128.454 155.876C129.775 158.822 130.424 162.047 130.911 165.249C131.212 167.221 131.444 169.17 131.56 171.142C131.746 173.81 131.676 176.478 131.259 179.099C130.888 181.373 130.285 183.623 129.52 185.851H116.471L116.332 185.317C113.69 175.921 112.253 165.597 107.2 157.129C105.763 154.716 104.001 152.512 102.054 150.493C100.663 149.009 99.18 147.617 97.6503 146.271C95.0775 144.02 92.412 141.863 89.3292 140.355C85.7134 138.615 81.7731 137.826 77.8096 137.339C74.611 136.944 71.3892 136.712 68.1675 136.643C63.6013 136.55 59.0352 136.736 54.4691 137.13C54.4459 135.367 54.4691 133.604 54.4923 131.84C54.6777 122.56 55.4194 113.257 56.4856 104Z" fill="white"/>
<path fill-rule="evenodd" clip-rule="evenodd" d="M0 148.521C0.301318 148.475 0.625814 148.429 0.927132 148.382L0.996667 148.359L1.0662 148.336L1.13574 148.313L1.20527 148.289L1.27481 148.266L1.34434 148.243L1.41388 148.22L1.48341 148.197L1.55295 148.173L1.62248 148.15L1.69202 148.127L1.76155 148.104L1.83109 148.081L1.90062 148.057L1.97016 148.034L2.31783 148.15L2.38737 148.127H2.4569L2.52644 148.104L2.59597 148.081H2.71186H2.80458L2.87411 148.057L2.94364 148.034L3.01318 148.011L3.08271 147.988L3.15225 147.965H3.22178L3.29132 147.941L3.36085 147.918L3.43039 147.895L3.49992 147.872L3.56946 147.849L3.63899 147.825L3.70853 147.802L3.77806 147.779L3.8476 147.756H3.91713H3.94031L4.00985 147.733L4.07938 147.709L4.14892 147.686L4.21845 147.663L4.28799 147.64L4.35752 147.617L4.42706 147.593L4.49659 147.57L4.56613 147.547H4.61248H4.63566L4.7052 147.524C20.0029 144.925 35.3006 141.051 50.5982 139.311C56.3696 138.661 62.141 138.313 67.9124 138.429C71.0647 138.499 74.1938 138.708 77.346 139.102C81.0777 139.566 84.8558 140.285 88.2398 141.933C91.1603 143.348 93.6867 145.389 96.1204 147.547C97.6038 148.869 99.0641 150.215 100.408 151.653C102.263 153.579 103.908 155.667 105.276 157.964C110.12 166.084 111.65 176.64 114.2 185.688H105.461C104.349 184.853 103.167 184.111 102.216 183.415C98.8555 181.002 95.3092 178.844 91.7397 176.779C84.879 172.812 77.7632 169.262 70.462 166.13C63.1841 163.022 55.6743 160.307 48.0486 158.196C40.4693 156.085 32.5887 154.159 24.7081 153.997C24.4299 153.997 24.3836 154.368 24.6385 154.461C32.1251 156.874 39.8203 158.428 47.3301 160.771C54.7935 163.091 62.141 165.736 69.3031 168.822C76.4652 171.907 83.4419 175.434 90.21 179.355C93.6172 181.327 96.9548 183.415 100.269 185.503L100.524 185.665H44.5487V197.567C43.6679 197.08 42.8103 196.592 41.9527 196.059C40.5157 195.154 39.125 194.18 37.7806 193.136C34.6284 190.7 31.7079 187.962 28.9033 185.131C28.5325 184.76 28.1616 184.366 27.7908 183.971C23.7578 179.795 19.9565 175.457 16.3407 170.933C10.4998 163.903 5.12241 156.294 0 148.521Z" fill="white"/>
<path d="M243.846 198.229V416.775C243.846 426.334 236.012 434.175 226.462 434.175H74.8759C65.3265 434.175 57.4922 426.334 57.4922 416.775V198.229H243.846Z" stroke="white" stroke-width="15" stroke-miterlimit="22.9256"/>
<path d="M238.747 410.859H61.3167V429.072H238.747V410.859Z" fill="white"/>
<path fill-rule="evenodd" clip-rule="evenodd" d="M174.496 319.984L185.761 295.995C187.105 293.118 190.582 291.865 193.456 293.211L217.423 304.486C220.297 305.832 221.548 309.312 220.204 312.189L208.939 336.178C207.595 339.055 204.118 340.307 201.244 338.962L177.278 327.686C174.404 326.341 173.152 322.884 174.496 319.984ZM109.898 368.612L128.742 349.959C131.014 347.708 134.676 347.731 136.924 350.005L155.56 368.867C157.808 371.141 157.785 374.806 155.513 377.057L136.669 395.71C134.398 397.96 130.736 397.937 128.487 395.663L109.852 376.801C107.604 374.528 107.627 370.839 109.898 368.612ZM102.968 321.747C108.392 321.747 112.796 326.155 112.796 331.584C112.796 337.013 108.392 341.421 102.968 341.421C97.5443 341.421 93.1404 337.013 93.1404 331.584C93.1404 326.155 97.5443 321.747 102.968 321.747ZM165.202 338.289C170.626 338.289 175.029 342.697 175.029 348.126C175.029 353.555 170.626 357.963 165.202 357.963C159.778 357.963 155.374 353.555 155.374 348.126C155.374 342.697 159.778 338.289 165.202 338.289ZM208.661 377.822C212.045 377.822 214.78 380.56 214.78 383.947C214.78 387.334 212.045 390.072 208.661 390.072C205.277 390.072 202.542 387.334 202.542 383.947C202.519 380.583 205.277 377.822 208.661 377.822ZM70.1012 254.327C99.4449 308.685 128.58 303.28 154.772 292.028L153.566 295.716L139.914 334.693L153.937 337.083L170.672 287.364C191.741 276.437 211.512 266.02 229.684 282.84V403.946H70.1012C70.1012 354.088 70.1012 304.208 70.1012 254.327Z" fill="white"/>
<path d="M161.841 292.375L205.045 159.298C208.429 148.533 214.433 142.617 226.694 145.773L302.186 172.406" stroke="white" stroke-width="15" stroke-miterlimit="22.9256"/>
</svg>
