<svg width="382" height="510" viewBox="0 0 382 510" fill="none" xmlns="http://www.w3.org/2000/svg">
<g clip-path="url(#clip0_152_1700)">
<path fill-rule="evenodd" clip-rule="evenodd" d="M313.625 161.041C315.039 160.704 316.723 160.573 318.107 160.312C320.359 159.887 322.454 159.532 324.742 159.362L329.027 158.951C333.396 158.522 338.834 158.355 342.977 159.384C344.02 159.643 345.693 160.308 345.981 161.515C346.528 163.807 340.397 167.176 338.711 168.056C334.679 170.156 329.872 171.922 325.336 173.68C324.883 173.857 324.33 174.074 323.918 174.184C321.346 174.862 319.131 175.908 316.521 176.513C315.472 176.756 314.649 177.199 313.57 177.449C312.534 177.69 311.365 177.884 310.422 178.265C309.499 178.639 308.257 178.835 307.254 179.067C306.563 179.227 306.348 179.384 305.782 179.538C303.072 180.272 300.469 180.68 297.693 181.354C297.007 181.52 296.792 181.456 296.17 181.596C295.659 181.713 295.067 181.902 294.558 181.98C294.036 182.059 293.696 182.076 293.027 182.238C290.706 182.801 287.569 183.175 285.156 183.555C283.12 183.876 281.041 184.223 279.044 184.403C275.267 184.741 271.322 185.106 267.542 185.064C265.087 185.036 258.549 184.771 257.984 182.403C257.808 181.666 258.053 181.168 258.39 180.725C261.767 176.29 272.52 172.28 277.51 170.468L285.885 167.547L313.625 161.041ZM283.305 165.773C282.344 166.002 279.817 167.014 278.468 167.382C277.598 167.62 276.899 167.927 276.052 168.191C272.186 169.394 268.291 171.032 264.609 172.711C261.004 174.353 253.446 177.94 251.971 181.087C251.428 182.249 251.766 183.471 252.066 184.728C252.579 186.879 253.409 188.733 253.96 190.765C254.218 191.71 254.66 192.919 254.979 193.744C256.719 198.25 258.79 202.885 261.041 206.899C264.103 212.362 268.121 218.375 272.415 222.912C272.648 223.157 273.124 223.616 273.239 223.961C272.714 224.424 271.898 224.911 271.295 225.335L269.321 226.783C267.431 228.158 265.801 229.791 264.343 231.614C264.051 231.976 263.966 232.187 263.714 232.512C263.349 232.98 263.408 233.044 263.116 233.523C261.67 235.905 261.765 239.205 263.864 241.208C265.715 242.972 267.869 243.833 270.26 244.689L271.739 245.115C273.683 245.635 275.859 246.001 277.873 246.182L284.502 246.588C289.966 246.865 296.703 246.202 302.166 245.601C304.569 245.336 307.726 244.63 309.742 244.459C311.926 244.276 328.414 240.278 330.786 239.324C331.256 239.134 332.192 238.83 332.617 238.708C337.512 237.284 342.044 235.433 346.65 233.487C352.665 230.946 358.967 227.484 363.946 223.298C368.327 219.614 373.114 213.454 366.757 208.733C363.855 206.58 358.999 205.549 355.473 205.145L352.914 204.831C352.795 204.046 353.455 202.776 353.636 201.968C353.72 201.589 353.723 201.317 353.811 200.974C354.901 200.969 356.094 200.542 357.165 200.286C361.364 199.284 365.752 196.024 368.371 192.863C371.705 188.843 374.419 182.669 373.097 177.129C372.377 174.113 371.285 172.199 369.117 170.156C368.348 169.431 367.434 168.896 366.498 168.441C363.288 166.881 359.585 166.749 356.069 167.653C354.907 167.951 355.151 167.713 355.063 166.654C354.9 164.684 354.13 160.374 353.416 158.361C352.61 156.08 348.327 155.652 346.287 155.477C340.227 154.959 334.059 155.509 328.039 156.224C325.244 156.556 322.46 156.857 319.687 157.434C319.219 157.532 318.829 157.558 318.272 157.645C316.914 157.859 315.441 157.988 314.001 158.331L283.305 165.773ZM355.001 194.542C356.246 189.692 355.918 180.953 355.774 175.637C355.762 175.161 355.641 174.579 356.112 174.467C358.749 173.837 361.792 174.699 363.76 176.204C364.891 177.071 365.581 178.196 366.123 179.543C366.621 180.784 366.303 182.883 366.068 183.819C364.827 188.721 359.674 193.427 355.001 194.542ZM281.52 231.548C281.941 231.705 282.501 232.468 284.903 233.361C288.378 234.651 293.921 234.824 297.57 234.691C298.274 234.665 299.039 234.644 299.82 234.611C300.526 234.581 301.458 234.551 302.206 234.458L307.102 233.802C308.734 233.658 310.551 233.137 312.094 232.985L318.22 231.67C325.884 229.841 338.402 225.281 344.414 220.258C345.917 219 347.087 217.744 347.981 216.028C348.233 216.795 348.161 215.829 348.607 217.699C349.352 220.819 343.703 224.944 341.531 226.29C338.95 227.887 336.689 229.034 333.851 230.281C332.366 230.934 331.076 231.387 329.493 232.004C328.756 232.29 327.951 232.526 327.307 232.769C325.883 233.312 321.823 234.566 320.144 234.966C314.603 236.289 310.825 237.262 305.092 237.828C299.109 238.42 288.252 239.356 282.95 235.501C282.494 235.168 281.856 234.433 281.597 233.808C281.248 232.974 281.326 232.309 281.52 231.548Z" stroke="url(#paint0_linear_152_1700)" stroke-width="1.2"/>
<path fill-rule="evenodd" clip-rule="evenodd" d="M173.517 108.254C174.963 108.398 176.597 108.826 177.99 109.032C180.258 109.367 182.354 109.717 184.571 110.306L188.754 111.32C193.024 112.344 198.217 113.966 201.794 116.295C202.695 116.881 204.059 118.057 203.936 119.291C203.703 121.636 196.806 122.813 194.925 123.093C190.428 123.758 185.308 123.853 180.446 124.03C179.96 124.049 179.367 124.073 178.942 124.042C176.289 123.841 173.854 124.105 171.189 123.822C170.118 123.708 169.196 123.857 168.094 123.741C167.037 123.629 165.869 123.43 164.853 123.481C163.858 123.533 162.621 123.311 161.597 123.202C160.892 123.128 160.637 123.206 160.052 123.166C157.251 122.972 154.658 122.506 151.815 122.234C151.111 122.166 150.929 122.036 150.296 121.964C149.775 121.908 149.153 121.893 148.647 121.8C148.128 121.703 147.802 121.608 147.116 121.542C144.739 121.315 141.651 120.641 139.247 120.211C137.218 119.848 135.14 119.495 133.194 119.012C129.515 118.095 125.668 117.149 122.109 115.872C119.799 115.042 113.707 112.652 113.948 110.23C114.023 109.476 114.418 109.086 114.881 108.777C119.524 105.691 130.997 105.421 136.306 105.342L145.175 105.324L173.517 108.254ZM143.318 102.802C142.335 102.705 139.616 102.834 138.22 102.74C137.321 102.68 136.56 102.741 135.673 102.714C131.626 102.585 127.409 102.858 123.381 103.239C119.437 103.611 111.121 104.527 108.698 107.018C107.804 107.938 107.723 109.204 107.595 110.49C107.376 112.69 107.554 114.714 107.41 116.814C107.344 117.791 107.366 119.079 107.397 119.962C107.567 124.789 108.007 129.848 108.82 134.377C109.926 140.542 111.755 147.538 114.328 153.231C114.467 153.539 114.767 154.128 114.762 154.492C114.115 154.757 113.184 154.95 112.476 155.154L110.137 155.876C107.9 156.557 105.826 157.566 103.852 158.812C103.458 159.058 103.308 159.23 102.963 159.454C102.465 159.777 102.5 159.857 102.068 160.214C99.9217 161.991 98.9318 165.141 100.259 167.72C101.431 169.993 103.185 171.511 105.164 173.103L106.422 173.99C108.089 175.117 110.025 176.175 111.869 177.005L118.001 179.558C123.073 181.609 129.655 183.187 135.014 184.407C137.372 184.943 140.586 185.309 142.546 185.808C144.67 186.349 161.559 187.968 164.112 187.842C164.619 187.816 165.603 187.835 166.044 187.859C171.136 188.116 176.024 187.85 181.013 187.519C187.529 187.086 194.617 185.877 200.691 183.551C206.037 181.504 212.576 177.25 208.114 170.708C206.076 167.724 201.825 165.161 198.626 163.625L196.311 162.491C196.455 161.71 197.494 160.726 197.93 160.021C198.133 159.691 198.225 159.435 198.42 159.14C199.452 159.492 200.719 159.479 201.815 159.588C206.11 160.015 211.324 158.37 214.833 156.241C219.299 153.533 223.884 148.588 224.448 142.919C224.755 139.834 224.35 137.668 222.97 135.028C222.48 134.092 221.792 133.287 221.056 132.551C218.534 130.026 215.078 128.689 211.46 128.393C210.264 128.294 210.572 128.149 210.836 127.12C211.326 125.205 212.009 120.88 211.993 118.744C211.978 116.326 208.072 114.519 206.201 113.686C200.644 111.213 194.636 109.714 188.713 108.42C185.964 107.818 183.234 107.192 180.425 106.83C179.951 106.769 179.574 106.666 179.019 106.566C177.666 106.324 176.232 105.963 174.759 105.817L143.318 102.802ZM201.65 153.451C204.413 149.276 206.964 140.911 208.568 135.84C208.712 135.387 208.788 134.797 209.27 134.845C211.967 135.113 214.561 136.924 215.928 138.99C216.713 140.18 216.997 141.468 217.068 142.918C217.132 144.254 216.146 146.133 215.617 146.941C212.84 151.167 206.431 153.927 201.65 153.451ZM120.105 164.371C120.45 164.657 120.73 165.561 122.708 167.191C125.57 169.547 130.75 171.525 134.242 172.594C134.916 172.8 135.646 173.03 136.394 173.255C137.071 173.457 137.962 173.734 138.699 173.891L143.54 174.873C145.129 175.271 147.016 175.374 148.524 175.735L154.744 176.497C162.584 177.277 175.905 177.065 183.229 174.286C185.062 173.59 186.578 172.786 187.985 171.457C187.972 172.264 188.22 171.327 188.029 173.24C187.712 176.433 181.024 178.482 178.531 179.043C175.57 179.707 173.058 180.051 169.968 180.301C168.351 180.432 166.984 180.437 165.286 180.502C164.496 180.532 163.658 180.491 162.971 180.51C161.447 180.556 157.2 180.413 155.483 180.242C149.814 179.678 145.925 179.361 140.323 178.02C134.476 176.62 123.911 173.952 120.162 168.574C119.84 168.11 119.478 167.207 119.437 166.531C119.381 165.629 119.672 165.027 120.105 164.371Z" stroke="url(#paint1_linear_152_1700)" stroke-width="1.2"/>
<path fill-rule="evenodd" clip-rule="evenodd" d="M0.517014 247.254C1.96349 247.398 3.59684 247.826 4.99009 248.032C7.25767 248.367 9.35355 248.717 11.5713 249.306L15.7543 250.32C20.0235 251.344 25.2169 252.966 28.7942 255.295C29.6948 255.881 31.0588 257.057 30.936 258.291C30.7028 260.636 23.8062 261.813 21.9254 262.093C17.4277 262.758 12.3077 262.853 7.44624 263.03C6.9604 263.049 6.36652 263.073 5.94168 263.042C3.28878 262.841 0.854095 263.105 -1.8108 262.822C-2.88168 262.708 -3.80386 262.857 -4.9058 262.741C-5.96337 262.629 -7.131 262.43 -8.1466 262.481C-9.14201 262.533 -10.3791 262.311 -11.4034 262.202C-12.1084 262.128 -12.3626 262.206 -12.9479 262.166C-15.7494 261.972 -18.3423 261.506 -21.1853 261.234C-21.8888 261.166 -22.0707 261.036 -22.7044 260.964C-23.2253 260.908 -23.8467 260.893 -24.3527 260.8C-24.8719 260.703 -25.1984 260.608 -25.8842 260.542C-28.2611 260.315 -31.3487 259.641 -33.7526 259.211C-35.7821 258.848 -37.8598 258.495 -39.8057 258.012C-43.4853 257.095 -47.3322 256.149 -50.8907 254.872C-53.201 254.042 -59.2927 251.652 -59.0518 249.23C-58.9767 248.476 -58.5817 248.086 -58.1186 247.777C-53.4764 244.691 -42.0031 244.421 -36.6943 244.342L-27.8247 244.324L0.517014 247.254ZM-29.6822 241.802C-30.665 241.705 -33.3844 241.834 -34.7798 241.74C-35.679 241.68 -36.4401 241.741 -37.3268 241.714C-41.3738 241.585 -45.5906 241.858 -49.6187 242.239C-53.5631 242.611 -61.879 243.527 -64.3022 246.018C-65.1957 246.938 -65.2768 248.204 -65.4047 249.49C-65.6235 251.69 -65.4461 253.714 -65.59 255.814C-65.6558 256.791 -65.6337 258.079 -65.6029 258.962C-65.4332 263.789 -64.993 268.848 -64.1798 273.377C-63.0745 279.542 -61.2452 286.538 -58.6725 292.231C-58.5328 292.539 -58.233 293.128 -58.2377 293.492C-58.8848 293.757 -59.8158 293.95 -60.5239 294.154L-62.8631 294.876C-65.0995 295.557 -67.1738 296.566 -69.1483 297.812C-69.5424 298.058 -69.6917 298.23 -70.0366 298.454C-70.5348 298.777 -70.5002 298.857 -70.9322 299.214C-73.0783 300.991 -74.0682 304.141 -72.7407 306.72C-71.5687 308.993 -69.8153 310.511 -67.8362 312.103L-66.5778 312.99C-64.911 314.117 -62.9751 315.175 -61.1309 316.005L-54.9995 318.558C-49.9271 320.609 -43.3447 322.187 -37.9859 323.407C-35.6284 323.943 -32.414 324.309 -30.4538 324.808C-28.3299 325.349 -11.441 326.968 -8.88781 326.842C-8.38112 326.816 -7.39722 326.835 -6.95596 326.859C-1.8643 327.116 3.02401 326.85 8.0128 326.519C14.5285 326.086 21.6166 324.877 27.691 322.551C33.0365 320.504 39.5761 316.25 35.1139 309.708C33.0761 306.724 28.8254 304.161 25.6264 302.625L23.3105 301.491C23.4554 300.71 24.4942 299.726 24.9295 299.021C25.1327 298.691 25.2253 298.435 25.4205 298.14C26.4519 298.492 27.7191 298.479 28.8151 298.588C33.1101 299.015 38.3237 297.37 41.8334 295.241C46.2991 292.533 50.8842 287.588 51.4479 281.919C51.7548 278.834 51.3496 276.668 49.9699 274.028C49.4804 273.092 48.792 272.287 48.0564 271.551C45.5338 269.026 42.0775 267.689 38.4595 267.393C37.264 267.294 37.5719 267.149 37.8356 266.12C38.3262 264.205 39.0095 259.88 38.9933 257.744C38.9785 255.326 35.0715 253.519 33.2007 252.686C27.6439 250.213 21.6361 248.714 15.7133 247.42C12.9636 246.818 10.2343 246.192 7.42492 245.83C6.95148 245.769 6.57409 245.666 6.01945 245.566C4.66568 245.324 3.23179 244.963 1.75869 244.817L-29.6822 241.802ZM28.6501 292.451C31.4134 288.276 33.9637 279.911 35.568 274.84C35.7117 274.387 35.7883 273.797 36.2697 273.845C38.9674 274.113 41.5611 275.924 42.9284 277.99C43.713 279.18 43.9971 280.468 44.068 281.918C44.1323 283.254 43.1456 285.133 42.6171 285.941C39.8399 290.167 33.431 292.927 28.6501 292.451ZM-52.8954 303.371C-52.5497 303.657 -52.2699 304.561 -50.2924 306.191C-47.4304 308.547 -42.25 310.525 -38.758 311.594C-38.084 311.8 -37.3541 312.03 -36.6057 312.255C-35.929 312.457 -35.038 312.734 -34.3008 312.891L-29.4605 313.873C-27.8713 314.271 -25.9838 314.374 -24.476 314.735L-18.2561 315.497C-10.4159 316.277 2.90461 316.065 10.2294 313.286C12.0619 312.59 13.578 311.786 14.9851 310.457C14.972 311.264 15.2197 310.327 15.0295 312.24C14.712 315.433 8.02432 317.482 5.53092 318.043C2.57011 318.707 0.0580244 319.051 -3.03178 319.301C-4.64901 319.432 -6.01625 319.437 -7.71424 319.502C-8.50356 319.532 -9.34193 319.491 -10.0294 319.51C-11.5531 319.556 -15.8001 319.413 -17.5173 319.242C-23.1856 318.678 -27.0749 318.361 -32.6771 317.02C-38.5244 315.62 -49.0895 312.952 -52.8384 307.574C-53.1597 307.11 -53.5225 306.207 -53.5628 305.531C-53.6187 304.629 -53.3281 304.027 -52.8954 303.371Z" stroke="url(#paint2_linear_152_1700)" stroke-width="1.2"/>
<path fill-rule="evenodd" clip-rule="evenodd" d="M35.4998 364.283C36.8725 363.805 38.5341 363.506 39.8847 363.106C42.083 362.457 44.1315 361.892 46.3912 361.493L50.6123 360.653C54.9163 359.786 60.31 359.072 64.5349 359.679C65.5985 359.831 67.3307 360.324 67.7388 361.496C68.5139 363.721 62.7526 367.691 61.1644 368.736C57.364 371.232 52.7594 373.473 48.4237 375.679C47.991 375.901 47.4624 376.172 47.064 376.323C44.5728 377.257 42.475 378.52 39.9384 379.385C38.9193 379.733 38.1453 380.256 37.0967 380.614C36.0902 380.957 34.9471 381.268 34.0476 381.742C33.1663 382.208 31.9507 382.527 30.9758 382.86C30.3048 383.089 30.1071 383.266 29.5592 383.476C26.9365 384.48 24.3879 385.147 21.6946 386.097C21.0279 386.332 20.808 386.29 20.2029 386.491C19.7066 386.659 19.1368 386.908 18.6386 387.036C18.127 387.167 17.7906 387.218 17.1407 387.447C14.8888 388.24 11.8045 388.929 9.44293 389.55C7.4488 390.074 5.41561 390.629 3.44694 391.009C-0.276617 391.726 -4.1646 392.486 -7.93023 392.825C-10.3751 393.044 -16.9068 393.44 -17.7076 391.141C-17.9569 390.425 -17.7626 389.905 -17.4725 389.43C-14.5597 384.677 -4.26509 379.605 0.51773 377.3L8.556 373.55L35.4998 364.283ZM5.81001 372.045C4.87732 372.37 2.4649 373.631 1.15952 374.133C0.318501 374.457 -0.346159 374.833 -1.16215 375.181C-4.88741 376.768 -8.598 378.789 -12.0918 380.83C-15.5136 382.827 -22.6718 387.157 -23.8219 390.437C-24.2455 391.647 -23.7864 392.83 -23.3613 394.05C-22.634 396.138 -21.6215 397.899 -20.8684 399.865C-20.5169 400.779 -19.9552 401.938 -19.5553 402.726C-17.3703 407.034 -14.8425 411.437 -12.1989 415.204C-8.60221 420.331 -3.99897 425.908 0.73035 429.99C0.986697 430.211 1.50667 430.619 1.65528 430.951C1.18019 431.464 0.41669 432.031 -0.139949 432.514L-1.95807 434.153C-3.70047 435.712 -5.15747 437.5 -6.42441 439.461C-6.6784 439.85 -6.74158 440.069 -6.96019 440.417C-7.27604 440.92 -7.21103 440.978 -7.45279 441.484C-8.65187 443.999 -8.22432 447.273 -5.93496 449.054C-3.91521 450.623 -1.68585 451.262 0.779378 451.874L2.29402 452.149C4.28046 452.47 6.4816 452.615 8.50404 452.592L15.1405 452.328C20.6047 452.054 27.24 450.715 32.6148 449.568C34.9788 449.061 38.0492 448.042 40.037 447.669C42.1915 447.266 58.1938 441.628 60.457 440.44C60.9057 440.203 61.8064 439.807 62.2166 439.642C66.9437 437.733 71.2661 435.434 75.6526 433.035C81.3813 429.901 87.3026 425.822 91.8345 421.156C95.8222 417.049 99.9645 410.438 93.1641 406.382C90.0599 404.532 85.1251 403.995 81.5768 403.948L78.999 403.894C78.8018 403.125 79.3301 401.795 79.4284 400.972C79.4737 400.587 79.4501 400.316 79.5029 399.966C80.5867 399.852 81.7307 399.306 82.7708 398.944C86.8468 397.524 90.8842 393.838 93.1722 390.43C96.0839 386.094 98.1625 379.679 96.2887 374.3C95.2687 371.371 93.9899 369.577 91.6274 367.763C90.7895 367.12 89.8261 366.679 88.8491 366.321C85.4984 365.092 81.8005 365.334 78.3935 366.587C77.2675 367 77.4859 366.739 77.2919 365.694C76.9312 363.751 75.7315 359.54 74.8181 357.61C73.7868 355.422 69.4825 355.427 67.4348 355.458C61.353 355.553 55.2725 356.721 49.3549 358.039C46.6074 358.651 43.8679 359.231 41.1668 360.084C40.7118 360.228 40.3263 360.294 39.781 360.437C38.4509 360.786 36.9984 361.063 35.6004 361.55L5.81001 372.045ZM80.0391 393.447C80.7887 388.496 79.5826 379.835 78.9043 374.56C78.844 374.088 78.6652 373.521 79.1221 373.362C81.6823 372.47 84.7969 373.021 86.9066 374.32C88.1191 375.069 88.9191 376.118 89.5933 377.404C90.2139 378.589 90.1094 380.709 89.97 381.664C89.2289 386.666 84.5762 391.866 80.0391 393.447ZM10.6588 437.665C11.0928 437.779 11.727 438.482 14.2068 439.128C17.7945 440.061 23.3262 439.676 26.9435 439.176C27.6418 439.079 28.4007 438.981 29.1742 438.87C29.8731 438.768 30.7981 438.645 31.5327 438.477L36.337 437.331C37.9463 437.024 39.7017 436.323 41.2214 436.016L47.1847 434.09C54.6251 431.498 66.6198 425.701 72.0954 420.098C73.4648 418.696 74.5018 417.328 75.2188 415.53C75.5467 416.268 75.3773 415.314 76.0097 417.13C77.065 420.159 71.8603 424.832 69.8344 426.39C67.4282 428.239 65.2938 429.608 62.596 431.134C61.1842 431.934 59.9462 432.514 58.4331 433.288C57.7294 433.646 56.9517 433.962 56.3362 434.269C54.9734 434.952 51.0601 436.609 49.4306 437.176C44.0513 439.05 40.3896 440.399 34.7431 441.539C28.8498 442.73 18.1429 444.755 12.4789 441.454C11.9924 441.169 11.2832 440.502 10.9623 439.906C10.532 439.111 10.5422 438.442 10.6588 437.665Z" stroke="url(#paint3_linear_152_1700)" stroke-width="1.2"/>
<path fill-rule="evenodd" clip-rule="evenodd" d="M367.949 275.206C369.322 274.728 370.983 274.429 372.334 274.029C374.532 273.38 376.581 272.815 378.84 272.416L383.062 271.576C387.366 270.709 392.759 269.995 396.984 270.602C398.048 270.754 399.78 271.247 400.188 272.419C400.963 274.644 395.202 278.613 393.614 279.659C389.813 282.155 385.209 284.395 380.873 286.602C380.44 286.823 379.912 287.095 379.513 287.246C377.022 288.18 374.924 289.443 372.388 290.308C371.368 290.656 370.595 291.179 369.546 291.537C368.539 291.88 367.396 292.191 366.497 292.665C365.616 293.131 364.4 293.45 363.425 293.782C362.754 294.011 362.556 294.189 362.008 294.399C359.386 295.402 356.837 296.07 354.144 297.02C353.477 297.255 353.257 297.213 352.652 297.414C352.156 297.582 351.586 297.83 351.088 297.959C350.576 298.09 350.24 298.141 349.59 298.369C347.338 299.163 344.254 299.852 341.892 300.473C339.898 300.997 337.865 301.552 335.896 301.932C332.173 302.649 328.285 303.409 324.519 303.748C322.074 303.967 315.542 304.363 314.742 302.064C314.492 301.348 314.687 300.828 314.977 300.353C317.889 295.6 328.184 290.528 332.967 288.222L341.005 284.473L367.949 275.206ZM338.259 282.968C337.327 283.292 334.914 284.554 333.609 285.056C332.768 285.38 332.103 285.756 331.287 286.104C327.562 287.69 323.851 289.712 320.357 291.753C316.936 293.75 309.777 298.08 308.627 301.36C308.204 302.57 308.663 303.752 309.088 304.973C309.815 307.061 310.828 308.822 311.581 310.788C311.932 311.702 312.494 312.86 312.894 313.649C315.079 317.957 317.607 322.36 320.25 326.127C323.847 331.254 328.45 336.831 333.18 340.913C333.436 341.134 333.956 341.542 334.105 341.874C333.629 342.387 332.866 342.954 332.309 343.437L330.491 345.076C328.749 346.635 327.292 348.423 326.025 350.384C325.771 350.773 325.708 350.992 325.489 351.34C325.173 351.843 325.238 351.901 324.996 352.407C323.797 354.922 324.225 358.196 326.514 359.977C328.534 361.546 330.763 362.185 333.229 362.796L334.743 363.071C336.73 363.393 338.931 363.537 340.953 363.515L347.59 363.251C353.054 362.976 359.689 361.638 365.064 360.49C367.428 359.984 370.498 358.964 372.486 358.592C374.641 358.189 390.643 352.551 392.906 351.363C393.355 351.126 394.256 350.729 394.666 350.565C399.393 348.656 403.715 346.357 408.102 343.958C413.831 340.824 419.752 336.744 424.284 332.079C428.271 327.972 432.414 321.361 425.613 317.305C422.509 315.455 417.574 314.918 414.026 314.871L411.448 314.817C411.251 314.048 411.779 312.718 411.878 311.895C411.923 311.51 411.899 311.239 411.952 310.889C413.036 310.774 414.18 310.229 415.22 309.867C419.296 308.447 423.333 304.761 425.621 301.353C428.533 297.017 430.612 290.602 428.738 285.222C427.718 282.294 426.439 280.5 424.077 278.686C423.239 278.042 422.275 277.601 421.298 277.243C417.948 276.015 414.25 276.256 410.843 277.509C409.717 277.923 409.935 277.662 409.741 276.617C409.38 274.674 408.181 270.463 407.267 268.532C406.236 266.344 401.932 266.35 399.884 266.381C393.802 266.476 387.722 267.644 381.804 268.962C379.057 269.574 376.317 270.154 373.616 271.007C373.161 271.151 372.775 271.217 372.23 271.36C370.9 271.709 369.448 271.985 368.05 272.472L338.259 282.968ZM412.488 304.37C413.238 299.419 412.032 290.757 411.354 285.482C411.293 285.011 411.114 284.444 411.571 284.284C414.131 283.393 417.246 283.944 419.356 285.242C420.568 285.992 421.368 287.041 422.043 288.326C422.663 289.512 422.559 291.631 422.419 292.587C421.678 297.589 417.025 302.789 412.488 304.37ZM343.108 348.588C343.542 348.702 344.176 349.405 346.656 350.051C350.244 350.984 355.775 350.599 359.393 350.099C360.091 350.002 360.85 349.904 361.623 349.793C362.322 349.691 363.247 349.568 363.982 349.4L368.786 348.254C370.396 347.947 372.151 347.245 373.671 346.939L379.634 345.013C387.074 342.421 399.069 336.624 404.545 331.021C405.914 329.619 406.951 328.251 407.668 326.453C407.996 327.191 407.826 326.237 408.459 328.053C409.514 331.082 404.31 335.755 402.284 337.313C399.877 339.162 397.743 340.53 395.045 342.057C393.633 342.857 392.395 343.437 390.882 344.21C390.179 344.569 389.401 344.885 388.785 345.192C387.423 345.875 383.509 347.531 381.88 348.099C376.5 349.973 372.839 351.322 367.192 352.462C361.299 353.653 350.592 355.678 344.928 352.377C344.442 352.092 343.732 351.425 343.412 350.829C342.981 350.034 342.991 349.365 343.108 348.588Z" stroke="url(#paint4_linear_152_1700)" stroke-width="1.2"/>
<path fill-rule="evenodd" clip-rule="evenodd" d="M-3.40342 95.8648C-2.07033 95.2853 -0.43577 94.8624 0.88113 94.363C3.02464 93.5507 5.02523 92.8346 7.24874 92.2678L11.3952 91.1137C15.6222 89.927 20.9474 88.8115 25.2058 89.1006C26.2779 89.1733 28.0421 89.5351 28.5367 90.673C29.4761 92.834 24.028 97.2233 22.5225 98.3849C18.9194 101.158 14.4953 103.737 10.3369 106.261C9.92197 106.515 9.41517 106.825 9.0291 107.005C6.61481 108.123 4.61738 109.54 2.1526 110.592C1.16237 111.015 0.429666 111.594 -0.589189 112.03C-1.56715 112.448 -2.68378 112.843 -3.5453 113.383C-4.38931 113.913 -5.57761 114.323 -6.52491 114.727C-7.17688 115.006 -7.36079 115.198 -7.8914 115.448C-10.4317 116.645 -12.9232 117.501 -15.5379 118.65C-16.1852 118.934 -16.4076 118.909 -16.9959 119.155C-17.4782 119.36 -18.0279 119.65 -18.5151 119.815C-19.0154 119.984 -19.3471 120.06 -19.978 120.337C-22.1642 121.297 -25.1884 122.214 -27.4968 123.01C-29.4462 123.682 -31.4322 124.387 -33.3669 124.914C-37.0264 125.907 -40.8466 126.956 -44.5763 127.576C-46.998 127.977 -53.4817 128.86 -54.4523 126.628C-54.7545 125.933 -54.5996 125.4 -54.3458 124.904C-51.7968 119.947 -41.9105 114.118 -37.3136 111.462L-29.5784 107.121L-3.40342 95.8648ZM-32.4293 105.826C-33.3351 106.219 -35.6463 107.658 -36.9105 108.256C-37.7249 108.642 -38.3596 109.067 -39.1473 109.475C-42.7434 111.336 -46.2923 113.629 -49.6236 115.926C-52.8864 118.173 -59.7006 123.027 -60.6022 126.383C-60.934 127.622 -60.3877 128.767 -59.8725 129.952C-58.991 131.979 -57.8496 133.66 -56.9516 135.564C-56.5326 136.449 -55.8858 137.562 -55.428 138.319C-52.9268 142.451 -50.0767 146.653 -47.1587 150.211C-43.1885 155.055 -38.1809 160.272 -33.1594 163.988C-32.8873 164.189 -32.3382 164.558 -32.1652 164.877C-32.6005 165.425 -33.3195 166.047 -33.8385 166.57L-35.5288 168.341C-37.1497 170.026 -38.4689 171.918 -39.5855 173.968C-39.8097 174.375 -39.8564 174.598 -40.0483 174.962C-40.3256 175.487 -40.2565 175.54 -40.4597 176.062C-41.4673 178.66 -40.7959 181.893 -38.3798 183.498C-36.2483 184.911 -33.9773 185.382 -31.4733 185.807L-29.9423 185.968C-27.9374 186.14 -25.7316 186.119 -23.7165 185.945L-17.1184 185.186C-11.69 184.503 -5.17348 182.672 0.100421 181.126C2.41988 180.444 5.40535 179.197 7.35971 178.677C9.47811 178.114 25.0137 171.295 27.1817 169.941C27.6114 169.671 28.4798 169.208 28.8767 169.014C33.4477 166.756 37.5859 164.14 41.7806 161.42C47.2589 157.866 52.8583 153.355 57.0284 148.363C60.6977 143.969 64.3338 137.067 57.249 133.531C54.0151 131.919 49.0539 131.752 45.5121 131.971L42.9374 132.11C42.6832 131.357 43.1106 129.992 43.1471 129.164C43.1634 128.777 43.1196 128.508 43.1461 128.155C44.2183 127.96 45.3182 127.331 46.3283 126.892C50.2867 125.171 54.037 121.193 56.0636 117.623C58.6427 113.082 60.2356 106.529 57.9645 101.305C56.7283 98.461 55.3188 96.7676 52.8272 95.1351C51.9435 94.5563 50.9499 94.1887 49.9488 93.9047C46.5156 92.9302 42.8461 93.4479 39.5424 94.9523C38.4505 95.4489 38.6488 95.1726 38.3771 94.1449C37.8721 92.2339 36.3606 88.1251 35.3054 86.268C34.1133 84.1632 29.8214 84.4907 27.7818 84.6752C21.7242 85.2243 15.7481 86.8446 9.94573 88.6015C7.25163 89.4168 4.5632 90.2003 1.93354 91.2533C1.49064 91.4312 1.11107 91.5255 0.578001 91.7085C-0.722229 92.1567 -2.14996 92.5409 -3.50759 93.131L-32.4293 105.826ZM43.193 121.614C43.5701 116.621 41.7193 108.074 40.6483 102.865C40.5529 102.399 40.3322 101.847 40.7758 101.654C43.2621 100.573 46.4093 100.889 48.6102 102.027C49.8754 102.683 50.7516 103.67 51.5201 104.901C52.2277 106.037 52.2821 108.158 52.2145 109.121C51.8497 114.165 47.5991 119.699 43.193 121.614ZM-22.6845 170.9C-22.2433 170.981 -21.5583 171.634 -19.037 172.093C-15.3896 172.755 -9.90225 171.957 -6.33247 171.187C-5.64337 171.039 -4.89399 170.884 -4.13092 170.715C-3.44156 170.562 -2.52839 170.37 -1.80842 170.147L2.8967 168.645C4.47852 168.218 6.17645 167.388 7.66898 166.968L13.4714 164.602C20.6972 161.461 32.2244 154.782 37.2655 148.785C38.5262 147.284 39.458 145.843 40.0385 143.996C40.4207 144.708 40.1803 143.769 40.9468 145.532C42.2258 148.474 37.3853 153.523 35.4816 155.229C33.2205 157.252 31.1945 158.777 28.6185 160.501C27.2704 161.404 26.0793 162.075 24.6283 162.96C23.9534 163.37 23.2016 163.743 22.6107 164.095C21.3028 164.878 17.5245 166.823 15.9419 167.511C10.7179 169.782 7.16744 171.401 1.62213 172.961C-4.16556 174.589 -14.691 177.41 -20.5862 174.541C-21.0926 174.293 -21.8497 173.681 -22.2143 173.111C-22.7028 172.351 -22.7427 171.683 -22.6845 170.9Z" stroke="url(#paint5_linear_152_1700)" stroke-width="1.2"/>
<path fill-rule="evenodd" clip-rule="evenodd" d="M124.115 -4.14441C125.556 -4.33846 127.244 -4.29964 128.647 -4.42097C130.931 -4.61806 133.051 -4.76152 135.345 -4.70054L139.649 -4.68023C144.039 -4.66932 149.467 -4.29055 153.485 -2.85118C154.497 -2.48891 156.095 -1.6598 156.261 -0.430116C156.575 1.90517 150.137 4.64254 148.372 5.34953C144.149 7.03497 139.189 8.30985 134.5 9.60471C134.032 9.73547 133.46 9.89602 133.039 9.96394C130.411 10.381 128.103 11.1995 125.445 11.5395C124.377 11.6766 123.514 12.0342 122.415 12.1755C121.36 12.3108 120.178 12.3866 119.202 12.6715C118.245 12.9515 116.99 13.0213 115.969 13.1521C115.266 13.2423 115.036 13.377 114.458 13.473C111.687 13.9319 109.057 14.0764 106.228 14.4688C105.528 14.5653 105.32 14.4804 104.687 14.5567C104.167 14.6222 103.559 14.7515 103.046 14.7778C102.518 14.8038 102.178 14.7864 101.496 14.8805C99.1308 15.2082 95.9711 15.2661 93.533 15.4027C91.4743 15.5176 89.3713 15.6543 87.3664 15.6333C83.5746 15.5914 79.6132 15.5588 75.8559 15.1378C73.4165 14.8641 66.9376 13.9456 66.6126 11.5328C66.5114 10.7817 66.8057 10.3112 67.185 9.90367C70.9892 5.82928 82.0901 2.9173 87.2373 1.6149L95.8628 -0.451562L124.115 -4.14441ZM93.4733 -2.47576C92.4945 -2.34391 89.8785 -1.59 88.4991 -1.35908C87.6104 -1.21003 86.884 -0.974582 86.0148 -0.796603C82.0476 0.0129985 78.0078 1.25197 74.1765 2.55308C70.4246 3.82545 62.545 6.63736 60.7625 9.62057C60.1055 10.7219 60.3189 11.9723 60.4914 13.2529C60.7866 15.4442 61.4265 17.3724 61.7714 19.4487C61.9331 20.415 62.2518 21.6624 62.4859 22.5152C63.7657 27.1725 65.362 31.9925 67.1991 36.2116C69.6981 41.9545 73.0934 48.3391 76.9112 53.284C77.1182 53.5516 77.5461 54.0557 77.6253 54.4104C77.0572 54.8186 76.1958 55.2211 75.5539 55.5828L73.4447 56.8256C71.4259 58.0044 69.6408 59.4653 68.0073 61.1335C67.6806 61.464 67.575 61.6655 67.2912 61.9632C66.8812 62.3929 66.9333 62.4625 66.5953 62.9096C64.9176 65.1343 64.6819 68.428 66.569 70.6304C68.2343 72.5717 70.2908 73.6436 72.584 74.7356L74.0131 75.3078C75.8952 76.0198 78.023 76.6017 80.0091 76.9838L86.5644 78.0521C91.9731 78.8756 98.742 78.891 104.238 78.841C106.655 78.8176 109.867 78.4323 111.89 78.4644C114.081 78.5009 130.888 76.1761 133.343 75.4642C133.83 75.3219 134.791 75.1134 135.226 75.0345C140.24 74.1088 144.934 72.7207 149.712 71.247C155.952 69.3215 162.569 66.5081 167.942 62.8427C172.67 59.6161 178.051 53.9669 172.199 48.6328C169.527 46.2 164.799 44.687 161.332 43.9314L158.817 43.3633C158.778 42.57 159.561 41.3727 159.822 40.5864C159.943 40.2181 159.974 39.9477 160.096 39.6155C161.181 39.7198 162.411 39.4143 163.502 39.2672C167.78 38.691 172.473 35.8865 175.396 33.0046C179.116 29.3386 182.435 23.4684 181.674 17.823C181.261 14.7499 180.366 12.7364 178.414 10.4863C177.722 9.6885 176.866 9.06385 175.98 8.51768C172.943 6.64391 169.271 6.14139 165.683 6.68796C164.497 6.86803 164.763 6.65622 164.782 5.59344C164.817 3.61709 164.483 -0.748112 163.974 -2.82261C163.401 -5.17271 159.183 -6.02791 157.17 -6.40648C151.192 -7.53001 145.001 -7.60061 138.939 -7.49244C136.125 -7.4427 133.325 -7.42193 130.508 -7.12593C130.033 -7.07553 129.642 -7.0883 129.079 -7.05761C127.706 -6.98092 126.228 -7.0006 124.761 -6.80298L93.4733 -2.47576ZM161.925 33.3348C163.649 28.6337 164.199 19.9063 164.589 14.6021C164.624 14.1282 164.562 13.5364 165.042 13.4718C167.729 13.1099 170.67 14.2725 172.478 15.9668C173.516 16.9436 174.09 18.1318 174.494 19.5257C174.865 20.8111 174.339 22.8671 174.011 23.7753C172.285 28.5285 166.686 32.6934 161.925 33.3348ZM85.1046 62.7895C85.507 62.988 85.988 63.803 88.2885 64.9323C91.6172 66.5638 97.1143 67.2919 100.759 67.5251C101.462 67.5702 102.225 67.6253 103.005 67.6714C103.71 67.7118 104.641 67.7759 105.395 67.7578L110.331 67.596C111.969 67.6167 113.83 67.2804 115.38 67.2836L121.608 66.5891C129.416 65.5373 142.328 62.2551 148.813 57.8601C150.435 56.7596 151.725 55.6272 152.787 54.0088C152.96 54.7975 152.985 53.8287 153.242 55.7341C153.67 58.9136 147.636 62.4514 145.34 63.5728C142.613 64.9034 140.248 65.8175 137.299 66.7741C135.756 67.2753 134.427 67.5964 132.79 68.0515C132.028 68.2624 131.203 68.4164 130.539 68.5938C129.067 68.9906 124.902 69.8314 123.191 70.0618C117.546 70.8222 113.689 71.4117 107.928 71.4004C101.916 71.3892 91.0201 71.2326 86.1306 66.8652C85.7109 66.4886 85.1494 65.6935 84.9541 65.0453C84.6914 64.1806 84.8351 63.5274 85.1046 62.7895Z" stroke="url(#paint6_linear_152_1700)" stroke-width="1.2"/>
<path fill-rule="evenodd" clip-rule="evenodd" d="M304.303 36.1487C305.752 36.2688 307.392 36.6695 308.789 36.8526C311.061 37.1509 313.163 37.4665 315.39 38.019L319.589 38.9638C323.874 39.9181 329.094 41.4545 332.709 43.7238C333.619 44.295 335.002 45.4483 334.899 46.6849C334.705 49.0332 327.828 50.3228 325.952 50.6339C321.466 51.3725 316.348 51.5516 311.491 51.8084C311.005 51.8355 310.412 51.8693 309.986 51.8453C307.331 51.6879 304.901 51.9912 302.231 51.752C301.159 51.6563 300.239 51.8201 299.135 51.7219C298.076 51.6273 296.905 51.4473 295.891 51.5157C294.896 51.5836 293.656 51.382 292.63 51.2903C291.924 51.2272 291.671 51.3095 291.085 51.2788C288.281 51.1316 285.68 50.7074 282.833 50.4826C282.129 50.4264 281.945 50.299 281.31 50.2374C280.788 50.1897 280.167 50.1853 279.659 50.1006C279.139 50.0125 278.811 49.9225 278.124 49.8678C275.743 49.6795 272.645 49.057 270.235 48.6664C268.199 48.3362 266.116 48.0177 264.163 47.5663C260.468 46.7105 256.607 45.8273 253.028 44.6085C250.704 43.8169 244.574 41.5276 244.775 39.1013C244.838 38.346 245.226 37.9497 245.684 37.6332C250.275 34.4716 261.743 34.0135 267.049 33.8477L275.917 33.6833L304.303 36.1487ZM274.019 31.1929C273.034 31.1113 270.318 31.2854 268.921 31.2144C268.021 31.169 267.261 31.2428 266.374 31.2299C262.325 31.1679 258.113 31.5097 254.092 31.957C250.154 32.3933 241.855 33.446 239.473 35.9764C238.594 36.9109 238.534 38.1778 238.427 39.4656C238.245 41.6691 238.455 43.6899 238.346 45.7917C238.296 46.7702 238.339 48.057 238.384 48.9401C238.633 53.7637 239.157 58.8141 240.044 63.3295C241.25 69.4752 243.194 76.4403 245.86 82.0902C246.005 82.396 246.314 82.9803 246.315 83.3438C245.673 83.6203 244.745 83.8283 244.04 84.0435L241.713 84.804C239.488 85.5214 237.431 86.5645 235.477 87.8427C235.087 88.0953 234.941 88.2693 234.599 88.499C234.107 88.8306 234.143 88.9098 233.716 89.2738C231.6 91.0859 230.662 94.252 232.031 96.8085C233.24 99.0623 235.019 100.551 237.024 102.111L238.296 102.977C239.981 104.076 241.934 105.102 243.792 105.902L249.964 108.354C255.07 110.321 261.677 111.791 267.055 112.923C269.421 113.42 272.641 113.734 274.609 114.2C276.742 114.706 293.655 116.048 296.206 115.88C296.712 115.846 297.696 115.849 298.138 115.865C303.233 116.039 308.116 115.692 313.099 115.28C319.607 114.74 326.674 113.415 332.709 110.99C338.021 108.855 344.489 104.494 339.92 98.0267C337.834 95.0765 333.542 92.5828 330.318 91.0996L327.984 90.0043C328.116 89.2211 329.138 88.2201 329.562 87.5082C329.76 87.1746 329.848 86.9173 330.038 86.619C331.076 86.954 332.342 86.9199 333.44 87.0109C337.741 87.3675 342.927 85.6371 346.402 83.4507C350.822 80.6698 355.326 75.6502 355.796 69.9733C356.052 66.883 355.612 64.7243 354.189 62.1073C353.684 61.1794 352.983 60.3854 352.235 59.6616C349.671 57.1789 346.194 55.899 342.571 55.6615C341.374 55.5825 341.68 55.4328 341.926 54.3989C342.386 52.4763 342.998 48.1414 342.947 46.006C342.892 43.5877 338.956 41.8458 337.072 41.0436C331.475 38.6615 325.444 37.2619 319.5 36.0648C316.741 35.5086 314.002 34.927 311.187 34.6107C310.713 34.5579 310.334 34.4614 309.777 34.3704C308.42 34.1502 306.98 33.8133 305.505 33.691L274.019 31.1929ZM333.174 80.8781C335.869 76.6574 338.281 68.2521 339.802 63.1557C339.939 62.7004 340.005 62.1092 340.488 62.1492C343.189 62.3732 345.812 64.1408 347.213 66.1839C348.017 67.361 348.323 68.6448 348.417 70.0929C348.503 71.4281 347.548 73.3229 347.033 74.1394C344.325 78.4106 337.962 81.275 333.174 80.8781ZM251.819 93.1345C252.169 93.4148 252.464 94.3141 254.468 95.9115C257.368 98.2202 262.58 100.113 266.089 101.124C266.767 101.319 267.5 101.537 268.252 101.749C268.932 101.94 269.828 102.203 270.567 102.347L275.423 103.25C277.019 103.623 278.908 103.694 280.421 104.03L286.653 104.69C294.505 105.341 307.82 104.911 315.098 102.012C316.919 101.286 318.422 100.457 319.807 99.105C319.807 99.9126 320.039 98.9717 319.88 100.888C319.615 104.085 312.962 106.243 310.478 106.845C307.529 107.558 305.023 107.943 301.937 108.243C300.322 108.401 298.956 108.429 297.259 108.522C296.47 108.564 295.631 108.537 294.944 108.568C293.421 108.639 289.173 108.565 287.453 108.422C281.776 107.952 277.882 107.698 272.259 106.449C266.389 105.146 255.782 102.652 251.945 97.3354C251.616 96.8775 251.239 95.9802 251.187 95.3052C251.116 94.4043 251.397 93.7972 251.819 93.1345Z" stroke="url(#paint7_linear_152_1700)" stroke-width="1.2"/>
</g>
<defs>
<linearGradient id="paint0_linear_152_1700" x1="306.333" y1="160.161" x2="325.603" y2="240.894" gradientUnits="userSpaceOnUse">
<stop offset="0.322917" stop-color="#00BD8D"/>
<stop offset="1" stop-color="#00392D"/>
</linearGradient>
<linearGradient id="paint1_linear_152_1700" x1="166.914" y1="105.037" x2="158.701" y2="187.629" gradientUnits="userSpaceOnUse">
<stop offset="0.322917" stop-color="#00BD8D"/>
<stop offset="1" stop-color="#00392D"/>
</linearGradient>
<linearGradient id="paint2_linear_152_1700" x1="-6.08556" y1="244.037" x2="-14.2993" y2="326.629" gradientUnits="userSpaceOnUse">
<stop offset="0.322917" stop-color="#00BD8D"/>
<stop offset="1" stop-color="#00392D"/>
</linearGradient>
<linearGradient id="paint3_linear_152_1700" x1="28.1562" y1="364.143" x2="55.4583" y2="442.524" gradientUnits="userSpaceOnUse">
<stop offset="0.322917" stop-color="#00BD8D"/>
<stop offset="1" stop-color="#00392D"/>
</linearGradient>
<linearGradient id="paint4_linear_152_1700" x1="360.605" y1="275.065" x2="387.907" y2="353.447" gradientUnits="userSpaceOnUse">
<stop offset="0.322917" stop-color="#00BD8D"/>
<stop offset="1" stop-color="#00392D"/>
</linearGradient>
<linearGradient id="paint5_linear_152_1700" x1="-10.737" y1="96.2738" x2="22.3528" y2="172.393" gradientUnits="userSpaceOnUse">
<stop offset="0.322917" stop-color="#00BD8D"/>
<stop offset="1" stop-color="#00392D"/>
</linearGradient>
<linearGradient id="paint6_linear_152_1700" x1="116.948" y1="-5.75064" x2="128.028" y2="76.5065" gradientUnits="userSpaceOnUse">
<stop offset="0.322917" stop-color="#00BD8D"/>
<stop offset="1" stop-color="#00392D"/>
</linearGradient>
<linearGradient id="paint7_linear_152_1700" x1="297.649" y1="33.0397" x2="290.792" y2="115.756" gradientUnits="userSpaceOnUse">
<stop offset="0.322917" stop-color="#00BD8D"/>
<stop offset="1" stop-color="#00392D"/>
</linearGradient>
<clipPath id="clip0_152_1700">
<rect width="382" height="510" rx="50" fill="white"/>
</clipPath>
</defs>
</svg>
