<svg width="382" height="510" viewBox="0 0 382 510" fill="none" xmlns="http://www.w3.org/2000/svg">
<g clip-path="url(#clip0_151_1578)">
<g clip-path="url(#clip1_151_1578)">
<path d="M270.645 109.73C268.388 120.953 271.551 128.025 275.191 138.21C275.773 139.704 279.552 148.713 279.956 149.162C280.128 150.596 277.289 154.284 276.17 156.062C273.391 160.491 263.663 175.481 264.073 178.68C264.404 178.944 264.722 179.295 265.278 179.387C266.277 179.546 266.29 179.315 266.595 178.74C266.734 178.634 272.888 167.001 273.563 165.844C276.574 160.755 279.122 155.692 282.616 150.841L287.997 150.933L294.568 151.006C298.797 150.795 303.032 151.125 307.201 150.722C320.212 149.479 324.163 146.307 334.109 137.747C335.056 136.716 336.267 135.454 337.048 134.363C341.753 127.456 345.161 122.202 348.516 114.396C349.297 112.585 349.952 111.012 350.687 109.102C350.945 108.441 351.097 107.648 351.316 106.875C354.347 96.253 355.008 85.354 355.108 74.3293C355.134 71.1304 355.015 67.9181 355.048 64.739L354.823 60.0264C354.519 56.0739 353.764 52.2536 353.963 48.2945C354.102 45.4987 355.445 43.6613 355.452 41.4141C353.347 41.804 351.766 44.0513 349.714 45.0228C347.577 46.0341 345.777 46.391 343.341 47.0123C331.892 49.9139 317.188 56.2127 307.056 61.4805C299.101 65.6114 292.933 70.2116 287.824 76.0214C285.124 79.0948 282.669 82.3929 280.525 85.6118C275.39 93.325 272.498 100.516 270.645 109.73Z" stroke="url(#paint0_linear_151_1578)" stroke-miterlimit="22.9256"/>
<path d="M354.841 41.9824C347.562 51.8372 340.342 61.7316 333.195 71.6855C330.581 66.193 328.754 61.0706 329.839 54.2893C327.589 63.3906 331.004 66.6623 332.506 72.6439C327.311 79.8945 322.15 87.1781 317.047 94.5015C311.316 86.3387 306.942 78.5858 306.862 67.3497C305.704 82.492 312.024 86.8212 316.028 95.9622C311.356 102.677 307.385 108.533 302.806 115.321C301.27 107.846 290.192 96.9404 287.73 79.0286C289.173 98.8836 296.34 104.449 301.932 116.538C297.452 123.187 293.018 129.869 288.644 136.597C281.324 126.154 275.739 116.227 275.64 101.851C274.157 121.263 282.251 126.835 287.386 138.534C279.22 151.132 271.245 163.881 263.516 176.81C262.715 178.713 264.767 180.339 266.692 178.198C274.654 164.271 282.787 150.629 291.072 137.245C303.573 137.47 311.905 142.434 328.933 133.531C315.803 139.056 304.566 137.932 292.217 135.401C295.407 130.265 298.617 125.163 301.853 120.093C314.638 118.725 323.155 121.6 340.487 112.611C327.067 118.52 315.552 118.99 302.872 118.507C307.954 110.563 313.083 102.71 318.258 94.9245C328.357 94.9377 334.836 99.1215 348.396 92.0361C337.999 96.4116 329.131 95.44 319.324 93.3977L319.072 93.7017C324.32 85.8298 329.614 78.0306 334.942 70.2975C341.037 71.0113 344.743 73.9393 353.452 70.5354C346.788 72.5183 341.414 71.3286 335.551 69.4184C341.93 60.1784 348.363 51.0374 354.841 41.9824Z" fill="url(#paint1_linear_151_1578)"/>
</g>
<g clip-path="url(#clip2_151_1578)">
<path d="M85.1491 116.993C94.3317 123.829 102.077 123.991 112.841 125.052C114.441 125.163 124.2 125.596 124.779 125.423C126.149 125.881 128.271 130.023 129.4 131.794C132.216 136.199 141.613 151.4 144.68 152.396C145.061 152.209 145.513 152.072 145.834 151.609C146.405 150.773 146.201 150.662 145.812 150.141C145.775 149.971 137.888 139.436 137.13 138.331C133.816 133.434 130.327 128.967 127.434 123.735L129.816 118.91L132.69 113C134.305 109.086 136.414 105.398 137.831 101.457C142.267 89.1626 141.086 84.235 137.598 71.5849C137.07 70.2887 136.446 68.6544 135.794 67.4824C131.559 60.2771 128.265 54.9505 122.641 48.5817C121.337 47.1019 120.195 45.8374 118.782 44.3571C118.295 43.8413 117.643 43.3648 117.037 42.8369C108.729 35.5582 99.1576 30.3029 89.2324 25.5026C86.3514 24.1118 83.3963 22.8469 80.5361 21.4586L76.1792 19.6484C72.4757 18.2349 68.6993 17.2846 65.2047 15.4135C62.7363 14.0932 61.649 12.0935 59.6201 11.1273C59.0735 13.1966 60.4294 15.5868 60.4313 17.8568C60.4322 20.2215 59.9858 22.0014 59.5069 24.4688C57.2385 36.0596 56.6503 52.0459 57.0838 63.4571C57.4198 72.4141 58.9436 79.9561 62.0133 87.0575C63.6384 90.8119 65.5712 94.441 67.5652 97.7549C72.3447 105.694 77.6106 111.381 85.1491 116.993Z" stroke="url(#paint2_linear_151_1578)" stroke-miterlimit="22.9256"/>
<path d="M59.8732 11.9213C65.6726 22.7136 71.5334 33.4691 77.479 44.1841C71.3962 44.2007 65.9846 43.6634 60.3172 39.7846C67.5844 45.7077 72.0015 44.0183 78.0514 45.2159C82.3871 53.0108 86.7668 60.79 91.2078 68.5322C81.379 70.2259 72.5003 70.8682 62.3076 66.139C75.5033 73.6561 82.1178 69.7919 92.093 70.0777C96.1681 77.1712 99.766 83.2634 103.946 90.3042C96.5318 88.4982 81.9382 93.8544 64.692 88.4269C83.2596 95.6061 91.3536 91.5042 104.673 91.6136C108.77 98.5053 112.917 105.369 117.131 112.199C104.562 114.355 93.1999 115.163 80.1602 109.11C97.0776 118.745 105.573 113.808 118.345 114.164C126.245 126.93 134.365 139.587 142.751 152.1C144.13 153.637 146.477 152.477 145.363 149.821C136.174 136.672 127.315 123.49 118.755 110.28C124.299 99.0737 132.347 93.6617 131.573 74.4626C130.959 88.6944 125.142 98.3739 117.576 108.457C114.296 103.379 111.054 98.2967 107.854 93.2048C112.08 81.0605 118.318 74.5885 117.597 55.0775C117.205 69.7363 112.709 80.3478 106.855 91.6056C101.844 83.6158 96.936 75.6237 92.1078 67.618C96.4347 58.4931 102.986 54.4232 102.374 39.136C101.887 50.4053 97.2197 58.0077 91.1826 66.0023L91.35 66.3596C86.4752 58.2513 81.686 50.1322 76.9706 42.0115C80.2203 36.8059 84.451 34.7063 85.0947 25.3779C84.04 32.2503 80.6683 36.6004 76.436 41.0854C70.8077 31.3694 65.2917 21.6479 59.8732 11.9213Z" fill="url(#paint3_linear_151_1578)"/>
</g>
<g clip-path="url(#clip3_151_1578)">
<path d="M29.9783 85.8184C20.7957 78.9828 13.05 78.821 2.28615 77.7598C0.686794 77.6481 -9.07278 77.2153 -9.65162 77.3882C-11.0219 76.9309 -13.1433 72.7882 -14.2729 71.0174C-17.089 66.6123 -26.4854 51.4117 -29.553 50.4158C-29.9334 50.602 -30.3859 50.7395 -30.707 51.2026C-31.2774 52.0383 -31.0739 52.1491 -30.6841 52.67C-30.6479 52.8409 -22.7603 63.3758 -22.0029 64.4803C-18.6882 69.3772 -15.1994 73.8441 -12.3062 79.0762L-14.6887 83.901L-17.5623 89.8114C-19.178 93.725 -21.2865 97.4131 -22.7034 101.355C-27.1391 113.649 -25.9589 118.577 -22.4703 131.227C-21.9424 132.523 -21.3185 134.157 -20.6661 135.329C-16.4319 142.534 -13.1374 147.861 -7.51369 154.23C-6.21 155.71 -5.06771 156.974 -3.65458 158.454C-3.16729 158.97 -2.51523 159.447 -1.90938 159.975C6.39861 167.253 15.9699 172.509 25.8951 177.309C28.776 178.7 31.7311 179.965 34.5913 181.353L38.9482 183.163C42.6518 184.577 46.4281 185.527 49.9228 187.398C52.3912 188.718 53.4784 190.718 55.5073 191.684C56.054 189.615 54.698 187.225 54.6962 184.955C54.6952 182.59 55.1416 180.81 55.6205 178.343C57.889 166.752 58.4772 150.766 58.0436 139.354C57.7076 130.397 56.1839 122.855 53.1141 115.754C51.4891 112 49.5562 108.371 47.5622 105.057C42.7828 97.1179 37.5168 91.4305 29.9783 85.8184Z" stroke="url(#paint4_linear_151_1578)" stroke-miterlimit="22.9256"/>
<path d="M55.2543 190.89C49.4548 180.098 43.5941 169.342 37.6484 158.627C43.7312 158.611 49.1429 159.148 54.8103 163.027C47.5431 157.104 43.126 158.793 37.076 157.596C32.7403 149.801 28.3606 142.022 23.9196 134.279C33.7484 132.586 42.6271 131.943 52.8198 136.673C39.6242 129.155 33.0096 133.02 23.0344 132.734C18.9594 125.64 15.3614 119.548 11.1811 112.507C18.5957 114.313 33.1892 108.957 50.4354 114.385C31.8678 107.205 23.7738 111.307 10.4548 111.198C6.35749 104.306 2.21052 97.4422 -2.00372 90.6123C10.5654 88.4569 21.9275 87.6488 34.9673 93.7015C18.0498 84.0669 9.55402 89.0037 -3.21736 88.648C-11.1178 75.8819 -19.2378 63.2243 -27.6236 50.7119C-29.0025 49.1746 -31.3491 50.3346 -30.2358 52.9908C-21.0466 66.1391 -12.1878 79.3215 -3.6271 92.5314C-9.17173 103.738 -17.2196 109.15 -16.4458 128.349C-15.8314 114.117 -10.0142 104.438 -2.44905 94.3544C0.831186 99.4327 4.07307 104.515 7.27375 109.607C3.04769 121.751 -3.19097 128.223 -2.46959 147.734C-2.07742 133.075 2.41844 122.464 8.27248 111.206C13.2837 119.196 18.1915 127.188 23.0197 135.194C18.6927 144.318 12.1418 148.388 12.7539 163.676C13.2402 152.406 17.9077 144.804 23.9448 136.809L23.7774 136.452C28.6522 144.56 33.4415 152.679 38.1569 160.8C34.9072 166.006 30.6764 168.105 30.0327 177.434C31.0875 170.561 34.4592 166.211 38.6915 161.726C44.3197 171.442 49.8357 181.164 55.2543 190.89Z" fill="url(#paint5_linear_151_1578)"/>
</g>
<g clip-path="url(#clip4_151_1578)">
<path d="M325.978 256.818C316.795 249.983 309.05 249.821 298.286 248.76C296.686 248.648 286.927 248.215 286.348 248.388C284.978 247.931 282.856 243.788 281.727 242.017C278.91 237.612 269.514 222.412 266.447 221.416C266.066 221.602 265.614 221.74 265.292 222.203C264.722 223.038 264.926 223.149 265.315 223.67C265.352 223.841 273.239 234.376 273.997 235.48C277.311 240.377 280.8 244.844 283.693 250.076L281.311 254.901L278.437 260.811C276.822 264.725 274.713 268.413 273.296 272.355C268.86 284.649 270.041 289.577 273.529 302.227C274.057 303.523 274.681 305.157 275.333 306.329C279.568 313.534 282.862 318.861 288.486 325.23C289.79 326.71 290.932 327.974 292.345 329.454C292.832 329.97 293.484 330.447 294.09 330.975C302.398 338.253 311.969 343.509 321.895 348.309C324.776 349.7 327.731 350.965 330.591 352.353L334.948 354.163C338.651 355.577 342.428 356.527 345.922 358.398C348.391 359.718 349.478 361.718 351.507 362.684C352.053 360.615 350.698 358.225 350.696 355.955C350.695 353.59 351.141 351.81 351.62 349.343C353.889 337.752 354.477 321.766 354.043 310.354C353.707 301.397 352.183 293.855 349.114 286.754C347.489 283 345.556 279.371 343.562 276.057C338.782 268.118 333.516 262.431 325.978 256.818Z" stroke="url(#paint6_linear_151_1578)" stroke-miterlimit="22.9256"/>
<path d="M351.254 361.89C345.454 351.098 339.594 340.342 333.648 329.627C339.731 329.611 345.142 330.148 350.81 334.027C343.543 328.104 339.125 329.793 333.076 328.596C328.74 320.801 324.36 313.022 319.919 305.279C329.748 303.586 338.627 302.943 348.819 307.673C335.624 300.155 329.009 304.02 319.034 303.734C314.959 296.64 311.361 290.548 307.181 283.507C314.595 285.313 329.189 279.957 346.435 285.385C327.867 278.205 319.773 282.307 306.454 282.198C302.357 275.306 298.21 268.442 293.996 261.612C306.565 259.457 317.927 258.649 330.967 264.702C314.049 255.067 305.554 260.004 292.782 259.648C284.882 246.882 276.762 234.224 268.376 221.712C266.997 220.175 264.65 221.335 265.764 223.991C274.953 237.139 283.812 250.322 292.372 263.531C286.828 274.738 278.78 280.15 279.554 299.349C280.168 285.117 285.985 275.438 293.55 265.354C296.831 270.433 300.073 275.515 303.273 280.607C299.047 292.751 292.809 299.223 293.53 318.734C293.922 304.075 298.418 293.464 304.272 282.206C309.283 290.196 314.191 298.188 319.019 306.194C314.692 315.318 308.141 319.388 308.753 334.676C309.24 323.406 313.907 315.804 319.944 307.809L319.777 307.452C324.652 315.56 329.441 323.679 334.156 331.8C330.907 337.006 326.676 339.105 326.032 348.434C327.087 341.561 330.459 337.211 334.691 332.726C340.319 342.442 345.835 352.164 351.254 361.89Z" fill="url(#paint7_linear_151_1578)"/>
</g>
<g clip-path="url(#clip5_151_1578)">
<path d="M360.883 267.87C370.066 274.706 377.812 274.868 388.576 275.929C390.175 276.04 399.935 276.473 400.513 276.3C401.884 276.758 404.005 280.9 405.135 282.671C407.951 287.076 417.347 302.277 420.415 303.273C420.795 303.086 421.248 302.949 421.569 302.486C422.139 301.65 421.936 301.539 421.546 301.018C421.51 300.848 413.622 290.313 412.865 289.208C409.55 284.311 406.061 279.844 403.168 274.612L405.551 269.787L408.424 263.877C410.04 259.963 412.148 256.275 413.565 252.334C418.001 240.04 416.821 235.112 413.332 222.462C412.804 221.166 412.18 219.531 411.528 218.359C407.294 211.154 403.999 205.827 398.376 199.459C397.072 197.979 395.93 196.714 394.516 195.234C394.029 194.718 393.377 194.242 392.771 193.714C384.463 186.435 374.892 181.18 364.967 176.38C362.086 174.989 359.131 173.724 356.27 172.336L351.914 170.525C348.21 169.112 344.434 168.162 340.939 166.29C338.471 164.97 337.383 162.97 335.354 162.004C334.808 164.074 336.164 166.464 336.166 168.734C336.167 171.098 335.72 172.878 335.241 175.346C332.973 186.937 332.385 202.923 332.818 214.334C333.154 223.291 334.678 230.833 337.748 237.934C339.373 241.689 341.306 245.318 343.3 248.632C348.079 256.571 353.345 262.258 360.883 267.87Z" stroke="url(#paint8_linear_151_1578)" stroke-miterlimit="22.9256"/>
<path d="M335.608 162.798C341.407 173.591 347.268 184.346 353.213 195.061C347.131 195.078 341.719 194.54 336.052 190.662C343.319 196.585 347.736 194.895 353.786 196.093C358.121 203.888 362.501 211.667 366.942 219.409C357.113 221.103 348.235 221.745 338.042 217.016C351.238 224.533 357.852 220.669 367.827 220.955C371.902 228.048 375.5 234.14 379.681 241.181C372.266 239.375 357.673 244.731 340.426 239.304C358.994 246.483 367.088 242.381 380.407 242.491C384.504 249.382 388.651 256.246 392.866 263.076C380.296 265.232 368.934 266.04 355.895 259.987C372.812 269.622 381.308 264.685 394.079 265.04C401.98 277.807 410.1 290.464 418.485 302.977C419.864 304.514 422.211 303.354 421.098 300.698C411.908 287.549 403.05 274.367 394.489 261.157C400.034 249.951 408.081 244.539 407.308 225.34C406.693 239.571 400.876 249.251 393.311 259.334C390.031 254.256 386.789 249.174 383.588 244.082C387.814 231.937 394.053 225.465 393.331 205.954C392.939 220.613 388.443 231.225 382.589 242.483C377.578 234.493 372.67 226.501 367.842 218.495C372.169 209.37 378.72 205.3 378.108 190.013C377.622 201.282 372.954 208.885 366.917 216.879L367.084 217.237C362.21 209.128 357.42 201.009 352.705 192.888C355.955 187.683 360.185 185.583 360.829 176.255C359.774 183.127 356.403 187.477 352.17 191.962C346.542 182.246 341.026 172.525 335.608 162.798Z" fill="url(#paint9_linear_151_1578)"/>
</g>
<g clip-path="url(#clip6_151_1578)">
<path d="M252.754 -29.099C263.969 -31.397 271.052 -28.2597 281.251 -24.6574C282.747 -24.0806 291.769 -20.335 292.22 -19.933C293.655 -19.7662 297.333 -22.6188 299.107 -23.7437C303.525 -26.5395 318.479 -36.3227 321.68 -35.9242C321.945 -35.5943 322.297 -35.2779 322.391 -34.7224C322.554 -33.7237 322.322 -33.7096 321.748 -33.4031C321.643 -33.2637 310.033 -27.0664 308.879 -26.3871C303.801 -23.3573 298.747 -20.7908 293.909 -17.2788L294.021 -11.8989L294.118 -5.32773C293.922 -1.09821 294.268 3.13594 293.88 7.30661C292.686 20.3217 289.528 24.2842 281.005 34.2622C279.977 35.2123 278.72 36.428 277.632 37.2129C270.742 41.9436 265.5 45.371 257.707 48.755C255.899 49.5425 254.328 50.2035 252.421 50.9451C251.761 51.2056 250.968 51.3607 250.196 51.582C239.585 54.652 228.689 55.3539 217.665 55.4937C214.466 55.532 211.253 55.4247 208.074 55.4695L203.361 55.2618C199.407 54.9719 195.584 54.2316 191.626 54.4447C188.831 54.5939 186.998 55.9441 184.751 55.959C185.133 53.8531 187.375 52.2632 188.339 50.2081C189.342 48.0669 189.692 46.2655 190.305 43.8279C193.164 32.3685 199.409 17.6406 204.639 7.48945C208.741 -0.480296 213.318 -6.66497 219.109 -11.7953C222.173 -14.5066 225.462 -16.974 228.673 -19.13C236.367 -24.2937 243.547 -27.2121 252.754 -29.099Z" stroke="url(#paint10_linear_151_1578)" stroke-miterlimit="22.9256"/>
<path d="M185.317 55.3477C195.145 48.0319 205.013 40.7755 214.94 33.5917C209.438 30.9979 204.309 29.1903 197.532 30.3005C206.625 28.017 209.909 31.4197 215.896 32.8999C223.128 27.6783 230.392 22.4896 237.697 17.3604C229.513 11.6595 221.744 7.31366 210.508 7.2756C225.646 6.06176 229.998 12.3658 239.154 16.3359C245.852 11.639 251.693 7.64683 258.464 3.04236C250.983 1.53455 240.037 -9.50344 222.116 -11.8993C241.976 -10.5297 247.568 -3.38317 259.677 2.16434C266.31 -2.34035 272.976 -6.79884 279.688 -11.1979C269.218 -18.4788 259.27 -24.0276 244.894 -24.074C264.301 -25.6278 269.902 -17.5548 281.62 -12.4624C294.187 -20.6751 306.908 -28.6964 319.807 -36.4736C321.708 -37.2813 323.341 -35.2358 321.207 -33.3022C307.31 -25.2897 293.698 -17.1063 280.345 -8.77161C280.615 3.72851 285.61 12.042 276.769 29.1023C282.247 15.9523 281.082 4.71947 278.505 -7.61995C273.381 -4.41129 268.29 -1.1829 263.233 2.07184C261.912 14.8624 264.818 23.3689 255.893 40.7339C261.752 27.2913 262.179 15.7747 261.65 3.09681C253.724 8.20849 245.891 13.3662 238.124 18.5699C238.175 28.6686 242.382 35.1319 235.347 48.7178C239.684 38.3052 238.68 29.441 236.601 19.641L236.905 19.3884C229.052 24.6652 221.272 29.9881 213.559 35.3439C214.295 41.4362 217.237 45.1314 213.865 53.8529C215.823 47.1815 214.614 41.8123 212.682 35.956C203.466 42.3695 194.348 48.8356 185.317 55.3477Z" fill="url(#paint11_linear_151_1578)"/>
</g>
<g clip-path="url(#clip7_151_1578)">
<path d="M97.7541 188.901C108.969 186.603 116.052 189.74 126.251 193.343C127.747 193.919 136.769 197.665 137.22 198.067C138.655 198.234 142.333 195.381 144.107 194.256C148.525 191.461 163.479 181.677 166.68 182.076C166.945 182.406 167.297 182.722 167.391 183.278C167.554 184.276 167.322 184.29 166.748 184.597C166.643 184.736 155.033 190.934 153.879 191.613C148.801 194.643 143.747 197.209 138.909 200.721L139.021 206.101L139.118 212.672C138.922 216.902 139.268 221.136 138.88 225.307C137.686 238.322 134.528 242.284 126.005 252.262C124.977 253.212 123.72 254.428 122.632 255.213C115.742 259.944 110.5 263.371 102.707 266.755C100.899 267.543 99.3282 268.203 97.4207 268.945C96.7607 269.206 95.9682 269.361 95.1957 269.582C84.5854 272.652 73.6889 273.354 62.6647 273.494C59.4658 273.532 56.2532 273.425 53.0742 273.469L48.3608 273.262C44.4072 272.972 40.5842 272.232 36.6259 272.445C33.8306 272.594 31.9981 273.944 29.7509 273.959C30.1331 271.853 32.3745 270.263 33.3385 268.208C34.3419 266.067 34.6922 264.266 35.3045 261.828C38.1639 250.368 44.4086 235.641 49.6391 225.489C53.7407 217.52 58.3182 211.335 64.1091 206.205C67.1725 203.493 70.4616 201.026 73.6725 198.87C81.3669 193.706 88.5473 190.788 97.7541 188.901Z" stroke="url(#paint12_linear_151_1578)" stroke-miterlimit="22.9256"/>
<path d="M30.3172 273.348C40.1451 266.032 50.0129 258.776 59.9404 251.592C54.4384 248.998 49.3093 247.19 42.532 248.301C51.6249 246.017 54.9092 249.42 60.8963 250.9C68.1277 245.678 75.3923 240.49 82.6968 235.36C74.5131 229.659 66.7441 225.314 55.5077 225.276C70.6457 224.062 74.9982 230.366 84.1538 234.336C90.8518 229.639 96.6931 225.647 103.464 221.042C95.9832 219.535 85.0369 208.497 67.1162 206.101C86.9763 207.47 92.5678 214.617 104.677 220.164C111.31 215.66 117.976 211.201 124.688 206.802C114.218 199.521 104.27 193.972 89.8941 193.926C109.301 192.372 114.902 200.445 126.62 205.538C139.187 197.325 151.908 189.304 164.807 181.526C166.708 180.719 168.341 182.764 166.207 184.698C152.31 192.71 138.698 200.894 125.345 209.228C125.615 221.729 130.61 230.042 121.769 247.102C127.247 233.952 126.082 222.719 123.505 210.38C118.381 213.589 113.29 216.817 108.233 220.072C106.912 232.862 109.818 241.369 100.893 258.734C106.752 245.291 107.179 233.775 106.65 221.097C98.7243 226.208 90.8912 231.366 83.1243 236.57C83.1747 246.669 87.3823 253.132 80.3469 266.718C84.6841 256.305 83.6798 247.441 81.6014 237.641L81.9045 237.388C74.052 242.665 66.2723 247.988 58.5589 253.344C59.2951 259.436 62.2368 263.131 58.8649 271.853C60.8232 265.182 59.6138 259.812 57.6821 253.956C48.4655 260.369 39.3483 266.836 30.3172 273.348Z" fill="url(#paint13_linear_151_1578)"/>
</g>
<g clip-path="url(#clip8_151_1578)">
<path d="M29.5975 419.04C19.6737 424.747 11.9629 423.995 1.14893 423.781C-0.452457 423.703 -10.1951 422.984 -10.7495 422.744C-12.1641 423.036 -14.7587 426.9 -16.089 428.526C-19.4044 432.569 -30.5258 446.557 -33.6894 447.184C-34.0452 446.954 -34.4783 446.765 -34.7427 446.267C-35.2107 445.37 -34.9956 445.284 -34.5471 444.812C-34.491 444.647 -25.4174 435.115 -24.5352 434.107C-20.6668 429.635 -16.6761 425.61 -13.1868 420.755L-14.9844 415.683L-17.1419 409.475C-18.2853 405.399 -19.9447 401.488 -20.8874 397.407C-23.8442 384.676 -22.0918 379.921 -17.1374 367.77C-16.4605 366.545 -15.6484 364.996 -14.8626 363.909C-9.80916 357.252 -5.9102 352.351 0.424582 346.689C1.89351 345.373 3.17679 344.252 4.75444 342.948C5.29909 342.493 6.00274 342.097 6.66655 341.644C15.7741 335.395 25.8977 331.303 36.3192 327.706C39.3439 326.664 42.4275 325.756 45.4313 324.714L49.971 323.43C53.8153 322.462 57.6773 321.963 61.3681 320.517C63.9748 319.497 65.29 317.639 67.4186 316.918C67.7177 319.038 66.0896 321.251 65.8204 323.505C65.5409 325.854 65.7746 327.674 65.9595 330.18C66.8469 341.958 65.548 357.902 63.7734 369.183C62.3847 378.038 59.9832 385.348 56.0984 392.038C54.0424 395.575 51.6955 398.951 49.3251 402.007C43.6438 409.328 37.7446 414.355 29.5975 419.04Z" stroke="url(#paint14_linear_151_1578)" stroke-miterlimit="22.9256"/>
<path d="M67.0733 317.677C60.043 327.711 52.9562 337.701 45.7899 347.642C51.8284 348.375 57.2656 348.478 63.3505 345.294C55.4362 350.32 51.2488 348.122 45.0999 348.599C39.8763 355.829 34.6107 363.038 29.2887 370.203C38.8496 373.043 47.5908 374.726 58.2696 371.231C44.2804 377.141 38.1671 372.525 28.2276 371.634C23.3454 378.198 19.0549 383.824 14.0743 390.323C21.6501 389.403 35.5111 396.441 53.2766 393.082C33.9926 398.025 26.4381 392.998 13.1989 391.538C8.31834 397.899 3.39174 404.227 -1.59765 410.513C10.6301 414.134 21.818 416.274 35.4798 411.8C17.5453 419.375 9.69016 413.471 -3.03421 412.32C-12.3834 424.067 -21.9377 435.68 -31.739 447.118C-33.2894 448.482 -35.483 447.053 -34.0646 444.547C-23.3906 432.572 -13.0407 420.525 -2.98368 408.416C-7.16973 396.634 -14.5241 390.312 -11.4943 371.338C-12.5605 385.543 -7.92389 395.84 -1.59909 406.744C2.25647 402.088 6.0744 397.423 9.85257 392.743C7.08638 380.186 1.65347 373.024 4.66801 353.734C3.33081 368.337 6.54546 379.404 11.0327 391.273C16.9501 383.929 22.7651 376.57 28.5027 369.189C25.2807 359.618 19.2547 354.805 21.6633 339.696C20.8188 350.944 24.5583 359.044 29.6117 367.694L29.4034 368.029C35.1993 360.551 40.9116 353.053 46.5507 345.544C43.9368 339.992 39.9828 337.409 40.4423 328.069C40.6802 335.018 43.5161 339.735 47.1906 344.687C53.9241 335.702 60.5468 326.698 67.0733 317.677Z" fill="url(#paint15_linear_151_1578)"/>
</g>
</g>
<defs>
<linearGradient id="paint0_linear_151_1578" x1="309.756" y1="41.4141" x2="309.756" y2="179.436" gradientUnits="userSpaceOnUse">
<stop offset="0.322917" stop-color="#00BD8D"/>
<stop offset="1" stop-color="#00392D"/>
</linearGradient>
<linearGradient id="paint1_linear_151_1578" x1="309.09" y1="41.9824" x2="309.09" y2="179.213" gradientUnits="userSpaceOnUse">
<stop offset="0.322917" stop-color="#00BD8D"/>
<stop offset="1" stop-color="#00392D"/>
</linearGradient>
<linearGradient id="paint2_linear_151_1578" x1="40.0952" y1="52.4416" x2="164.883" y2="111.416" gradientUnits="userSpaceOnUse">
<stop offset="0.322917" stop-color="#00BD8D"/>
<stop offset="1" stop-color="#00392D"/>
</linearGradient>
<linearGradient id="paint3_linear_151_1578" x1="40.3243" y1="53.2863" x2="164.397" y2="111.922" gradientUnits="userSpaceOnUse">
<stop offset="0.322917" stop-color="#00BD8D"/>
<stop offset="1" stop-color="#00392D"/>
</linearGradient>
<linearGradient id="paint4_linear_151_1578" x1="75.0322" y1="150.37" x2="-49.756" y2="91.3957" gradientUnits="userSpaceOnUse">
<stop offset="0.322917" stop-color="#00BD8D"/>
<stop offset="1" stop-color="#00392D"/>
</linearGradient>
<linearGradient id="paint5_linear_151_1578" x1="74.8032" y1="149.525" x2="-49.2691" y2="90.8893" gradientUnits="userSpaceOnUse">
<stop offset="0.322917" stop-color="#00BD8D"/>
<stop offset="1" stop-color="#00392D"/>
</linearGradient>
<linearGradient id="paint6_linear_151_1578" x1="371.032" y1="321.37" x2="246.243" y2="262.396" gradientUnits="userSpaceOnUse">
<stop offset="0.322917" stop-color="#00BD8D"/>
<stop offset="1" stop-color="#00392D"/>
</linearGradient>
<linearGradient id="paint7_linear_151_1578" x1="370.803" y1="320.525" x2="246.73" y2="261.889" gradientUnits="userSpaceOnUse">
<stop offset="0.322917" stop-color="#00BD8D"/>
<stop offset="1" stop-color="#00392D"/>
</linearGradient>
<linearGradient id="paint8_linear_151_1578" x1="315.83" y1="203.319" x2="440.618" y2="262.293" gradientUnits="userSpaceOnUse">
<stop offset="0.322917" stop-color="#00BD8D"/>
<stop offset="1" stop-color="#00392D"/>
</linearGradient>
<linearGradient id="paint9_linear_151_1578" x1="316.059" y1="204.163" x2="440.131" y2="262.799" gradientUnits="userSpaceOnUse">
<stop offset="0.322917" stop-color="#00BD8D"/>
<stop offset="1" stop-color="#00392D"/>
</linearGradient>
<linearGradient id="paint10_linear_151_1578" x1="184.583" y1="10.2637" x2="322.604" y2="9.75572" gradientUnits="userSpaceOnUse">
<stop offset="0.322917" stop-color="#00BD8D"/>
<stop offset="1" stop-color="#00392D"/>
</linearGradient>
<linearGradient id="paint11_linear_151_1578" x1="185.149" y1="9.59622" x2="322.378" y2="9.09117" gradientUnits="userSpaceOnUse">
<stop offset="0.322917" stop-color="#00BD8D"/>
<stop offset="1" stop-color="#00392D"/>
</linearGradient>
<linearGradient id="paint12_linear_151_1578" x1="29.5827" y1="228.264" x2="167.604" y2="227.756" gradientUnits="userSpaceOnUse">
<stop offset="0.322917" stop-color="#00BD8D"/>
<stop offset="1" stop-color="#00392D"/>
</linearGradient>
<linearGradient id="paint13_linear_151_1578" x1="30.1488" y1="227.596" x2="167.378" y2="227.091" gradientUnits="userSpaceOnUse">
<stop offset="0.322917" stop-color="#00BD8D"/>
<stop offset="1" stop-color="#00392D"/>
</linearGradient>
<linearGradient id="paint14_linear_151_1578" x1="81.9412" y1="360.245" x2="-48.9248" y2="404.11" gradientUnits="userSpaceOnUse">
<stop offset="0.322917" stop-color="#00BD8D"/>
<stop offset="1" stop-color="#00392D"/>
</linearGradient>
<linearGradient id="paint15_linear_151_1578" x1="81.6138" y1="361.057" x2="-48.5014" y2="404.67" gradientUnits="userSpaceOnUse">
<stop offset="0.322917" stop-color="#00BD8D"/>
<stop offset="1" stop-color="#00392D"/>
</linearGradient>
<clipPath id="clip0_151_1578">
<rect width="382" height="510" rx="50" fill="white"/>
</clipPath>
<clipPath id="clip1_151_1578">
<rect width="93" height="139.5" fill="white" transform="translate(264 40)"/>
</clipPath>
<clipPath id="clip2_151_1578">
<rect width="93" height="139.5" fill="white" transform="translate(19.2656 93.2061) rotate(-64.7048)"/>
</clipPath>
<clipPath id="clip3_151_1578">
<rect width="93" height="139.5" fill="white" transform="translate(95.8618 109.605) rotate(115.295)"/>
</clipPath>
<clipPath id="clip4_151_1578">
<rect width="93" height="139.5" fill="white" transform="translate(391.861 280.605) rotate(115.295)"/>
</clipPath>
<clipPath id="clip5_151_1578">
<rect width="93" height="139.5" fill="white" transform="translate(295 244.083) rotate(-64.7048)"/>
</clipPath>
<clipPath id="clip6_151_1578">
<rect width="93" height="139.5" fill="white" transform="matrix(0.00368027 0.999993 0.999993 -0.00368027 183 -35.4863)"/>
</clipPath>
<clipPath id="clip7_151_1578">
<rect width="93" height="139.5" fill="white" transform="matrix(0.00368027 0.999993 0.999993 -0.00368027 28 182.514)"/>
</clipPath>
<clipPath id="clip8_151_1578">
<rect width="93" height="139.5" fill="white" transform="matrix(-0.317812 -0.948154 -0.948154 0.317812 97.8242 403.179)"/>
</clipPath>
</defs>
</svg>
