<svg width="675" height="244" viewBox="0 0 675 244" fill="none" xmlns="http://www.w3.org/2000/svg">
<path d="M108.464 236V215.2H120.048V217.504H112.88V236H108.464ZM122.527 236.32C122.015 236.32 121.599 236.277 121.279 236.192C120.959 236.128 120.799 236.085 120.799 236.064L120.959 233.248C121.023 233.269 121.151 233.301 121.343 233.344C121.535 233.387 121.727 233.408 121.919 233.408C123.413 233.408 124.511 231.989 125.215 229.152C125.941 226.293 126.303 221.643 126.303 215.2H137.663V236H133.247V217.504H128.831C128.81 223.797 128.255 228.512 127.167 231.648C126.079 234.763 124.533 236.32 122.527 236.32ZM140.733 236L147.645 215.2H152.541L159.005 236H154.333L152.541 230.176H145.309L143.421 236H140.733ZM145.949 228.16H151.933L149.085 218.368H149.021L145.949 228.16ZM162.058 215.2H168.394C170.036 215.2 171.402 215.456 172.49 215.968C173.599 216.459 174.42 217.12 174.954 217.952C175.487 218.763 175.754 219.648 175.754 220.608C175.754 221.675 175.455 222.581 174.858 223.328C174.282 224.075 173.546 224.683 172.65 225.152C173.866 225.536 174.836 226.144 175.562 226.976C176.287 227.808 176.65 228.821 176.65 230.016C176.65 231.829 175.956 233.28 174.57 234.368C173.204 235.456 171.199 236 168.554 236H162.058V215.2ZM169.098 224.448C169.695 224.448 170.228 224.171 170.698 223.616C171.188 223.04 171.434 222.123 171.434 220.864C171.434 219.627 171.146 218.72 170.57 218.144C169.994 217.568 169.226 217.28 168.266 217.28H166.474V224.448H169.098ZM168.458 233.92C169.61 233.92 170.516 233.589 171.178 232.928C171.839 232.245 172.17 231.221 172.17 229.856C172.17 227.531 171.22 226.368 169.322 226.368H166.474V233.92H168.458ZM180.277 236V215.2H184.693V224.288H191.893V215.2H196.309V236H191.893V226.528H184.693V236H180.277ZM201.245 215.2H205.661V223.168H207.165C209.789 223.168 211.805 223.68 213.213 224.704C214.621 225.728 215.325 227.264 215.325 229.312C215.325 231.445 214.643 233.099 213.277 234.272C211.933 235.424 209.939 236 207.293 236H201.245V215.2ZM217.661 236V215.2H222.077V236H217.661ZM207.197 233.92C208.456 233.92 209.363 233.579 209.917 232.896C210.472 232.192 210.749 231.04 210.749 229.44C210.749 227.861 210.461 226.763 209.885 226.144C209.309 225.504 208.403 225.184 207.165 225.184H205.661V233.92H207.197ZM226.995 236V215.2H231.411V228.992L231.187 231.072H231.251L239.315 215.904L239.603 215.2H243.699V236H239.283V222.56L239.475 220.256H239.443L231.411 235.296L231.155 236H226.995ZM235.315 213.664C233.097 213.664 231.699 213.195 231.123 212.256C230.547 211.296 230.259 210.453 230.259 209.728L233.587 209.44V209.824C233.566 209.867 233.534 209.952 233.491 210.08C233.47 210.187 233.459 210.315 233.459 210.464C233.459 210.805 233.598 211.104 233.875 211.36C234.153 211.595 234.633 211.712 235.315 211.712C236.019 211.712 236.51 211.595 236.787 211.36C237.065 211.104 237.203 210.805 237.203 210.464C237.203 210.315 237.182 210.187 237.139 210.08C237.118 209.952 237.097 209.867 237.075 209.824V209.44L240.403 209.728C240.403 210.453 240.105 211.296 239.507 212.256C238.931 213.195 237.534 213.664 235.315 213.664ZM256.777 236V215.2H272.329V236H267.913V217.504H261.193V236H256.777ZM277.245 215.2H283.613C285.981 215.2 287.816 215.797 289.117 216.992C290.44 218.165 291.101 219.915 291.101 222.24C291.101 223.904 290.739 225.28 290.013 226.368C289.288 227.456 288.36 228.256 287.229 228.768C286.099 229.259 284.925 229.504 283.709 229.504H281.661V236H277.245V215.2ZM283.197 227.456C284.264 227.456 285.053 227.093 285.565 226.368C286.077 225.621 286.333 224.309 286.333 222.432C286.333 220.533 286.077 219.2 285.565 218.432C285.053 217.664 284.264 217.28 283.197 217.28H281.661V227.456H283.197ZM294.308 236V215.2H298.724V228.992L298.5 231.072H298.564L306.628 215.904L306.916 215.2H311.012V236H306.596V222.56L306.788 220.256H306.756L298.724 235.296L298.468 236H294.308ZM320.797 236.352C319.133 236.352 317.789 236.107 316.765 235.616C315.741 235.125 314.994 234.603 314.525 234.048C314.077 233.493 313.853 233.152 313.853 233.024L315.197 231.36C315.197 231.424 315.399 231.691 315.805 232.16C316.231 232.608 316.818 233.024 317.565 233.408C318.333 233.792 319.229 233.984 320.253 233.984C322.578 233.984 323.741 232.683 323.741 230.08C323.741 228.715 323.506 227.765 323.037 227.232C322.589 226.699 321.895 226.432 320.957 226.432L317.885 226.688V224.224L321.245 224.512C321.821 224.491 322.311 224.16 322.717 223.52C323.143 222.88 323.357 221.899 323.357 220.576C323.357 219.317 323.122 218.432 322.653 217.92C322.183 217.387 321.405 217.12 320.317 217.12C319.719 217.12 319.09 217.227 318.429 217.44C317.767 217.632 317.202 217.845 316.733 218.08C316.263 218.293 315.965 218.432 315.837 218.496L315.421 216.32C315.421 216.299 315.73 216.16 316.349 215.904C316.967 215.648 317.703 215.413 318.557 215.2C319.41 214.987 320.285 214.88 321.181 214.88C323.378 214.88 325.074 215.371 326.269 216.352C327.463 217.333 328.061 218.667 328.061 220.352C328.061 221.547 327.741 222.549 327.101 223.36C326.482 224.149 325.693 224.789 324.733 225.28C327.378 225.92 328.701 227.541 328.701 230.144C328.701 231.36 328.37 232.437 327.709 233.376C327.047 234.315 326.109 235.051 324.893 235.584C323.698 236.096 322.333 236.352 320.797 236.352ZM334.549 225.28C333.845 225.28 333.247 225.056 332.757 224.608C332.245 224.096 331.989 223.467 331.989 222.72C331.989 221.973 332.245 221.333 332.757 220.8C333.247 220.352 333.845 220.128 334.549 220.128C335.253 220.128 335.839 220.352 336.309 220.8C336.821 221.333 337.077 221.973 337.077 222.72C337.077 223.467 336.821 224.096 336.309 224.608C335.839 225.056 335.253 225.28 334.549 225.28ZM334.549 236.512C333.845 236.512 333.247 236.288 332.757 235.84C332.245 235.328 331.989 234.699 331.989 233.952C331.989 233.205 332.245 232.565 332.757 232.032C333.247 231.584 333.845 231.36 334.549 231.36C335.253 231.36 335.839 231.584 336.309 232.032C336.821 232.565 337.077 233.205 337.077 233.952C337.077 234.699 336.821 235.328 336.309 235.84C335.839 236.288 335.253 236.512 334.549 236.512ZM349.964 236V215.2H365.516V236H361.1V217.504H354.38V236H349.964ZM373.633 236.352C373.014 236.352 372.47 236.288 372.001 236.16C371.531 236.053 371.169 235.936 370.913 235.808C370.678 235.68 370.529 235.595 370.465 235.552L371.041 232.864C371.105 232.907 371.243 232.981 371.457 233.088C371.67 233.195 371.969 233.301 372.353 233.408C372.737 233.493 373.163 233.536 373.633 233.536C374.443 233.536 375.126 233.387 375.681 233.088C376.235 232.789 376.769 232.213 377.281 231.36L368.705 215.2H373.889L379.521 226.784H379.617L383.393 215.2H386.337L380.801 229.6C379.862 231.989 378.817 233.717 377.665 234.784C376.513 235.829 375.169 236.352 373.633 236.352ZM393.079 236V217.504H387.479V215.2H403.095V217.504H397.527V236H393.079ZM405.995 236V215.2H418.475V217.504H410.411V224.352H417.515V226.592H410.411V233.696H418.923V236H405.995ZM422.777 236V215.2H427.193V233.696H432.025V215.2H436.441V233.696H441.241V215.2H445.689V236H422.777ZM450.62 236V215.2H463.1V217.504H455.036V224.352H462.14V226.592H455.036V233.696H463.548V236H450.62ZM475.722 236.352C472.586 236.352 470.196 235.413 468.554 233.536C466.911 231.637 466.09 229.045 466.09 225.76C466.09 223.584 466.463 221.675 467.21 220.032C467.956 218.389 469.044 217.12 470.474 216.224C471.903 215.328 473.599 214.88 475.562 214.88C476.543 214.88 477.503 215.008 478.442 215.264C479.402 215.499 480.223 215.765 480.906 216.064C481.61 216.341 481.962 216.491 481.962 216.512L481.514 218.848C481.364 218.763 481.002 218.603 480.426 218.368C479.85 218.112 479.156 217.867 478.346 217.632C477.556 217.397 476.81 217.28 476.106 217.28C474.911 217.28 473.94 217.547 473.194 218.08C472.447 218.613 471.882 219.488 471.498 220.704C471.135 221.92 470.954 223.552 470.954 225.6C470.954 228.608 471.391 230.752 472.266 232.032C473.14 233.312 474.495 233.952 476.33 233.952C477.354 233.952 478.25 233.739 479.018 233.312C479.807 232.864 480.436 232.384 480.906 231.872C481.396 231.339 481.642 231.04 481.642 230.976L483.05 232.512C483.05 232.619 482.762 233.003 482.186 233.664C481.631 234.325 480.81 234.944 479.722 235.52C478.634 236.075 477.3 236.352 475.722 236.352ZM489.423 236V217.504H483.823V215.2H499.439V217.504H493.871V236H489.423ZM502.339 215.2H508.675C510.318 215.2 511.683 215.456 512.771 215.968C513.88 216.459 514.702 217.12 515.235 217.952C515.768 218.763 516.035 219.648 516.035 220.608C516.035 221.675 515.736 222.581 515.139 223.328C514.563 224.075 513.827 224.683 512.931 225.152C514.147 225.536 515.118 226.144 515.843 226.976C516.568 227.808 516.931 228.821 516.931 230.016C516.931 231.829 516.238 233.28 514.851 234.368C513.486 235.456 511.48 236 508.835 236H502.339V215.2ZM509.379 224.448C509.976 224.448 510.51 224.171 510.979 223.616C511.47 223.04 511.715 222.123 511.715 220.864C511.715 219.627 511.427 218.72 510.851 218.144C510.275 217.568 509.507 217.28 508.547 217.28H506.755V224.448H509.379ZM508.739 233.92C509.891 233.92 510.798 233.589 511.459 232.928C512.12 232.245 512.451 231.221 512.451 229.856C512.451 227.531 511.502 226.368 509.603 226.368H506.755V233.92H508.739ZM520.558 236V215.2H524.974V228.992L524.75 231.072H524.814L532.878 215.904L533.166 215.2H537.262V236H532.846V222.56L533.038 220.256H533.006L524.974 235.296L524.718 236H520.558ZM542.183 236V215.2H554.663V217.504H546.599V224.352H553.703V226.592H546.599V233.696H555.111V236H542.183ZM560.852 228.64L559.508 213.952V212H564.372V213.952L562.996 228.64H560.852ZM561.972 236.512C561.247 236.512 560.649 236.288 560.18 235.84C559.668 235.328 559.412 234.699 559.412 233.952C559.412 233.205 559.668 232.565 560.18 232.032C560.649 231.584 561.247 231.36 561.972 231.36C562.676 231.36 563.263 231.584 563.732 232.032C564.244 232.565 564.5 233.205 564.5 233.952C564.5 234.699 564.244 235.328 563.732 235.84C563.263 236.288 562.676 236.512 561.972 236.512Z" fill="#F9EB40"/>
<path d="M4.928 131.4H17.664C22.4 131.4 26.0693 132.595 28.672 134.984C31.3173 137.331 32.64 140.829 32.64 145.48C32.64 148.808 31.9147 151.56 30.464 153.736C29.0133 155.912 27.1573 157.512 24.896 158.536C22.6347 159.517 20.288 160.008 17.856 160.008H13.76V173H4.928V131.4ZM16.832 155.912C18.9653 155.912 20.544 155.187 21.568 153.736C22.592 152.243 23.104 149.619 23.104 145.864C23.104 142.067 22.592 139.4 21.568 137.864C20.544 136.328 18.9653 135.56 16.832 135.56H13.76V155.912H16.832ZM35.341 173L49.165 131.4H58.957L71.885 173H62.541L58.957 161.352H44.493L40.717 173H35.341ZM45.773 157.32H57.741L52.045 137.736H51.917L45.773 157.32ZM87.7185 173.704C84.3905 173.704 81.7025 173.213 79.6545 172.232C77.6065 171.251 76.1132 170.205 75.1745 169.096C74.2785 167.987 73.8305 167.304 73.8305 167.048L76.5185 163.72C76.5185 163.848 76.9238 164.381 77.7345 165.32C78.5878 166.216 79.7612 167.048 81.2545 167.816C82.7905 168.584 84.5825 168.968 86.6305 168.968C91.2812 168.968 93.6065 166.365 93.6065 161.16C93.6065 158.429 93.1372 156.531 92.1985 155.464C91.3025 154.397 89.9158 153.864 88.0385 153.864L81.8945 154.376V149.448L88.6145 150.024C89.7665 149.981 90.7478 149.32 91.5585 148.04C92.4118 146.76 92.8385 144.797 92.8385 142.152C92.8385 139.635 92.3692 137.864 91.4305 136.84C90.4918 135.773 88.9345 135.24 86.7585 135.24C85.5638 135.24 84.3052 135.453 82.9825 135.88C81.6598 136.264 80.5292 136.691 79.5905 137.16C78.6518 137.587 78.0545 137.864 77.7985 137.992L76.9665 133.64C76.9665 133.597 77.5852 133.32 78.8225 132.808C80.0598 132.296 81.5318 131.827 83.2385 131.4C84.9452 130.973 86.6945 130.76 88.4865 130.76C92.8812 130.76 96.2732 131.741 98.6625 133.704C101.052 135.667 102.247 138.333 102.247 141.704C102.247 144.093 101.607 146.099 100.327 147.72C99.0892 149.299 97.5105 150.579 95.5905 151.56C100.881 152.84 103.527 156.083 103.527 161.288C103.527 163.72 102.865 165.875 101.543 167.752C100.22 169.629 98.3425 171.101 95.9105 172.168C93.5212 173.192 90.7905 173.704 87.7185 173.704ZM110.678 131.4H119.51V147.336H122.518C127.766 147.336 131.798 148.36 134.614 150.408C137.43 152.456 138.838 155.528 138.838 159.624C138.838 163.891 137.473 167.197 134.742 169.544C132.054 171.848 128.065 173 122.774 173H110.678V131.4ZM143.51 173V131.4H152.342V173H143.51ZM122.582 168.84C125.099 168.84 126.913 168.157 128.022 166.792C129.131 165.384 129.686 163.08 129.686 159.88C129.686 156.723 129.11 154.525 127.958 153.288C126.806 152.008 124.993 151.368 122.518 151.368H119.51V168.84H122.582ZM162.178 173V131.4H185.346V136.008H171.01V173H162.178ZM190.241 131.4H202.977C207.713 131.4 211.382 132.595 213.985 134.984C216.63 137.331 217.953 140.829 217.953 145.48C217.953 148.808 217.227 151.56 215.777 153.736C214.326 155.912 212.47 157.512 210.209 158.536C207.947 159.517 205.601 160.008 203.169 160.008H199.073V173H190.241V131.4ZM202.145 155.912C204.278 155.912 205.857 155.187 206.881 153.736C207.905 152.243 208.417 149.619 208.417 145.864C208.417 142.067 207.905 139.4 206.881 137.864C205.857 136.328 204.278 135.56 202.145 135.56H199.073V155.912H202.145ZM224.366 131.4H233.198V147.336H236.206C241.454 147.336 245.486 148.36 248.302 150.408C251.118 152.456 252.526 155.528 252.526 159.624C252.526 163.891 251.16 167.197 248.43 169.544C245.742 171.848 241.752 173 236.462 173H224.366V131.4ZM257.198 173V131.4H266.03V173H257.198ZM236.27 168.84C238.787 168.84 240.6 168.157 241.71 166.792C242.819 165.384 243.374 163.08 243.374 159.88C243.374 156.723 242.798 154.525 241.646 153.288C240.494 152.008 238.68 151.368 236.206 151.368H233.198V168.84H236.27ZM275.866 131.4H288.538C291.823 131.4 294.554 131.912 296.73 132.936C298.948 133.917 300.591 135.24 301.658 136.904C302.724 138.525 303.257 140.296 303.257 142.216C303.257 144.349 302.66 146.163 301.466 147.656C300.314 149.149 298.842 150.365 297.05 151.304C299.482 152.072 301.423 153.288 302.874 154.952C304.324 156.616 305.05 158.643 305.05 161.032C305.05 164.659 303.663 167.56 300.89 169.736C298.159 171.912 294.148 173 288.858 173H275.866V131.4ZM289.946 149.896C291.14 149.896 292.207 149.341 293.146 148.232C294.127 147.08 294.618 145.245 294.618 142.728C294.618 140.253 294.042 138.44 292.89 137.288C291.738 136.136 290.202 135.56 288.282 135.56H284.698V149.896H289.946ZM288.666 168.84C290.97 168.84 292.783 168.179 294.106 166.856C295.428 165.491 296.09 163.443 296.09 160.712C296.09 156.061 294.191 153.736 290.394 153.736H284.698V168.84H288.666ZM308.591 173L322.415 131.4H332.207L345.135 173H335.791L332.207 161.352H317.743L313.967 173H308.591ZM319.023 157.32H330.991L325.295 137.736H325.167L319.023 157.32ZM351.241 173V131.4H376.201V136.008H360.073V149.704H374.281V154.184H360.073V168.392H377.097V173H351.241ZM384.803 173L385.315 131.4H396.003L407.651 162.056H407.907L419.363 131.4H429.283L429.731 173H421.091L420.643 141.512H420.451L408.867 173H402.275L390.691 141.512H390.499L390.307 173H384.803ZM455.928 173V131.4H487.032V173H478.2V136.008H464.76V173H455.928ZM496.866 131.4H509.602C514.338 131.4 518.007 132.595 520.61 134.984C523.255 137.331 524.578 140.829 524.578 145.48C524.578 148.808 523.852 151.56 522.402 153.736C520.951 155.912 519.095 157.512 516.834 158.536C514.572 159.517 512.226 160.008 509.794 160.008H505.698V173H496.866V131.4ZM508.77 155.912C510.903 155.912 512.482 155.187 513.506 153.736C514.53 152.243 515.042 149.619 515.042 145.864C515.042 142.067 514.53 139.4 513.506 137.864C512.482 136.328 510.903 135.56 508.77 135.56H505.698V155.912H508.77ZM530.991 173V131.4H539.823V158.984L539.375 163.144H539.503L555.631 132.808L556.207 131.4H564.399V173H555.567V146.12L555.951 141.512H555.887L539.823 171.592L539.311 173H530.991ZM583.969 173.704C580.641 173.704 577.953 173.213 575.905 172.232C573.857 171.251 572.363 170.205 571.424 169.096C570.529 167.987 570.081 167.304 570.081 167.048L572.769 163.72C572.769 163.848 573.174 164.381 573.985 165.32C574.838 166.216 576.011 167.048 577.505 167.816C579.041 168.584 580.833 168.968 582.881 168.968C587.531 168.968 589.857 166.365 589.857 161.16C589.857 158.429 589.387 156.531 588.449 155.464C587.553 154.397 586.166 153.864 584.289 153.864L578.145 154.376V149.448L584.865 150.024C586.017 149.981 586.998 149.32 587.809 148.04C588.662 146.76 589.089 144.797 589.089 142.152C589.089 139.635 588.619 137.864 587.681 136.84C586.742 135.773 585.185 135.24 583.009 135.24C581.814 135.24 580.555 135.453 579.233 135.88C577.91 136.264 576.779 136.691 575.841 137.16C574.902 137.587 574.305 137.864 574.049 137.992L573.217 133.64C573.217 133.597 573.835 133.32 575.073 132.808C576.31 132.296 577.782 131.827 579.489 131.4C581.195 130.973 582.945 130.76 584.737 130.76C589.131 130.76 592.523 131.741 594.913 133.704C597.302 135.667 598.497 138.333 598.497 141.704C598.497 144.093 597.857 146.099 596.577 147.72C595.339 149.299 593.761 150.579 591.841 151.56C597.131 152.84 599.777 156.083 599.777 161.288C599.777 163.72 599.115 165.875 597.793 167.752C596.47 169.629 594.593 171.101 592.161 172.168C589.771 173.192 587.041 173.704 583.969 173.704ZM606.928 131.4H615.76V147.336H618.768C624.016 147.336 628.048 148.36 630.864 150.408C633.68 152.456 635.088 155.528 635.088 159.624C635.088 163.891 633.723 167.197 630.992 169.544C628.304 171.848 624.315 173 619.024 173H606.928V131.4ZM639.76 173V131.4H648.592V173H639.76ZM618.832 168.84C621.349 168.84 623.163 168.157 624.272 166.792C625.381 165.384 625.936 163.08 625.936 159.88C625.936 156.723 625.36 154.525 624.208 153.288C623.056 152.008 621.243 151.368 618.768 151.368H615.76V168.84H618.832ZM662.204 158.28L659.516 128.904V125H669.244V128.904L666.492 158.28H662.204ZM664.444 174.024C662.993 174.024 661.799 173.576 660.86 172.68C659.836 171.656 659.324 170.397 659.324 168.904C659.324 167.411 659.836 166.131 660.86 165.064C661.799 164.168 662.993 163.72 664.444 163.72C665.852 163.72 667.025 164.168 667.964 165.064C668.988 166.131 669.5 167.411 669.5 168.904C669.5 170.397 668.988 171.656 667.964 172.68C667.025 173.576 665.852 174.024 664.444 174.024Z" fill="white"/>
<path d="M135.775 75V26.25H146.125V47.55H163V26.25H173.35V75H163V52.8H146.125V75H135.775ZM180.571 75L196.771 26.25H208.246L223.396 75H212.446L208.246 61.35H191.296L186.871 75H180.571ZM192.796 56.625H206.821L200.146 33.675H199.996L192.796 56.625ZM230.55 75L231.15 26.25H243.675L257.325 62.175H257.625L271.05 26.25H282.675L283.2 75H273.075L272.55 38.1H272.325L258.75 75H251.025L237.45 38.1H237.225L237 75H230.55ZM320.725 75V33.15L313.3 37.125L311.275 32.625L322.525 26.25H330.55V75H320.725ZM352.858 75.825C350.158 75.825 347.833 75.425 345.883 74.625C343.933 73.825 342.408 72.975 341.308 72.075C340.208 71.125 339.658 70.575 339.658 70.425L342.658 66.225C342.658 66.325 343.083 66.75 343.933 67.5C344.833 68.25 345.958 68.95 347.308 69.6C348.708 70.2 350.283 70.5 352.033 70.5C354.933 70.5 357.158 69.65 358.708 67.95C360.308 66.25 361.108 63.4 361.108 59.4C361.108 55.7 360.433 53.05 359.083 51.45C357.783 49.85 355.908 49.05 353.458 49.05C352.208 49.05 351.083 49.275 350.083 49.725C349.083 50.175 348.358 50.725 347.908 51.375L347.533 52.125L344.008 51.6L346.858 26.25H369.208L368.683 36H350.908L350.008 44.925C351.458 44.475 352.908 44.25 354.358 44.25C359.658 44.25 363.883 45.525 367.033 48.075C370.183 50.625 371.758 54.325 371.758 59.175C371.758 62.875 370.833 65.975 368.983 68.475C367.183 70.975 364.833 72.825 361.933 74.025C359.083 75.225 356.058 75.825 352.858 75.825ZM399.668 75.75C398.468 75.75 397.493 75.65 396.743 75.45C395.993 75.3 395.618 75.2 395.618 75.15L395.993 68.55C396.143 68.6 396.443 68.675 396.893 68.775C397.343 68.875 397.793 68.925 398.243 68.925C401.743 68.925 404.318 65.6 405.968 58.95C407.668 52.25 408.518 41.35 408.518 26.25H435.143V75H424.793V31.65H414.443C414.393 46.4 413.093 57.45 410.543 64.8C407.993 72.1 404.368 75.75 399.668 75.75ZM446.688 75V26.25H475.938V31.65H457.038V47.7H473.688V52.95H457.038V69.6H476.988V75H446.688ZM494.419 75V31.65H481.294V26.25H517.894V31.65H504.844V75H494.419ZM529.116 57.75L525.966 23.325V18.75H537.366V23.325L534.141 57.75H529.116ZM531.741 76.2C530.041 76.2 528.641 75.675 527.541 74.625C526.341 73.425 525.741 71.95 525.741 70.2C525.741 68.45 526.341 66.95 527.541 65.7C528.641 64.65 530.041 64.125 531.741 64.125C533.391 64.125 534.766 64.65 535.866 65.7C537.066 66.95 537.666 68.45 537.666 70.2C537.666 71.95 537.066 73.425 535.866 74.625C534.766 75.675 533.391 76.2 531.741 76.2Z" fill="#F9EB40"/>
</svg>
